G04 ================== begin FILE IDENTIFICATION RECORD ==================*
G04 Layout Name:  F:/prj/I.MX/I.MX233/idmx2-13-07/pcb/idmx1307pcb_46-0-49-152.brd*
G04 Film Name:    3Signal1*
G04 File Format:  Gerber RS274X*
G04 File Origin:  15.5-p006*
G04 Origin Date:  Thu Mar 06 11:04:17 2014*
G04 ================== end FILE IDENTIFICATION RECORD ====================*
%FSLAX55Y55*MOIN*%
%IR0*IPPOS*OFA0.00000B0.00000*MIA0B0*SFA1.00000B1.00000*%
%ADD19C,.15*%
%ADD24O,.1024X.0709*%
%ADD21C,.1492*%
%ADD25C,.1575*%
%ADD10C,.1496*%
%ADD22O,.1181X.0787*%
%ADD23O,.0787X.1181*%
%ADD16C,.02*%
%ADD15C,.03*%
%ADD14C,.06*%
%ADD20C,.025*%
%ADD18C,.07*%
%ADD13C,.045*%
%ADD27C,.0354*%
%ADD12R,.06X.06*%
%ADD17R,.07X.07*%
%ADD26C,.0866*%
%ADD11C,.0598*%
%ADD28C,.005*%
%ADD29C,.008*%
%ADD30C,.01*%
%ADD31C,.012*%
G75*
%LPD*%
G75*
G54D10*
X-183070Y-88590D03*
Y187010D03*
X183070Y-88590D03*
Y187010D03*
G54D11*
X-191850Y-70790D03*
Y-60790D03*
Y-50790D03*
Y-40790D03*
Y-30790D03*
Y-20790D03*
Y-10790D03*
Y-790D03*
Y9210D03*
Y19210D03*
Y29210D03*
Y39210D03*
Y49210D03*
Y59210D03*
Y69210D03*
Y79210D03*
Y89210D03*
Y99210D03*
Y109210D03*
Y119210D03*
Y129210D03*
Y139210D03*
Y149210D03*
Y159210D03*
Y169210D03*
X-181850Y-60790D03*
Y-50790D03*
Y-40790D03*
Y-30790D03*
Y-20790D03*
Y-10790D03*
Y-790D03*
Y9210D03*
Y19210D03*
Y29210D03*
Y39210D03*
Y49210D03*
Y59210D03*
Y69210D03*
Y79210D03*
Y89210D03*
Y99210D03*
Y109210D03*
Y119210D03*
Y129210D03*
Y139210D03*
Y149210D03*
Y159210D03*
Y169210D03*
X-112440Y184040D03*
X19300Y174230D03*
Y191950D03*
X46860Y174230D03*
Y191950D03*
G54D20*
X-111830Y-30980D03*
X-106830Y159020D03*
X93170Y-10980D03*
Y99020D03*
G54D30*
G01X-66800Y87250D02*
X-68150Y88600D01*
X-108690D01*
X-109540Y89450D01*
X-117050Y96950D01*
Y134250D01*
X-123580Y140780D01*
X-133070D01*
X-134250Y139600D01*
G01X-66900Y90950D02*
X-67300D01*
X-68150Y90100D01*
X-108060D01*
X-108470Y90520D01*
X-115550Y97580D01*
Y134880D01*
X-122950Y142280D01*
X-133060D01*
X-134250Y143470D01*
G01X25600Y110350D02*
X24200Y108950D01*
Y42760D01*
X17950Y36510D01*
Y34410D01*
X12150Y28610D01*
Y7810D01*
X14360Y5600D01*
X16360D01*
X17550Y6790D01*
G01Y2920D02*
X16370Y4100D01*
X13730D01*
X10650Y7180D01*
Y29240D01*
X16450Y35040D01*
Y37140D01*
X22700Y43390D01*
Y109490D01*
X22450Y109740D01*
Y109900D01*
X21890Y110460D01*
Y110540D01*
G01X132450Y-12950D02*
Y-27250D01*
X128950Y-30750D01*
Y-38840D01*
X125150Y-42650D01*
X121710D01*
X118040Y-46320D01*
G01X130950Y-12950D02*
Y-26620D01*
X127450Y-30120D01*
Y-38210D01*
X124520Y-41150D01*
X123950D01*
X122950Y-40150D01*
Y-36410D01*
X123040Y-36320D01*
G01X128040Y-46320D02*
X133190Y-51470D01*
X140590D01*
X146620Y-57500D01*
X151680D01*
X156740Y-52450D01*
X156780D01*
X158650Y-50580D01*
Y-12950D01*
G01X143040Y-36320D02*
X141650Y-37710D01*
Y-44140D01*
X142130Y-44620D01*
Y-50880D01*
X147250Y-56000D01*
X151050D01*
X156100Y-50950D01*
X156150D01*
X157150Y-49950D01*
Y-12900D01*
G01X138670Y45600D02*
X137100Y44030D01*
Y39650D01*
X132450Y35000D01*
Y-12950D01*
G01D02*
X134810D01*
X135130Y-12630D01*
G01X134020Y45600D02*
X135600Y44020D01*
Y40280D01*
X130950Y35630D01*
Y-12950D01*
G01D02*
X128400D01*
X128250Y-12800D01*
G01X158650Y-12950D02*
Y26100D01*
X148500Y36250D01*
Y39060D01*
X150080Y40640D01*
G01X158650Y-12950D02*
X161000D01*
X161400Y-12550D01*
G01X157150Y-12900D02*
Y25400D01*
X147000Y35550D01*
Y39070D01*
X145430Y40640D01*
G01X157150Y-12900D02*
X154500D01*
X154250Y-12650D01*
G54D12*
X-181850Y-70790D03*
X-102440Y184040D03*
X171960Y124950D03*
G54D21*
X-76950Y-75120D03*
X-26170D03*
G54D31*
G01X-43050Y42850D02*
X-36300Y49600D01*
X-18550D01*
X-7750Y60400D01*
Y64000D01*
X-12450Y68700D01*
X-16400D01*
X-22050Y74350D01*
Y77900D01*
X-15200Y84750D01*
Y134300D01*
X-5650Y143850D01*
X-5600D01*
X4150Y153600D01*
Y167800D01*
X-100Y172050D01*
X-29750D01*
X-33020Y175320D01*
G54D13*
X-171310Y-73390D03*
X-170110Y175420D03*
X183420Y-67380D03*
X185060Y12360D03*
X186940Y166530D03*
G54D22*
X6260Y-80710D03*
G54D14*
X-155550Y-88350D03*
Y-58350D03*
Y-68350D03*
Y-48350D03*
X-92390Y137200D03*
X-76160Y16040D03*
X-73170Y137200D03*
X-56940Y16040D03*
X109460Y-90610D03*
X119460D03*
X118040Y-46320D03*
X128040D03*
X123040Y-36320D03*
X138040Y-46320D03*
X133040Y-36320D03*
X143040D03*
X161660Y-90610D03*
X151660D03*
X148040Y-46320D03*
X153040Y-36320D03*
X171960Y94950D03*
X181200Y32640D03*
Y51860D03*
G54D23*
X6260Y-65750D03*
G54D15*
G01X-191850Y159210D02*
Y169210D01*
G01X-166310Y143800D02*
Y161810D01*
X-179550Y175050D01*
X-186010D01*
X-191850Y169210D01*
G01X-155550Y-58350D02*
X-155400Y-58200D01*
X-150800D01*
X-146450Y-62550D01*
Y-77700D01*
X-130370Y-93780D01*
X-102630D01*
X-96150Y-87300D01*
X-73850D01*
X-67100Y-94050D01*
X-61000D01*
X-54250Y-87300D01*
X-36500D01*
X-32400Y-91400D01*
X11900D01*
X19050Y-84250D01*
Y-45450D01*
X13160Y-39560D01*
Y-31010D01*
G01X-16840D02*
Y-38010D01*
X-14650Y-40200D01*
Y-79650D01*
X-21300Y-86300D01*
X-30300D01*
X-36750Y-79850D01*
X-57630D01*
X-64240Y-86460D01*
X-157950Y26450D03*
X-147050Y-30750D03*
X-136850Y28550D03*
X-141600Y149050D03*
X-149700Y185100D03*
X-144600D03*
X-126260Y-13350D03*
X-132000Y-23200D03*
X-131400Y23300D03*
X-118750Y14450D03*
X-129950Y92900D03*
X-120050Y161750D03*
X-122050Y169050D03*
X-114150Y31550D03*
X-109900Y123900D03*
X-104850Y147900D03*
X-114900Y173550D03*
X-98250Y-33450D03*
X-87200Y16400D03*
X-87690Y179840D03*
X-71480Y-58480D03*
X-66550Y16550D03*
X-73250Y29950D03*
X-76250Y55700D03*
X-82650Y145950D03*
X-72600Y179750D03*
X-64240Y-86460D03*
X-55250Y-9650D03*
X-65750Y30150D03*
X-65150Y44690D03*
X-59570Y36040D03*
X-49100Y55000D03*
X-56600Y71550D03*
X-59020Y66430D03*
X-64360Y100010D03*
X-57900Y179300D03*
X-41440Y-93210D03*
X-34650Y-7700D03*
X-44900Y39100D03*
X-45300Y27740D03*
X-33000Y52300D03*
X-39050Y78900D03*
X-33350Y68050D03*
X-48250Y78750D03*
X-39840Y87960D03*
X-43450Y173400D03*
X-19300Y-62950D03*
X-23250Y-44850D03*
X-29800Y10950D03*
X-29050Y15300D03*
X-30800Y41350D03*
X-14690Y178860D03*
X-15650Y191700D03*
X-5560Y-45160D03*
X-1850Y-20950D03*
X9890Y-52490D03*
X15750Y11200D03*
X19500Y15100D03*
X20450Y27900D03*
X7950Y154600D03*
X36860Y2540D03*
X30450Y4700D03*
X34210Y140810D03*
X41200Y4000D03*
X51150Y35700D03*
X47350Y148290D03*
X44090Y140410D03*
X59520Y-76820D03*
X60570Y-53620D03*
X64200Y148840D03*
X59060Y140960D03*
X90700Y-66000D03*
X86770Y75930D03*
X81350Y69850D03*
X80050Y88350D03*
Y81300D03*
X83610Y140410D03*
X74010Y140760D03*
X92400Y-91390D03*
X96830Y-72470D03*
X95680Y-47280D03*
X98430Y7920D03*
X92240Y2610D03*
X96850Y148000D03*
X103610Y165140D03*
X117400Y-16550D03*
X114840Y-2340D03*
X120050Y4950D03*
X110600Y20050D03*
X112010Y28240D03*
X119500Y108950D03*
X110540Y136260D03*
X121450Y163850D03*
X110540Y164540D03*
X139000Y-560D03*
X138670Y45600D03*
X134020D03*
X140950Y65300D03*
X133200Y102340D03*
X136100Y156600D03*
X150110Y-25660D03*
X151900Y13500D03*
X150080Y40640D03*
X145430D03*
X151900Y49100D03*
X159300Y54800D03*
X150570Y67070D03*
X157400Y97350D03*
X144770Y130020D03*
X173750Y-8300D03*
X164400Y-130D03*
X164830Y14420D03*
X176200Y27950D03*
X172980Y53820D03*
X175560Y69990D03*
X161980Y114270D03*
X168080Y116390D03*
X170420Y142130D03*
X184550Y-42900D03*
X186860Y-18260D03*
X186070Y128820D03*
G54D24*
X37710Y-83860D03*
Y-61810D03*
X45590Y-93700D03*
Y-69290D03*
Y-47250D03*
X72390Y-83860D03*
Y-61810D03*
X80270Y-93700D03*
Y-69290D03*
Y-47250D03*
G54D16*
X-160350Y101450D03*
X-167580Y116580D03*
X-140500Y167000D03*
X-128750Y32100D03*
X-123450Y55650D03*
X-122250Y88850D03*
X-125050Y91400D03*
X-134250Y139600D03*
Y143470D03*
X-124450Y135000D03*
X-116650Y21300D03*
X-115500Y40800D03*
X-101550Y45280D03*
Y49600D03*
X-110300Y56300D03*
X-110400Y50250D03*
X-110250Y59250D03*
X-117050Y70850D03*
X-116300Y62500D03*
X-102350Y80100D03*
X-111600Y109510D03*
X-104390Y106310D03*
X-108800Y116000D03*
X-118400Y166350D03*
X-87740Y-19240D03*
X-101250Y6750D03*
X-97800Y17250D03*
X-100400Y29350D03*
X-87650Y30200D03*
X-96600Y28250D03*
X-84650Y43600D03*
X-92050Y29900D03*
X-92150Y44450D03*
X-101350Y36150D03*
X-97050Y46820D03*
X-88200Y46550D03*
X-98650Y79350D03*
X-95800Y77400D03*
X-89200Y67450D03*
X-92250Y95850D03*
X-100870Y100070D03*
X-87300Y113950D03*
X-95680Y108690D03*
X-90200Y104250D03*
X-88050Y108350D03*
X-93200Y101250D03*
X-90600Y99150D03*
X-85800Y98650D03*
X-87850Y100750D03*
X-84500Y101650D03*
X-87150Y127750D03*
X-96560Y115990D03*
X-78450Y43450D03*
X-83700Y30800D03*
X-71950Y40150D03*
X-81550Y43800D03*
X-79700Y30000D03*
X-71450Y45650D03*
X-73350Y64150D03*
X-67550Y79250D03*
X-71360Y78960D03*
X-66800Y87250D03*
X-66900Y90950D03*
X-70600Y113000D03*
X-80700Y112950D03*
X-74180Y107150D03*
X-82350Y104850D03*
X-77550Y109450D03*
X-80650Y107400D03*
X-74510Y127260D03*
X-78700Y127400D03*
X-63950Y-28400D03*
X-56200Y-15660D03*
X-60350Y-19450D03*
X-62650Y-13050D03*
X-58400Y79050D03*
X-62460Y77650D03*
X-52900Y92700D03*
X-53850Y84550D03*
X-64900Y106950D03*
X-59350Y123650D03*
X-50100Y126250D03*
X-54450Y124850D03*
X-59150Y119100D03*
X-61060Y167390D03*
X-32750Y9300D03*
X-47250Y-2850D03*
X-31910Y16710D03*
X-42810Y24590D03*
X-43050Y42850D03*
X-42350Y36750D03*
X-32880Y47050D03*
X-34800Y62400D03*
X-42710Y62350D03*
X-31700Y87800D03*
X-32300Y84000D03*
X-35350Y80450D03*
X-47300Y134050D03*
X-48500Y138250D03*
X-33020Y175320D03*
X-14900Y-14850D03*
X-19100Y-17600D03*
Y9110D03*
X-22800Y8950D03*
X-21150Y3550D03*
X-21100Y11550D03*
X-25250Y12250D03*
X-25330Y25350D03*
X-21300Y23350D03*
X-18100Y29350D03*
X-19700Y34350D03*
X-18950Y42150D03*
X-30350Y37190D03*
X-23800Y28600D03*
X-25410Y36050D03*
X-25000Y31650D03*
X-15000Y38550D03*
X-18300Y36950D03*
X-17100Y46900D03*
X-23240Y46710D03*
X-30250Y45500D03*
X-31250Y63400D03*
X-16650Y65100D03*
X-15300Y76650D03*
X-20600Y87800D03*
X-23300Y84950D03*
X-25750Y80250D03*
X-28450Y96600D03*
X-20850Y111250D03*
X-19700Y122900D03*
X-22850Y126000D03*
X-20900Y142750D03*
X-29300Y178050D03*
X-1750Y-37500D03*
X-11400Y-25650D03*
X-11350Y-12050D03*
X-8800Y-21000D03*
X2050Y8600D03*
X-5350Y800D03*
X-8400Y3200D03*
X-13000Y3050D03*
X1100Y-3050D03*
X-2200Y21500D03*
X-8350Y20450D03*
X-11900Y20150D03*
X-3000Y13700D03*
X-600Y15700D03*
X2450Y18900D03*
X-7500Y41300D03*
X-10250Y49400D03*
X3300Y63250D03*
X-10550Y62100D03*
X-850Y64550D03*
X-5000Y90700D03*
X-12850Y79700D03*
X-3800Y100700D03*
X-2700Y121800D03*
X1450Y137400D03*
X500Y142000D03*
X-7800Y136000D03*
X11250Y-43500D03*
X19000Y-40300D03*
X12300Y-1200D03*
X14800Y-3610D03*
X17550Y6790D03*
Y2920D03*
X4500Y11900D03*
X20510Y19860D03*
X7550Y38400D03*
X15750Y41750D03*
X5650Y28050D03*
X18250Y45950D03*
X8730Y112800D03*
X6450Y107950D03*
X11700Y97850D03*
X13050Y114300D03*
X10730Y125400D03*
X16350Y138650D03*
X19450Y146800D03*
X9640Y146750D03*
X6100Y144200D03*
X9650Y150300D03*
X35800Y-3950D03*
X22110Y-6550D03*
X34000Y5850D03*
X35750Y9500D03*
X20950Y35150D03*
X30300Y71500D03*
X28300Y68250D03*
X30110Y91940D03*
X25600Y110350D03*
X21890Y110540D03*
X35600Y108000D03*
X21850Y120700D03*
X22430Y146900D03*
X23050Y150050D03*
X47700Y18590D03*
X42400Y20590D03*
X50600Y14250D03*
X47450Y13990D03*
X46650Y23000D03*
X43450Y11990D03*
X53500Y39900D03*
X49900D03*
X38750Y30500D03*
X46250D03*
X53300Y30750D03*
X42600Y30600D03*
X50050Y30800D03*
X40900Y54750D03*
X48650Y55200D03*
X40100Y91750D03*
X44350Y96700D03*
X49350Y104850D03*
X46850Y102850D03*
X47100Y109750D03*
X51900Y109250D03*
X53600Y112370D03*
X44450Y120850D03*
X39750Y117500D03*
X45470Y124850D03*
X55600Y125850D03*
X49850Y138950D03*
X64950Y-12400D03*
X71800Y-7450D03*
X73150Y26250D03*
X56950Y40050D03*
X59700Y55750D03*
Y52500D03*
X60600Y78600D03*
X65150Y112050D03*
X56900Y105150D03*
X61250Y112050D03*
X69950Y123400D03*
X66700Y123300D03*
X65350Y139400D03*
X90050Y6450D03*
X85950Y-1950D03*
X73650Y7700D03*
X74750Y-3850D03*
X78300Y24550D03*
X78850Y14950D03*
X75500Y14850D03*
X77400Y34350D03*
X76300Y40650D03*
X82250Y29300D03*
X76300Y105250D03*
X73620Y123400D03*
X94370Y47670D03*
X107050Y48900D03*
X105580Y115820D03*
X120660Y-21360D03*
X124700Y57800D03*
X116620Y67180D03*
X110450Y66650D03*
X113570Y103080D03*
X116250Y125300D03*
X116620Y121230D03*
X142740Y-13090D03*
X135130Y-12630D03*
X128250Y-12800D03*
X142350Y13350D03*
X140850Y32900D03*
X127950Y48750D03*
X141650Y52550D03*
X126050Y86850D03*
X132350Y130300D03*
X134150Y121150D03*
X134450Y125200D03*
X140450Y134300D03*
X154250Y-12650D03*
X144330Y26180D03*
X146260Y16660D03*
X143750Y29750D03*
X150450Y83200D03*
X145700Y122550D03*
X154470Y129670D03*
X149250Y134750D03*
X153500Y145150D03*
X168080Y-13020D03*
X161400Y-12550D03*
X162050Y24050D03*
X173450Y34750D03*
X162950Y37850D03*
Y28250D03*
X163270Y32450D03*
X163450Y76150D03*
X162400Y132100D03*
G54D25*
X113040Y-71320D03*
X158080D03*
G54D26*
X105050Y-59310D03*
X166070D03*
G54D17*
X-166310Y123800D03*
X-138090Y127720D03*
X-64910Y-66460D03*
X-56840Y-31010D03*
X-30990Y105450D03*
X-2800Y159010D03*
X83190Y-31010D03*
Y159060D03*
G54D27*
X119960Y182480D03*
X151260D03*
G54D18*
X-166310Y133800D03*
Y143800D03*
X-138090Y97720D03*
Y107720D03*
Y117720D03*
X-82800Y159010D03*
X-92800D03*
X-72800D03*
X-47030Y-66460D03*
X-54910D03*
X-46840Y-31010D03*
X-52800Y159010D03*
X-62800D03*
X-37030Y-66460D03*
X-36840Y-31010D03*
X-30990Y115450D03*
X-40990D03*
Y105450D03*
X-30990Y125450D03*
X-40990D03*
X-32800Y159010D03*
X-42800D03*
X-26840Y-31010D03*
X-16840D03*
X-12800Y159010D03*
X-22800D03*
X-6840Y-31010D03*
X3160D03*
X13160D03*
X23190Y159060D03*
X13190D03*
X33190Y-31010D03*
Y159060D03*
X53190Y-31010D03*
X43190D03*
X53190Y159060D03*
X43190D03*
X73190Y-31010D03*
X63190D03*
X73190Y159060D03*
X63190D03*
G54D28*
G01X44450Y120850D02*
Y110600D01*
X38250Y104400D01*
Y88650D01*
X37850Y88250D01*
X37450D01*
Y86250D01*
X38250D01*
Y84250D01*
X37450D01*
Y82250D01*
X38250D01*
Y80250D01*
X37450D01*
Y78250D01*
X38250D01*
Y76250D01*
X37450D01*
Y74250D01*
X38250D01*
Y42400D01*
X29750Y33900D01*
Y11650D01*
X34000Y7400D01*
Y5850D01*
G01X40900Y54750D02*
Y38100D01*
X34850Y32050D01*
Y14250D01*
X34050Y13450D01*
Y11710D01*
X35750Y10010D01*
Y9500D01*
G01X39750Y117500D02*
Y109150D01*
X36000Y105400D01*
Y90550D01*
X35250Y89800D01*
Y86550D01*
X34300D01*
Y84550D01*
X35250D01*
Y82550D01*
X34300D01*
Y80550D01*
X35250D01*
Y78550D01*
X34300D01*
Y76550D01*
X35250D01*
Y74550D01*
X34300D01*
Y72550D01*
X35250D01*
Y70550D01*
X34300D01*
Y68550D01*
X35250D01*
Y66550D01*
X34300D01*
Y64550D01*
X35250D01*
Y62550D01*
X34300D01*
Y60550D01*
X35250D01*
Y58550D01*
X34300D01*
Y56550D01*
X35250D01*
Y54550D01*
X34300D01*
Y52550D01*
X35250D01*
Y50550D01*
X34300D01*
Y48550D01*
X35250D01*
Y43250D01*
X27350Y35350D01*
Y23900D01*
X23310Y19860D01*
X20510D01*
G01X35600Y108000D02*
Y107950D01*
X32500Y104850D01*
Y103130D01*
X31500Y102130D01*
Y100130D01*
X32750D01*
Y98130D01*
X31500D01*
Y96130D01*
X32750D01*
Y94130D01*
X31500D01*
Y93170D01*
X31960Y92710D01*
Y92010D01*
X32050D01*
Y90010D01*
X31500D01*
Y88010D01*
X32050D01*
Y86010D01*
X31500D01*
Y84010D01*
X32050D01*
Y82010D01*
X31500D01*
Y80010D01*
X32050D01*
Y78010D01*
X31500D01*
Y74500D01*
X32050D01*
Y72370D01*
X32150Y72270D01*
Y70730D01*
X31600Y70180D01*
Y66000D01*
X28200D01*
Y64000D01*
X31600D01*
Y62000D01*
X28200D01*
Y60000D01*
X31600D01*
Y58000D01*
X28200D01*
Y56000D01*
X31600D01*
Y54000D01*
X28200D01*
Y52000D01*
X31600D01*
Y50000D01*
X28200D01*
Y48000D01*
X31600D01*
Y45900D01*
X27500Y41800D01*
Y41700D01*
X20950Y35150D01*
G01X47700Y18590D02*
X49890D01*
X64820Y33520D01*
X67700Y36390D01*
Y74590D01*
X68450Y75340D01*
Y81860D01*
X67700Y82610D01*
Y109500D01*
X65150Y112050D01*
G01X42400Y20590D02*
X43290Y21480D01*
X45340D01*
X45820Y21000D01*
X49470D01*
X65700Y37230D01*
Y75420D01*
X66450Y76170D01*
Y81030D01*
X65700Y81780D01*
Y107800D01*
X61450Y112050D01*
X61250D01*
G01X50600Y14250D02*
X51220D01*
X52120Y15150D01*
X52180D01*
X65690Y28660D01*
Y28710D01*
X69950Y32970D01*
X71710Y34740D01*
Y72940D01*
X72450Y73680D01*
Y83520D01*
X71700Y84270D01*
Y120300D01*
X71620Y120380D01*
Y121730D01*
X69950Y123400D01*
G01X47450Y13990D02*
X50050Y16590D01*
X50720D01*
X51280Y17150D01*
X51350D01*
X63690Y29490D01*
Y29560D01*
X68530Y34390D01*
X69700Y35560D01*
Y73760D01*
X70450Y74510D01*
Y82690D01*
X69700Y83440D01*
Y111350D01*
X66700Y114350D01*
Y118100D01*
X69000D01*
Y120100D01*
X66700D01*
Y123300D01*
G01X46650Y23000D02*
Y23090D01*
X46710Y23150D01*
X48790D01*
X63700Y38060D01*
Y76250D01*
X64450Y77000D01*
Y80200D01*
X63700Y80950D01*
Y105100D01*
X55600Y113200D01*
Y117880D01*
X58550D01*
Y119880D01*
X55600D01*
Y121880D01*
X58550D01*
Y123880D01*
X55600D01*
Y125850D01*
G01X73620Y123400D02*
Y121210D01*
X73700Y121130D01*
Y85100D01*
X74450Y84350D01*
Y72850D01*
X73710Y72110D01*
Y33910D01*
X73700Y33900D01*
X71370Y31560D01*
X67690Y27880D01*
Y27830D01*
X53010Y13150D01*
X52950D01*
X51790Y11990D01*
X43450D01*
G01X53500Y39900D02*
Y44900D01*
X55700Y47100D01*
Y50430D01*
X55280Y50850D01*
X54850D01*
Y52850D01*
X55700D01*
Y54850D01*
X54850D01*
Y56850D01*
X55700D01*
Y58850D01*
X54850D01*
Y60850D01*
X55700D01*
Y62850D01*
X54850D01*
Y64850D01*
X55700D01*
Y66850D01*
X54850D01*
Y68850D01*
X55700D01*
Y70850D01*
X54850D01*
Y72850D01*
X55700D01*
Y74850D01*
X54850D01*
Y76070D01*
X54750Y76170D01*
Y81030D01*
X55700Y81980D01*
Y82850D01*
X54850D01*
Y84850D01*
X55700D01*
Y86850D01*
X54850D01*
Y88850D01*
X55700D01*
Y90850D01*
X54850D01*
Y92850D01*
X55700D01*
Y94850D01*
X54850D01*
Y96850D01*
X55700D01*
Y98850D01*
X52550Y102000D01*
X51250Y100700D01*
X49830Y102120D01*
X51130Y103420D01*
X49700Y104850D01*
X49350D01*
G01X49900Y39900D02*
Y44900D01*
X52120Y47120D01*
X51100Y48140D01*
Y49300D01*
X51600Y49800D01*
X52850D01*
Y52050D01*
X51300D01*
Y54050D01*
X52850D01*
Y56050D01*
X51300D01*
Y58050D01*
X52850D01*
Y60050D01*
X51300D01*
Y62050D01*
X52850D01*
Y64050D01*
X51300D01*
Y66050D01*
X52850D01*
Y68050D01*
X51300D01*
Y70050D01*
X52850D01*
Y72050D01*
X51300D01*
Y74050D01*
X52850D01*
Y75240D01*
X52750Y75340D01*
Y76050D01*
X51300D01*
Y78050D01*
X52750D01*
Y80050D01*
X51300D01*
Y82050D01*
X52850D01*
Y84050D01*
X51300D01*
Y86050D01*
X52850D01*
Y88050D01*
X51300D01*
Y90050D01*
X52850D01*
Y92050D01*
X51300D01*
Y94050D01*
X52080D01*
X52850Y94820D01*
Y96050D01*
X46850Y102050D01*
Y102850D01*
G01X47100Y109750D02*
X46600D01*
X41450Y104600D01*
Y95150D01*
X42800Y93800D01*
Y89770D01*
X42940Y89630D01*
Y86690D01*
X42800Y86550D01*
Y84550D01*
X45250D01*
Y82550D01*
X42800D01*
Y80550D01*
X45250D01*
Y78550D01*
X42800D01*
Y76550D01*
X45250D01*
Y74550D01*
X42800D01*
Y72550D01*
X45250D01*
Y70550D01*
X42800D01*
Y68550D01*
X45250D01*
Y66550D01*
X42800D01*
Y64550D01*
X45250D01*
Y62550D01*
X43500Y60800D01*
Y35700D01*
X38750Y30950D01*
Y30500D01*
G01X48650Y55200D02*
Y46480D01*
X47900Y45730D01*
Y37700D01*
X47500Y37300D01*
Y31750D01*
X46250Y30500D01*
G01X53300Y30750D02*
X53560D01*
X61700Y38890D01*
Y77080D01*
X62450Y77830D01*
Y79370D01*
X61700Y80120D01*
Y104270D01*
X53600Y112370D01*
G01X45470Y124850D02*
X49100Y121220D01*
Y108750D01*
X44600Y104250D01*
Y99500D01*
X47250Y96850D01*
Y95700D01*
X48100Y94850D01*
X48950D01*
Y92850D01*
X47250D01*
Y90850D01*
X48950D01*
Y88850D01*
X47250D01*
Y86850D01*
X48950D01*
Y84850D01*
X47250D01*
Y82850D01*
X48950D01*
Y80850D01*
X47250D01*
Y78850D01*
X48950D01*
Y76850D01*
X47250D01*
Y74850D01*
X48950D01*
Y72850D01*
X47250D01*
Y70850D01*
X48950D01*
Y68850D01*
X47250D01*
Y66850D01*
X48950D01*
Y64850D01*
X47250D01*
Y62850D01*
X48950D01*
Y60850D01*
X47250D01*
Y56630D01*
X45500Y54880D01*
Y33500D01*
X42600Y30600D01*
G01X59700Y52500D02*
Y39720D01*
X52730Y32750D01*
X52470D01*
X50520Y30800D01*
X50050D01*
G01X51900Y109250D02*
X53050Y108100D01*
Y104850D01*
X55710Y102190D01*
X56260Y102740D01*
X57680Y101320D01*
X57130Y100770D01*
X57700Y100200D01*
Y81150D01*
X56750Y80200D01*
Y77000D01*
X57700Y76050D01*
Y40800D01*
X56950Y40050D01*
G01X59700Y55750D02*
Y76880D01*
X58750Y77830D01*
Y79370D01*
X59700Y80320D01*
Y103250D01*
X57800Y105150D01*
X56900D01*
G01X76300Y40650D02*
X76450Y40800D01*
Y85180D01*
X76300Y85330D01*
Y105250D01*
G54D19*
X-113140Y-84180D03*
Y-60560D03*
X-94240Y-72370D03*
G54D29*
G01X-181850Y149210D02*
X-172600Y139960D01*
Y118600D01*
X-170580Y116580D01*
X-167580D01*
G01X-116650Y21300D02*
X-116700Y21350D01*
X-122650D01*
X-137880Y36580D01*
Y68130D01*
X-157550Y87800D01*
Y142400D01*
X-139380Y160570D01*
Y165880D01*
X-140500Y167000D01*
G01X-128750Y32100D02*
X-128900D01*
X-129700Y32900D01*
Y76200D01*
X-125050Y80850D01*
Y91400D01*
G01X-123450Y55650D02*
X-122700D01*
X-118650Y51600D01*
Y32500D01*
X-114300Y28150D01*
Y-10950D01*
X-97150Y-28100D01*
X-64250D01*
X-63950Y-28400D01*
G01X-122250Y88850D02*
Y83550D01*
X-121550Y82850D01*
Y70600D01*
X-113400Y62450D01*
Y45100D01*
X-111400Y43100D01*
Y-9700D01*
X-95900Y-25200D01*
X-41850D01*
X-36840Y-30210D01*
Y-31010D01*
G01X-110400Y50250D02*
Y45700D01*
X-109100Y44400D01*
Y-3500D01*
X-99100Y-13500D01*
X-88600D01*
X-82650Y-19450D01*
X-60350D01*
G01X-110300Y56300D02*
X-110200Y56200D01*
X-108600D01*
X-106650Y54250D01*
Y-250D01*
X-95750Y-11150D01*
X-87400D01*
X-82890Y-15660D01*
X-56200D01*
G01X-110250Y59250D02*
X-106400D01*
X-104100Y56950D01*
Y2300D01*
X-92100Y-9700D01*
X-86250D01*
X-82900Y-13050D01*
X-62650D01*
G01X-116300Y62500D02*
Y41600D01*
X-115500Y40800D01*
G01X33190Y159060D02*
Y177160D01*
X26190Y184160D01*
X-42200D01*
X-54260Y172100D01*
X-61450D01*
X-68200Y165350D01*
Y155050D01*
X-71200Y152050D01*
X-86820D01*
X-102390Y136480D01*
Y102350D01*
X-103350Y101390D01*
Y98650D01*
X-100550Y95850D01*
X-92250D01*
G01X-104390Y106310D02*
Y136460D01*
X-87400Y153450D01*
X-79600D01*
X-77400Y155650D01*
Y163050D01*
X-65180Y175270D01*
X-57700D01*
X-47410Y185560D01*
X30290D01*
X40500Y175350D01*
Y161750D01*
X43190Y159060D01*
G01X-47250Y-2850D02*
X-77850D01*
X-97800Y17100D01*
Y17250D01*
G01X-97050Y46820D02*
Y36350D01*
X-100400Y33000D01*
Y29350D01*
G01X-88200Y46550D02*
Y30750D01*
X-87650Y30200D01*
G01X-59350Y123650D02*
X-56300Y120600D01*
Y80180D01*
X-56400Y80080D01*
Y76850D01*
X-62800Y70450D01*
X-83100D01*
X-94550Y59000D01*
Y34900D01*
X-96600Y32850D01*
Y28250D01*
G01X-92050Y29900D02*
X-92150Y30000D01*
Y44450D01*
G01X-101550Y49600D02*
X-100950D01*
X-99550Y48200D01*
Y42050D01*
X-101300Y40300D01*
Y36200D01*
X-101350Y36150D01*
G01X-92150Y44450D02*
Y57490D01*
X-80710Y68930D01*
X-55680D01*
X-54100Y70510D01*
Y70900D01*
X-51500Y73500D01*
Y91270D01*
X-50900Y91870D01*
Y121300D01*
G01X-100870Y100070D02*
X-100800Y100140D01*
Y100210D01*
X-100550Y100460D01*
Y135300D01*
X-85850Y150000D01*
X-62600D01*
X-57700Y154900D01*
Y163850D01*
X-38880Y182670D01*
X-25770D01*
X-25680Y182760D01*
X24090D01*
X28000Y178850D01*
Y172000D01*
X23190Y167190D01*
Y159060D01*
G01X-42800Y159010D02*
X-44040D01*
X-51550Y151500D01*
X-51750D01*
X-62450Y140800D01*
Y137410D01*
X-70160Y129700D01*
X-86270D01*
X-86320Y129750D01*
X-91420D01*
X-94200Y126970D01*
Y113650D01*
X-95680Y112170D01*
Y108690D01*
G01X-12800Y159010D02*
Y158620D01*
X-23470Y147950D01*
X-45970D01*
X-65340Y128580D01*
X-65370D01*
X-72500Y121450D01*
X-84750D01*
X-90000Y116200D01*
Y109230D01*
X-90050Y109180D01*
Y107520D01*
X-90000Y107470D01*
Y104450D01*
X-90200Y104250D01*
G01X-2800Y159010D02*
X-10810Y151000D01*
X-16350D01*
Y150900D01*
X-20700Y146550D01*
X-45390D01*
X-63720Y128220D01*
Y128180D01*
X-71850Y120050D01*
X-77950D01*
X-84200Y113800D01*
Y112200D01*
X-88050Y108350D01*
G01X-22800Y159010D02*
Y158510D01*
X-30600Y150710D01*
X-47170D01*
X-73530Y124350D01*
X-89150D01*
X-92800Y120700D01*
Y101650D01*
X-93200Y101250D01*
G01X-52800Y159010D02*
Y154250D01*
X-65550Y141500D01*
Y137300D01*
X-71600Y131250D01*
X-91900D01*
X-98560Y124590D01*
Y102060D01*
X-94950Y98450D01*
X-91300D01*
X-90600Y99150D01*
G01X-72600Y179750D02*
X-75500D01*
X-92800Y162450D01*
Y159010D01*
G01X-31700Y87800D02*
Y87700D01*
X-29950Y85950D01*
Y79150D01*
X-61700Y47400D01*
Y43850D01*
X-63450Y42100D01*
X-68600D01*
X-70000Y43500D01*
X-73830D01*
X-73930Y43600D01*
X-78300D01*
X-78450Y43450D01*
G01X-84650Y43600D02*
X-84680D01*
X-84700Y43580D01*
Y31800D01*
X-83700Y30800D01*
G01X-84650Y43600D02*
Y59750D01*
X-77350Y67050D01*
X-70150D01*
X-67030Y63930D01*
X-53220D01*
X-45750Y71400D01*
Y82450D01*
X-49000Y85700D01*
Y125150D01*
X-50100Y126250D01*
G01X-53920Y40150D02*
X-71950D01*
G01X-81550Y43800D02*
Y31850D01*
X-79700Y30000D01*
G01X-32300Y84000D02*
Y80550D01*
X-65100Y47750D01*
X-69350D01*
X-71450Y45650D01*
G01X-80700Y112950D02*
X-75000Y118650D01*
X-69460D01*
X-65540Y122570D01*
Y122760D01*
X-50050Y138250D01*
X-48500D01*
G01X-57900Y179300D02*
X-58400Y179800D01*
X-66100D01*
X-82800Y163100D01*
Y159010D01*
G01X-53920Y40150D02*
X-52100Y38330D01*
Y17400D01*
X-40130Y5430D01*
Y-14670D01*
X-31830Y-22970D01*
Y-41720D01*
X-24750Y-48800D01*
Y-57500D01*
X-19300Y-62950D01*
G01X-10550Y62100D02*
X-17000Y55650D01*
X-35200D01*
X-43890Y46960D01*
X-47110D01*
X-53920Y40150D01*
G01X-50900Y121300D02*
X-54450Y124850D01*
G01X-50900Y121300D02*
Y121950D01*
X-53800Y124850D01*
X-54450D01*
G01X-30350Y37190D02*
Y24850D01*
X-18700Y13200D01*
Y11540D01*
X-17100Y9940D01*
Y8580D01*
X-16800Y8280D01*
Y-13920D01*
X-16900Y-14020D01*
Y-15680D01*
X-16800Y-15780D01*
Y-16520D01*
X-16000Y-17320D01*
Y-24560D01*
X-12330Y-28230D01*
Y-36020D01*
X-5560Y-42790D01*
Y-45160D01*
G01X-29300Y178050D02*
X-26080Y181270D01*
X-15820D01*
X-15730Y181360D01*
X6990D01*
X13190Y175160D01*
Y159060D01*
G01X-3000Y13700D02*
Y-4220D01*
X-1010Y-6210D01*
Y-6350D01*
X15400Y-22760D01*
Y-25180D01*
X33500Y-43280D01*
Y-53600D01*
X29800Y-57300D01*
Y-75950D01*
X37710Y-83860D01*
G01X2050Y8600D02*
Y3950D01*
X25750Y-19750D01*
X86950D01*
X93100Y-25900D01*
Y-63600D01*
X90700Y-66000D01*
G01X-600Y15700D02*
Y-1920D01*
X-900Y-2220D01*
Y-3880D01*
X-600Y-4180D01*
Y-4630D01*
X400Y-5630D01*
Y-5780D01*
X16800Y-22180D01*
Y-23790D01*
X20350Y-27340D01*
Y-28150D01*
X37710Y-45510D01*
Y-61810D01*
G01X4500Y11900D02*
Y3480D01*
X26330Y-18350D01*
X87600D01*
X95680Y-26430D01*
Y-47280D01*
G01X157400Y97350D02*
X121600Y61550D01*
X116250D01*
X108150Y53450D01*
X103650D01*
X83300Y33100D01*
X81000D01*
X76800Y28900D01*
Y26350D01*
X46500Y-3950D01*
X35800D01*
G01X162950Y28250D02*
X163400Y27800D01*
X164900D01*
X168750Y23950D01*
X168850D01*
X176550Y16250D01*
Y-10950D01*
X174110Y-13390D01*
Y-70090D01*
X161480Y-82720D01*
X136980D01*
X129090Y-90610D01*
X119460D01*
G01X162400Y132100D02*
Y122950D01*
X130200Y90750D01*
X123850D01*
X110450Y77350D01*
Y66650D01*
G01X116250Y125300D02*
X127350D01*
X132350Y130300D01*
G01X163270Y32450D02*
X163350D01*
X164700Y31100D01*
X164800D01*
X178000Y17900D01*
Y-11650D01*
X175510Y-14140D01*
Y-72740D01*
X163950Y-84300D01*
X156750D01*
X151660Y-89390D01*
Y-90610D01*
G01X154470Y129670D02*
Y144180D01*
X153500Y145150D01*
G01X149250Y134750D02*
Y134500D01*
M02*
