G04 CAM350 V9.5.1 (Build 211) Date:  Tue Jun 17 06:58:34 2014 *
G04 Database: E:\a\pegasus.cam *
G04 Layer 3: 4Signal2.art *
%FSLAX55Y55*%
%MOIN*%
%SFA1.000B1.000*%

%MIA0B0*%
%IPPOS*%
%ADD10C,0.14960*%
%ADD11C,0.05980*%
%ADD12R,0.06000X0.06000*%
%ADD13C,0.04500*%
%ADD14C,0.06000*%
%ADD15C,0.03000*%
%ADD16C,0.02000*%
%ADD17R,0.07000X0.07000*%
%ADD18C,0.07000*%
%ADD19C,0.15000*%
%ADD71C,0.00500*%
%ADD20C,0.02500*%
%ADD21C,0.14920*%
%ADD22O,0.11810X0.07870*%
%ADD23O,0.07870X0.11810*%
%ADD24O,0.10240X0.07090*%
%ADD25C,0.15750*%
%ADD26C,0.08660*%
%ADD27C,0.03540*%
%ADD28C,0.00800*%
%LN4Signal2.art*%
%LPD*%
G36*
X-65400Y84750D02*
G01X-67850D01*
X-69300Y86200*
X-69301*
X-109200*
X-119950Y96950*
Y128400*
X-127750Y136200*
X-127751*
X-135650*
X-137350Y137900*
Y146500*
X-136300Y147550*
X-134450*
X-131550Y144650*
X-120450*
X-112650Y136850*
Y135150*
X-112700Y135100*
Y135099*
Y110700*
X-112760Y110640*
X-112939Y110421*
X-113077Y110175*
X-113170Y109908*
X-113215Y109630*
X-113211Y109348*
X-113159Y109070*
X-113059Y108806*
X-112914Y108564*
X-112760Y108380*
X-112700Y108320*
Y98451*
Y98450*
X-106650Y92400*
X-69701*
X-69700*
X-68200Y93900*
X-66050*
X-63750Y91600*
Y86400*
X-65400Y84750*
G37*
G36*
X152700Y-61600D02*
G01X124450D01*
X113750Y-50900*
Y-24200*
X127700Y-10250*
Y43550*
X132000Y47850*
Y48500*
X138750Y55250*
X158150*
X162440Y50960*
Y46480*
X165290Y43630*
Y27870*
X164580Y27160*
X164340Y27400*
X164400Y27530*
X164502Y27793*
X164558Y28070*
X164564Y28353*
X164521Y28632*
X164430Y28900*
X164294Y29148*
X164117Y29368*
X163905Y29554*
X163663Y29701*
X163400Y29803*
X163123Y29859*
X162840Y29865*
X162561Y29822*
X162293Y29731*
X162045Y29595*
X161825Y29418*
X161639Y29206*
X161492Y28964*
X161390Y28701*
X161334Y28423*
X161328Y28141*
X161371Y27862*
X161462Y27594*
X161598Y27346*
X161775Y27126*
X161987Y26940*
X162229Y26793*
X162492Y26691*
X162770Y26635*
X163060Y26630*
X163129Y26629*
X163198Y26616*
X163262Y26592*
X163322Y26556*
X163375Y26511*
X163419Y26458*
X163453Y26397*
X163476Y26332*
X163487Y26263*
X163486Y26194*
X163473Y26125*
X163449Y26060*
X163413Y26001*
X163370Y25950*
X162870Y25450*
X162750Y25510*
X162486Y25609*
X162208Y25661*
X161926Y25664*
X161648Y25618*
X161381Y25525*
X161136Y25386*
X160917Y25207*
X160734Y24993*
X160590Y24750*
X160491Y24486*
X160439Y24208*
X160436Y23926*
X160482Y23648*
X160575Y23381*
X160714Y23136*
X160893Y22917*
X161107Y22734*
X161350Y22590*
X161614Y22491*
X161892Y22439*
X162174Y22436*
X162452Y22482*
X162718Y22575*
X162964Y22714*
X163182Y22893*
X163300Y23020*
X167310Y27030*
Y44470*
X164460Y47320*
Y47970*
X164466Y48040*
X164484Y48107*
X164514Y48171*
X164554Y48228*
X164604Y48278*
X164661Y48318*
X164724Y48348*
X164792Y48366*
X164862Y48372*
X164932Y48366*
X164999Y48348*
X165063Y48318*
X165120Y48278*
X165140Y48260*
X169350Y44050*
Y40050*
X172660Y36740*
X172704Y36686*
X172739Y36625*
X172762Y36558*
X172773Y36489*
X172772Y36419*
X172759Y36350*
X172735Y36284*
X172699Y36224*
X172653Y36171*
X172599Y36127*
X172590Y36120*
X172365Y35950*
X172172Y35744*
X172018Y35507*
X171908Y35248*
X171844Y34973*
X171829Y34691*
X171864Y34411*
X171946Y34141*
X172074Y33890*
X172244Y33665*
X172450Y33472*
X172687Y33318*
X172946Y33208*
X173221Y33144*
X173503Y33129*
X173783Y33164*
X174052Y33246*
X174304Y33374*
X174529Y33544*
X174722Y33750*
X174820Y33890*
X174863Y33945*
X174915Y33993*
X174974Y34030*
X175039Y34057*
X175108Y34072*
X175178Y34075*
X175248Y34065*
X175315Y34044*
X175377Y34011*
X175432Y33968*
X175440Y33960*
X177710Y31690*
X177720Y31650*
X177904Y31145*
X178162Y30673*
X178486Y30244*
X178690Y30030*
X178750Y29970*
Y26600*
X170950Y18800*
Y-43350*
X152700Y-61600*
G37*
G36*
X25500Y-5600D02*
G01X18700Y200D01*
X18080Y770*
X18033Y822*
X17996Y881*
X17969Y945*
X17954Y1013*
X17952Y1082*
X17961Y1152*
X17982Y1218*
X18014Y1280*
X18057Y1335*
X18108Y1382*
X18168Y1419*
X18190Y1430*
X18439Y1564*
X18660Y1739*
X18849Y1950*
X18997Y2190*
X19102Y2453*
X19159Y2729*
X19167Y3012*
X19127Y3292*
X19038Y3560*
X18904Y3809*
X18729Y4031*
X18518Y4219*
X18278Y4367*
X18015Y4472*
X17738Y4529*
X17456Y4537*
X17176Y4497*
X16908Y4408*
X16659Y4274*
X16437Y4099*
X16249Y3888*
X16101Y3647*
X16010Y3430*
X15983Y3366*
X15945Y3308*
X15898Y3257*
X15843Y3215*
X15781Y3183*
X15715Y3163*
X15646Y3154*
X15576Y3158*
X15509Y3173*
X15445Y3200*
X15387Y3238*
X15360Y3260*
X15100Y3500*
X13250Y5050*
X11850Y5150*
X9250Y5900*
Y30050*
X10510Y31310*
X10610*
X14960Y35660*
Y35661*
Y37860*
X16910Y39810*
X16930Y39820*
X17247Y40054*
X17519Y40339*
X17680Y40570*
X17690Y40590*
X20750Y43650*
Y43651*
Y108660*
X20756Y108729*
X20774Y108796*
X20803Y108859*
X20843Y108916*
X20892Y108966*
X20949Y109005*
X21012Y109035*
X21080Y109053*
X21149Y109059*
X21218Y109053*
X21286Y109035*
X21300Y109030*
X21571Y108951*
X21852Y108920*
X22134Y108938*
X22409Y109006*
X22667Y109119*
X22902Y109276*
X23107Y109472*
X23274Y109699*
X23399Y109953*
X23478Y110224*
X23509Y110505*
X23491Y110787*
X23423Y111062*
X23310Y111321*
X23153Y111556*
X22957Y111760*
X22729Y111927*
X22476Y112052*
X22205Y112131*
X21924Y112162*
X21642Y112144*
X21367Y112076*
X21108Y111963*
X20873Y111806*
X20660Y111600*
X20610Y111551*
X20553Y111512*
X20489Y111484*
X20422Y111467*
X20353Y111462*
X20284Y111469*
X20217Y111487*
X20154Y111518*
X20098Y111558*
X20049Y111608*
X20010Y111665*
X19982Y111729*
X19965Y111796*
X19960Y111860*
Y114410*
X20250Y114700*
X34640*
Y114699*
Y109310*
X34570Y109250*
X34368Y109052*
X34205Y108822*
X34083Y108567*
X34007Y108295*
X33980Y108014*
X34002Y107733*
X34073Y107460*
X34190Y107203*
X34350Y106970*
X34548Y106769*
X34778Y106605*
X35032Y106483*
X35304Y106408*
X35586Y106380*
X35867Y106402*
X35910Y106410*
X35979Y106418*
X36048Y106415*
X36116Y106399*
X36180Y106371*
X36238Y106334*
X36289Y106286*
X36330Y106231*
X36362Y106169*
X36382Y106102*
X36390Y106033*
Y106020*
Y105590*
X34990Y104190*
Y104189*
Y73190*
X32110Y70310*
X31630*
Y70570*
X31660Y70620*
X31792Y70869*
X31879Y71138*
X31918Y71418*
X31907Y71700*
X31848Y71976*
X31742Y72238*
X31592Y72477*
X31403Y72687*
X31180Y72860*
X30930Y72992*
X30662Y73079*
X30382Y73118*
X30100Y73107*
X29824Y73048*
X29562Y72942*
X29323Y72792*
X29113Y72603*
X28940Y72380*
X28808Y72130*
X28721Y71862*
X28682Y71582*
X28693Y71300*
X28750Y71030*
X28765Y70962*
X28768Y70892*
X28759Y70823*
X28739Y70757*
X28706Y70695*
X28664Y70639*
X28613Y70592*
X28554Y70555*
X28490Y70528*
X28422Y70513*
X28360Y70510*
X27966Y70486*
X27583Y70395*
X27222Y70238*
X26893Y70021*
X26606Y69750*
X26372Y69434*
X26195Y69081*
X26083Y68703*
X26038Y68312*
X26062Y67919*
X26153Y67535*
X26310Y67174*
X26527Y66845*
X26700Y66650*
X27560Y65790*
X27561*
X33990*
X39510Y71310*
Y71311*
Y102310*
X40910Y103710*
Y103711*
Y109140*
X39160Y110890*
Y115490*
X39166Y115560*
X39184Y115627*
X39214Y115691*
X39254Y115748*
X39304Y115798*
X39361Y115838*
X39424Y115868*
X39492Y115886*
X39562Y115892*
X39600Y115890*
X39882Y115886*
X40160Y115932*
X40426Y116025*
X40672Y116163*
X40891Y116342*
X41075Y116555*
X41219Y116798*
X41319Y117062*
X41371Y117339*
X41374Y117621*
X41329Y117899*
X41236Y118166*
X41098Y118412*
X40919Y118630*
X40705Y118814*
X40463Y118958*
X40199Y119058*
X39922Y119110*
X39640Y119113*
X39600Y119110*
X39530Y119109*
X39461Y119121*
X39395Y119145*
X39334Y119179*
X39280Y119224*
X39234Y119277*
X39199Y119338*
X39175Y119403*
X39162Y119472*
X39160Y119510*
Y125440*
X36840Y127760*
X36870Y127870*
X36947Y128256*
X36960Y128490*
Y135430*
X34230Y138160*
X34380Y138690*
X34510Y138710*
X34870Y138794*
X35209Y138939*
X35519Y139141*
X35788Y139394*
X36010Y139690*
X36176Y140020*
X36283Y140373*
X36327Y140740*
X36307Y141109*
X36223Y141469*
X36077Y141808*
X35875Y142118*
X35623Y142387*
X35550Y142450*
X35450Y142530*
X37800Y150950*
X90600Y150200*
Y150199*
X90800Y111400*
X90840Y105490*
X90710Y105440*
X90033Y105138*
X89393Y104765*
X88796Y104325*
X88250Y103823*
X87762Y103266*
X87336Y102659*
X86978Y102010*
X86693Y101326*
X86482Y100615*
X86349Y99886*
X86296Y99147*
X86322Y98406*
X86429Y97673*
X86613Y96955*
X86874Y96261*
X87208Y95599*
X87611Y94978*
X88079Y94403*
X88606Y93882*
X89186Y93420*
X89813Y93024*
X90478Y92698*
X90800Y92570*
X90930Y92520*
X91150Y62250*
X91700Y54501*
Y54500*
X91701*
X101450Y51200*
Y2950*
X101100Y-1100*
X98350Y-5500*
X97320*
X97260Y-5460*
X96642Y-5051*
X95983Y-4711*
X95292Y-4445*
X94575Y-4254*
X93843Y-4141*
X93103Y-4108*
X92363Y-4155*
X91632Y-4281*
X90920Y-4486*
X90234Y-4765*
X89582Y-5118*
X89060Y-5470*
X89010Y-5510*
X84760Y-5520*
Y-3810*
X84766Y-3740*
X84784Y-3673*
X84814Y-3609*
X84854Y-3552*
X84904Y-3502*
X84961Y-3462*
X85024Y-3432*
X85092Y-3414*
X85162Y-3408*
X85232Y-3414*
X85300Y-3432*
X85320Y-3440*
X85588Y-3527*
X85868Y-3566*
X86150Y-3556*
X86425Y-3498*
X86687Y-3392*
X86926Y-3242*
X87136Y-3054*
X87310Y-2831*
X87442Y-2582*
X87529Y-2314*
X87568Y-2034*
X87558Y-1752*
X87500Y-1476*
X87394Y-1215*
X87244Y-976*
X87055Y-766*
X86833Y-592*
X86584Y-460*
X86316Y-373*
X86036Y-334*
X85754Y-344*
X85478Y-402*
X85320Y-460*
X85253Y-482*
X85184Y-492*
X85114Y-489*
X85045Y-475*
X84980Y-449*
X84920Y-412*
X84868Y-365*
X84825Y-310*
X84792Y-248*
X84770Y-181*
X84760Y-112*
Y-90*
Y28220*
X83860Y29120*
X83870Y29210*
X83861Y29493*
X83803Y29769*
X83698Y30031*
X83548Y30272*
X83360Y30482*
X83138Y30657*
X82888Y30790*
X82620Y30878*
X82340Y30918*
X82057Y30909*
X81781Y30851*
X81518Y30745*
X81278Y30596*
X81068Y30408*
X80893Y30185*
X80760Y29936*
X80672Y29668*
X80632Y29388*
X80641Y29106*
X80699Y28829*
X80804Y28567*
X80954Y28327*
X81142Y28116*
X81364Y27941*
X81614Y27808*
X81882Y27720*
X82162Y27680*
X82340*
X82430Y27690*
X82740Y27380*
Y22500*
X82734Y22431*
X82716Y22364*
X82687Y22301*
X82647Y22244*
X82598Y22195*
X82541Y22155*
X82478Y22126*
X82411Y22108*
X82342Y22102*
X82273Y22108*
X82206Y22126*
X82143Y22155*
X82086Y22195*
X82060Y22220*
X79910Y24370*
X79920Y24460*
X79911Y24742*
X79853Y25019*
X79748Y25281*
X79599Y25521*
X79411Y25732*
X79189Y25906*
X78940Y26040*
X78672Y26128*
X78392Y26168*
X78109Y26159*
X77833Y26101*
X77571Y25996*
X77331Y25847*
X77270Y25800*
X77214Y25759*
X77151Y25728*
X77085Y25709*
X77016Y25702*
X76946Y25706*
X76879Y25723*
X76816Y25751*
X76758Y25790*
X76708Y25838*
X76667Y25894*
X76636Y25957*
X76617Y26023*
X76610Y26100*
Y28480*
X83360Y35230*
Y35231*
Y43180*
X86320Y46140*
X93840*
X93870Y46130*
X94145Y46067*
X94427Y46052*
X94707Y46086*
X94977Y46169*
X95228Y46297*
X95454Y46467*
X95646Y46673*
X95800Y46910*
X95910Y47170*
X95973Y47445*
X95988Y47727*
X95954Y48007*
X95871Y48277*
X95743Y48528*
X95573Y48754*
X95366Y48946*
X95130Y49100*
X94870Y49210*
X94595Y49273*
X94313Y49288*
X94033Y49254*
X93763Y49171*
X93512Y49043*
X93286Y48873*
X93094Y48666*
X92940Y48430*
X92870Y48280*
X92820Y48160*
X85480*
X81340Y44020*
Y44019*
Y36070*
X79670Y34400*
X79615Y34356*
X79554Y34323*
X79488Y34301*
X79419Y34290*
X79350Y34292*
X79282Y34306*
X79217Y34331*
X79157Y34367*
X79105Y34413*
X79061Y34468*
X79028Y34529*
X79006Y34595*
X79000Y34620*
X78929Y34894*
X78811Y35151*
X78651Y35384*
X78452Y35585*
X78222Y35749*
X77966Y35871*
X77693Y35946*
X77412Y35973*
X77130Y35950*
X76856Y35879*
X76599Y35761*
X76366Y35601*
X76165Y35402*
X76001Y35171*
X75879Y34916*
X75804Y34643*
X75777Y34362*
X75780Y34260*
X75790Y34170*
X65190Y23570*
Y23569*
Y-1780*
X61420Y-5550*
X37400Y-5580*
X37330Y-5574*
X37263Y-5556*
X37200Y-5526*
X37143Y-5486*
X37093Y-5437*
X37054Y-5380*
X37024Y-5317*
X37006Y-5249*
X37000Y-5180*
X37006Y-5111*
X37024Y-5043*
X37054Y-4980*
X37080Y-4940*
X37233Y-4703*
X37342Y-4443*
X37404Y-4167*
X37418Y-3885*
X37382Y-3605*
X37298Y-3336*
X37169Y-3085*
X36998Y-2861*
X36791Y-2669*
X36554Y-2516*
X36293Y-2407*
X36018Y-2345*
X35736Y-2331*
X35456Y-2367*
X35187Y-2451*
X34936Y-2580*
X34711Y-2751*
X34520Y-2958*
X34367Y-3195*
X34258Y-3456*
X34196Y-3731*
X34182Y-4013*
X34218Y-4292*
X34302Y-4562*
X34431Y-4813*
X34520Y-4940*
X34558Y-4999*
X34585Y-5064*
X34600Y-5133*
X34603Y-5203*
X34594Y-5273*
X34573Y-5340*
X34540Y-5403*
X34498Y-5459*
X34446Y-5506*
X34387Y-5544*
X34322Y-5571*
X34253Y-5586*
X34200Y-5590*
X25500Y-5600*
G37*
%LPC*%
G36*
X-65280Y90950D02*
G01X-65320Y91307D01*
X-65438Y91647*
X-65627Y91952*
X-65880Y92208*
X-66182Y92402*
X-66520Y92525*
X-66900Y92570*
X-67257Y92530*
X-67597Y92412*
X-67902Y92223*
X-68158Y91970*
X-68352Y91668*
X-68475Y91330*
X-68520Y90950*
X-68480Y90593*
X-68362Y90253*
X-68173Y89948*
X-67920Y89692*
X-67618Y89498*
X-67280Y89375*
X-66900Y89330*
X-66543Y89370*
X-66203Y89488*
X-65898Y89677*
X-65642Y89930*
X-65448Y90232*
X-65325Y90570*
X-65280Y90950*
G37*
G36*
X-132630Y139600D02*
G01X-132670Y139957D01*
X-132788Y140297*
X-132977Y140602*
X-133230Y140858*
X-133532Y141052*
X-133870Y141175*
X-134250Y141220*
X-134607Y141180*
X-134947Y141062*
X-135252Y140873*
X-135508Y140620*
X-135702Y140318*
X-135825Y139980*
X-135870Y139600*
X-135830Y139243*
X-135712Y138903*
X-135523Y138598*
X-135270Y138342*
X-134968Y138148*
X-134630Y138025*
X-134250Y137980*
X-133893Y138020*
X-133553Y138138*
X-133248Y138327*
X-132992Y138580*
X-132798Y138882*
X-132675Y139220*
X-132630Y139600*
G37*
G36*
Y143470D02*
G01X-132670Y143827D01*
X-132788Y144167*
X-132977Y144472*
X-133230Y144728*
X-133532Y144922*
X-133870Y145045*
X-134250Y145090*
X-134607Y145050*
X-134947Y144932*
X-135252Y144743*
X-135508Y144490*
X-135702Y144188*
X-135825Y143850*
X-135870Y143470*
X-135830Y143113*
X-135712Y142773*
X-135523Y142468*
X-135270Y142212*
X-134968Y142018*
X-134630Y141895*
X-134250Y141850*
X-133893Y141890*
X-133553Y142008*
X-133248Y142197*
X-132992Y142450*
X-132798Y142752*
X-132675Y143090*
X-132630Y143470*
G37*
G36*
X-65180Y87250D02*
G01X-65220Y87607D01*
X-65338Y87947*
X-65527Y88252*
X-65780Y88508*
X-66082Y88702*
X-66420Y88825*
X-66800Y88870*
X-67157Y88830*
X-67497Y88712*
X-67802Y88523*
X-68058Y88270*
X-68252Y87968*
X-68375Y87630*
X-68420Y87250*
X-68380Y86893*
X-68262Y86553*
X-68073Y86248*
X-67820Y85992*
X-67518Y85798*
X-67180Y85675*
X-66800Y85630*
X-66443Y85670*
X-66103Y85788*
X-65798Y85977*
X-65542Y86230*
X-65348Y86532*
X-65225Y86870*
X-65180Y87250*
G37*
G36*
X121660Y-46320D02*
G01X121620Y-45784D01*
X121501Y-45259*
X121306Y-44758*
X121038Y-44292*
X120705Y-43870*
X120312Y-43502*
X119870Y-43197*
X119387Y-42960*
X118874Y-42797*
X118343Y-42713*
X118040Y-42700*
X117504Y-42740*
X116979Y-42859*
X116478Y-43054*
X116012Y-43322*
X115590Y-43655*
X115222Y-44048*
X114917Y-44490*
X114680Y-44973*
X114517Y-45486*
X114433Y-46017*
X114420Y-46320*
X114460Y-46856*
X114579Y-47381*
X114774Y-47882*
X115042Y-48348*
X115375Y-48770*
X115768Y-49138*
X116210Y-49443*
X116693Y-49680*
X117206Y-49843*
X117737Y-49927*
X118040Y-49940*
X118576Y-49900*
X119101Y-49781*
X119602Y-49586*
X120068Y-49318*
X120490Y-48985*
X120858Y-48592*
X121163Y-48150*
X121400Y-47667*
X121563Y-47154*
X121647Y-46623*
X121660Y-46320*
G37*
G36*
X131660D02*
G01X131620Y-45784D01*
X131501Y-45259*
X131306Y-44758*
X131038Y-44292*
X130705Y-43870*
X130312Y-43502*
X129870Y-43197*
X129387Y-42960*
X128874Y-42797*
X128343Y-42713*
X128040Y-42700*
X127504Y-42740*
X126979Y-42859*
X126478Y-43054*
X126012Y-43322*
X125590Y-43655*
X125222Y-44048*
X124917Y-44490*
X124680Y-44973*
X124517Y-45486*
X124433Y-46017*
X124420Y-46320*
X124460Y-46856*
X124579Y-47381*
X124774Y-47882*
X125042Y-48348*
X125375Y-48770*
X125768Y-49138*
X126210Y-49443*
X126693Y-49680*
X127206Y-49843*
X127737Y-49927*
X128040Y-49940*
X128576Y-49900*
X129101Y-49781*
X129602Y-49586*
X130068Y-49318*
X130490Y-48985*
X130858Y-48592*
X131163Y-48150*
X131400Y-47667*
X131563Y-47154*
X131647Y-46623*
X131660Y-46320*
G37*
G36*
X141660D02*
G01X141620Y-45784D01*
X141501Y-45259*
X141306Y-44758*
X141038Y-44292*
X140705Y-43870*
X140312Y-43502*
X139870Y-43197*
X139387Y-42960*
X138874Y-42797*
X138343Y-42713*
X138040Y-42700*
X137504Y-42740*
X136979Y-42859*
X136478Y-43054*
X136012Y-43322*
X135590Y-43655*
X135222Y-44048*
X134917Y-44490*
X134680Y-44973*
X134517Y-45486*
X134433Y-46017*
X134420Y-46320*
X134460Y-46856*
X134579Y-47381*
X134774Y-47882*
X135042Y-48348*
X135375Y-48770*
X135768Y-49138*
X136210Y-49443*
X136693Y-49680*
X137206Y-49843*
X137737Y-49927*
X138040Y-49940*
X138576Y-49900*
X139101Y-49781*
X139602Y-49586*
X140068Y-49318*
X140490Y-48985*
X140858Y-48592*
X141163Y-48150*
X141400Y-47667*
X141563Y-47154*
X141647Y-46623*
X141660Y-46320*
G37*
G36*
X126660Y-36320D02*
G01X126620Y-35784D01*
X126501Y-35259*
X126306Y-34758*
X126038Y-34292*
X125705Y-33870*
X125312Y-33502*
X124870Y-33197*
X124387Y-32960*
X123874Y-32797*
X123343Y-32713*
X123040Y-32700*
X122504Y-32740*
X121979Y-32859*
X121478Y-33054*
X121012Y-33322*
X120590Y-33655*
X120222Y-34048*
X119917Y-34490*
X119680Y-34973*
X119517Y-35486*
X119433Y-36017*
X119420Y-36320*
X119460Y-36856*
X119579Y-37381*
X119774Y-37882*
X120042Y-38348*
X120375Y-38770*
X120768Y-39138*
X121210Y-39443*
X121693Y-39680*
X122206Y-39843*
X122737Y-39927*
X123040Y-39940*
X123576Y-39900*
X124101Y-39781*
X124602Y-39586*
X125068Y-39318*
X125490Y-38985*
X125858Y-38592*
X126163Y-38150*
X126400Y-37667*
X126563Y-37154*
X126647Y-36623*
X126660Y-36320*
G37*
G36*
X136660D02*
G01X136620Y-35784D01*
X136501Y-35259*
X136306Y-34758*
X136038Y-34292*
X135705Y-33870*
X135312Y-33502*
X134870Y-33197*
X134387Y-32960*
X133874Y-32797*
X133343Y-32713*
X133040Y-32700*
X132504Y-32740*
X131979Y-32859*
X131478Y-33054*
X131012Y-33322*
X130590Y-33655*
X130222Y-34048*
X129917Y-34490*
X129680Y-34973*
X129517Y-35486*
X129433Y-36017*
X129420Y-36320*
X129460Y-36856*
X129579Y-37381*
X129774Y-37882*
X130042Y-38348*
X130375Y-38770*
X130768Y-39138*
X131210Y-39443*
X131693Y-39680*
X132206Y-39843*
X132737Y-39927*
X133040Y-39940*
X133576Y-39900*
X134101Y-39781*
X134602Y-39586*
X135068Y-39318*
X135490Y-38985*
X135858Y-38592*
X136163Y-38150*
X136400Y-37667*
X136563Y-37154*
X136647Y-36623*
X136660Y-36320*
G37*
G36*
X146660D02*
G01X146620Y-35784D01*
X146501Y-35259*
X146306Y-34758*
X146038Y-34292*
X145705Y-33870*
X145312Y-33502*
X144870Y-33197*
X144387Y-32960*
X143874Y-32797*
X143343Y-32713*
X143040Y-32700*
X142504Y-32740*
X141979Y-32859*
X141478Y-33054*
X141012Y-33322*
X140590Y-33655*
X140222Y-34048*
X139917Y-34490*
X139680Y-34973*
X139517Y-35486*
X139433Y-36017*
X139420Y-36320*
X139460Y-36856*
X139579Y-37381*
X139774Y-37882*
X140042Y-38348*
X140375Y-38770*
X140768Y-39138*
X141210Y-39443*
X141693Y-39680*
X142206Y-39843*
X142737Y-39927*
X143040Y-39940*
X143576Y-39900*
X144101Y-39781*
X144602Y-39586*
X145068Y-39318*
X145490Y-38985*
X145858Y-38592*
X146163Y-38150*
X146400Y-37667*
X146563Y-37154*
X146647Y-36623*
X146660Y-36320*
G37*
G36*
X156660D02*
G01X156620Y-35784D01*
X156501Y-35259*
X156306Y-34758*
X156038Y-34292*
X155705Y-33870*
X155312Y-33502*
X154870Y-33197*
X154387Y-32960*
X153874Y-32797*
X153343Y-32713*
X153040Y-32700*
X152504Y-32740*
X151979Y-32859*
X151478Y-33054*
X151012Y-33322*
X150590Y-33655*
X150222Y-34048*
X149917Y-34490*
X149680Y-34973*
X149517Y-35486*
X149433Y-36017*
X149420Y-36320*
X149460Y-36856*
X149579Y-37381*
X149774Y-37882*
X150042Y-38348*
X150375Y-38770*
X150768Y-39138*
X151210Y-39443*
X151693Y-39680*
X152206Y-39843*
X152737Y-39927*
X153040Y-39940*
X153576Y-39900*
X154101Y-39781*
X154602Y-39586*
X155068Y-39318*
X155490Y-38985*
X155858Y-38592*
X156163Y-38150*
X156400Y-37667*
X156563Y-37154*
X156647Y-36623*
X156660Y-36320*
G37*
G36*
X129870Y-12800D02*
G01X129830Y-12443D01*
X129712Y-12103*
X129523Y-11798*
X129270Y-11542*
X128968Y-11348*
X128630Y-11225*
X128250Y-11180*
X127893Y-11220*
X127553Y-11338*
X127248Y-11527*
X126992Y-11780*
X126798Y-12082*
X126675Y-12420*
X126630Y-12800*
X126670Y-13157*
X126788Y-13497*
X126977Y-13802*
X127230Y-14058*
X127532Y-14252*
X127870Y-14375*
X128250Y-14420*
X128607Y-14380*
X128947Y-14262*
X129252Y-14073*
X129508Y-13820*
X129702Y-13518*
X129825Y-13180*
X129870Y-12800*
G37*
G36*
X136750Y-12630D02*
G01X136710Y-12273D01*
X136592Y-11933*
X136403Y-11628*
X136150Y-11372*
X135848Y-11178*
X135510Y-11055*
X135130Y-11010*
X134773Y-11050*
X134433Y-11168*
X134128Y-11357*
X133872Y-11610*
X133678Y-11912*
X133555Y-12250*
X133510Y-12630*
X133550Y-12987*
X133668Y-13327*
X133857Y-13632*
X134110Y-13888*
X134412Y-14082*
X134750Y-14205*
X135130Y-14250*
X135487Y-14210*
X135827Y-14092*
X136132Y-13903*
X136388Y-13650*
X136582Y-13348*
X136705Y-13010*
X136750Y-12630*
G37*
G36*
X155870Y-12650D02*
G01X155830Y-12293D01*
X155712Y-11953*
X155523Y-11648*
X155270Y-11392*
X154968Y-11198*
X154630Y-11075*
X154250Y-11030*
X153893Y-11070*
X153553Y-11188*
X153248Y-11377*
X152992Y-11630*
X152798Y-11932*
X152675Y-12270*
X152630Y-12650*
X152670Y-13007*
X152788Y-13347*
X152977Y-13652*
X153230Y-13908*
X153532Y-14102*
X153870Y-14225*
X154250Y-14270*
X154607Y-14230*
X154947Y-14112*
X155252Y-13923*
X155508Y-13670*
X155702Y-13368*
X155825Y-13030*
X155870Y-12650*
G37*
G36*
X163020Y-12550D02*
G01X162980Y-12193D01*
X162862Y-11853*
X162673Y-11548*
X162420Y-11292*
X162118Y-11098*
X161780Y-10975*
X161400Y-10930*
X161043Y-10970*
X160703Y-11088*
X160398Y-11277*
X160142Y-11530*
X159948Y-11832*
X159825Y-12170*
X159780Y-12550*
X159820Y-12907*
X159938Y-13247*
X160127Y-13552*
X160380Y-13808*
X160682Y-14002*
X161020Y-14125*
X161400Y-14170*
X161757Y-14130*
X162097Y-14012*
X162402Y-13823*
X162658Y-13570*
X162852Y-13268*
X162975Y-12930*
X163020Y-12550*
G37*
G36*
X141120Y-560D02*
G01X141080Y-151D01*
X140962Y243*
X140770Y607*
X140511Y927*
X140196Y1191*
X139835Y1389*
X139443Y1513*
X139000Y1560*
X138591Y1520*
X138197Y1402*
X137833Y1210*
X137513Y951*
X137249Y636*
X137051Y275*
X136927Y-117*
X136880Y-560*
X136920Y-969*
X137038Y-1363*
X137230Y-1727*
X137489Y-2047*
X137804Y-2311*
X138165Y-2509*
X138557Y-2633*
X139000Y-2680*
X139409Y-2640*
X139803Y-2522*
X140167Y-2330*
X140487Y-2071*
X140751Y-1756*
X140949Y-1395*
X141073Y-1003*
X141120Y-560*
G37*
G36*
X166520Y-130D02*
G01X166480Y279D01*
X166362Y673*
X166170Y1037*
X165911Y1357*
X165596Y1621*
X165235Y1819*
X164843Y1943*
X164400Y1990*
X163991Y1950*
X163597Y1832*
X163233Y1640*
X162913Y1381*
X162649Y1066*
X162451Y705*
X162327Y313*
X162280Y-130*
X162320Y-539*
X162438Y-933*
X162630Y-1297*
X162889Y-1617*
X163204Y-1881*
X163565Y-2079*
X163957Y-2203*
X164400Y-2250*
X164809Y-2210*
X165203Y-2092*
X165567Y-1900*
X165887Y-1641*
X166151Y-1326*
X166349Y-965*
X166473Y-573*
X166520Y-130*
G37*
G36*
X143970Y13350D02*
G01X143930Y13707D01*
X143812Y14047*
X143623Y14352*
X143370Y14608*
X143068Y14802*
X142730Y14925*
X142350Y14970*
X141993Y14930*
X141653Y14812*
X141348Y14623*
X141092Y14370*
X140898Y14068*
X140775Y13730*
X140730Y13350*
X140770Y12993*
X140888Y12653*
X141077Y12348*
X141330Y12092*
X141632Y11898*
X141970Y11775*
X142350Y11730*
X142707Y11770*
X143047Y11888*
X143352Y12077*
X143608Y12330*
X143802Y12632*
X143925Y12970*
X143970Y13350*
G37*
G36*
X147880Y16660D02*
G01X147840Y17017D01*
X147722Y17357*
X147533Y17662*
X147280Y17918*
X146978Y18112*
X146640Y18235*
X146260Y18280*
X145903Y18240*
X145563Y18122*
X145258Y17933*
X145002Y17680*
X144808Y17378*
X144685Y17040*
X144640Y16660*
X144680Y16303*
X144798Y15963*
X144987Y15658*
X145240Y15402*
X145542Y15208*
X145880Y15085*
X146260Y15040*
X146617Y15080*
X146957Y15198*
X147262Y15387*
X147518Y15640*
X147712Y15942*
X147835Y16280*
X147880Y16660*
G37*
G36*
X166950Y14420D02*
G01X166910Y14829D01*
X166792Y15223*
X166600Y15587*
X166341Y15907*
X166026Y16171*
X165665Y16369*
X165273Y16493*
X164830Y16540*
X164421Y16500*
X164027Y16382*
X163663Y16190*
X163343Y15931*
X163079Y15616*
X162881Y15255*
X162757Y14863*
X162710Y14420*
X162750Y14011*
X162868Y13617*
X163060Y13253*
X163319Y12933*
X163634Y12669*
X163995Y12471*
X164387Y12347*
X164830Y12300*
X165239Y12340*
X165633Y12458*
X165997Y12650*
X166317Y12909*
X166581Y13224*
X166779Y13585*
X166903Y13977*
X166950Y14420*
G37*
G36*
X142470Y32900D02*
G01X142430Y33257D01*
X142312Y33597*
X142123Y33902*
X141870Y34158*
X141568Y34352*
X141230Y34475*
X140850Y34520*
X140493Y34480*
X140153Y34362*
X139848Y34173*
X139592Y33920*
X139398Y33618*
X139275Y33280*
X139230Y32900*
X139270Y32543*
X139388Y32203*
X139577Y31898*
X139830Y31642*
X140132Y31448*
X140470Y31325*
X140850Y31280*
X141207Y31320*
X141547Y31438*
X141852Y31627*
X142108Y31880*
X142302Y32182*
X142425Y32520*
X142470Y32900*
G37*
G36*
X145370Y29750D02*
G01X145330Y30107D01*
X145212Y30447*
X145023Y30752*
X144770Y31008*
X144468Y31202*
X144130Y31325*
X143750Y31370*
X143393Y31330*
X143053Y31212*
X142748Y31023*
X142492Y30770*
X142298Y30468*
X142175Y30130*
X142130Y29750*
X142170Y29393*
X142288Y29053*
X142477Y28748*
X142730Y28492*
X143032Y28298*
X143370Y28175*
X143750Y28130*
X144107Y28170*
X144447Y28288*
X144752Y28477*
X145008Y28730*
X145202Y29032*
X145325Y29370*
X145370Y29750*
G37*
G36*
X164890Y32450D02*
G01X164850Y32807D01*
X164732Y33147*
X164543Y33452*
X164290Y33708*
X163988Y33902*
X163650Y34025*
X163270Y34070*
X162913Y34030*
X162573Y33912*
X162268Y33723*
X162012Y33470*
X161818Y33168*
X161695Y32830*
X161650Y32450*
X161690Y32093*
X161808Y31753*
X161997Y31448*
X162250Y31192*
X162552Y30998*
X162890Y30875*
X163270Y30830*
X163627Y30870*
X163967Y30988*
X164272Y31177*
X164528Y31430*
X164722Y31732*
X164845Y32070*
X164890Y32450*
G37*
G36*
X147550Y40640D02*
G01X147510Y41049D01*
X147392Y41443*
X147200Y41807*
X146941Y42127*
X146626Y42391*
X146265Y42589*
X145873Y42713*
X145430Y42760*
X145021Y42720*
X144627Y42602*
X144263Y42410*
X143943Y42151*
X143679Y41836*
X143481Y41475*
X143357Y41083*
X143310Y40640*
X143350Y40231*
X143468Y39837*
X143660Y39473*
X143919Y39153*
X144234Y38889*
X144595Y38691*
X144987Y38567*
X145430Y38520*
X145839Y38560*
X146233Y38678*
X146597Y38870*
X146917Y39129*
X147181Y39444*
X147379Y39805*
X147503Y40197*
X147550Y40640*
G37*
G36*
X152200D02*
G01X152160Y41049D01*
X152042Y41443*
X151850Y41807*
X151591Y42127*
X151276Y42391*
X150915Y42589*
X150523Y42713*
X150080Y42760*
X149671Y42720*
X149277Y42602*
X148913Y42410*
X148593Y42151*
X148329Y41836*
X148131Y41475*
X148007Y41083*
X147960Y40640*
X148000Y40231*
X148118Y39837*
X148310Y39473*
X148569Y39153*
X148884Y38889*
X149245Y38691*
X149637Y38567*
X150080Y38520*
X150489Y38560*
X150883Y38678*
X151247Y38870*
X151567Y39129*
X151831Y39444*
X152029Y39805*
X152153Y40197*
X152200Y40640*
G37*
G36*
X164570Y37850D02*
G01X164530Y38207D01*
X164412Y38547*
X164223Y38852*
X163970Y39108*
X163668Y39302*
X163330Y39425*
X162950Y39470*
X162593Y39430*
X162253Y39312*
X161948Y39123*
X161692Y38870*
X161498Y38568*
X161375Y38230*
X161330Y37850*
X161370Y37493*
X161488Y37153*
X161677Y36848*
X161930Y36592*
X162232Y36398*
X162570Y36275*
X162950Y36230*
X163307Y36270*
X163647Y36388*
X163952Y36577*
X164208Y36830*
X164402Y37132*
X164525Y37470*
X164570Y37850*
G37*
G36*
X136140Y45600D02*
G01X136100Y46009D01*
X135982Y46403*
X135790Y46767*
X135531Y47087*
X135216Y47351*
X134855Y47549*
X134463Y47673*
X134020Y47720*
X133611Y47680*
X133217Y47562*
X132853Y47370*
X132533Y47111*
X132269Y46796*
X132071Y46435*
X131947Y46043*
X131900Y45600*
X131940Y45191*
X132058Y44797*
X132250Y44433*
X132509Y44113*
X132824Y43849*
X133185Y43651*
X133577Y43527*
X134020Y43480*
X134429Y43520*
X134823Y43638*
X135187Y43830*
X135507Y44089*
X135771Y44404*
X135969Y44765*
X136093Y45157*
X136140Y45600*
G37*
G36*
X140790D02*
G01X140750Y46009D01*
X140632Y46403*
X140440Y46767*
X140181Y47087*
X139866Y47351*
X139505Y47549*
X139113Y47673*
X138670Y47720*
X138261Y47680*
X137867Y47562*
X137503Y47370*
X137183Y47111*
X136919Y46796*
X136721Y46435*
X136597Y46043*
X136550Y45600*
X136590Y45191*
X136708Y44797*
X136900Y44433*
X137159Y44113*
X137474Y43849*
X137835Y43651*
X138227Y43527*
X138670Y43480*
X139079Y43520*
X139473Y43638*
X139837Y43830*
X140157Y44089*
X140421Y44404*
X140619Y44765*
X140743Y45157*
X140790Y45600*
G37*
G36*
X151660Y-46320D02*
G01X151620Y-45784D01*
X151501Y-45259*
X151306Y-44758*
X151038Y-44292*
X150705Y-43870*
X150312Y-43502*
X149870Y-43197*
X149387Y-42960*
X148874Y-42797*
X148343Y-42713*
X148040Y-42700*
X147504Y-42740*
X146979Y-42859*
X146478Y-43054*
X146012Y-43322*
X145590Y-43655*
X145222Y-44048*
X144917Y-44490*
X144680Y-44973*
X144517Y-45486*
X144433Y-46017*
X144420Y-46320*
X144460Y-46856*
X144579Y-47381*
X144774Y-47882*
X145042Y-48348*
X145375Y-48770*
X145768Y-49138*
X146210Y-49443*
X146693Y-49680*
X147206Y-49843*
X147737Y-49927*
X148040Y-49940*
X148576Y-49900*
X149101Y-49781*
X149602Y-49586*
X150068Y-49318*
X150490Y-48985*
X150858Y-48592*
X151163Y-48150*
X151400Y-47667*
X151563Y-47154*
X151647Y-46623*
X151660Y-46320*
G37*
G36*
X19170Y6790D02*
G01X19129Y7147D01*
X19010Y7486*
X18820Y7791*
X18567Y8046*
X18263Y8239*
X17925Y8361*
X17550Y8405*
X17193Y8365*
X16853Y8247*
X16548Y8058*
X16292Y7805*
X16098Y7503*
X15975Y7165*
X15930Y6790*
X15971Y6433*
X16090Y6094*
X16280Y5789*
X16533Y5534*
X16837Y5341*
X17175Y5219*
X17550Y5175*
X17907Y5215*
X18247Y5333*
X18552Y5522*
X18808Y5775*
X19002Y6077*
X19125Y6415*
X19170Y6790*
G37*
G36*
X30727Y2596D02*
G01X31088Y2676D01*
X31430Y2818*
X31741Y3016*
X32014Y3266*
X32238Y3559*
X32409Y3887*
X32520Y4240*
X32541Y4308*
X32574Y4370*
X32617Y4425*
X32669Y4472*
X32728Y4510*
X32793Y4536*
X32862Y4551*
X32932Y4554*
X33001Y4544*
X33068Y4523*
X33130Y4490*
X33161Y4471*
X33414Y4346*
X33685Y4267*
X33965Y4237*
X34247Y4256*
X34521Y4323*
X34779Y4437*
X35013Y4594*
X35217Y4789*
X35383Y5017*
X35508Y5270*
X35587Y5541*
X35617Y5821*
X35598Y6103*
X35531Y6377*
X35417Y6635*
X35260Y6869*
X35065Y7073*
X34837Y7239*
X34584Y7364*
X34313Y7443*
X34033Y7473*
X33751Y7454*
X33477Y7387*
X33219Y7273*
X32985Y7116*
X32781Y6921*
X32614Y6693*
X32490Y6440*
X32459Y6377*
X32417Y6321*
X32366Y6273*
X32307Y6235*
X32243Y6207*
X32175Y6191*
X32105Y6188*
X32035Y6196*
X31968Y6216*
X31906Y6248*
X31850Y6290*
X31588Y6486*
X31261Y6657*
X30908Y6768*
X30542Y6816*
X30172Y6800*
X29811Y6720*
X29470Y6578*
X29159Y6379*
X28886Y6130*
X28661Y5836*
X28491Y5508*
X28380Y5156*
X28332Y4789*
X28348Y4420*
X28428Y4060*
X28570Y3718*
X28769Y3407*
X29018Y3134*
X29312Y2910*
X29640Y2739*
X29992Y2628*
X30358Y2580*
X30727Y2596*
G37*
G36*
X91670Y6450D02*
G01X91629Y6807D01*
X91510Y7146*
X91320Y7451*
X91067Y7706*
X90763Y7899*
X90425Y8021*
X90050Y8065*
X89693Y8025*
X89353Y7907*
X89048Y7718*
X88792Y7465*
X88598Y7163*
X88475Y6825*
X88430Y6450*
X88471Y6093*
X88590Y5754*
X88780Y5449*
X89033Y5194*
X89337Y5001*
X89675Y4879*
X90050Y4835*
X90407Y4875*
X90747Y4993*
X91052Y5182*
X91308Y5435*
X91502Y5737*
X91625Y6075*
X91670Y6450*
G37*
G36*
X100550Y7920D02*
G01X100509Y8329D01*
X100390Y8723*
X100197Y9086*
X99937Y9405*
X99621Y9668*
X99260Y9865*
X98867Y9989*
X98430Y10034*
X98021Y9994*
X97627Y9876*
X97263Y9684*
X96943Y9425*
X96679Y9110*
X96481Y8749*
X96357Y8357*
X96310Y7920*
X96351Y7511*
X96470Y7117*
X96663Y6754*
X96923Y6435*
X97239Y6172*
X97600Y5975*
X97993Y5851*
X98430Y5806*
X98839Y5846*
X99233Y5964*
X99597Y6156*
X99917Y6415*
X100181Y6730*
X100379Y7091*
X100503Y7483*
X100550Y7920*
G37*
G36*
X37370Y9500D02*
G01X37329Y9857D01*
X37210Y10196*
X37020Y10501*
X36767Y10756*
X36463Y10949*
X36125Y11071*
X35750Y11115*
X35393Y11075*
X35053Y10957*
X34748Y10768*
X34492Y10515*
X34298Y10213*
X34175Y9875*
X34130Y9500*
X34171Y9143*
X34290Y8804*
X34480Y8499*
X34733Y8244*
X35037Y8051*
X35375Y7929*
X35750Y7885*
X36107Y7925*
X36447Y8043*
X36752Y8232*
X37008Y8485*
X37202Y8787*
X37325Y9125*
X37370Y9500*
G37*
G36*
X21620Y15100D02*
G01X21579Y15509D01*
X21460Y15903*
X21267Y16266*
X21007Y16585*
X20691Y16848*
X20330Y17045*
X19937Y17169*
X19500Y17214*
X19091Y17174*
X18697Y17056*
X18333Y16864*
X18013Y16605*
X17749Y16290*
X17551Y15929*
X17427Y15537*
X17380Y15100*
X17421Y14691*
X17540Y14297*
X17733Y13934*
X17993Y13615*
X18309Y13352*
X18670Y13155*
X19063Y13031*
X19500Y12986*
X19909Y13026*
X20303Y13144*
X20667Y13336*
X20987Y13595*
X21251Y13910*
X21449Y14271*
X21573Y14663*
X21620Y15100*
G37*
G36*
X45070Y11990D02*
G01X45029Y12347D01*
X44910Y12686*
X44720Y12991*
X44467Y13246*
X44163Y13439*
X43825Y13561*
X43450Y13605*
X43093Y13565*
X42753Y13447*
X42448Y13258*
X42192Y13005*
X41998Y12703*
X41875Y12365*
X41830Y11990*
X41871Y11633*
X41990Y11294*
X42180Y10989*
X42433Y10734*
X42737Y10541*
X43075Y10419*
X43450Y10375*
X43807Y10415*
X44147Y10533*
X44452Y10722*
X44708Y10975*
X44902Y11277*
X45025Y11615*
X45070Y11990*
G37*
G36*
X47630Y12377D02*
G01X47907Y12433D01*
X48170Y12536*
X48411Y12683*
X48623Y12869*
X48800Y13090*
X48812Y13106*
X48858Y13158*
X48912Y13201*
X48973Y13233*
X49039Y13255*
X49108Y13265*
X49177Y13263*
X49245Y13249*
X49309Y13223*
X49368Y13186*
X49420Y13140*
X49480Y13079*
X49701Y12903*
X49949Y12768*
X50216Y12677*
X50496Y12635*
X50778Y12641*
X51055Y12697*
X51318Y12800*
X51559Y12947*
X51771Y13133*
X51948Y13354*
X52083Y13602*
X52174Y13869*
X52216Y14149*
X52210Y14431*
X52154Y14708*
X52051Y14971*
X51904Y15212*
X51718Y15425*
X51497Y15601*
X51249Y15736*
X50981Y15827*
X50702Y15869*
X50420Y15863*
X50143Y15807*
X49880Y15704*
X49638Y15557*
X49426Y15371*
X49250Y15150*
X49238Y15134*
X49192Y15082*
X49137Y15039*
X49076Y15006*
X49010Y14985*
X48942Y14975*
X48873Y14977*
X48805Y14991*
X48740Y15017*
X48682Y15054*
X48630Y15100*
X48570Y15161*
X48349Y15337*
X48101Y15472*
X47833Y15563*
X47554Y15605*
X47272Y15599*
X46995Y15543*
X46732Y15440*
X46490Y15293*
X46278Y15107*
X46102Y14886*
X45966Y14638*
X45876Y14370*
X45834Y14091*
X45840Y13809*
X45896Y13532*
X45999Y13269*
X46146Y13028*
X46332Y12815*
X46553Y12639*
X46801Y12504*
X47068Y12413*
X47348Y12371*
X47630Y12377*
G37*
G36*
X22130Y19860D02*
G01X22089Y20217D01*
X21970Y20556*
X21780Y20861*
X21527Y21116*
X21223Y21309*
X20885Y21431*
X20510Y21475*
X20153Y21435*
X19813Y21317*
X19508Y21128*
X19252Y20875*
X19058Y20573*
X18935Y20235*
X18890Y19860*
X18931Y19503*
X19050Y19164*
X19240Y18859*
X19493Y18604*
X19797Y18411*
X20135Y18289*
X20510Y18245*
X20867Y18285*
X21207Y18403*
X21512Y18592*
X21768Y18845*
X21962Y19147*
X22085Y19485*
X22130Y19860*
G37*
G36*
X49320Y18590D02*
G01X49279Y18947D01*
X49160Y19286*
X48970Y19591*
X48717Y19846*
X48413Y20039*
X48075Y20161*
X47700Y20205*
X47343Y20165*
X47003Y20047*
X46698Y19858*
X46442Y19605*
X46248Y19303*
X46125Y18965*
X46080Y18590*
X46121Y18233*
X46240Y17894*
X46430Y17589*
X46683Y17334*
X46987Y17141*
X47325Y17019*
X47700Y16975*
X48057Y17015*
X48397Y17133*
X48702Y17322*
X48958Y17575*
X49152Y17877*
X49275Y18215*
X49320Y18590*
G37*
G36*
X44020Y20590D02*
G01X43979Y20947D01*
X43860Y21286*
X43670Y21591*
X43417Y21846*
X43113Y22039*
X42775Y22161*
X42400Y22205*
X42043Y22165*
X41703Y22047*
X41398Y21858*
X41142Y21605*
X40948Y21303*
X40825Y20965*
X40780Y20590*
X40821Y20233*
X40940Y19894*
X41130Y19589*
X41383Y19334*
X41687Y19141*
X42025Y19019*
X42400Y18975*
X42757Y19015*
X43097Y19133*
X43402Y19322*
X43658Y19575*
X43852Y19877*
X43975Y20215*
X44020Y20590*
G37*
G36*
X48270Y23000D02*
G01X48229Y23357D01*
X48110Y23696*
X47920Y24001*
X47667Y24256*
X47363Y24449*
X47025Y24571*
X46650Y24615*
X46293Y24575*
X45953Y24457*
X45648Y24268*
X45392Y24015*
X45198Y23713*
X45075Y23375*
X45030Y23000*
X45071Y22643*
X45190Y22304*
X45380Y21999*
X45633Y21744*
X45937Y21551*
X46275Y21429*
X46650Y21385*
X47007Y21425*
X47347Y21543*
X47652Y21732*
X47908Y21985*
X48102Y22287*
X48225Y22625*
X48270Y23000*
G37*
G36*
X22570Y27900D02*
G01X22529Y28309D01*
X22410Y28703*
X22217Y29066*
X21957Y29385*
X21641Y29648*
X21280Y29845*
X20887Y29969*
X20450Y30014*
X20041Y29974*
X19647Y29856*
X19283Y29664*
X18963Y29405*
X18699Y29090*
X18501Y28729*
X18377Y28337*
X18330Y27900*
X18371Y27491*
X18490Y27097*
X18683Y26734*
X18943Y26415*
X19259Y26152*
X19620Y25955*
X20013Y25831*
X20450Y25786*
X20859Y25826*
X21253Y25944*
X21617Y26136*
X21937Y26395*
X22201Y26710*
X22399Y27071*
X22523Y27463*
X22570Y27900*
G37*
G36*
X40370Y30500D02*
G01X40329Y30857D01*
X40210Y31196*
X40020Y31501*
X39767Y31756*
X39463Y31949*
X39125Y32071*
X38750Y32115*
X38393Y32075*
X38053Y31957*
X37748Y31768*
X37492Y31515*
X37298Y31213*
X37175Y30875*
X37130Y30500*
X37171Y30143*
X37290Y29804*
X37480Y29499*
X37733Y29244*
X38037Y29051*
X38375Y28929*
X38750Y28885*
X39107Y28925*
X39447Y29043*
X39752Y29232*
X40008Y29485*
X40202Y29787*
X40325Y30125*
X40370Y30500*
G37*
G36*
X44220Y30600D02*
G01X44179Y30957D01*
X44060Y31296*
X43870Y31601*
X43617Y31856*
X43313Y32049*
X42975Y32171*
X42600Y32215*
X42243Y32175*
X41903Y32057*
X41598Y31868*
X41342Y31615*
X41148Y31313*
X41025Y30975*
X40980Y30600*
X41021Y30243*
X41140Y29904*
X41330Y29599*
X41583Y29344*
X41887Y29151*
X42225Y29029*
X42600Y28985*
X42957Y29025*
X43297Y29143*
X43602Y29332*
X43858Y29585*
X44052Y29887*
X44175Y30225*
X44220Y30600*
G37*
G36*
X47870Y30500D02*
G01X47829Y30857D01*
X47710Y31196*
X47520Y31501*
X47267Y31756*
X46963Y31949*
X46625Y32071*
X46250Y32115*
X45893Y32075*
X45553Y31957*
X45248Y31768*
X44992Y31515*
X44798Y31213*
X44675Y30875*
X44630Y30500*
X44671Y30143*
X44790Y29804*
X44980Y29499*
X45233Y29244*
X45537Y29051*
X45875Y28929*
X46250Y28885*
X46607Y28925*
X46947Y29043*
X47252Y29232*
X47508Y29485*
X47702Y29787*
X47825Y30125*
X47870Y30500*
G37*
G36*
X53658Y29170D02*
G01X53927Y29256D01*
X54177Y29388*
X54400Y29561*
X54590Y29770*
X54740Y30009*
X54847Y30270*
X54907Y30546*
X54918Y30828*
X54880Y31108*
X54794Y31377*
X54662Y31627*
X54489Y31850*
X54280Y32040*
X54041Y32191*
X53780Y32297*
X53504Y32357*
X53221Y32368*
X52942Y32330*
X52673Y32244*
X52423Y32112*
X52200Y31939*
X52010Y31730*
X51979Y31693*
X51926Y31648*
X51866Y31613*
X51801Y31588*
X51733Y31575*
X51663*
X51595Y31586*
X51529Y31609*
X51469Y31643*
X51415Y31687*
X51370Y31740*
X51239Y31900*
X51030Y32090*
X50791Y32241*
X50530Y32347*
X50254Y32407*
X49971Y32418*
X49692Y32380*
X49423Y32294*
X49173Y32162*
X48950Y31989*
X48760Y31780*
X48609Y31541*
X48503Y31280*
X48443Y31004*
X48432Y30721*
X48470Y30442*
X48556Y30173*
X48688Y29923*
X48861Y29700*
X49070Y29510*
X49309Y29359*
X49570Y29253*
X49846Y29193*
X50128Y29182*
X50408Y29220*
X50677Y29306*
X50927Y29438*
X51150Y29611*
X51340Y29820*
X51371Y29857*
X51424Y29902*
X51484Y29937*
X51549Y29962*
X51617Y29975*
X51686*
X51755Y29964*
X51820Y29941*
X51881Y29907*
X51935Y29863*
X51980Y29810*
X52111Y29650*
X52320Y29460*
X52559Y29309*
X52820Y29203*
X53096Y29143*
X53378Y29132*
X53658Y29170*
G37*
G36*
X22570Y35150D02*
G01X22529Y35507D01*
X22410Y35846*
X22220Y36151*
X21967Y36406*
X21663Y36599*
X21325Y36721*
X20950Y36765*
X20593Y36725*
X20253Y36607*
X19948Y36418*
X19692Y36165*
X19498Y35863*
X19375Y35525*
X19330Y35150*
X19371Y34793*
X19490Y34454*
X19680Y34149*
X19933Y33894*
X20237Y33701*
X20575Y33579*
X20950Y33535*
X21307Y33575*
X21647Y33693*
X21952Y33882*
X22208Y34135*
X22402Y34437*
X22525Y34775*
X22570Y35150*
G37*
G36*
X53815Y38314D02*
G01X54086Y38392D01*
X54339Y38516*
X54567Y38682*
X54763Y38886*
X54920Y39120*
X54947Y39163*
X54993Y39215*
X55047Y39259*
X55108Y39292*
X55173Y39315*
X55242Y39326*
X55312Y39324*
X55380Y39311*
X55445Y39286*
X55504Y39250*
X55556Y39204*
X55600Y39150*
X55729Y38981*
X55933Y38785*
X56168Y38628*
X56426Y38514*
X56701Y38446*
X56983Y38427*
X57264Y38458*
X57535Y38536*
X57789Y38661*
X58017Y38827*
X58212Y39031*
X58370Y39266*
X58484Y39524*
X58552Y39799*
X58571Y40081*
X58540Y40362*
X58462Y40633*
X58337Y40887*
X58171Y41115*
X57967Y41311*
X57732Y41468*
X57474Y41582*
X57199Y41650*
X56917Y41669*
X56636Y41638*
X56365Y41560*
X56111Y41435*
X55883Y41268*
X55687Y41065*
X55530Y40830*
X55503Y40787*
X55457Y40734*
X55403Y40691*
X55342Y40657*
X55276Y40635*
X55208Y40624*
X55138Y40626*
X55070Y40639*
X55005Y40664*
X54946Y40700*
X54894Y40746*
X54850Y40800*
X54686Y41007*
X54476Y41195*
X54236Y41344*
X53974Y41449*
X53698Y41507*
X53415Y41516*
X53136Y41476*
X52868Y41388*
X52619Y41255*
X52397Y41080*
X52209Y40870*
X52060Y40630*
X52046Y40606*
X52003Y40549*
X51951Y40501*
X51892Y40462*
X51826Y40434*
X51757Y40418*
X51686Y40414*
X51616Y40423*
X51548Y40444*
X51484Y40476*
X51427Y40519*
X51379Y40570*
X51340Y40630*
X51253Y40780*
X51080Y41002*
X50871Y41189*
X50632Y41338*
X50371Y41443*
X50096Y41501*
X49815Y41510*
X49537Y41471*
X49270Y41383*
X49022Y41251*
X48800Y41078*
X48613Y40869*
X48464Y40630*
X48359Y40369*
X48301Y40094*
X48292Y39813*
X48331Y39535*
X48418Y39268*
X48551Y39020*
X48724Y38798*
X48933Y38611*
X49172Y38462*
X49433Y38357*
X49708Y38299*
X49989Y38290*
X50267Y38329*
X50534Y38416*
X50782Y38549*
X51003Y38722*
X51191Y38931*
X51340Y39170*
X51354Y39194*
X51396Y39250*
X51448Y39299*
X51508Y39338*
X51573Y39366*
X51643Y39382*
X51714Y39386*
X51784Y39377*
X51852Y39357*
X51916Y39324*
X51973Y39282*
X52021Y39230*
X52060Y39170*
X52117Y39066*
X52283Y38838*
X52487Y38642*
X52721Y38485*
X52979Y38371*
X53253Y38303*
X53534Y38284*
X53815Y38314*
G37*
G36*
X77920Y40650D02*
G01X77879Y41007D01*
X77760Y41346*
X77570Y41651*
X77317Y41906*
X77013Y42099*
X76675Y42221*
X76300Y42265*
X75943Y42225*
X75603Y42107*
X75298Y41918*
X75042Y41665*
X74848Y41363*
X74725Y41025*
X74680Y40650*
X74721Y40293*
X74840Y39954*
X75030Y39649*
X75283Y39394*
X75587Y39201*
X75925Y39079*
X76300Y39035*
X76657Y39075*
X76997Y39193*
X77302Y39382*
X77558Y39635*
X77752Y39937*
X77875Y40275*
X77920Y40650*
G37*
G36*
X42520Y54750D02*
G01X42479Y55107D01*
X42360Y55446*
X42170Y55751*
X41917Y56006*
X41613Y56199*
X41275Y56321*
X40900Y56365*
X40543Y56325*
X40203Y56207*
X39898Y56018*
X39642Y55765*
X39448Y55463*
X39325Y55125*
X39280Y54750*
X39321Y54393*
X39440Y54054*
X39630Y53749*
X39883Y53494*
X40187Y53301*
X40525Y53179*
X40900Y53135*
X41257Y53175*
X41597Y53293*
X41902Y53482*
X42158Y53735*
X42352Y54037*
X42475Y54375*
X42520Y54750*
G37*
G36*
X50270Y55200D02*
G01X50229Y55557D01*
X50110Y55896*
X49920Y56201*
X49667Y56456*
X49363Y56649*
X49025Y56771*
X48650Y56815*
X48293Y56775*
X47953Y56657*
X47648Y56468*
X47392Y56215*
X47198Y55913*
X47075Y55575*
X47030Y55200*
X47071Y54843*
X47190Y54504*
X47380Y54199*
X47633Y53944*
X47937Y53751*
X48275Y53629*
X48650Y53585*
X49007Y53625*
X49347Y53743*
X49652Y53932*
X49908Y54185*
X50102Y54487*
X50225Y54825*
X50270Y55200*
G37*
G36*
X60080Y50926D02*
G01X60347Y51016D01*
X60595Y51150*
X60815Y51326*
X61002Y51538*
X61149Y51779*
X61252Y52041*
X61308Y52317*
X61314Y52599*
X61272Y52878*
X61182Y53146*
X61047Y53393*
X60872Y53613*
X60660Y53800*
X60619Y53834*
X60573Y53887*
X60537Y53947*
X60511Y54013*
X60498Y54081*
X60496Y54151*
X60507Y54221*
X60529Y54287*
X60563Y54349*
X60607Y54404*
X60660Y54450*
X60815Y54580*
X61002Y54792*
X61149Y55033*
X61252Y55295*
X61308Y55571*
X61314Y55853*
X61272Y56132*
X61182Y56400*
X61047Y56647*
X60872Y56867*
X60660Y57054*
X60419Y57201*
X60157Y57304*
X59880Y57360*
X59598Y57366*
X59320Y57324*
X59052Y57234*
X58805Y57099*
X58584Y56923*
X58398Y56712*
X58251Y56471*
X58148Y56209*
X58092Y55932*
X58086Y55650*
X58128Y55372*
X58218Y55104*
X58353Y54857*
X58528Y54637*
X58740Y54450*
X58781Y54416*
X58827Y54363*
X58863Y54303*
X58889Y54238*
X58902Y54169*
X58904Y54098*
X58893Y54029*
X58871Y53962*
X58837Y53901*
X58793Y53846*
X58740Y53800*
X58584Y53669*
X58398Y53458*
X58251Y53217*
X58148Y52955*
X58092Y52678*
X58086Y52396*
X58128Y52118*
X58218Y51850*
X58353Y51603*
X58528Y51383*
X58740Y51196*
X58981Y51049*
X59243Y50946*
X59520Y50890*
X59801Y50884*
X60080Y50926*
G37*
G36*
X83470Y69850D02*
G01X83429Y70259D01*
X83310Y70653*
X83117Y71016*
X82857Y71335*
X82541Y71598*
X82180Y71795*
X81787Y71919*
X81350Y71964*
X80941Y71924*
X80547Y71806*
X80183Y71614*
X79863Y71355*
X79599Y71040*
X79401Y70679*
X79277Y70287*
X79230Y69850*
X79271Y69441*
X79390Y69047*
X79583Y68684*
X79843Y68365*
X80159Y68102*
X80520Y67905*
X80913Y67781*
X81350Y67736*
X81759Y67776*
X82153Y67894*
X82517Y68086*
X82837Y68345*
X83101Y68660*
X83299Y69021*
X83423Y69413*
X83470Y69850*
G37*
G36*
X45970Y96700D02*
G01X45929Y97057D01*
X45810Y97396*
X45620Y97701*
X45367Y97956*
X45063Y98149*
X44725Y98271*
X44350Y98315*
X43993Y98275*
X43653Y98157*
X43348Y97968*
X43092Y97715*
X42898Y97413*
X42775Y97075*
X42730Y96700*
X42771Y96343*
X42890Y96004*
X43080Y95699*
X43333Y95444*
X43637Y95251*
X43975Y95129*
X44350Y95085*
X44707Y95125*
X45047Y95243*
X45352Y95432*
X45608Y95685*
X45802Y95987*
X45925Y96325*
X45970Y96700*
G37*
G36*
X47163Y101259D02*
G01X47435Y101338D01*
X47688Y101462*
X47916Y101628*
X48112Y101832*
X48269Y102066*
X48383Y102324*
X48451Y102598*
X48470Y102880*
Y102911*
X48480Y102980*
X48501Y103046*
X48534Y103108*
X48577Y103163*
X48629Y103210*
X48688Y103247*
X48753Y103273*
X48821Y103287*
X48891Y103290*
X48960Y103280*
X49099Y103252*
X49381Y103233*
X49661Y103263*
X49933Y103342*
X50186Y103466*
X50414Y103632*
X50610Y103836*
X50767Y104070*
X50881Y104328*
X50949Y104602*
X50968Y104884*
X50938Y105165*
X50859Y105436*
X50735Y105689*
X50569Y105917*
X50365Y106113*
X50131Y106270*
X49873Y106384*
X49599Y106452*
X49317Y106471*
X49036Y106441*
X48765Y106362*
X48512Y106238*
X48284Y106072*
X48088Y105868*
X47931Y105634*
X47817Y105375*
X47749Y105101*
X47730Y104820*
Y104789*
X47720Y104720*
X47698Y104653*
X47666Y104592*
X47623Y104537*
X47571Y104490*
X47512Y104453*
X47447Y104427*
X47379Y104413*
X47309Y104410*
X47240Y104420*
X47101Y104448*
X46819Y104467*
X46538Y104437*
X46267Y104358*
X46014Y104234*
X45786Y104068*
X45590Y103864*
X45433Y103630*
X45319Y103371*
X45251Y103097*
X45232Y102816*
X45262Y102535*
X45341Y102264*
X45465Y102011*
X45631Y101783*
X45835Y101587*
X46069Y101430*
X46327Y101316*
X46601Y101248*
X46883Y101229*
X47163Y101259*
G37*
G36*
X58520Y105150D02*
G01X58479Y105507D01*
X58360Y105846*
X58170Y106151*
X57917Y106406*
X57613Y106599*
X57275Y106721*
X56900Y106765*
X56543Y106725*
X56203Y106607*
X55898Y106418*
X55642Y106165*
X55448Y105863*
X55325Y105525*
X55280Y105150*
X55321Y104793*
X55440Y104454*
X55630Y104149*
X55883Y103894*
X56187Y103701*
X56525Y103579*
X56900Y103535*
X57257Y103575*
X57597Y103693*
X57902Y103882*
X58158Y104135*
X58352Y104437*
X58475Y104775*
X58520Y105150*
G37*
G36*
X77920Y105250D02*
G01X77879Y105607D01*
X77760Y105946*
X77570Y106251*
X77317Y106506*
X77013Y106699*
X76675Y106821*
X76300Y106865*
X75943Y106825*
X75603Y106707*
X75298Y106518*
X75042Y106265*
X74848Y105963*
X74725Y105625*
X74680Y105250*
X74721Y104893*
X74840Y104554*
X75030Y104249*
X75283Y103994*
X75587Y103801*
X75925Y103679*
X76300Y103635*
X76657Y103675*
X76997Y103793*
X77302Y103982*
X77558Y104235*
X77752Y104537*
X77875Y104875*
X77920Y105250*
G37*
G36*
X48720Y109750D02*
G01X48679Y110107D01*
X48560Y110446*
X48370Y110751*
X48117Y111006*
X47813Y111199*
X47475Y111321*
X47100Y111365*
X46743Y111325*
X46403Y111207*
X46098Y111018*
X45842Y110765*
X45648Y110463*
X45525Y110125*
X45480Y109750*
X45521Y109393*
X45640Y109054*
X45830Y108749*
X46083Y108494*
X46387Y108301*
X46725Y108179*
X47100Y108135*
X47457Y108175*
X47797Y108293*
X48102Y108482*
X48358Y108735*
X48552Y109037*
X48675Y109375*
X48720Y109750*
G37*
G36*
X52262Y107671D02*
G01X52530Y107758D01*
X52780Y107890*
X53003Y108063*
X53192Y108273*
X53342Y108512*
X53448Y108774*
X53507Y109050*
X53518Y109332*
X53479Y109612*
X53392Y109880*
X53260Y110130*
X53242Y110159*
X53214Y110222*
X53198Y110290*
X53193Y110359*
X53200Y110428*
X53220Y110495*
X53250Y110557*
X53291Y110613*
X53342Y110662*
X53399Y110700*
X53463Y110729*
X53530Y110745*
X53600Y110750*
X53682Y110752*
X53962Y110791*
X54230Y110878*
X54480Y111010*
X54703Y111183*
X54892Y111393*
X55042Y111632*
X55148Y111894*
X55207Y112170*
X55218Y112452*
X55179Y112732*
X55092Y113000*
X54960Y113250*
X54787Y113473*
X54577Y113662*
X54338Y113812*
X54076Y113918*
X53800Y113977*
X53518Y113988*
X53238Y113949*
X52969Y113862*
X52720Y113730*
X52497Y113556*
X52308Y113347*
X52158Y113108*
X52052Y112846*
X51993Y112570*
X51982Y112288*
X52021Y112008*
X52108Y111740*
X52240Y111490*
X52257Y111462*
X52286Y111398*
X52302Y111330*
X52307Y111261*
X52299Y111192*
X52280Y111125*
X52249Y111062*
X52208Y111006*
X52158Y110958*
X52100Y110919*
X52037Y110891*
X51969Y110875*
X51900Y110870*
X51818Y110868*
X51538Y110829*
X51269Y110742*
X51020Y110610*
X50797Y110436*
X50608Y110227*
X50458Y109988*
X50352Y109726*
X50293Y109450*
X50282Y109168*
X50321Y108888*
X50408Y108620*
X50540Y108370*
X50713Y108147*
X50923Y107958*
X51162Y107808*
X51424Y107702*
X51700Y107643*
X51982Y107632*
X52262Y107671*
G37*
G36*
X27220Y110350D02*
G01X27179Y110707D01*
X27060Y111046*
X26870Y111351*
X26617Y111606*
X26313Y111799*
X25975Y111921*
X25600Y111965*
X25243Y111925*
X24903Y111807*
X24598Y111618*
X24342Y111365*
X24148Y111063*
X24025Y110725*
X23980Y110350*
X24021Y109993*
X24140Y109654*
X24330Y109349*
X24583Y109094*
X24887Y108901*
X25225Y108779*
X25600Y108735*
X25957Y108775*
X26297Y108893*
X26602Y109082*
X26858Y109335*
X27052Y109637*
X27175Y109975*
X27220Y110350*
G37*
G36*
X62870Y112050D02*
G01X62829Y112407D01*
X62710Y112746*
X62520Y113051*
X62267Y113306*
X61963Y113499*
X61625Y113621*
X61250Y113665*
X60893Y113625*
X60553Y113507*
X60248Y113318*
X59992Y113065*
X59798Y112763*
X59675Y112425*
X59630Y112050*
X59671Y111693*
X59790Y111354*
X59980Y111049*
X60233Y110794*
X60537Y110601*
X60875Y110479*
X61250Y110435*
X61607Y110475*
X61947Y110593*
X62252Y110782*
X62508Y111035*
X62702Y111337*
X62825Y111675*
X62870Y112050*
G37*
G36*
X66770D02*
G01X66729Y112407D01*
X66610Y112746*
X66420Y113051*
X66167Y113306*
X65863Y113499*
X65525Y113621*
X65150Y113665*
X64793Y113625*
X64453Y113507*
X64148Y113318*
X63892Y113065*
X63698Y112763*
X63575Y112425*
X63530Y112050*
X63571Y111693*
X63690Y111354*
X63880Y111049*
X64133Y110794*
X64437Y110601*
X64775Y110479*
X65150Y110435*
X65507Y110475*
X65847Y110593*
X66152Y110782*
X66408Y111035*
X66602Y111337*
X66725Y111675*
X66770Y112050*
G37*
G36*
X46070Y120850D02*
G01X46029Y121207D01*
X45910Y121546*
X45720Y121851*
X45467Y122106*
X45163Y122299*
X44825Y122421*
X44450Y122465*
X44093Y122425*
X43753Y122307*
X43448Y122118*
X43192Y121865*
X42998Y121563*
X42875Y121225*
X42830Y120850*
X42871Y120493*
X42990Y120154*
X43180Y119849*
X43433Y119594*
X43737Y119401*
X44075Y119279*
X44450Y119235*
X44807Y119275*
X45147Y119393*
X45452Y119582*
X45708Y119835*
X45902Y120137*
X46025Y120475*
X46070Y120850*
G37*
G36*
X47090Y124850D02*
G01X47049Y125207D01*
X46930Y125546*
X46740Y125851*
X46487Y126106*
X46183Y126299*
X45845Y126421*
X45470Y126465*
X45113Y126425*
X44773Y126307*
X44468Y126118*
X44212Y125865*
X44018Y125563*
X43895Y125225*
X43850Y124850*
X43891Y124493*
X44010Y124154*
X44200Y123849*
X44453Y123594*
X44757Y123401*
X45095Y123279*
X45470Y123235*
X45827Y123275*
X46167Y123393*
X46472Y123582*
X46728Y123835*
X46922Y124137*
X47045Y124475*
X47090Y124850*
G37*
G36*
X57220Y125850D02*
G01X57179Y126207D01*
X57060Y126546*
X56870Y126851*
X56617Y127106*
X56313Y127299*
X55975Y127421*
X55600Y127465*
X55243Y127425*
X54903Y127307*
X54598Y127118*
X54342Y126865*
X54148Y126563*
X54025Y126225*
X53980Y125850*
X54021Y125493*
X54140Y125154*
X54330Y124849*
X54583Y124594*
X54887Y124401*
X55225Y124279*
X55600Y124235*
X55957Y124275*
X56297Y124393*
X56602Y124582*
X56858Y124835*
X57052Y125137*
X57175Y125475*
X57220Y125850*
G37*
G36*
X66850Y121689D02*
G01X67128Y121739D01*
X67392Y121838*
X67635Y121980*
X67850Y122163*
X68030Y122380*
X68062Y122422*
X68114Y122470*
X68173Y122508*
X68238Y122536*
X68306Y122551*
X68376Y122555*
X68446Y122546*
X68513Y122526*
X68576Y122494*
X68632Y122452*
X68680Y122400*
X68815Y122250*
X69032Y122070*
X69277Y121931*
X69543Y121836*
X69821Y121789*
X70102Y121791*
X70380Y121841*
X70644Y121940*
X70887Y122082*
X71102Y122265*
X71282Y122482*
X71421Y122727*
X71516Y122992*
X71563Y123270*
X71561Y123553*
X71511Y123830*
X71412Y124094*
X71270Y124337*
X71087Y124552*
X70870Y124732*
X70625Y124871*
X70359Y124966*
X70081Y125013*
X69799Y125011*
X69522Y124961*
X69258Y124862*
X69015Y124720*
X68800Y124537*
X68620Y124320*
X68587Y124278*
X68536Y124230*
X68477Y124192*
X68412Y124164*
X68344Y124149*
X68273Y124145*
X68204Y124154*
X68137Y124174*
X68074Y124206*
X68018Y124249*
X67970Y124300*
X67835Y124450*
X67618Y124630*
X67373Y124769*
X67107Y124864*
X66829Y124911*
X66547Y124909*
X66270Y124859*
X66006Y124760*
X65763Y124618*
X65548Y124435*
X65368Y124218*
X65229Y123973*
X65134Y123707*
X65087Y123429*
X65089Y123147*
X65139Y122870*
X65238Y122606*
X65380Y122363*
X65563Y122148*
X65780Y121968*
X66025Y121829*
X66291Y121734*
X66569Y121687*
X66850Y121689*
G37*
G36*
X75240Y123400D02*
G01X75199Y123757D01*
X75080Y124096*
X74890Y124401*
X74637Y124656*
X74333Y124849*
X73995Y124971*
X73620Y125015*
X73263Y124975*
X72923Y124857*
X72618Y124668*
X72362Y124415*
X72168Y124113*
X72045Y123775*
X72000Y123400*
X72041Y123043*
X72160Y122704*
X72350Y122399*
X72603Y122144*
X72907Y121951*
X73245Y121829*
X73620Y121785*
X73977Y121825*
X74317Y121943*
X74622Y122132*
X74878Y122385*
X75072Y122687*
X75195Y123025*
X75240Y123400*
G37*
G36*
X46210Y140410D02*
G01X46169Y140819D01*
X46050Y141213*
X45857Y141576*
X45597Y141895*
X45281Y142158*
X44920Y142355*
X44527Y142479*
X44090Y142524*
X43681Y142484*
X43287Y142366*
X42923Y142174*
X42603Y141915*
X42339Y141600*
X42141Y141239*
X42017Y140847*
X41970Y140410*
X42011Y140001*
X42130Y139607*
X42323Y139244*
X42583Y138925*
X42899Y138662*
X43260Y138465*
X43653Y138341*
X44090Y138296*
X44499Y138336*
X44893Y138454*
X45257Y138646*
X45577Y138905*
X45841Y139220*
X46039Y139581*
X46163Y139973*
X46210Y140410*
G37*
G36*
X61180Y140960D02*
G01X61139Y141369D01*
X61020Y141763*
X60827Y142126*
X60567Y142445*
X60251Y142708*
X59890Y142905*
X59497Y143029*
X59060Y143074*
X58651Y143034*
X58257Y142916*
X57893Y142724*
X57573Y142465*
X57309Y142150*
X57111Y141789*
X56987Y141397*
X56940Y140960*
X56981Y140551*
X57100Y140157*
X57293Y139794*
X57553Y139475*
X57869Y139212*
X58230Y139015*
X58623Y138891*
X59060Y138846*
X59469Y138886*
X59863Y139004*
X60227Y139196*
X60547Y139455*
X60811Y139770*
X61009Y140131*
X61133Y140523*
X61180Y140960*
G37*
G36*
X76130Y140760D02*
G01X76089Y141169D01*
X75970Y141563*
X75777Y141926*
X75517Y142245*
X75201Y142508*
X74840Y142705*
X74447Y142829*
X74010Y142874*
X73601Y142834*
X73207Y142716*
X72843Y142524*
X72523Y142265*
X72259Y141950*
X72061Y141589*
X71937Y141197*
X71890Y140760*
X71931Y140351*
X72050Y139957*
X72243Y139594*
X72503Y139275*
X72819Y139012*
X73180Y138815*
X73573Y138691*
X74010Y138646*
X74419Y138686*
X74813Y138804*
X75177Y138996*
X75497Y139255*
X75761Y139570*
X75959Y139931*
X76083Y140323*
X76130Y140760*
G37*
G36*
X85730Y140410D02*
G01X85689Y140819D01*
X85570Y141213*
X85377Y141576*
X85117Y141895*
X84801Y142158*
X84440Y142355*
X84047Y142479*
X83610Y142524*
X83201Y142484*
X82807Y142366*
X82443Y142174*
X82123Y141915*
X81859Y141600*
X81661Y141239*
X81537Y140847*
X81490Y140410*
X81531Y140001*
X81650Y139607*
X81843Y139244*
X82103Y138925*
X82419Y138662*
X82780Y138465*
X83173Y138341*
X83610Y138296*
X84019Y138336*
X84413Y138454*
X84777Y138646*
X85097Y138905*
X85361Y139220*
X85559Y139581*
X85683Y139973*
X85730Y140410*
G37*
G36*
X94360Y2610D02*
G01X94319Y3019D01*
X94200Y3413*
X94007Y3776*
X93747Y4095*
X93431Y4358*
X93070Y4555*
X92677Y4679*
X92240Y4724*
X91831Y4684*
X91437Y4566*
X91073Y4374*
X90753Y4115*
X90489Y3800*
X90291Y3439*
X90167Y3047*
X90120Y2610*
X90161Y2201*
X90280Y1807*
X90473Y1444*
X90733Y1125*
X91049Y862*
X91410Y665*
X91803Y541*
X92240Y496*
X92649Y536*
X93043Y654*
X93407Y846*
X93727Y1105*
X93991Y1420*
X94189Y1781*
X94313Y2173*
X94360Y2610*
G37*
%LPD*%
G54D10*
X-183070Y-88590D03*
Y187010D03*
X183070Y-88590D03*
Y187010D03*
G54D11*
X-191850Y-70790D03*
Y-60790D03*
Y-50790D03*
Y-40790D03*
Y-30790D03*
Y-20790D03*
Y-10790D03*
Y-790D03*
Y9210D03*
Y19210D03*
Y29210D03*
Y39210D03*
Y49210D03*
Y59210D03*
Y69210D03*
Y79210D03*
Y89210D03*
Y99210D03*
Y109210D03*
Y119210D03*
Y129210D03*
Y139210D03*
Y149210D03*
Y159210D03*
Y169210D03*
X-181850Y-60790D03*
Y-50790D03*
Y-40790D03*
Y-30790D03*
Y-20790D03*
Y-10790D03*
Y-790D03*
Y9210D03*
Y19210D03*
Y29210D03*
Y39210D03*
Y49210D03*
Y59210D03*
Y69210D03*
Y79210D03*
Y89210D03*
Y99210D03*
Y109210D03*
Y119210D03*
Y129210D03*
Y139210D03*
Y149210D03*
Y159210D03*
Y169210D03*
X-112440Y184040D03*
X19300Y174230D03*
Y191950D03*
X46860Y174230D03*
Y191950D03*
G54D20*
X-111830Y-30980D03*
X-106830Y159020D03*
X93170Y-10980D03*
Y99020D03*
G54D12*
X-181850Y-70790D03*
X-102440Y184040D03*
X171960Y124950D03*
G54D21*
X-76950Y-75120D03*
X-26170D03*
G54D13*
X-171310Y-73390D03*
X-170110Y175420D03*
X183420Y-67380D03*
X185060Y12360D03*
X186940Y166530D03*
G54D22*
X6260Y-80710D03*
G54D14*
X-155550Y-88350D03*
Y-58350D03*
Y-68350D03*
Y-48350D03*
X-92390Y137200D03*
X-76160Y16040D03*
X-73170Y137200D03*
X-56940Y16040D03*
X109460Y-90610D03*
X119460D03*
X118040Y-46320D03*
X128040D03*
X123040Y-36320D03*
X138040Y-46320D03*
X133040Y-36320D03*
X143040D03*
X161660Y-90610D03*
X151660D03*
X148040Y-46320D03*
X153040Y-36320D03*
X171960Y94950D03*
X181200Y32640D03*
Y51860D03*
G54D23*
X6260Y-65750D03*
G54D15*
X-157950Y26450D03*
X-147050Y-30750D03*
X-136850Y28550D03*
X-141600Y149050D03*
X-149700Y185100D03*
X-144600D03*
X-126260Y-13350D03*
X-132000Y-23200D03*
X-131400Y23300D03*
X-118750Y14450D03*
X-129950Y92900D03*
X-120050Y161750D03*
X-122050Y169050D03*
X-114150Y31550D03*
X-109900Y123900D03*
X-104850Y147900D03*
X-114900Y173550D03*
X-98250Y-33450D03*
X-87200Y16400D03*
X-87690Y179840D03*
X-71480Y-58480D03*
X-66550Y16550D03*
X-73250Y29950D03*
X-76250Y55700D03*
X-82650Y145950D03*
X-72600Y179750D03*
X-64240Y-86460D03*
X-55250Y-9650D03*
X-65750Y30150D03*
X-65150Y44690D03*
X-59570Y36040D03*
X-49100Y55000D03*
X-56600Y71550D03*
X-59020Y66430D03*
X-64360Y100010D03*
X-57900Y179300D03*
X-41440Y-93210D03*
X-34650Y-7700D03*
X-44900Y39100D03*
X-45300Y27740D03*
X-33000Y52300D03*
X-39050Y78900D03*
X-33350Y68050D03*
X-48250Y78750D03*
X-39840Y87960D03*
X-43450Y173400D03*
X-19300Y-62950D03*
X-23250Y-44850D03*
X-29800Y10950D03*
X-29050Y15300D03*
X-30800Y41350D03*
X-14690Y178860D03*
X-15650Y191700D03*
X-5560Y-45160D03*
X-1850Y-20950D03*
X9890Y-52490D03*
X15750Y11200D03*
X19500Y15100D03*
X20450Y27900D03*
X7950Y154600D03*
X36860Y2540D03*
X30450Y4700D03*
X34210Y140810D03*
X41200Y4000D03*
X51150Y35700D03*
X47350Y148290D03*
X44090Y140410D03*
X59520Y-76820D03*
X60570Y-53620D03*
X64200Y148840D03*
X59060Y140960D03*
X90700Y-66000D03*
X86770Y75930D03*
X81350Y69850D03*
X80050Y88350D03*
Y81300D03*
X83610Y140410D03*
X74010Y140760D03*
X92400Y-91390D03*
X96830Y-72470D03*
X95680Y-47280D03*
X98430Y7920D03*
X92240Y2610D03*
X96850Y148000D03*
X103610Y165140D03*
X117400Y-16550D03*
X114840Y-2340D03*
X120050Y4950D03*
X110600Y20050D03*
X112010Y28240D03*
X119500Y108950D03*
X110540Y136260D03*
X121450Y163850D03*
X110540Y164540D03*
X139000Y-560D03*
X138670Y45600D03*
X134020D03*
X140950Y65300D03*
X133200Y102340D03*
X136100Y156600D03*
X150110Y-25660D03*
X151900Y13500D03*
X150080Y40640D03*
X145430D03*
X151900Y49100D03*
X159300Y54800D03*
X150570Y67070D03*
X157400Y97350D03*
X144770Y130020D03*
X173750Y-8300D03*
X164400Y-130D03*
X164830Y14420D03*
X176200Y27950D03*
X172980Y53820D03*
X175560Y69990D03*
X161980Y114270D03*
X168080Y116390D03*
X170420Y142130D03*
X184550Y-42900D03*
X186860Y-18260D03*
X186070Y128820D03*
G54D24*
X37710Y-83860D03*
Y-61810D03*
X45590Y-93700D03*
Y-69290D03*
Y-47250D03*
X72390Y-83860D03*
Y-61810D03*
X80270Y-93700D03*
Y-69290D03*
Y-47250D03*
G54D16*
X-160350Y101450D03*
X-167580Y116580D03*
X-140500Y167000D03*
X-128750Y32100D03*
X-123450Y55650D03*
X-122250Y88850D03*
X-125050Y91400D03*
X-134250Y139600D03*
Y143470D03*
X-124450Y135000D03*
X-116650Y21300D03*
X-115500Y40800D03*
X-101550Y45280D03*
Y49600D03*
X-110300Y56300D03*
X-110400Y50250D03*
X-110250Y59250D03*
X-117050Y70850D03*
X-116300Y62500D03*
X-102350Y80100D03*
X-111600Y109510D03*
X-104390Y106310D03*
X-108800Y116000D03*
X-118400Y166350D03*
X-87740Y-19240D03*
X-101250Y6750D03*
X-97800Y17250D03*
X-100400Y29350D03*
X-87650Y30200D03*
X-96600Y28250D03*
X-84650Y43600D03*
X-92050Y29900D03*
X-92150Y44450D03*
X-101350Y36150D03*
X-97050Y46820D03*
X-88200Y46550D03*
X-98650Y79350D03*
X-95800Y77400D03*
X-89200Y67450D03*
X-92250Y95850D03*
X-100870Y100070D03*
X-87300Y113950D03*
X-95680Y108690D03*
X-90200Y104250D03*
X-88050Y108350D03*
X-93200Y101250D03*
X-90600Y99150D03*
X-85800Y98650D03*
X-87850Y100750D03*
X-84500Y101650D03*
X-87150Y127750D03*
X-96560Y115990D03*
X-78450Y43450D03*
X-83700Y30800D03*
X-71950Y40150D03*
X-81550Y43800D03*
X-79700Y30000D03*
X-71450Y45650D03*
X-73350Y64150D03*
X-67550Y79250D03*
X-71360Y78960D03*
X-66800Y87250D03*
X-66900Y90950D03*
X-70600Y113000D03*
X-80700Y112950D03*
X-74180Y107150D03*
X-82350Y104850D03*
X-77550Y109450D03*
X-80650Y107400D03*
X-74510Y127260D03*
X-78700Y127400D03*
X-63950Y-28400D03*
X-56200Y-15660D03*
X-60350Y-19450D03*
X-62650Y-13050D03*
X-58400Y79050D03*
X-62460Y77650D03*
X-52900Y92700D03*
X-53850Y84550D03*
X-64900Y106950D03*
X-59350Y123650D03*
X-50100Y126250D03*
X-54450Y124850D03*
X-59150Y119100D03*
X-61060Y167390D03*
X-32750Y9300D03*
X-47250Y-2850D03*
X-31910Y16710D03*
X-42810Y24590D03*
X-43050Y42850D03*
X-42350Y36750D03*
X-32880Y47050D03*
X-34800Y62400D03*
X-42710Y62350D03*
X-31700Y87800D03*
X-32300Y84000D03*
X-35350Y80450D03*
X-47300Y134050D03*
X-48500Y138250D03*
X-33020Y175320D03*
X-14900Y-14850D03*
X-19100Y-17600D03*
Y9110D03*
X-22800Y8950D03*
X-21150Y3550D03*
X-21100Y11550D03*
X-25250Y12250D03*
X-25330Y25350D03*
X-21300Y23350D03*
X-18100Y29350D03*
X-19700Y34350D03*
X-18950Y42150D03*
X-30350Y37190D03*
X-23800Y28600D03*
X-25410Y36050D03*
X-25000Y31650D03*
X-15000Y38550D03*
X-18300Y36950D03*
X-17100Y46900D03*
X-23240Y46710D03*
X-30250Y45500D03*
X-31250Y63400D03*
X-16650Y65100D03*
X-15300Y76650D03*
X-20600Y87800D03*
X-23300Y84950D03*
X-25750Y80250D03*
X-28450Y96600D03*
X-20850Y111250D03*
X-19700Y122900D03*
X-22850Y126000D03*
X-20900Y142750D03*
X-29300Y178050D03*
X-1750Y-37500D03*
X-11400Y-25650D03*
X-11350Y-12050D03*
X-8800Y-21000D03*
X2050Y8600D03*
X-5350Y800D03*
X-8400Y3200D03*
X-13000Y3050D03*
X1100Y-3050D03*
X-2200Y21500D03*
X-8350Y20450D03*
X-11900Y20150D03*
X-3000Y13700D03*
X-600Y15700D03*
X2450Y18900D03*
X-7500Y41300D03*
X-10250Y49400D03*
X3300Y63250D03*
X-10550Y62100D03*
X-850Y64550D03*
X-5000Y90700D03*
X-12850Y79700D03*
X-3800Y100700D03*
X-2700Y121800D03*
X1450Y137400D03*
X500Y142000D03*
X-7800Y136000D03*
X11250Y-43500D03*
X19000Y-40300D03*
X12300Y-1200D03*
X14800Y-3610D03*
X17550Y6790D03*
Y2920D03*
X4500Y11900D03*
X20510Y19860D03*
X7550Y38400D03*
X15750Y41750D03*
X5650Y28050D03*
X18250Y45950D03*
X8730Y112800D03*
X6450Y107950D03*
X11700Y97850D03*
X13050Y114300D03*
X10730Y125400D03*
X16350Y138650D03*
X19450Y146800D03*
X9640Y146750D03*
X6100Y144200D03*
X9650Y150300D03*
X35800Y-3950D03*
X22110Y-6550D03*
X34000Y5850D03*
X35750Y9500D03*
X20950Y35150D03*
X30300Y71500D03*
X28300Y68250D03*
X30110Y91940D03*
X25600Y110350D03*
X21890Y110540D03*
X35600Y108000D03*
X21850Y120700D03*
X22430Y146900D03*
X23050Y150050D03*
X47700Y18590D03*
X42400Y20590D03*
X50600Y14250D03*
X47450Y13990D03*
X46650Y23000D03*
X43450Y11990D03*
X53500Y39900D03*
X49900D03*
X38750Y30500D03*
X46250D03*
X53300Y30750D03*
X42600Y30600D03*
X50050Y30800D03*
X40900Y54750D03*
X48650Y55200D03*
X40100Y91750D03*
X44350Y96700D03*
X49350Y104850D03*
X46850Y102850D03*
X47100Y109750D03*
X51900Y109250D03*
X53600Y112370D03*
X44450Y120850D03*
X39750Y117500D03*
X45470Y124850D03*
X55600Y125850D03*
X49850Y138950D03*
X64950Y-12400D03*
X71800Y-7450D03*
X73150Y26250D03*
X56950Y40050D03*
X59700Y55750D03*
Y52500D03*
X60600Y78600D03*
X65150Y112050D03*
X56900Y105150D03*
X61250Y112050D03*
X69950Y123400D03*
X66700Y123300D03*
X65350Y139400D03*
X90050Y6450D03*
X85950Y-1950D03*
X73650Y7700D03*
X74750Y-3850D03*
X78300Y24550D03*
X78850Y14950D03*
X75500Y14850D03*
X77400Y34350D03*
X76300Y40650D03*
X82250Y29300D03*
X76300Y105250D03*
X73620Y123400D03*
X94370Y47670D03*
X107050Y48900D03*
X105580Y115820D03*
X120660Y-21360D03*
X124700Y57800D03*
X116620Y67180D03*
X110450Y66650D03*
X113570Y103080D03*
X116250Y125300D03*
X116620Y121230D03*
X142740Y-13090D03*
X135130Y-12630D03*
X128250Y-12800D03*
X142350Y13350D03*
X140850Y32900D03*
X127950Y48750D03*
X141650Y52550D03*
X126050Y86850D03*
X132350Y130300D03*
X134150Y121150D03*
X134450Y125200D03*
X140450Y134300D03*
X154250Y-12650D03*
X144330Y26180D03*
X146260Y16660D03*
X143750Y29750D03*
X150450Y83200D03*
X145700Y122550D03*
X154470Y129670D03*
X149250Y134750D03*
X153500Y145150D03*
X168080Y-13020D03*
X161400Y-12550D03*
X162050Y24050D03*
X173450Y34750D03*
X162950Y37850D03*
Y28250D03*
X163270Y32450D03*
X163450Y76150D03*
X162400Y132100D03*
G54D25*
X113040Y-71320D03*
X158080D03*
G54D26*
X105050Y-59310D03*
X166070D03*
G54D17*
X-166310Y123800D03*
X-138090Y127720D03*
X-64910Y-66460D03*
X-56840Y-31010D03*
X-30990Y105450D03*
X-2800Y159010D03*
X83190Y-31010D03*
Y159060D03*
G54D27*
X119960Y182480D03*
X151260D03*
G54D18*
X-166310Y133800D03*
Y143800D03*
X-138090Y97720D03*
Y107720D03*
Y117720D03*
X-82800Y159010D03*
X-92800D03*
X-72800D03*
X-47030Y-66460D03*
X-54910D03*
X-46840Y-31010D03*
X-52800Y159010D03*
X-62800D03*
X-37030Y-66460D03*
X-36840Y-31010D03*
X-30990Y115450D03*
X-40990D03*
Y105450D03*
X-30990Y125450D03*
X-40990D03*
X-32800Y159010D03*
X-42800D03*
X-26840Y-31010D03*
X-16840D03*
X-12800Y159010D03*
X-22800D03*
X-6840Y-31010D03*
X3160D03*
X13160D03*
X23190Y159060D03*
X13190D03*
X33190Y-31010D03*
Y159060D03*
X53190Y-31010D03*
X43190D03*
X53190Y159060D03*
X43190D03*
X73190Y-31010D03*
X63190D03*
X73190Y159060D03*
X63190D03*
G54D19*
X-113140Y-84180D03*
Y-60560D03*
X-94240Y-72370D03*
G54D16*
X-34800Y62400D02*
G01X-37850Y65450D01*
X-46000*
X-49700Y61750*
X-68150*
X-70550Y64150*
X-73350*
G54D71*
X-3800Y100700D02*
G01Y92120D01*
X-3150Y91470*
Y89930*
X-3800Y89280*
Y58250*
X-1810Y56260*
X1760Y59840*
X3180Y58420*
X-390Y54840*
X2700Y51750*
Y48480*
X-1500Y44280*
Y40100*
X-2930Y38670*
X-2260Y38000*
X-3680Y36580*
X-4350Y37250*
X-11900Y29700*
Y27700*
X-15900*
Y25700*
X-11900*
Y20150*
X-12850Y79700D02*
G01Y77850D01*
X-11250*
Y75850*
X-12850*
Y73850*
X-12450Y73450*
Y71450*
X-12700Y71200*
Y66810*
X-12000Y66110*
Y63580*
X-12700Y62880*
Y49330*
X-12350Y48980*
Y37150*
X-16200Y33300*
X-16980*
X-20450Y29830*
Y27010*
X-18450Y25010*
Y23910*
X-19010Y23350*
X-21300*
X-2700Y121800D02*
G01X-3100Y121400D01*
Y111250*
X-5800Y108550*
Y92520*
X-6850Y91470*
Y89930*
X-5800Y88880*
Y56850*
X-4950Y56000*
Y53470*
X-1850*
Y51470*
X-4950*
Y49470*
X-1850*
Y47470*
X-4950*
Y40550*
X-14200Y31300*
X-16150*
X-18100Y29350*
X9640Y146750D02*
G01X-3910D01*
X-5910Y144750*
X-5930*
X-8530Y142150*
Y142130*
X-12050Y138610*
Y133820*
X-12210Y133660*
Y130460*
X-12050Y130300*
Y118050*
X-14700Y115400*
Y83930*
X-17300Y81330*
Y75820*
X-14850Y73370*
Y71880*
X-14900Y71830*
Y67150*
X-14700Y66950*
Y65980*
X-14000Y65280*
Y64410*
X-14700Y63710*
Y63400*
X-15000Y63100*
Y48800*
X-14350Y48150*
Y40820*
X-15000Y40170*
Y38550*
X-16650Y65100D02*
G01X-17100Y65550D01*
Y72790*
X-19300Y74990*
Y82160*
X-16700Y84760*
Y120760*
X-14050*
Y122760*
X-16700*
Y124760*
X-14050*
Y126760*
X-16700*
Y128760*
X-14050*
Y129470*
X-14210Y129630*
Y130760*
X-16700*
Y132760*
X-14210*
Y134490*
X-14050Y134650*
Y134760*
X-16700*
Y136790*
X-10530Y142960*
Y142980*
X-6760Y146750*
X-6750*
X-4150Y149350*
X8700*
X9650Y150300*
X6100Y144200D02*
G01X-3630D01*
X-10050Y137780*
Y132990*
X-10210Y132830*
Y131290*
X-10050Y131130*
Y116910*
X-12700Y114260*
Y83100*
X-15300Y80500*
Y76650*
X-20600Y87800D02*
G01X-19990D01*
X-18850Y88940*
Y122050*
X-19700Y122900*
X-23300Y84950D02*
G01Y88950D01*
X-22100Y90150*
X-22020*
X-20850Y91320*
Y111250*
X-22850Y126000D02*
G01Y124150D01*
X-25350*
Y122150*
X-22850*
Y120150*
X-25350*
Y118150*
X-22850*
Y116150*
X-25350*
Y114150*
X-22850*
Y112150*
X-25350*
Y110150*
X-22850*
Y108150*
X-25350*
Y106150*
X-22850*
Y104150*
X-25350*
Y102150*
X-22850*
Y100150*
X-25350*
Y98150*
X-22850*
Y96150*
X-25350*
Y94150*
X-22850*
Y92150*
X-24100*
X-25350Y90900*
Y88500*
X-25750Y88100*
Y80250*
X8730Y112800D02*
G01Y103920D01*
X7640Y102830*
Y99740*
X7300Y99400*
Y61590*
X7200Y61490*
Y46640*
X4650Y44090*
Y36750*
X-2500Y29600*
X-4150*
X-5700Y28050*
Y25000*
X-2200Y21500*
X-8350Y20450D02*
G01Y29200D01*
X-5600Y31950*
X-4350*
X2000Y38300*
Y44950*
X5200Y48150*
Y62320*
X5300Y62420*
Y100230*
X5640Y100570*
Y103660*
X6450Y104470*
Y107950*
X2450Y18900D02*
G01Y20750D01*
X6150*
Y22750*
X2450*
Y24750*
X-2600*
Y26750*
X2450*
Y29550*
X4200Y31250*
X3330Y32120*
X4750Y33540*
X5620Y32670*
X7040Y34090*
X6170Y34960*
X7590Y36380*
X8460Y35510*
X10700Y37750*
Y44480*
X11700Y45480*
Y97850*
X500Y142000D02*
G01X-3000D01*
X-5100Y139900*
Y136080*
X-5950*
Y134080*
X-5100*
Y132080*
X-5950*
Y130080*
X-5100*
Y128080*
X-5950*
Y126080*
X-5100*
Y124080*
X-5950*
Y122080*
X-5100*
Y120080*
X-5950*
Y118080*
X-5100*
Y116080*
X-5950*
Y114080*
X-5100*
Y112080*
X-7800Y109380*
Y107340*
X-9050*
Y105340*
X-7800*
Y103340*
X-9050*
Y101340*
X-7800*
Y99340*
X-9050*
Y97340*
X-7800*
Y95340*
X-9050*
Y93340*
X-7810*
X-8850Y92300*
Y91340*
X-9050*
Y89340*
X-8850*
Y89100*
X-7800Y88050*
Y87340*
X-9050*
Y85340*
X-7800*
Y83340*
X-9050*
Y81340*
X-7800*
Y79340*
X-9050*
Y77340*
X-7800*
Y75340*
X-9050*
Y73340*
X-7800*
Y71340*
X-9050*
Y69340*
X-7800*
Y67340*
X-8430*
X-9050Y66720*
Y65340*
X-7800Y64090*
Y48500*
X-7790Y48490*
Y45170*
X-7800Y45160*
Y41750*
X-7500Y41450*
Y41300*
X-850Y64550D02*
G01X-500Y64900D01*
Y65000*
X600Y66100*
Y69130*
X-1150*
Y71130*
X600*
Y73130*
X-1150*
Y75130*
X600*
Y77130*
X-1150*
Y79130*
X600*
Y81130*
X-1150*
Y83130*
X600*
Y85130*
X-1150*
Y87130*
X600*
Y89130*
X-1150*
Y91130*
X600*
Y93130*
X-1150*
Y95130*
X600*
Y97130*
X-1150*
Y99130*
X600*
Y101130*
X-1150*
Y103130*
X600*
Y108550*
X-450Y109600*
Y115270*
X-550Y115370*
Y132050*
X-2450Y133950*
Y137850*
X-300Y140000*
X7600*
X10130Y142530*
X12330Y140330*
X13750Y141750*
X11550Y143950*
X12970Y145370*
X15170Y143170*
X16590Y144590*
X14390Y146790*
X17650Y150050*
X19130*
Y152650*
X21130*
Y150050*
X23050*
X3300Y63250D02*
G01Y100810D01*
X3400Y100910*
Y114250*
X1450Y116200*
Y118200*
X7950*
Y120200*
X1450*
Y122200*
X7950*
Y124200*
X1450*
Y129310*
X11950*
Y131310*
X1450*
Y133380*
X14380*
Y135380*
X1450*
Y137400*
X7550Y38400D02*
G01Y44160D01*
X9700Y46310*
Y101620*
X10730Y102650*
Y125400*
X19450Y146800D02*
G01Y144500D01*
X25550*
Y142500*
X19450*
Y140500*
X25550*
Y138500*
X19450*
Y136500*
X25550*
Y134500*
X19450*
Y133190*
X15310Y129050*
Y127050*
X23900*
Y125050*
X15310*
Y121190*
X16500*
X17500Y120190*
Y119190*
X15310Y117000*
Y114870*
X15700Y114480*
Y42520*
X15750Y42470*
Y41750*
X5650Y28050D02*
G01Y29650D01*
X9570Y33570*
X9670*
X12700Y36600*
Y43650*
X13700Y44650*
Y113650*
X13050Y114300*
X21850Y120700D02*
G01X23250D01*
X23720Y121170*
X26770*
X29000Y123400*
X29700*
X30100Y123000*
Y119550*
X30600Y119050*
X31600*
X32100Y119550*
Y123650*
X32600Y124150*
X34200*
X34800Y123550*
Y118150*
X33610Y116960*
X19310*
X17700Y115350*
Y106070*
X17710Y106060*
Y104400*
X17700Y104390*
Y46500*
X18250Y45950*
X28300Y68250D02*
G01X28500Y68050D01*
X33050*
X37250Y72250*
Y103250*
X38650Y104650*
Y108200*
X36900Y109950*
Y124500*
X34910Y126490*
X28950*
Y128490*
X34700*
Y130490*
X28950*
Y132490*
X34700*
Y134490*
X28950Y140240*
Y145550*
X27400Y147100*
X22630*
X22430Y146900*
G54D28*
X-191850Y-60790D02*
G01Y-60950D01*
X-187300Y-65500*
X-164950*
X-161900Y-62450*
X-137850*
X-123060Y-47660*
X12940*
X16900Y-43700*
Y-43600*
X19000Y-41500*
Y-40300*
X-1750Y-37500D02*
G01X-2400Y-38150D01*
X-34920*
X-37350Y-40580*
X-165380*
X-170500Y-45700*
X-186550*
X-191640Y-50790*
X-191850*
Y-40790D02*
G01Y-40550D01*
X-187000Y-35700*
X-130050*
X-117350Y-23000*
X-102870*
X-100430Y-25440*
X-85170*
X-84230Y-24500*
X-12550*
X-11400Y-25650*
X-191850Y-30790D02*
G01X-190540D01*
X-186000Y-26250*
X-126050*
X-118700Y-18900*
X-103000*
X-100450Y-21450*
X-90340*
X-89150Y-22640*
X-86330*
X-85140Y-21450*
X-55820*
X-55620Y-21650*
X-9450*
X-8800Y-21000*
X-191850Y-10790D02*
G01X-190090D01*
X-185850Y-6550*
X-138450*
X-135610Y-9390*
X-119280*
X-116670Y-12000*
X-67600*
X-64850Y-9250*
X-60550*
X-57550Y-12250*
X-54100*
X-50550Y-15800*
X-23150*
X-21150Y-13800*
X-15950*
X-14900Y-14850*
X-19100Y-17600D02*
G01X-20100Y-18600D01*
X-56090*
X-59040Y-15650*
X-121700*
X-125250Y-19200*
X-131150*
X-134700Y-15650*
X-185500*
X-190640Y-20790*
X-191850*
Y-790D02*
G01Y-750D01*
X-186550Y4550*
X-140050*
X-130400Y-5100*
X-53630*
X-45730Y-13000*
X-24660*
X-21860Y-10200*
X-12800*
X-11350Y-11650*
Y-12050*
X-5350Y800D02*
G01X-8600Y-2450D01*
X-18380*
X-18580Y-2650*
X-23720*
X-23920Y-2450*
X-34920*
X-35160Y-2210*
X-42170*
X-46680Y2300*
X-126350*
X-148150Y24100*
X-156760*
X-156910Y23950*
X-158990*
X-159140Y24100*
X-187000*
X-191850Y19250*
Y19210*
X1100Y-3050D02*
G01Y-5050D01*
X-250Y-6400*
X-22800*
X-26600Y-10200*
X-44500*
X-52750Y-1950*
X-127550*
X-143650Y14150*
X-186800*
X-191740Y9210*
X-191850*
X-101250Y6750D02*
G01X-101600Y6400D01*
X-123500*
X-149150Y32050*
X-175250*
X-177450Y34250*
X-186810*
X-191850Y29210*
X77400Y34350D02*
G01X66200Y23150D01*
Y-2200*
X58550Y-9850*
X13450*
X-1950Y5550*
X-12190*
X-12370Y5370*
X-14580*
X-17950Y2000*
X-19870*
X-20320Y1550*
X-21980*
X-22430Y2000*
X-33430*
X-33580Y2150*
X-40000*
X-44490Y6640*
X-91390*
X-95950Y11200*
X-107400*
X-115110Y18910*
X-120240*
X-144830Y43500*
X-187400*
X-191690Y39210*
X-191850*
X12300Y-1200D02*
G01X7200D01*
X-3700Y9700*
X-10330*
X-10430Y9800*
X-13500*
X-17750Y5550*
X-21980*
X-22380Y5150*
X-37750*
X-42050Y9450*
X-79380*
X-81350Y11420*
X-91070*
X-94600Y14950*
X-105070*
X-138930Y48810*
X-174490*
X-179630Y53950*
X-186750*
X-191490Y49210*
X-191850*
X-25410Y36050D02*
G01X-26250D01*
X-27500Y34800*
X-41470*
X-41520Y34750*
X-43180*
X-44190Y35760*
X-50710*
X-54000Y39050*
X-60100*
X-62310Y36840*
X-97190*
X-99450Y39100*
X-110850*
X-124830Y53080*
X-164880*
X-175550Y63750*
X-186500*
X-186650Y63900*
X-191340Y59210*
X-191850*
X-71950Y40150D02*
G01X-73400Y38700D01*
X-76410*
X-76460Y38650*
X-80440*
X-80490Y38700*
X-96700*
X-99380Y41380*
X-105480*
X-121950Y57850*
X-162470*
X-178670Y74050*
X-187150*
X-191850Y69350*
Y69210*
X-101550Y49600D02*
G01X-106250Y54300D01*
X-113870*
X-120270Y60700*
X-159000*
X-177860Y79560*
Y80870*
X-180690Y83700*
X-187450*
X-191850Y79300*
Y79210*
X-116300Y62500D02*
G01X-118100Y64300D01*
X-146700*
X-146750Y64250*
X-149950*
X-176550Y90850*
X-176650*
X-179950Y94150*
X-186910*
X-191850Y89210*
Y99210D02*
G01Y99350D01*
X-186950Y104250*
X-177800*
X-142150Y68600*
X-116550*
X-107000Y59050*
X-106950*
X-97050Y49150*
Y46820*
X-191850Y109210D02*
G01X-191590D01*
X-187050Y113750*
X-178900*
X-169600Y104450*
X-169300*
X-147300Y82450*
X-147250*
X-137900Y73100*
X-116400*
X-105200Y61900*
Y60100*
X-99150Y54050*
Y53430*
X-97980Y52260*
X-97460*
X-92150Y46950*
Y44450*
X-84650Y43600D02*
G01Y47370D01*
X-114770Y77490*
X-135510*
X-158350Y100330*
Y102280*
X-174700Y118630*
Y119500*
X-179450Y124250*
X-185950*
X-190990Y119210*
X-191850*
Y129210D02*
G01Y129250D01*
X-186700Y134400*
X-178900*
X-175300Y130800*
Y122320*
X-169580Y116600*
Y115490*
X-156950Y102860*
Y100910*
X-134930Y78890*
X-114190*
X-92720Y57420*
X-92070*
X-81550Y46900*
Y43800*
X-20480Y-41850D02*
G01X-26050D01*
X-29480Y-45280*
X-125830*
X-134050Y-53500*
X-137750*
X-138150Y-53100*
X-160600*
X-168290Y-60790*
X-181850*
Y-50790D02*
G01X-170990D01*
X-164080Y-43880*
X-33930*
X-30300Y-40250*
X13530*
X26930Y-26850*
X30970*
X31320Y-26500*
X72200*
X83750Y-14950*
Y27800*
X82250Y29300*
X78300Y24550D02*
G01X82350Y20500D01*
Y-11030*
X80260Y-13120*
Y-16370*
X71530Y-25100*
X30740*
X30390Y-25450*
X26350*
X18900Y-32900*
X18850*
X13800Y-37950*
X2550*
X-950Y-34450*
X-2900*
X-4550Y-36100*
X-36200*
X-39000Y-38900*
X-167400*
X-169290Y-40790*
X-181850*
Y-30790D02*
G01X-179960D01*
X-177000Y-33750*
X-130950*
X-117750Y-20550*
X-103330*
X-99840Y-24040*
X-85750*
X-84760Y-23050*
X-58550*
X-58540Y-23060*
X-8440*
X-7450Y-24050*
X29810*
X30160Y-23700*
X70950*
X78850Y-15800*
Y-12550*
X80950Y-10450*
Y440*
X78850Y2540*
Y14950*
X-181850Y-20790D02*
G01X-133130D01*
X-133040Y-20700*
X-130960*
X-130870Y-20790*
X-123490*
X-119850Y-17150*
X-59650*
X-56750Y-20050*
X-11220*
X-9720Y-18550*
X-8950*
X-7500Y-17100*
X1200*
X4430Y-20330*
X55040*
X55050Y-20320*
X65650*
X66250Y-20920*
X67920*
X67930Y-20930*
X70230*
X70810Y-20350*
X72320*
X75950Y-16720*
Y-16420*
X76300Y-16070*
Y-13110*
X79550Y-9860*
Y-140*
X76300Y3110*
Y14050*
X75500Y14850*
X73650Y7700D02*
G01X74200Y7150D01*
Y3230*
X78150Y-720*
Y-9280*
X68510Y-18920*
X5000*
X4190Y-18110*
Y-18100*
X1640Y-15550*
X-7930*
X-9530Y-17150*
X-10300*
X-11550Y-18400*
X-15050*
X-18150Y-15300*
X-20150*
X-22050Y-17200*
X-51450*
X-54990Y-13660*
X-58390*
X-61250Y-10800*
X-63750*
X-66800Y-13850*
X-95100*
X-95290Y-13660*
X-111550*
X-111740Y-13850*
X-116800*
X-119860Y-10790*
X-181850*
Y-790D02*
G01X-139360D01*
X-132300Y-7850*
X-58900*
X-57550Y-6500*
X-54800*
X-46900Y-14400*
X-23850*
X-21250Y-11800*
X-14900*
X-12350Y-14350*
X-10700*
X-8150Y-11800*
X2590*
X6840Y-16050*
X67420*
X71800Y-11670*
Y-7450*
X-181850Y9210D02*
G01X-141260D01*
X-128650Y-3400*
X-53350*
X-45150Y-11600*
X-25250*
X-21750Y-8100*
X3350*
X9050Y-13800*
X63520*
X64120Y-14400*
X66840*
X68580Y-12660*
Y-6770*
X71500Y-3850*
X74750*
X64950Y-12400D02*
G01X13150D01*
X3100Y-2350*
Y-2220*
X1930Y-1050*
X-400*
X-3550Y-4200*
X-42160*
X-46860Y500*
X-127400*
X-145800Y18900*
Y19210*
X-181850*
Y29210D02*
G01X-150010D01*
X-124640Y3840*
X-46240*
X-41600Y-800*
X-34590*
X-34540Y-850*
X-23540*
X-23140Y-1250*
X-19160*
X-18760Y-850*
X-12650*
X-10650Y1150*
X-10500*
X-8450Y3200*
X-8400*
X-181850Y39210D02*
G01X-152460D01*
X-127250Y14000*
Y13490*
X-125790Y12030*
X-125280*
X-122350Y9100*
X-96700*
X-92840Y5240*
X-45440*
X-40800Y600*
X-23010*
X-22560Y150*
X-19740*
X-19290Y600*
X-15800*
X-14100Y2300*
Y3050*
X-13000*
X-181850Y49210D02*
G01X-179940Y47300D01*
X-146650*
X-146550Y47400*
X-139500*
X-105400Y13300*
X-95150*
X-91200Y9350*
X-81260*
X-79960Y8050*
X-43050*
X-38600Y3600*
X-21200*
X-21150Y3550*
X-97800Y17250D02*
G01X-105390D01*
X-139190Y51050*
X-168600*
X-176760Y59210*
X-181850*
X-123450Y55650D02*
G01X-162260D01*
X-170290Y63680*
Y63690*
X-175810Y69210*
X-181850*
X-110400Y50250D02*
G01X-111050Y50900D01*
X-112450*
X-120850Y59300*
X-161940*
X-181850Y79210*
X-110300Y56300D02*
G01X-113100D01*
X-118900Y62100*
X-152350*
X-179460Y89210*
X-181850*
Y99210D02*
G01X-181760D01*
X-149250Y66700*
X-118250*
X-117900Y67050*
X-110250Y59400*
Y59250*
X-71450Y45650D02*
G01X-72750D01*
X-76850Y41550*
X-77520*
X-77620Y41450*
X-79280*
X-79330Y41500*
X-88450*
X-90150Y43200*
Y45280*
X-90200Y45330*
Y47310*
X-97150Y54260*
Y55000*
X-101380Y59230*
Y60140*
X-115930Y74690*
X-136940*
X-145880Y83630*
Y83680*
X-181410Y119210*
X-181850*
X-117050Y70850D02*
G01X-139600D01*
X-172800Y104050*
X-173000*
X-178160Y109210*
X-181850*
Y139210D02*
G01X-179360D01*
X-169440Y129290*
X-164440*
X-164330Y129400*
X-162000*
X-154150Y121550*
Y102070*
X-133770Y81690*
X-113030*
X-91560Y60220*
X-89750*
X-78480Y48950*
X-33810*
X-33060Y49700*
X-30650*
X-28350Y47400*
Y46430*
X-28250Y46330*
Y41110*
X-26290Y39150*
X-25500*
X-20700Y34350*
X-19700*
X-18950Y42150D02*
G01X-19350Y42550D01*
X-21870*
X-22220Y42200*
X-24590*
X-26850Y44460*
Y46910*
X-26950Y47010*
Y53500*
X-28250Y54800*
X-37100*
X-38950Y52950*
X-39150*
X-41000Y51100*
X-78650*
X-89170Y61620*
X-90980*
X-112450Y83090*
X-133190*
X-152750Y102650*
Y127450*
X-163900Y138600*
X-171900*
X-176600Y143300*
Y152450*
X-181850Y157700*
Y159210*
X-17100Y46900D02*
G01X-17150Y46850D01*
Y46350*
X-18950Y44550*
X-23930*
X-25450Y46070*
Y47490*
X-25500Y47540*
Y48860*
X-23250Y51110*
Y54200*
X-25750Y56700*
X-40050*
X-44250Y52500*
X-77800*
X-88320Y63020*
X-90400*
X-111870Y84490*
X-132490*
X-134900Y86900*
Y87050*
X-150900Y103050*
Y128550*
X-159950Y137600*
Y147100*
X-162250Y149400*
X-168650*
X-172650Y153400*
Y158800*
X-177400Y163550*
X-177500*
X-181850Y167900*
Y169210*
X-88200Y46550D02*
G01X-88800Y47150D01*
Y47890*
X-95150Y54240*
Y55090*
X-96320Y56260*
X-96430*
X-99980Y59810*
Y60720*
X-115350Y76090*
X-136100*
X-160350Y100340*
Y101450*
X-78450Y43450D02*
G01Y46600D01*
X-90670Y58820*
X-92140*
X-113610Y80290*
X-134350*
X-155550Y101490*
Y104550*
X-167580Y116580*
X-23240Y46710D02*
G01Y47210D01*
X-19650Y50800*
Y54900*
X-23750Y59000*
X-82100*
X-87530Y64430*
X-89830*
X-111300Y85900*
X-130400*
X-138090Y93590*
Y97720*
X-25330Y25350D02*
G01X-26650D01*
X-31700Y30400*
X-49320*
X-50070Y31150*
X-60200*
X-62900Y33850*
X-69930*
X-70030Y33750*
X-107500*
X-111430Y37680*
X-112130*
X-115250Y40800*
X-115500*
X-87650Y30200D02*
G01X-88150Y29700D01*
Y27050*
X-84950Y23850*
X-55050*
X-49200Y18000*
X-36650*
X-34100Y20550*
X-26480*
X-21100Y15170*
Y11550*
X-25250Y12250D02*
G01X-25750Y11750D01*
Y8900*
X-27950Y6700*
X-36900*
X-41050Y10850*
X-78800*
X-81280Y13330*
X-81410Y13200*
X-90150*
X-96850Y19900*
Y28000*
X-96600Y28250*
X-92050Y29900D02*
G01Y28250D01*
X-86200Y22400*
X-55800*
X-49950Y16550*
X-36120*
X-33520Y19150*
X-27060*
X-23100Y15190*
Y10720*
X-22800Y10420*
Y8950*
X-30250Y45500D02*
G01X-31100D01*
X-32100Y44500*
X-38600*
X-41550Y47450*
X-43850*
X-49110Y42190*
X-66190*
X-66660Y42660*
X-73010*
X-75530Y40140*
X-76950*
X-77040Y40050*
X-79860*
X-79910Y40100*
X-95300*
X-100480Y45280*
X-101550*
X-101350Y36150D02*
G01X-100400Y35200D01*
X-70560*
X-70510Y35250*
X-62320*
X-60220Y33150*
X-50090*
X-48940Y32000*
X-30550*
X-26600Y28050*
X-24350*
X-23800Y28600*
X-85800Y98650D02*
G01X-69560D01*
X-62080Y106130*
Y126770*
X-58050Y130800*
Y147380*
X-48290Y157140*
Y173550*
X-38890Y182950*
X14730*
X15320Y182360*
X50840*
X51430Y182950*
X89250*
X96650Y175550*
Y158400*
X103120Y151930*
Y144020*
X95900Y136800*
Y112100*
X102900Y105100*
Y89350*
X95050Y81500*
Y66450*
X104750Y56750*
X105900*
X111340Y51310*
Y31110*
X109510Y29280*
Y22500*
X108100Y21090*
Y19010*
X110940Y16170*
Y-11010*
X103110Y-18840*
Y-30820*
X102550Y-31380*
X102540Y-32510*
X103430Y-33400*
X103420Y-34530*
X101250Y-36700*
X97210*
X94300Y-39610*
X91360*
X87760Y-36010*
X78190*
X73190Y-31010*
X-87850Y100750D02*
G01X-87800Y100700D01*
Y97820*
X-86630Y96650*
X-64400*
X-63540Y97510*
X-63320*
X-61860Y98970*
Y99190*
X-56100Y104950*
Y123670*
X-56450Y124020*
Y125680*
X-56100Y126030*
Y143950*
X-46900Y153150*
X-40150*
X-37900Y155400*
Y174550*
X-30900Y181550*
X14150*
X14740Y180960*
X51420*
X52010Y181550*
X88670*
X95250Y174970*
Y157820*
X101720Y151350*
Y144600*
X94490Y137370*
Y111530*
X101500Y104520*
Y89930*
X93650Y82080*
Y65870*
X104170Y55350*
X105320*
X108660Y52010*
Y50120*
X109050Y49730*
Y30800*
X108110Y29860*
Y23080*
X106700Y21670*
Y18430*
X108660Y16470*
Y-11310*
X101710Y-18260*
Y-30240*
X101560Y-30390*
X100430Y-30400*
X99550Y-29520*
X98420Y-29530*
X95410Y-32540*
X94290*
X90690Y-28940*
X83990*
X83190Y-29740*
Y-31010*
X-87150Y127750D02*
G01Y148600D01*
X-82800Y152950*
Y159010*
X-87300Y113950D02*
G01X-98900Y125550D01*
Y148300*
X-94250Y152950*
Y157560*
X-92800Y159010*
X-77550Y109450D02*
G01Y114300D01*
X-97350Y134100*
Y143550*
X-88290Y152610*
Y171210*
X-70950Y188550*
X17050*
X17640Y187960*
X48510*
X49100Y188550*
X91570*
X102250Y177870*
Y177810*
X102500Y177560*
Y175600*
X102510Y175590*
Y169780*
X106110Y166180*
Y156860*
X108720Y154250*
Y141700*
X103230Y136210*
Y112690*
X108500Y107420*
Y87030*
X102570Y81100*
Y67570*
X107780Y62360*
X109260*
X118260Y53360*
Y34240*
X121100Y31400*
Y7440*
X122550Y5990*
Y3910*
X121100Y2460*
Y-10410*
X118900Y-12610*
X117260*
X109860Y-20010*
Y-44650*
X99050Y-55460*
X67020*
X64130Y-58350*
X54860*
X52910Y-56400*
X42200*
X33190Y-47390*
Y-31010*
X-19100Y9110D02*
G01Y15150D01*
X-25900Y21950*
X-34860*
X-37110Y19700*
X-48300*
X-53900Y25300*
X-81200*
X-83700Y27800*
Y30800*
X22110Y-6550D02*
G01X22000D01*
X13950Y1500*
X8400*
X4050Y5850*
Y9430*
X2380Y11100*
X-9750*
X-16150Y17500*
X-19200*
X-25050Y23350*
X-35750*
X-37650Y21450*
X-47600*
X-53100Y26950*
X-66600*
X-66850Y26700*
X-77350*
X-79700Y29050*
Y30000*
X-74180Y107150D02*
G01X-72950Y108380D01*
Y109950*
X-72600Y110300*
Y123200*
X-64600Y131200*
Y147000*
X-72800Y155200*
Y159010*
X-84500Y101650D02*
G01X-77210D01*
X-76910Y101950*
X-73760*
X-66540Y109170*
Y125300*
X-61790Y130050*
Y147460*
X-58290Y150960*
Y171590*
X-46450Y183430*
Y183440*
X-45540Y184350*
X15310*
X15900Y183760*
X50260*
X50850Y184350*
X89830*
X98050Y176130*
Y158980*
X104520Y152510*
Y143440*
X97300Y136220*
Y112680*
X104300Y105680*
Y88770*
X96800Y81270*
Y67400*
X106040Y58160*
X107520*
X112740Y52940*
Y31050*
X114510Y29280*
Y27200*
X113100Y25790*
Y-540*
X112340Y-1300*
Y-3380*
X112740Y-3780*
Y-11190*
X105650Y-18280*
Y-37550*
X101430Y-41770*
X70770*
X63190Y-34190*
Y-31010*
X53190D02*
G01Y-36790D01*
X69050Y-52650*
X97900*
X107060Y-43490*
Y-18850*
X117340Y-8570*
Y2140*
X116150Y3330*
Y6570*
X117340Y7760*
Y29410*
X114380Y32370*
Y53280*
X108100Y59560*
X106620*
X98400Y67780*
Y80890*
X105700Y88190*
Y106260*
X98700Y113260*
Y135640*
X105920Y142860*
Y153090*
X99700Y159310*
Y176400*
X99450Y176650*
Y176710*
X90410Y185750*
X50260*
X49670Y185160*
X16480*
X15890Y185750*
X-55600*
X-67950Y173400*
Y167880*
X-67900Y167830*
Y166170*
X-67950Y166120*
Y152330*
X-63200Y147580*
Y130620*
X-69770Y124050*
Y115000*
X-68600Y113830*
Y112170*
X-71550Y109220*
Y107800*
X-72180Y107170*
Y106320*
X-73350Y105150*
X-75620*
X-75920Y104850*
X-82350*
X-80650Y107400D02*
G01X-76770D01*
X-75550Y108620*
Y121400*
X-80400Y126250*
Y126270*
X-80700Y126570*
Y128230*
X-80400Y128530*
Y144660*
X-80150Y144910*
Y148900*
X-77450Y151600*
Y170450*
X-60750Y187150*
X16470*
X17060Y186560*
X49090*
X49680Y187150*
X90990*
X100850Y177290*
Y177230*
X101100Y176980*
Y159890*
X107320Y153670*
Y142280*
X100700Y135660*
Y113240*
X107100Y106840*
Y87610*
X100700Y81210*
Y67460*
X107200Y60960*
X108680*
X115970Y53670*
Y33680*
X119700Y29950*
Y8140*
X117550Y5990*
Y3910*
X119700Y1760*
Y-8190*
X108460Y-19430*
Y-44070*
X98480Y-54050*
X66450*
X63550Y-56950*
X55450*
X51800Y-53300*
Y-43050*
X43190Y-34440*
Y-31010*
X-58400Y79050D02*
G01Y80800D01*
X-57200Y82000*
Y98650*
X-52450Y103400*
Y143700*
X-45150Y151000*
X-33650*
X-27500Y157150*
Y165650*
X-29300Y167450*
Y178050*
X-20480Y-41850D02*
G01X-19980Y-42350D01*
X-18320*
X-17820Y-41850*
Y-41850D02*
G01X-20480D01*
X-17820D02*
G01X-2150D01*
X-500Y-43500*
X11250*
X-14900Y-14850D02*
G01X-14000Y-15750D01*
X-10110*
X-8310Y-13950*
X2750*
X6250Y-17450*
X68000*
X76750Y-8700*
Y-1300*
X71070Y4380*
Y20420*
X75600Y24950*
Y28900*
X82350Y35650*
Y43600*
X85900Y47150*
X93850*
X94370Y47670*
X-30990Y125450D02*
G01X-28420Y128020D01*
X-25480*
X-21300Y132200*
Y137900*
X-6600Y152600*
X3800*
X5450Y154250*
Y165950*
X13730Y174230*
X19300*
X116620Y67180D02*
G01Y121230D01*
X110540Y136260D02*
G01X111050Y135750D01*
Y120300*
X113570Y117780*
Y103080*
X116620Y121230D02*
G01X127380D01*
X140450Y134300*
X110540Y136260D02*
G01Y140690D01*
X125800Y155950*
X135450*
X136100Y156600*
X134450Y125200D02*
G01Y125050D01*
X126050Y116650*
Y86850*
X162050Y24050D02*
G01X162900D01*
X166300Y27450*
Y44050*
X163450Y46900*
Y76150*
M02*
