G04 ================== begin FILE IDENTIFICATION RECORD ==================*
G04 Layout Name:  F:/prj/I.MX/I.MX233/idmx2-13-07/pcb/idmx1307pcb_46-0-49-152.brd*
G04 Film Name:    4Signal2*
G04 File Format:  Gerber RS274X*
G04 File Origin:  15.5-p006*
G04 Origin Date:  Thu Mar 06 11:04:17 2014*
G04 ================== end FILE IDENTIFICATION RECORD ====================*
%FSLAX55Y55*MOIN*%
%IR0*IPPOS*OFA0.00000B0.00000*MIA0B0*SFA1.00000B1.00000*%
%ADD19C,.15*%
%ADD24O,.1024X.0709*%
%ADD21C,.1492*%
%ADD25C,.1575*%
%ADD10C,.1496*%
%ADD22O,.1181X.0787*%
%ADD23O,.0787X.1181*%
%ADD16C,.02*%
%ADD15C,.03*%
%ADD14C,.06*%
%ADD20C,.025*%
%ADD18C,.07*%
%ADD13C,.045*%
%ADD27C,.0354*%
%ADD12R,.06X.06*%
%ADD17R,.07X.07*%
%ADD26C,.0866*%
%ADD11C,.0598*%
%ADD28C,.005*%
%ADD29C,.008*%
%ADD30C,.0324*%
%ADD31C,.0424*%
%ADD32C,.0724*%
G75*
%LPD*%
G75*
G36*
G01X-112700Y108320D02*
Y98450D01*
X-106650Y92400D01*
X-69700D01*
X-68200Y93900D01*
X-66050D01*
X-63750Y91600D01*
Y86400D01*
X-65400Y84750D01*
X-67850D01*
X-69300Y86200D01*
X-109200D01*
X-119950Y96950D01*
Y128400D01*
X-127750Y136200D01*
X-135650D01*
X-137350Y137900D01*
Y146500D01*
X-136300Y147550D01*
X-134450D01*
X-131550Y144650D01*
X-120450D01*
X-112650Y136850D01*
Y135150D01*
X-112700Y135100D01*
Y110700D01*
X-112760Y110640D01*
G03Y108380I1160J-1130D01*
G01X-112700Y108320D01*
G37*
%LPC*%
G75*
G54D30*
X-134250Y143470D03*
Y139600D03*
X-66900Y90950D03*
X-66800Y87250D03*
%LPD*%
G75*
G36*
G01X25500Y-5600D02*
X18700Y200D01*
X18080Y770D01*
G02X18190Y1430I271J294D01*
G03X16010Y3430I-641J1489D01*
G02X15360Y3260I-379J122D01*
G01X15100Y3500D01*
X13250Y5050D01*
X11850Y5150D01*
X9250Y5900D01*
Y30050D01*
X10510Y31310D01*
X10610D01*
X14960Y35660D01*
Y37860D01*
X16910Y39810D01*
X16930Y39820D01*
G03X17680Y40570I-1179J1929D01*
G01X17690Y40590D01*
X20750Y43650D01*
Y108660D01*
G02X21300Y109030I399J0D01*
G03X20660Y111600I588J1511D01*
G02X19960Y111860I-302J260D01*
G01Y114410D01*
X20250Y114700D01*
X34640D01*
Y109310D01*
X34570Y109250D01*
G03X35910Y106410I1030J-1250D01*
G02X36390Y106020I82J-390D01*
G01Y105590D01*
X34990Y104190D01*
Y73190D01*
X32110Y70310D01*
X31630D01*
Y70570D01*
X31660Y70620D01*
G03X28750Y71030I-1360J880D01*
G02X28360Y70510I-381J-121D01*
G03X26700Y66650I-62J-2260D01*
G01X27560Y65790D01*
X33990D01*
X39510Y71310D01*
Y102310D01*
X40910Y103710D01*
Y109140D01*
X39160Y110890D01*
Y115490D01*
G02X39600Y115890I402J0D01*
G03Y119110I161J1610D01*
G02X39160Y119510I-38J400D01*
G01Y125440D01*
X36840Y127760D01*
X36870Y127870D01*
G03X36960Y128490I-2168J631D01*
G01Y135430D01*
X34230Y138160D01*
X34380Y138690D01*
X34510Y138710D01*
G03X35550Y142450I-301J2098D01*
G01X35450Y142530D01*
X37800Y150950D01*
X90600Y150200D01*
X90800Y111400D01*
X90840Y105490D01*
X90710Y105440D01*
G03X90800Y92570I2457J-6418D01*
G01X90930Y92520D01*
X91150Y62250D01*
X91700Y54500D01*
X101450Y51200D01*
Y2950D01*
X101100Y-1100D01*
X98350Y-5500D01*
X97320D01*
X97260Y-5460D01*
G03X89060Y-5470I-4093J-5519D01*
G01X89010Y-5510D01*
X84760Y-5520D01*
Y-3810D01*
G02X85320Y-3440I402J0D01*
G03Y-460I632J1490D01*
G02X84760Y-90I-158J370D01*
G01Y28220D01*
X83860Y29120D01*
X83870Y29210D01*
G03X82340Y27680I-1619J89D01*
G01X82430Y27690D01*
X82740Y27380D01*
Y22500D01*
G02X82060Y22220I-398J0D01*
G01X79910Y24370D01*
X79920Y24460D01*
G03X77270Y25800I-1618J90D01*
G02X76610Y26100I-262J300D01*
G01Y28480D01*
X83360Y35230D01*
Y43180D01*
X86320Y46140D01*
X93840D01*
X93870Y46130D01*
G03X92870Y48280I500J1540D01*
G01X92820Y48160D01*
X85480D01*
X81340Y44020D01*
Y36070D01*
X79670Y34400D01*
G02X79000Y34620I-276J289D01*
G03X75780Y34260I-1600J-270D01*
G01X75790Y34170D01*
X65190Y23570D01*
Y-1780D01*
X61420Y-5550D01*
X37400Y-5580D01*
G02X37080Y-4940I0J400D01*
G03X34520I-1280J991D01*
G02X34200Y-5590I-320J-246D01*
G01X25500Y-5600D01*
G37*
%LPC*%
G75*
G36*
G01X68030Y122380D02*
G02X67970Y124300I-1331J919D01*
G03X68620Y124320I318J248D01*
G02X68680Y122400I1331J-919D01*
G03X68030Y122380I-318J-248D01*
G37*
G36*
G01X53260Y110130D02*
G02X51900Y110870I-1360J-880D01*
G03X52240Y111490I8J399D01*
G02X53600Y110750I1360J880D01*
G03X53260Y110130I-8J-399D01*
G37*
G36*
G01X48470Y102880D02*
G02X47240Y104420I-1619J-32D01*
G03X47730Y104820I90J390D01*
G02X48960Y103280I1619J32D01*
G03X48470Y102880I-90J-390D01*
G37*
G36*
G01X60660Y53800D02*
G02X58740I-960J-1302D01*
G03Y54450I-238J325D01*
G02X60660I960J1302D01*
G03Y53800I238J-325D01*
G37*
G36*
G01X51340Y39170D02*
G02Y40630I-1438J730D01*
G03X52060I360J192D01*
G02X54850Y40800I1445J-731D01*
G03X55530Y40830I331J222D01*
G02X55600Y39150I1420J-782D01*
G03X54920Y39120I-331J-222D01*
G02X52060Y39170I-1417J782D01*
G03X51340I-360J-192D01*
G37*
G36*
G01X52010Y31730D02*
G02X51980Y29810I1290J-980D01*
G03X51340Y29820I-324J-232D01*
G02X51370Y31740I-1290J980D01*
G03X52010Y31730I324J232D01*
G37*
G36*
G01X48800Y13090D02*
G02X48630Y15100I-1349J898D01*
G03X49250Y15150I290J272D01*
G02X49420Y13140I1349J-898D01*
G03X48800Y13090I-290J-272D01*
G37*
G36*
G01X32520Y4240D02*
G02X31850Y6290I-2070J458D01*
G03X32490Y6440I268J299D01*
G02X33130Y4490I1509J-585D01*
G03X32520Y4240I-218J-338D01*
G37*
G54D30*
X55600Y125850D03*
X45470Y124850D03*
X73620Y123400D03*
X44450Y120850D03*
X65150Y112050D03*
X61250D03*
X25600Y110350D03*
X47100Y109750D03*
X76300Y105250D03*
X56900Y105150D03*
X44350Y96700D03*
X48650Y55200D03*
X40900Y54750D03*
X76300Y40650D03*
X20950Y35150D03*
X42600Y30600D03*
X46250Y30500D03*
X38750D03*
X46650Y23000D03*
X42400Y20590D03*
X20510Y19860D03*
X47700Y18590D03*
X43450Y11990D03*
X35750Y9500D03*
X17550Y6790D03*
X90050Y6450D03*
G54D31*
X59060Y140960D03*
X74010Y140760D03*
X83610Y140410D03*
X44090D03*
X81350Y69850D03*
X20450Y27900D03*
X19500Y15100D03*
X98430Y7920D03*
X92240Y2610D03*
%LPD*%
G75*
G36*
G01X124450Y-61600D02*
X113750Y-50900D01*
Y-24200D01*
X127700Y-10250D01*
Y43550D01*
X132000Y47850D01*
Y48500D01*
X138750Y55250D01*
X158150D01*
X162440Y50960D01*
Y46480D01*
X165290Y43630D01*
Y27870D01*
X164580Y27160D01*
X164340Y27400D01*
X164400Y27530D01*
G03X163060Y26630I-1454J717D01*
G02X163370Y25950I30J-397D01*
G01X162870Y25450D01*
X162750Y25510D01*
G03X163300Y23020I-700J-1460D01*
G01X163310Y23030D01*
X167310Y27030D01*
Y44470D01*
X164460Y47320D01*
Y47970D01*
G02X165140Y48260I402J0D01*
G01X169350Y44050D01*
Y40050D01*
X172660Y36740D01*
G02X172590Y36120I-288J-281D01*
G03X174820Y33890I857J-1373D01*
G02X175440Y33960I339J-218D01*
G01X177710Y31690D01*
X177720Y31650D01*
G03X178690Y30030I3483J985D01*
G01X178750Y29970D01*
Y26600D01*
X170950Y18800D01*
Y-43350D01*
X152700Y-61600D01*
X124450D01*
G37*
%LPC*%
G75*
G54D30*
X162950Y37850D03*
X140850Y32900D03*
X163270Y32450D03*
X143750Y29750D03*
X146260Y16660D03*
X142350Y13350D03*
X161400Y-12550D03*
X135130Y-12630D03*
X154250Y-12650D03*
X128250Y-12800D03*
G54D31*
X138670Y45600D03*
X134020D03*
X150080Y40640D03*
X145430D03*
X164830Y14420D03*
X164400Y-130D03*
X139000Y-560D03*
G54D32*
X153040Y-36320D03*
X143040D03*
X133040D03*
X123040D03*
X148040Y-46320D03*
X138040D03*
X128040D03*
X118040D03*
%LPD*%
G75*
G54D10*
X-183070Y-88590D03*
Y187010D03*
X183070Y-88590D03*
Y187010D03*
G54D11*
X-191850Y-70790D03*
Y-60790D03*
Y-50790D03*
Y-40790D03*
Y-30790D03*
Y-20790D03*
Y-10790D03*
Y-790D03*
Y9210D03*
Y19210D03*
Y29210D03*
Y39210D03*
Y49210D03*
Y59210D03*
Y69210D03*
Y79210D03*
Y89210D03*
Y99210D03*
Y109210D03*
Y119210D03*
Y129210D03*
Y139210D03*
Y149210D03*
Y159210D03*
Y169210D03*
X-181850Y-60790D03*
Y-50790D03*
Y-40790D03*
Y-30790D03*
Y-20790D03*
Y-10790D03*
Y-790D03*
Y9210D03*
Y19210D03*
Y29210D03*
Y39210D03*
Y49210D03*
Y59210D03*
Y69210D03*
Y79210D03*
Y89210D03*
Y99210D03*
Y109210D03*
Y119210D03*
Y129210D03*
Y139210D03*
Y149210D03*
Y159210D03*
Y169210D03*
X-112440Y184040D03*
X19300Y174230D03*
Y191950D03*
X46860Y174230D03*
Y191950D03*
G54D20*
X-111830Y-30980D03*
X-106830Y159020D03*
X93170Y-10980D03*
Y99020D03*
G54D12*
X-181850Y-70790D03*
X-102440Y184040D03*
X171960Y124950D03*
G54D21*
X-76950Y-75120D03*
X-26170D03*
G54D13*
X-171310Y-73390D03*
X-170110Y175420D03*
X183420Y-67380D03*
X185060Y12360D03*
X186940Y166530D03*
G54D22*
X6260Y-80710D03*
G54D14*
X-155550Y-88350D03*
Y-58350D03*
Y-68350D03*
Y-48350D03*
X-92390Y137200D03*
X-76160Y16040D03*
X-73170Y137200D03*
X-56940Y16040D03*
X109460Y-90610D03*
X119460D03*
X118040Y-46320D03*
X128040D03*
X123040Y-36320D03*
X138040Y-46320D03*
X133040Y-36320D03*
X143040D03*
X161660Y-90610D03*
X151660D03*
X148040Y-46320D03*
X153040Y-36320D03*
X171960Y94950D03*
X181200Y32640D03*
Y51860D03*
G54D23*
X6260Y-65750D03*
G54D15*
X-157950Y26450D03*
X-147050Y-30750D03*
X-136850Y28550D03*
X-141600Y149050D03*
X-149700Y185100D03*
X-144600D03*
X-126260Y-13350D03*
X-132000Y-23200D03*
X-131400Y23300D03*
X-118750Y14450D03*
X-129950Y92900D03*
X-120050Y161750D03*
X-122050Y169050D03*
X-114150Y31550D03*
X-109900Y123900D03*
X-104850Y147900D03*
X-114900Y173550D03*
X-98250Y-33450D03*
X-87200Y16400D03*
X-87690Y179840D03*
X-71480Y-58480D03*
X-66550Y16550D03*
X-73250Y29950D03*
X-76250Y55700D03*
X-82650Y145950D03*
X-72600Y179750D03*
X-64240Y-86460D03*
X-55250Y-9650D03*
X-65750Y30150D03*
X-65150Y44690D03*
X-59570Y36040D03*
X-49100Y55000D03*
X-56600Y71550D03*
X-59020Y66430D03*
X-64360Y100010D03*
X-57900Y179300D03*
X-41440Y-93210D03*
X-34650Y-7700D03*
X-44900Y39100D03*
X-45300Y27740D03*
X-33000Y52300D03*
X-39050Y78900D03*
X-33350Y68050D03*
X-48250Y78750D03*
X-39840Y87960D03*
X-43450Y173400D03*
X-19300Y-62950D03*
X-23250Y-44850D03*
X-29800Y10950D03*
X-29050Y15300D03*
X-30800Y41350D03*
X-14690Y178860D03*
X-15650Y191700D03*
X-5560Y-45160D03*
X-1850Y-20950D03*
X9890Y-52490D03*
X15750Y11200D03*
X19500Y15100D03*
X20450Y27900D03*
X7950Y154600D03*
X36860Y2540D03*
X30450Y4700D03*
X34210Y140810D03*
X41200Y4000D03*
X51150Y35700D03*
X47350Y148290D03*
X44090Y140410D03*
X59520Y-76820D03*
X60570Y-53620D03*
X64200Y148840D03*
X59060Y140960D03*
X90700Y-66000D03*
X86770Y75930D03*
X81350Y69850D03*
X80050Y88350D03*
Y81300D03*
X83610Y140410D03*
X74010Y140760D03*
X92400Y-91390D03*
X96830Y-72470D03*
X95680Y-47280D03*
X98430Y7920D03*
X92240Y2610D03*
X96850Y148000D03*
X103610Y165140D03*
X117400Y-16550D03*
X114840Y-2340D03*
X120050Y4950D03*
X110600Y20050D03*
X112010Y28240D03*
X119500Y108950D03*
X110540Y136260D03*
X121450Y163850D03*
X110540Y164540D03*
X139000Y-560D03*
X138670Y45600D03*
X134020D03*
X140950Y65300D03*
X133200Y102340D03*
X136100Y156600D03*
X150110Y-25660D03*
X151900Y13500D03*
X150080Y40640D03*
X145430D03*
X151900Y49100D03*
X159300Y54800D03*
X150570Y67070D03*
X157400Y97350D03*
X144770Y130020D03*
X173750Y-8300D03*
X164400Y-130D03*
X164830Y14420D03*
X176200Y27950D03*
X172980Y53820D03*
X175560Y69990D03*
X161980Y114270D03*
X168080Y116390D03*
X170420Y142130D03*
X184550Y-42900D03*
X186860Y-18260D03*
X186070Y128820D03*
G54D24*
X37710Y-83860D03*
Y-61810D03*
X45590Y-93700D03*
Y-69290D03*
Y-47250D03*
X72390Y-83860D03*
Y-61810D03*
X80270Y-93700D03*
Y-69290D03*
Y-47250D03*
G54D16*
G01X-34800Y62400D02*
X-37850Y65450D01*
X-46000D01*
X-49700Y61750D01*
X-68150D01*
X-70550Y64150D01*
X-73350D01*
X-160350Y101450D03*
X-167580Y116580D03*
X-140500Y167000D03*
X-128750Y32100D03*
X-123450Y55650D03*
X-122250Y88850D03*
X-125050Y91400D03*
X-134250Y139600D03*
Y143470D03*
X-124450Y135000D03*
X-116650Y21300D03*
X-115500Y40800D03*
X-101550Y45280D03*
Y49600D03*
X-110300Y56300D03*
X-110400Y50250D03*
X-110250Y59250D03*
X-117050Y70850D03*
X-116300Y62500D03*
X-102350Y80100D03*
X-111600Y109510D03*
X-104390Y106310D03*
X-108800Y116000D03*
X-118400Y166350D03*
X-87740Y-19240D03*
X-101250Y6750D03*
X-97800Y17250D03*
X-100400Y29350D03*
X-87650Y30200D03*
X-96600Y28250D03*
X-84650Y43600D03*
X-92050Y29900D03*
X-92150Y44450D03*
X-101350Y36150D03*
X-97050Y46820D03*
X-88200Y46550D03*
X-98650Y79350D03*
X-95800Y77400D03*
X-89200Y67450D03*
X-92250Y95850D03*
X-100870Y100070D03*
X-87300Y113950D03*
X-95680Y108690D03*
X-90200Y104250D03*
X-88050Y108350D03*
X-93200Y101250D03*
X-90600Y99150D03*
X-85800Y98650D03*
X-87850Y100750D03*
X-84500Y101650D03*
X-87150Y127750D03*
X-96560Y115990D03*
X-78450Y43450D03*
X-83700Y30800D03*
X-71950Y40150D03*
X-81550Y43800D03*
X-79700Y30000D03*
X-71450Y45650D03*
X-73350Y64150D03*
X-67550Y79250D03*
X-71360Y78960D03*
X-66800Y87250D03*
X-66900Y90950D03*
X-70600Y113000D03*
X-80700Y112950D03*
X-74180Y107150D03*
X-82350Y104850D03*
X-77550Y109450D03*
X-80650Y107400D03*
X-74510Y127260D03*
X-78700Y127400D03*
X-63950Y-28400D03*
X-56200Y-15660D03*
X-60350Y-19450D03*
X-62650Y-13050D03*
X-58400Y79050D03*
X-62460Y77650D03*
X-52900Y92700D03*
X-53850Y84550D03*
X-64900Y106950D03*
X-59350Y123650D03*
X-50100Y126250D03*
X-54450Y124850D03*
X-59150Y119100D03*
X-61060Y167390D03*
X-32750Y9300D03*
X-47250Y-2850D03*
X-31910Y16710D03*
X-42810Y24590D03*
X-43050Y42850D03*
X-42350Y36750D03*
X-32880Y47050D03*
X-34800Y62400D03*
X-42710Y62350D03*
X-31700Y87800D03*
X-32300Y84000D03*
X-35350Y80450D03*
X-47300Y134050D03*
X-48500Y138250D03*
X-33020Y175320D03*
X-14900Y-14850D03*
X-19100Y-17600D03*
Y9110D03*
X-22800Y8950D03*
X-21150Y3550D03*
X-21100Y11550D03*
X-25250Y12250D03*
X-25330Y25350D03*
X-21300Y23350D03*
X-18100Y29350D03*
X-19700Y34350D03*
X-18950Y42150D03*
X-30350Y37190D03*
X-23800Y28600D03*
X-25410Y36050D03*
X-25000Y31650D03*
X-15000Y38550D03*
X-18300Y36950D03*
X-17100Y46900D03*
X-23240Y46710D03*
X-30250Y45500D03*
X-31250Y63400D03*
X-16650Y65100D03*
X-15300Y76650D03*
X-20600Y87800D03*
X-23300Y84950D03*
X-25750Y80250D03*
X-28450Y96600D03*
X-20850Y111250D03*
X-19700Y122900D03*
X-22850Y126000D03*
X-20900Y142750D03*
X-29300Y178050D03*
X-1750Y-37500D03*
X-11400Y-25650D03*
X-11350Y-12050D03*
X-8800Y-21000D03*
X2050Y8600D03*
X-5350Y800D03*
X-8400Y3200D03*
X-13000Y3050D03*
X1100Y-3050D03*
X-2200Y21500D03*
X-8350Y20450D03*
X-11900Y20150D03*
X-3000Y13700D03*
X-600Y15700D03*
X2450Y18900D03*
X-7500Y41300D03*
X-10250Y49400D03*
X3300Y63250D03*
X-10550Y62100D03*
X-850Y64550D03*
X-5000Y90700D03*
X-12850Y79700D03*
X-3800Y100700D03*
X-2700Y121800D03*
X1450Y137400D03*
X500Y142000D03*
X-7800Y136000D03*
X11250Y-43500D03*
X19000Y-40300D03*
X12300Y-1200D03*
X14800Y-3610D03*
X17550Y6790D03*
Y2920D03*
X4500Y11900D03*
X20510Y19860D03*
X7550Y38400D03*
X15750Y41750D03*
X5650Y28050D03*
X18250Y45950D03*
X8730Y112800D03*
X6450Y107950D03*
X11700Y97850D03*
X13050Y114300D03*
X10730Y125400D03*
X16350Y138650D03*
X19450Y146800D03*
X9640Y146750D03*
X6100Y144200D03*
X9650Y150300D03*
X35800Y-3950D03*
X22110Y-6550D03*
X34000Y5850D03*
X35750Y9500D03*
X20950Y35150D03*
X30300Y71500D03*
X28300Y68250D03*
X30110Y91940D03*
X25600Y110350D03*
X21890Y110540D03*
X35600Y108000D03*
X21850Y120700D03*
X22430Y146900D03*
X23050Y150050D03*
X47700Y18590D03*
X42400Y20590D03*
X50600Y14250D03*
X47450Y13990D03*
X46650Y23000D03*
X43450Y11990D03*
X53500Y39900D03*
X49900D03*
X38750Y30500D03*
X46250D03*
X53300Y30750D03*
X42600Y30600D03*
X50050Y30800D03*
X40900Y54750D03*
X48650Y55200D03*
X40100Y91750D03*
X44350Y96700D03*
X49350Y104850D03*
X46850Y102850D03*
X47100Y109750D03*
X51900Y109250D03*
X53600Y112370D03*
X44450Y120850D03*
X39750Y117500D03*
X45470Y124850D03*
X55600Y125850D03*
X49850Y138950D03*
X64950Y-12400D03*
X71800Y-7450D03*
X73150Y26250D03*
X56950Y40050D03*
X59700Y55750D03*
Y52500D03*
X60600Y78600D03*
X65150Y112050D03*
X56900Y105150D03*
X61250Y112050D03*
X69950Y123400D03*
X66700Y123300D03*
X65350Y139400D03*
X90050Y6450D03*
X85950Y-1950D03*
X73650Y7700D03*
X74750Y-3850D03*
X78300Y24550D03*
X78850Y14950D03*
X75500Y14850D03*
X77400Y34350D03*
X76300Y40650D03*
X82250Y29300D03*
X76300Y105250D03*
X73620Y123400D03*
X94370Y47670D03*
X107050Y48900D03*
X105580Y115820D03*
X120660Y-21360D03*
X124700Y57800D03*
X116620Y67180D03*
X110450Y66650D03*
X113570Y103080D03*
X116250Y125300D03*
X116620Y121230D03*
X142740Y-13090D03*
X135130Y-12630D03*
X128250Y-12800D03*
X142350Y13350D03*
X140850Y32900D03*
X127950Y48750D03*
X141650Y52550D03*
X126050Y86850D03*
X132350Y130300D03*
X134150Y121150D03*
X134450Y125200D03*
X140450Y134300D03*
X154250Y-12650D03*
X144330Y26180D03*
X146260Y16660D03*
X143750Y29750D03*
X150450Y83200D03*
X145700Y122550D03*
X154470Y129670D03*
X149250Y134750D03*
X153500Y145150D03*
X168080Y-13020D03*
X161400Y-12550D03*
X162050Y24050D03*
X173450Y34750D03*
X162950Y37850D03*
Y28250D03*
X163270Y32450D03*
X163450Y76150D03*
X162400Y132100D03*
G54D25*
X113040Y-71320D03*
X158080D03*
G54D26*
X105050Y-59310D03*
X166070D03*
G54D17*
X-166310Y123800D03*
X-138090Y127720D03*
X-64910Y-66460D03*
X-56840Y-31010D03*
X-30990Y105450D03*
X-2800Y159010D03*
X83190Y-31010D03*
Y159060D03*
G54D27*
X119960Y182480D03*
X151260D03*
G54D18*
X-166310Y133800D03*
Y143800D03*
X-138090Y97720D03*
Y107720D03*
Y117720D03*
X-82800Y159010D03*
X-92800D03*
X-72800D03*
X-47030Y-66460D03*
X-54910D03*
X-46840Y-31010D03*
X-52800Y159010D03*
X-62800D03*
X-37030Y-66460D03*
X-36840Y-31010D03*
X-30990Y115450D03*
X-40990D03*
Y105450D03*
X-30990Y125450D03*
X-40990D03*
X-32800Y159010D03*
X-42800D03*
X-26840Y-31010D03*
X-16840D03*
X-12800Y159010D03*
X-22800D03*
X-6840Y-31010D03*
X3160D03*
X13160D03*
X23190Y159060D03*
X13190D03*
X33190Y-31010D03*
Y159060D03*
X53190Y-31010D03*
X43190D03*
X53190Y159060D03*
X43190D03*
X73190Y-31010D03*
X63190D03*
X73190Y159060D03*
X63190D03*
G54D28*
G01X-3800Y100700D02*
Y92120D01*
X-3150Y91470D01*
Y89930D01*
X-3800Y89280D01*
Y58250D01*
X-1810Y56260D01*
X1760Y59840D01*
X3180Y58420D01*
X-390Y54840D01*
X2700Y51750D01*
Y48480D01*
X-1500Y44280D01*
Y40100D01*
X-2930Y38670D01*
X-2260Y38000D01*
X-3680Y36580D01*
X-4350Y37250D01*
X-11900Y29700D01*
Y27700D01*
X-15900D01*
Y25700D01*
X-11900D01*
Y20150D01*
G01X-12850Y79700D02*
Y77850D01*
X-11250D01*
Y75850D01*
X-12850D01*
Y73850D01*
X-12450Y73450D01*
Y71450D01*
X-12700Y71200D01*
Y66810D01*
X-12000Y66110D01*
Y63580D01*
X-12700Y62880D01*
Y49330D01*
X-12350Y48980D01*
Y37150D01*
X-16200Y33300D01*
X-16980D01*
X-20450Y29830D01*
Y27010D01*
X-18450Y25010D01*
Y23910D01*
X-19010Y23350D01*
X-21300D01*
G01X-2700Y121800D02*
X-3100Y121400D01*
Y111250D01*
X-5800Y108550D01*
Y92520D01*
X-6850Y91470D01*
Y89930D01*
X-5800Y88880D01*
Y56850D01*
X-4950Y56000D01*
Y53470D01*
X-1850D01*
Y51470D01*
X-4950D01*
Y49470D01*
X-1850D01*
Y47470D01*
X-4950D01*
Y40550D01*
X-14200Y31300D01*
X-16150D01*
X-18100Y29350D01*
G01X9640Y146750D02*
X-3910D01*
X-5910Y144750D01*
X-5930D01*
X-8530Y142150D01*
Y142130D01*
X-12050Y138610D01*
Y133820D01*
X-12210Y133660D01*
Y130460D01*
X-12050Y130300D01*
Y118050D01*
X-14700Y115400D01*
Y83930D01*
X-17300Y81330D01*
Y75820D01*
X-14850Y73370D01*
Y71880D01*
X-14900Y71830D01*
Y67150D01*
X-14700Y66950D01*
Y65980D01*
X-14000Y65280D01*
Y64410D01*
X-14700Y63710D01*
Y63400D01*
X-15000Y63100D01*
Y48800D01*
X-14350Y48150D01*
Y40820D01*
X-15000Y40170D01*
Y38550D01*
G01X-16650Y65100D02*
X-17100Y65550D01*
Y72790D01*
X-19300Y74990D01*
Y82160D01*
X-16700Y84760D01*
Y120760D01*
X-14050D01*
Y122760D01*
X-16700D01*
Y124760D01*
X-14050D01*
Y126760D01*
X-16700D01*
Y128760D01*
X-14050D01*
Y129470D01*
X-14210Y129630D01*
Y130760D01*
X-16700D01*
Y132760D01*
X-14210D01*
Y134490D01*
X-14050Y134650D01*
Y134760D01*
X-16700D01*
Y136790D01*
X-10530Y142960D01*
Y142980D01*
X-6760Y146750D01*
X-6750D01*
X-4150Y149350D01*
X8700D01*
X9650Y150300D01*
G01X6100Y144200D02*
X-3630D01*
X-10050Y137780D01*
Y132990D01*
X-10210Y132830D01*
Y131290D01*
X-10050Y131130D01*
Y116910D01*
X-12700Y114260D01*
Y83100D01*
X-15300Y80500D01*
Y76650D01*
G01X-20600Y87800D02*
X-19990D01*
X-18850Y88940D01*
Y122050D01*
X-19700Y122900D01*
G01X-23300Y84950D02*
Y88950D01*
X-22100Y90150D01*
X-22020D01*
X-20850Y91320D01*
Y111250D01*
G01X-22850Y126000D02*
Y124150D01*
X-25350D01*
Y122150D01*
X-22850D01*
Y120150D01*
X-25350D01*
Y118150D01*
X-22850D01*
Y116150D01*
X-25350D01*
Y114150D01*
X-22850D01*
Y112150D01*
X-25350D01*
Y110150D01*
X-22850D01*
Y108150D01*
X-25350D01*
Y106150D01*
X-22850D01*
Y104150D01*
X-25350D01*
Y102150D01*
X-22850D01*
Y100150D01*
X-25350D01*
Y98150D01*
X-22850D01*
Y96150D01*
X-25350D01*
Y94150D01*
X-22850D01*
Y92150D01*
X-24100D01*
X-25350Y90900D01*
Y88500D01*
X-25750Y88100D01*
Y80250D01*
G01X8730Y112800D02*
Y103920D01*
X7640Y102830D01*
Y99740D01*
X7300Y99400D01*
Y61590D01*
X7200Y61490D01*
Y46640D01*
X4650Y44090D01*
Y36750D01*
X-2500Y29600D01*
X-4150D01*
X-5700Y28050D01*
Y25000D01*
X-2200Y21500D01*
G01X-8350Y20450D02*
Y29200D01*
X-5600Y31950D01*
X-4350D01*
X2000Y38300D01*
Y44950D01*
X5200Y48150D01*
Y62320D01*
X5300Y62420D01*
Y100230D01*
X5640Y100570D01*
Y103660D01*
X6450Y104470D01*
Y107950D01*
G01X2450Y18900D02*
Y20750D01*
X6150D01*
Y22750D01*
X2450D01*
Y24750D01*
X-2600D01*
Y26750D01*
X2450D01*
Y29550D01*
X4200Y31250D01*
X3330Y32120D01*
X4750Y33540D01*
X5620Y32670D01*
X7040Y34090D01*
X6170Y34960D01*
X7590Y36380D01*
X8460Y35510D01*
X10700Y37750D01*
Y44480D01*
X11700Y45480D01*
Y97850D01*
G01X500Y142000D02*
X-3000D01*
X-5100Y139900D01*
Y136080D01*
X-5950D01*
Y134080D01*
X-5100D01*
Y132080D01*
X-5950D01*
Y130080D01*
X-5100D01*
Y128080D01*
X-5950D01*
Y126080D01*
X-5100D01*
Y124080D01*
X-5950D01*
Y122080D01*
X-5100D01*
Y120080D01*
X-5950D01*
Y118080D01*
X-5100D01*
Y116080D01*
X-5950D01*
Y114080D01*
X-5100D01*
Y112080D01*
X-7800Y109380D01*
Y107340D01*
X-9050D01*
Y105340D01*
X-7800D01*
Y103340D01*
X-9050D01*
Y101340D01*
X-7800D01*
Y99340D01*
X-9050D01*
Y97340D01*
X-7800D01*
Y95340D01*
X-9050D01*
Y93340D01*
X-7810D01*
X-8850Y92300D01*
Y91340D01*
X-9050D01*
Y89340D01*
X-8850D01*
Y89100D01*
X-7800Y88050D01*
Y87340D01*
X-9050D01*
Y85340D01*
X-7800D01*
Y83340D01*
X-9050D01*
Y81340D01*
X-7800D01*
Y79340D01*
X-9050D01*
Y77340D01*
X-7800D01*
Y75340D01*
X-9050D01*
Y73340D01*
X-7800D01*
Y71340D01*
X-9050D01*
Y69340D01*
X-7800D01*
Y67340D01*
X-8430D01*
X-9050Y66720D01*
Y65340D01*
X-7800Y64090D01*
Y48500D01*
X-7790Y48490D01*
Y45170D01*
X-7800Y45160D01*
Y41750D01*
X-7500Y41450D01*
Y41300D01*
G01X-850Y64550D02*
X-500Y64900D01*
Y65000D01*
X600Y66100D01*
Y69130D01*
X-1150D01*
Y71130D01*
X600D01*
Y73130D01*
X-1150D01*
Y75130D01*
X600D01*
Y77130D01*
X-1150D01*
Y79130D01*
X600D01*
Y81130D01*
X-1150D01*
Y83130D01*
X600D01*
Y85130D01*
X-1150D01*
Y87130D01*
X600D01*
Y89130D01*
X-1150D01*
Y91130D01*
X600D01*
Y93130D01*
X-1150D01*
Y95130D01*
X600D01*
Y97130D01*
X-1150D01*
Y99130D01*
X600D01*
Y101130D01*
X-1150D01*
Y103130D01*
X600D01*
Y108550D01*
X-450Y109600D01*
Y115270D01*
X-550Y115370D01*
Y132050D01*
X-2450Y133950D01*
Y137850D01*
X-300Y140000D01*
X7600D01*
X10130Y142530D01*
X12330Y140330D01*
X13750Y141750D01*
X11550Y143950D01*
X12970Y145370D01*
X15170Y143170D01*
X16590Y144590D01*
X14390Y146790D01*
X17650Y150050D01*
X19130D01*
Y152650D01*
X21130D01*
Y150050D01*
X23050D01*
G01X3300Y63250D02*
Y100810D01*
X3400Y100910D01*
Y114250D01*
X1450Y116200D01*
Y118200D01*
X7950D01*
Y120200D01*
X1450D01*
Y122200D01*
X7950D01*
Y124200D01*
X1450D01*
Y129310D01*
X11950D01*
Y131310D01*
X1450D01*
Y133380D01*
X14380D01*
Y135380D01*
X1450D01*
Y137400D01*
G01X7550Y38400D02*
Y44160D01*
X9700Y46310D01*
Y101620D01*
X10730Y102650D01*
Y125400D01*
G01X19450Y146800D02*
Y144500D01*
X25550D01*
Y142500D01*
X19450D01*
Y140500D01*
X25550D01*
Y138500D01*
X19450D01*
Y136500D01*
X25550D01*
Y134500D01*
X19450D01*
Y133190D01*
X15310Y129050D01*
Y127050D01*
X23900D01*
Y125050D01*
X15310D01*
Y121190D01*
X16500D01*
X17500Y120190D01*
Y119190D01*
X15310Y117000D01*
Y114870D01*
X15700Y114480D01*
Y42520D01*
X15750Y42470D01*
Y41750D01*
G01X5650Y28050D02*
Y29650D01*
X9570Y33570D01*
X9670D01*
X12700Y36600D01*
Y43650D01*
X13700Y44650D01*
Y113650D01*
X13050Y114300D01*
G01X21850Y120700D02*
X23250D01*
X23720Y121170D01*
X26770D01*
X29000Y123400D01*
X29700D01*
X30100Y123000D01*
Y119550D01*
X30600Y119050D01*
X31600D01*
X32100Y119550D01*
Y123650D01*
X32600Y124150D01*
X34200D01*
X34800Y123550D01*
Y118150D01*
X33610Y116960D01*
X19310D01*
X17700Y115350D01*
Y106070D01*
X17710Y106060D01*
Y104400D01*
X17700Y104390D01*
Y46500D01*
X18250Y45950D01*
G01X28300Y68250D02*
X28500Y68050D01*
X33050D01*
X37250Y72250D01*
Y103250D01*
X38650Y104650D01*
Y108200D01*
X36900Y109950D01*
Y124500D01*
X34910Y126490D01*
X28950D01*
Y128490D01*
X34700D01*
Y130490D01*
X28950D01*
Y132490D01*
X34700D01*
Y134490D01*
X28950Y140240D01*
Y145550D01*
X27400Y147100D01*
X22630D01*
X22430Y146900D01*
G54D19*
X-113140Y-84180D03*
Y-60560D03*
X-94240Y-72370D03*
G54D29*
G01X-191850Y-60790D02*
Y-60950D01*
X-187300Y-65500D01*
X-164950D01*
X-161900Y-62450D01*
X-137850D01*
X-123060Y-47660D01*
X12940D01*
X16900Y-43700D01*
Y-43600D01*
X19000Y-41500D01*
Y-40300D01*
G01X-1750Y-37500D02*
X-2400Y-38150D01*
X-34920D01*
X-37350Y-40580D01*
X-165380D01*
X-170500Y-45700D01*
X-186550D01*
X-191640Y-50790D01*
X-191850D01*
G01Y-40790D02*
Y-40550D01*
X-187000Y-35700D01*
X-130050D01*
X-117350Y-23000D01*
X-102870D01*
X-100430Y-25440D01*
X-85170D01*
X-84230Y-24500D01*
X-12550D01*
X-11400Y-25650D01*
G01X-191850Y-30790D02*
X-190540D01*
X-186000Y-26250D01*
X-126050D01*
X-118700Y-18900D01*
X-103000D01*
X-100450Y-21450D01*
X-90340D01*
X-89150Y-22640D01*
X-86330D01*
X-85140Y-21450D01*
X-55820D01*
X-55620Y-21650D01*
X-9450D01*
X-8800Y-21000D01*
G01X-191850Y-10790D02*
X-190090D01*
X-185850Y-6550D01*
X-138450D01*
X-135610Y-9390D01*
X-119280D01*
X-116670Y-12000D01*
X-67600D01*
X-64850Y-9250D01*
X-60550D01*
X-57550Y-12250D01*
X-54100D01*
X-50550Y-15800D01*
X-23150D01*
X-21150Y-13800D01*
X-15950D01*
X-14900Y-14850D01*
G01X-19100Y-17600D02*
X-20100Y-18600D01*
X-56090D01*
X-59040Y-15650D01*
X-121700D01*
X-125250Y-19200D01*
X-131150D01*
X-134700Y-15650D01*
X-185500D01*
X-190640Y-20790D01*
X-191850D01*
G01Y-790D02*
Y-750D01*
X-186550Y4550D01*
X-140050D01*
X-130400Y-5100D01*
X-53630D01*
X-45730Y-13000D01*
X-24660D01*
X-21860Y-10200D01*
X-12800D01*
X-11350Y-11650D01*
Y-12050D01*
G01X-5350Y800D02*
X-8600Y-2450D01*
X-18380D01*
X-18580Y-2650D01*
X-23720D01*
X-23920Y-2450D01*
X-34920D01*
X-35160Y-2210D01*
X-42170D01*
X-46680Y2300D01*
X-126350D01*
X-148150Y24100D01*
X-156760D01*
X-156910Y23950D01*
X-158990D01*
X-159140Y24100D01*
X-187000D01*
X-191850Y19250D01*
Y19210D01*
G01X1100Y-3050D02*
Y-5050D01*
X-250Y-6400D01*
X-22800D01*
X-26600Y-10200D01*
X-44500D01*
X-52750Y-1950D01*
X-127550D01*
X-143650Y14150D01*
X-186800D01*
X-191740Y9210D01*
X-191850D01*
G01X-101250Y6750D02*
X-101600Y6400D01*
X-123500D01*
X-149150Y32050D01*
X-175250D01*
X-177450Y34250D01*
X-186810D01*
X-191850Y29210D01*
G01X77400Y34350D02*
X66200Y23150D01*
Y-2200D01*
X58550Y-9850D01*
X13450D01*
X-1950Y5550D01*
X-12190D01*
X-12370Y5370D01*
X-14580D01*
X-17950Y2000D01*
X-19870D01*
X-20320Y1550D01*
X-21980D01*
X-22430Y2000D01*
X-33430D01*
X-33580Y2150D01*
X-40000D01*
X-44490Y6640D01*
X-91390D01*
X-95950Y11200D01*
X-107400D01*
X-115110Y18910D01*
X-120240D01*
X-144830Y43500D01*
X-187400D01*
X-191690Y39210D01*
X-191850D01*
G01X12300Y-1200D02*
X7200D01*
X-3700Y9700D01*
X-10330D01*
X-10430Y9800D01*
X-13500D01*
X-17750Y5550D01*
X-21980D01*
X-22380Y5150D01*
X-37750D01*
X-42050Y9450D01*
X-79380D01*
X-81350Y11420D01*
X-91070D01*
X-94600Y14950D01*
X-105070D01*
X-138930Y48810D01*
X-174490D01*
X-179630Y53950D01*
X-186750D01*
X-191490Y49210D01*
X-191850D01*
G01X-25410Y36050D02*
X-26250D01*
X-27500Y34800D01*
X-41470D01*
X-41520Y34750D01*
X-43180D01*
X-44190Y35760D01*
X-50710D01*
X-54000Y39050D01*
X-60100D01*
X-62310Y36840D01*
X-97190D01*
X-99450Y39100D01*
X-110850D01*
X-124830Y53080D01*
X-164880D01*
X-175550Y63750D01*
X-186500D01*
X-186650Y63900D01*
X-191340Y59210D01*
X-191850D01*
G01X-71950Y40150D02*
X-73400Y38700D01*
X-76410D01*
X-76460Y38650D01*
X-80440D01*
X-80490Y38700D01*
X-96700D01*
X-99380Y41380D01*
X-105480D01*
X-121950Y57850D01*
X-162470D01*
X-178670Y74050D01*
X-187150D01*
X-191850Y69350D01*
Y69210D01*
G01X-101550Y49600D02*
X-106250Y54300D01*
X-113870D01*
X-120270Y60700D01*
X-159000D01*
X-177860Y79560D01*
Y80870D01*
X-180690Y83700D01*
X-187450D01*
X-191850Y79300D01*
Y79210D01*
G01X-116300Y62500D02*
X-118100Y64300D01*
X-146700D01*
X-146750Y64250D01*
X-149950D01*
X-176550Y90850D01*
X-176650D01*
X-179950Y94150D01*
X-186910D01*
X-191850Y89210D01*
G01Y99210D02*
Y99350D01*
X-186950Y104250D01*
X-177800D01*
X-142150Y68600D01*
X-116550D01*
X-107000Y59050D01*
X-106950D01*
X-97050Y49150D01*
Y46820D01*
G01X-191850Y109210D02*
X-191590D01*
X-187050Y113750D01*
X-178900D01*
X-169600Y104450D01*
X-169300D01*
X-147300Y82450D01*
X-147250D01*
X-137900Y73100D01*
X-116400D01*
X-105200Y61900D01*
Y60100D01*
X-99150Y54050D01*
Y53430D01*
X-97980Y52260D01*
X-97460D01*
X-92150Y46950D01*
Y44450D01*
G01X-84650Y43600D02*
Y47370D01*
X-114770Y77490D01*
X-135510D01*
X-158350Y100330D01*
Y102280D01*
X-174700Y118630D01*
Y119500D01*
X-179450Y124250D01*
X-185950D01*
X-190990Y119210D01*
X-191850D01*
G01Y129210D02*
Y129250D01*
X-186700Y134400D01*
X-178900D01*
X-175300Y130800D01*
Y122320D01*
X-169580Y116600D01*
Y115490D01*
X-156950Y102860D01*
Y100910D01*
X-134930Y78890D01*
X-114190D01*
X-92720Y57420D01*
X-92070D01*
X-81550Y46900D01*
Y43800D01*
G01X-20480Y-41850D02*
X-26050D01*
X-29480Y-45280D01*
X-125830D01*
X-134050Y-53500D01*
X-137750D01*
X-138150Y-53100D01*
X-160600D01*
X-168290Y-60790D01*
X-181850D01*
G01Y-50790D02*
X-170990D01*
X-164080Y-43880D01*
X-33930D01*
X-30300Y-40250D01*
X13530D01*
X26930Y-26850D01*
X30970D01*
X31320Y-26500D01*
X72200D01*
X83750Y-14950D01*
Y27800D01*
X82250Y29300D01*
G01X78300Y24550D02*
X82350Y20500D01*
Y-11030D01*
X80260Y-13120D01*
Y-16370D01*
X71530Y-25100D01*
X30740D01*
X30390Y-25450D01*
X26350D01*
X18900Y-32900D01*
X18850D01*
X13800Y-37950D01*
X2550D01*
X-950Y-34450D01*
X-2900D01*
X-4550Y-36100D01*
X-36200D01*
X-39000Y-38900D01*
X-167400D01*
X-169290Y-40790D01*
X-181850D01*
G01Y-30790D02*
X-179960D01*
X-177000Y-33750D01*
X-130950D01*
X-117750Y-20550D01*
X-103330D01*
X-99840Y-24040D01*
X-85750D01*
X-84760Y-23050D01*
X-58550D01*
X-58540Y-23060D01*
X-8440D01*
X-7450Y-24050D01*
X29810D01*
X30160Y-23700D01*
X70950D01*
X78850Y-15800D01*
Y-12550D01*
X80950Y-10450D01*
Y440D01*
X78850Y2540D01*
Y14950D01*
G01X-181850Y-20790D02*
X-133130D01*
X-133040Y-20700D01*
X-130960D01*
X-130870Y-20790D01*
X-123490D01*
X-119850Y-17150D01*
X-59650D01*
X-56750Y-20050D01*
X-11220D01*
X-9720Y-18550D01*
X-8950D01*
X-7500Y-17100D01*
X1200D01*
X4430Y-20330D01*
X55040D01*
X55050Y-20320D01*
X65650D01*
X66250Y-20920D01*
X67920D01*
X67930Y-20930D01*
X70230D01*
X70810Y-20350D01*
X72320D01*
X75950Y-16720D01*
Y-16420D01*
X76300Y-16070D01*
Y-13110D01*
X79550Y-9860D01*
Y-140D01*
X76300Y3110D01*
Y14050D01*
X75500Y14850D01*
G01X73650Y7700D02*
X74200Y7150D01*
Y3230D01*
X78150Y-720D01*
Y-9280D01*
X68510Y-18920D01*
X5000D01*
X4190Y-18110D01*
Y-18100D01*
X1640Y-15550D01*
X-7930D01*
X-9530Y-17150D01*
X-10300D01*
X-11550Y-18400D01*
X-15050D01*
X-18150Y-15300D01*
X-20150D01*
X-22050Y-17200D01*
X-51450D01*
X-54990Y-13660D01*
X-58390D01*
X-61250Y-10800D01*
X-63750D01*
X-66800Y-13850D01*
X-95100D01*
X-95290Y-13660D01*
X-111550D01*
X-111740Y-13850D01*
X-116800D01*
X-119860Y-10790D01*
X-181850D01*
G01Y-790D02*
X-139360D01*
X-132300Y-7850D01*
X-58900D01*
X-57550Y-6500D01*
X-54800D01*
X-46900Y-14400D01*
X-23850D01*
X-21250Y-11800D01*
X-14900D01*
X-12350Y-14350D01*
X-10700D01*
X-8150Y-11800D01*
X2590D01*
X6840Y-16050D01*
X67420D01*
X71800Y-11670D01*
Y-7450D01*
G01X-181850Y9210D02*
X-141260D01*
X-128650Y-3400D01*
X-53350D01*
X-45150Y-11600D01*
X-25250D01*
X-21750Y-8100D01*
X3350D01*
X9050Y-13800D01*
X63520D01*
X64120Y-14400D01*
X66840D01*
X68580Y-12660D01*
Y-6770D01*
X71500Y-3850D01*
X74750D01*
G01X64950Y-12400D02*
X13150D01*
X3100Y-2350D01*
Y-2220D01*
X1930Y-1050D01*
X-400D01*
X-3550Y-4200D01*
X-42160D01*
X-46860Y500D01*
X-127400D01*
X-145800Y18900D01*
Y19210D01*
X-181850D01*
G01Y29210D02*
X-150010D01*
X-124640Y3840D01*
X-46240D01*
X-41600Y-800D01*
X-34590D01*
X-34540Y-850D01*
X-23540D01*
X-23140Y-1250D01*
X-19160D01*
X-18760Y-850D01*
X-12650D01*
X-10650Y1150D01*
X-10500D01*
X-8450Y3200D01*
X-8400D01*
G01X-181850Y39210D02*
X-152460D01*
X-127250Y14000D01*
Y13490D01*
X-125790Y12030D01*
X-125280D01*
X-122350Y9100D01*
X-96700D01*
X-92840Y5240D01*
X-45440D01*
X-40800Y600D01*
X-23010D01*
X-22560Y150D01*
X-19740D01*
X-19290Y600D01*
X-15800D01*
X-14100Y2300D01*
Y3050D01*
X-13000D01*
G01X-181850Y49210D02*
X-179940Y47300D01*
X-146650D01*
X-146550Y47400D01*
X-139500D01*
X-105400Y13300D01*
X-95150D01*
X-91200Y9350D01*
X-81260D01*
X-79960Y8050D01*
X-43050D01*
X-38600Y3600D01*
X-21200D01*
X-21150Y3550D01*
G01X-97800Y17250D02*
X-105390D01*
X-139190Y51050D01*
X-168600D01*
X-176760Y59210D01*
X-181850D01*
G01X-123450Y55650D02*
X-162260D01*
X-170290Y63680D01*
Y63690D01*
X-175810Y69210D01*
X-181850D01*
G01X-110400Y50250D02*
X-111050Y50900D01*
X-112450D01*
X-120850Y59300D01*
X-161940D01*
X-181850Y79210D01*
G01X-110300Y56300D02*
X-113100D01*
X-118900Y62100D01*
X-152350D01*
X-179460Y89210D01*
X-181850D01*
G01Y99210D02*
X-181760D01*
X-149250Y66700D01*
X-118250D01*
X-117900Y67050D01*
X-110250Y59400D01*
Y59250D01*
G01X-71450Y45650D02*
X-72750D01*
X-76850Y41550D01*
X-77520D01*
X-77620Y41450D01*
X-79280D01*
X-79330Y41500D01*
X-88450D01*
X-90150Y43200D01*
Y45280D01*
X-90200Y45330D01*
Y47310D01*
X-97150Y54260D01*
Y55000D01*
X-101380Y59230D01*
Y60140D01*
X-115930Y74690D01*
X-136940D01*
X-145880Y83630D01*
Y83680D01*
X-181410Y119210D01*
X-181850D01*
G01X-117050Y70850D02*
X-139600D01*
X-172800Y104050D01*
X-173000D01*
X-178160Y109210D01*
X-181850D01*
G01Y139210D02*
X-179360D01*
X-169440Y129290D01*
X-164440D01*
X-164330Y129400D01*
X-162000D01*
X-154150Y121550D01*
Y102070D01*
X-133770Y81690D01*
X-113030D01*
X-91560Y60220D01*
X-89750D01*
X-78480Y48950D01*
X-33810D01*
X-33060Y49700D01*
X-30650D01*
X-28350Y47400D01*
Y46430D01*
X-28250Y46330D01*
Y41110D01*
X-26290Y39150D01*
X-25500D01*
X-20700Y34350D01*
X-19700D01*
G01X-18950Y42150D02*
X-19350Y42550D01*
X-21870D01*
X-22220Y42200D01*
X-24590D01*
X-26850Y44460D01*
Y46910D01*
X-26950Y47010D01*
Y53500D01*
X-28250Y54800D01*
X-37100D01*
X-38950Y52950D01*
X-39150D01*
X-41000Y51100D01*
X-78650D01*
X-89170Y61620D01*
X-90980D01*
X-112450Y83090D01*
X-133190D01*
X-152750Y102650D01*
Y127450D01*
X-163900Y138600D01*
X-171900D01*
X-176600Y143300D01*
Y152450D01*
X-181850Y157700D01*
Y159210D01*
G01X-17100Y46900D02*
X-17150Y46850D01*
Y46350D01*
X-18950Y44550D01*
X-23930D01*
X-25450Y46070D01*
Y47490D01*
X-25500Y47540D01*
Y48860D01*
X-23250Y51110D01*
Y54200D01*
X-25750Y56700D01*
X-40050D01*
X-44250Y52500D01*
X-77800D01*
X-88320Y63020D01*
X-90400D01*
X-111870Y84490D01*
X-132490D01*
X-134900Y86900D01*
Y87050D01*
X-150900Y103050D01*
Y128550D01*
X-159950Y137600D01*
Y147100D01*
X-162250Y149400D01*
X-168650D01*
X-172650Y153400D01*
Y158800D01*
X-177400Y163550D01*
X-177500D01*
X-181850Y167900D01*
Y169210D01*
G01X-88200Y46550D02*
X-88800Y47150D01*
Y47890D01*
X-95150Y54240D01*
Y55090D01*
X-96320Y56260D01*
X-96430D01*
X-99980Y59810D01*
Y60720D01*
X-115350Y76090D01*
X-136100D01*
X-160350Y100340D01*
Y101450D01*
G01X-78450Y43450D02*
Y46600D01*
X-90670Y58820D01*
X-92140D01*
X-113610Y80290D01*
X-134350D01*
X-155550Y101490D01*
Y104550D01*
X-167580Y116580D01*
G01X-23240Y46710D02*
Y47210D01*
X-19650Y50800D01*
Y54900D01*
X-23750Y59000D01*
X-82100D01*
X-87530Y64430D01*
X-89830D01*
X-111300Y85900D01*
X-130400D01*
X-138090Y93590D01*
Y97720D01*
G01X-25330Y25350D02*
X-26650D01*
X-31700Y30400D01*
X-49320D01*
X-50070Y31150D01*
X-60200D01*
X-62900Y33850D01*
X-69930D01*
X-70030Y33750D01*
X-107500D01*
X-111430Y37680D01*
X-112130D01*
X-115250Y40800D01*
X-115500D01*
G01X-87650Y30200D02*
X-88150Y29700D01*
Y27050D01*
X-84950Y23850D01*
X-55050D01*
X-49200Y18000D01*
X-36650D01*
X-34100Y20550D01*
X-26480D01*
X-21100Y15170D01*
Y11550D01*
G01X-25250Y12250D02*
X-25750Y11750D01*
Y8900D01*
X-27950Y6700D01*
X-36900D01*
X-41050Y10850D01*
X-78800D01*
X-81280Y13330D01*
X-81410Y13200D01*
X-90150D01*
X-96850Y19900D01*
Y28000D01*
X-96600Y28250D01*
G01X-92050Y29900D02*
Y28250D01*
X-86200Y22400D01*
X-55800D01*
X-49950Y16550D01*
X-36120D01*
X-33520Y19150D01*
X-27060D01*
X-23100Y15190D01*
Y10720D01*
X-22800Y10420D01*
Y8950D01*
G01X-30250Y45500D02*
X-31100D01*
X-32100Y44500D01*
X-38600D01*
X-41550Y47450D01*
X-43850D01*
X-49110Y42190D01*
X-66190D01*
X-66660Y42660D01*
X-73010D01*
X-75530Y40140D01*
X-76950D01*
X-77040Y40050D01*
X-79860D01*
X-79910Y40100D01*
X-95300D01*
X-100480Y45280D01*
X-101550D01*
G01X-101350Y36150D02*
X-100400Y35200D01*
X-70560D01*
X-70510Y35250D01*
X-62320D01*
X-60220Y33150D01*
X-50090D01*
X-48940Y32000D01*
X-30550D01*
X-26600Y28050D01*
X-24350D01*
X-23800Y28600D01*
G01X-85800Y98650D02*
X-69560D01*
X-62080Y106130D01*
Y126770D01*
X-58050Y130800D01*
Y147380D01*
X-48290Y157140D01*
Y173550D01*
X-38890Y182950D01*
X14730D01*
X15320Y182360D01*
X50840D01*
X51430Y182950D01*
X89250D01*
X96650Y175550D01*
Y158400D01*
X103120Y151930D01*
Y144020D01*
X95900Y136800D01*
Y112100D01*
X102900Y105100D01*
Y89350D01*
X95050Y81500D01*
Y66450D01*
X104750Y56750D01*
X105900D01*
X111340Y51310D01*
Y31110D01*
X109510Y29280D01*
Y22500D01*
X108100Y21090D01*
Y19010D01*
X110940Y16170D01*
Y-11010D01*
X103110Y-18840D01*
Y-30820D01*
X102550Y-31380D01*
X102540Y-32510D01*
X103430Y-33400D01*
X103420Y-34530D01*
X101250Y-36700D01*
X97210D01*
X94300Y-39610D01*
X91360D01*
X87760Y-36010D01*
X78190D01*
X73190Y-31010D01*
G01X-87850Y100750D02*
X-87800Y100700D01*
Y97820D01*
X-86630Y96650D01*
X-64400D01*
X-63540Y97510D01*
X-63320D01*
X-61860Y98970D01*
Y99190D01*
X-56100Y104950D01*
Y123670D01*
X-56450Y124020D01*
Y125680D01*
X-56100Y126030D01*
Y143950D01*
X-46900Y153150D01*
X-40150D01*
X-37900Y155400D01*
Y174550D01*
X-30900Y181550D01*
X14150D01*
X14740Y180960D01*
X51420D01*
X52010Y181550D01*
X88670D01*
X95250Y174970D01*
Y157820D01*
X101720Y151350D01*
Y144600D01*
X94490Y137370D01*
Y111530D01*
X101500Y104520D01*
Y89930D01*
X93650Y82080D01*
Y65870D01*
X104170Y55350D01*
X105320D01*
X108660Y52010D01*
Y50120D01*
X109050Y49730D01*
Y30800D01*
X108110Y29860D01*
Y23080D01*
X106700Y21670D01*
Y18430D01*
X108660Y16470D01*
Y-11310D01*
X101710Y-18260D01*
Y-30240D01*
X101560Y-30390D01*
X100430Y-30400D01*
X99550Y-29520D01*
X98420Y-29530D01*
X95410Y-32540D01*
X94290D01*
X90690Y-28940D01*
X83990D01*
X83190Y-29740D01*
Y-31010D01*
G01X-87150Y127750D02*
Y148600D01*
X-82800Y152950D01*
Y159010D01*
G01X-87300Y113950D02*
X-98900Y125550D01*
Y148300D01*
X-94250Y152950D01*
Y157560D01*
X-92800Y159010D01*
G01X-77550Y109450D02*
Y114300D01*
X-97350Y134100D01*
Y143550D01*
X-88290Y152610D01*
Y171210D01*
X-70950Y188550D01*
X17050D01*
X17640Y187960D01*
X48510D01*
X49100Y188550D01*
X91570D01*
X102250Y177870D01*
Y177810D01*
X102500Y177560D01*
Y175600D01*
X102510Y175590D01*
Y169780D01*
X106110Y166180D01*
Y156860D01*
X108720Y154250D01*
Y141700D01*
X103230Y136210D01*
Y112690D01*
X108500Y107420D01*
Y87030D01*
X102570Y81100D01*
Y67570D01*
X107780Y62360D01*
X109260D01*
X118260Y53360D01*
Y34240D01*
X121100Y31400D01*
Y7440D01*
X122550Y5990D01*
Y3910D01*
X121100Y2460D01*
Y-10410D01*
X118900Y-12610D01*
X117260D01*
X109860Y-20010D01*
Y-44650D01*
X99050Y-55460D01*
X67020D01*
X64130Y-58350D01*
X54860D01*
X52910Y-56400D01*
X42200D01*
X33190Y-47390D01*
Y-31010D01*
G01X-19100Y9110D02*
Y15150D01*
X-25900Y21950D01*
X-34860D01*
X-37110Y19700D01*
X-48300D01*
X-53900Y25300D01*
X-81200D01*
X-83700Y27800D01*
Y30800D01*
G01X22110Y-6550D02*
X22000D01*
X13950Y1500D01*
X8400D01*
X4050Y5850D01*
Y9430D01*
X2380Y11100D01*
X-9750D01*
X-16150Y17500D01*
X-19200D01*
X-25050Y23350D01*
X-35750D01*
X-37650Y21450D01*
X-47600D01*
X-53100Y26950D01*
X-66600D01*
X-66850Y26700D01*
X-77350D01*
X-79700Y29050D01*
Y30000D01*
G01X-74180Y107150D02*
X-72950Y108380D01*
Y109950D01*
X-72600Y110300D01*
Y123200D01*
X-64600Y131200D01*
Y147000D01*
X-72800Y155200D01*
Y159010D01*
G01X-84500Y101650D02*
X-77210D01*
X-76910Y101950D01*
X-73760D01*
X-66540Y109170D01*
Y125300D01*
X-61790Y130050D01*
Y147460D01*
X-58290Y150960D01*
Y171590D01*
X-46450Y183430D01*
Y183440D01*
X-45540Y184350D01*
X15310D01*
X15900Y183760D01*
X50260D01*
X50850Y184350D01*
X89830D01*
X98050Y176130D01*
Y158980D01*
X104520Y152510D01*
Y143440D01*
X97300Y136220D01*
Y112680D01*
X104300Y105680D01*
Y88770D01*
X96800Y81270D01*
Y67400D01*
X106040Y58160D01*
X107520D01*
X112740Y52940D01*
Y31050D01*
X114510Y29280D01*
Y27200D01*
X113100Y25790D01*
Y-540D01*
X112340Y-1300D01*
Y-3380D01*
X112740Y-3780D01*
Y-11190D01*
X105650Y-18280D01*
Y-37550D01*
X101430Y-41770D01*
X70770D01*
X63190Y-34190D01*
Y-31010D01*
G01X53190D02*
Y-36790D01*
X69050Y-52650D01*
X97900D01*
X107060Y-43490D01*
Y-18850D01*
X117340Y-8570D01*
Y2140D01*
X116150Y3330D01*
Y6570D01*
X117340Y7760D01*
Y29410D01*
X114380Y32370D01*
Y53280D01*
X108100Y59560D01*
X106620D01*
X98400Y67780D01*
Y80890D01*
X105700Y88190D01*
Y106260D01*
X98700Y113260D01*
Y135640D01*
X105920Y142860D01*
Y153090D01*
X99700Y159310D01*
Y176400D01*
X99450Y176650D01*
Y176710D01*
X90410Y185750D01*
X50260D01*
X49670Y185160D01*
X16480D01*
X15890Y185750D01*
X-55600D01*
X-67950Y173400D01*
Y167880D01*
X-67900Y167830D01*
Y166170D01*
X-67950Y166120D01*
Y152330D01*
X-63200Y147580D01*
Y130620D01*
X-69770Y124050D01*
Y115000D01*
X-68600Y113830D01*
Y112170D01*
X-71550Y109220D01*
Y107800D01*
X-72180Y107170D01*
Y106320D01*
X-73350Y105150D01*
X-75620D01*
X-75920Y104850D01*
X-82350D01*
G01X-80650Y107400D02*
X-76770D01*
X-75550Y108620D01*
Y121400D01*
X-80400Y126250D01*
Y126270D01*
X-80700Y126570D01*
Y128230D01*
X-80400Y128530D01*
Y144660D01*
X-80150Y144910D01*
Y148900D01*
X-77450Y151600D01*
Y170450D01*
X-60750Y187150D01*
X16470D01*
X17060Y186560D01*
X49090D01*
X49680Y187150D01*
X90990D01*
X100850Y177290D01*
Y177230D01*
X101100Y176980D01*
Y159890D01*
X107320Y153670D01*
Y142280D01*
X100700Y135660D01*
Y113240D01*
X107100Y106840D01*
Y87610D01*
X100700Y81210D01*
Y67460D01*
X107200Y60960D01*
X108680D01*
X115970Y53670D01*
Y33680D01*
X119700Y29950D01*
Y8140D01*
X117550Y5990D01*
Y3910D01*
X119700Y1760D01*
Y-8190D01*
X108460Y-19430D01*
Y-44070D01*
X98480Y-54050D01*
X66450D01*
X63550Y-56950D01*
X55450D01*
X51800Y-53300D01*
Y-43050D01*
X43190Y-34440D01*
Y-31010D01*
G01X-58400Y79050D02*
Y80800D01*
X-57200Y82000D01*
Y98650D01*
X-52450Y103400D01*
Y143700D01*
X-45150Y151000D01*
X-33650D01*
X-27500Y157150D01*
Y165650D01*
X-29300Y167450D01*
Y178050D01*
G01X-20480Y-41850D02*
X-19980Y-42350D01*
X-18320D01*
X-17820Y-41850D01*
G01D02*
X-20480D01*
G01X-17820D02*
X-2150D01*
X-500Y-43500D01*
X11250D01*
G01X-14900Y-14850D02*
X-14000Y-15750D01*
X-10110D01*
X-8310Y-13950D01*
X2750D01*
X6250Y-17450D01*
X68000D01*
X76750Y-8700D01*
Y-1300D01*
X71070Y4380D01*
Y20420D01*
X75600Y24950D01*
Y28900D01*
X82350Y35650D01*
Y43600D01*
X85900Y47150D01*
X93850D01*
X94370Y47670D01*
G01X-30990Y125450D02*
X-28420Y128020D01*
X-25480D01*
X-21300Y132200D01*
Y137900D01*
X-6600Y152600D01*
X3800D01*
X5450Y154250D01*
Y165950D01*
X13730Y174230D01*
X19300D01*
G01X116620Y67180D02*
Y121230D01*
G01X110540Y136260D02*
X111050Y135750D01*
Y120300D01*
X113570Y117780D01*
Y103080D01*
G01X116620Y121230D02*
X127380D01*
X140450Y134300D01*
G01X110540Y136260D02*
Y140690D01*
X125800Y155950D01*
X135450D01*
X136100Y156600D01*
G01X134450Y125200D02*
Y125050D01*
X126050Y116650D01*
Y86850D01*
G01X162050Y24050D02*
X162900D01*
X166300Y27450D01*
Y44050D01*
X163450Y46900D01*
Y76150D01*
M02*
