G04 ================== begin FILE IDENTIFICATION RECORD ==================*
G04 Layout Name:  F:/prj/I.MX/I.MX233/idmx2-13-07/pcb/idmx1307pcb_46-0-49-152.brd*
G04 Film Name:    BOTTOM*
G04 File Format:  Gerber RS274X*
G04 File Origin:  15.5-p006*
G04 Origin Date:  Thu Mar 06 11:04:17 2014*
G04 ================== end FILE IDENTIFICATION RECORD ====================*
%FSLAX55Y55*MOIN*%
%IR0*IPPOS*OFA0.00000B0.00000*MIA0B0*SFA1.00000B1.00000*%
%ADD25C,.15*%
%ADD10C,.2402*%
%ADD37O,.1024X.0709*%
%ADD33C,.1492*%
%ADD38C,.1575*%
%ADD35O,.1181X.0787*%
%ADD20R,.126X.0984*%
%ADD36O,.0787X.1181*%
%ADD16R,.0984X.2559*%
%ADD23O,.02X.066*%
%ADD17C,.02*%
%ADD15C,.03*%
%ADD31C,.05*%
%ADD29O,.017X.036*%
%ADD26R,.02X.066*%
%ADD14C,.06*%
%ADD30C,.025*%
%ADD19C,.07*%
%ADD28R,.017X.036*%
%ADD41C,.0354*%
%ADD27R,.0512X.0472*%
%ADD39R,.0236X.0236*%
%ADD34R,.0472X.0512*%
%ADD12R,.06X.06*%
%ADD18R,.07X.07*%
%ADD13R,.045X.045*%
%ADD42R,.0354X.0472*%
%ADD43R,.0551X.0394*%
%ADD24R,.0394X.0551*%
%ADD40C,.0866*%
%ADD32R,.0709X.0472*%
%ADD11C,.0598*%
%ADD21R,.0394X.0394*%
%ADD22R,.0394X.0394*%
%ADD44C,.005*%
%ADD45C,.008*%
%ADD46C,.01*%
G75*
%LPD*%
G75*
G54D10*
X-183070Y-88590D03*
Y187010D03*
X183070Y-88590D03*
Y187010D03*
G54D11*
X-191850Y-70790D03*
Y-60790D03*
Y-50790D03*
Y-40790D03*
Y-30790D03*
Y-20790D03*
Y-10790D03*
Y-790D03*
Y9210D03*
Y19210D03*
Y29210D03*
Y39210D03*
Y49210D03*
Y59210D03*
Y69210D03*
Y79210D03*
Y89210D03*
Y99210D03*
Y109210D03*
Y119210D03*
Y129210D03*
Y139210D03*
Y149210D03*
Y159210D03*
Y169210D03*
X-181850Y-60790D03*
Y-50790D03*
Y-40790D03*
Y-30790D03*
Y-20790D03*
Y-10790D03*
Y-790D03*
Y9210D03*
Y19210D03*
Y29210D03*
Y39210D03*
Y49210D03*
Y59210D03*
Y69210D03*
Y79210D03*
Y89210D03*
Y99210D03*
Y109210D03*
Y119210D03*
Y129210D03*
Y139210D03*
Y149210D03*
Y159210D03*
Y169210D03*
X-112440Y184040D03*
X19300Y174230D03*
Y191950D03*
X46860Y174230D03*
Y191950D03*
G54D20*
X-152050Y157180D03*
Y174420D03*
G54D21*
X-138280Y-8210D03*
Y-16090D03*
X-119720Y26930D03*
Y34810D03*
X-133930Y72750D03*
Y80630D03*
X-130940Y167070D03*
Y174950D03*
X-104100Y62010D03*
Y69890D03*
X-114180Y145330D03*
Y137450D03*
X-89530Y-14270D03*
X-89200Y8810D03*
Y930D03*
X-89530Y-6390D03*
X-68870Y-6850D03*
Y1030D03*
X-69900Y171650D03*
Y179530D03*
X-53550Y-52030D03*
Y-44150D03*
X-60050Y106510D03*
Y114390D03*
X-61060Y171400D03*
Y179280D03*
X-48000Y-52080D03*
Y-44200D03*
X-28270Y-3500D03*
Y4380D03*
X-30000Y23410D03*
Y31290D03*
X13550Y17510D03*
Y25390D03*
X25330Y-710D03*
Y7170D03*
X54630Y-76820D03*
Y-84700D03*
X55680Y-61500D03*
Y-53620D03*
X47750Y89210D03*
Y97090D03*
X98030Y-91390D03*
Y-83510D03*
X96830Y-67190D03*
Y-59310D03*
X110540Y148060D03*
X126000Y148570D03*
X110540Y155940D03*
X126000Y156450D03*
X133280Y148440D03*
X139630Y148640D03*
X133280Y156320D03*
X139630Y156520D03*
X157050Y42660D03*
Y50540D03*
X146530Y148690D03*
X152530Y148440D03*
X146530Y156570D03*
X152530Y156320D03*
X189000Y-4240D03*
Y3640D03*
X181370Y3750D03*
Y-4130D03*
X186070Y113120D03*
X179430Y105180D03*
Y113060D03*
X186070Y121000D03*
G54D12*
X-181850Y-70790D03*
X-102440Y184040D03*
X171960Y124950D03*
G54D30*
X-111830Y-30980D03*
X-106830Y159020D03*
X93170Y-10980D03*
Y99020D03*
G54D22*
X-136700Y9140D03*
X-137340Y-720D03*
X-149500Y135910D03*
X-141620D03*
X-151490Y146320D03*
X-143610D03*
X-128820Y9140D03*
X-129460Y-720D03*
X-127340Y130500D03*
X-119460D03*
X-83400Y-5980D03*
X-83200Y870D03*
X-87940Y74250D03*
X-94850Y145870D03*
X-86970D03*
X-86990Y137400D03*
X-83430Y179840D03*
X-72680Y-31660D03*
X-80560D03*
X-72600Y-25000D03*
X-80480D03*
X-72360Y-19240D03*
X-80240D03*
X-72030Y-13340D03*
X-79910D03*
X-75520Y-5980D03*
X-75320Y870D03*
X-71740Y68050D03*
X-80060Y74250D03*
X-70340Y74950D03*
X-82390Y121550D03*
X-74510D03*
X-69860Y145940D03*
X-77740D03*
X-79110Y137400D03*
X-75550Y179840D03*
X-55980Y-93610D03*
X-61060Y1220D03*
X-53180D03*
X-63860Y68050D03*
X-62460Y74950D03*
X-55160Y96300D03*
X-63040D03*
X-55000Y179330D03*
X-48100Y-93610D03*
X-40410Y74220D03*
X-32530D03*
X-39740Y96600D03*
X-31860D03*
X-47120Y179330D03*
X17470Y76680D03*
X18320Y82720D03*
X19360Y106250D03*
X21560Y134500D03*
X33470Y15930D03*
X25590D03*
X33260Y24700D03*
X25380D03*
X25350Y76680D03*
X33810Y76400D03*
X33080Y82870D03*
X26200Y82720D03*
X27240Y106250D03*
X29440Y134500D03*
X41690Y76400D03*
X40960Y82870D03*
X82810Y-83120D03*
X90690D03*
X82760Y-59000D03*
X90640D03*
X121730Y102340D03*
X129610D03*
X156380Y120210D03*
X164260D03*
G54D40*
X105050Y-59310D03*
X166070D03*
G54D13*
X-171310Y-73390D03*
X-170110Y175420D03*
X183420Y-67380D03*
X185060Y12360D03*
X186940Y166530D03*
G54D31*
X-92390Y137200D03*
X-76160Y16040D03*
X-73170Y137200D03*
X-56940Y16040D03*
X181200Y32640D03*
Y51860D03*
G54D32*
X-64240Y-77740D03*
Y-90740D03*
G54D41*
X119960Y182480D03*
X151260D03*
G54D14*
X-155550Y-88350D03*
Y-58350D03*
Y-68350D03*
Y-48350D03*
X109460Y-90610D03*
X119460D03*
X118040Y-46320D03*
X128040D03*
X123040Y-36320D03*
X138040Y-46320D03*
X133040Y-36320D03*
X143040D03*
X161660Y-90610D03*
X151660D03*
X148040Y-46320D03*
X153040Y-36320D03*
X171960Y94950D03*
G54D23*
X-141440Y17560D03*
Y41960D03*
X-131400Y17560D03*
X-136440D03*
Y41960D03*
X-131400D03*
X-126400D03*
G54D24*
X-138990Y158870D03*
X-135250Y150210D03*
X-131510Y158870D03*
X-52050Y-76890D03*
X-55790Y-85550D03*
X-48310D03*
X-37700Y-76700D03*
X-41440Y-85360D03*
X-33960D03*
G54D42*
X137360Y102570D03*
Y109460D03*
X149960Y102570D03*
Y109460D03*
G54D15*
G01X-131510Y158870D02*
Y166500D01*
X-130940Y167070D01*
G01X-122050Y169050D02*
X-128960D01*
X-130940Y167070D01*
G01X117360Y156570D02*
Y159760D01*
X121450Y163850D01*
X-157950Y26450D03*
X-147050Y-30750D03*
X-136850Y28550D03*
X-141600Y149050D03*
X-149700Y185100D03*
X-144600D03*
X-126260Y-13350D03*
X-132000Y-23200D03*
X-131400Y23300D03*
X-118750Y14450D03*
X-129950Y92900D03*
X-120050Y161750D03*
X-122050Y169050D03*
X-114150Y31550D03*
X-109900Y123900D03*
X-104850Y147900D03*
X-114900Y173550D03*
X-98250Y-33450D03*
X-87200Y16400D03*
X-87690Y179840D03*
X-71480Y-58480D03*
X-66550Y16550D03*
X-73250Y29950D03*
X-76250Y55700D03*
X-82650Y145950D03*
X-72600Y179750D03*
X-64240Y-86460D03*
X-55250Y-9650D03*
X-65750Y30150D03*
X-65150Y44690D03*
X-59570Y36040D03*
X-49100Y55000D03*
X-56600Y71550D03*
X-59020Y66430D03*
X-64360Y100010D03*
X-57900Y179300D03*
X-41440Y-93210D03*
X-34650Y-7700D03*
X-44900Y39100D03*
X-45300Y27740D03*
X-33000Y52300D03*
X-39050Y78900D03*
X-33350Y68050D03*
X-48250Y78750D03*
X-39840Y87960D03*
X-43450Y173400D03*
X-19300Y-62950D03*
X-23250Y-44850D03*
X-29800Y10950D03*
X-29050Y15300D03*
X-30800Y41350D03*
X-14690Y178860D03*
X-15650Y191700D03*
X-5560Y-45160D03*
X-1850Y-20950D03*
X9890Y-52490D03*
X15750Y11200D03*
X19500Y15100D03*
X20450Y27900D03*
X7950Y154600D03*
X36860Y2540D03*
X30450Y4700D03*
X34210Y140810D03*
X41200Y4000D03*
X51150Y35700D03*
X47350Y148290D03*
X44090Y140410D03*
X59520Y-76820D03*
X60570Y-53620D03*
X64200Y148840D03*
X59060Y140960D03*
X90700Y-66000D03*
X86770Y75930D03*
X81350Y69850D03*
X80050Y88350D03*
Y81300D03*
X83610Y140410D03*
X74010Y140760D03*
X92400Y-91390D03*
X96830Y-72470D03*
X95680Y-47280D03*
X98430Y7920D03*
X92240Y2610D03*
X96850Y148000D03*
X103610Y165140D03*
X117400Y-16550D03*
X114840Y-2340D03*
X120050Y4950D03*
X110600Y20050D03*
X112010Y28240D03*
X119500Y108950D03*
X110540Y136260D03*
X121450Y163850D03*
X110540Y164540D03*
X139000Y-560D03*
X138670Y45600D03*
X134020D03*
X140950Y65300D03*
X133200Y102340D03*
X136100Y156600D03*
X150110Y-25660D03*
X151900Y13500D03*
X150080Y40640D03*
X145430D03*
X151900Y49100D03*
X159300Y54800D03*
X150570Y67070D03*
X157400Y97350D03*
X144770Y130020D03*
X173750Y-8300D03*
X164400Y-130D03*
X164830Y14420D03*
X176200Y27950D03*
X172980Y53820D03*
X175560Y69990D03*
X161980Y114270D03*
X168080Y116390D03*
X170420Y142130D03*
X184550Y-42900D03*
X186860Y-18260D03*
X186070Y128820D03*
G54D33*
X-76950Y-75120D03*
X-26170D03*
G54D43*
X161980Y109080D03*
Y101600D03*
X170640Y105340D03*
G54D34*
X-80170Y8150D03*
X-71510D03*
X-67360Y53550D03*
X-67680Y61750D03*
X-54960Y-58480D03*
X-63620D03*
X-49520Y-8830D03*
X-49690Y-16230D03*
X-53490Y8150D03*
X-62150D03*
X-57730Y34200D03*
X-49070D03*
X-59570Y43800D03*
X-50910D03*
X-58700Y53550D03*
X-59020Y61750D03*
X-46790Y-58470D03*
X-38130D03*
X-40860Y-8830D03*
X-41030Y-16230D03*
X-46480Y20000D03*
X-37820D03*
X-42910Y57530D03*
X-34250D03*
X-45750Y67270D03*
X-37090D03*
X1950Y-19800D03*
X2450Y-12200D03*
X10610Y-19800D03*
X11110Y-12200D03*
X36540Y36590D03*
X27880D03*
G54D16*
X-167320Y63960D03*
X-23620D03*
G54D25*
X-113140Y-84180D03*
Y-60560D03*
X-94240Y-72370D03*
G54D44*
G01X21560Y134500D02*
X20500D01*
X16350Y138650D01*
G54D26*
X-126400Y17560D03*
G54D17*
G01X-149500Y135910D02*
X-150310Y135100D01*
X-154800D01*
X-157600Y137900D01*
G01D02*
Y142050D01*
X-153330Y146320D01*
X-151490D01*
G01X-166310Y133800D02*
X-161700D01*
X-157600Y137900D01*
G01X-141440Y17560D02*
Y23960D01*
X-136850Y28550D01*
G01D02*
X-136350Y29050D01*
X-124500D01*
X-122380Y26930D01*
X-119720D01*
G01X-139100Y145530D02*
Y141700D01*
X-141620Y139180D01*
Y135910D01*
G01X-141750Y148180D02*
X-139100Y145530D01*
G01X-141750Y148180D02*
Y150100D01*
G01X-143610Y146320D02*
X-141750Y148180D01*
G01X-135250Y150210D02*
X-141640D01*
X-141750Y150100D01*
G01D02*
X-148830Y157180D01*
X-152050D01*
G01Y174420D02*
Y182750D01*
X-149700Y185100D01*
G01D02*
X-144600D01*
G01X-129460Y-720D02*
Y8500D01*
X-128820Y9140D01*
G01X-118750Y14450D02*
X-118950Y14250D01*
Y10800D01*
X-120610Y9140D01*
X-128820D01*
G01X-131400Y17560D02*
Y23300D01*
G01X-119720Y34810D02*
Y39620D01*
X-122060Y41960D01*
X-126400D01*
G01X-119720Y34810D02*
X-110610D01*
X-100000Y24200D01*
X-71700D01*
X-65750Y30150D01*
G01X-133930Y80630D02*
Y88920D01*
X-129950Y92900D01*
G01X-114180Y130500D02*
X-119460D01*
G01X-127340D02*
X-124450Y133390D01*
Y135000D01*
G01X-120630Y149410D02*
X-120490Y149550D01*
X-118050D01*
X-114180Y145680D01*
Y145330D01*
G01X-120630Y138390D02*
X-121050Y138810D01*
Y142050D01*
X-124600Y145600D01*
G01D02*
Y154200D01*
X-129270Y158870D01*
X-131510D01*
G01X-128270Y138390D02*
Y141930D01*
X-124600Y145600D01*
G01X-124450Y135000D02*
Y138390D01*
G01X-114150Y31550D02*
X-114100Y31500D01*
X-112950D01*
X-102150Y20700D01*
X-60950D01*
X-48200Y33450D01*
G01X-114180Y130500D02*
X-113850D01*
X-110250Y126900D01*
Y124250D01*
X-109900Y123900D01*
G01X-114180Y137450D02*
Y130500D01*
G01X-89530Y-14270D02*
Y-17450D01*
X-87740Y-19240D01*
G01X-80240D02*
X-87740D01*
G01X-89200Y8810D02*
Y14400D01*
X-87200Y16400D01*
G01X-83430Y179840D02*
X-87690D01*
G01X-63620Y-58480D02*
X-71480D01*
G01X-80560Y-31660D02*
Y-25080D01*
X-80480Y-25000D01*
G01X-80240Y-19240D02*
Y-13670D01*
G01D02*
X-79910Y-13340D01*
G01X-80480Y-25000D02*
Y-19480D01*
G01D02*
Y-13910D01*
X-80240Y-13670D01*
G01X-82750Y53870D02*
Y53200D01*
X-75200Y45650D01*
Y31900D01*
X-73250Y29950D01*
G01X-67680Y61750D02*
X-70200D01*
X-76250Y55700D01*
G01X-67360Y53550D02*
Y46090D01*
X-65960Y44690D01*
X-65150D01*
G01X-82750Y62530D02*
X-74970D01*
X-73350Y64150D01*
G01X-74510Y121550D02*
Y127260D01*
G01X-52050Y-76890D02*
X-63390D01*
X-64240Y-77740D01*
G01X-64910Y-66460D02*
Y-77070D01*
X-64240Y-77740D01*
G01Y-90740D02*
Y-86460D01*
G01X-55790Y-85550D02*
X-59050D01*
X-64240Y-90740D01*
G01X-55980Y-93610D02*
X-61370D01*
X-64240Y-90740D01*
G01X-63620Y-58480D02*
Y-48270D01*
X-59500Y-44150D01*
X-53550D01*
G01D02*
X-48050D01*
X-48000Y-44200D01*
G01X-49690Y-16230D02*
Y-9000D01*
X-49520Y-8830D01*
G01X-55250Y-9650D02*
X-54100D01*
X-53280Y-8830D01*
X-49520D01*
G01X-48200Y33450D02*
X-48320D01*
X-49070Y34200D01*
G01D02*
X-48650Y34620D01*
Y38400D01*
X-50910Y40660D01*
Y43800D01*
G01X-59570Y36040D02*
X-57730Y34200D01*
G01X-65150Y44690D02*
X-64260Y43800D01*
X-59570D01*
G01D02*
Y36040D01*
G01X-58700Y53550D02*
X-50550D01*
X-49100Y55000D01*
G01X-59020Y61750D02*
Y66430D01*
G01X-60050Y114390D02*
Y118200D01*
X-59150Y119100D01*
G01X-48100Y-93610D02*
Y-85760D01*
X-48310Y-85550D01*
G01X-37700Y-76700D02*
X-38150Y-77150D01*
X-42150D01*
X-48310Y-83310D01*
Y-85550D01*
G01X-41440Y-85360D02*
Y-93210D01*
G01X-19300Y-62950D02*
X-15350Y-66900D01*
Y-82100D01*
X-23000Y-89750D01*
X-30550D01*
X-33960Y-86340D01*
Y-85360D01*
G01X-37030Y-66460D02*
Y-59570D01*
X-38130Y-58470D01*
G01X-48000Y-44200D02*
X-42750D01*
X-38130Y-48820D01*
Y-58470D01*
G01X-40860Y-8830D02*
X-35780D01*
X-34650Y-7700D01*
G01X-41030Y-16230D02*
Y-9000D01*
X-40860Y-8830D01*
G01X-46480Y20000D02*
Y20920D01*
X-42810Y24590D01*
G01X-37460Y28440D02*
X-38960D01*
X-42810Y24590D01*
G01X-36950Y37100D02*
X-39900Y34150D01*
X-47500D01*
X-48200Y33450D01*
G01X-36950Y37100D02*
Y37550D01*
X-33050Y41450D01*
X-30900D01*
X-30800Y41350D01*
G01X-37460Y37100D02*
X-36950D01*
G01X-31250Y63400D02*
Y61250D01*
X-34250Y58250D01*
Y57530D01*
G01X-42710Y62350D02*
X-42910Y62150D01*
G01D02*
Y57530D01*
G01X-32530Y74220D02*
X-32300Y73990D01*
Y68620D01*
X-33350Y67570D01*
G01D02*
X-33650Y67270D01*
X-37090D01*
G01X-40410Y74220D02*
X-41480Y73150D01*
X-42650D01*
G01D02*
X-48250Y78750D01*
G01X-42500Y62350D02*
X-42710D01*
G01X-45750Y67270D02*
Y66000D01*
X-42910Y63160D01*
Y62150D01*
G01X-45750Y67270D02*
Y70050D01*
X-42650Y73150D01*
G01X-47120Y179330D02*
Y177070D01*
X-43450Y173400D01*
G01X-28270Y4380D02*
Y9420D01*
X-29800Y10950D01*
G01X-29050Y15300D02*
X-28300Y16050D01*
Y20450D01*
X-30000Y22150D01*
Y23410D01*
G01X-25000Y31650D02*
X-29640D01*
X-30000Y31290D01*
G01X10610Y-19800D02*
Y-23560D01*
X3160Y-31010D01*
G01X1950Y-19800D02*
X-700D01*
X-1850Y-20950D01*
G01X2450Y-12200D02*
Y-19300D01*
X1950Y-19800D01*
G01X10610D02*
Y-12700D01*
X11110Y-12200D01*
G01X13550Y17510D02*
Y13400D01*
X15750Y11200D01*
G01X13550Y25390D02*
X17940D01*
X20450Y27900D01*
G01X19500Y15100D02*
X24760D01*
X25590Y15930D01*
G01X25380Y24700D02*
X23650D01*
X20450Y27900D01*
G01X18320Y82720D02*
Y77530D01*
X17470Y76680D01*
G01X18320Y82720D02*
Y85820D01*
X24350Y91850D01*
X40000D01*
X40100Y91750D01*
G01X54630Y-84700D02*
X38550D01*
X37710Y-83860D01*
G01X55680Y-61500D02*
X38020D01*
X37710Y-61810D01*
G01X25330Y-710D02*
X33610D01*
X36860Y2540D01*
G01X33470Y15930D02*
X39300Y10100D01*
Y7550D01*
X36860Y5110D01*
Y2540D01*
G01X25380Y24700D02*
Y7220D01*
X25330Y7170D01*
G01D02*
X27980D01*
X30450Y4700D01*
G01X33470Y15930D02*
Y24490D01*
X33260Y24700D01*
G01X25380D02*
X24650Y25430D01*
Y29800D01*
X27880Y33030D01*
Y36590D01*
G01X36540D02*
X50260D01*
X51150Y35700D01*
G01X30350Y76680D02*
X33530D01*
G01X33080Y82870D02*
Y77130D01*
X33530Y76680D01*
G01D02*
X33810Y76400D01*
G01X25350Y76680D02*
X30350D01*
G01X26200Y82720D02*
X32930D01*
X33080Y82870D01*
G01X54630Y-76820D02*
X59520D01*
G01X41690Y76400D02*
Y82140D01*
X40960Y82870D01*
G01X47750Y89210D02*
X42640D01*
X40100Y91750D01*
G01X44350Y96700D02*
X48140D01*
G01X40960Y82870D02*
X49670D01*
X52800Y86000D01*
Y92040D01*
X48140Y96700D01*
G01X72390Y-83860D02*
X82070D01*
X82810Y-83120D01*
G01X72390Y-61810D02*
X79950D01*
X82760Y-59000D01*
G01X55680Y-53620D02*
X60570D01*
G01X91150Y-74510D02*
Y-82660D01*
X90690Y-83120D01*
G01X98030Y-83510D02*
X91080D01*
X90690Y-83120D01*
G01X91150Y-70170D02*
Y-66450D01*
X90700Y-66000D01*
G01X91050Y-51620D02*
Y-58590D01*
X90640Y-59000D01*
G01X96830Y-59310D02*
X90950D01*
X90640Y-59000D01*
G01X98030Y-91390D02*
X92400D01*
G01X96830Y-67190D02*
Y-72470D01*
G01X91050Y-47280D02*
X95680D01*
G01X110540Y148060D02*
X103670D01*
X103610Y148000D01*
G01D02*
X96850D01*
G01X103610Y156660D02*
Y165140D01*
G01X110540Y155940D02*
X104330D01*
X103610Y156660D01*
G01X121730Y102340D02*
Y106720D01*
X119500Y108950D01*
G01X117360Y147910D02*
X110690D01*
X110540Y148060D01*
G01D02*
Y136260D01*
G01X126130Y156320D02*
X126070D01*
X124200Y154450D01*
X123550D01*
X117360Y148260D01*
Y147910D01*
G01X110540Y155940D02*
Y164540D01*
G01X129610Y102340D02*
X133200D01*
G01D02*
X137130D01*
X137360Y102570D01*
G01Y109460D02*
Y102570D01*
G01X126130Y156320D02*
X126000Y156450D01*
G01X133280Y156320D02*
X126130D01*
G01X136100Y156600D02*
X139550D01*
X139630Y156520D01*
G01X146530Y156570D02*
X139680D01*
X139630Y156520D01*
G01D02*
X133480D01*
X133280Y156320D01*
G01X157050Y42660D02*
X159990D01*
X162650Y40000D01*
Y38150D01*
X162950Y37850D01*
G01X157050Y50540D02*
Y52550D01*
X159300Y54800D01*
G01X170640Y105340D02*
X170250Y104950D01*
Y100800D01*
X162850Y93400D01*
X155900D01*
X149960Y99340D01*
Y102570D01*
G01X156380Y120210D02*
Y127760D01*
X154470Y129670D01*
G01X152530Y156320D02*
X146780D01*
X146530Y156570D01*
G01X173750Y-8300D02*
X174250D01*
X174530Y-8020D01*
X177480D01*
X181370Y-4130D01*
G01X170640Y105340D02*
X179270D01*
X179430Y105180D01*
G01Y113060D02*
X171410D01*
X168080Y116390D01*
G01D02*
X164260Y120210D01*
G01X186070Y113120D02*
X179490D01*
X179430Y113060D01*
X-160350Y101450D03*
X-167580Y116580D03*
X-140500Y167000D03*
X-128750Y32100D03*
X-123450Y55650D03*
X-122250Y88850D03*
X-125050Y91400D03*
X-134250Y139600D03*
Y143470D03*
X-124450Y135000D03*
X-116650Y21300D03*
X-115500Y40800D03*
X-101550Y45280D03*
Y49600D03*
X-110300Y56300D03*
X-110400Y50250D03*
X-110250Y59250D03*
X-117050Y70850D03*
X-116300Y62500D03*
X-102350Y80100D03*
X-111600Y109510D03*
X-104390Y106310D03*
X-108800Y116000D03*
X-118400Y166350D03*
X-87740Y-19240D03*
X-101250Y6750D03*
X-97800Y17250D03*
X-100400Y29350D03*
X-87650Y30200D03*
X-96600Y28250D03*
X-84650Y43600D03*
X-92050Y29900D03*
X-92150Y44450D03*
X-101350Y36150D03*
X-97050Y46820D03*
X-88200Y46550D03*
X-98650Y79350D03*
X-95800Y77400D03*
X-89200Y67450D03*
X-92250Y95850D03*
X-100870Y100070D03*
X-87300Y113950D03*
X-95680Y108690D03*
X-90200Y104250D03*
X-88050Y108350D03*
X-93200Y101250D03*
X-90600Y99150D03*
X-85800Y98650D03*
X-87850Y100750D03*
X-84500Y101650D03*
X-87150Y127750D03*
X-96560Y115990D03*
X-78450Y43450D03*
X-83700Y30800D03*
X-71950Y40150D03*
X-81550Y43800D03*
X-79700Y30000D03*
X-71450Y45650D03*
X-73350Y64150D03*
X-67550Y79250D03*
X-71360Y78960D03*
X-66800Y87250D03*
X-66900Y90950D03*
X-70600Y113000D03*
X-80700Y112950D03*
X-74180Y107150D03*
X-82350Y104850D03*
X-77550Y109450D03*
X-80650Y107400D03*
X-74510Y127260D03*
X-78700Y127400D03*
X-63950Y-28400D03*
X-56200Y-15660D03*
X-60350Y-19450D03*
X-62650Y-13050D03*
X-58400Y79050D03*
X-62460Y77650D03*
X-52900Y92700D03*
X-53850Y84550D03*
X-64900Y106950D03*
X-59350Y123650D03*
X-50100Y126250D03*
X-54450Y124850D03*
X-59150Y119100D03*
X-61060Y167390D03*
X-32750Y9300D03*
X-47250Y-2850D03*
X-31910Y16710D03*
X-42810Y24590D03*
X-43050Y42850D03*
X-42350Y36750D03*
X-32880Y47050D03*
X-34800Y62400D03*
X-42710Y62350D03*
X-31700Y87800D03*
X-32300Y84000D03*
X-35350Y80450D03*
X-47300Y134050D03*
X-48500Y138250D03*
X-33020Y175320D03*
X-14900Y-14850D03*
X-19100Y-17600D03*
Y9110D03*
X-22800Y8950D03*
X-21150Y3550D03*
X-21100Y11550D03*
X-25250Y12250D03*
X-25330Y25350D03*
X-21300Y23350D03*
X-18100Y29350D03*
X-19700Y34350D03*
X-18950Y42150D03*
X-30350Y37190D03*
X-23800Y28600D03*
X-25410Y36050D03*
X-25000Y31650D03*
X-15000Y38550D03*
X-18300Y36950D03*
X-17100Y46900D03*
X-23240Y46710D03*
X-30250Y45500D03*
X-31250Y63400D03*
X-16650Y65100D03*
X-15300Y76650D03*
X-20600Y87800D03*
X-23300Y84950D03*
X-25750Y80250D03*
X-28450Y96600D03*
X-20850Y111250D03*
X-19700Y122900D03*
X-22850Y126000D03*
X-20900Y142750D03*
X-29300Y178050D03*
X-1750Y-37500D03*
X-11400Y-25650D03*
X-11350Y-12050D03*
X-8800Y-21000D03*
X2050Y8600D03*
X-5350Y800D03*
X-8400Y3200D03*
X-13000Y3050D03*
X1100Y-3050D03*
X-2200Y21500D03*
X-8350Y20450D03*
X-11900Y20150D03*
X-3000Y13700D03*
X-600Y15700D03*
X2450Y18900D03*
X-7500Y41300D03*
X-10250Y49400D03*
X3300Y63250D03*
X-10550Y62100D03*
X-850Y64550D03*
X-5000Y90700D03*
X-12850Y79700D03*
X-3800Y100700D03*
X-2700Y121800D03*
X1450Y137400D03*
X500Y142000D03*
X-7800Y136000D03*
X11250Y-43500D03*
X19000Y-40300D03*
X12300Y-1200D03*
X14800Y-3610D03*
X17550Y6790D03*
Y2920D03*
X4500Y11900D03*
X20510Y19860D03*
X7550Y38400D03*
X15750Y41750D03*
X5650Y28050D03*
X18250Y45950D03*
X8730Y112800D03*
X6450Y107950D03*
X11700Y97850D03*
X13050Y114300D03*
X10730Y125400D03*
X16350Y138650D03*
X19450Y146800D03*
X9640Y146750D03*
X6100Y144200D03*
X9650Y150300D03*
X35800Y-3950D03*
X22110Y-6550D03*
X34000Y5850D03*
X35750Y9500D03*
X20950Y35150D03*
X30300Y71500D03*
X28300Y68250D03*
X30110Y91940D03*
X25600Y110350D03*
X21890Y110540D03*
X35600Y108000D03*
X21850Y120700D03*
X22430Y146900D03*
X23050Y150050D03*
X47700Y18590D03*
X42400Y20590D03*
X50600Y14250D03*
X47450Y13990D03*
X46650Y23000D03*
X43450Y11990D03*
X53500Y39900D03*
X49900D03*
X38750Y30500D03*
X46250D03*
X53300Y30750D03*
X42600Y30600D03*
X50050Y30800D03*
X40900Y54750D03*
X48650Y55200D03*
X40100Y91750D03*
X44350Y96700D03*
X49350Y104850D03*
X46850Y102850D03*
X47100Y109750D03*
X51900Y109250D03*
X53600Y112370D03*
X44450Y120850D03*
X39750Y117500D03*
X45470Y124850D03*
X55600Y125850D03*
X49850Y138950D03*
X64950Y-12400D03*
X71800Y-7450D03*
X73150Y26250D03*
X56950Y40050D03*
X59700Y55750D03*
Y52500D03*
X60600Y78600D03*
X65150Y112050D03*
X56900Y105150D03*
X61250Y112050D03*
X69950Y123400D03*
X66700Y123300D03*
X65350Y139400D03*
X90050Y6450D03*
X85950Y-1950D03*
X73650Y7700D03*
X74750Y-3850D03*
X78300Y24550D03*
X78850Y14950D03*
X75500Y14850D03*
X77400Y34350D03*
X76300Y40650D03*
X82250Y29300D03*
X76300Y105250D03*
X73620Y123400D03*
X94370Y47670D03*
X107050Y48900D03*
X105580Y115820D03*
X120660Y-21360D03*
X124700Y57800D03*
X116620Y67180D03*
X110450Y66650D03*
X113570Y103080D03*
X116250Y125300D03*
X116620Y121230D03*
X142740Y-13090D03*
X135130Y-12630D03*
X128250Y-12800D03*
X142350Y13350D03*
X140850Y32900D03*
X127950Y48750D03*
X141650Y52550D03*
X126050Y86850D03*
X132350Y130300D03*
X134150Y121150D03*
X134450Y125200D03*
X140450Y134300D03*
X154250Y-12650D03*
X144330Y26180D03*
X146260Y16660D03*
X143750Y29750D03*
X150450Y83200D03*
X145700Y122550D03*
X154470Y129670D03*
X149250Y134750D03*
X153500Y145150D03*
X168080Y-13020D03*
X161400Y-12550D03*
X162050Y24050D03*
X173450Y34750D03*
X162950Y37850D03*
Y28250D03*
X163270Y32450D03*
X163450Y76150D03*
X162400Y132100D03*
G54D35*
X6260Y-80710D03*
G54D45*
G01X-147050Y-30750D02*
Y-26200D01*
X-138280Y-17430D01*
Y-16090D01*
G01Y-8210D02*
Y-1660D01*
X-137340Y-720D01*
G01D02*
Y8500D01*
X-136700Y9140D01*
G01X-141440Y41960D02*
X-141750Y41650D01*
Y36550D01*
X-137300Y32100D01*
X-128750D01*
G01X-138090Y127720D02*
X-137820Y127450D01*
X-124600D01*
X-115550Y118400D01*
X-102400D01*
X-97550Y113550D01*
X-94200D01*
X-90900Y116850D01*
X-68650D01*
X-61850Y123650D01*
X-59350D01*
G01X-140500Y167000D02*
X-138990Y165490D01*
Y158870D01*
G01X-136700Y9140D02*
Y17300D01*
X-136440Y17560D01*
G01X-116650Y21300D02*
X-120390Y17560D01*
X-126400D01*
G01X-133350Y51600D02*
X-136440Y48510D01*
Y41960D01*
G01X-131400D02*
Y49650D01*
X-133350Y51600D01*
G01X-133810Y55600D02*
Y52060D01*
X-133350Y51600D01*
G01X-133810Y64260D02*
Y72630D01*
X-133930Y72750D01*
G01X-122250Y88850D02*
X-94750D01*
X-92250Y86350D01*
X-76650D01*
X-69450Y93550D01*
Y113000D01*
G01X-130940Y174950D02*
X-121530D01*
X-112440Y184040D01*
G01X-35350Y80450D02*
X-36190Y81290D01*
X-37900D01*
X-38010Y81400D01*
X-40090D01*
X-40790Y82100D01*
X-96120D01*
X-96170Y82050D01*
X-97830D01*
X-97880Y82100D01*
X-109400D01*
X-117050Y74450D01*
Y70850D01*
G01X-102350Y80100D02*
X-102750Y79700D01*
Y79150D01*
X-103250Y78650D01*
Y70740D01*
X-104100Y69890D01*
G01X-89200Y67450D02*
X-89950Y66700D01*
X-96600D01*
X-101290Y62010D01*
X-104100D01*
G01X-104850Y147900D02*
X-106850Y149900D01*
X-110350D01*
X-115950Y155500D01*
Y163750D01*
X-105080Y174620D01*
X-101630D01*
X-89990Y186260D01*
X-28190D01*
X-16550Y174620D01*
X12930D01*
X17400Y170150D01*
X49400D01*
X51850Y172600D01*
X77300D01*
X83190Y166710D01*
Y159060D01*
G01X-83200Y870D02*
X-89140D01*
X-89200Y930D01*
G01X-83400Y-5980D02*
X-89120D01*
X-89530Y-6390D01*
G01X-87940Y74250D02*
X-89200Y72990D01*
Y67450D01*
G01X-95800Y77400D02*
X-94700Y78500D01*
X-89750D01*
X-87940Y76690D01*
Y74250D01*
G01X-96560Y115990D02*
Y129860D01*
X-99400Y132700D01*
Y167200D01*
X-94450Y172150D01*
Y178450D01*
X-88050Y184850D01*
X-28800D01*
X-16100Y172150D01*
X11550D01*
X15680Y168020D01*
X50470D01*
X53000Y170550D01*
X68150D01*
X73190Y165510D01*
Y159060D01*
G01X-94850Y145870D02*
X-95100Y145620D01*
Y141450D01*
X-92390Y138740D01*
Y137200D01*
G01X-86990Y137400D02*
X-92190D01*
X-92390Y137200D01*
G01X-86970Y145870D02*
X-82730D01*
X-82650Y145950D01*
G01X-72680Y-31660D02*
X-67210D01*
X-63950Y-28400D01*
G01X-80480Y-19480D02*
X-80240Y-19240D01*
G01X-56200Y-15660D02*
X-60510D01*
X-64090Y-19240D01*
X-72360D01*
G01X-60350Y-19450D02*
Y-19950D01*
X-65400Y-25000D01*
X-72600D01*
G01X-62650Y-13050D02*
X-63260Y-13660D01*
X-71710D01*
X-72030Y-13340D01*
G01X-75320Y870D02*
Y-5780D01*
X-75520Y-5980D01*
G01X-75320Y870D02*
X-69030D01*
X-68870Y1030D01*
G01D02*
X-61250D01*
X-61060Y1220D01*
G01X-80170Y8150D02*
Y12030D01*
X-76160Y16040D01*
G01X-68870Y-6850D02*
X-58050D01*
X-55250Y-9650D01*
G01X-67200Y8150D02*
X-71510D01*
G01X-67550Y79250D02*
Y77520D01*
X-67370Y77340D01*
Y69930D01*
X-69250Y68050D01*
X-71740D01*
G01X-70340Y74950D02*
Y77940D01*
X-71360Y78960D01*
G01D02*
X-77790D01*
X-79400Y77350D01*
Y74910D01*
X-80060Y74250D01*
G01X-69450Y113000D02*
X-70600D01*
G01X-30990Y125450D02*
X-35500Y120940D01*
X-42860D01*
X-43420Y121500D01*
X-60950D01*
X-69450Y113000D01*
G01X-82390Y121550D02*
Y123710D01*
X-78700Y127400D01*
G01X-69860Y145940D02*
X-68950Y145030D01*
Y141350D01*
X-73100Y137200D01*
X-73170D01*
G01D02*
X-78910D01*
X-79110Y137400D01*
G01X-77740Y145940D02*
X-82640D01*
X-82650Y145950D01*
G01X-54450Y124850D02*
X-62300Y132700D01*
Y145900D01*
X-67800Y151400D01*
Y163150D01*
X-69900Y165250D01*
Y171650D01*
G01X-72600Y179750D02*
X-70120D01*
X-69900Y179530D01*
G01D02*
X-65720Y175350D01*
X-54850D01*
X-48750Y169250D01*
X8900D01*
X12950Y165200D01*
X49250D01*
X53190Y161260D01*
Y159060D01*
G01X-69900Y179530D02*
X-75240D01*
X-75550Y179840D01*
G01X-61060Y1220D02*
X-61000Y1160D01*
Y-2050D01*
X-59270Y-3780D01*
X-51480D01*
X-47500Y200D01*
X-46000D01*
X-43850Y2350D01*
Y6050D01*
X-42850Y7050D01*
X-34400D01*
X-33450Y6100D01*
Y-800D01*
X-30750Y-3500D01*
X-28270D01*
G01X-53490Y8150D02*
Y12590D01*
X-56940Y16040D01*
G01X-38650Y11780D02*
X-43220D01*
X-46000Y9000D01*
Y3680D01*
X-48180Y1500D01*
X-52900D01*
X-53180Y1220D01*
G01X-62150Y8150D02*
X-67200D01*
G01X-66550Y16550D02*
Y8800D01*
X-67200Y8150D01*
G01X-62460Y77650D02*
Y74950D01*
G01X-56600Y71550D02*
X-57550Y70600D01*
X-60850D01*
X-63400Y68050D01*
X-63860D01*
G01X-52900Y92700D02*
Y94040D01*
X-55160Y96300D01*
G01D02*
Y101620D01*
X-60050Y106510D01*
G01X-50100Y126250D02*
X-57950Y134100D01*
Y163800D01*
X-61060Y166910D01*
Y167390D01*
G01X-54970Y179300D02*
X-57900D01*
G01X-54970D02*
X-55000Y179330D01*
G01D02*
X-61010D01*
X-61060Y179280D01*
G01X63190Y159060D02*
Y163610D01*
X58550Y168250D01*
X53950D01*
X52310Y166610D01*
X14340D01*
X10250Y170700D01*
X-46370D01*
X-54970Y179300D01*
G01X-61060Y171400D02*
Y167390D01*
G01X-38650Y3120D02*
Y2040D01*
X-49520Y-8830D01*
G01X-31910Y16710D02*
X-34530D01*
X-37820Y20000D01*
G01X-32750Y9300D02*
Y10350D01*
X-34550Y12150D01*
X-38280D01*
X-38650Y11780D01*
G01X-33350Y68050D02*
Y67570D01*
G01X134150Y121150D02*
X128000D01*
X120450Y128700D01*
X105920D01*
X95700Y118480D01*
X49990D01*
X31810Y100300D01*
X14500D01*
X12550Y102250D01*
X10850D01*
X9740Y101140D01*
X-1410D01*
X-2970Y102700D01*
X-4630D01*
X-6190Y101140D01*
X-16990D01*
X-28330Y89800D01*
X-34550D01*
Y86250D01*
X-32300Y84000D01*
G01X146600Y121800D02*
X138400Y113600D01*
X117550D01*
X113200Y117950D01*
X102600D01*
X99080Y114430D01*
X50610D01*
X49100Y112920D01*
Y108920D01*
X47930Y107750D01*
X43230D01*
X39740Y104260D01*
Y104090D01*
X31500Y95850D01*
X10870D01*
X10270Y96450D01*
X-17720D01*
X-26700Y87470D01*
Y85190D01*
X-28690Y83200D01*
X-30270D01*
X-32180Y81290D01*
X-34510D01*
X-35350Y80450D01*
G01X-39740Y96600D02*
Y104200D01*
X-40990Y105450D01*
G01X35800Y-3950D02*
X30350Y-9400D01*
X19000D01*
X15850Y-6250D01*
X11800D01*
X-6000Y11550D01*
X-21100D01*
G01X-19700Y34350D02*
Y34200D01*
X-17800Y32300D01*
X-8350D01*
X12150Y52800D01*
X26440D01*
X32440Y58800D01*
X108250D01*
X116620Y67180D01*
G01X126050Y86850D02*
X112980Y73780D01*
X111900D01*
X101540Y63420D01*
X30380D01*
X24160Y57200D01*
X-5280D01*
X-6880Y55600D01*
X-10600D01*
X-15000Y51200D01*
Y45850D01*
X-17580Y43270D01*
X-17830D01*
X-18950Y42150D01*
G01X-25410Y36050D02*
Y36290D01*
X-22050Y39650D01*
X-17500D01*
X-10250Y46900D01*
Y49400D01*
G01X-18300Y36950D02*
X-18000D01*
X-16250Y35200D01*
X-10700D01*
X8300Y54200D01*
X25860D01*
X31860Y60200D01*
X104000D01*
X110450Y66650D01*
G01X-17100Y46900D02*
Y46950D01*
X-17000Y47050D01*
Y51200D01*
X-10900Y57300D01*
X-7170D01*
X-5870Y58600D01*
X23580D01*
X29800Y64820D01*
X98570D01*
X105580Y71820D01*
Y115820D01*
G01X-31700Y87800D02*
X-31600Y87900D01*
X-28250D01*
X-17600Y98550D01*
X9570D01*
X10870Y99850D01*
X12530D01*
X13830Y98550D01*
X32050D01*
X50570Y117070D01*
X96270D01*
X105600Y126400D01*
X115150D01*
X116250Y125300D01*
G01X-31860Y96600D02*
X-28450D01*
G01X-10250Y49400D02*
Y50250D01*
X-4700Y55800D01*
X24750D01*
X30970Y62020D01*
X102120D01*
X112470Y72370D01*
X114520D01*
X118300Y76150D01*
X163450D01*
G01X46860Y174230D02*
X19300D01*
G01X30300Y71500D02*
Y76630D01*
X30350Y76680D01*
G01X33810Y76400D02*
Y82140D01*
X33080Y82870D01*
G01X29440Y134500D02*
Y136040D01*
X34210Y140810D01*
G01X47750Y97090D02*
X44740D01*
X44350Y96700D01*
G01X47750Y97090D02*
X48140Y96700D01*
G01X85950Y-1950D02*
Y5950D01*
X96660Y16660D01*
X146260D01*
G01X73150Y26250D02*
X77170D01*
X77470Y26550D01*
X79130D01*
X79430Y26250D01*
X80700D01*
X82990Y23960D01*
X137960D01*
X143750Y29750D01*
G01X77400Y34350D02*
X139400D01*
X140850Y32900D01*
G01X90050Y6450D02*
Y7220D01*
X91900Y9070D01*
Y9150D01*
X96100Y13350D01*
X142350D01*
G01X107050Y48900D02*
X115800D01*
X124700Y57800D01*
G01X133280Y148440D02*
Y131230D01*
X132350Y130300D01*
G01X134450Y125200D02*
X134400Y125150D01*
X129550D01*
X128050Y126650D01*
Y144700D01*
X126000Y146750D01*
Y148570D01*
G01X149960Y109460D02*
X152810D01*
X160000Y116650D01*
Y131300D01*
X158000Y133300D01*
X150630D01*
X150080Y132750D01*
X148420D01*
X147870Y133300D01*
X142850D01*
X134750Y125200D01*
X134450D01*
G01X140450Y134300D02*
X140850Y134700D01*
Y143300D01*
X139630Y144520D01*
Y148640D01*
G01X161980Y101600D02*
X161650D01*
X157400Y97350D01*
G01X145700Y122550D02*
X145850D01*
X146600Y121800D01*
G01X154470Y129670D02*
X146600Y121800D01*
G01X149250Y134750D02*
Y143900D01*
X146530Y146620D01*
Y148690D01*
G01X153500Y145150D02*
X153300D01*
G01D02*
X152530Y145920D01*
Y148440D01*
G01X153300Y145150D02*
X154600Y143850D01*
G01X185060Y12360D02*
X173150Y24270D01*
Y34450D01*
X173450Y34750D01*
G01X164260Y120210D02*
X164490D01*
X171000Y113700D01*
X178790D01*
X179430Y113060D01*
G01X161980Y109080D02*
Y114270D01*
G01X189000Y-4240D02*
Y-16120D01*
X186860Y-18260D01*
G01X185060Y12360D02*
Y3880D01*
X185300Y3640D01*
G01D02*
X181480D01*
X181370Y3750D01*
G01X189000Y3640D02*
X185300D01*
G01X186070Y121000D02*
Y128820D01*
G54D18*
X-166310Y123800D03*
X-138090Y127720D03*
X-64910Y-66460D03*
X-56840Y-31010D03*
X-30990Y105450D03*
X-2800Y159010D03*
X83190Y-31010D03*
Y159060D03*
G54D27*
X-133810Y55600D03*
Y64260D03*
X-82750Y62530D03*
Y53870D03*
X-38650Y3120D03*
Y11780D03*
X-37460Y28440D03*
Y37100D03*
X103610Y148000D03*
Y156660D03*
X117360Y147910D03*
Y156570D03*
G54D36*
X6260Y-65750D03*
G54D46*
G01X-141600Y149050D02*
Y148850D01*
X-139100Y146350D01*
Y145530D01*
G01X-54960Y-58480D02*
X-51720Y-61720D01*
Y-63270D01*
X-54910Y-66460D01*
G01X-46790Y-58470D02*
X-47090D01*
X-50220Y-61600D01*
Y-63270D01*
X-47030Y-66460D01*
G01X-53550Y-52030D02*
Y-57070D01*
X-54960Y-58480D01*
G01X-64360Y100010D02*
Y97620D01*
X-63040Y96300D01*
G01X-48000Y-52080D02*
X-46790Y-53290D01*
Y-58470D01*
G01X21890Y110540D02*
X21670Y110320D01*
Y108560D01*
X19360Y106250D01*
G01X25600Y110350D02*
X25420Y110170D01*
Y108070D01*
X27240Y106250D01*
G54D28*
X-120630Y138390D03*
G54D19*
X-166310Y133800D03*
Y143800D03*
X-138090Y97720D03*
Y107720D03*
Y117720D03*
X-82800Y159010D03*
X-92800D03*
X-72800D03*
X-47030Y-66460D03*
X-54910D03*
X-46840Y-31010D03*
X-52800Y159010D03*
X-62800D03*
X-37030Y-66460D03*
X-36840Y-31010D03*
X-30990Y115450D03*
X-40990D03*
Y105450D03*
X-30990Y125450D03*
X-40990D03*
X-32800Y159010D03*
X-42800D03*
X-26840Y-31010D03*
X-16840D03*
X-12800Y159010D03*
X-22800D03*
X-6840Y-31010D03*
X3160D03*
X13160D03*
X23190Y159060D03*
X13190D03*
X33190Y-31010D03*
Y159060D03*
X53190Y-31010D03*
X43190D03*
X53190Y159060D03*
X43190D03*
X73190Y-31010D03*
X63190D03*
X73190Y159060D03*
X63190D03*
G54D37*
X37710Y-83860D03*
Y-61810D03*
X45590Y-93700D03*
Y-69290D03*
Y-47250D03*
X72390Y-83860D03*
Y-61810D03*
X80270Y-93700D03*
Y-69290D03*
Y-47250D03*
G54D29*
X-124450Y138390D03*
X-128270D03*
Y149410D03*
X-120630D03*
G54D38*
X113040Y-71320D03*
X158080D03*
G54D39*
X91150Y-70170D03*
Y-74510D03*
X91050Y-47280D03*
Y-51620D03*
M02*
