G04 CAM350 V9.5.1 (Build 211) Date:  Mon Jun 16 19:21:36 2014 *
G04 Database: e:\a\pegasus.cam *
G04 Layer 5: BOTTOM.art *
%FSLAX55Y55*%
%MOIN*%
%SFA1.000B1.000*%

%MIA0B0*%
%IPPOS*%
%ADD11C,0.05980*%
%ADD12R,0.06000X0.06000*%
%ADD14C,0.06000*%
%ADD15C,0.03000*%
%ADD16C,0.02000*%
%ADD17R,0.07000X0.07000*%
%ADD18C,0.07000*%
%ADD19C,0.15000*%
%ADD71C,0.00500*%
%ADD20C,0.02500*%
%ADD21C,0.14920*%
%ADD22O,0.11810X0.07870*%
%ADD23O,0.07870X0.11810*%
%ADD24O,0.10240X0.07090*%
%ADD25C,0.15750*%
%ADD26C,0.08660*%
%ADD27C,0.03540*%
%ADD28C,0.00800*%
%ADD72C,0.01000*%
%ADD46C,0.24020*%
%ADD47R,0.12600X0.09840*%
%ADD48R,0.09840X0.25590*%
%ADD49O,0.02000X0.06600*%
%ADD50C,0.05000*%
%ADD51O,0.01700X0.03600*%
%ADD52R,0.02000X0.06600*%
%ADD53R,0.01700X0.03600*%
%ADD54R,0.05120X0.04720*%
%ADD55R,0.02360X0.02360*%
%ADD56R,0.04720X0.05120*%
%ADD57R,0.04500X0.04500*%
%ADD58R,0.03540X0.04720*%
%ADD59R,0.05510X0.03940*%
%ADD60R,0.03940X0.05510*%
%ADD61R,0.07090X0.04720*%
%ADD62R,0.03940X0.03940*%
%LNBOTTOM.art*%
%LPD*%
G54D46*
X-183070Y-88590D03*
Y187010D03*
X183070Y-88590D03*
Y187010D03*
G54D11*
X-191850Y-70790D03*
Y-60790D03*
Y-50790D03*
Y-40790D03*
Y-30790D03*
Y-20790D03*
Y-10790D03*
Y-790D03*
Y9210D03*
Y19210D03*
Y29210D03*
Y39210D03*
Y49210D03*
Y59210D03*
Y69210D03*
Y79210D03*
Y89210D03*
Y99210D03*
Y109210D03*
Y119210D03*
Y129210D03*
Y139210D03*
Y149210D03*
Y159210D03*
Y169210D03*
X-181850Y-60790D03*
Y-50790D03*
Y-40790D03*
Y-30790D03*
Y-20790D03*
Y-10790D03*
Y-790D03*
Y9210D03*
Y19210D03*
Y29210D03*
Y39210D03*
Y49210D03*
Y59210D03*
Y69210D03*
Y79210D03*
Y89210D03*
Y99210D03*
Y109210D03*
Y119210D03*
Y129210D03*
Y139210D03*
Y149210D03*
Y159210D03*
Y169210D03*
X-112440Y184040D03*
X19300Y174230D03*
Y191950D03*
X46860Y174230D03*
Y191950D03*
G54D47*
X-152050Y157180D03*
Y174420D03*
G54D62*
X-138280Y-8210D03*
Y-16090D03*
X-119720Y26930D03*
Y34810D03*
X-133930Y72750D03*
Y80630D03*
X-130940Y167070D03*
Y174950D03*
X-104100Y62010D03*
Y69890D03*
X-114180Y145330D03*
Y137450D03*
X-89530Y-14270D03*
X-89200Y8810D03*
Y930D03*
X-89530Y-6390D03*
X-68870Y-6850D03*
Y1030D03*
X-69900Y171650D03*
Y179530D03*
X-53550Y-52030D03*
Y-44150D03*
X-60050Y106510D03*
Y114390D03*
X-61060Y171400D03*
Y179280D03*
X-48000Y-52080D03*
Y-44200D03*
X-28270Y-3500D03*
Y4380D03*
X-30000Y23410D03*
Y31290D03*
X13550Y17510D03*
Y25390D03*
X25330Y-710D03*
Y7170D03*
X54630Y-76820D03*
Y-84700D03*
X55680Y-61500D03*
Y-53620D03*
X47750Y89210D03*
Y97090D03*
X98030Y-91390D03*
Y-83510D03*
X96830Y-67190D03*
Y-59310D03*
X110540Y148060D03*
X126000Y148570D03*
X110540Y155940D03*
X126000Y156450D03*
X133280Y148440D03*
X139630Y148640D03*
X133280Y156320D03*
X139630Y156520D03*
X157050Y42660D03*
Y50540D03*
X146530Y148690D03*
X152530Y148440D03*
X146530Y156570D03*
X152530Y156320D03*
X189000Y-4240D03*
Y3640D03*
X181370Y3750D03*
Y-4130D03*
X186070Y113120D03*
X179430Y105180D03*
Y113060D03*
X186070Y121000D03*
G54D12*
X-181850Y-70790D03*
X-102440Y184040D03*
X171960Y124950D03*
G54D20*
X-111830Y-30980D03*
X-106830Y159020D03*
X93170Y-10980D03*
Y99020D03*
G54D62*
X-136700Y9140D03*
X-137340Y-720D03*
X-149500Y135910D03*
X-141620D03*
X-151490Y146320D03*
X-143610D03*
X-128820Y9140D03*
X-129460Y-720D03*
X-127340Y130500D03*
X-119460D03*
X-83400Y-5980D03*
X-83200Y870D03*
X-87940Y74250D03*
X-94850Y145870D03*
X-86970D03*
X-86990Y137400D03*
X-83430Y179840D03*
X-72680Y-31660D03*
X-80560D03*
X-72600Y-25000D03*
X-80480D03*
X-72360Y-19240D03*
X-80240D03*
X-72030Y-13340D03*
X-79910D03*
X-75520Y-5980D03*
X-75320Y870D03*
X-71740Y68050D03*
X-80060Y74250D03*
X-70340Y74950D03*
X-82390Y121550D03*
X-74510D03*
X-69860Y145940D03*
X-77740D03*
X-79110Y137400D03*
X-75550Y179840D03*
X-55980Y-93610D03*
X-61060Y1220D03*
X-53180D03*
X-63860Y68050D03*
X-62460Y74950D03*
X-55160Y96300D03*
X-63040D03*
X-55000Y179330D03*
X-48100Y-93610D03*
X-40410Y74220D03*
X-32530D03*
X-39740Y96600D03*
X-31860D03*
X-47120Y179330D03*
X17470Y76680D03*
X18320Y82720D03*
X19360Y106250D03*
X21560Y134500D03*
X33470Y15930D03*
X25590D03*
X33260Y24700D03*
X25380D03*
X25350Y76680D03*
X33810Y76400D03*
X33080Y82870D03*
X26200Y82720D03*
X27240Y106250D03*
X29440Y134500D03*
X41690Y76400D03*
X40960Y82870D03*
X82810Y-83120D03*
X90690D03*
X82760Y-59000D03*
X90640D03*
X121730Y102340D03*
X129610D03*
X156380Y120210D03*
X164260D03*
G54D26*
X105050Y-59310D03*
X166070D03*
G54D57*
X-171310Y-73390D03*
X-170110Y175420D03*
X183420Y-67380D03*
X185060Y12360D03*
X186940Y166530D03*
G54D50*
X-92390Y137200D03*
X-76160Y16040D03*
X-73170Y137200D03*
X-56940Y16040D03*
X181200Y32640D03*
Y51860D03*
G54D61*
X-64240Y-77740D03*
Y-90740D03*
G54D27*
X119960Y182480D03*
X151260D03*
G54D14*
X-155550Y-88350D03*
Y-58350D03*
Y-68350D03*
Y-48350D03*
X109460Y-90610D03*
X119460D03*
X118040Y-46320D03*
X128040D03*
X123040Y-36320D03*
X138040Y-46320D03*
X133040Y-36320D03*
X143040D03*
X161660Y-90610D03*
X151660D03*
X148040Y-46320D03*
X153040Y-36320D03*
X171960Y94950D03*
G54D49*
X-141440Y17560D03*
Y41960D03*
X-131400Y17560D03*
X-136440D03*
Y41960D03*
X-131400D03*
X-126400D03*
G54D60*
X-138990Y158870D03*
X-135250Y150210D03*
X-131510Y158870D03*
X-52050Y-76890D03*
X-55790Y-85550D03*
X-48310D03*
X-37700Y-76700D03*
X-41440Y-85360D03*
X-33960D03*
G54D58*
X137360Y102570D03*
Y109460D03*
X149960Y102570D03*
Y109460D03*
G54D15*
X-157950Y26450D03*
X-147050Y-30750D03*
X-136850Y28550D03*
X-141600Y149050D03*
X-149700Y185100D03*
X-144600D03*
X-126260Y-13350D03*
X-132000Y-23200D03*
X-131400Y23300D03*
X-118750Y14450D03*
X-129950Y92900D03*
X-120050Y161750D03*
X-122050Y169050D03*
X-114150Y31550D03*
X-109900Y123900D03*
X-104850Y147900D03*
X-114900Y173550D03*
X-98250Y-33450D03*
X-87200Y16400D03*
X-87690Y179840D03*
X-71480Y-58480D03*
X-66550Y16550D03*
X-73250Y29950D03*
X-76250Y55700D03*
X-82650Y145950D03*
X-72600Y179750D03*
X-64240Y-86460D03*
X-55250Y-9650D03*
X-65750Y30150D03*
X-65150Y44690D03*
X-59570Y36040D03*
X-49100Y55000D03*
X-56600Y71550D03*
X-59020Y66430D03*
X-64360Y100010D03*
X-57900Y179300D03*
X-41440Y-93210D03*
X-34650Y-7700D03*
X-44900Y39100D03*
X-45300Y27740D03*
X-33000Y52300D03*
X-39050Y78900D03*
X-33350Y68050D03*
X-48250Y78750D03*
X-39840Y87960D03*
X-43450Y173400D03*
X-19300Y-62950D03*
X-23250Y-44850D03*
X-29800Y10950D03*
X-29050Y15300D03*
X-30800Y41350D03*
X-14690Y178860D03*
X-15650Y191700D03*
X-5560Y-45160D03*
X-1850Y-20950D03*
X9890Y-52490D03*
X15750Y11200D03*
X19500Y15100D03*
X20450Y27900D03*
X7950Y154600D03*
X36860Y2540D03*
X30450Y4700D03*
X34210Y140810D03*
X41200Y4000D03*
X51150Y35700D03*
X47350Y148290D03*
X44090Y140410D03*
X59520Y-76820D03*
X60570Y-53620D03*
X64200Y148840D03*
X59060Y140960D03*
X90700Y-66000D03*
X86770Y75930D03*
X81350Y69850D03*
X80050Y88350D03*
Y81300D03*
X83610Y140410D03*
X74010Y140760D03*
X92400Y-91390D03*
X96830Y-72470D03*
X95680Y-47280D03*
X98430Y7920D03*
X92240Y2610D03*
X96850Y148000D03*
X103610Y165140D03*
X117400Y-16550D03*
X114840Y-2340D03*
X120050Y4950D03*
X110600Y20050D03*
X112010Y28240D03*
X119500Y108950D03*
X110540Y136260D03*
X121450Y163850D03*
X110540Y164540D03*
X139000Y-560D03*
X138670Y45600D03*
X134020D03*
X140950Y65300D03*
X133200Y102340D03*
X136100Y156600D03*
X150110Y-25660D03*
X151900Y13500D03*
X150080Y40640D03*
X145430D03*
X151900Y49100D03*
X159300Y54800D03*
X150570Y67070D03*
X157400Y97350D03*
X144770Y130020D03*
X173750Y-8300D03*
X164400Y-130D03*
X164830Y14420D03*
X176200Y27950D03*
X172980Y53820D03*
X175560Y69990D03*
X161980Y114270D03*
X168080Y116390D03*
X170420Y142130D03*
X184550Y-42900D03*
X186860Y-18260D03*
X186070Y128820D03*
G54D21*
X-76950Y-75120D03*
X-26170D03*
G54D59*
X161980Y109080D03*
Y101600D03*
X170640Y105340D03*
G54D56*
X-80170Y8150D03*
X-71510D03*
X-67360Y53550D03*
X-67680Y61750D03*
X-54960Y-58480D03*
X-63620D03*
X-49520Y-8830D03*
X-49690Y-16230D03*
X-53490Y8150D03*
X-62150D03*
X-57730Y34200D03*
X-49070D03*
X-59570Y43800D03*
X-50910D03*
X-58700Y53550D03*
X-59020Y61750D03*
X-46790Y-58470D03*
X-38130D03*
X-40860Y-8830D03*
X-41030Y-16230D03*
X-46480Y20000D03*
X-37820D03*
X-42910Y57530D03*
X-34250D03*
X-45750Y67270D03*
X-37090D03*
X1950Y-19800D03*
X2450Y-12200D03*
X10610Y-19800D03*
X11110Y-12200D03*
X36540Y36590D03*
X27880D03*
G54D48*
X-167320Y63960D03*
X-23620D03*
G54D19*
X-113140Y-84180D03*
Y-60560D03*
X-94240Y-72370D03*
G54D52*
X-126400Y17560D03*
G54D16*
X-160350Y101450D03*
X-167580Y116580D03*
X-140500Y167000D03*
X-128750Y32100D03*
X-123450Y55650D03*
X-122250Y88850D03*
X-125050Y91400D03*
X-134250Y139600D03*
Y143470D03*
X-124450Y135000D03*
X-116650Y21300D03*
X-115500Y40800D03*
X-101550Y45280D03*
Y49600D03*
X-110300Y56300D03*
X-110400Y50250D03*
X-110250Y59250D03*
X-117050Y70850D03*
X-116300Y62500D03*
X-102350Y80100D03*
X-111600Y109510D03*
X-104390Y106310D03*
X-108800Y116000D03*
X-118400Y166350D03*
X-87740Y-19240D03*
X-101250Y6750D03*
X-97800Y17250D03*
X-100400Y29350D03*
X-87650Y30200D03*
X-96600Y28250D03*
X-84650Y43600D03*
X-92050Y29900D03*
X-92150Y44450D03*
X-101350Y36150D03*
X-97050Y46820D03*
X-88200Y46550D03*
X-98650Y79350D03*
X-95800Y77400D03*
X-89200Y67450D03*
X-92250Y95850D03*
X-100870Y100070D03*
X-87300Y113950D03*
X-95680Y108690D03*
X-90200Y104250D03*
X-88050Y108350D03*
X-93200Y101250D03*
X-90600Y99150D03*
X-85800Y98650D03*
X-87850Y100750D03*
X-84500Y101650D03*
X-87150Y127750D03*
X-96560Y115990D03*
X-78450Y43450D03*
X-83700Y30800D03*
X-71950Y40150D03*
X-81550Y43800D03*
X-79700Y30000D03*
X-71450Y45650D03*
X-73350Y64150D03*
X-67550Y79250D03*
X-71360Y78960D03*
X-66800Y87250D03*
X-66900Y90950D03*
X-70600Y113000D03*
X-80700Y112950D03*
X-74180Y107150D03*
X-82350Y104850D03*
X-77550Y109450D03*
X-80650Y107400D03*
X-74510Y127260D03*
X-78700Y127400D03*
X-63950Y-28400D03*
X-56200Y-15660D03*
X-60350Y-19450D03*
X-62650Y-13050D03*
X-58400Y79050D03*
X-62460Y77650D03*
X-52900Y92700D03*
X-53850Y84550D03*
X-64900Y106950D03*
X-59350Y123650D03*
X-50100Y126250D03*
X-54450Y124850D03*
X-59150Y119100D03*
X-61060Y167390D03*
X-32750Y9300D03*
X-47250Y-2850D03*
X-31910Y16710D03*
X-42810Y24590D03*
X-43050Y42850D03*
X-42350Y36750D03*
X-32880Y47050D03*
X-34800Y62400D03*
X-42710Y62350D03*
X-31700Y87800D03*
X-32300Y84000D03*
X-35350Y80450D03*
X-47300Y134050D03*
X-48500Y138250D03*
X-33020Y175320D03*
X-14900Y-14850D03*
X-19100Y-17600D03*
Y9110D03*
X-22800Y8950D03*
X-21150Y3550D03*
X-21100Y11550D03*
X-25250Y12250D03*
X-25330Y25350D03*
X-21300Y23350D03*
X-18100Y29350D03*
X-19700Y34350D03*
X-18950Y42150D03*
X-30350Y37190D03*
X-23800Y28600D03*
X-25410Y36050D03*
X-25000Y31650D03*
X-15000Y38550D03*
X-18300Y36950D03*
X-17100Y46900D03*
X-23240Y46710D03*
X-30250Y45500D03*
X-31250Y63400D03*
X-16650Y65100D03*
X-15300Y76650D03*
X-20600Y87800D03*
X-23300Y84950D03*
X-25750Y80250D03*
X-28450Y96600D03*
X-20850Y111250D03*
X-19700Y122900D03*
X-22850Y126000D03*
X-20900Y142750D03*
X-29300Y178050D03*
X-1750Y-37500D03*
X-11400Y-25650D03*
X-11350Y-12050D03*
X-8800Y-21000D03*
X2050Y8600D03*
X-5350Y800D03*
X-8400Y3200D03*
X-13000Y3050D03*
X1100Y-3050D03*
X-2200Y21500D03*
X-8350Y20450D03*
X-11900Y20150D03*
X-3000Y13700D03*
X-600Y15700D03*
X2450Y18900D03*
X-7500Y41300D03*
X-10250Y49400D03*
X3300Y63250D03*
X-10550Y62100D03*
X-850Y64550D03*
X-5000Y90700D03*
X-12850Y79700D03*
X-3800Y100700D03*
X-2700Y121800D03*
X1450Y137400D03*
X500Y142000D03*
X-7800Y136000D03*
X11250Y-43500D03*
X19000Y-40300D03*
X12300Y-1200D03*
X14800Y-3610D03*
X17550Y6790D03*
Y2920D03*
X4500Y11900D03*
X20510Y19860D03*
X7550Y38400D03*
X15750Y41750D03*
X5650Y28050D03*
X18250Y45950D03*
X8730Y112800D03*
X6450Y107950D03*
X11700Y97850D03*
X13050Y114300D03*
X10730Y125400D03*
X16350Y138650D03*
X19450Y146800D03*
X9640Y146750D03*
X6100Y144200D03*
X9650Y150300D03*
X35800Y-3950D03*
X22110Y-6550D03*
X34000Y5850D03*
X35750Y9500D03*
X20950Y35150D03*
X30300Y71500D03*
X28300Y68250D03*
X30110Y91940D03*
X25600Y110350D03*
X21890Y110540D03*
X35600Y108000D03*
X21850Y120700D03*
X22430Y146900D03*
X23050Y150050D03*
X47700Y18590D03*
X42400Y20590D03*
X50600Y14250D03*
X47450Y13990D03*
X46650Y23000D03*
X43450Y11990D03*
X53500Y39900D03*
X49900D03*
X38750Y30500D03*
X46250D03*
X53300Y30750D03*
X42600Y30600D03*
X50050Y30800D03*
X40900Y54750D03*
X48650Y55200D03*
X40100Y91750D03*
X44350Y96700D03*
X49350Y104850D03*
X46850Y102850D03*
X47100Y109750D03*
X51900Y109250D03*
X53600Y112370D03*
X44450Y120850D03*
X39750Y117500D03*
X45470Y124850D03*
X55600Y125850D03*
X49850Y138950D03*
X64950Y-12400D03*
X71800Y-7450D03*
X73150Y26250D03*
X56950Y40050D03*
X59700Y55750D03*
Y52500D03*
X60600Y78600D03*
X65150Y112050D03*
X56900Y105150D03*
X61250Y112050D03*
X69950Y123400D03*
X66700Y123300D03*
X65350Y139400D03*
X90050Y6450D03*
X85950Y-1950D03*
X73650Y7700D03*
X74750Y-3850D03*
X78300Y24550D03*
X78850Y14950D03*
X75500Y14850D03*
X77400Y34350D03*
X76300Y40650D03*
X82250Y29300D03*
X76300Y105250D03*
X73620Y123400D03*
X94370Y47670D03*
X107050Y48900D03*
X105580Y115820D03*
X120660Y-21360D03*
X124700Y57800D03*
X116620Y67180D03*
X110450Y66650D03*
X113570Y103080D03*
X116250Y125300D03*
X116620Y121230D03*
X142740Y-13090D03*
X135130Y-12630D03*
X128250Y-12800D03*
X142350Y13350D03*
X140850Y32900D03*
X127950Y48750D03*
X141650Y52550D03*
X126050Y86850D03*
X132350Y130300D03*
X134150Y121150D03*
X134450Y125200D03*
X140450Y134300D03*
X154250Y-12650D03*
X144330Y26180D03*
X146260Y16660D03*
X143750Y29750D03*
X150450Y83200D03*
X145700Y122550D03*
X154470Y129670D03*
X149250Y134750D03*
X153500Y145150D03*
X168080Y-13020D03*
X161400Y-12550D03*
X162050Y24050D03*
X173450Y34750D03*
X162950Y37850D03*
Y28250D03*
X163270Y32450D03*
X163450Y76150D03*
X162400Y132100D03*
G54D22*
X6260Y-80710D03*
G54D17*
X-166310Y123800D03*
X-138090Y127720D03*
X-64910Y-66460D03*
X-56840Y-31010D03*
X-30990Y105450D03*
X-2800Y159010D03*
X83190Y-31010D03*
Y159060D03*
G54D54*
X-133810Y55600D03*
Y64260D03*
X-82750Y62530D03*
Y53870D03*
X-38650Y3120D03*
Y11780D03*
X-37460Y28440D03*
Y37100D03*
X103610Y148000D03*
Y156660D03*
X117360Y147910D03*
Y156570D03*
G54D23*
X6260Y-65750D03*
G54D53*
X-120630Y138390D03*
G54D18*
X-166310Y133800D03*
Y143800D03*
X-138090Y97720D03*
Y107720D03*
Y117720D03*
X-82800Y159010D03*
X-92800D03*
X-72800D03*
X-47030Y-66460D03*
X-54910D03*
X-46840Y-31010D03*
X-52800Y159010D03*
X-62800D03*
X-37030Y-66460D03*
X-36840Y-31010D03*
X-30990Y115450D03*
X-40990D03*
Y105450D03*
X-30990Y125450D03*
X-40990D03*
X-32800Y159010D03*
X-42800D03*
X-26840Y-31010D03*
X-16840D03*
X-12800Y159010D03*
X-22800D03*
X-6840Y-31010D03*
X3160D03*
X13160D03*
X23190Y159060D03*
X13190D03*
X33190Y-31010D03*
Y159060D03*
X53190Y-31010D03*
X43190D03*
X53190Y159060D03*
X43190D03*
X73190Y-31010D03*
X63190D03*
X73190Y159060D03*
X63190D03*
G54D24*
X37710Y-83860D03*
Y-61810D03*
X45590Y-93700D03*
Y-69290D03*
Y-47250D03*
X72390Y-83860D03*
Y-61810D03*
X80270Y-93700D03*
Y-69290D03*
Y-47250D03*
G54D51*
X-124450Y138390D03*
X-128270D03*
Y149410D03*
X-120630D03*
G54D25*
X113040Y-71320D03*
X158080D03*
G54D55*
X91150Y-70170D03*
Y-74510D03*
X91050Y-47280D03*
Y-51620D03*
G54D62*
X-104020Y-6930D03*
X-104130Y-14590D03*
G54D15*
X-131510Y158870D02*
G01Y166500D01*
X-130940Y167070*
X-122050Y169050D02*
G01X-128960D01*
X-130940Y167070*
X117360Y156570D02*
G01Y159760D01*
X121450Y163850*
G54D71*
X21560Y134500D02*
G01X20500D01*
X16350Y138650*
G54D16*
X-149500Y135910D02*
G01X-150310Y135100D01*
X-154800*
X-157600Y137900*
Y137900D02*
G01Y142050D01*
X-153330Y146320*
X-151490*
X-166310Y133800D02*
G01X-161700D01*
X-157600Y137900*
X-141440Y17560D02*
G01Y23960D01*
X-136850Y28550*
Y28550D02*
G01X-136350Y29050D01*
X-124500*
X-122380Y26930*
X-119720*
X-139100Y145530D02*
G01Y141700D01*
X-141620Y139180*
Y135910*
X-141750Y148180D02*
G01X-139100Y145530D01*
X-141750Y148180D02*
G01Y150100D01*
X-143610Y146320D02*
G01X-141750Y148180D01*
X-135250Y150210D02*
G01X-141640D01*
X-141750Y150100*
Y150100D02*
G01X-148830Y157180D01*
X-152050*
Y174420D02*
G01Y182750D01*
X-149700Y185100*
Y185100D02*
G01X-144600D01*
X-129460Y-720D02*
G01Y8500D01*
X-128820Y9140*
X-118750Y14450D02*
G01X-118950Y14250D01*
Y10800*
X-120610Y9140*
X-128820*
X-131400Y17560D02*
G01Y23300D01*
X-119720Y34810D02*
G01Y39620D01*
X-122060Y41960*
X-126400*
X-119720Y34810D02*
G01X-110610D01*
X-100000Y24200*
X-71700*
X-65750Y30150*
X-133930Y80630D02*
G01Y88920D01*
X-129950Y92900*
X-114180Y130500D02*
G01X-119460D01*
X-127340D02*
G01X-124450Y133390D01*
Y135000*
X-120630Y149410D02*
G01X-120490Y149550D01*
X-118050*
X-114180Y145680*
Y145330*
X-120630Y138390D02*
G01X-121050Y138810D01*
Y142050*
X-124600Y145600*
Y145600D02*
G01Y154200D01*
X-129270Y158870*
X-131510*
X-128270Y138390D02*
G01Y141930D01*
X-124600Y145600*
X-124450Y135000D02*
G01Y138390D01*
X-114150Y31550D02*
G01X-114100Y31500D01*
X-112950*
X-102150Y20700*
X-60950*
X-48200Y33450*
X-114180Y130500D02*
G01X-113850D01*
X-110250Y126900*
Y124250*
X-109900Y123900*
X-114180Y137450D02*
G01Y130500D01*
X-89530Y-14270D02*
G01Y-17450D01*
X-87740Y-19240*
X-80240D02*
G01X-87740D01*
X-89200Y8810D02*
G01Y14400D01*
X-87200Y16400*
X-83430Y179840D02*
G01X-87690D01*
X-63620Y-58480D02*
G01X-71480D01*
X-80560Y-31660D02*
G01Y-25080D01*
X-80480Y-25000*
X-80240Y-19240D02*
G01Y-13670D01*
Y-13670D02*
G01X-79910Y-13340D01*
X-80480Y-25000D02*
G01Y-19480D01*
Y-19480D02*
G01Y-13910D01*
X-80240Y-13670*
X-82750Y53870D02*
G01Y53200D01*
X-75200Y45650*
Y31900*
X-73250Y29950*
X-67680Y61750D02*
G01X-70200D01*
X-76250Y55700*
X-67360Y53550D02*
G01Y46090D01*
X-65960Y44690*
X-65150*
X-82750Y62530D02*
G01X-74970D01*
X-73350Y64150*
X-74510Y121550D02*
G01Y127260D01*
X-52050Y-76890D02*
G01X-63390D01*
X-64240Y-77740*
X-64910Y-66460D02*
G01Y-77070D01*
X-64240Y-77740*
Y-90740D02*
G01Y-86460D01*
X-55790Y-85550D02*
G01X-59050D01*
X-64240Y-90740*
X-55980Y-93610D02*
G01X-61370D01*
X-64240Y-90740*
X-63620Y-58480D02*
G01Y-48270D01*
X-59500Y-44150*
X-53550*
Y-44150D02*
G01X-48050D01*
X-48000Y-44200*
X-49690Y-16230D02*
G01Y-9000D01*
X-49520Y-8830*
X-55250Y-9650D02*
G01X-54100D01*
X-53280Y-8830*
X-49520*
X-48200Y33450D02*
G01X-48320D01*
X-49070Y34200*
Y34200D02*
G01X-48650Y34620D01*
Y38400*
X-50910Y40660*
Y43800*
X-59570Y36040D02*
G01X-57730Y34200D01*
X-65150Y44690D02*
G01X-64260Y43800D01*
X-59570*
Y43800D02*
G01Y36040D01*
X-58700Y53550D02*
G01X-50550D01*
X-49100Y55000*
X-59020Y61750D02*
G01Y66430D01*
X-60050Y114390D02*
G01Y118200D01*
X-59150Y119100*
X-48100Y-93610D02*
G01Y-85760D01*
X-48310Y-85550*
X-37700Y-76700D02*
G01X-38150Y-77150D01*
X-42150*
X-48310Y-83310*
Y-85550*
X-41440Y-85360D02*
G01Y-93210D01*
X-19300Y-62950D02*
G01X-15350Y-66900D01*
Y-82100*
X-23000Y-89750*
X-30550*
X-33960Y-86340*
Y-85360*
X-37030Y-66460D02*
G01Y-59570D01*
X-38130Y-58470*
X-48000Y-44200D02*
G01X-42750D01*
X-38130Y-48820*
Y-58470*
X-40860Y-8830D02*
G01X-35780D01*
X-34650Y-7700*
X-41030Y-16230D02*
G01Y-9000D01*
X-40860Y-8830*
X-46480Y20000D02*
G01Y20920D01*
X-42810Y24590*
X-37460Y28440D02*
G01X-38960D01*
X-42810Y24590*
X-36950Y37100D02*
G01X-39900Y34150D01*
X-47500*
X-48200Y33450*
X-36950Y37100D02*
G01Y37550D01*
X-33050Y41450*
X-30900*
X-30800Y41350*
X-37460Y37100D02*
G01X-36950D01*
X-31250Y63400D02*
G01Y61250D01*
X-34250Y58250*
Y57530*
X-42710Y62350D02*
G01X-42910Y62150D01*
Y62150D02*
G01Y57530D01*
X-32530Y74220D02*
G01X-32300Y73990D01*
Y68620*
X-33350Y67570*
Y67570D02*
G01X-33650Y67270D01*
X-37090*
X-40410Y74220D02*
G01X-41480Y73150D01*
X-42650*
Y73150D02*
G01X-48250Y78750D01*
X-42500Y62350D02*
G01X-42710D01*
X-45750Y67270D02*
G01Y66000D01*
X-42910Y63160*
Y62150*
X-45750Y67270D02*
G01Y70050D01*
X-42650Y73150*
X-47120Y179330D02*
G01Y177070D01*
X-43450Y173400*
X-28270Y4380D02*
G01Y9420D01*
X-29800Y10950*
X-29050Y15300D02*
G01X-28300Y16050D01*
Y20450*
X-30000Y22150*
Y23410*
X-25000Y31650D02*
G01X-29640D01*
X-30000Y31290*
X10610Y-19800D02*
G01Y-23560D01*
X3160Y-31010*
X1950Y-19800D02*
G01X-700D01*
X-1850Y-20950*
X2450Y-12200D02*
G01Y-19300D01*
X1950Y-19800*
X10610D02*
G01Y-12700D01*
X11110Y-12200*
X13550Y17510D02*
G01Y13400D01*
X15750Y11200*
X13550Y25390D02*
G01X17940D01*
X20450Y27900*
X19500Y15100D02*
G01X24760D01*
X25590Y15930*
X25380Y24700D02*
G01X23650D01*
X20450Y27900*
X18320Y82720D02*
G01Y77530D01*
X17470Y76680*
X18320Y82720D02*
G01Y85820D01*
X24350Y91850*
X40000*
X40100Y91750*
X54630Y-84700D02*
G01X38550D01*
X37710Y-83860*
X55680Y-61500D02*
G01X38020D01*
X37710Y-61810*
X25330Y-710D02*
G01X33610D01*
X36860Y2540*
X33470Y15930D02*
G01X39300Y10100D01*
Y7550*
X36860Y5110*
Y2540*
X25380Y24700D02*
G01Y7220D01*
X25330Y7170*
Y7170D02*
G01X27980D01*
X30450Y4700*
X33470Y15930D02*
G01Y24490D01*
X33260Y24700*
X25380D02*
G01X24650Y25430D01*
Y29800*
X27880Y33030*
Y36590*
X36540D02*
G01X50260D01*
X51150Y35700*
X30350Y76680D02*
G01X33530D01*
X33080Y82870D02*
G01Y77130D01*
X33530Y76680*
Y76680D02*
G01X33810Y76400D01*
X25350Y76680D02*
G01X30350D01*
X26200Y82720D02*
G01X32930D01*
X33080Y82870*
X54630Y-76820D02*
G01X59520D01*
X41690Y76400D02*
G01Y82140D01*
X40960Y82870*
X47750Y89210D02*
G01X42640D01*
X40100Y91750*
X44350Y96700D02*
G01X48140D01*
X40960Y82870D02*
G01X49670D01*
X52800Y86000*
Y92040*
X48140Y96700*
X72390Y-83860D02*
G01X82070D01*
X82810Y-83120*
X72390Y-61810D02*
G01X79950D01*
X82760Y-59000*
X55680Y-53620D02*
G01X60570D01*
X91150Y-74510D02*
G01Y-82660D01*
X90690Y-83120*
X98030Y-83510D02*
G01X91080D01*
X90690Y-83120*
X91150Y-70170D02*
G01Y-66450D01*
X90700Y-66000*
X91050Y-51620D02*
G01Y-58590D01*
X90640Y-59000*
X96830Y-59310D02*
G01X90950D01*
X90640Y-59000*
X98030Y-91390D02*
G01X92400D01*
X96830Y-67190D02*
G01Y-72470D01*
X91050Y-47280D02*
G01X95680D01*
X110540Y148060D02*
G01X103670D01*
X103610Y148000*
Y148000D02*
G01X96850D01*
X103610Y156660D02*
G01Y165140D01*
X110540Y155940D02*
G01X104330D01*
X103610Y156660*
X121730Y102340D02*
G01Y106720D01*
X119500Y108950*
X117360Y147910D02*
G01X110690D01*
X110540Y148060*
Y148060D02*
G01Y136260D01*
X126130Y156320D02*
G01X126070D01*
X124200Y154450*
X123550*
X117360Y148260*
Y147910*
X110540Y155940D02*
G01Y164540D01*
X129610Y102340D02*
G01X133200D01*
Y102340D02*
G01X137130D01*
X137360Y102570*
Y109460D02*
G01Y102570D01*
X126130Y156320D02*
G01X126000Y156450D01*
X133280Y156320D02*
G01X126130D01*
X136100Y156600D02*
G01X139550D01*
X139630Y156520*
X146530Y156570D02*
G01X139680D01*
X139630Y156520*
Y156520D02*
G01X133480D01*
X133280Y156320*
X157050Y42660D02*
G01X159990D01*
X162650Y40000*
Y38150*
X162950Y37850*
X157050Y50540D02*
G01Y52550D01*
X159300Y54800*
X170640Y105340D02*
G01X170250Y104950D01*
Y100800*
X162850Y93400*
X155900*
X149960Y99340*
Y102570*
X156380Y120210D02*
G01Y127760D01*
X154470Y129670*
X152530Y156320D02*
G01X146780D01*
X146530Y156570*
X173750Y-8300D02*
G01X174250D01*
X174530Y-8020*
X177480*
X181370Y-4130*
X170640Y105340D02*
G01X179270D01*
X179430Y105180*
Y113060D02*
G01X171410D01*
X168080Y116390*
Y116390D02*
G01X164260Y120210D01*
X186070Y113120D02*
G01X179490D01*
X179430Y113060*
G54D28*
X-147050Y-30750D02*
G01Y-26200D01*
X-138280Y-17430*
Y-16090*
Y-8210D02*
G01Y-1660D01*
X-137340Y-720*
Y-720D02*
G01Y8500D01*
X-136700Y9140*
X-141440Y41960D02*
G01X-141750Y41650D01*
Y36550*
X-137300Y32100*
X-128750*
X-138090Y127720D02*
G01X-137820Y127450D01*
X-124600*
X-115550Y118400*
X-102400*
X-97550Y113550*
X-94200*
X-90900Y116850*
X-68650*
X-61850Y123650*
X-59350*
X-140500Y167000D02*
G01X-138990Y165490D01*
Y158870*
X-136700Y9140D02*
G01Y17300D01*
X-136440Y17560*
X-116650Y21300D02*
G01X-120390Y17560D01*
X-126400*
X-133350Y51600D02*
G01X-136440Y48510D01*
Y41960*
X-131400D02*
G01Y49650D01*
X-133350Y51600*
X-133810Y55600D02*
G01Y52060D01*
X-133350Y51600*
X-133810Y64260D02*
G01Y72630D01*
X-133930Y72750*
X-122250Y88850D02*
G01X-94750D01*
X-92250Y86350*
X-76650*
X-69450Y93550*
Y113000*
X-130940Y174950D02*
G01X-121530D01*
X-112440Y184040*
X-35350Y80450D02*
G01X-36190Y81290D01*
X-37900*
X-38010Y81400*
X-40090*
X-40790Y82100*
X-96120*
X-96170Y82050*
X-97830*
X-97880Y82100*
X-109400*
X-117050Y74450*
Y70850*
X-102350Y80100D02*
G01X-102750Y79700D01*
Y79150*
X-103250Y78650*
Y70740*
X-104100Y69890*
X-89200Y67450D02*
G01X-89950Y66700D01*
X-96600*
X-101290Y62010*
X-104100*
X-104850Y147900D02*
G01X-106850Y149900D01*
X-110350*
X-115950Y155500*
Y163750*
X-105080Y174620*
X-101630*
X-89990Y186260*
X-28190*
X-16550Y174620*
X12930*
X17400Y170150*
X49400*
X51850Y172600*
X77300*
X83190Y166710*
Y159060*
X-83200Y870D02*
G01X-89140D01*
X-89200Y930*
X-83400Y-5980D02*
G01X-89120D01*
X-89530Y-6390*
X-87940Y74250D02*
G01X-89200Y72990D01*
Y67450*
X-95800Y77400D02*
G01X-94700Y78500D01*
X-89750*
X-87940Y76690*
Y74250*
X-96560Y115990D02*
G01Y129860D01*
X-99400Y132700*
Y167200*
X-94450Y172150*
Y178450*
X-88050Y184850*
X-28800*
X-16100Y172150*
X11550*
X15680Y168020*
X50470*
X53000Y170550*
X68150*
X73190Y165510*
Y159060*
X-94850Y145870D02*
G01X-95100Y145620D01*
Y141450*
X-92390Y138740*
Y137200*
X-86990Y137400D02*
G01X-92190D01*
X-92390Y137200*
X-86970Y145870D02*
G01X-82730D01*
X-82650Y145950*
X-72680Y-31660D02*
G01X-67210D01*
X-63950Y-28400*
X-80480Y-19480D02*
G01X-80240Y-19240D01*
X-56200Y-15660D02*
G01X-60510D01*
X-64090Y-19240*
X-72360*
X-60350Y-19450D02*
G01Y-19950D01*
X-65400Y-25000*
X-72600*
X-62650Y-13050D02*
G01X-63260Y-13660D01*
X-71710*
X-72030Y-13340*
X-75320Y870D02*
G01Y-5780D01*
X-75520Y-5980*
X-75320Y870D02*
G01X-69030D01*
X-68870Y1030*
Y1030D02*
G01X-61250D01*
X-61060Y1220*
X-80170Y8150D02*
G01Y12030D01*
X-76160Y16040*
X-68870Y-6850D02*
G01X-58050D01*
X-55250Y-9650*
X-67200Y8150D02*
G01X-71510D01*
X-67550Y79250D02*
G01Y77520D01*
X-67370Y77340*
Y69930*
X-69250Y68050*
X-71740*
X-70340Y74950D02*
G01Y77940D01*
X-71360Y78960*
Y78960D02*
G01X-77790D01*
X-79400Y77350*
Y74910*
X-80060Y74250*
X-69450Y113000D02*
G01X-70600D01*
X-30990Y125450D02*
G01X-35500Y120940D01*
X-42860*
X-43420Y121500*
X-60950*
X-69450Y113000*
X-82390Y121550D02*
G01Y123710D01*
X-78700Y127400*
X-69860Y145940D02*
G01X-68950Y145030D01*
Y141350*
X-73100Y137200*
X-73170*
Y137200D02*
G01X-78910D01*
X-79110Y137400*
X-77740Y145940D02*
G01X-82640D01*
X-82650Y145950*
X-54450Y124850D02*
G01X-62300Y132700D01*
Y145900*
X-67800Y151400*
Y163150*
X-69900Y165250*
Y171650*
X-72600Y179750D02*
G01X-70120D01*
X-69900Y179530*
Y179530D02*
G01X-65720Y175350D01*
X-54850*
X-48750Y169250*
X8900*
X12950Y165200*
X49250*
X53190Y161260*
Y159060*
X-69900Y179530D02*
G01X-75240D01*
X-75550Y179840*
X-61060Y1220D02*
G01X-61000Y1160D01*
Y-2050*
X-59270Y-3780*
X-51480*
X-47500Y200*
X-46000*
X-43850Y2350*
Y6050*
X-42850Y7050*
X-34400*
X-33450Y6100*
Y-800*
X-30750Y-3500*
X-28270*
X-53490Y8150D02*
G01Y12590D01*
X-56940Y16040*
X-38650Y11780D02*
G01X-43220D01*
X-46000Y9000*
Y3680*
X-48180Y1500*
X-52900*
X-53180Y1220*
X-62150Y8150D02*
G01X-67200D01*
X-66550Y16550D02*
G01Y8800D01*
X-67200Y8150*
X-62460Y77650D02*
G01Y74950D01*
X-56600Y71550D02*
G01X-57550Y70600D01*
X-60850*
X-63400Y68050*
X-63860*
X-52900Y92700D02*
G01Y94040D01*
X-55160Y96300*
Y96300D02*
G01Y101620D01*
X-60050Y106510*
X-50100Y126250D02*
G01X-57950Y134100D01*
Y163800*
X-61060Y166910*
Y167390*
X-54970Y179300D02*
G01X-57900D01*
X-54970D02*
G01X-55000Y179330D01*
Y179330D02*
G01X-61010D01*
X-61060Y179280*
X63190Y159060D02*
G01Y163610D01*
X58550Y168250*
X53950*
X52310Y166610*
X14340*
X10250Y170700*
X-46370*
X-54970Y179300*
X-61060Y171400D02*
G01Y167390D01*
X-38650Y3120D02*
G01Y2040D01*
X-49520Y-8830*
X-31910Y16710D02*
G01X-34530D01*
X-37820Y20000*
X-32750Y9300D02*
G01Y10350D01*
X-34550Y12150*
X-38280*
X-38650Y11780*
X-33350Y68050D02*
G01Y67570D01*
X134150Y121150D02*
G01X128000D01*
X120450Y128700*
X105920*
X95700Y118480*
X49990*
X31810Y100300*
X14500*
X12550Y102250*
X10850*
X9740Y101140*
X-1410*
X-2970Y102700*
X-4630*
X-6190Y101140*
X-16990*
X-28330Y89800*
X-34550*
Y86250*
X-32300Y84000*
X146600Y121800D02*
G01X138400Y113600D01*
X117550*
X113200Y117950*
X102600*
X99080Y114430*
X50610*
X49100Y112920*
Y108920*
X47930Y107750*
X43230*
X39740Y104260*
Y104090*
X31500Y95850*
X10870*
X10270Y96450*
X-17720*
X-26700Y87470*
Y85190*
X-28690Y83200*
X-30270*
X-32180Y81290*
X-34510*
X-35350Y80450*
X-39740Y96600D02*
G01Y104200D01*
X-40990Y105450*
X35800Y-3950D02*
G01X30350Y-9400D01*
X19000*
X15850Y-6250*
X11800*
X-6000Y11550*
X-21100*
X-19700Y34350D02*
G01Y34200D01*
X-17800Y32300*
X-8350*
X12150Y52800*
X26440*
X32440Y58800*
X108250*
X116620Y67180*
X126050Y86850D02*
G01X112980Y73780D01*
X111900*
X101540Y63420*
X30380*
X24160Y57200*
X-5280*
X-6880Y55600*
X-10600*
X-15000Y51200*
Y45850*
X-17580Y43270*
X-17830*
X-18950Y42150*
X-25410Y36050D02*
G01Y36290D01*
X-22050Y39650*
X-17500*
X-10250Y46900*
Y49400*
X-18300Y36950D02*
G01X-18000D01*
X-16250Y35200*
X-10700*
X8300Y54200*
X25860*
X31860Y60200*
X104000*
X110450Y66650*
X-17100Y46900D02*
G01Y46950D01*
X-17000Y47050*
Y51200*
X-10900Y57300*
X-7170*
X-5870Y58600*
X23580*
X29800Y64820*
X98570*
X105580Y71820*
Y115820*
X-31700Y87800D02*
G01X-31600Y87900D01*
X-28250*
X-17600Y98550*
X9570*
X10870Y99850*
X12530*
X13830Y98550*
X32050*
X50570Y117070*
X96270*
X105600Y126400*
X115150*
X116250Y125300*
X-31860Y96600D02*
G01X-28450D01*
X-10250Y49400D02*
G01Y50250D01*
X-4700Y55800*
X24750*
X30970Y62020*
X102120*
X112470Y72370*
X114520*
X118300Y76150*
X163450*
X46860Y174230D02*
G01X19300D01*
X30300Y71500D02*
G01Y76630D01*
X30350Y76680*
X33810Y76400D02*
G01Y82140D01*
X33080Y82870*
X29440Y134500D02*
G01Y136040D01*
X34210Y140810*
X47750Y97090D02*
G01X44740D01*
X44350Y96700*
X47750Y97090D02*
G01X48140Y96700D01*
X85950Y-1950D02*
G01Y5950D01*
X96660Y16660*
X146260*
X73150Y26250D02*
G01X77170D01*
X77470Y26550*
X79130*
X79430Y26250*
X80700*
X82990Y23960*
X137960*
X143750Y29750*
X77400Y34350D02*
G01X139400D01*
X140850Y32900*
X90050Y6450D02*
G01Y7220D01*
X91900Y9070*
Y9150*
X96100Y13350*
X142350*
X107050Y48900D02*
G01X115800D01*
X124700Y57800*
X133280Y148440D02*
G01Y131230D01*
X132350Y130300*
X134450Y125200D02*
G01X134400Y125150D01*
X129550*
X128050Y126650*
Y144700*
X126000Y146750*
Y148570*
X149960Y109460D02*
G01X152810D01*
X160000Y116650*
Y131300*
X158000Y133300*
X150630*
X150080Y132750*
X148420*
X147870Y133300*
X142850*
X134750Y125200*
X134450*
X140450Y134300D02*
G01X140850Y134700D01*
Y143300*
X139630Y144520*
Y148640*
X161980Y101600D02*
G01X161650D01*
X157400Y97350*
X145700Y122550D02*
G01X145850D01*
X146600Y121800*
X154470Y129670D02*
G01X146600Y121800D01*
X149250Y134750D02*
G01Y143900D01*
X146530Y146620*
Y148690*
X153500Y145150D02*
G01X153300D01*
Y145150D02*
G01X152530Y145920D01*
Y148440*
X153300Y145150D02*
G01X154600Y143850D01*
X185060Y12360D02*
G01X173150Y24270D01*
Y34450*
X173450Y34750*
X164260Y120210D02*
G01X164490D01*
X171000Y113700*
X178790*
X179430Y113060*
X161980Y109080D02*
G01Y114270D01*
X189000Y-4240D02*
G01Y-16120D01*
X186860Y-18260*
X185060Y12360D02*
G01Y3880D01*
X185300Y3640*
Y3640D02*
G01X181480D01*
X181370Y3750*
X189000Y3640D02*
G01X185300D01*
X186070Y121000D02*
G01Y128820D01*
G54D72*
X-141600Y149050D02*
G01Y148850D01*
X-139100Y146350*
Y145530*
X-54960Y-58480D02*
G01X-51720Y-61720D01*
Y-63270*
X-54910Y-66460*
X-46790Y-58470D02*
G01X-47090D01*
X-50220Y-61600*
Y-63270*
X-47030Y-66460*
X-53550Y-52030D02*
G01Y-57070D01*
X-54960Y-58480*
X-64360Y100010D02*
G01Y97620D01*
X-63040Y96300*
X-48000Y-52080D02*
G01X-46790Y-53290D01*
Y-58470*
X21890Y110540D02*
G01X21670Y110320D01*
Y108560*
X19360Y106250*
X25600Y110350D02*
G01X25420Y110170D01*
Y108070*
X27240Y106250*
G54D28*
X-191850Y8750D02*
G01X-186680Y4330D01*
X-166580*
X-161550Y-690*
Y-35860*
X-156770Y-39930*
X-129250*
X-124830Y-34610*
X-124847Y-23293*
X-104020Y-7390*
X-89141Y-14467D02*
G01X-103710Y-14433D01*
G54D16*
X171960Y124950D02*
G01X179430Y113060D01*
G54D28*
X91050Y-47280D02*
G01X84290Y-53970D01*
X68620*
X63880Y-58860*
Y-80420*
X60720Y-84740*
X54630Y-84700*
M02*
