G04 CAM350 V9.5.1 (Build 211) Date:  Mon Jun 16 19:21:36 2014 *
G04 Database: e:\a\pegasus.cam *
G04 Layer 6: NC_Drilllegend. *
%FSLAX55Y55*%
%MOIN*%
%SFA1.000B1.000*%

%MIA0B0*%
%IPPOS*%
%AMMACRO10*
1,1,0.00300,0.06005,0.00000*
20,1,0.00300,0.06005,0.00000,0.05914,-0.01043,0.00000*
1,1,0.00300,0.05914,-0.01043*
20,1,0.00300,0.05914,-0.01043,0.05643,-0.02054,0.00000*
1,1,0.00300,0.05643,-0.02054*
20,1,0.00300,0.05643,-0.02054,0.05201,-0.03002,0.00000*
1,1,0.00300,0.05201,-0.03002*
20,1,0.00300,0.05201,-0.03002,0.04600,-0.03860,0.00000*
1,1,0.00300,0.04600,-0.03860*
20,1,0.00300,0.04600,-0.03860,0.03860,-0.04600,0.00000*
1,1,0.00300,0.03860,-0.04600*
20,1,0.00300,0.03860,-0.04600,0.03003,-0.05200,0.00000*
1,1,0.00300,0.03003,-0.05200*
20,1,0.00300,0.03003,-0.05200,0.02054,-0.05643,0.00000*
1,1,0.00300,0.02054,-0.05643*
20,1,0.00300,0.02054,-0.05643,0.01043,-0.05914,0.00000*
1,1,0.00300,0.01043,-0.05914*
20,1,0.00300,0.01043,-0.05914,0.00000,-0.06005,0.00000*
1,1,0.00300,0.00000,-0.06005*
20,1,0.00300,0.00000,-0.06005,-0.01043,-0.05914,0.00000*
1,1,0.00300,-0.01043,-0.05914*
20,1,0.00300,-0.01043,-0.05914,-0.02054,-0.05643,0.00000*
1,1,0.00300,-0.02054,-0.05643*
20,1,0.00300,-0.02054,-0.05643,-0.03002,-0.05200,0.00000*
1,1,0.00300,-0.03002,-0.05200*
20,1,0.00300,-0.03002,-0.05200,-0.03860,-0.04600,0.00000*
1,1,0.00300,-0.03860,-0.04600*
20,1,0.00300,-0.03860,-0.04600,-0.04600,-0.03860,0.00000*
1,1,0.00300,-0.04600,-0.03860*
20,1,0.00300,-0.04600,-0.03860,-0.05200,-0.03002,0.00000*
1,1,0.00300,-0.05200,-0.03002*
20,1,0.00300,-0.05200,-0.03002,-0.05643,-0.02054,0.00000*
1,1,0.00300,-0.05643,-0.02054*
20,1,0.00300,-0.05643,-0.02054,-0.05914,-0.01043,0.00000*
1,1,0.00300,-0.05914,-0.01043*
20,1,0.00300,-0.05914,-0.01043,-0.06005,0.00000,0.00000*
1,1,0.00300,-0.06005,0.00000*
20,1,0.00300,-0.06005,0.00000,-0.05914,0.01043,0.00000*
1,1,0.00300,-0.05914,0.01043*
20,1,0.00300,-0.05914,0.01043,-0.05643,0.02054,0.00000*
1,1,0.00300,-0.05643,0.02054*
20,1,0.00300,-0.05643,0.02054,-0.05200,0.03003,0.00000*
1,1,0.00300,-0.05200,0.03003*
20,1,0.00300,-0.05200,0.03003,-0.04600,0.03860,0.00000*
1,1,0.00300,-0.04600,0.03860*
20,1,0.00300,-0.04600,0.03860,-0.03860,0.04600,0.00000*
1,1,0.00300,-0.03860,0.04600*
20,1,0.00300,-0.03860,0.04600,-0.03002,0.05201,0.00000*
1,1,0.00300,-0.03002,0.05201*
20,1,0.00300,-0.03002,0.05201,-0.02054,0.05643,0.00000*
1,1,0.00300,-0.02054,0.05643*
20,1,0.00300,-0.02054,0.05643,-0.01043,0.05914,0.00000*
1,1,0.00300,-0.01043,0.05914*
20,1,0.00300,-0.01043,0.05914,0.00000,0.06005,0.00000*
1,1,0.00300,0.00000,0.06005*
20,1,0.00300,0.00000,0.06005,0.01043,0.05914,0.00000*
1,1,0.00300,0.01043,0.05914*
20,1,0.00300,0.01043,0.05914,0.02054,0.05643,0.00000*
1,1,0.00300,0.02054,0.05643*
20,1,0.00300,0.02054,0.05643,0.03003,0.05201,0.00000*
1,1,0.00300,0.03003,0.05201*
20,1,0.00300,0.03003,0.05201,0.03860,0.04600,0.00000*
1,1,0.00300,0.03860,0.04600*
20,1,0.00300,0.03860,0.04600,0.04600,0.03860,0.00000*
1,1,0.00300,0.04600,0.03860*
20,1,0.00300,0.04600,0.03860,0.05201,0.03003,0.00000*
1,1,0.00300,0.05201,0.03003*
20,1,0.00300,0.05201,0.03003,0.05643,0.02054,0.00000*
1,1,0.00300,0.05643,0.02054*
20,1,0.00300,0.05643,0.02054,0.05914,0.01043,0.00000*
1,1,0.00300,0.05914,0.01043*
20,1,0.00300,0.05914,0.01043,0.06005,0.00000,0.00000*
1,1,0.00300,0.06005,0.00000*
%
%AMMACRO14*
1,1,0.00300,0.00500,0.00000*
20,1,0.00300,0.00500,0.00000,-0.00500,0.00000,0.00000*
1,1,0.00300,-0.00500,0.00000*
1,1,0.00300,0.00000,0.00500*
20,1,0.00300,0.00000,0.00500,0.00000,-0.00500,0.00000*
1,1,0.00300,0.00000,-0.00500*
%
%AMMACRO13*
1,1,0.00300,0.01000,0.01000*
20,1,0.00300,0.01000,0.01000,0.01000,-0.01000,0.00000*
1,1,0.00300,0.01000,-0.01000*
20,1,0.00300,0.01000,-0.01000,-0.01000,-0.01000,0.00000*
1,1,0.00300,-0.01000,-0.01000*
20,1,0.00300,-0.01000,-0.01000,-0.01000,0.01000,0.00000*
1,1,0.00300,-0.01000,0.01000*
20,1,0.00300,-0.01000,0.01000,0.01000,0.01000,0.00000*
1,1,0.00300,0.01000,0.01000*
%
%AMMACRO12*
1,1,0.00300,0.00725,-0.01750*
20,1,0.00300,0.00725,-0.01750,-0.00725,-0.01750,0.00000*
1,1,0.00300,-0.00725,-0.01750*
20,1,0.00300,-0.00725,-0.01750,-0.01750,-0.00725,0.00000*
1,1,0.00300,-0.01750,-0.00725*
20,1,0.00300,-0.01750,-0.00725,-0.01750,0.00725,0.00000*
1,1,0.00300,-0.01750,0.00725*
20,1,0.00300,-0.01750,0.00725,-0.00725,0.01750,0.00000*
1,1,0.00300,-0.00725,0.01750*
20,1,0.00300,-0.00725,0.01750,0.00725,0.01750,0.00000*
1,1,0.00300,0.00725,0.01750*
20,1,0.00300,0.00725,0.01750,0.01750,0.00725,0.00000*
1,1,0.00300,0.01750,0.00725*
20,1,0.00300,0.01750,0.00725,0.01750,-0.00725,0.00000*
1,1,0.00300,0.01750,-0.00725*
20,1,0.00300,0.01750,-0.00725,0.00725,-0.01750,0.00000*
1,1,0.00300,0.00725,-0.01750*
%
%AMMACRO11*
1,1,0.00300,0.02010,0.00000*
20,1,0.00300,0.02010,0.00000,0.00000,-0.02010,0.00000*
1,1,0.00300,0.00000,-0.02010*
20,1,0.00300,0.00000,-0.02010,-0.02010,0.00000,0.00000*
1,1,0.00300,-0.02010,0.00000*
20,1,0.00300,-0.02010,0.00000,0.00000,0.02010,0.00000*
1,1,0.00300,0.00000,0.02010*
20,1,0.00300,0.00000,0.02010,0.02010,0.00000,0.00000*
1,1,0.00300,0.02010,0.00000*
%
%AMMACRO24*
1,1,0.00300,0.01770,0.01770*
20,1,0.00300,0.01770,0.01770,0.01770,-0.01770,0.00000*
1,1,0.00300,0.01770,-0.01770*
20,1,0.00300,0.01770,-0.01770,-0.01770,-0.01770,0.00000*
1,1,0.00300,-0.01770,-0.01770*
20,1,0.00300,-0.01770,-0.01770,-0.01770,0.01770,0.00000*
1,1,0.00300,-0.01770,0.01770*
20,1,0.00300,-0.01770,0.01770,0.01770,0.01770,0.00000*
1,1,0.00300,0.01770,0.01770*
%
%AMMACRO16*
1,1,0.00300,-0.05220,-0.06260*
20,1,0.00300,-0.05220,-0.06260,0.00000,0.06260,0.00000*
1,1,0.00300,0.00000,0.06260*
20,1,0.00300,0.00000,0.06260,0.05220,-0.06260,0.00000*
1,1,0.00300,0.05220,-0.06260*
1,1,0.00300,0.03340,-0.01880*
20,1,0.00300,0.03340,-0.01880,-0.03340,-0.01880,0.00000*
1,1,0.00300,-0.03340,-0.01880*
%
%AMMACRO15*
1,1,0.00300,-0.05000,0.00000*
20,1,0.00300,-0.05000,0.00000,-0.04924,0.00868,0.00000*
1,1,0.00300,-0.04924,0.00868*
20,1,0.00300,-0.04924,0.00868,-0.04698,0.01710,0.00000*
1,1,0.00300,-0.04698,0.01710*
20,1,0.00300,-0.04698,0.01710,-0.04330,0.02500,0.00000*
1,1,0.00300,-0.04330,0.02500*
20,1,0.00300,-0.04330,0.02500,-0.03830,0.03214,0.00000*
1,1,0.00300,-0.03830,0.03214*
20,1,0.00300,-0.03830,0.03214,-0.03214,0.03830,0.00000*
1,1,0.00300,-0.03214,0.03830*
20,1,0.00300,-0.03214,0.03830,-0.02500,0.04330,0.00000*
1,1,0.00300,-0.02500,0.04330*
20,1,0.00300,-0.02500,0.04330,-0.01710,0.04699,0.00000*
1,1,0.00300,-0.01710,0.04699*
20,1,0.00300,-0.01710,0.04699,-0.00868,0.04924,0.00000*
1,1,0.00300,-0.00868,0.04924*
20,1,0.00300,-0.00868,0.04924,0.00000,0.05000,0.00000*
1,1,0.00300,0.00000,0.05000*
20,1,0.00300,0.00000,0.05000,0.00868,0.04924,0.00000*
1,1,0.00300,0.00868,0.04924*
20,1,0.00300,0.00868,0.04924,0.01710,0.04699,0.00000*
1,1,0.00300,0.01710,0.04699*
20,1,0.00300,0.01710,0.04699,0.02500,0.04330,0.00000*
1,1,0.00300,0.02500,0.04330*
20,1,0.00300,0.02500,0.04330,0.03214,0.03830,0.00000*
1,1,0.00300,0.03214,0.03830*
20,1,0.00300,0.03214,0.03830,0.03830,0.03214,0.00000*
1,1,0.00300,0.03830,0.03214*
20,1,0.00300,0.03830,0.03214,0.04330,0.02500,0.00000*
1,1,0.00300,0.04330,0.02500*
20,1,0.00300,0.04330,0.02500,0.04699,0.01710,0.00000*
1,1,0.00300,0.04699,0.01710*
20,1,0.00300,0.04699,0.01710,0.04924,0.00868,0.00000*
1,1,0.00300,0.04924,0.00868*
20,1,0.00300,0.04924,0.00868,0.05000,0.00000,0.00000*
1,1,0.00300,0.05000,0.00000*
1,1,0.00300,0.05000,0.00000*
1,1,0.00300,0.05000,0.00000*
20,1,0.00300,0.05000,0.00000,0.04924,-0.00868,0.00000*
1,1,0.00300,0.04924,-0.00868*
20,1,0.00300,0.04924,-0.00868,0.04699,-0.01710,0.00000*
1,1,0.00300,0.04699,-0.01710*
20,1,0.00300,0.04699,-0.01710,0.04330,-0.02500,0.00000*
1,1,0.00300,0.04330,-0.02500*
20,1,0.00300,0.04330,-0.02500,0.03830,-0.03214,0.00000*
1,1,0.00300,0.03830,-0.03214*
20,1,0.00300,0.03830,-0.03214,0.03214,-0.03830,0.00000*
1,1,0.00300,0.03214,-0.03830*
20,1,0.00300,0.03214,-0.03830,0.02500,-0.04330,0.00000*
1,1,0.00300,0.02500,-0.04330*
20,1,0.00300,0.02500,-0.04330,0.01710,-0.04698,0.00000*
1,1,0.00300,0.01710,-0.04698*
20,1,0.00300,0.01710,-0.04698,0.00868,-0.04924,0.00000*
1,1,0.00300,0.00868,-0.04924*
20,1,0.00300,0.00868,-0.04924,0.00000,-0.05000,0.00000*
1,1,0.00300,0.00000,-0.05000*
20,1,0.00300,0.00000,-0.05000,-0.00868,-0.04924,0.00000*
1,1,0.00300,-0.00868,-0.04924*
20,1,0.00300,-0.00868,-0.04924,-0.01710,-0.04698,0.00000*
1,1,0.00300,-0.01710,-0.04698*
20,1,0.00300,-0.01710,-0.04698,-0.02500,-0.04330,0.00000*
1,1,0.00300,-0.02500,-0.04330*
20,1,0.00300,-0.02500,-0.04330,-0.03214,-0.03830,0.00000*
1,1,0.00300,-0.03214,-0.03830*
20,1,0.00300,-0.03214,-0.03830,-0.03830,-0.03214,0.00000*
1,1,0.00300,-0.03830,-0.03214*
20,1,0.00300,-0.03830,-0.03214,-0.04330,-0.02500,0.00000*
1,1,0.00300,-0.04330,-0.02500*
20,1,0.00300,-0.04330,-0.02500,-0.04698,-0.01710,0.00000*
1,1,0.00300,-0.04698,-0.01710*
20,1,0.00300,-0.04698,-0.01710,-0.04924,-0.00868,0.00000*
1,1,0.00300,-0.04924,-0.00868*
20,1,0.00300,-0.04924,-0.00868,-0.05000,0.00000,0.00000*
1,1,0.00300,-0.05000,0.00000*
1,1,0.00300,-0.05000,0.00000*
1,1,0.00300,-0.05000,0.00000*
%
%AMMACRO25*
1,1,0.00300,0.00000,0.01500*
20,1,0.00300,0.00000,0.01500,-0.01299,0.00750,0.00000*
1,1,0.00300,-0.01299,0.00750*
20,1,0.00300,-0.01299,0.00750,-0.01299,-0.00750,0.00000*
1,1,0.00300,-0.01299,-0.00750*
20,1,0.00300,-0.01299,-0.00750,0.00000,-0.01500,0.00000*
1,1,0.00300,0.00000,-0.01500*
20,1,0.00300,0.00000,-0.01500,0.01299,-0.00750,0.00000*
1,1,0.00300,0.01299,-0.00750*
20,1,0.00300,0.01299,-0.00750,0.01299,0.00750,0.00000*
1,1,0.00300,0.01299,0.00750*
20,1,0.00300,0.01299,0.00750,0.00000,0.01500,0.00000*
1,1,0.00300,0.00000,0.01500*
%
%AMMACRO22*
1,1,0.00300,0.01790,0.00450*
20,1,0.00300,0.01790,0.00450,0.02680,0.01120,0.00000*
1,1,0.00300,0.02680,0.01120*
20,1,0.00300,0.02680,0.01120,0.03350,0.02240,0.00000*
1,1,0.00300,0.03350,0.02240*
20,1,0.00300,0.03350,0.02240,0.03800,0.03800,0.00000*
1,1,0.00300,0.03800,0.03800*
20,1,0.00300,0.03800,0.03800,0.03350,0.05140,0.00000*
1,1,0.00300,0.03350,0.05140*
20,1,0.00300,0.03350,0.05140,0.02460,0.06030,0.00000*
1,1,0.00300,0.02460,0.06030*
20,1,0.00300,0.02460,0.06030,0.00900,0.06700,0.00000*
1,1,0.00300,0.00900,0.06700*
20,1,0.00300,0.00900,0.06700,-0.05130,0.06700,0.00000*
1,1,0.00300,-0.05130,0.06700*
20,1,0.00300,-0.05130,0.06700,-0.05130,-0.06690,0.00000*
1,1,0.00300,-0.05130,-0.06690*
20,1,0.00300,-0.05130,-0.06690,0.02240,-0.06690,0.00000*
1,1,0.00300,0.02240,-0.06690*
20,1,0.00300,0.02240,-0.06690,0.03800,-0.05800,0.00000*
1,1,0.00300,0.03800,-0.05800*
20,1,0.00300,0.03800,-0.05800,0.04690,-0.04460,0.00000*
1,1,0.00300,0.04690,-0.04460*
20,1,0.00300,0.04690,-0.04460,0.05140,-0.02900,0.00000*
1,1,0.00300,0.05140,-0.02900*
20,1,0.00300,0.05140,-0.02900,0.04690,-0.01330,0.00000*
1,1,0.00300,0.04690,-0.01330*
20,1,0.00300,0.04690,-0.01330,0.03350,0.00000,0.00000*
1,1,0.00300,0.03350,0.00000*
20,1,0.00300,0.03350,0.00000,0.01790,0.00450,0.00000*
1,1,0.00300,0.01790,0.00450*
20,1,0.00300,0.01790,0.00450,-0.05130,0.00450,0.00000*
1,1,0.00300,-0.05130,0.00450*
%
%AMMACRO23*
1,1,0.00300,0.00000,0.03545*
20,1,0.00300,0.00000,0.03545,0.03545,-0.03545,0.00000*
1,1,0.00300,0.03545,-0.03545*
20,1,0.00300,0.03545,-0.03545,-0.03545,-0.03545,0.00000*
1,1,0.00300,-0.03545,-0.03545*
20,1,0.00300,-0.03545,-0.03545,0.00000,0.03545,0.00000*
1,1,0.00300,0.00000,0.03545*
%
%AMMACRO18*
1,1,0.00300,0.00000,0.04195*
1,1,0.00300,0.00000,0.04195*
1,1,0.00300,0.00000,0.04195*
20,1,0.00300,0.00000,0.04195,0.00729,0.04131,0.00000*
1,1,0.00300,0.00729,0.04131*
20,1,0.00300,0.00729,0.04131,0.01435,0.03942,0.00000*
1,1,0.00300,0.01435,0.03942*
20,1,0.00300,0.01435,0.03942,0.02098,0.03633,0.00000*
1,1,0.00300,0.02098,0.03633*
20,1,0.00300,0.02098,0.03633,0.02697,0.03214,0.00000*
1,1,0.00300,0.02697,0.03214*
20,1,0.00300,0.02697,0.03214,0.03214,0.02697,0.00000*
1,1,0.00300,0.03214,0.02697*
20,1,0.00300,0.03214,0.02697,0.03633,0.02098,0.00000*
1,1,0.00300,0.03633,0.02098*
20,1,0.00300,0.03633,0.02098,0.03942,0.01435,0.00000*
1,1,0.00300,0.03942,0.01435*
20,1,0.00300,0.03942,0.01435,0.04131,0.00729,0.00000*
1,1,0.00300,0.04131,0.00729*
20,1,0.00300,0.04131,0.00729,0.04195,0.00000,0.00000*
1,1,0.00300,0.04195,0.00000*
20,1,0.00300,0.04195,0.00000,0.04131,-0.00728,0.00000*
1,1,0.00300,0.04131,-0.00728*
20,1,0.00300,0.04131,-0.00728,0.03942,-0.01435,0.00000*
1,1,0.00300,0.03942,-0.01435*
20,1,0.00300,0.03942,-0.01435,0.03633,-0.02097,0.00000*
1,1,0.00300,0.03633,-0.02097*
20,1,0.00300,0.03633,-0.02097,0.03214,-0.02696,0.00000*
1,1,0.00300,0.03214,-0.02696*
20,1,0.00300,0.03214,-0.02696,0.02697,-0.03214,0.00000*
1,1,0.00300,0.02697,-0.03214*
20,1,0.00300,0.02697,-0.03214,0.02098,-0.03633,0.00000*
1,1,0.00300,0.02098,-0.03633*
20,1,0.00300,0.02098,-0.03633,0.01435,-0.03942,0.00000*
1,1,0.00300,0.01435,-0.03942*
20,1,0.00300,0.01435,-0.03942,0.00729,-0.04131,0.00000*
1,1,0.00300,0.00729,-0.04131*
20,1,0.00300,0.00729,-0.04131,0.00000,-0.04195,0.00000*
1,1,0.00300,0.00000,-0.04195*
1,1,0.00300,0.00000,-0.04195*
1,1,0.00300,0.00000,-0.04195*
20,1,0.00300,0.00000,-0.04195,-0.00728,-0.04131,0.00000*
1,1,0.00300,-0.00728,-0.04131*
20,1,0.00300,-0.00728,-0.04131,-0.01435,-0.03942,0.00000*
1,1,0.00300,-0.01435,-0.03942*
20,1,0.00300,-0.01435,-0.03942,-0.02097,-0.03633,0.00000*
1,1,0.00300,-0.02097,-0.03633*
20,1,0.00300,-0.02097,-0.03633,-0.02696,-0.03214,0.00000*
1,1,0.00300,-0.02696,-0.03214*
20,1,0.00300,-0.02696,-0.03214,-0.03214,-0.02696,0.00000*
1,1,0.00300,-0.03214,-0.02696*
20,1,0.00300,-0.03214,-0.02696,-0.03633,-0.02097,0.00000*
1,1,0.00300,-0.03633,-0.02097*
20,1,0.00300,-0.03633,-0.02097,-0.03942,-0.01435,0.00000*
1,1,0.00300,-0.03942,-0.01435*
20,1,0.00300,-0.03942,-0.01435,-0.04131,-0.00728,0.00000*
1,1,0.00300,-0.04131,-0.00728*
20,1,0.00300,-0.04131,-0.00728,-0.04195,0.00000,0.00000*
1,1,0.00300,-0.04195,0.00000*
20,1,0.00300,-0.04195,0.00000,-0.04131,0.00729,0.00000*
1,1,0.00300,-0.04131,0.00729*
20,1,0.00300,-0.04131,0.00729,-0.03942,0.01435,0.00000*
1,1,0.00300,-0.03942,0.01435*
20,1,0.00300,-0.03942,0.01435,-0.03633,0.02098,0.00000*
1,1,0.00300,-0.03633,0.02098*
20,1,0.00300,-0.03633,0.02098,-0.03214,0.02697,0.00000*
1,1,0.00300,-0.03214,0.02697*
20,1,0.00300,-0.03214,0.02697,-0.02696,0.03214,0.00000*
1,1,0.00300,-0.02696,0.03214*
20,1,0.00300,-0.02696,0.03214,-0.02097,0.03633,0.00000*
1,1,0.00300,-0.02097,0.03633*
20,1,0.00300,-0.02097,0.03633,-0.01435,0.03942,0.00000*
1,1,0.00300,-0.01435,0.03942*
20,1,0.00300,-0.01435,0.03942,-0.00728,0.04131,0.00000*
1,1,0.00300,-0.00728,0.04131*
20,1,0.00300,-0.00728,0.04131,0.00000,0.04195,0.00000*
1,1,0.00300,0.00000,0.04195*
%
%AMMACRO21*
1,1,0.00300,-0.01575,0.01970*
20,1,0.00300,-0.01575,0.01970,0.01575,0.01970,0.00000*
1,1,0.00300,0.01575,0.01970*
20,1,0.00300,0.01575,0.01970,0.01917,0.01940,0.00000*
1,1,0.00300,0.01917,0.01940*
20,1,0.00300,0.01917,0.01940,0.02249,0.01851,0.00000*
1,1,0.00300,0.02249,0.01851*
20,1,0.00300,0.02249,0.01851,0.02560,0.01706,0.00000*
1,1,0.00300,0.02560,0.01706*
20,1,0.00300,0.02560,0.01706,0.02841,0.01509,0.00000*
1,1,0.00300,0.02841,0.01509*
20,1,0.00300,0.02841,0.01509,0.03084,0.01266,0.00000*
1,1,0.00300,0.03084,0.01266*
20,1,0.00300,0.03084,0.01266,0.03281,0.00985,0.00000*
1,1,0.00300,0.03281,0.00985*
20,1,0.00300,0.03281,0.00985,0.03426,0.00674,0.00000*
1,1,0.00300,0.03426,0.00674*
20,1,0.00300,0.03426,0.00674,0.03515,0.00342,0.00000*
1,1,0.00300,0.03515,0.00342*
20,1,0.00300,0.03515,0.00342,0.03545,0.00000,0.00000*
1,1,0.00300,0.03545,0.00000*
20,1,0.00300,0.03545,0.00000,0.03515,-0.00342,0.00000*
1,1,0.00300,0.03515,-0.00342*
20,1,0.00300,0.03515,-0.00342,0.03426,-0.00674,0.00000*
1,1,0.00300,0.03426,-0.00674*
20,1,0.00300,0.03426,-0.00674,0.03281,-0.00985,0.00000*
1,1,0.00300,0.03281,-0.00985*
20,1,0.00300,0.03281,-0.00985,0.03084,-0.01266,0.00000*
1,1,0.00300,0.03084,-0.01266*
20,1,0.00300,0.03084,-0.01266,0.02841,-0.01509,0.00000*
1,1,0.00300,0.02841,-0.01509*
20,1,0.00300,0.02841,-0.01509,0.02560,-0.01706,0.00000*
1,1,0.00300,0.02560,-0.01706*
20,1,0.00300,0.02560,-0.01706,0.02249,-0.01851,0.00000*
1,1,0.00300,0.02249,-0.01851*
20,1,0.00300,0.02249,-0.01851,0.01917,-0.01940,0.00000*
1,1,0.00300,0.01917,-0.01940*
20,1,0.00300,0.01917,-0.01940,0.01575,-0.01970,0.00000*
1,1,0.00300,0.01575,-0.01970*
20,1,0.00300,0.01575,-0.01970,-0.01575,-0.01970,0.00000*
1,1,0.00300,-0.01575,-0.01970*
20,1,0.00300,-0.01575,-0.01970,-0.01917,-0.01940,0.00000*
1,1,0.00300,-0.01917,-0.01940*
20,1,0.00300,-0.01917,-0.01940,-0.02249,-0.01851,0.00000*
1,1,0.00300,-0.02249,-0.01851*
20,1,0.00300,-0.02249,-0.01851,-0.02560,-0.01706,0.00000*
1,1,0.00300,-0.02560,-0.01706*
20,1,0.00300,-0.02560,-0.01706,-0.02841,-0.01509,0.00000*
1,1,0.00300,-0.02841,-0.01509*
20,1,0.00300,-0.02841,-0.01509,-0.03084,-0.01266,0.00000*
1,1,0.00300,-0.03084,-0.01266*
20,1,0.00300,-0.03084,-0.01266,-0.03281,-0.00985,0.00000*
1,1,0.00300,-0.03281,-0.00985*
20,1,0.00300,-0.03281,-0.00985,-0.03426,-0.00674,0.00000*
1,1,0.00300,-0.03426,-0.00674*
20,1,0.00300,-0.03426,-0.00674,-0.03515,-0.00342,0.00000*
1,1,0.00300,-0.03515,-0.00342*
20,1,0.00300,-0.03515,-0.00342,-0.03545,0.00000,0.00000*
1,1,0.00300,-0.03545,0.00000*
20,1,0.00300,-0.03545,0.00000,-0.03515,0.00342,0.00000*
1,1,0.00300,-0.03515,0.00342*
20,1,0.00300,-0.03515,0.00342,-0.03426,0.00674,0.00000*
1,1,0.00300,-0.03426,0.00674*
20,1,0.00300,-0.03426,0.00674,-0.03281,0.00985,0.00000*
1,1,0.00300,-0.03281,0.00985*
20,1,0.00300,-0.03281,0.00985,-0.03084,0.01266,0.00000*
1,1,0.00300,-0.03084,0.01266*
20,1,0.00300,-0.03084,0.01266,-0.02841,0.01509,0.00000*
1,1,0.00300,-0.02841,0.01509*
20,1,0.00300,-0.02841,0.01509,-0.02560,0.01706,0.00000*
1,1,0.00300,-0.02560,0.01706*
20,1,0.00300,-0.02560,0.01706,-0.02249,0.01851,0.00000*
1,1,0.00300,-0.02249,0.01851*
20,1,0.00300,-0.02249,0.01851,-0.01917,0.01940,0.00000*
1,1,0.00300,-0.01917,0.01940*
20,1,0.00300,-0.01917,0.01940,-0.01575,0.01970,0.00000*
1,1,0.00300,-0.01575,0.01970*
1,1,0.00300,-0.00990,-0.00980*
20,1,0.00300,-0.00990,-0.00980,-0.01250,-0.00950,0.00000*
1,1,0.00300,-0.01250,-0.00950*
20,1,0.00300,-0.01250,-0.00950,-0.01480,-0.00820,0.00000*
1,1,0.00300,-0.01480,-0.00820*
20,1,0.00300,-0.01480,-0.00820,-0.01670,-0.00620,0.00000*
1,1,0.00300,-0.01670,-0.00620*
20,1,0.00300,-0.01670,-0.00620,-0.01810,-0.00390,0.00000*
1,1,0.00300,-0.01810,-0.00390*
20,1,0.00300,-0.01810,-0.00390,-0.01870,-0.00130,0.00000*
1,1,0.00300,-0.01870,-0.00130*
20,1,0.00300,-0.01870,-0.00130,-0.01870,0.00140,0.00000*
1,1,0.00300,-0.01870,0.00140*
20,1,0.00300,-0.01870,0.00140,-0.01810,0.00400,0.00000*
1,1,0.00300,-0.01810,0.00400*
20,1,0.00300,-0.01810,0.00400,-0.01670,0.00630,0.00000*
1,1,0.00300,-0.01670,0.00630*
20,1,0.00300,-0.01670,0.00630,-0.01480,0.00830,0.00000*
1,1,0.00300,-0.01480,0.00830*
20,1,0.00300,-0.01480,0.00830,-0.01250,0.00960,0.00000*
1,1,0.00300,-0.01250,0.00960*
20,1,0.00300,-0.01250,0.00960,-0.00990,0.00990,0.00000*
1,1,0.00300,-0.00990,0.00990*
20,1,0.00300,-0.00990,0.00990,-0.00720,0.00960,0.00000*
1,1,0.00300,-0.00720,0.00960*
20,1,0.00300,-0.00720,0.00960,-0.00490,0.00830,0.00000*
1,1,0.00300,-0.00490,0.00830*
20,1,0.00300,-0.00490,0.00830,-0.00300,0.00630,0.00000*
1,1,0.00300,-0.00300,0.00630*
20,1,0.00300,-0.00300,0.00630,-0.00160,0.00400,0.00000*
1,1,0.00300,-0.00160,0.00400*
20,1,0.00300,-0.00160,0.00400,-0.00100,0.00140,0.00000*
1,1,0.00300,-0.00100,0.00140*
20,1,0.00300,-0.00100,0.00140,-0.00100,-0.00130,0.00000*
1,1,0.00300,-0.00100,-0.00130*
20,1,0.00300,-0.00100,-0.00130,-0.00160,-0.00390,0.00000*
1,1,0.00300,-0.00160,-0.00390*
20,1,0.00300,-0.00160,-0.00390,-0.00300,-0.00620,0.00000*
1,1,0.00300,-0.00300,-0.00620*
20,1,0.00300,-0.00300,-0.00620,-0.00490,-0.00820,0.00000*
1,1,0.00300,-0.00490,-0.00820*
20,1,0.00300,-0.00490,-0.00820,-0.00720,-0.00950,0.00000*
1,1,0.00300,-0.00720,-0.00950*
20,1,0.00300,-0.00720,-0.00950,-0.00990,-0.00980,0.00000*
1,1,0.00300,-0.00990,-0.00980*
1,1,0.00300,0.01260,0.00070*
20,1,0.00300,0.01260,0.00070,0.01390,0.00170,0.00000*
1,1,0.00300,0.01390,0.00170*
20,1,0.00300,0.01390,0.00170,0.01490,0.00330,0.00000*
1,1,0.00300,0.01490,0.00330*
20,1,0.00300,0.01490,0.00330,0.01550,0.00560,0.00000*
1,1,0.00300,0.01550,0.00560*
20,1,0.00300,0.01550,0.00560,0.01490,0.00760,0.00000*
1,1,0.00300,0.01490,0.00760*
20,1,0.00300,0.01490,0.00760,0.01360,0.00890,0.00000*
1,1,0.00300,0.01360,0.00890*
20,1,0.00300,0.01360,0.00890,0.01130,0.00990,0.00000*
1,1,0.00300,0.01130,0.00990*
20,1,0.00300,0.01130,0.00990,0.00240,0.00990,0.00000*
1,1,0.00300,0.00240,0.00990*
20,1,0.00300,0.00240,0.00990,0.00240,-0.00980,0.00000*
1,1,0.00300,0.00240,-0.00980*
20,1,0.00300,0.00240,-0.00980,0.01320,-0.00980,0.00000*
1,1,0.00300,0.01320,-0.00980*
20,1,0.00300,0.01320,-0.00980,0.01550,-0.00850,0.00000*
1,1,0.00300,0.01550,-0.00850*
20,1,0.00300,0.01550,-0.00850,0.01680,-0.00650,0.00000*
1,1,0.00300,0.01680,-0.00650*
20,1,0.00300,0.01680,-0.00650,0.01750,-0.00420,0.00000*
1,1,0.00300,0.01750,-0.00420*
20,1,0.00300,0.01750,-0.00420,0.01680,-0.00190,0.00000*
1,1,0.00300,0.01680,-0.00190*
20,1,0.00300,0.01680,-0.00190,0.01490,0.00000,0.00000*
1,1,0.00300,0.01490,0.00000*
20,1,0.00300,0.01490,0.00000,0.01260,0.00070,0.00000*
1,1,0.00300,0.01260,0.00070*
20,1,0.00300,0.01260,0.00070,0.00240,0.00070,0.00000*
1,1,0.00300,0.00240,0.00070*
%
%AMMACRO17*
1,1,0.00300,0.01495,0.00000*
20,1,0.00300,0.01495,0.00000,0.00748,0.01295,0.00000*
1,1,0.00300,0.00748,0.01295*
20,1,0.00300,0.00748,0.01295,-0.00747,0.01295,0.00000*
1,1,0.00300,-0.00747,0.01295*
20,1,0.00300,-0.00747,0.01295,-0.01495,0.00000,0.00000*
1,1,0.00300,-0.01495,0.00000*
20,1,0.00300,-0.01495,0.00000,-0.00747,-0.01295,0.00000*
1,1,0.00300,-0.00747,-0.01295*
20,1,0.00300,-0.00747,-0.01295,0.00748,-0.01295,0.00000*
1,1,0.00300,0.00748,-0.01295*
20,1,0.00300,0.00748,-0.01295,0.01495,0.00000,0.00000*
1,1,0.00300,0.01495,0.00000*
%
%AMMACRO20*
1,1,0.00300,-0.01970,-0.01960*
20,1,0.00300,-0.01970,-0.01960,-0.01970,0.01960,0.00000*
1,1,0.00300,-0.01970,0.01960*
20,1,0.00300,-0.01970,0.01960,-0.01940,0.02302,0.00000*
1,1,0.00300,-0.01940,0.02302*
20,1,0.00300,-0.01940,0.02302,-0.01851,0.02634,0.00000*
1,1,0.00300,-0.01851,0.02634*
20,1,0.00300,-0.01851,0.02634,-0.01706,0.02945,0.00000*
1,1,0.00300,-0.01706,0.02945*
20,1,0.00300,-0.01706,0.02945,-0.01509,0.03226,0.00000*
1,1,0.00300,-0.01509,0.03226*
20,1,0.00300,-0.01509,0.03226,-0.01266,0.03469,0.00000*
1,1,0.00300,-0.01266,0.03469*
20,1,0.00300,-0.01266,0.03469,-0.00985,0.03666,0.00000*
1,1,0.00300,-0.00985,0.03666*
20,1,0.00300,-0.00985,0.03666,-0.00674,0.03811,0.00000*
1,1,0.00300,-0.00674,0.03811*
20,1,0.00300,-0.00674,0.03811,-0.00342,0.03900,0.00000*
1,1,0.00300,-0.00342,0.03900*
20,1,0.00300,-0.00342,0.03900,0.00000,0.03930,0.00000*
1,1,0.00300,0.00000,0.03930*
20,1,0.00300,0.00000,0.03930,0.00342,0.03900,0.00000*
1,1,0.00300,0.00342,0.03900*
20,1,0.00300,0.00342,0.03900,0.00674,0.03811,0.00000*
1,1,0.00300,0.00674,0.03811*
20,1,0.00300,0.00674,0.03811,0.00985,0.03666,0.00000*
1,1,0.00300,0.00985,0.03666*
20,1,0.00300,0.00985,0.03666,0.01266,0.03469,0.00000*
1,1,0.00300,0.01266,0.03469*
20,1,0.00300,0.01266,0.03469,0.01509,0.03226,0.00000*
1,1,0.00300,0.01509,0.03226*
20,1,0.00300,0.01509,0.03226,0.01706,0.02945,0.00000*
1,1,0.00300,0.01706,0.02945*
20,1,0.00300,0.01706,0.02945,0.01851,0.02634,0.00000*
1,1,0.00300,0.01851,0.02634*
20,1,0.00300,0.01851,0.02634,0.01940,0.02302,0.00000*
1,1,0.00300,0.01940,0.02302*
20,1,0.00300,0.01940,0.02302,0.01970,0.01960,0.00000*
1,1,0.00300,0.01970,0.01960*
20,1,0.00300,0.01970,0.01960,0.01970,-0.01960,0.00000*
1,1,0.00300,0.01970,-0.01960*
20,1,0.00300,0.01970,-0.01960,0.01940,-0.02302,0.00000*
1,1,0.00300,0.01940,-0.02302*
20,1,0.00300,0.01940,-0.02302,0.01851,-0.02634,0.00000*
1,1,0.00300,0.01851,-0.02634*
20,1,0.00300,0.01851,-0.02634,0.01706,-0.02945,0.00000*
1,1,0.00300,0.01706,-0.02945*
20,1,0.00300,0.01706,-0.02945,0.01509,-0.03226,0.00000*
1,1,0.00300,0.01509,-0.03226*
20,1,0.00300,0.01509,-0.03226,0.01266,-0.03469,0.00000*
1,1,0.00300,0.01266,-0.03469*
20,1,0.00300,0.01266,-0.03469,0.00985,-0.03666,0.00000*
1,1,0.00300,0.00985,-0.03666*
20,1,0.00300,0.00985,-0.03666,0.00674,-0.03811,0.00000*
1,1,0.00300,0.00674,-0.03811*
20,1,0.00300,0.00674,-0.03811,0.00342,-0.03900,0.00000*
1,1,0.00300,0.00342,-0.03900*
20,1,0.00300,0.00342,-0.03900,0.00000,-0.03930,0.00000*
1,1,0.00300,0.00000,-0.03930*
20,1,0.00300,0.00000,-0.03930,-0.00342,-0.03900,0.00000*
1,1,0.00300,-0.00342,-0.03900*
20,1,0.00300,-0.00342,-0.03900,-0.00674,-0.03811,0.00000*
1,1,0.00300,-0.00674,-0.03811*
20,1,0.00300,-0.00674,-0.03811,-0.00985,-0.03666,0.00000*
1,1,0.00300,-0.00985,-0.03666*
20,1,0.00300,-0.00985,-0.03666,-0.01266,-0.03469,0.00000*
1,1,0.00300,-0.01266,-0.03469*
20,1,0.00300,-0.01266,-0.03469,-0.01509,-0.03226,0.00000*
1,1,0.00300,-0.01509,-0.03226*
20,1,0.00300,-0.01509,-0.03226,-0.01706,-0.02945,0.00000*
1,1,0.00300,-0.01706,-0.02945*
20,1,0.00300,-0.01706,-0.02945,-0.01851,-0.02634,0.00000*
1,1,0.00300,-0.01851,-0.02634*
20,1,0.00300,-0.01851,-0.02634,-0.01940,-0.02302,0.00000*
1,1,0.00300,-0.01940,-0.02302*
20,1,0.00300,-0.01940,-0.02302,-0.01970,-0.01960,0.00000*
1,1,0.00300,-0.01970,-0.01960*
1,1,0.00300,-0.00990,-0.00980*
20,1,0.00300,-0.00990,-0.00980,-0.01250,-0.00950,0.00000*
1,1,0.00300,-0.01250,-0.00950*
20,1,0.00300,-0.01250,-0.00950,-0.01480,-0.00820,0.00000*
1,1,0.00300,-0.01480,-0.00820*
20,1,0.00300,-0.01480,-0.00820,-0.01670,-0.00620,0.00000*
1,1,0.00300,-0.01670,-0.00620*
20,1,0.00300,-0.01670,-0.00620,-0.01810,-0.00390,0.00000*
1,1,0.00300,-0.01810,-0.00390*
20,1,0.00300,-0.01810,-0.00390,-0.01870,-0.00130,0.00000*
1,1,0.00300,-0.01870,-0.00130*
20,1,0.00300,-0.01870,-0.00130,-0.01870,0.00140,0.00000*
1,1,0.00300,-0.01870,0.00140*
20,1,0.00300,-0.01870,0.00140,-0.01810,0.00400,0.00000*
1,1,0.00300,-0.01810,0.00400*
20,1,0.00300,-0.01810,0.00400,-0.01670,0.00630,0.00000*
1,1,0.00300,-0.01670,0.00630*
20,1,0.00300,-0.01670,0.00630,-0.01480,0.00830,0.00000*
1,1,0.00300,-0.01480,0.00830*
20,1,0.00300,-0.01480,0.00830,-0.01250,0.00960,0.00000*
1,1,0.00300,-0.01250,0.00960*
20,1,0.00300,-0.01250,0.00960,-0.00990,0.00990,0.00000*
1,1,0.00300,-0.00990,0.00990*
20,1,0.00300,-0.00990,0.00990,-0.00720,0.00960,0.00000*
1,1,0.00300,-0.00720,0.00960*
20,1,0.00300,-0.00720,0.00960,-0.00490,0.00830,0.00000*
1,1,0.00300,-0.00490,0.00830*
20,1,0.00300,-0.00490,0.00830,-0.00300,0.00630,0.00000*
1,1,0.00300,-0.00300,0.00630*
20,1,0.00300,-0.00300,0.00630,-0.00160,0.00400,0.00000*
1,1,0.00300,-0.00160,0.00400*
20,1,0.00300,-0.00160,0.00400,-0.00100,0.00140,0.00000*
1,1,0.00300,-0.00100,0.00140*
20,1,0.00300,-0.00100,0.00140,-0.00100,-0.00130,0.00000*
1,1,0.00300,-0.00100,-0.00130*
20,1,0.00300,-0.00100,-0.00130,-0.00160,-0.00390,0.00000*
1,1,0.00300,-0.00160,-0.00390*
20,1,0.00300,-0.00160,-0.00390,-0.00300,-0.00620,0.00000*
1,1,0.00300,-0.00300,-0.00620*
20,1,0.00300,-0.00300,-0.00620,-0.00490,-0.00820,0.00000*
1,1,0.00300,-0.00490,-0.00820*
20,1,0.00300,-0.00490,-0.00820,-0.00720,-0.00950,0.00000*
1,1,0.00300,-0.00720,-0.00950*
20,1,0.00300,-0.00720,-0.00950,-0.00990,-0.00980,0.00000*
1,1,0.00300,-0.00990,-0.00980*
1,1,0.00300,0.00170,-0.00980*
20,1,0.00300,0.00170,-0.00980,0.00990,0.00990,0.00000*
1,1,0.00300,0.00990,0.00990*
20,1,0.00300,0.00990,0.00990,0.01820,-0.00980,0.00000*
1,1,0.00300,0.01820,-0.00980*
1,1,0.00300,0.01520,-0.00290*
20,1,0.00300,0.01520,-0.00290,0.00470,-0.00290,0.00000*
1,1,0.00300,0.00470,-0.00290*
%
%AMMACRO19*
1,1,0.00300,-0.01965,0.01970*
20,1,0.00300,-0.01965,0.01970,0.01965,0.01970,0.00000*
1,1,0.00300,0.01965,0.01970*
20,1,0.00300,0.01965,0.01970,0.02307,0.01940,0.00000*
1,1,0.00300,0.02307,0.01940*
20,1,0.00300,0.02307,0.01940,0.02639,0.01851,0.00000*
1,1,0.00300,0.02639,0.01851*
20,1,0.00300,0.02639,0.01851,0.02950,0.01706,0.00000*
1,1,0.00300,0.02950,0.01706*
20,1,0.00300,0.02950,0.01706,0.03231,0.01509,0.00000*
1,1,0.00300,0.03231,0.01509*
20,1,0.00300,0.03231,0.01509,0.03474,0.01266,0.00000*
1,1,0.00300,0.03474,0.01266*
20,1,0.00300,0.03474,0.01266,0.03671,0.00985,0.00000*
1,1,0.00300,0.03671,0.00985*
20,1,0.00300,0.03671,0.00985,0.03816,0.00674,0.00000*
1,1,0.00300,0.03816,0.00674*
20,1,0.00300,0.03816,0.00674,0.03905,0.00342,0.00000*
1,1,0.00300,0.03905,0.00342*
20,1,0.00300,0.03905,0.00342,0.03935,0.00000,0.00000*
1,1,0.00300,0.03935,0.00000*
20,1,0.00300,0.03935,0.00000,0.03905,-0.00342,0.00000*
1,1,0.00300,0.03905,-0.00342*
20,1,0.00300,0.03905,-0.00342,0.03816,-0.00674,0.00000*
1,1,0.00300,0.03816,-0.00674*
20,1,0.00300,0.03816,-0.00674,0.03671,-0.00985,0.00000*
1,1,0.00300,0.03671,-0.00985*
20,1,0.00300,0.03671,-0.00985,0.03474,-0.01266,0.00000*
1,1,0.00300,0.03474,-0.01266*
20,1,0.00300,0.03474,-0.01266,0.03231,-0.01509,0.00000*
1,1,0.00300,0.03231,-0.01509*
20,1,0.00300,0.03231,-0.01509,0.02950,-0.01706,0.00000*
1,1,0.00300,0.02950,-0.01706*
20,1,0.00300,0.02950,-0.01706,0.02639,-0.01851,0.00000*
1,1,0.00300,0.02639,-0.01851*
20,1,0.00300,0.02639,-0.01851,0.02307,-0.01940,0.00000*
1,1,0.00300,0.02307,-0.01940*
20,1,0.00300,0.02307,-0.01940,0.01965,-0.01970,0.00000*
1,1,0.00300,0.01965,-0.01970*
20,1,0.00300,0.01965,-0.01970,-0.01965,-0.01970,0.00000*
1,1,0.00300,-0.01965,-0.01970*
20,1,0.00300,-0.01965,-0.01970,-0.02307,-0.01940,0.00000*
1,1,0.00300,-0.02307,-0.01940*
20,1,0.00300,-0.02307,-0.01940,-0.02639,-0.01851,0.00000*
1,1,0.00300,-0.02639,-0.01851*
20,1,0.00300,-0.02639,-0.01851,-0.02950,-0.01706,0.00000*
1,1,0.00300,-0.02950,-0.01706*
20,1,0.00300,-0.02950,-0.01706,-0.03231,-0.01509,0.00000*
1,1,0.00300,-0.03231,-0.01509*
20,1,0.00300,-0.03231,-0.01509,-0.03474,-0.01266,0.00000*
1,1,0.00300,-0.03474,-0.01266*
20,1,0.00300,-0.03474,-0.01266,-0.03671,-0.00985,0.00000*
1,1,0.00300,-0.03671,-0.00985*
20,1,0.00300,-0.03671,-0.00985,-0.03816,-0.00674,0.00000*
1,1,0.00300,-0.03816,-0.00674*
20,1,0.00300,-0.03816,-0.00674,-0.03905,-0.00342,0.00000*
1,1,0.00300,-0.03905,-0.00342*
20,1,0.00300,-0.03905,-0.00342,-0.03935,0.00000,0.00000*
1,1,0.00300,-0.03935,0.00000*
20,1,0.00300,-0.03935,0.00000,-0.03905,0.00342,0.00000*
1,1,0.00300,-0.03905,0.00342*
20,1,0.00300,-0.03905,0.00342,-0.03816,0.00674,0.00000*
1,1,0.00300,-0.03816,0.00674*
20,1,0.00300,-0.03816,0.00674,-0.03671,0.00985,0.00000*
1,1,0.00300,-0.03671,0.00985*
20,1,0.00300,-0.03671,0.00985,-0.03474,0.01266,0.00000*
1,1,0.00300,-0.03474,0.01266*
20,1,0.00300,-0.03474,0.01266,-0.03231,0.01509,0.00000*
1,1,0.00300,-0.03231,0.01509*
20,1,0.00300,-0.03231,0.01509,-0.02950,0.01706,0.00000*
1,1,0.00300,-0.02950,0.01706*
20,1,0.00300,-0.02950,0.01706,-0.02639,0.01851,0.00000*
1,1,0.00300,-0.02639,0.01851*
20,1,0.00300,-0.02639,0.01851,-0.02307,0.01940,0.00000*
1,1,0.00300,-0.02307,0.01940*
20,1,0.00300,-0.02307,0.01940,-0.01965,0.01970,0.00000*
1,1,0.00300,-0.01965,0.01970*
1,1,0.00300,-0.00990,-0.00980*
20,1,0.00300,-0.00990,-0.00980,-0.01250,-0.00950,0.00000*
1,1,0.00300,-0.01250,-0.00950*
20,1,0.00300,-0.01250,-0.00950,-0.01480,-0.00820,0.00000*
1,1,0.00300,-0.01480,-0.00820*
20,1,0.00300,-0.01480,-0.00820,-0.01670,-0.00620,0.00000*
1,1,0.00300,-0.01670,-0.00620*
20,1,0.00300,-0.01670,-0.00620,-0.01810,-0.00390,0.00000*
1,1,0.00300,-0.01810,-0.00390*
20,1,0.00300,-0.01810,-0.00390,-0.01870,-0.00130,0.00000*
1,1,0.00300,-0.01870,-0.00130*
20,1,0.00300,-0.01870,-0.00130,-0.01870,0.00140,0.00000*
1,1,0.00300,-0.01870,0.00140*
20,1,0.00300,-0.01870,0.00140,-0.01810,0.00400,0.00000*
1,1,0.00300,-0.01810,0.00400*
20,1,0.00300,-0.01810,0.00400,-0.01670,0.00630,0.00000*
1,1,0.00300,-0.01670,0.00630*
20,1,0.00300,-0.01670,0.00630,-0.01480,0.00830,0.00000*
1,1,0.00300,-0.01480,0.00830*
20,1,0.00300,-0.01480,0.00830,-0.01250,0.00960,0.00000*
1,1,0.00300,-0.01250,0.00960*
20,1,0.00300,-0.01250,0.00960,-0.00990,0.00990,0.00000*
1,1,0.00300,-0.00990,0.00990*
20,1,0.00300,-0.00990,0.00990,-0.00720,0.00960,0.00000*
1,1,0.00300,-0.00720,0.00960*
20,1,0.00300,-0.00720,0.00960,-0.00490,0.00830,0.00000*
1,1,0.00300,-0.00490,0.00830*
20,1,0.00300,-0.00490,0.00830,-0.00300,0.00630,0.00000*
1,1,0.00300,-0.00300,0.00630*
20,1,0.00300,-0.00300,0.00630,-0.00160,0.00400,0.00000*
1,1,0.00300,-0.00160,0.00400*
20,1,0.00300,-0.00160,0.00400,-0.00100,0.00140,0.00000*
1,1,0.00300,-0.00100,0.00140*
20,1,0.00300,-0.00100,0.00140,-0.00100,-0.00130,0.00000*
1,1,0.00300,-0.00100,-0.00130*
20,1,0.00300,-0.00100,-0.00130,-0.00160,-0.00390,0.00000*
1,1,0.00300,-0.00160,-0.00390*
20,1,0.00300,-0.00160,-0.00390,-0.00300,-0.00620,0.00000*
1,1,0.00300,-0.00300,-0.00620*
20,1,0.00300,-0.00300,-0.00620,-0.00490,-0.00820,0.00000*
1,1,0.00300,-0.00490,-0.00820*
20,1,0.00300,-0.00490,-0.00820,-0.00720,-0.00950,0.00000*
1,1,0.00300,-0.00720,-0.00950*
20,1,0.00300,-0.00720,-0.00950,-0.00990,-0.00980,0.00000*
1,1,0.00300,-0.00990,-0.00980*
1,1,0.00300,0.00170,-0.00980*
20,1,0.00300,0.00170,-0.00980,0.00990,0.00990,0.00000*
1,1,0.00300,0.00990,0.00990*
20,1,0.00300,0.00990,0.00990,0.01820,-0.00980,0.00000*
1,1,0.00300,0.01820,-0.00980*
1,1,0.00300,0.01520,-0.00290*
20,1,0.00300,0.01520,-0.00290,0.00470,-0.00290,0.00000*
1,1,0.00300,0.00470,-0.00290*
%
%ADD28C,0.00800*%
%ADD63MACRO10*%
%ADD64MACRO14*%
%ADD65MACRO13*%
%ADD66MACRO12*%
%ADD67MACRO11*%
%ADD68MACRO24*%
%ADD69MACRO16*%
%ADD74MACRO15*%
%ADD75MACRO25*%
%ADD76MACRO22*%
%ADD77MACRO23*%
%ADD78MACRO18*%
%ADD79MACRO21*%
%ADD80MACRO17*%
%ADD81MACRO20*%
%ADD82MACRO19*%
%ADD83C,0.00300*%
%LNNC_Drilllegend.*%
%LPD*%
G54D63*
X-183070Y-88590D03*
Y187010D03*
X183070Y-88590D03*
Y187010D03*
X304310Y-181430D03*
G54D81*
X6260Y-65750D03*
X304310Y-321980D03*
G54D67*
X-191850Y-70790D03*
Y-60790D03*
Y-50790D03*
Y-40790D03*
Y-30790D03*
Y-20790D03*
Y-10790D03*
Y-790D03*
Y9210D03*
Y19210D03*
Y29210D03*
Y39210D03*
Y49210D03*
Y59210D03*
Y69210D03*
Y79210D03*
Y89210D03*
Y99210D03*
Y109210D03*
Y119210D03*
Y129210D03*
Y139210D03*
Y149210D03*
Y159210D03*
Y169210D03*
X-181850Y-70790D03*
Y-60790D03*
Y-50790D03*
Y-40790D03*
Y-30790D03*
Y-20790D03*
Y-10790D03*
Y-790D03*
Y9210D03*
Y19210D03*
Y29210D03*
Y39210D03*
Y49210D03*
Y59210D03*
Y69210D03*
Y79210D03*
Y89210D03*
Y99210D03*
Y109210D03*
Y119210D03*
Y129210D03*
Y139210D03*
Y149210D03*
Y159210D03*
Y169210D03*
X-155550Y-88350D03*
Y-58350D03*
Y-68350D03*
Y-48350D03*
X-166310Y123800D03*
Y133800D03*
Y143800D03*
X-138090Y97720D03*
Y107720D03*
Y127720D03*
Y117720D03*
X-112440Y184040D03*
X-102440D03*
X-82800Y159010D03*
X-92800D03*
X-64910Y-66460D03*
X-72800Y159010D03*
X-47030Y-66460D03*
X-54910D03*
X-56840Y-31010D03*
X-46840D03*
X-52800Y159010D03*
X-62800D03*
X-37030Y-66460D03*
X-36840Y-31010D03*
X-30990Y105450D03*
Y115450D03*
X-40990D03*
Y105450D03*
X-30990Y125450D03*
X-40990D03*
X-32800Y159010D03*
X-42800D03*
X-26840Y-31010D03*
X-16840D03*
X-12800Y159010D03*
X-22800D03*
X-6840Y-31010D03*
X3160D03*
X-2800Y159010D03*
X13160Y-31010D03*
X23190Y159060D03*
X13190D03*
X19300Y174230D03*
Y191950D03*
X33190Y-31010D03*
Y159060D03*
X53190Y-31010D03*
X43190D03*
X53190Y159060D03*
X43190D03*
X46860Y174230D03*
Y191950D03*
X73190Y-31010D03*
X63190D03*
X73190Y159060D03*
X63190D03*
X83190Y-31010D03*
Y159060D03*
X109460Y-90610D03*
X119460D03*
X118040Y-46320D03*
X128040D03*
X123040Y-36320D03*
X138040Y-46320D03*
X133040Y-36320D03*
X143040D03*
X161660Y-90610D03*
X151660D03*
X148040Y-46320D03*
X153040Y-36320D03*
X304310Y-40880D03*
Y-12770D03*
G54D79*
X37710Y-83860D03*
Y-61810D03*
X45590Y-93700D03*
Y-69290D03*
Y-47250D03*
X72390Y-83860D03*
Y-61810D03*
X80270Y-93700D03*
Y-69290D03*
Y-47250D03*
X304310Y-265760D03*
G54D66*
X-171310Y-73390D03*
X-170110Y175420D03*
X183420Y-67380D03*
X185060Y12360D03*
X186940Y166530D03*
X304310Y15340D03*
G54D76*
X113040Y-71320D03*
X158080D03*
X304310Y-237650D03*
G54D65*
X-157950Y26450D03*
X-147050Y-30750D03*
X-136850Y28550D03*
X-141600Y149050D03*
X-149700Y185100D03*
X-144600D03*
X-126260Y-13350D03*
X-132000Y-23200D03*
X-131400Y23300D03*
X-118750Y14450D03*
X-129950Y92900D03*
X-120050Y161750D03*
X-122050Y169050D03*
X-114150Y31550D03*
X-109900Y123900D03*
X-104850Y147900D03*
X-114900Y173550D03*
X-98250Y-33450D03*
X-87200Y16400D03*
X-87690Y179840D03*
X-71480Y-58480D03*
X-66550Y16550D03*
X-73250Y29950D03*
X-76250Y55700D03*
X-82650Y145950D03*
X-72600Y179750D03*
X-64240Y-86460D03*
X-55250Y-9650D03*
X-65750Y30150D03*
X-65150Y44690D03*
X-59570Y36040D03*
X-49100Y55000D03*
X-56600Y71550D03*
X-59020Y66430D03*
X-64360Y100010D03*
X-57900Y179300D03*
X-41440Y-93210D03*
X-34650Y-7700D03*
X-44900Y39100D03*
X-45300Y27740D03*
X-33000Y52300D03*
X-39050Y78900D03*
X-33350Y68050D03*
X-48250Y78750D03*
X-39840Y87960D03*
X-43450Y173400D03*
X-19300Y-62950D03*
X-23250Y-44850D03*
X-29800Y10950D03*
X-29050Y15300D03*
X-30800Y41350D03*
X-14690Y178860D03*
X-15650Y191700D03*
X-5560Y-45160D03*
X-1850Y-20950D03*
X9890Y-52490D03*
X15750Y11200D03*
X19500Y15100D03*
X20450Y27900D03*
X7950Y154600D03*
X36860Y2540D03*
X30450Y4700D03*
X34210Y140810D03*
X41200Y4000D03*
X51150Y35700D03*
X47350Y148290D03*
X44090Y140410D03*
X59520Y-76820D03*
X60570Y-53620D03*
X64200Y148840D03*
X59060Y140960D03*
X90700Y-66000D03*
X86770Y75930D03*
X81350Y69850D03*
X80050Y88350D03*
Y81300D03*
X83610Y140410D03*
X74010Y140760D03*
X92400Y-91390D03*
X96830Y-72470D03*
X95680Y-47280D03*
X98430Y7920D03*
X92240Y2610D03*
X96850Y148000D03*
X103610Y165140D03*
X117400Y-16550D03*
X114840Y-2340D03*
X120050Y4950D03*
X110600Y20050D03*
X112010Y28240D03*
X119500Y108950D03*
X110540Y136260D03*
X121450Y163850D03*
X110540Y164540D03*
X139000Y-560D03*
X138670Y45600D03*
X134020D03*
X140950Y65300D03*
X133200Y102340D03*
X136100Y156600D03*
X150110Y-25660D03*
X151900Y13500D03*
X150080Y40640D03*
X145430D03*
X151900Y49100D03*
X159300Y54800D03*
X150570Y67070D03*
X157400Y97350D03*
X144770Y130020D03*
X173750Y-8300D03*
X164400Y-130D03*
X164830Y14420D03*
X176200Y27950D03*
X172980Y53820D03*
X175560Y69990D03*
X161980Y114270D03*
X168080Y116390D03*
X170420Y142130D03*
X184550Y-42900D03*
X186860Y-18260D03*
X186070Y128820D03*
X304310Y99670D03*
G54D77*
X105050Y-59310D03*
X166070D03*
X304310Y-68990D03*
G54D64*
X-160350Y101450D03*
X-167580Y116580D03*
X-140500Y167000D03*
X-128750Y32100D03*
X-123450Y55650D03*
X-122250Y88850D03*
X-125050Y91400D03*
X-134250Y139600D03*
Y143470D03*
X-124450Y135000D03*
X-116650Y21300D03*
X-115500Y40800D03*
X-101550Y45280D03*
Y49600D03*
X-110300Y56300D03*
X-110400Y50250D03*
X-110250Y59250D03*
X-117050Y70850D03*
X-116300Y62500D03*
X-102350Y80100D03*
X-111600Y109510D03*
X-104390Y106310D03*
X-108800Y116000D03*
X-118400Y166350D03*
X-87740Y-19240D03*
X-101250Y6750D03*
X-97800Y17250D03*
X-100400Y29350D03*
X-87650Y30200D03*
X-96600Y28250D03*
X-84650Y43600D03*
X-92050Y29900D03*
X-92150Y44450D03*
X-101350Y36150D03*
X-97050Y46820D03*
X-88200Y46550D03*
X-98650Y79350D03*
X-95800Y77400D03*
X-89200Y67450D03*
X-92250Y95850D03*
X-100870Y100070D03*
X-87300Y113950D03*
X-95680Y108690D03*
X-90200Y104250D03*
X-88050Y108350D03*
X-93200Y101250D03*
X-90600Y99150D03*
X-85800Y98650D03*
X-87850Y100750D03*
X-84500Y101650D03*
X-87150Y127750D03*
X-96560Y115990D03*
X-78450Y43450D03*
X-83700Y30800D03*
X-71950Y40150D03*
X-81550Y43800D03*
X-79700Y30000D03*
X-71450Y45650D03*
X-73350Y64150D03*
X-67550Y79250D03*
X-71360Y78960D03*
X-66800Y87250D03*
X-66900Y90950D03*
X-70600Y113000D03*
X-80700Y112950D03*
X-74180Y107150D03*
X-82350Y104850D03*
X-77550Y109450D03*
X-80650Y107400D03*
X-74510Y127260D03*
X-78700Y127400D03*
X-63950Y-28400D03*
X-56200Y-15660D03*
X-60350Y-19450D03*
X-62650Y-13050D03*
X-58400Y79050D03*
X-62460Y77650D03*
X-52900Y92700D03*
X-53850Y84550D03*
X-64900Y106950D03*
X-59350Y123650D03*
X-50100Y126250D03*
X-54450Y124850D03*
X-59150Y119100D03*
X-61060Y167390D03*
X-32750Y9300D03*
X-47250Y-2850D03*
X-31910Y16710D03*
X-42810Y24590D03*
X-43050Y42850D03*
X-42350Y36750D03*
X-32880Y47050D03*
X-34800Y62400D03*
X-42710Y62350D03*
X-31700Y87800D03*
X-32300Y84000D03*
X-35350Y80450D03*
X-47300Y134050D03*
X-48500Y138250D03*
X-33020Y175320D03*
X-14900Y-14850D03*
X-19100Y-17600D03*
Y9110D03*
X-22800Y8950D03*
X-21150Y3550D03*
X-21100Y11550D03*
X-25250Y12250D03*
X-25330Y25350D03*
X-21300Y23350D03*
X-18100Y29350D03*
X-19700Y34350D03*
X-18950Y42150D03*
X-30350Y37190D03*
X-23800Y28600D03*
X-25410Y36050D03*
X-25000Y31650D03*
X-15000Y38550D03*
X-18300Y36950D03*
X-17100Y46900D03*
X-23240Y46710D03*
X-30250Y45500D03*
X-31250Y63400D03*
X-16650Y65100D03*
X-15300Y76650D03*
X-20600Y87800D03*
X-23300Y84950D03*
X-25750Y80250D03*
X-28450Y96600D03*
X-20850Y111250D03*
X-19700Y122900D03*
X-22850Y126000D03*
X-20900Y142750D03*
X-29300Y178050D03*
X-1750Y-37500D03*
X-11400Y-25650D03*
X-11350Y-12050D03*
X-8800Y-21000D03*
X2050Y8600D03*
X-5350Y800D03*
X-8400Y3200D03*
X-13000Y3050D03*
X1100Y-3050D03*
X-2200Y21500D03*
X-8350Y20450D03*
X-11900Y20150D03*
X-3000Y13700D03*
X-600Y15700D03*
X2450Y18900D03*
X-7500Y41300D03*
X-10250Y49400D03*
X3300Y63250D03*
X-10550Y62100D03*
X-850Y64550D03*
X-5000Y90700D03*
X-12850Y79700D03*
X-3800Y100700D03*
X-2700Y121800D03*
X1450Y137400D03*
X500Y142000D03*
X-7800Y136000D03*
X11250Y-43500D03*
X19000Y-40300D03*
X12300Y-1200D03*
X14800Y-3610D03*
X17550Y6790D03*
Y2920D03*
X4500Y11900D03*
X20510Y19860D03*
X7550Y38400D03*
X15750Y41750D03*
X5650Y28050D03*
X18250Y45950D03*
X8730Y112800D03*
X6450Y107950D03*
X11700Y97850D03*
X13050Y114300D03*
X10730Y125400D03*
X16350Y138650D03*
X19450Y146800D03*
X9640Y146750D03*
X6100Y144200D03*
X9650Y150300D03*
X35800Y-3950D03*
X22110Y-6550D03*
X34000Y5850D03*
X35750Y9500D03*
X20950Y35150D03*
X30300Y71500D03*
X28300Y68250D03*
X30110Y91940D03*
X25600Y110350D03*
X21890Y110540D03*
X35600Y108000D03*
X21850Y120700D03*
X22430Y146900D03*
X23050Y150050D03*
X47700Y18590D03*
X42400Y20590D03*
X50600Y14250D03*
X47450Y13990D03*
X46650Y23000D03*
X43450Y11990D03*
X53500Y39900D03*
X49900D03*
X38750Y30500D03*
X46250D03*
X53300Y30750D03*
X42600Y30600D03*
X50050Y30800D03*
X40900Y54750D03*
X48650Y55200D03*
X40100Y91750D03*
X44350Y96700D03*
X49350Y104850D03*
X46850Y102850D03*
X47100Y109750D03*
X51900Y109250D03*
X53600Y112370D03*
X44450Y120850D03*
X39750Y117500D03*
X45470Y124850D03*
X55600Y125850D03*
X49850Y138950D03*
X64950Y-12400D03*
X71800Y-7450D03*
X73150Y26250D03*
X56950Y40050D03*
X59700Y55750D03*
Y52500D03*
X60600Y78600D03*
X65150Y112050D03*
X56900Y105150D03*
X61250Y112050D03*
X69950Y123400D03*
X66700Y123300D03*
X65350Y139400D03*
X90050Y6450D03*
X85950Y-1950D03*
X73650Y7700D03*
X74750Y-3850D03*
X78300Y24550D03*
X78850Y14950D03*
X75500Y14850D03*
X77400Y34350D03*
X76300Y40650D03*
X82250Y29300D03*
X76300Y105250D03*
X73620Y123400D03*
X94370Y47670D03*
X107050Y48900D03*
X105580Y115820D03*
X120660Y-21360D03*
X124700Y57800D03*
X116620Y67180D03*
X110450Y66650D03*
X113570Y103080D03*
X116250Y125300D03*
X116620Y121230D03*
X142740Y-13090D03*
X135130Y-12630D03*
X128250Y-12800D03*
X142350Y13350D03*
X140850Y32900D03*
X127950Y48750D03*
X141650Y52550D03*
X126050Y86850D03*
X132350Y130300D03*
X134150Y121150D03*
X134450Y125200D03*
X140450Y134300D03*
X154250Y-12650D03*
X144330Y26180D03*
X146260Y16660D03*
X143750Y29750D03*
X150450Y83200D03*
X145700Y122550D03*
X154470Y129670D03*
X149250Y134750D03*
X153500Y145150D03*
X168080Y-13020D03*
X161400Y-12550D03*
X162050Y24050D03*
X173450Y34750D03*
X162950Y37850D03*
Y28250D03*
X163270Y32450D03*
X163450Y76150D03*
X162400Y132100D03*
X304310Y127780D03*
G54D74*
X-113140Y-84180D03*
Y-60560D03*
X-94240Y-72370D03*
X304310Y-125210D03*
G54D68*
X119960Y182480D03*
X151260D03*
X304310Y-153320D03*
G54D75*
X171960Y94950D03*
Y124950D03*
X304310Y43450D03*
G54D69*
X-111830Y-30980D03*
X-106830Y159020D03*
X93170Y-10980D03*
Y99020D03*
X304310Y-209550D03*
G54D80*
X-92390Y137200D03*
X-76160Y16040D03*
X-73170Y137200D03*
X-56940Y16040D03*
X181200Y32640D03*
Y51860D03*
X304310Y71560D03*
G54D78*
X-76950Y-75120D03*
X-26170D03*
X304310Y-97110D03*
G54D82*
X6260Y-80710D03*
X304310Y-293870D03*
G54D28*
X-217650Y261250D02*
G01X187350D01*
X-217650Y491250D02*
G01Y261330D01*
Y291250D02*
G01X187350D01*
X-217650Y301250D02*
G01X187350D01*
X-217650Y341250D02*
G01X187350D01*
X-217650Y381250D02*
G01X187350D01*
X-217650Y441250D02*
G01X187350D01*
X-217650Y431250D02*
G01X187350D01*
X-217650Y461250D02*
G01X187350D01*
X-217650Y451250D02*
G01X187350D01*
X-217650Y471250D02*
G01X187350D01*
X-217650Y491250D02*
G01X187350D01*
X-217650Y481250D02*
G01X187350D01*
X-132650Y261490D02*
G01Y341250D01*
Y321250D02*
G01X187350D01*
X-132650Y311250D02*
G01X187350D01*
X-132650Y331250D02*
G01X187350D01*
X-132650Y341250D02*
G01Y381250D01*
Y351250D02*
G01X187350D01*
X-132650Y371250D02*
G01X187350D01*
X-132650Y361250D02*
G01X187350D01*
X-132650Y381250D02*
G01Y431250D01*
X-55150Y481250D02*
G01Y471250D01*
Y491250D02*
G01Y481250D01*
X32350D02*
G01Y471250D01*
Y491250D02*
G01Y481250D01*
X187350Y491250D02*
G01Y261330D01*
G54D83*
X-206850Y-98430D02*
G01X-261970D01*
X-206850Y196850D02*
G01X-261970D01*
X-251970Y39840D02*
G01Y-98430D01*
X-254450Y-83430D02*
G01X-251970Y-98430D01*
X-249490Y-83430*
X-254450*
X-255890Y45430D02*
G01X-255710Y47060D01*
X-255430Y48440*
X-255050Y49690*
X-254590Y51070*
X-253840Y52950*
X-257570*
X-250270Y46560D02*
G01X-249720Y45930D01*
X-249060Y45560*
X-248230Y45430*
X-247390Y45680*
X-246730Y46180*
X-246270Y47060*
X-246180Y48060*
X-246360Y49060*
X-246830Y49690*
X-247480Y50190*
X-248130Y50320*
X-248780Y50190*
X-249620Y49690*
X-249340Y52950*
X-246830*
X-251970Y58580D02*
G01Y196850D01*
X-249490Y181850D02*
G01X-251970Y196850D01*
X-254450Y181850*
X-249490*
X-193070Y-84650D02*
G01X-231460D01*
X-226970Y47580D02*
G01X-226310Y48460D01*
X-225750Y48960*
X-225010Y49210*
X-224360Y48960*
X-223890Y48460*
X-223520Y47710*
X-223420Y46830*
X-223520Y46080*
X-223890Y45330*
X-224450Y44700*
X-225100Y44450*
X-225850Y44700*
X-226500Y45450*
X-226870Y46580*
X-226970Y47830*
X-226780Y49460*
X-226500Y50340*
X-226030Y51220*
X-225380Y51840*
X-224730Y51970*
X-224080Y51720*
X-223610Y51090*
X-217720Y44450D02*
G01X-217060Y44580D01*
X-216320Y44950*
X-215850Y45580*
X-215670Y46460*
X-215850Y47330*
X-216410Y48080*
X-217250Y48460*
X-218180*
X-218740Y48710*
X-219210Y49340*
X-219390Y50220*
X-219110Y51090*
X-218460Y51720*
X-217720Y51970*
X-216970Y51720*
X-216320Y51090*
X-216040Y50220*
X-216220Y49340*
X-216690Y48710*
X-217250Y48460*
X-218180*
X-219020Y48080*
X-219580Y47330*
X-219760Y46460*
X-219580Y45580*
X-219110Y44950*
X-218370Y44580*
X-217720Y44450*
X-193070Y183070D02*
G01X-231460D01*
X-221460Y38860D02*
G01Y-84650D01*
X-223940Y-69650D02*
G01X-221460Y-84650D01*
X-218980Y-69650*
X-223940*
X-221460Y57600D02*
G01Y183070D01*
X-218980Y168070D02*
G01X-221460Y183070D01*
X-223940Y168070*
X-218980*
X-210640Y326250D02*
G01Y331250D01*
X-209380*
X-208870Y331000*
X-208490Y330670*
X-208170Y330170*
X-207920Y329580*
X-207860Y328750*
X-207920Y327920*
X-208170Y327330*
X-208490Y326830*
X-208870Y326500*
X-209380Y326250*
X-210640*
X-204910Y331250D02*
G01X-203390D01*
X-204150D02*
G01Y326250D01*
X-204910D02*
G01X-203390D01*
X-200250D02*
G01Y331250D01*
X-197850*
X-198730Y328830D02*
G01X-200250D01*
X-195150Y326250D02*
G01Y331250D01*
X-192750*
X-193630Y328830D02*
G01X-195150D01*
X-184510Y331250D02*
G01X-182990D01*
X-183750D02*
G01Y326250D01*
X-184510D02*
G01X-182990D01*
X-180300D02*
G01Y331250D01*
X-178650Y327080*
X-177000Y331250*
Y326250*
X-174820D02*
G01Y331250D01*
X-173300*
X-172790Y331000*
X-172410Y330420*
X-172280Y329750*
X-172410Y329080*
X-172730Y328580*
X-173300Y328330*
X-174820*
X-167180Y326250D02*
G01X-169720D01*
Y331250*
X-167180*
X-168200Y328830D02*
G01X-169720D01*
X-164740Y326250D02*
G01Y331250D01*
X-163480*
X-162970Y331000*
X-162590Y330670*
X-162270Y330170*
X-162020Y329580*
X-161960Y328750*
X-162020Y327920*
X-162270Y327330*
X-162590Y326830*
X-162970Y326500*
X-163480Y326250*
X-164740*
X-159830D02*
G01X-158250Y331250D01*
X-156670Y326250*
X-157240Y328000D02*
G01X-159260D01*
X-154610Y326250D02*
G01Y331250D01*
X-151690Y326250*
Y331250*
X-146660Y330830D02*
G01X-147040Y331080D01*
X-147480Y331250*
X-147990*
X-148560Y331000*
X-149000Y330580*
X-149320Y330080*
X-149570Y329250*
X-149630Y328500*
X-149510Y327750*
X-149320Y327250*
X-148940Y326750*
X-148490Y326420*
X-148050Y326250*
X-147610*
X-147160Y326420*
X-146780Y326670*
X-146470Y327000*
X-141680Y326250D02*
G01X-144220D01*
Y331250*
X-141680*
X-142700Y328830D02*
G01X-144220D01*
X-214580Y366920D02*
G01X-214070Y366500D01*
X-213500Y366250*
X-213000*
X-212490Y366500*
X-212110Y366920*
X-211920Y367500*
X-212050Y368080*
X-212360Y368580*
X-212930Y368920*
X-213690Y369080*
X-214140Y369420*
X-214330Y370000*
X-214200Y370580*
X-213880Y371000*
X-213440Y371250*
X-213000*
X-212550Y371080*
X-212170Y370670*
X-208910Y371250D02*
G01X-207390D01*
X-208150D02*
G01Y366250D01*
X-208910D02*
G01X-207390D01*
X-204510D02*
G01Y371250D01*
X-201590Y366250*
Y371250*
X-197570Y368750D02*
G01X-196300D01*
Y367250*
X-196680Y366750*
X-197130Y366420*
X-197760Y366250*
X-198390Y366420*
X-198840Y366750*
X-199220Y367250*
X-199470Y367830*
X-199600Y368500*
Y369080*
X-199470Y369580*
X-199220Y370170*
X-198840Y370670*
X-198460Y371000*
X-197950Y371250*
X-197510*
X-197000Y371080*
X-196620Y370750*
X-194120Y371250D02*
G01Y366250D01*
X-191580*
X-186480D02*
G01X-189020D01*
Y371250*
X-186480*
X-187500Y368830D02*
G01X-189020D01*
X-178310Y371250D02*
G01X-176790D01*
X-177550D02*
G01Y366250D01*
X-178310D02*
G01X-176790D01*
X-174100D02*
G01Y371250D01*
X-172450Y367080*
X-170800Y371250*
Y366250*
X-168620D02*
G01Y371250D01*
X-167100*
X-166590Y371000*
X-166210Y370420*
X-166080Y369750*
X-166210Y369080*
X-166530Y368580*
X-167100Y368330*
X-168620*
X-160980Y366250D02*
G01X-163520D01*
Y371250*
X-160980*
X-162000Y368830D02*
G01X-163520D01*
X-158540Y366250D02*
G01Y371250D01*
X-157280*
X-156770Y371000*
X-156390Y370670*
X-156070Y370170*
X-155820Y369580*
X-155760Y368750*
X-155820Y367920*
X-156070Y367330*
X-156390Y366830*
X-156770Y366500*
X-157280Y366250*
X-158540*
X-153630D02*
G01X-152050Y371250D01*
X-150470Y366250*
X-151040Y368000D02*
G01X-153060D01*
X-148410Y366250D02*
G01Y371250D01*
X-145490Y366250*
Y371250*
X-140460Y370830D02*
G01X-140840Y371080D01*
X-141280Y371250*
X-141790*
X-142360Y371000*
X-142800Y370580*
X-143120Y370080*
X-143370Y369250*
X-143430Y368500*
X-143310Y367750*
X-143120Y367250*
X-142740Y366750*
X-142290Y366420*
X-141850Y366250*
X-141410*
X-140960Y366420*
X-140580Y366670*
X-140270Y367000*
X-135480Y366250D02*
G01X-138020D01*
Y371250*
X-135480*
X-136500Y368830D02*
G01X-138020D01*
X-214520Y411250D02*
G01Y416250D01*
X-213000*
X-212490Y416000*
X-212110Y415420*
X-211980Y414750*
X-212110Y414080*
X-212430Y413580*
X-213000Y413330*
X-214520*
X-209420Y416250D02*
G01Y411250D01*
X-206880*
X-204630D02*
G01X-203050Y416250D01*
X-201470Y411250*
X-202040Y413000D02*
G01X-204060D01*
X-197950Y416250D02*
G01Y411250D01*
X-199410Y416250D02*
G01X-196490D01*
X-191580Y411250D02*
G01X-194120D01*
Y416250*
X-191580*
X-192600Y413830D02*
G01X-194120D01*
X-189140Y411250D02*
G01Y416250D01*
X-187880*
X-187370Y416000*
X-186990Y415670*
X-186670Y415170*
X-186420Y414580*
X-186360Y413750*
X-186420Y412920*
X-186670Y412330*
X-186990Y411830*
X-187370Y411500*
X-187880Y411250*
X-189140*
X-177550Y416250D02*
G01Y411250D01*
X-179010Y416250D02*
G01X-176090D01*
X-171180Y411250D02*
G01X-173720D01*
Y416250*
X-171180*
X-172200Y413830D02*
G01X-173720D01*
X-165960Y415830D02*
G01X-166340Y416080D01*
X-166780Y416250*
X-167290*
X-167860Y416000*
X-168300Y415580*
X-168620Y415080*
X-168870Y414250*
X-168930Y413500*
X-168810Y412750*
X-168620Y412250*
X-168240Y411750*
X-167790Y411420*
X-167350Y411250*
X-166910*
X-166460Y411420*
X-166080Y411670*
X-165770Y412000*
X-163580Y411250D02*
G01Y416250D01*
X-160920D02*
G01Y411250D01*
Y413750D02*
G01X-163580D01*
X-158610Y411250D02*
G01Y416250D01*
X-155690Y411250*
Y416250*
X-152810D02*
G01X-151290D01*
X-152050D02*
G01Y411250D01*
X-152810D02*
G01X-151290D01*
X-145560Y415830D02*
G01X-145940Y416080D01*
X-146380Y416250*
X-146890*
X-147460Y416000*
X-147900Y415580*
X-148220Y415080*
X-148470Y414250*
X-148530Y413500*
X-148410Y412750*
X-148220Y412250*
X-147840Y411750*
X-147390Y411420*
X-146950Y411250*
X-146510*
X-146060Y411420*
X-145680Y411670*
X-145370Y412000*
X-143180Y411920D02*
G01X-142670Y411500D01*
X-142100Y411250*
X-141600*
X-141090Y411500*
X-140710Y411920*
X-140520Y412500*
X-140650Y413080*
X-140960Y413580*
X-141530Y413920*
X-142290Y414080*
X-142740Y414420*
X-142930Y415000*
X-142800Y415580*
X-142480Y416000*
X-142040Y416250*
X-141600*
X-141150Y416080*
X-140770Y415670*
X-136750Y411080D02*
G01X-136880Y411170D01*
Y411330*
X-136750Y411420*
X-136620Y411330*
Y411170*
X-136750Y411080*
Y413330D02*
G01X-136880Y413420D01*
Y413580*
X-136750Y413670*
X-136620Y413580*
Y413420*
X-136750Y413330*
X-214640Y443750D02*
G01Y448750D01*
X-213380*
X-212870Y448500*
X-212490Y448170*
X-212170Y447670*
X-211920Y447080*
X-211860Y446250*
X-211920Y445420*
X-212170Y444830*
X-212490Y444330*
X-212870Y444000*
X-213380Y443750*
X-214640*
X-208910Y448750D02*
G01X-207390D01*
X-208150D02*
G01Y443750D01*
X-208910D02*
G01X-207390D01*
X-201780D02*
G01X-204320D01*
Y448750*
X-201780*
X-202800Y446330D02*
G01X-204320D01*
X-199220Y448750D02*
G01Y443750D01*
X-196680*
X-191580D02*
G01X-194120D01*
Y448750*
X-191580*
X-192600Y446330D02*
G01X-194120D01*
X-186360Y448330D02*
G01X-186740Y448580D01*
X-187180Y448750*
X-187690*
X-188260Y448500*
X-188700Y448080*
X-189020Y447580*
X-189270Y446750*
X-189330Y446000*
X-189210Y445250*
X-189020Y444750*
X-188640Y444250*
X-188190Y443920*
X-187750Y443750*
X-187310*
X-186860Y443920*
X-186480Y444170*
X-186170Y444500*
X-182650Y448750D02*
G01Y443750D01*
X-184110Y448750D02*
G01X-181190D01*
X-178820Y443750D02*
G01Y448750D01*
X-177230*
X-176730Y448500*
X-176410Y448170*
X-176280Y447500*
X-176410Y446830*
X-176790Y446420*
X-177230Y446170*
X-178820*
X-177230D02*
G01X-176280Y443750D01*
X-173210Y448750D02*
G01X-171690D01*
X-172450D02*
G01Y443750D01*
X-173210D02*
G01X-171690D01*
X-165960Y448330D02*
G01X-166340Y448580D01*
X-166780Y448750*
X-167290*
X-167860Y448500*
X-168300Y448080*
X-168620Y447580*
X-168870Y446750*
X-168930Y446000*
X-168810Y445250*
X-168620Y444750*
X-168240Y444250*
X-167790Y443920*
X-167350Y443750*
X-166910*
X-166460Y443920*
X-166080Y444170*
X-165770Y444500*
X-158800Y443750D02*
G01Y448750D01*
X-157150Y444580*
X-155500Y448750*
Y443750*
X-153630D02*
G01X-152050Y448750D01*
X-150470Y443750*
X-151040Y445500D02*
G01X-153060D01*
X-146950Y448750D02*
G01Y443750D01*
X-148410Y448750D02*
G01X-145490D01*
X-140580Y443750D02*
G01X-143120D01*
Y448750*
X-140580*
X-141600Y446330D02*
G01X-143120D01*
X-138020Y443750D02*
G01Y448750D01*
X-136430*
X-135930Y448500*
X-135610Y448170*
X-135480Y447500*
X-135610Y446830*
X-135990Y446420*
X-136430Y446170*
X-138020*
X-136430D02*
G01X-135480Y443750D01*
X-132410Y448750D02*
G01X-130890D01*
X-131650D02*
G01Y443750D01*
X-132410D02*
G01X-130890D01*
X-128130D02*
G01X-126550Y448750D01*
X-124970Y443750*
X-125540Y445500D02*
G01X-127560D01*
X-122720Y448750D02*
G01Y443750D01*
X-120180*
X-116350Y443580D02*
G01X-116480Y443670D01*
Y443830*
X-116350Y443920*
X-116220Y443830*
Y443670*
X-116350Y443580*
Y445830D02*
G01X-116480Y445920D01*
Y446080*
X-116350Y446170*
X-116220Y446080*
Y445920*
X-116350Y445830*
X-107350Y443750D02*
G01Y448750D01*
X-104950*
X-105830Y446330D02*
G01X-107350D01*
X-102320Y443750D02*
G01Y448750D01*
X-100730*
X-100230Y448500*
X-99910Y448170*
X-99780Y447500*
X-99910Y446830*
X-100290Y446420*
X-100730Y446170*
X-102320*
X-100730D02*
G01X-99780Y443750D01*
X-96770Y445420D02*
G01X-95130D01*
X-90090Y443750D02*
G01Y448750D01*
X-92430Y445170*
X-89270*
X-211980Y433750D02*
G01X-214520D01*
Y438750*
X-211980*
X-213000Y436330D02*
G01X-214520D01*
X-209040Y433750D02*
G01Y437080D01*
Y436420D02*
G01X-208720Y436750D01*
X-208400Y437000*
X-207960Y437080*
X-207640Y437000*
X-207260Y436750*
X-202100Y434580D02*
G01X-202730Y433750D01*
X-203370*
X-204000Y434580*
Y436250*
X-203370Y437080*
X-202730*
X-202100Y436250*
Y434580*
X-201660Y433920*
X-201150Y434580*
Y437920*
X-201780Y438750*
X-204320*
X-204950Y437920*
Y432920*
X-204320Y432080*
X-201780*
X-201150Y432920*
X-197950Y433750D02*
G01Y438750D01*
X-198710Y437750*
Y433750D02*
G01X-197190D01*
X-192470Y436250D02*
G01X-191200D01*
Y434750*
X-191580Y434250*
X-192030Y433920*
X-192660Y433750*
X-193290Y433920*
X-193740Y434250*
X-194120Y434750*
X-194370Y435330*
X-194500Y436000*
Y436580*
X-194370Y437080*
X-194120Y437670*
X-193740Y438170*
X-193360Y438500*
X-192850Y438750*
X-192410*
X-191900Y438580*
X-191520Y438250*
X-189080Y433750D02*
G01Y438750D01*
X-186420D02*
G01Y433750D01*
Y436250D02*
G01X-189080D01*
X-183600Y437080D02*
G01X-181700D01*
X-183600Y433750*
X-181700*
X-172450Y438750D02*
G01Y433750D01*
X-173910Y438750D02*
G01X-170990D01*
X-167350Y433750D02*
G01X-167730Y433830D01*
X-168110Y434170*
X-168360Y434750*
X-168490Y435420*
X-168360Y436080*
X-168110Y436670*
X-167730Y437000*
X-167350Y437080*
X-166970Y437000*
X-166590Y436670*
X-166340Y436080*
X-166270Y435420*
X-166340Y434750*
X-166590Y434170*
X-166970Y433830*
X-167350Y433750*
X-157150D02*
G01Y438750D01*
X-157910Y437750*
Y433750D02*
G01X-156390D01*
X-153700D02*
G01Y438750D01*
X-152050Y434580*
X-150400Y438750*
Y433750*
X-148280D02*
G01Y438750D01*
X-145620D02*
G01Y433750D01*
Y436250D02*
G01X-148280D01*
X-142800Y437080D02*
G01X-140900D01*
X-142800Y433750*
X-140900*
X-136750Y433580D02*
G01X-136880Y433670D01*
Y433830*
X-136750Y433920*
X-136620Y433830*
Y433670*
X-136750Y433580*
Y435830D02*
G01X-136880Y435920D01*
Y436080*
X-136750Y436170*
X-136620Y436080*
Y435920*
X-136750Y435830*
X-105390Y433750D02*
G01Y438750D01*
X-107730Y435170*
X-104570*
X-101050Y433580D02*
G01X-101180Y433670D01*
Y433830*
X-101050Y433920*
X-100920Y433830*
Y433670*
X-101050Y433580*
X-97150Y437920D02*
G01X-96770Y438420D01*
X-96330Y438670*
X-95820Y438750*
X-95190Y438580*
X-94750Y438170*
X-94620Y437670*
X-94680Y437170*
X-94940Y436750*
X-96200Y435920*
X-96770Y435330*
X-97150Y434500*
X-97280Y433750*
X-94620*
X-91670Y435420D02*
G01X-90030D01*
X-86570D02*
G01X-84930D01*
X-81470D02*
G01X-79830D01*
X-74790Y433750D02*
G01Y438750D01*
X-77130Y435170*
X-73970*
X-70450Y433580D02*
G01X-70580Y433670D01*
Y433830*
X-70450Y433920*
X-70320Y433830*
Y433670*
X-70450Y433580*
X-66740Y434500D02*
G01X-66360Y434080D01*
X-65920Y433830*
X-65350Y433750*
X-64780Y433920*
X-64340Y434250*
X-64020Y434830*
X-63960Y435500*
X-64080Y436170*
X-64400Y436580*
X-64840Y436920*
X-65290Y437000*
X-65730Y436920*
X-66300Y436580*
X-66110Y438750*
X-64400*
X-214580Y464420D02*
G01X-214070Y464000D01*
X-213500Y463750*
X-213000*
X-212490Y464000*
X-212110Y464420*
X-211920Y465000*
X-212050Y465580*
X-212360Y466080*
X-212930Y466420*
X-213690Y466580*
X-214140Y466920*
X-214330Y467500*
X-214200Y468080*
X-213880Y468500*
X-213440Y468750*
X-213000*
X-212550Y468580*
X-212170Y468170*
X-208150Y463750D02*
G01X-208660Y463830D01*
X-209100Y464170*
X-209480Y464670*
X-209730Y465250*
X-209860Y465920*
Y466580*
X-209730Y467250*
X-209480Y467830*
X-209100Y468330*
X-208660Y468670*
X-208150Y468750*
X-207640Y468670*
X-207200Y468330*
X-206820Y467830*
X-206570Y467250*
X-206440Y466580*
Y465920*
X-206570Y465250*
X-206820Y464670*
X-207200Y464170*
X-207640Y463830*
X-208150Y463750*
X-204320Y468750D02*
G01Y463750D01*
X-201780*
X-199340D02*
G01Y468750D01*
X-198080*
X-197570Y468500*
X-197190Y468170*
X-196870Y467670*
X-196620Y467080*
X-196560Y466250*
X-196620Y465420*
X-196870Y464830*
X-197190Y464330*
X-197570Y464000*
X-198080Y463750*
X-199340*
X-191580D02*
G01X-194120D01*
Y468750*
X-191580*
X-192600Y466330D02*
G01X-194120D01*
X-189020Y463750D02*
G01Y468750D01*
X-187430*
X-186930Y468500*
X-186610Y468170*
X-186480Y467500*
X-186610Y466830*
X-186990Y466420*
X-187430Y466170*
X-189020*
X-187430D02*
G01X-186480Y463750D01*
X-179200D02*
G01Y468750D01*
X-177550Y464580*
X-175900Y468750*
Y463750*
X-174030D02*
G01X-172450Y468750D01*
X-170870Y463750*
X-171440Y465500D02*
G01X-173460D01*
X-168680Y464420D02*
G01X-168170Y464000D01*
X-167600Y463750*
X-167100*
X-166590Y464000*
X-166210Y464420*
X-166020Y465000*
X-166150Y465580*
X-166460Y466080*
X-167030Y466420*
X-167790Y466580*
X-168240Y466920*
X-168430Y467500*
X-168300Y468080*
X-167980Y468500*
X-167540Y468750*
X-167100*
X-166650Y468580*
X-166270Y468170*
X-163640Y463750D02*
G01Y468750D01*
X-161240D02*
G01X-163640Y465670D01*
X-160860Y463750D02*
G01X-162570Y467080D01*
X-157150Y463580D02*
G01X-157280Y463670D01*
Y463830*
X-157150Y463920*
X-157020Y463830*
Y463670*
X-157150Y463580*
Y465830D02*
G01X-157280Y465920D01*
Y466080*
X-157150Y466170*
X-157020Y466080*
Y465920*
X-157150Y465830*
X-152810Y468750D02*
G01X-151290D01*
X-152050D02*
G01Y463750D01*
X-152810D02*
G01X-151290D01*
X-148220D02*
G01Y468750D01*
X-146700*
X-146190Y468500*
X-145810Y467920*
X-145680Y467250*
X-145810Y466580*
X-146130Y466080*
X-146700Y465830*
X-148220*
X-140460Y468330D02*
G01X-140840Y468580D01*
X-141280Y468750*
X-141790*
X-142360Y468500*
X-142800Y468080*
X-143120Y467580*
X-143370Y466750*
X-143430Y466000*
X-143310Y465250*
X-143120Y464750*
X-142740Y464250*
X-142290Y463920*
X-141850Y463750*
X-141410*
X-140960Y463920*
X-140580Y464170*
X-140270Y464500*
X-132980Y464420D02*
G01X-132470Y464000D01*
X-131900Y463750*
X-131400*
X-130890Y464000*
X-130510Y464420*
X-130320Y465000*
X-130450Y465580*
X-130760Y466080*
X-131330Y466420*
X-132090Y466580*
X-132540Y466920*
X-132730Y467500*
X-132600Y468080*
X-132280Y468500*
X-131840Y468750*
X-131400*
X-130950Y468580*
X-130570Y468170*
X-128200Y463750D02*
G01Y468750D01*
X-126550Y464580*
X-124900Y468750*
Y463750*
X-122270Y465420D02*
G01X-120630D01*
X-116350Y463750D02*
G01X-115910Y463830D01*
X-115400Y464080*
X-115080Y464500*
X-114960Y465080*
X-115080Y465670*
X-115460Y466170*
X-116030Y466420*
X-116670*
X-117050Y466580*
X-117360Y467000*
X-117490Y467580*
X-117300Y468170*
X-116860Y468580*
X-116350Y468750*
X-115840Y468580*
X-115400Y468170*
X-115210Y467580*
X-115340Y467000*
X-115650Y466580*
X-116030Y466420*
X-116670*
X-117240Y466170*
X-117620Y465670*
X-117740Y465080*
X-117620Y464500*
X-117300Y464080*
X-116790Y463830*
X-116350Y463750*
X-110490D02*
G01Y468750D01*
X-112830Y465170*
X-109670*
X-106150Y468750D02*
G01X-106660Y468580D01*
X-107040Y468170*
X-107290Y467670*
X-107480Y467000*
X-107540Y466250*
X-107480Y465500*
X-107290Y464830*
X-107040Y464330*
X-106660Y463920*
X-106150Y463750*
X-105640Y463920*
X-105260Y464330*
X-105010Y464830*
X-104820Y465500*
X-104760Y466250*
X-104820Y467000*
X-105010Y467670*
X-105260Y468170*
X-105640Y468580*
X-106150Y468750*
X-101370Y462080D02*
G01X-102000Y462920D01*
X-102320Y463750*
Y467080*
X-102000Y467920*
X-101370Y468750*
X-94560Y468330D02*
G01X-94940Y468580D01*
X-95380Y468750*
X-95890*
X-96460Y468500*
X-96900Y468080*
X-97220Y467580*
X-97470Y466750*
X-97530Y466000*
X-97410Y465250*
X-97220Y464750*
X-96840Y464250*
X-96390Y463920*
X-95950Y463750*
X-95510*
X-95060Y463920*
X-94680Y464170*
X-94370Y464500*
X-90850Y463750D02*
G01X-91360Y463830D01*
X-91800Y464170*
X-92180Y464670*
X-92430Y465250*
X-92560Y465920*
Y466580*
X-92430Y467250*
X-92180Y467830*
X-91800Y468330*
X-91360Y468670*
X-90850Y468750*
X-90340Y468670*
X-89900Y468330*
X-89520Y467830*
X-89270Y467250*
X-89140Y466580*
Y465920*
X-89270Y465250*
X-89520Y464670*
X-89900Y464170*
X-90340Y463830*
X-90850Y463750*
X-87020Y468750D02*
G01Y463750D01*
X-84480*
X-80650D02*
G01X-81160Y463830D01*
X-81600Y464170*
X-81980Y464670*
X-82230Y465250*
X-82360Y465920*
Y466580*
X-82230Y467250*
X-81980Y467830*
X-81600Y468330*
X-81160Y468670*
X-80650Y468750*
X-80140Y468670*
X-79700Y468330*
X-79320Y467830*
X-79070Y467250*
X-78940Y466580*
Y465920*
X-79070Y465250*
X-79320Y464670*
X-79700Y464170*
X-80140Y463830*
X-80650Y463750*
X-76820D02*
G01Y468750D01*
X-75230*
X-74730Y468500*
X-74410Y468170*
X-74280Y467500*
X-74410Y466830*
X-74790Y466420*
X-75230Y466170*
X-76820*
X-75230D02*
G01X-74280Y463750D01*
X-66620D02*
G01Y468750D01*
X-65030*
X-64530Y468500*
X-64210Y468170*
X-64080Y467500*
X-64210Y466830*
X-64590Y466420*
X-65030Y466170*
X-66620*
X-65030D02*
G01X-64080Y463750D01*
X-58980D02*
G01X-61520D01*
Y468750*
X-58980*
X-60000Y466330D02*
G01X-61520D01*
X-56540Y463750D02*
G01Y468750D01*
X-55280*
X-54770Y468500*
X-54390Y468170*
X-54070Y467670*
X-53820Y467080*
X-53760Y466250*
X-53820Y465420*
X-54070Y464830*
X-54390Y464330*
X-54770Y464000*
X-55280Y463750*
X-56540*
X-49730Y462080D02*
G01X-49100Y462920D01*
X-48780Y463750*
Y467080*
X-49100Y467920*
X-49730Y468750*
X-214580Y454420D02*
G01X-214070Y454000D01*
X-213500Y453750*
X-213000*
X-212490Y454000*
X-212110Y454420*
X-211920Y455000*
X-212050Y455580*
X-212360Y456080*
X-212930Y456420*
X-213690Y456580*
X-214140Y456920*
X-214330Y457500*
X-214200Y458080*
X-213880Y458500*
X-213440Y458750*
X-213000*
X-212550Y458580*
X-212170Y458170*
X-208910Y458750D02*
G01X-207390D01*
X-208150D02*
G01Y453750D01*
X-208910D02*
G01X-207390D01*
X-204320Y458750D02*
G01Y453750D01*
X-201780*
X-199340D02*
G01Y458750D01*
X-196940D02*
G01X-199340Y455670D01*
X-196560Y453750D02*
G01X-198270Y457080D01*
X-194180Y454420D02*
G01X-193670Y454000D01*
X-193100Y453750*
X-192600*
X-192090Y454000*
X-191710Y454420*
X-191520Y455000*
X-191650Y455580*
X-191960Y456080*
X-192530Y456420*
X-193290Y456580*
X-193740Y456920*
X-193930Y457500*
X-193800Y458080*
X-193480Y458500*
X-193040Y458750*
X-192600*
X-192150Y458580*
X-191770Y458170*
X-186360Y458330D02*
G01X-186740Y458580D01*
X-187180Y458750*
X-187690*
X-188260Y458500*
X-188700Y458080*
X-189020Y457580*
X-189270Y456750*
X-189330Y456000*
X-189210Y455250*
X-189020Y454750*
X-188640Y454250*
X-188190Y453920*
X-187750Y453750*
X-187310*
X-186860Y453920*
X-186480Y454170*
X-186170Y454500*
X-183920Y453750D02*
G01Y458750D01*
X-182330*
X-181830Y458500*
X-181510Y458170*
X-181380Y457500*
X-181510Y456830*
X-181890Y456420*
X-182330Y456170*
X-183920*
X-182330D02*
G01X-181380Y453750D01*
X-176280D02*
G01X-178820D01*
Y458750*
X-176280*
X-177300Y456330D02*
G01X-178820D01*
X-171180Y453750D02*
G01X-173720D01*
Y458750*
X-171180*
X-172200Y456330D02*
G01X-173720D01*
X-168810Y453750D02*
G01Y458750D01*
X-165890Y453750*
Y458750*
X-155760Y458330D02*
G01X-156140Y458580D01*
X-156580Y458750*
X-157090*
X-157660Y458500*
X-158100Y458080*
X-158420Y457580*
X-158670Y456750*
X-158730Y456000*
X-158610Y455250*
X-158420Y454750*
X-158040Y454250*
X-157590Y453920*
X-157150Y453750*
X-156710*
X-156260Y453920*
X-155880Y454170*
X-155570Y454500*
X-152050Y453750D02*
G01X-152560Y453830D01*
X-153000Y454170*
X-153380Y454670*
X-153630Y455250*
X-153760Y455920*
Y456580*
X-153630Y457250*
X-153380Y457830*
X-153000Y458330*
X-152560Y458670*
X-152050Y458750*
X-151540Y458670*
X-151100Y458330*
X-150720Y457830*
X-150470Y457250*
X-150340Y456580*
Y455920*
X-150470Y455250*
X-150720Y454670*
X-151100Y454170*
X-151540Y453830*
X-152050Y453750*
X-148220Y458750D02*
G01Y453750D01*
X-145680*
X-141850D02*
G01X-142360Y453830D01*
X-142800Y454170*
X-143180Y454670*
X-143430Y455250*
X-143560Y455920*
Y456580*
X-143430Y457250*
X-143180Y457830*
X-142800Y458330*
X-142360Y458670*
X-141850Y458750*
X-141340Y458670*
X-140900Y458330*
X-140520Y457830*
X-140270Y457250*
X-140140Y456580*
Y455920*
X-140270Y455250*
X-140520Y454670*
X-140900Y454170*
X-141340Y453830*
X-141850Y453750*
X-138020D02*
G01Y458750D01*
X-136430*
X-135930Y458500*
X-135610Y458170*
X-135480Y457500*
X-135610Y456830*
X-135990Y456420*
X-136430Y456170*
X-138020*
X-136430D02*
G01X-135480Y453750D01*
X-131650Y453580D02*
G01X-131780Y453670D01*
Y453830*
X-131650Y453920*
X-131520Y453830*
Y453670*
X-131650Y453580*
Y455830D02*
G01X-131780Y455920D01*
Y456080*
X-131650Y456170*
X-131520Y456080*
Y455920*
X-131650Y455830*
X-108050Y458750D02*
G01X-107160Y453750D01*
X-106150Y458750*
X-105140Y453750*
X-104250Y458750*
X-102380Y453750D02*
G01Y458750D01*
X-99720D02*
G01Y453750D01*
Y456250D02*
G01X-102380D01*
X-96710Y458750D02*
G01X-95190D01*
X-95950D02*
G01Y453750D01*
X-96710D02*
G01X-95190D01*
X-90850Y458750D02*
G01Y453750D01*
X-92310Y458750D02*
G01X-89390D01*
X-84480Y453750D02*
G01X-87020D01*
Y458750*
X-84480*
X-85500Y456330D02*
G01X-87020D01*
X-214640Y478750D02*
G01Y475170D01*
X-214390Y474420*
X-213880Y473920*
X-213250Y473750*
X-212620Y473920*
X-212110Y474420*
X-211860Y475170*
Y478750*
X-209610Y473750D02*
G01Y478750D01*
X-206690Y473750*
Y478750*
X-203810D02*
G01X-202290D01*
X-203050D02*
G01Y473750D01*
X-203810D02*
G01X-202290D01*
X-197950Y478750D02*
G01Y473750D01*
X-199410Y478750D02*
G01X-196490D01*
X-194180Y474420D02*
G01X-193670Y474000D01*
X-193100Y473750*
X-192600*
X-192090Y474000*
X-191710Y474420*
X-191520Y475000*
X-191650Y475580*
X-191960Y476080*
X-192530Y476420*
X-193290Y476580*
X-193740Y476920*
X-193930Y477500*
X-193800Y478080*
X-193480Y478500*
X-193040Y478750*
X-192600*
X-192150Y478580*
X-191770Y478170*
X-187750Y473580D02*
G01X-187880Y473670D01*
Y473830*
X-187750Y473920*
X-187620Y473830*
Y473670*
X-187750Y473580*
Y475830D02*
G01X-187880Y475920D01*
Y476080*
X-187750Y476170*
X-187620Y476080*
Y475920*
X-187750Y475830*
X-153700Y473750D02*
G01Y478750D01*
X-152050Y474580*
X-150400Y478750*
Y473750*
X-147710Y478750D02*
G01X-146190D01*
X-146950D02*
G01Y473750D01*
X-147710D02*
G01X-146190D01*
X-143120Y478750D02*
G01Y473750D01*
X-140580*
X-138080Y474420D02*
G01X-137570Y474000D01*
X-137000Y473750*
X-136500*
X-135990Y474000*
X-135610Y474420*
X-135420Y475000*
X-135550Y475580*
X-135860Y476080*
X-136430Y476420*
X-137190Y476580*
X-137640Y476920*
X-137830Y477500*
X-137700Y478080*
X-137380Y478500*
X-136940Y478750*
X-136500*
X-136050Y478580*
X-135670Y478170*
X-212740Y486420D02*
G01X-212490Y486670D01*
X-212300Y487080*
X-212170Y487670*
X-212300Y488170*
X-212550Y488500*
X-213000Y488750*
X-214710*
Y483750*
X-212620*
X-212170Y484080*
X-211920Y484580*
X-211790Y485170*
X-211920Y485750*
X-212300Y486250*
X-212740Y486420*
X-214710*
X-208150Y483750D02*
G01X-208660Y483830D01*
X-209100Y484170*
X-209480Y484670*
X-209730Y485250*
X-209860Y485920*
Y486580*
X-209730Y487250*
X-209480Y487830*
X-209100Y488330*
X-208660Y488670*
X-208150Y488750*
X-207640Y488670*
X-207200Y488330*
X-206820Y487830*
X-206570Y487250*
X-206440Y486580*
Y485920*
X-206570Y485250*
X-206820Y484670*
X-207200Y484170*
X-207640Y483830*
X-208150Y483750*
X-204630D02*
G01X-203050Y488750D01*
X-201470Y483750*
X-202040Y485500D02*
G01X-204060D01*
X-199220Y483750D02*
G01Y488750D01*
X-197630*
X-197130Y488500*
X-196810Y488170*
X-196680Y487500*
X-196810Y486830*
X-197190Y486420*
X-197630Y486170*
X-199220*
X-197630D02*
G01X-196680Y483750D01*
X-194240D02*
G01Y488750D01*
X-192980*
X-192470Y488500*
X-192090Y488170*
X-191770Y487670*
X-191520Y487080*
X-191460Y486250*
X-191520Y485420*
X-191770Y484830*
X-192090Y484330*
X-192470Y484000*
X-192980Y483750*
X-194240*
X-184110D02*
G01Y488750D01*
X-181190Y483750*
Y488750*
X-179130Y483750D02*
G01X-177550Y488750D01*
X-175970Y483750*
X-176540Y485500D02*
G01X-178560D01*
X-174100Y483750D02*
G01Y488750D01*
X-172450Y484580*
X-170800Y488750*
Y483750*
X-166080D02*
G01X-168620D01*
Y488750*
X-166080*
X-167100Y486330D02*
G01X-168620D01*
X-162250Y483580D02*
G01X-162380Y483670D01*
Y483830*
X-162250Y483920*
X-162120Y483830*
Y483670*
X-162250Y483580*
Y485830D02*
G01X-162380Y485920D01*
Y486080*
X-162250Y486170*
X-162120Y486080*
Y485920*
X-162250Y485830*
X-157150Y487080D02*
G01Y483750D01*
Y488420D02*
G01X-157280Y488500D01*
Y488670*
X-157150Y488750*
X-157020Y488670*
Y488500*
X-157150Y488420*
X-152050Y483580D02*
G01X-152180Y483670D01*
Y483830*
X-152050Y483920*
X-151920Y483830*
Y483670*
X-152050Y483580*
X-148600Y483750D02*
G01Y488750D01*
X-146950Y484580*
X-145300Y488750*
Y483750*
X-143180D02*
G01X-140520Y488750D01*
X-143180D02*
G01X-140520Y483750D01*
X-137950Y487920D02*
G01X-137570Y488420D01*
X-137130Y488670*
X-136620Y488750*
X-135990Y488580*
X-135550Y488170*
X-135420Y487670*
X-135480Y487170*
X-135740Y486750*
X-137000Y485920*
X-137570Y485330*
X-137950Y484500*
X-138080Y483750*
X-135420*
X-133040Y484750D02*
G01X-132660Y484170D01*
X-132160Y483830*
X-131590Y483750*
X-131080Y483830*
X-130570Y484250*
X-130260Y484750*
X-130190Y485250*
X-130320Y485830*
X-130760Y486250*
X-131210Y486420*
X-131780*
X-131210D02*
G01X-130830Y486670D01*
X-130510Y487080*
X-130380Y487580*
X-130510Y488080*
X-130830Y488500*
X-131400Y488750*
X-131970Y488670*
X-132540Y488330*
X-127940Y484750D02*
G01X-127560Y484170D01*
X-127060Y483830*
X-126490Y483750*
X-125980Y483830*
X-125470Y484250*
X-125160Y484750*
X-125090Y485250*
X-125220Y485830*
X-125660Y486250*
X-126110Y486420*
X-126680*
X-126110D02*
G01X-125730Y486670D01*
X-125410Y487080*
X-125280Y487580*
X-125410Y488080*
X-125730Y488500*
X-126300Y488750*
X-126870Y488670*
X-127440Y488330*
X-123350Y482080D02*
G01X-119550D01*
X-117620Y488750D02*
G01Y483750D01*
X-115080*
X-111250Y488750D02*
G01X-111760Y488580D01*
X-112140Y488170*
X-112390Y487670*
X-112580Y487000*
X-112640Y486250*
X-112580Y485500*
X-112390Y484830*
X-112140Y484330*
X-111760Y483920*
X-111250Y483750*
X-110740Y483920*
X-110360Y484330*
X-110110Y484830*
X-109920Y485500*
X-109860Y486250*
X-109920Y487000*
X-110110Y487670*
X-110360Y488170*
X-110740Y488580*
X-111250Y488750*
X-106150Y483750D02*
G01Y488750D01*
X-106910Y487750*
Y483750D02*
G01X-105390D01*
X-196850Y-108430D02*
G01Y-142880D01*
X-21810Y-132880D02*
G01X-196850D01*
X-181850Y-130400D02*
G01X-196850Y-132880D01*
X-181850Y-135360*
Y-130400*
X-185040Y196850D02*
G01X185040D01*
X196850Y185040D02*
G75*
G03X185040Y196850I-11810D01*
X196850Y185040D02*
G01Y-86620D01*
X185040Y-98430D02*
G03X196850Y-86620J11810D01*
X185040Y-98430D02*
G01X-185040D01*
X-196850Y-86620D02*
G03X-185040Y-98430I11810D01*
X-196850Y-86620D02*
G01Y185040D01*
X-185040Y196850D02*
G03X-196850Y185040J-11810D01*
X-205080Y293920D02*
G01X-204570Y293500D01*
X-204000Y293250*
X-203500*
X-202990Y293500*
X-202610Y293920*
X-202420Y294500*
X-202550Y295080*
X-202860Y295580*
X-203430Y295920*
X-204190Y296080*
X-204640Y296420*
X-204830Y297000*
X-204700Y297580*
X-204380Y298000*
X-203940Y298250*
X-203500*
X-203050Y298080*
X-202670Y297670*
X-199980Y293250D02*
G01Y298250D01*
X-197320D02*
G01Y293250D01*
Y295750D02*
G01X-199980D01*
X-193550Y293250D02*
G01X-194060Y293330D01*
X-194500Y293670*
X-194880Y294170*
X-195130Y294750*
X-195260Y295420*
Y296080*
X-195130Y296750*
X-194880Y297330*
X-194500Y297830*
X-194060Y298170*
X-193550Y298250*
X-193040Y298170*
X-192600Y297830*
X-192220Y297330*
X-191970Y296750*
X-191840Y296080*
Y295420*
X-191970Y294750*
X-192220Y294170*
X-192600Y293670*
X-193040Y293330*
X-193550Y293250*
X-189720D02*
G01Y298250D01*
X-188130*
X-187630Y298000*
X-187310Y297670*
X-187180Y297000*
X-187310Y296330*
X-187690Y295920*
X-188130Y295670*
X-189720*
X-188130D02*
G01X-187180Y293250D01*
X-183350Y298250D02*
G01Y293250D01*
X-184810Y298250D02*
G01X-181890D01*
X-174610Y293250D02*
G01Y298250D01*
X-171690Y293250*
Y298250*
X-166780Y293250D02*
G01X-169320D01*
Y298250*
X-166780*
X-167800Y295830D02*
G01X-169320D01*
X-162950Y298250D02*
G01Y293250D01*
X-164410Y298250D02*
G01X-161490D01*
X-154210Y293250D02*
G01Y298250D01*
X-151290Y293250*
Y298250*
X-147650Y293250D02*
G01X-148160Y293330D01*
X-148600Y293670*
X-148980Y294170*
X-149230Y294750*
X-149360Y295420*
Y296080*
X-149230Y296750*
X-148980Y297330*
X-148600Y297830*
X-148160Y298170*
X-147650Y298250*
X-147140Y298170*
X-146700Y297830*
X-146320Y297330*
X-146070Y296750*
X-145940Y296080*
Y295420*
X-146070Y294750*
X-146320Y294170*
X-146700Y293670*
X-147140Y293330*
X-147650Y293250*
X-142550Y293080D02*
G01X-142680Y293170D01*
Y293330*
X-142550Y293420*
X-142420Y293330*
Y293170*
X-142550Y293080*
X-183070Y-94650D02*
G01Y-123190D01*
X-168070Y-110710D02*
G01X-183070Y-113190D01*
X-168070Y-115670*
Y-110710*
X-13150Y-113190D02*
G01X-183070D01*
X-186120Y282250D02*
G01X-187380D01*
Y275580*
X-186120*
X-181650Y282250D02*
G01X-182160Y282080D01*
X-182540Y281670*
X-182790Y281170*
X-182980Y280500*
X-183040Y279750*
X-182980Y279000*
X-182790Y278330*
X-182540Y277830*
X-182160Y277420*
X-181650Y277250*
X-181140Y277420*
X-180760Y277830*
X-180510Y278330*
X-180320Y279000*
X-180260Y279750*
X-180320Y280500*
X-180510Y281170*
X-180760Y281670*
X-181140Y282080*
X-181650Y282250*
X-177180Y275580D02*
G01X-175920D01*
Y282250*
X-177180*
X-186120Y316250D02*
G01X-187380D01*
Y309580*
X-186120*
X-182850Y316250D02*
G01X-180450D01*
X-182850Y311250*
X-180450*
X-176550D02*
G01X-176930Y311330D01*
X-177310Y311670*
X-177560Y312250*
X-177690Y312920*
X-177560Y313580*
X-177310Y314170*
X-176930Y314500*
X-176550Y314580*
X-176170Y314500*
X-175790Y314170*
X-175540Y313580*
X-175470Y312920*
X-175540Y312250*
X-175790Y311670*
X-176170Y311330*
X-176550Y311250*
X-172080Y309580D02*
G01X-170820D01*
Y316250*
X-172080*
X-186120Y355250D02*
G01X-187380D01*
Y348580*
X-186120*
X-182850Y355250D02*
G01X-180450D01*
X-182850Y350250*
X-180450*
X-176550D02*
G01X-176930Y350330D01*
X-177310Y350670*
X-177560Y351250*
X-177690Y351920*
X-177560Y352580*
X-177310Y353170*
X-176930Y353500*
X-176550Y353580*
X-176170Y353500*
X-175790Y353170*
X-175540Y352580*
X-175470Y351920*
X-175540Y351250*
X-175790Y350670*
X-176170Y350330*
X-176550Y350250*
X-172080Y348580D02*
G01X-170820D01*
Y355250*
X-172080*
X-183120Y402250D02*
G01X-184380D01*
Y395580*
X-183120*
X-178650Y397250D02*
G01Y402250D01*
X-179410Y401250*
Y397250D02*
G01X-177890D01*
X-174180Y395580D02*
G01X-172920D01*
Y402250*
X-174180*
X-128250Y333750D02*
G01Y338750D01*
X-129010Y337750*
Y333750D02*
G01X-127490D01*
X-123150Y338750D02*
G01X-123660Y338580D01*
X-124040Y338170*
X-124290Y337670*
X-124480Y337000*
X-124540Y336250*
X-124480Y335500*
X-124290Y334830*
X-124040Y334330*
X-123660Y333920*
X-123150Y333750*
X-122640Y333920*
X-122260Y334330*
X-122010Y334830*
X-121820Y335500*
X-121760Y336250*
X-121820Y337000*
X-122010Y337670*
X-122260Y338170*
X-122640Y338580*
X-123150Y338750*
X-118050D02*
G01X-118560Y338580D01*
X-118940Y338170*
X-119190Y337670*
X-119380Y337000*
X-119440Y336250*
X-119380Y335500*
X-119190Y334830*
X-118940Y334330*
X-118560Y333920*
X-118050Y333750*
X-117540Y333920*
X-117160Y334330*
X-116910Y334830*
X-116720Y335500*
X-116660Y336250*
X-116720Y337000*
X-116910Y337670*
X-117160Y338170*
X-117540Y338580*
X-118050Y338750*
X-113650Y335420D02*
G01X-112130D01*
X-112950Y336500D02*
G01Y334330D01*
X-108990Y333580D02*
G01X-106710Y338750D01*
X-103570Y335420D02*
G01X-101930D01*
X-97650Y333750D02*
G01Y338750D01*
X-98410Y337750*
Y333750D02*
G01X-96890D01*
X-92550Y338750D02*
G01X-93060Y338580D01*
X-93440Y338170*
X-93690Y337670*
X-93880Y337000*
X-93940Y336250*
X-93880Y335500*
X-93690Y334830*
X-93440Y334330*
X-93060Y333920*
X-92550Y333750*
X-92040Y333920*
X-91660Y334330*
X-91410Y334830*
X-91220Y335500*
X-91160Y336250*
X-91220Y337000*
X-91410Y337670*
X-91660Y338170*
X-92040Y338580*
X-92550Y338750*
X-88590Y333580D02*
G01X-86310Y338750D01*
X-88590D02*
G01X-88970Y338580D01*
X-89160Y338330*
X-89290Y337830*
X-89160Y337330*
X-88970Y337080*
X-88590Y336920*
X-88210Y337080*
X-88020Y337330*
X-87890Y337830*
X-88020Y338330*
X-88210Y338580*
X-88590Y338750*
X-86310Y335420D02*
G01X-86690Y335250D01*
X-86880Y335000*
X-87010Y334500*
X-86880Y334000*
X-86690Y333750*
X-86310Y333580*
X-85930Y333750*
X-85740Y334000*
X-85610Y334500*
X-85740Y335000*
X-85930Y335250*
X-86310Y335420*
X-77250Y333750D02*
G01X-77760Y333830D01*
X-78200Y334170*
X-78580Y334670*
X-78830Y335250*
X-78960Y335920*
Y336580*
X-78830Y337250*
X-78580Y337830*
X-78200Y338330*
X-77760Y338670*
X-77250Y338750*
X-76740Y338670*
X-76300Y338330*
X-75920Y337830*
X-75670Y337250*
X-75540Y336580*
Y335920*
X-75670Y335250*
X-75920Y334670*
X-76300Y334170*
X-76740Y333830*
X-77250Y333750*
X-73230D02*
G01Y338750D01*
Y336330D02*
G01X-72910Y336750D01*
X-72590Y337000*
X-72090Y337080*
X-71710Y337000*
X-71260Y336670*
X-71070Y336170*
Y333750*
X-68950D02*
G01Y337080D01*
Y336170D02*
G01X-68760Y336580D01*
X-68440Y336920*
X-68000Y337080*
X-67560Y336920*
X-67240Y336580*
X-67050Y336170*
Y333750*
Y336170D02*
G01X-66860Y336580D01*
X-66540Y336920*
X-66100Y337080*
X-65660Y336920*
X-65340Y336580*
X-65150Y336080*
Y333750*
X-58430Y337080D02*
G01X-57670Y333750D01*
X-56850Y337080*
X-56030Y333750*
X-55270Y337080*
X-51750D02*
G01Y333750D01*
Y338420D02*
G01X-51880Y338500D01*
Y338670*
X-51750Y338750*
X-51620Y338670*
Y338500*
X-51750Y338420*
X-46650Y338750D02*
G01Y333750D01*
X-47540Y337080D02*
G01X-45760D01*
X-42630Y333750D02*
G01Y338750D01*
Y336330D02*
G01X-42310Y336750D01*
X-41990Y337000*
X-41490Y337080*
X-41110Y337000*
X-40660Y336670*
X-40470Y336170*
Y333750*
X-31350D02*
G01X-30910Y333830D01*
X-30400Y334080*
X-30080Y334500*
X-29960Y335080*
X-30080Y335670*
X-30460Y336170*
X-31030Y336420*
X-31670*
X-32050Y336580*
X-32360Y337000*
X-32490Y337580*
X-32300Y338170*
X-31860Y338580*
X-31350Y338750*
X-30840Y338580*
X-30400Y338170*
X-30210Y337580*
X-30340Y337000*
X-30650Y336580*
X-31030Y336420*
X-31670*
X-32240Y336170*
X-32620Y335670*
X-32740Y335080*
X-32620Y334500*
X-32300Y334080*
X-31790Y333830*
X-31350Y333750*
X-27390Y333580D02*
G01X-25110Y338750D01*
X-21150Y333750D02*
G01Y338750D01*
X-21910Y337750*
Y333750D02*
G01X-20390D01*
X-16050Y338750D02*
G01X-16560Y338580D01*
X-16940Y338170*
X-17190Y337670*
X-17380Y337000*
X-17440Y336250*
X-17380Y335500*
X-17190Y334830*
X-16940Y334330*
X-16560Y333920*
X-16050Y333750*
X-15540Y333920*
X-15160Y334330*
X-14910Y334830*
X-14720Y335500*
X-14660Y336250*
X-14720Y337000*
X-14910Y337670*
X-15160Y338170*
X-15540Y338580*
X-16050Y338750*
X-12850Y333750D02*
G01Y337080D01*
Y336170D02*
G01X-12660Y336580D01*
X-12340Y336920*
X-11900Y337080*
X-11460Y336920*
X-11140Y336580*
X-10950Y336170*
Y333750*
Y336170D02*
G01X-10760Y336580D01*
X-10440Y336920*
X-10000Y337080*
X-9560Y336920*
X-9240Y336580*
X-9050Y336080*
Y333750*
X-5850Y337080D02*
G01Y333750D01*
Y338420D02*
G01X-5980Y338500D01*
Y338670*
X-5850Y338750*
X-5720Y338670*
Y338500*
X-5850Y338420*
X-750Y333750D02*
G01Y338750D01*
X9070Y333750D02*
G01Y338000D01*
X9200Y338420*
X9450Y338670*
X9830Y338750*
X10210Y338580*
X10400Y338170*
X9640Y336750D02*
G01X8370D01*
X14550Y333750D02*
G01X14170Y333830D01*
X13790Y334170*
X13540Y334750*
X13410Y335420*
X13540Y336080*
X13790Y336670*
X14170Y337000*
X14550Y337080*
X14930Y337000*
X15310Y336670*
X15560Y336080*
X15630Y335420*
X15560Y334750*
X15310Y334170*
X14930Y333830*
X14550Y333750*
X18760D02*
G01Y337080D01*
Y336420D02*
G01X19080Y336750D01*
X19400Y337000*
X19840Y337080*
X20160Y337000*
X20540Y336750*
X29850Y333750D02*
G01Y338750D01*
X36090Y333750D02*
G01Y337080D01*
Y336500D02*
G01X35840Y336830D01*
X35460Y337000*
X35010Y337080*
X34570Y336920*
X34190Y336580*
X33940Y336080*
X33810Y335420*
X33940Y334750*
X34190Y334250*
X34570Y333920*
X35010Y333750*
X35460Y333830*
X35840Y334080*
X36090Y334420*
X38720Y332250D02*
G01X39100Y332080D01*
X39610Y332250*
X39920Y332580*
X40180Y333000*
X40560Y334330*
X41380Y337080*
X39350D02*
G01X40560Y334330D01*
X44200Y336000D02*
G01X46230D01*
X46040Y336580*
X45720Y336920*
X45280Y337080*
X44830Y337000*
X44450Y336750*
X44200Y336170*
X44070Y335670*
Y335170*
X44200Y334670*
X44520Y334170*
X44900Y333830*
X45340Y333750*
X45780Y333920*
X46230Y334420*
X49360Y333750D02*
G01Y337080D01*
Y336420D02*
G01X49680Y336750D01*
X50000Y337000*
X50440Y337080*
X50760Y337000*
X51140Y336750*
X60450Y338750D02*
G01Y333750D01*
X59560Y337080D02*
G01X61340D01*
X65550Y333750D02*
G01X65170Y333830D01*
X64790Y334170*
X64540Y334750*
X64410Y335420*
X64540Y336080*
X64790Y336670*
X65170Y337000*
X65550Y337080*
X65930Y337000*
X66310Y336670*
X66560Y336080*
X66630Y335420*
X66560Y334750*
X66310Y334170*
X65930Y333830*
X65550Y333750*
X69510Y332080D02*
G01Y337080D01*
Y336330D02*
G01X69830Y336750D01*
X70140Y337000*
X70650Y337080*
X71090Y337000*
X71540Y336580*
X71730Y336000*
X71790Y335420*
X71730Y334830*
X71540Y334250*
X71160Y333920*
X70650Y333750*
X70210Y333830*
X69760Y334080*
X69510Y334420*
X81990Y333750D02*
G01Y337080D01*
Y336500D02*
G01X81740Y336830D01*
X81360Y337000*
X80910Y337080*
X80470Y336920*
X80090Y336580*
X79840Y336080*
X79710Y335420*
X79840Y334750*
X80090Y334250*
X80470Y333920*
X80910Y333750*
X81360Y333830*
X81740Y334080*
X81990Y334420*
X84870Y333750D02*
G01Y337080D01*
Y336250D02*
G01X85130Y336670D01*
X85510Y337000*
X86010Y337080*
X86460Y337000*
X86840Y336670*
X87030Y336080*
Y333750*
X92190Y338750D02*
G01Y333750D01*
Y334500D02*
G01X91940Y334080D01*
X91560Y333830*
X91110Y333750*
X90610Y333920*
X90230Y334330*
X89970Y334830*
X89910Y335420*
X89970Y336000*
X90230Y336500*
X90610Y336920*
X91110Y337080*
X91560Y337000*
X91870Y336830*
X92190Y336500*
X99860Y334750D02*
G01X100240Y334170D01*
X100740Y333830*
X101310Y333750*
X101820Y333830*
X102330Y334250*
X102640Y334750*
X102710Y335250*
X102580Y335830*
X102140Y336250*
X101690Y336420*
X101120*
X101690D02*
G01X102070Y336670D01*
X102390Y337080*
X102520Y337580*
X102390Y338080*
X102070Y338500*
X101500Y338750*
X100930Y338670*
X100360Y338330*
X105400Y334330D02*
G01X105720Y334000D01*
X106160Y333750*
X106540*
X106920Y333920*
X107170Y334170*
X107300Y334500*
X107240Y335000*
X106980Y335250*
X105840Y335750*
X105590Y336330*
X105720Y336750*
X105970Y337000*
X106350Y337080*
X106730Y337000*
X107110Y336750*
X111450Y337080D02*
G01Y333750D01*
Y338420D02*
G01X111320Y338500D01*
Y338670*
X111450Y338750*
X111580Y338670*
Y338500*
X111450Y338420*
X115660Y332500D02*
G01X116110Y332170D01*
X116610Y332080*
X117060Y332170*
X117440Y332580*
X117690Y333170*
Y337080*
Y336420D02*
G01X117440Y336750D01*
X117060Y337000*
X116610Y337080*
X116110Y336920*
X115790Y336580*
X115540Y336000*
X115410Y335420*
X115470Y334920*
X115730Y334330*
X116110Y333920*
X116610Y333750*
X116990Y333830*
X117440Y334170*
X117690Y334500*
X120570Y333750D02*
G01Y337080D01*
Y336250D02*
G01X120830Y336670D01*
X121210Y337000*
X121710Y337080*
X122160Y337000*
X122540Y336670*
X122730Y336080*
Y333750*
X127890D02*
G01Y337080D01*
Y336500D02*
G01X127640Y336830D01*
X127260Y337000*
X126810Y337080*
X126370Y336920*
X125990Y336580*
X125740Y336080*
X125610Y335420*
X125740Y334750*
X125990Y334250*
X126370Y333920*
X126810Y333750*
X127260Y333830*
X127640Y334080*
X127890Y334420*
X131850Y333750D02*
G01Y338750D01*
X-129640Y374500D02*
G01X-129260Y374080D01*
X-128820Y373830*
X-128250Y373750*
X-127680Y373920*
X-127240Y374250*
X-126920Y374830*
X-126860Y375500*
X-126980Y376170*
X-127300Y376580*
X-127740Y376920*
X-128190Y377000*
X-128630Y376920*
X-129200Y376580*
X-129010Y378750*
X-127300*
X-123150D02*
G01X-123660Y378580D01*
X-124040Y378170*
X-124290Y377670*
X-124480Y377000*
X-124540Y376250*
X-124480Y375500*
X-124290Y374830*
X-124040Y374330*
X-123660Y373920*
X-123150Y373750*
X-122640Y373920*
X-122260Y374330*
X-122010Y374830*
X-121820Y375500*
X-121760Y376250*
X-121820Y377000*
X-122010Y377670*
X-122260Y378170*
X-122640Y378580*
X-123150Y378750*
X-118750Y375420D02*
G01X-117230D01*
X-118050Y376500D02*
G01Y374330D01*
X-114090Y373580D02*
G01X-111810Y378750D01*
X-108670Y375420D02*
G01X-107030D01*
X-102750Y373750D02*
G01Y378750D01*
X-103510Y377750*
Y373750D02*
G01X-101990D01*
X-97650Y378750D02*
G01X-98160Y378580D01*
X-98540Y378170*
X-98790Y377670*
X-98980Y377000*
X-99040Y376250*
X-98980Y375500*
X-98790Y374830*
X-98540Y374330*
X-98160Y373920*
X-97650Y373750*
X-97140Y373920*
X-96760Y374330*
X-96510Y374830*
X-96320Y375500*
X-96260Y376250*
X-96320Y377000*
X-96510Y377670*
X-96760Y378170*
X-97140Y378580*
X-97650Y378750*
X-93690Y373580D02*
G01X-91410Y378750D01*
X-93690D02*
G01X-94070Y378580D01*
X-94260Y378330*
X-94390Y377830*
X-94260Y377330*
X-94070Y377080*
X-93690Y376920*
X-93310Y377080*
X-93120Y377330*
X-92990Y377830*
X-93120Y378330*
X-93310Y378580*
X-93690Y378750*
X-91410Y375420D02*
G01X-91790Y375250D01*
X-91980Y375000*
X-92110Y374500*
X-91980Y374000*
X-91790Y373750*
X-91410Y373580*
X-91030Y373750*
X-90840Y374000*
X-90710Y374500*
X-90840Y375000*
X-91030Y375250*
X-91410Y375420*
X-82350Y373750D02*
G01X-82860Y373830D01*
X-83300Y374170*
X-83680Y374670*
X-83930Y375250*
X-84060Y375920*
Y376580*
X-83930Y377250*
X-83680Y377830*
X-83300Y378330*
X-82860Y378670*
X-82350Y378750*
X-81840Y378670*
X-81400Y378330*
X-81020Y377830*
X-80770Y377250*
X-80640Y376580*
Y375920*
X-80770Y375250*
X-81020Y374670*
X-81400Y374170*
X-81840Y373830*
X-82350Y373750*
X-78330D02*
G01Y378750D01*
Y376330D02*
G01X-78010Y376750D01*
X-77690Y377000*
X-77190Y377080*
X-76810Y377000*
X-76360Y376670*
X-76170Y376170*
Y373750*
X-74050D02*
G01Y377080D01*
Y376170D02*
G01X-73860Y376580D01*
X-73540Y376920*
X-73100Y377080*
X-72660Y376920*
X-72340Y376580*
X-72150Y376170*
Y373750*
Y376170D02*
G01X-71960Y376580D01*
X-71640Y376920*
X-71200Y377080*
X-70760Y376920*
X-70440Y376580*
X-70250Y376080*
Y373750*
X-63530Y377080D02*
G01X-62770Y373750D01*
X-61950Y377080*
X-61130Y373750*
X-60370Y377080*
X-56850D02*
G01Y373750D01*
Y378420D02*
G01X-56980Y378500D01*
Y378670*
X-56850Y378750*
X-56720Y378670*
Y378500*
X-56850Y378420*
X-51750Y378750D02*
G01Y373750D01*
X-52640Y377080D02*
G01X-50860D01*
X-47730Y373750D02*
G01Y378750D01*
Y376330D02*
G01X-47410Y376750D01*
X-47090Y377000*
X-46590Y377080*
X-46210Y377000*
X-45760Y376670*
X-45570Y376170*
Y373750*
X-37840Y374500D02*
G01X-37460Y374080D01*
X-37020Y373830*
X-36450Y373750*
X-35880Y373920*
X-35440Y374250*
X-35120Y374830*
X-35060Y375500*
X-35180Y376170*
X-35500Y376580*
X-35940Y376920*
X-36390Y377000*
X-36830Y376920*
X-37400Y376580*
X-37210Y378750*
X-35500*
X-33250Y373750D02*
G01Y377080D01*
Y376170D02*
G01X-33060Y376580D01*
X-32740Y376920*
X-32300Y377080*
X-31860Y376920*
X-31540Y376580*
X-31350Y376170*
Y373750*
Y376170D02*
G01X-31160Y376580D01*
X-30840Y376920*
X-30400Y377080*
X-29960Y376920*
X-29640Y376580*
X-29450Y376080*
Y373750*
X-26250Y377080D02*
G01Y373750D01*
Y378420D02*
G01X-26380Y378500D01*
Y378670*
X-26250Y378750*
X-26120Y378670*
Y378500*
X-26250Y378420*
X-21150Y373750D02*
G01Y378750D01*
X-10950D02*
G01Y373750D01*
X-11840Y377080D02*
G01X-10060D01*
X-6740Y373750D02*
G01Y377080D01*
Y376420D02*
G01X-6420Y376750D01*
X-6100Y377000*
X-5660Y377080*
X-5340Y377000*
X-4960Y376750*
X390Y373750D02*
G01Y377080D01*
Y376500D02*
G01X140Y376830D01*
X-240Y377000*
X-690Y377080*
X-1130Y376920*
X-1510Y376580*
X-1760Y376080*
X-1890Y375420*
X-1760Y374750*
X-1510Y374250*
X-1130Y373920*
X-690Y373750*
X-240Y373830*
X140Y374080*
X390Y374420*
X5360Y376670D02*
G01X4920Y377000D01*
X4540Y377080*
X4030Y376920*
X3650Y376580*
X3400Y376000*
X3340Y375420*
X3400Y374830*
X3650Y374330*
X4030Y373920*
X4540Y373750*
X4980Y373920*
X5360Y374250*
X8500Y376000D02*
G01X10530D01*
X10340Y376580*
X10020Y376920*
X9580Y377080*
X9130Y377000*
X8750Y376750*
X8500Y376170*
X8370Y375670*
Y375170*
X8500Y374670*
X8820Y374170*
X9200Y373830*
X9640Y373750*
X10080Y373920*
X10530Y374420*
X18070Y377080D02*
G01X18830Y373750D01*
X19650Y377080*
X20470Y373750*
X21230Y377080*
X24750D02*
G01Y373750D01*
Y378420D02*
G01X24620Y378500D01*
Y378670*
X24750Y378750*
X24880Y378670*
Y378500*
X24750Y378420*
X30990Y378750D02*
G01Y373750D01*
Y374500D02*
G01X30740Y374080D01*
X30360Y373830*
X29910Y373750*
X29410Y373920*
X29030Y374330*
X28770Y374830*
X28710Y375420*
X28770Y376000*
X29030Y376500*
X29410Y376920*
X29910Y377080*
X30360Y377000*
X30670Y376830*
X30990Y376500*
X34950Y378750D02*
G01Y373750D01*
X34060Y377080D02*
G01X35840D01*
X38970Y373750D02*
G01Y378750D01*
Y376330D02*
G01X39290Y376750D01*
X39610Y377000*
X40110Y377080*
X40490Y377000*
X40940Y376670*
X41130Y376170*
Y373750*
X49870D02*
G01Y378000D01*
X50000Y378420*
X50250Y378670*
X50630Y378750*
X51010Y378580*
X51200Y378170*
X50440Y376750D02*
G01X49170D01*
X55350Y373750D02*
G01X54970Y373830D01*
X54590Y374170*
X54340Y374750*
X54210Y375420*
X54340Y376080*
X54590Y376670*
X54970Y377000*
X55350Y377080*
X55730Y377000*
X56110Y376670*
X56360Y376080*
X56430Y375420*
X56360Y374750*
X56110Y374170*
X55730Y373830*
X55350Y373750*
X59560D02*
G01Y377080D01*
Y376420D02*
G01X59880Y376750D01*
X60200Y377000*
X60640Y377080*
X60960Y377000*
X61340Y376750*
X70650Y373750D02*
G01Y378750D01*
X76890Y373750D02*
G01Y377080D01*
Y376500D02*
G01X76640Y376830D01*
X76260Y377000*
X75810Y377080*
X75370Y376920*
X74990Y376580*
X74740Y376080*
X74610Y375420*
X74740Y374750*
X74990Y374250*
X75370Y373920*
X75810Y373750*
X76260Y373830*
X76640Y374080*
X76890Y374420*
X79520Y372250D02*
G01X79900Y372080D01*
X80410Y372250*
X80720Y372580*
X80980Y373000*
X81360Y374330*
X82180Y377080*
X80150D02*
G01X81360Y374330D01*
X85000Y376000D02*
G01X87030D01*
X86840Y376580*
X86520Y376920*
X86080Y377080*
X85630Y377000*
X85250Y376750*
X85000Y376170*
X84870Y375670*
Y375170*
X85000Y374670*
X85320Y374170*
X85700Y373830*
X86140Y373750*
X86580Y373920*
X87030Y374420*
X90160Y373750D02*
G01Y377080D01*
Y376420D02*
G01X90480Y376750D01*
X90800Y377000*
X91240Y377080*
X91560Y377000*
X91940Y376750*
X101250Y378750D02*
G01Y373750D01*
X99790Y378750D02*
G01X102710D01*
X106350Y373750D02*
G01X105970Y373830D01*
X105590Y374170*
X105340Y374750*
X105210Y375420*
X105340Y376080*
X105590Y376670*
X105970Y377000*
X106350Y377080*
X106730Y377000*
X107110Y376670*
X107360Y376080*
X107430Y375420*
X107360Y374750*
X107110Y374170*
X106730Y373830*
X106350Y373750*
X110310Y372080D02*
G01Y377080D01*
Y376330D02*
G01X110630Y376750D01*
X110940Y377000*
X111450Y377080*
X111890Y377000*
X112340Y376580*
X112530Y376000*
X112590Y375420*
X112530Y374830*
X112340Y374250*
X111960Y373920*
X111450Y373750*
X111010Y373830*
X110560Y374080*
X110310Y374420*
X116420Y372830D02*
G01X116680Y373920D01*
X120260Y374750D02*
G01X120640Y374170D01*
X121140Y373830*
X121710Y373750*
X122220Y373830*
X122730Y374250*
X123040Y374750*
X123110Y375250*
X122980Y375830*
X122540Y376250*
X122090Y376420*
X121520*
X122090D02*
G01X122470Y376670D01*
X122790Y377080*
X122920Y377580*
X122790Y378080*
X122470Y378500*
X121900Y378750*
X121330Y378670*
X120760Y378330*
X125420Y374420D02*
G01X125930Y374000D01*
X126500Y373750*
X127000*
X127510Y374000*
X127890Y374420*
X128080Y375000*
X127950Y375580*
X127640Y376080*
X127070Y376420*
X126310Y376580*
X125860Y376920*
X125670Y377500*
X125800Y378080*
X126120Y378500*
X126560Y378750*
X127000*
X127450Y378580*
X127830Y378170*
X131850Y377080D02*
G01Y373750D01*
Y378420D02*
G01X131720Y378500D01*
Y378670*
X131850Y378750*
X131980Y378670*
Y378500*
X131850Y378420*
X136060Y372500D02*
G01X136510Y372170D01*
X137010Y372080*
X137460Y372170*
X137840Y372580*
X138090Y373170*
Y377080*
Y376420D02*
G01X137840Y376750D01*
X137460Y377000*
X137010Y377080*
X136510Y376920*
X136190Y376580*
X135940Y376000*
X135810Y375420*
X135870Y374920*
X136130Y374330*
X136510Y373920*
X137010Y373750*
X137390Y373830*
X137840Y374170*
X138090Y374500*
X140970Y373750D02*
G01Y377080D01*
Y376250D02*
G01X141230Y376670D01*
X141610Y377000*
X142110Y377080*
X142560Y377000*
X142940Y376670*
X143130Y376080*
Y373750*
X148290D02*
G01Y377080D01*
Y376500D02*
G01X148040Y376830D01*
X147660Y377000*
X147210Y377080*
X146770Y376920*
X146390Y376580*
X146140Y376080*
X146010Y375420*
X146140Y374750*
X146390Y374250*
X146770Y373920*
X147210Y373750*
X147660Y373830*
X148040Y374080*
X148290Y374420*
X152250Y373750D02*
G01Y378750D01*
X157220Y372830D02*
G01X157480Y373920D01*
X163210Y373750D02*
G01Y378750D01*
X160870Y375170*
X164030*
X166600Y374330D02*
G01X166920Y374000D01*
X167360Y373750*
X167740*
X168120Y373920*
X168370Y374170*
X168500Y374500*
X168440Y375000*
X168180Y375250*
X167040Y375750*
X166790Y376330*
X166920Y376750*
X167170Y377000*
X167550Y377080*
X167930Y377000*
X168310Y376750*
X172650Y377080D02*
G01Y373750D01*
Y378420D02*
G01X172520Y378500D01*
Y378670*
X172650Y378750*
X172780Y378670*
Y378500*
X172650Y378420*
X176860Y372500D02*
G01X177310Y372170D01*
X177810Y372080*
X178260Y372170*
X178640Y372580*
X178890Y373170*
Y377080*
Y376420D02*
G01X178640Y376750D01*
X178260Y377000*
X177810Y377080*
X177310Y376920*
X176990Y376580*
X176740Y376000*
X176610Y375420*
X176670Y374920*
X176930Y374330*
X177310Y373920*
X177810Y373750*
X178190Y373830*
X178640Y374170*
X178890Y374500*
X181770Y373750D02*
G01Y377080D01*
Y376250D02*
G01X182030Y376670D01*
X182410Y377000*
X182910Y377080*
X183360Y377000*
X183740Y376670*
X183930Y376080*
Y373750*
X189090D02*
G01Y377080D01*
Y376500D02*
G01X188840Y376830D01*
X188460Y377000*
X188010Y377080*
X187570Y376920*
X187190Y376580*
X186940Y376080*
X186810Y375420*
X186940Y374750*
X187190Y374250*
X187570Y373920*
X188010Y373750*
X188460Y373830*
X188840Y374080*
X189090Y374420*
X193050Y373750D02*
G01Y378750D01*
X-127490Y393750D02*
G01Y398750D01*
X-129830Y395170*
X-126670*
X-123150Y393580D02*
G01X-123280Y393670D01*
Y393830*
X-123150Y393920*
X-123020Y393830*
Y393670*
X-123150Y393580*
X-111680Y393750D02*
G01X-114220D01*
Y398750*
X-111680*
X-112700Y396330D02*
G01X-114220D01*
X-109310Y393750D02*
G01Y398750D01*
X-106390Y393750*
Y398750*
X-103510D02*
G01X-101990D01*
X-102750D02*
G01Y393750D01*
X-103510D02*
G01X-101990D01*
X-97270Y396250D02*
G01X-96000D01*
Y394750*
X-96380Y394250*
X-96830Y393920*
X-97460Y393750*
X-98090Y393920*
X-98540Y394250*
X-98920Y394750*
X-99170Y395330*
X-99300Y396000*
Y396580*
X-99170Y397080*
X-98920Y397670*
X-98540Y398170*
X-98160Y398500*
X-97650Y398750*
X-97210*
X-96700Y398580*
X-96320Y398250*
X-129640Y384500D02*
G01X-129260Y384080D01*
X-128820Y383830*
X-128250Y383750*
X-127680Y383920*
X-127240Y384250*
X-126920Y384830*
X-126860Y385500*
X-126980Y386170*
X-127300Y386580*
X-127740Y386920*
X-128190Y387000*
X-128630Y386920*
X-129200Y386580*
X-129010Y388750*
X-127300*
X-123150Y383580D02*
G01X-123280Y383670D01*
Y383830*
X-123150Y383920*
X-123020Y383830*
Y383670*
X-123150Y383580*
X-112950Y383750D02*
G01X-113460Y383830D01*
X-113900Y384170*
X-114280Y384670*
X-114530Y385250*
X-114660Y385920*
Y386580*
X-114530Y387250*
X-114280Y387830*
X-113900Y388330*
X-113460Y388670*
X-112950Y388750*
X-112440Y388670*
X-112000Y388330*
X-111620Y387830*
X-111370Y387250*
X-111240Y386580*
Y385920*
X-111370Y385250*
X-111620Y384670*
X-112000Y384170*
X-112440Y383830*
X-112950Y383750*
X-107850Y388750D02*
G01Y383750D01*
X-109310Y388750D02*
G01X-106390D01*
X-104080Y383750D02*
G01Y388750D01*
X-101420D02*
G01Y383750D01*
Y386250D02*
G01X-104080D01*
X-96380Y383750D02*
G01X-98920D01*
Y388750*
X-96380*
X-97400Y386330D02*
G01X-98920D01*
X-93820Y383750D02*
G01Y388750D01*
X-92230*
X-91730Y388500*
X-91410Y388170*
X-91280Y387500*
X-91410Y386830*
X-91790Y386420*
X-92230Y386170*
X-93820*
X-92230D02*
G01X-91280Y383750D01*
X-88780Y384420D02*
G01X-88270Y384000D01*
X-87700Y383750*
X-87200*
X-86690Y384000*
X-86310Y384420*
X-86120Y385000*
X-86250Y385580*
X-86560Y386080*
X-87130Y386420*
X-87890Y386580*
X-88340Y386920*
X-88530Y387500*
X-88400Y388080*
X-88080Y388500*
X-87640Y388750*
X-87200*
X-86750Y388580*
X-86370Y388170*
X-82670Y382080D02*
G01X-83300Y382920D01*
X-83620Y383750*
Y387080*
X-83300Y387920*
X-82670Y388750*
X-78010D02*
G01X-76490D01*
X-77250D02*
G01Y383750D01*
X-78010D02*
G01X-76490D01*
X-74050D02*
G01Y387080D01*
Y386170D02*
G01X-73860Y386580D01*
X-73540Y386920*
X-73100Y387080*
X-72660Y386920*
X-72340Y386580*
X-72150Y386170*
Y383750*
Y386170D02*
G01X-71960Y386580D01*
X-71640Y386920*
X-71200Y387080*
X-70760Y386920*
X-70440Y386580*
X-70250Y386080*
Y383750*
X-68630D02*
G01X-67050Y388750D01*
X-65470Y383750*
X-66040Y385500D02*
G01X-68060D01*
X-62840Y382500D02*
G01X-62390Y382170D01*
X-61890Y382080*
X-61440Y382170*
X-61060Y382580*
X-60810Y383170*
Y387080*
Y386420D02*
G01X-61060Y386750D01*
X-61440Y387000*
X-61890Y387080*
X-62390Y386920*
X-62710Y386580*
X-62960Y386000*
X-63090Y385420*
X-63030Y384920*
X-62770Y384330*
X-62390Y383920*
X-61890Y383750*
X-61510Y383830*
X-61060Y384170*
X-60810Y384500*
X-57990Y383580D02*
G01X-55710Y388750D01*
X-52510D02*
G01X-50990D01*
X-51750D02*
G01Y383750D01*
X-52510D02*
G01X-50990D01*
X-48550D02*
G01Y387080D01*
Y386170D02*
G01X-48360Y386580D01*
X-48040Y386920*
X-47600Y387080*
X-47160Y386920*
X-46840Y386580*
X-46650Y386170*
Y383750*
Y386170D02*
G01X-46460Y386580D01*
X-46140Y386920*
X-45700Y387080*
X-45260Y386920*
X-44940Y386580*
X-44750Y386080*
Y383750*
X-42880Y384420D02*
G01X-42370Y384000D01*
X-41800Y383750*
X-41300*
X-40790Y384000*
X-40410Y384420*
X-40220Y385000*
X-40350Y385580*
X-40660Y386080*
X-41230Y386420*
X-41990Y386580*
X-42440Y386920*
X-42630Y387500*
X-42500Y388080*
X-42180Y388500*
X-41740Y388750*
X-41300*
X-40850Y388580*
X-40470Y388170*
X-37530Y383750D02*
G01Y387080D01*
Y386250D02*
G01X-37270Y386670D01*
X-36890Y387000*
X-36390Y387080*
X-35940Y387000*
X-35560Y386670*
X-35370Y386080*
Y383750*
X-32490Y383580D02*
G01X-30210Y388750D01*
X-26250Y383750D02*
G01X-26760Y383830D01*
X-27200Y384170*
X-27580Y384670*
X-27830Y385250*
X-27960Y385920*
Y386580*
X-27830Y387250*
X-27580Y387830*
X-27200Y388330*
X-26760Y388670*
X-26250Y388750*
X-25740Y388670*
X-25300Y388330*
X-24920Y387830*
X-24670Y387250*
X-24540Y386580*
Y385920*
X-24670Y385250*
X-24920Y384670*
X-25300Y384170*
X-25740Y383830*
X-26250Y383750*
X-22480Y384420D02*
G01X-21970Y384000D01*
X-21400Y383750*
X-20900*
X-20390Y384000*
X-20010Y384420*
X-19820Y385000*
X-19950Y385580*
X-20260Y386080*
X-20830Y386420*
X-21590Y386580*
X-22040Y386920*
X-22230Y387500*
X-22100Y388080*
X-21780Y388500*
X-21340Y388750*
X-20900*
X-20450Y388580*
X-20070Y388170*
X-17320Y383750D02*
G01Y388750D01*
X-15800*
X-15290Y388500*
X-14910Y387920*
X-14780Y387250*
X-14910Y386580*
X-15230Y386080*
X-15800Y385830*
X-17320*
X-10630Y382080D02*
G01X-10000Y382920D01*
X-9680Y383750*
Y387080*
X-10000Y387920*
X-10630Y388750*
X-130140Y405250D02*
G01X-129760Y404670D01*
X-129260Y404330*
X-128690Y404250*
X-128180Y404330*
X-127670Y404750*
X-127360Y405250*
X-127290Y405750*
X-127420Y406330*
X-127860Y406750*
X-128310Y406920*
X-128880*
X-128310D02*
G01X-127930Y407170D01*
X-127610Y407580*
X-127480Y408080*
X-127610Y408580*
X-127930Y409000*
X-128500Y409250*
X-129070Y409170*
X-129640Y408830*
X-123650Y404080D02*
G01X-123780Y404170D01*
Y404330*
X-123650Y404420*
X-123520Y404330*
Y404170*
X-123650Y404080*
X-128250Y423750D02*
G01Y428750D01*
X-129010Y427750*
Y423750D02*
G01X-127490D01*
X-123150Y423580D02*
G01X-123280Y423670D01*
Y423830*
X-123150Y423920*
X-123020Y423830*
Y423670*
X-123150Y423580*
X-114280Y423750D02*
G01Y428750D01*
X-111620D02*
G01Y423750D01*
Y426250D02*
G01X-114280D01*
X-109430Y423750D02*
G01X-107850Y428750D01*
X-106270Y423750*
X-106840Y425500D02*
G01X-108860D01*
X-104080Y424420D02*
G01X-103570Y424000D01*
X-103000Y423750*
X-102500*
X-101990Y424000*
X-101610Y424420*
X-101420Y425000*
X-101550Y425580*
X-101860Y426080*
X-102430Y426420*
X-103190Y426580*
X-103640Y426920*
X-103830Y427500*
X-103700Y428080*
X-103380Y428500*
X-102940Y428750*
X-102500*
X-102050Y428580*
X-101670Y428170*
X-98920Y428750D02*
G01Y423750D01*
X-96380*
X-92870Y422080D02*
G01X-93500Y422920D01*
X-93820Y423750*
Y427080*
X-93500Y427920*
X-92870Y428750*
X-88780Y424420D02*
G01X-88270Y424000D01*
X-87700Y423750*
X-87200*
X-86690Y424000*
X-86310Y424420*
X-86120Y425000*
X-86250Y425580*
X-86560Y426080*
X-87130Y426420*
X-87890Y426580*
X-88340Y426920*
X-88530Y427500*
X-88400Y428080*
X-88080Y428500*
X-87640Y428750*
X-87200*
X-86750Y428580*
X-86370Y428170*
X-83430Y423750D02*
G01Y427080D01*
Y426250D02*
G01X-83170Y426670D01*
X-82790Y427000*
X-82290Y427080*
X-81840Y427000*
X-81460Y426670*
X-81270Y426080*
Y423750*
X-78390Y423580D02*
G01X-76110Y428750D01*
X-73420Y423750D02*
G01Y428750D01*
X-71900*
X-71390Y428500*
X-71010Y427920*
X-70880Y427250*
X-71010Y426580*
X-71330Y426080*
X-71900Y425830*
X-73420*
X-68190Y423750D02*
G01Y428750D01*
Y426250D02*
G01X-67870Y426750D01*
X-67490Y427000*
X-67110Y427080*
X-66540Y426920*
X-66160Y426580*
X-65910Y426000*
Y425330*
X-66040Y424670*
X-66290Y424170*
X-66730Y423830*
X-67110Y423750*
X-67490Y423830*
X-67870Y424080*
X-68190Y424500*
X-61630Y422080D02*
G01X-61000Y422920D01*
X-60680Y423750*
Y427080*
X-61000Y427920*
X-61630Y428750*
X-129950Y418420D02*
G01X-129570Y418920D01*
X-129130Y419170*
X-128620Y419250*
X-127990Y419080*
X-127550Y418670*
X-127420Y418170*
X-127480Y417670*
X-127740Y417250*
X-129000Y416420*
X-129570Y415830*
X-129950Y415000*
X-130080Y414250*
X-127420*
X-123650Y414080D02*
G01X-123780Y414170D01*
Y414330*
X-123650Y414420*
X-123520Y414330*
Y414170*
X-123650Y414080*
X-50750Y473750D02*
G01X-51260Y473830D01*
X-51700Y474170*
X-52080Y474670*
X-52330Y475250*
X-52460Y475920*
Y476580*
X-52330Y477250*
X-52080Y477830*
X-51700Y478330*
X-51260Y478670*
X-50750Y478750*
X-50240Y478670*
X-49800Y478330*
X-49420Y477830*
X-49170Y477250*
X-49040Y476580*
Y475920*
X-49170Y475250*
X-49420Y474670*
X-49800Y474170*
X-50240Y473830*
X-50750Y473750*
X-46920D02*
G01Y478750D01*
X-45400*
X-44890Y478500*
X-44510Y477920*
X-44380Y477250*
X-44510Y476580*
X-44830Y476080*
X-45400Y475830*
X-46920*
X-39280Y473750D02*
G01X-41820D01*
Y478750*
X-39280*
X-40300Y476330D02*
G01X-41820D01*
X-36910Y473750D02*
G01Y478750D01*
X-33990Y473750*
Y478750*
X-27150D02*
G01X-26260Y473750D01*
X-25250Y478750*
X-24240Y473750*
X-23350Y478750*
X-20910D02*
G01X-19390D01*
X-20150D02*
G01Y473750D01*
X-20910D02*
G01X-19390D01*
X-16510D02*
G01Y478750D01*
X-13590Y473750*
Y478750*
X-11340Y473750D02*
G01Y478750D01*
X-10080*
X-9570Y478500*
X-9190Y478170*
X-8870Y477670*
X-8620Y477080*
X-8560Y476250*
X-8620Y475420*
X-8870Y474830*
X-9190Y474330*
X-9570Y474000*
X-10080Y473750*
X-11340*
X-4850D02*
G01X-5360Y473830D01*
X-5800Y474170*
X-6180Y474670*
X-6430Y475250*
X-6560Y475920*
Y476580*
X-6430Y477250*
X-6180Y477830*
X-5800Y478330*
X-5360Y478670*
X-4850Y478750*
X-4340Y478670*
X-3900Y478330*
X-3520Y477830*
X-3270Y477250*
X-3140Y476580*
Y475920*
X-3270Y475250*
X-3520Y474670*
X-3900Y474170*
X-4340Y473830*
X-4850Y473750*
X-1650Y478750D02*
G01X-760Y473750D01*
X250Y478750*
X1260Y473750*
X2150Y478750*
X4020Y474420D02*
G01X4530Y474000D01*
X5100Y473750*
X5600*
X6110Y474000*
X6490Y474420*
X6680Y475000*
X6550Y475580*
X6240Y476080*
X5670Y476420*
X4910Y476580*
X4460Y476920*
X4270Y477500*
X4400Y478080*
X4720Y478500*
X5160Y478750*
X5600*
X6050Y478580*
X6430Y478170*
X10450Y473580D02*
G01X10320Y473670D01*
Y473830*
X10450Y473920*
X10580Y473830*
Y473670*
X10450Y473580*
Y475830D02*
G01X10320Y475920D01*
Y476080*
X10450Y476170*
X10580Y476080*
Y475920*
X10450Y475830*
X-52020Y488750D02*
G01Y483750D01*
X-49480*
X-47230D02*
G01X-45650Y488750D01*
X-44070Y483750*
X-44640Y485500D02*
G01X-46660D01*
X-40550Y483750D02*
G01Y486000D01*
X-41820Y488750*
X-39280D02*
G01X-40550Y486000D01*
X-34180Y483750D02*
G01X-36720D01*
Y488750*
X-34180*
X-35200Y486330D02*
G01X-36720D01*
X-31620Y483750D02*
G01Y488750D01*
X-30030*
X-29530Y488500*
X-29210Y488170*
X-29080Y487500*
X-29210Y486830*
X-29590Y486420*
X-30030Y486170*
X-31620*
X-30030D02*
G01X-29080Y483750D01*
X-26580Y484420D02*
G01X-26070Y484000D01*
X-25500Y483750*
X-25000*
X-24490Y484000*
X-24110Y484420*
X-23920Y485000*
X-24050Y485580*
X-24360Y486080*
X-24930Y486420*
X-25690Y486580*
X-26140Y486920*
X-26330Y487500*
X-26200Y488080*
X-25880Y488500*
X-25440Y488750*
X-25000*
X-24550Y488580*
X-24170Y488170*
X-20150Y483580D02*
G01X-20280Y483670D01*
Y483830*
X-20150Y483920*
X-20020Y483830*
Y483670*
X-20150Y483580*
Y485830D02*
G01X-20280Y485920D01*
Y486080*
X-20150Y486170*
X-20020Y486080*
Y485920*
X-20150Y485830*
X-13390Y-136650D02*
G01Y-129130D01*
X-14500Y-130630*
Y-136650D02*
G01X-12270D01*
X-5910Y-129130D02*
G01X-6650Y-129380D01*
X-7210Y-130010*
X-7580Y-130760*
X-7860Y-131760*
X-7950Y-132890*
X-7860Y-134020*
X-7580Y-135020*
X-7210Y-135770*
X-6650Y-136400*
X-5910Y-136650*
X-5160Y-136400*
X-4600Y-135770*
X-4230Y-135020*
X-3950Y-134020*
X-3860Y-132890*
X-3950Y-131760*
X-4230Y-130760*
X-4600Y-130010*
X-5160Y-129380*
X-5910Y-129130*
X1570D02*
G01X830Y-129380D01*
X270Y-130010*
X-100Y-130760*
X-380Y-131760*
X-470Y-132890*
X-380Y-134020*
X-100Y-135020*
X270Y-135770*
X830Y-136400*
X1570Y-136650*
X2320Y-136400*
X2880Y-135770*
X3250Y-135020*
X3530Y-134020*
X3620Y-132890*
X3530Y-131760*
X3250Y-130760*
X2880Y-130010*
X2320Y-129380*
X1570Y-129130*
X-28080Y293920D02*
G01X-27570Y293500D01*
X-27000Y293250*
X-26500*
X-25990Y293500*
X-25610Y293920*
X-25420Y294500*
X-25550Y295080*
X-25860Y295580*
X-26430Y295920*
X-27190Y296080*
X-27640Y296420*
X-27830Y297000*
X-27700Y297580*
X-27380Y298000*
X-26940Y298250*
X-26500*
X-26050Y298080*
X-25670Y297670*
X-22980Y293250D02*
G01Y298250D01*
X-20320D02*
G01Y293250D01*
Y295750D02*
G01X-22980D01*
X-16550Y293250D02*
G01X-17060Y293330D01*
X-17500Y293670*
X-17880Y294170*
X-18130Y294750*
X-18260Y295420*
Y296080*
X-18130Y296750*
X-17880Y297330*
X-17500Y297830*
X-17060Y298170*
X-16550Y298250*
X-16040Y298170*
X-15600Y297830*
X-15220Y297330*
X-14970Y296750*
X-14840Y296080*
Y295420*
X-14970Y294750*
X-15220Y294170*
X-15600Y293670*
X-16040Y293330*
X-16550Y293250*
X-12720D02*
G01Y298250D01*
X-11130*
X-10630Y298000*
X-10310Y297670*
X-10180Y297000*
X-10310Y296330*
X-10690Y295920*
X-11130Y295670*
X-12720*
X-11130D02*
G01X-10180Y293250D01*
X-6350Y298250D02*
G01Y293250D01*
X-7810Y298250D02*
G01X-4890D01*
X2390Y293250D02*
G01Y298250D01*
X5310Y293250*
Y298250*
X10220Y293250D02*
G01X7680D01*
Y298250*
X10220*
X9200Y295830D02*
G01X7680D01*
X14050Y298250D02*
G01Y293250D01*
X12590Y298250D02*
G01X15510D01*
X22980Y293250D02*
G01Y298250D01*
X24500*
X25010Y298000*
X25390Y297420*
X25520Y296750*
X25390Y296080*
X25070Y295580*
X24500Y295330*
X22980*
X29350Y293250D02*
G01X28840Y293330D01*
X28400Y293670*
X28020Y294170*
X27770Y294750*
X27640Y295420*
Y296080*
X27770Y296750*
X28020Y297330*
X28400Y297830*
X28840Y298170*
X29350Y298250*
X29860Y298170*
X30300Y297830*
X30680Y297330*
X30930Y296750*
X31060Y296080*
Y295420*
X30930Y294750*
X30680Y294170*
X30300Y293670*
X29860Y293330*
X29350Y293250*
X33120Y293920D02*
G01X33630Y293500D01*
X34200Y293250*
X34700*
X35210Y293500*
X35590Y293920*
X35780Y294500*
X35650Y295080*
X35340Y295580*
X34770Y295920*
X34010Y296080*
X33560Y296420*
X33370Y297000*
X33500Y297580*
X33820Y298000*
X34260Y298250*
X34700*
X35150Y298080*
X35530Y297670*
X38790Y298250D02*
G01X40310D01*
X39550D02*
G01Y293250D01*
X38790D02*
G01X40310D01*
X44650Y298250D02*
G01Y293250D01*
X43190Y298250D02*
G01X46110D01*
X48990D02*
G01X50510D01*
X49750D02*
G01Y293250D01*
X48990D02*
G01X50510D01*
X54850D02*
G01X54340Y293330D01*
X53900Y293670*
X53520Y294170*
X53270Y294750*
X53140Y295420*
Y296080*
X53270Y296750*
X53520Y297330*
X53900Y297830*
X54340Y298170*
X54850Y298250*
X55360Y298170*
X55800Y297830*
X56180Y297330*
X56430Y296750*
X56560Y296080*
Y295420*
X56430Y294750*
X56180Y294170*
X55800Y293670*
X55360Y293330*
X54850Y293250*
X58490D02*
G01Y298250D01*
X61410Y293250*
Y298250*
X-6310Y-116090D02*
G01X-5660Y-116720D01*
X-4910Y-116970*
X-4170Y-116720*
X-3510Y-115970*
X-3050Y-114840*
X-2860Y-113710*
Y-112330*
X-3050Y-111200*
X-3510Y-110200*
X-4070Y-109700*
X-4730Y-109450*
X-5470Y-109700*
X-6030Y-110200*
X-6400Y-110950*
X-6590Y-111960*
X-6400Y-112830*
X-5940Y-113710*
X-5380Y-114210*
X-4730Y-114340*
X-3980Y-114090*
X-3420Y-113460*
X-2860Y-112330*
X710Y-115470D02*
G01X1260Y-116340D01*
X2010Y-116840*
X2850Y-116970*
X3590Y-116840*
X4340Y-116220*
X4800Y-115470*
X4900Y-114710*
X4710Y-113840*
X4060Y-113210*
X3410Y-112960*
X2570*
X3410D02*
G01X3970Y-112580D01*
X4430Y-111960*
X4620Y-111200*
X4430Y-110450*
X3970Y-109830*
X3130Y-109450*
X2290Y-109580*
X1450Y-110080*
X10000Y-132880D02*
G01X196850D01*
X11180Y-113190D02*
G01X183070D01*
X35420Y474420D02*
G01X35930Y474000D01*
X36500Y473750*
X37000*
X37510Y474000*
X37890Y474420*
X38080Y475000*
X37950Y475580*
X37640Y476080*
X37070Y476420*
X36310Y476580*
X35860Y476920*
X35670Y477500*
X35800Y478080*
X36120Y478500*
X36560Y478750*
X37000*
X37450Y478580*
X37830Y478170*
X40580Y473750D02*
G01Y478750D01*
X42100*
X42610Y478500*
X42990Y477920*
X43120Y477250*
X42990Y476580*
X42670Y476080*
X42100Y475830*
X40580*
X48220Y473750D02*
G01X45680D01*
Y478750*
X48220*
X47200Y476330D02*
G01X45680D01*
X50780Y478750D02*
G01Y473750D01*
X53320*
X55880Y478750D02*
G01Y473750D01*
X58420*
X65700D02*
G01Y478750D01*
X67350Y474580*
X69000Y478750*
Y473750*
X72450D02*
G01X71940Y473830D01*
X71500Y474170*
X71120Y474670*
X70870Y475250*
X70740Y475920*
Y476580*
X70870Y477250*
X71120Y477830*
X71500Y478330*
X71940Y478670*
X72450Y478750*
X72960Y478670*
X73400Y478330*
X73780Y477830*
X74030Y477250*
X74160Y476580*
Y475920*
X74030Y475250*
X73780Y474670*
X73400Y474170*
X72960Y473830*
X72450Y473750*
X76160D02*
G01Y478750D01*
X77420*
X77930Y478500*
X78310Y478170*
X78630Y477670*
X78880Y477080*
X78940Y476250*
X78880Y475420*
X78630Y474830*
X78310Y474330*
X77930Y474000*
X77420Y473750*
X76160*
X83920D02*
G01X81380D01*
Y478750*
X83920*
X82900Y476330D02*
G01X81380D01*
X87750Y473580D02*
G01X87620Y473670D01*
Y473830*
X87750Y473920*
X87880Y473830*
Y473670*
X87750Y473580*
Y475830D02*
G01X87620Y475920D01*
Y476080*
X87750Y476170*
X87880Y476080*
Y475920*
X87750Y475830*
X37260Y486420D02*
G01X37510Y486670D01*
X37700Y487080*
X37830Y487670*
X37700Y488170*
X37450Y488500*
X37000Y488750*
X35290*
Y483750*
X37380*
X37830Y484080*
X38080Y484580*
X38210Y485170*
X38080Y485750*
X37700Y486250*
X37260Y486420*
X35290*
X41850Y483750D02*
G01X41340Y483830D01*
X40900Y484170*
X40520Y484670*
X40270Y485250*
X40140Y485920*
Y486580*
X40270Y487250*
X40520Y487830*
X40900Y488330*
X41340Y488670*
X41850Y488750*
X42360Y488670*
X42800Y488330*
X43180Y487830*
X43430Y487250*
X43560Y486580*
Y485920*
X43430Y485250*
X43180Y484670*
X42800Y484170*
X42360Y483830*
X41850Y483750*
X45370D02*
G01X46950Y488750D01*
X48530Y483750*
X47960Y485500D02*
G01X45940D01*
X50780Y483750D02*
G01Y488750D01*
X52370*
X52870Y488500*
X53190Y488170*
X53320Y487500*
X53190Y486830*
X52810Y486420*
X52370Y486170*
X50780*
X52370D02*
G01X53320Y483750D01*
X55760D02*
G01Y488750D01*
X57020*
X57530Y488500*
X57910Y488170*
X58230Y487670*
X58480Y487080*
X58540Y486250*
X58480Y485420*
X58230Y484830*
X57910Y484330*
X57530Y484000*
X57020Y483750*
X55760*
X67350Y488750D02*
G01Y483750D01*
X65890Y488750D02*
G01X68810D01*
X71120Y483750D02*
G01Y488750D01*
X73780D02*
G01Y483750D01*
Y486250D02*
G01X71120D01*
X76790Y488750D02*
G01X78310D01*
X77550D02*
G01Y483750D01*
X76790D02*
G01X78310D01*
X84040Y488330D02*
G01X83660Y488580D01*
X83220Y488750*
X82710*
X82140Y488500*
X81700Y488080*
X81380Y487580*
X81130Y486750*
X81070Y486000*
X81190Y485250*
X81380Y484750*
X81760Y484250*
X82210Y483920*
X82650Y483750*
X83090*
X83540Y483920*
X83920Y484170*
X84230Y484500*
X86360Y483750D02*
G01Y488750D01*
X88760D02*
G01X86360Y485670D01*
X89140Y483750D02*
G01X87430Y487080D01*
X91390Y483750D02*
G01Y488750D01*
X94310Y483750*
Y488750*
X99220Y483750D02*
G01X96680D01*
Y488750*
X99220*
X98200Y486330D02*
G01X96680D01*
X101720Y484420D02*
G01X102230Y484000D01*
X102800Y483750*
X103300*
X103810Y484000*
X104190Y484420*
X104380Y485000*
X104250Y485580*
X103940Y486080*
X103370Y486420*
X102610Y486580*
X102160Y486920*
X101970Y487500*
X102100Y488080*
X102420Y488500*
X102860Y488750*
X103300*
X103750Y488580*
X104130Y488170*
X106820Y484420D02*
G01X107330Y484000D01*
X107900Y483750*
X108400*
X108910Y484000*
X109290Y484420*
X109480Y485000*
X109350Y485580*
X109040Y486080*
X108470Y486420*
X107710Y486580*
X107260Y486920*
X107070Y487500*
X107200Y488080*
X107520Y488500*
X107960Y488750*
X108400*
X108850Y488580*
X109230Y488170*
X113250Y483580D02*
G01X113120Y483670D01*
Y483830*
X113250Y483920*
X113380Y483830*
Y483670*
X113250Y483580*
Y485830D02*
G01X113120Y485920D01*
Y486080*
X113250Y486170*
X113380Y486080*
Y485920*
X113250Y485830*
X118350Y483750D02*
G01Y488750D01*
X117590Y487750*
Y483750D02*
G01X119110D01*
X123450Y483580D02*
G01X123320Y483670D01*
Y483830*
X123450Y483920*
X123580Y483830*
Y483670*
X123450Y483580*
X127350Y485830D02*
G01X127790Y486420D01*
X128170Y486750*
X128680Y486920*
X129120Y486750*
X129440Y486420*
X129690Y485920*
X129750Y485330*
X129690Y484830*
X129440Y484330*
X129060Y483920*
X128610Y483750*
X128110Y483920*
X127660Y484420*
X127410Y485170*
X127350Y486000*
X127470Y487080*
X127660Y487670*
X127980Y488250*
X128420Y488670*
X128870Y488750*
X129310Y488580*
X129630Y488170*
X131750Y483750D02*
G01Y487080D01*
Y486170D02*
G01X131940Y486580D01*
X132260Y486920*
X132700Y487080*
X133140Y486920*
X133460Y486580*
X133650Y486170*
Y483750*
Y486170D02*
G01X133840Y486580D01*
X134160Y486920*
X134600Y487080*
X135040Y486920*
X135360Y486580*
X135550Y486080*
Y483750*
X136850D02*
G01Y487080D01*
Y486170D02*
G01X137040Y486580D01*
X137360Y486920*
X137800Y487080*
X138240Y486920*
X138560Y486580*
X138750Y486170*
Y483750*
Y486170D02*
G01X138940Y486580D01*
X139260Y486920*
X139700Y487080*
X140140Y486920*
X140460Y486580*
X140650Y486080*
Y483750*
X143150Y485420D02*
G01X144670D01*
X143850Y486500D02*
G01Y484330D01*
X147810Y483580D02*
G01X150090Y488750D01*
X153230Y485420D02*
G01X154870D01*
X159150Y483750D02*
G01Y488750D01*
X158390Y487750*
Y483750D02*
G01X159910D01*
X164250Y488750D02*
G01X163740Y488580D01*
X163360Y488170*
X163110Y487670*
X162920Y487000*
X162860Y486250*
X162920Y485500*
X163110Y484830*
X163360Y484330*
X163740Y483920*
X164250Y483750*
X164760Y483920*
X165140Y484330*
X165390Y484830*
X165580Y485500*
X165640Y486250*
X165580Y487000*
X165390Y487670*
X165140Y488170*
X164760Y488580*
X164250Y488750*
X168210Y483580D02*
G01X170490Y488750D01*
X168210D02*
G01X167830Y488580D01*
X167640Y488330*
X167510Y487830*
X167640Y487330*
X167830Y487080*
X168210Y486920*
X168590Y487080*
X168780Y487330*
X168910Y487830*
X168780Y488330*
X168590Y488580*
X168210Y488750*
X170490Y485420D02*
G01X170110Y485250D01*
X169920Y485000*
X169790Y484500*
X169920Y484000*
X170110Y483750*
X170490Y483580*
X170870Y483750*
X171060Y484000*
X171190Y484500*
X171060Y485000*
X170870Y485250*
X170490Y485420*
X91020Y-181100D02*
G01X93340Y-173580D01*
X95670Y-181100*
X94840Y-178470D02*
G01X91850D01*
X100820Y-181100D02*
G01Y-173580D01*
X108300Y-181100D02*
G01Y-173580D01*
X121220Y-181100D02*
G01Y-173580D01*
X123080*
X123820Y-173960*
X124380Y-174460*
X124850Y-175210*
X125220Y-176090*
X125310Y-177340*
X125220Y-178590*
X124850Y-179470*
X124380Y-180220*
X123820Y-180720*
X123080Y-181100*
X121220*
X130740Y-176090D02*
G01Y-181100D01*
Y-174080D02*
G01X130560Y-173960D01*
Y-173710*
X130740Y-173580*
X130930Y-173710*
Y-173960*
X130740Y-174080*
X135430Y-181100D02*
G01Y-176090D01*
Y-177470D02*
G01X135710Y-176840D01*
X136180Y-176340*
X136830Y-176090*
X137480Y-176340*
X137950Y-176840*
X138220Y-177470*
Y-181100*
Y-177470D02*
G01X138500Y-176840D01*
X138970Y-176340*
X139620Y-176090*
X140270Y-176340*
X140740Y-176840*
X141020Y-177590*
Y-181100*
X144310Y-177720D02*
G01X147290D01*
X147010Y-176840*
X146540Y-176340*
X145890Y-176090*
X145240Y-176210*
X144680Y-176590*
X144310Y-177470*
X144120Y-178220*
Y-178970*
X144310Y-179720*
X144770Y-180470*
X145330Y-180970*
X145980Y-181100*
X146640Y-180850*
X147290Y-180100*
X151600Y-181100D02*
G01Y-176090D01*
Y-177340D02*
G01X151970Y-176710D01*
X152530Y-176210*
X153280Y-176090*
X153930Y-176210*
X154490Y-176710*
X154770Y-177590*
Y-181100*
X159270Y-180220D02*
G01X159730Y-180720D01*
X160390Y-181100*
X160940*
X161500Y-180850*
X161880Y-180470*
X162060Y-179970*
X161970Y-179220*
X161600Y-178840*
X159920Y-178090*
X159550Y-177210*
X159730Y-176590*
X160110Y-176210*
X160660Y-176090*
X161220Y-176210*
X161780Y-176590*
X168140Y-176090D02*
G01Y-181100D01*
Y-174080D02*
G01X167960Y-173960D01*
Y-173710*
X168140Y-173580*
X168330Y-173710*
Y-173960*
X168140Y-174080*
X175620Y-181100D02*
G01X175070Y-180970D01*
X174510Y-180470*
X174130Y-179600*
X173950Y-178590*
X174130Y-177590*
X174510Y-176710*
X175070Y-176210*
X175620Y-176090*
X176180Y-176210*
X176740Y-176710*
X177120Y-177590*
X177210Y-178590*
X177120Y-179600*
X176740Y-180470*
X176180Y-180970*
X175620Y-181100*
X181520D02*
G01Y-176090D01*
Y-177340D02*
G01X181890Y-176710D01*
X182450Y-176210*
X183200Y-176090*
X183850Y-176210*
X184410Y-176710*
X184690Y-177590*
Y-181100*
X190580Y-181350D02*
G01X190400Y-181230D01*
Y-180970*
X190580Y-180850*
X190770Y-180970*
Y-181230*
X190580Y-181350*
Y-177970D02*
G01X190400Y-177840D01*
Y-177590*
X190580Y-177470*
X190770Y-177590*
Y-177840*
X190580Y-177970*
X195270Y-181100D02*
G01Y-176090D01*
Y-177470D02*
G01X195550Y-176840D01*
X196020Y-176340*
X196670Y-176090*
X197320Y-176340*
X197790Y-176840*
X198060Y-177470*
Y-181100*
Y-177470D02*
G01X198340Y-176840D01*
X198810Y-176340*
X199460Y-176090*
X200110Y-176340*
X200580Y-176840*
X200860Y-177590*
Y-181100*
X202750D02*
G01Y-176090D01*
Y-177470D02*
G01X203030Y-176840D01*
X203500Y-176340*
X204150Y-176090*
X204800Y-176340*
X205270Y-176840*
X205540Y-177470*
Y-181100*
Y-177470D02*
G01X205820Y-176840D01*
X206290Y-176340*
X206940Y-176090*
X207590Y-176340*
X208060Y-176840*
X208340Y-177590*
Y-181100*
X168070Y-115670D02*
G01X183070Y-113190D01*
X168070Y-110710*
Y-115670*
X181850Y-135360D02*
G01X196850Y-132880D01*
X181850Y-130400*
Y-135360*
X183070Y-94650D02*
G01Y-123190D01*
X196850Y-108430D02*
G01Y-142880D01*
X259350Y-336040D02*
G01Y223050D01*
X742990*
Y-336040*
X259350*
Y-307930D02*
G01X742990D01*
X259350Y-279820D02*
G01X742990D01*
X259350Y-251710D02*
G01X742990D01*
X259350Y-223600D02*
G01X742990D01*
X259350Y-195490D02*
G01X742990D01*
X259350Y-167380D02*
G01X742990D01*
X259350Y-139270D02*
G01X742990D01*
X259350Y-111160D02*
G01X742990D01*
X259350Y-83050D02*
G01X742990D01*
X259350Y-54940D02*
G01X742990D01*
X259350Y-26830D02*
G01X742990D01*
X259350Y1280D02*
G01X742990D01*
X259350Y29390D02*
G01X742990D01*
X259350Y57500D02*
G01X742990D01*
X259350Y85610D02*
G01X742990D01*
X259350Y113720D02*
G01X742990D01*
X259350Y141830D02*
G01X742990D01*
X259350Y169940D02*
G01X742990D01*
X259350Y198050D02*
G01X742990D01*
X255400Y456990D02*
G01X397130D01*
Y258170*
X255400*
Y456990*
X270360Y151160D02*
G01Y163680D01*
X276250*
X274080Y157630D02*
G01X270360D01*
X283850Y163680D02*
G01X287560D01*
X285700D02*
G01Y151160D01*
X283850D02*
G01X287560D01*
X299030Y157420D02*
G01X302130D01*
Y153660*
X301200Y152410*
X300120Y151580*
X298570Y151160*
X297020Y151580*
X295940Y152410*
X295010Y153660*
X294390Y155120*
X294080Y156790*
Y158250*
X294390Y159510*
X295010Y160970*
X295940Y162220*
X296870Y163050*
X298100Y163680*
X299190*
X300430Y163260*
X301360Y162430*
X307100Y163680D02*
G01Y154710D01*
X307720Y152830*
X308960Y151580*
X310500Y151160*
X312050Y151580*
X313290Y152830*
X313910Y154710*
Y163680*
X319810Y151160D02*
G01Y163680D01*
X323680*
X324920Y163050*
X325690Y162220*
X326000Y160550*
X325690Y158880*
X324760Y157840*
X323680Y157210*
X319810*
X323680D02*
G01X326000Y151160D01*
X338400D02*
G01X332210D01*
Y163680*
X338400*
X335920Y157630D02*
G01X332210D01*
X268710Y290090D02*
G01X386820D01*
Y280240*
X268710*
Y290090*
Y299930D02*
G01X386820D01*
Y290090*
X268710*
Y299930*
Y309740D02*
G01X386820D01*
Y299900*
X268710*
Y309740*
Y329430D02*
G01X386820D01*
Y319580*
X268710*
Y329430*
Y349110D02*
G01X386820D01*
Y339270*
X268710*
Y349110*
Y368790D02*
G01X386820D01*
Y358950*
X268710*
Y368790*
Y388480D02*
G01X386820D01*
Y378640*
X268710*
Y388480*
Y418010D02*
G01X386820D01*
Y408170*
X268710*
Y418010*
Y408170D02*
G01X386820D01*
Y398320*
X268710*
Y408170*
Y427850D02*
G01X386820D01*
Y418010*
X268710*
Y427850*
X292580Y305330D02*
G01X292830Y305580D01*
X293020Y305990*
X293150Y306580*
X293020Y307080*
X292770Y307410*
X292320Y307660*
X290610*
Y302660*
X292700*
X293150Y302990*
X293400Y303490*
X293530Y304080*
X293400Y304660*
X293020Y305160*
X292580Y305330*
X290610*
X297170Y302660D02*
G01X296790Y302740D01*
X296410Y303080*
X296160Y303660*
X296030Y304330*
X296160Y304990*
X296410Y305580*
X296790Y305910*
X297170Y305990*
X297550Y305910*
X297930Y305580*
X298180Y304990*
X298250Y304330*
X298180Y303660*
X297930Y303080*
X297550Y302740*
X297170Y302660*
X302270Y307660D02*
G01Y302660D01*
X301380Y305990D02*
G01X303160D01*
X307370Y307660D02*
G01Y302660D01*
X306480Y305990D02*
G01X308260D01*
X312470Y302660D02*
G01X312090Y302740D01*
X311710Y303080*
X311460Y303660*
X311330Y304330*
X311460Y304990*
X311710Y305580*
X312090Y305910*
X312470Y305990*
X312850Y305910*
X313230Y305580*
X313480Y304990*
X313550Y304330*
X313480Y303660*
X313230Y303080*
X312850Y302740*
X312470Y302660*
X315670D02*
G01Y305990D01*
Y305080D02*
G01X315860Y305490D01*
X316180Y305830*
X316620Y305990*
X317060Y305830*
X317380Y305490*
X317570Y305080*
Y302660*
Y305080D02*
G01X317760Y305490D01*
X318080Y305830*
X318520Y305990*
X318960Y305830*
X319280Y305490*
X319470Y304990*
Y302660*
X288400Y309740D02*
G01X367140D01*
Y319580*
X288400*
Y309740*
X289880Y322290D02*
G01X290260Y321870D01*
X290700Y321620*
X291270Y321540*
X291840Y321710*
X292280Y322040*
X292600Y322620*
X292660Y323290*
X292540Y323960*
X292220Y324370*
X291780Y324710*
X291330Y324790*
X290890Y324710*
X290320Y324370*
X290510Y326540*
X292220*
X294790D02*
G01X296370Y321540D01*
X297950Y326540*
X302480Y324460D02*
G01X302040Y324790D01*
X301660Y324870*
X301150Y324710*
X300770Y324370*
X300520Y323790*
X300460Y323210*
X300520Y322620*
X300770Y322120*
X301150Y321710*
X301660Y321540*
X302100Y321710*
X302480Y322040*
X307580Y324460D02*
G01X307140Y324790D01*
X306760Y324870*
X306250Y324710*
X305870Y324370*
X305620Y323790*
X305560Y323210*
X305620Y322620*
X305870Y322120*
X306250Y321710*
X306760Y321540*
X307200Y321710*
X307580Y322040*
X288400Y329430D02*
G01X367140D01*
Y339270*
X288400*
Y329430*
X290880Y341980D02*
G01Y346980D01*
X288540Y343400*
X291700*
X293890Y342650D02*
G01X294400Y342230D01*
X294970Y341980*
X295470*
X295980Y342230*
X296360Y342650*
X296550Y343230*
X296420Y343810*
X296110Y344310*
X295540Y344650*
X294780Y344810*
X294330Y345150*
X294140Y345730*
X294270Y346310*
X294590Y346730*
X295030Y346980*
X295470*
X295920Y346810*
X296300Y346400*
X300320Y345310D02*
G01Y341980D01*
Y346650D02*
G01X300190Y346730D01*
Y346900*
X300320Y346980*
X300450Y346900*
Y346730*
X300320Y346650*
X304530Y340730D02*
G01X304980Y340400D01*
X305480Y340310*
X305930Y340400*
X306310Y340810*
X306560Y341400*
Y345310*
Y344650D02*
G01X306310Y344980D01*
X305930Y345230*
X305480Y345310*
X304980Y345150*
X304660Y344810*
X304410Y344230*
X304280Y343650*
X304340Y343150*
X304600Y342560*
X304980Y342150*
X305480Y341980*
X305860Y342060*
X306310Y342400*
X306560Y342730*
X309440Y341980D02*
G01Y345310D01*
Y344480D02*
G01X309700Y344900D01*
X310080Y345230*
X310580Y345310*
X311030Y345230*
X311410Y344900*
X311600Y344310*
Y341980*
X316760D02*
G01Y345310D01*
Y344730D02*
G01X316510Y345060D01*
X316130Y345230*
X315680Y345310*
X315240Y345150*
X314860Y344810*
X314610Y344310*
X314480Y343650*
X314610Y342980*
X314860Y342480*
X315240Y342150*
X315680Y341980*
X316130Y342060*
X316510Y342310*
X316760Y342650*
X320720Y341980D02*
G01Y346980D01*
X324620Y346150D02*
G01X325000Y346650D01*
X325440Y346900*
X325950Y346980*
X326580Y346810*
X327020Y346400*
X327150Y345900*
X327090Y345400*
X326830Y344980*
X325570Y344150*
X325000Y343560*
X324620Y342730*
X324490Y341980*
X327150*
X288400Y349110D02*
G01X367140D01*
Y358950*
X288400*
Y349110*
Y368790D02*
G01X367140D01*
Y378640*
X288400*
Y368790*
X288380Y362670D02*
G01X288760Y362090D01*
X289260Y361750*
X289830Y361670*
X290340Y361750*
X290850Y362170*
X291160Y362670*
X291230Y363170*
X291100Y363750*
X290660Y364170*
X290210Y364340*
X289640*
X290210D02*
G01X290590Y364590D01*
X290910Y365000*
X291040Y365500*
X290910Y366000*
X290590Y366420*
X290020Y366670*
X289450Y366590*
X288880Y366250*
X293540Y362340D02*
G01X294050Y361920D01*
X294620Y361670*
X295120*
X295630Y361920*
X296010Y362340*
X296200Y362920*
X296070Y363500*
X295760Y364000*
X295190Y364340*
X294430Y364500*
X293980Y364840*
X293790Y365420*
X293920Y366000*
X294240Y366420*
X294680Y366670*
X295120*
X295570Y366500*
X295950Y366090*
X299970Y365000D02*
G01Y361670D01*
Y366340D02*
G01X299840Y366420D01*
Y366590*
X299970Y366670*
X300100Y366590*
Y366420*
X299970Y366340*
X304180Y360420D02*
G01X304630Y360090D01*
X305130Y360000*
X305580Y360090*
X305960Y360500*
X306210Y361090*
Y365000*
Y364340D02*
G01X305960Y364670D01*
X305580Y364920*
X305130Y365000*
X304630Y364840*
X304310Y364500*
X304060Y363920*
X303930Y363340*
X303990Y362840*
X304250Y362250*
X304630Y361840*
X305130Y361670*
X305510Y361750*
X305960Y362090*
X306210Y362420*
X309090Y361670D02*
G01Y365000D01*
Y364170D02*
G01X309350Y364590D01*
X309730Y364920*
X310230Y365000*
X310680Y364920*
X311060Y364590*
X311250Y364000*
Y361670*
X316410D02*
G01Y365000D01*
Y364420D02*
G01X316160Y364750D01*
X315780Y364920*
X315330Y365000*
X314890Y364840*
X314510Y364500*
X314260Y364000*
X314130Y363340*
X314260Y362670*
X314510Y362170*
X314890Y361840*
X315330Y361670*
X315780Y361750*
X316160Y362000*
X316410Y362340*
X320370Y361670D02*
G01Y366670D01*
X325470Y361670D02*
G01Y366670D01*
X324710Y365670*
Y361670D02*
G01X326230D01*
X288400Y388480D02*
G01X367140D01*
Y398320*
X288400*
Y388480*
X290070Y385170D02*
G01X290450Y385670D01*
X290890Y385920*
X291400Y386000*
X292030Y385830*
X292470Y385420*
X292600Y384920*
X292540Y384420*
X292280Y384000*
X291020Y383170*
X290450Y382580*
X290070Y381750*
X289940Y381000*
X292600*
X296750Y383500D02*
G01X298020D01*
Y382000*
X297640Y381500*
X297190Y381170*
X296560Y381000*
X295930Y381170*
X295480Y381500*
X295100Y382000*
X294850Y382580*
X294720Y383250*
Y383830*
X294850Y384330*
X295100Y384920*
X295480Y385420*
X295860Y385750*
X296370Y386000*
X296810*
X297320Y385830*
X297700Y385500*
X300390Y381000D02*
G01Y384330D01*
Y383500D02*
G01X300650Y383920D01*
X301030Y384250*
X301530Y384330*
X301980Y384250*
X302360Y383920*
X302550Y383330*
Y381000*
X307710Y386000D02*
G01Y381000D01*
Y381750D02*
G01X307460Y381330D01*
X307080Y381080*
X306630Y381000*
X306130Y381170*
X305750Y381580*
X305490Y382080*
X305430Y382670*
X305490Y383250*
X305750Y383750*
X306130Y384170*
X306630Y384330*
X307080Y384250*
X307390Y384080*
X307710Y383750*
X291710Y405330D02*
G01Y400330D01*
X290250Y405330D02*
G01X293170D01*
X296810Y400330D02*
G01X296300Y400410D01*
X295860Y400750*
X295480Y401250*
X295230Y401830*
X295100Y402500*
Y403160*
X295230Y403830*
X295480Y404410*
X295860Y404910*
X296300Y405250*
X296810Y405330*
X297320Y405250*
X297760Y404910*
X298140Y404410*
X298390Y403830*
X298520Y403160*
Y402500*
X298390Y401830*
X298140Y401250*
X297760Y400750*
X297320Y400410*
X296810Y400330*
X300640D02*
G01Y405330D01*
X302160*
X302670Y405080*
X303050Y404500*
X303180Y403830*
X303050Y403160*
X302730Y402660*
X302160Y402410*
X300640*
X312190Y283670D02*
G01X312700Y283250D01*
X313270Y283000*
X313770*
X314280Y283250*
X314660Y283670*
X314850Y284250*
X314720Y284830*
X314410Y285330*
X313840Y285670*
X313080Y285830*
X312630Y286170*
X312440Y286750*
X312570Y287330*
X312890Y287750*
X313330Y288000*
X313770*
X314220Y287830*
X314600Y287420*
X318620Y286330D02*
G01Y283000D01*
Y287670D02*
G01X318490Y287750D01*
Y287920*
X318620Y288000*
X318750Y287920*
Y287750*
X318620Y287670*
X323720Y283000D02*
G01Y288000D01*
X327740Y283000D02*
G01Y288000D01*
X329770Y286330D02*
G01X327740Y284420D01*
X328570Y285170D02*
G01X329900Y283000D01*
X339530Y285670D02*
G01X339780Y285920D01*
X339970Y286330*
X340100Y286920*
X339970Y287420*
X339720Y287750*
X339270Y288000*
X337560*
Y283000*
X339650*
X340100Y283330*
X340350Y283830*
X340480Y284420*
X340350Y285000*
X339970Y285500*
X339530Y285670*
X337560*
X344120Y283000D02*
G01X343740Y283080D01*
X343360Y283420*
X343110Y284000*
X342980Y284670*
X343110Y285330*
X343360Y285920*
X343740Y286250*
X344120Y286330*
X344500Y286250*
X344880Y285920*
X345130Y285330*
X345200Y284670*
X345130Y284000*
X344880Y283420*
X344500Y283080*
X344120Y283000*
X349220Y288000D02*
G01Y283000D01*
X348330Y286330D02*
G01X350110D01*
X306290Y293120D02*
G01X306800Y292700D01*
X307370Y292450*
X307870*
X308380Y292700*
X308760Y293120*
X308950Y293700*
X308820Y294280*
X308510Y294780*
X307940Y295120*
X307180Y295280*
X306730Y295620*
X306540Y296200*
X306670Y296780*
X306990Y297200*
X307430Y297450*
X307870*
X308320Y297280*
X308700Y296870*
X312720Y292450D02*
G01X312340Y292530D01*
X311960Y292870*
X311710Y293450*
X311580Y294120*
X311710Y294780*
X311960Y295370*
X312340Y295700*
X312720Y295780*
X313100Y295700*
X313480Y295370*
X313730Y294780*
X313800Y294120*
X313730Y293450*
X313480Y292870*
X313100Y292530*
X312720Y292450*
X317820D02*
G01Y297450D01*
X324060D02*
G01Y292450D01*
Y293200D02*
G01X323810Y292780D01*
X323430Y292530*
X322980Y292450*
X322480Y292620*
X322100Y293030*
X321840Y293530*
X321780Y294120*
X321840Y294700*
X322100Y295200*
X322480Y295620*
X322980Y295780*
X323430Y295700*
X323740Y295530*
X324060Y295200*
X327070Y294700D02*
G01X329100D01*
X328910Y295280*
X328590Y295620*
X328150Y295780*
X327700Y295700*
X327320Y295450*
X327070Y294870*
X326940Y294370*
Y293870*
X327070Y293370*
X327390Y292870*
X327770Y292530*
X328210Y292450*
X328650Y292620*
X329100Y293120*
X332230Y292450D02*
G01Y295780D01*
Y295120D02*
G01X332550Y295450D01*
X332870Y295700*
X333310Y295780*
X333630Y295700*
X334010Y295450*
X343830Y295120D02*
G01X344080Y295370D01*
X344270Y295780*
X344400Y296370*
X344270Y296870*
X344020Y297200*
X343570Y297450*
X341860*
Y292450*
X343950*
X344400Y292780*
X344650Y293280*
X344780Y293870*
X344650Y294450*
X344270Y294950*
X343830Y295120*
X341860*
X348420Y292450D02*
G01X348040Y292530D01*
X347660Y292870*
X347410Y293450*
X347280Y294120*
X347410Y294780*
X347660Y295370*
X348040Y295700*
X348420Y295780*
X348800Y295700*
X349180Y295370*
X349430Y294780*
X349500Y294120*
X349430Y293450*
X349180Y292870*
X348800Y292530*
X348420Y292450*
X353520Y297450D02*
G01Y292450D01*
X352630Y295780D02*
G01X354410D01*
X307080Y411200D02*
G01X307590Y410780D01*
X308160Y410530*
X308660*
X309170Y410780*
X309550Y411200*
X309740Y411780*
X309610Y412360*
X309300Y412860*
X308730Y413200*
X307970Y413360*
X307520Y413700*
X307330Y414280*
X307460Y414860*
X307780Y415280*
X308220Y415530*
X308660*
X309110Y415360*
X309490Y414950*
X313510Y410530D02*
G01X313130Y410610D01*
X312750Y410950*
X312500Y411530*
X312370Y412200*
X312500Y412860*
X312750Y413450*
X313130Y413780*
X313510Y413860*
X313890Y413780*
X314270Y413450*
X314520Y412860*
X314590Y412200*
X314520Y411530*
X314270Y410950*
X313890Y410610*
X313510Y410530*
X318610D02*
G01Y415530D01*
X324850D02*
G01Y410530D01*
Y411280D02*
G01X324600Y410860D01*
X324220Y410610*
X323770Y410530*
X323270Y410700*
X322890Y411110*
X322630Y411610*
X322570Y412200*
X322630Y412780*
X322890Y413280*
X323270Y413700*
X323770Y413860*
X324220Y413780*
X324530Y413610*
X324850Y413280*
X327860Y412780D02*
G01X329890D01*
X329700Y413360*
X329380Y413700*
X328940Y413860*
X328490Y413780*
X328110Y413530*
X327860Y412950*
X327730Y412450*
Y411950*
X327860Y411450*
X328180Y410950*
X328560Y410610*
X329000Y410530*
X329440Y410700*
X329890Y411200*
X333020Y410530D02*
G01Y413860D01*
Y413200D02*
G01X333340Y413530D01*
X333660Y413780*
X334100Y413860*
X334420Y413780*
X334800Y413530*
X344110Y415530D02*
G01Y410530D01*
X342650Y415530D02*
G01X345570D01*
X349210Y410530D02*
G01X348830Y410610D01*
X348450Y410950*
X348200Y411530*
X348070Y412200*
X348200Y412860*
X348450Y413450*
X348830Y413780*
X349210Y413860*
X349590Y413780*
X349970Y413450*
X350220Y412860*
X350290Y412200*
X350220Y411530*
X349970Y410950*
X349590Y410610*
X349210Y410530*
X353170Y408860D02*
G01Y413860D01*
Y413110D02*
G01X353490Y413530D01*
X353800Y413780*
X354310Y413860*
X354750Y413780*
X355200Y413360*
X355390Y412780*
X355450Y412200*
X355390Y411610*
X355200Y411030*
X354820Y410700*
X354310Y410530*
X353870Y410610*
X353420Y410860*
X353170Y411200*
X313380Y421040D02*
G01X313890Y420620D01*
X314460Y420370*
X314960*
X315470Y420620*
X315850Y421040*
X316040Y421620*
X315910Y422200*
X315600Y422700*
X315030Y423040*
X314270Y423200*
X313820Y423540*
X313630Y424120*
X313760Y424700*
X314080Y425120*
X314520Y425370*
X314960*
X315410Y425200*
X315790Y424790*
X319810Y423700D02*
G01Y420370D01*
Y425040D02*
G01X319680Y425120D01*
Y425290*
X319810Y425370*
X319940Y425290*
Y425120*
X319810Y425040*
X324910Y420370D02*
G01Y425370D01*
X328930Y420370D02*
G01Y425370D01*
X330960Y423700D02*
G01X328930Y421790D01*
X329760Y422540D02*
G01X331090Y420370D01*
X340210Y425370D02*
G01Y420370D01*
X338750Y425370D02*
G01X341670D01*
X345310Y420370D02*
G01X344930Y420450D01*
X344550Y420790*
X344300Y421370*
X344170Y422040*
X344300Y422700*
X344550Y423290*
X344930Y423620*
X345310Y423700*
X345690Y423620*
X346070Y423290*
X346320Y422700*
X346390Y422040*
X346320Y421370*
X346070Y420790*
X345690Y420450*
X345310Y420370*
X349270Y418700D02*
G01Y423700D01*
Y422950D02*
G01X349590Y423370D01*
X349900Y423620*
X350410Y423700*
X350850Y423620*
X351300Y423200*
X351490Y422620*
X351550Y422040*
X351490Y421450*
X351300Y420870*
X350920Y420540*
X350410Y420370*
X349970Y420450*
X349520Y420700*
X349270Y421040*
X300840Y436390D02*
G01Y431390D01*
X303380*
X308350D02*
G01Y434720D01*
Y434140D02*
G01X308100Y434470D01*
X307720Y434640*
X307270Y434720*
X306830Y434560*
X306450Y434220*
X306200Y433720*
X306070Y433060*
X306200Y432390*
X306450Y431890*
X306830Y431560*
X307270Y431390*
X307720Y431470*
X308100Y431720*
X308350Y432060*
X310980Y429890D02*
G01X311360Y429720D01*
X311870Y429890*
X312180Y430220*
X312440Y430640*
X312820Y431970*
X313640Y434720*
X311610D02*
G01X312820Y431970D01*
X316460Y433640D02*
G01X318490D01*
X318300Y434220*
X317980Y434560*
X317540Y434720*
X317090Y434640*
X316710Y434390*
X316460Y433810*
X316330Y433310*
Y432810*
X316460Y432310*
X316780Y431810*
X317160Y431470*
X317600Y431390*
X318040Y431560*
X318490Y432060*
X321620Y431390D02*
G01Y434720D01*
Y434060D02*
G01X321940Y434390D01*
X322260Y434640*
X322700Y434720*
X323020Y434640*
X323400Y434390*
X331380Y432060D02*
G01X331890Y431640D01*
X332460Y431390*
X332960*
X333470Y431640*
X333850Y432060*
X334040Y432640*
X333910Y433220*
X333600Y433720*
X333030Y434060*
X332270Y434220*
X331820Y434560*
X331630Y435140*
X331760Y435720*
X332080Y436140*
X332520Y436390*
X332960*
X333410Y436220*
X333790Y435810*
X337810Y436390D02*
G01Y431390D01*
X336920Y434720D02*
G01X338700D01*
X344050Y431390D02*
G01Y434720D01*
Y434140D02*
G01X343800Y434470D01*
X343420Y434640*
X342970Y434720*
X342530Y434560*
X342150Y434220*
X341900Y433720*
X341770Y433060*
X341900Y432390*
X342150Y431890*
X342530Y431560*
X342970Y431390*
X343420Y431470*
X343800Y431720*
X344050Y432060*
X349020Y434310D02*
G01X348580Y434640D01*
X348200Y434720*
X347690Y434560*
X347310Y434220*
X347060Y433640*
X347000Y433060*
X347060Y432470*
X347310Y431970*
X347690Y431560*
X348200Y431390*
X348640Y431560*
X349020Y431890*
X352030Y431390D02*
G01Y436390D01*
X354060Y434720D02*
G01X352030Y432810D01*
X352860Y433560D02*
G01X354190Y431390D01*
X357130Y434720D02*
G01Y432390D01*
X357390Y431810*
X357770Y431470*
X358210Y431390*
X358650Y431470*
X359030Y431810*
X359290Y432390*
Y431390D02*
G01Y434720D01*
X362170Y429720D02*
G01Y434720D01*
Y433970D02*
G01X362490Y434390D01*
X362800Y434640*
X363310Y434720*
X363750Y434640*
X364200Y434220*
X364390Y433640*
X364450Y433060*
X364390Y432470*
X364200Y431890*
X363820Y431560*
X363310Y431390*
X362870Y431470*
X362420Y431720*
X362170Y432060*
X317840Y311710D02*
G01Y316710D01*
X320240*
X319360Y314290D02*
G01X317840D01*
X322870Y311710D02*
G01Y316710D01*
X324460*
X324960Y316460*
X325280Y316130*
X325410Y315460*
X325280Y314790*
X324900Y314380*
X324460Y314130*
X322870*
X324460D02*
G01X325410Y311710D01*
X328420Y313380D02*
G01X330060D01*
X335100Y311710D02*
G01Y316710D01*
X332760Y313130*
X335920*
X320430Y335970D02*
G01X320050Y336220D01*
X319610Y336390*
X319100*
X318530Y336140*
X318090Y335720*
X317770Y335220*
X317520Y334390*
X317460Y333640*
X317580Y332890*
X317770Y332390*
X318150Y331890*
X318600Y331560*
X319040Y331390*
X319480*
X319930Y331560*
X320310Y331810*
X320620Y332140*
X324140Y331390D02*
G01X323630Y331470D01*
X323190Y331810*
X322810Y332310*
X322560Y332890*
X322430Y333560*
Y334220*
X322560Y334890*
X322810Y335470*
X323190Y335970*
X323630Y336310*
X324140Y336390*
X324650Y336310*
X325090Y335970*
X325470Y335470*
X325720Y334890*
X325850Y334220*
Y333560*
X325720Y332890*
X325470Y332310*
X325090Y331810*
X324650Y331470*
X324140Y331390*
X327970D02*
G01Y336390D01*
X329560*
X330060Y336140*
X330380Y335810*
X330510Y335140*
X330380Y334470*
X330000Y334060*
X329560Y333810*
X327970*
X329560D02*
G01X330510Y331390D01*
X335610D02*
G01X333070D01*
Y336390*
X335610*
X334590Y333970D02*
G01X333070D01*
X317840Y351080D02*
G01Y356080D01*
X320240*
X319360Y353660D02*
G01X317840D01*
X322870Y351080D02*
G01Y356080D01*
X324460*
X324960Y355830*
X325280Y355500*
X325410Y354830*
X325280Y354160*
X324900Y353750*
X324460Y353500*
X322870*
X324460D02*
G01X325410Y351080D01*
X328420Y352750D02*
G01X330060D01*
X335100Y351080D02*
G01Y356080D01*
X332760Y352500*
X335920*
X320430Y375340D02*
G01X320050Y375590D01*
X319610Y375760*
X319100*
X318530Y375510*
X318090Y375090*
X317770Y374590*
X317520Y373760*
X317460Y373010*
X317580Y372260*
X317770Y371760*
X318150Y371260*
X318600Y370930*
X319040Y370760*
X319480*
X319930Y370930*
X320310Y371180*
X320620Y371510*
X324140Y370760D02*
G01X323630Y370840D01*
X323190Y371180*
X322810Y371680*
X322560Y372260*
X322430Y372930*
Y373590*
X322560Y374260*
X322810Y374840*
X323190Y375340*
X323630Y375680*
X324140Y375760*
X324650Y375680*
X325090Y375340*
X325470Y374840*
X325720Y374260*
X325850Y373590*
Y372930*
X325720Y372260*
X325470Y371680*
X325090Y371180*
X324650Y370840*
X324140Y370760*
X327970D02*
G01Y375760D01*
X329560*
X330060Y375510*
X330380Y375180*
X330510Y374510*
X330380Y373840*
X330000Y373430*
X329560Y373180*
X327970*
X329560D02*
G01X330510Y370760D01*
X335610D02*
G01X333070D01*
Y375760*
X335610*
X334590Y373340D02*
G01X333070D01*
X317840Y390450D02*
G01Y395450D01*
X320240*
X319360Y393030D02*
G01X317840D01*
X322870Y390450D02*
G01Y395450D01*
X324460*
X324960Y395200*
X325280Y394870*
X325410Y394200*
X325280Y393530*
X324900Y393120*
X324460Y392870*
X322870*
X324460D02*
G01X325410Y390450D01*
X328420Y392120D02*
G01X330060D01*
X335100Y390450D02*
G01Y395450D01*
X332760Y391870*
X335920*
X349260Y169940D02*
G01Y-336040D01*
X342760Y204270D02*
G01Y216790D01*
X345860*
X347090Y216160*
X348020Y215330*
X348800Y214080*
X349420Y212620*
X349570Y210530*
X349420Y208440*
X348800Y206980*
X348020Y205730*
X347090Y204900*
X345860Y204270*
X342760*
X355470D02*
G01Y216790D01*
X359340*
X360580Y216160*
X361350Y215330*
X361660Y213660*
X361350Y211990*
X360420Y210950*
X359340Y210320*
X355470*
X359340D02*
G01X361660Y204270D01*
X369110Y216790D02*
G01X372820D01*
X370960D02*
G01Y204270D01*
X369110D02*
G01X372820D01*
X380270Y216790D02*
G01Y204270D01*
X386460*
X392670Y216790D02*
G01Y204270D01*
X398860*
X423970Y215750D02*
G01X423040Y216370D01*
X421960Y216790*
X420720*
X419330Y216160*
X418240Y215120*
X417470Y213870*
X416850Y211780*
X416690Y209900*
X417000Y208030*
X417470Y206770*
X418400Y205520*
X419480Y204690*
X420560Y204270*
X421650*
X422730Y204690*
X423660Y205310*
X424440Y206150*
X429710Y204270D02*
G01Y216790D01*
X436220D02*
G01Y204270D01*
Y210530D02*
G01X429710D01*
X441490Y204270D02*
G01X445360Y216790D01*
X449240Y204270*
X447840Y208650D02*
G01X442890D01*
X454670Y204270D02*
G01Y216790D01*
X458540*
X459780Y216160*
X460550Y215330*
X460860Y213660*
X460550Y211990*
X459620Y210950*
X458540Y210320*
X454670*
X458540D02*
G01X460860Y204270D01*
X470160Y216790D02*
G01Y204270D01*
X466600Y216790D02*
G01X473730D01*
X482560Y203850D02*
G01X482260Y204060D01*
Y204480*
X482560Y204690*
X482870Y204480*
Y204060*
X482560Y203850*
Y209490D02*
G01X482260Y209700D01*
Y210110*
X482560Y210320*
X482870Y210110*
Y209700*
X482560Y209490*
X507360Y216790D02*
G01Y204270D01*
X503800Y216790D02*
G01X510930D01*
X519760Y204270D02*
G01X518530Y204480D01*
X517440Y205310*
X516510Y206570*
X515890Y208030*
X515580Y209700*
Y211360*
X515890Y213030*
X516510Y214490*
X517440Y215750*
X518530Y216580*
X519760Y216790*
X521000Y216580*
X522090Y215750*
X523020Y214490*
X523640Y213030*
X523950Y211360*
Y209700*
X523640Y208030*
X523020Y206570*
X522090Y205310*
X521000Y204480*
X519760Y204270*
X529070D02*
G01Y216790D01*
X532780*
X534020Y216160*
X534950Y214700*
X535260Y213030*
X534950Y211360*
X534180Y210110*
X532780Y209490*
X529070*
X556960Y216790D02*
G01Y204270D01*
X554800Y212620D02*
G01X559130D01*
X569360Y204270D02*
G01X568440Y204480D01*
X567510Y205310*
X566890Y206770*
X566580Y208440*
X566890Y210110*
X567510Y211570*
X568440Y212410*
X569360Y212620*
X570290Y212410*
X571220Y211570*
X571840Y210110*
X572000Y208440*
X571840Y206770*
X571220Y205310*
X570290Y204480*
X569360Y204270*
X595400Y210950D02*
G01X596020Y211570D01*
X596490Y212620*
X596800Y214080*
X596490Y215330*
X595870Y216160*
X594780Y216790*
X590600*
Y204270*
X595710*
X596800Y205100*
X597420Y206360*
X597730Y207820*
X597420Y209280*
X596490Y210530*
X595400Y210950*
X590600*
X606560Y204270D02*
G01X605330Y204480D01*
X604240Y205310*
X603310Y206570*
X602690Y208030*
X602380Y209700*
Y211360*
X602690Y213030*
X603310Y214490*
X604240Y215750*
X605330Y216580*
X606560Y216790*
X607800Y216580*
X608890Y215750*
X609820Y214490*
X610440Y213030*
X610750Y211360*
Y209700*
X610440Y208030*
X609820Y206570*
X608890Y205310*
X607800Y204480*
X606560Y204270*
X618960Y216790D02*
G01Y204270D01*
X615400Y216790D02*
G01X622530D01*
X631360D02*
G01Y204270D01*
X627800Y216790D02*
G01X634930D01*
X643760Y204270D02*
G01X642530Y204480D01*
X641440Y205310*
X640510Y206570*
X639890Y208030*
X639580Y209700*
Y211360*
X639890Y213030*
X640510Y214490*
X641440Y215750*
X642530Y216580*
X643760Y216790*
X645000Y216580*
X646090Y215750*
X647020Y214490*
X647640Y213030*
X647950Y211360*
Y209700*
X647640Y208030*
X647020Y206570*
X646090Y205310*
X645000Y204480*
X643760Y204270*
X652140D02*
G01Y216790D01*
X656160Y206360*
X660190Y216790*
Y204270*
X373290Y179270D02*
G01X377160Y191790D01*
X381040Y179270*
X379640Y183650D02*
G01X374690D01*
X386470Y191790D02*
G01Y179270D01*
X392660*
X398870Y191790D02*
G01Y179270D01*
X405060*
X423360Y191790D02*
G01Y182820D01*
X423980Y180940*
X425220Y179690*
X426760Y179270*
X428310Y179690*
X429550Y180940*
X430170Y182820*
Y191790*
X435600Y179270D02*
G01Y191790D01*
X442730Y179270*
Y191790*
X449710D02*
G01X453420D01*
X451560D02*
G01Y179270D01*
X449710D02*
G01X453420D01*
X463960Y191790D02*
G01Y179270D01*
X460400Y191790D02*
G01X467530D01*
X473110Y180940D02*
G01X474350Y179900D01*
X475750Y179270*
X476980*
X478220Y179900*
X479150Y180940*
X479620Y182400*
X479310Y183860*
X478530Y185110*
X477140Y185950*
X475280Y186360*
X474200Y187200*
X473730Y188660*
X474040Y190120*
X474820Y191160*
X475900Y191790*
X476980*
X478070Y191370*
X479000Y190330*
X497290Y179270D02*
G01X501160Y191790D01*
X505040Y179270*
X503640Y183650D02*
G01X498690D01*
X510470Y179270D02*
G01Y191790D01*
X514340*
X515580Y191160*
X516350Y190330*
X516660Y188660*
X516350Y186990*
X515420Y185950*
X514340Y185320*
X510470*
X514340D02*
G01X516660Y179270D01*
X529060D02*
G01X522870D01*
Y191790*
X529060*
X526580Y185740D02*
G01X522870D01*
X548910Y191790D02*
G01X552620D01*
X550760D02*
G01Y179270D01*
X548910D02*
G01X552620D01*
X559600D02*
G01Y191790D01*
X566730Y179270*
Y191790*
X583940Y179270D02*
G01Y191790D01*
X587960Y181360*
X591990Y191790*
Y179270*
X598510Y191790D02*
G01X602220D01*
X600360D02*
G01Y179270D01*
X598510D02*
G01X602220D01*
X609670Y191790D02*
G01Y179270D01*
X615860*
X621910Y180940D02*
G01X623150Y179900D01*
X624550Y179270*
X625780*
X627020Y179900*
X627950Y180940*
X628420Y182400*
X628110Y183860*
X627330Y185110*
X625940Y185950*
X624080Y186360*
X623000Y187200*
X622530Y188660*
X622840Y190120*
X623620Y191160*
X624700Y191790*
X625780*
X626870Y191370*
X627800Y190330*
X393910Y-328240D02*
G01X394210Y-325530D01*
X394680Y-323230*
X395300Y-321150*
X396070Y-318850*
X397310Y-315720*
X391120*
X406610Y-328240D02*
G01X407700Y-328030D01*
X408940Y-327410*
X409710Y-326360*
X410020Y-324900*
X409710Y-323440*
X408780Y-322190*
X407390Y-321560*
X405840*
X404910Y-321150*
X404140Y-320100*
X403830Y-318640*
X404290Y-317180*
X405380Y-316140*
X406610Y-315720*
X407850Y-316140*
X408940Y-317180*
X409400Y-318640*
X409090Y-320100*
X408320Y-321150*
X407390Y-321560*
X405840*
X404450Y-322190*
X403520Y-323440*
X403210Y-324900*
X403520Y-326360*
X404290Y-327410*
X405530Y-328030*
X406610Y-328240*
X419010Y-328660D02*
G01X418710Y-328450D01*
Y-328030*
X419010Y-327820*
X419320Y-328030*
Y-328450*
X419010Y-328660*
X431110Y-328240D02*
G01X431410Y-325530D01*
X431880Y-323230*
X432500Y-321150*
X433270Y-318850*
X434510Y-315720*
X428320*
X441490Y-319890D02*
G01X446140Y-328240D01*
Y-319890D02*
G01X441490Y-328240D01*
X452810Y-325740D02*
G01X453740Y-327200D01*
X454980Y-328030*
X456370Y-328240*
X457610Y-328030*
X458850Y-326990*
X459620Y-325740*
X459780Y-324480*
X459470Y-323020*
X458380Y-321980*
X457300Y-321560*
X455910*
X457300D02*
G01X458230Y-320940D01*
X459000Y-319890*
X459310Y-318640*
X459000Y-317390*
X458230Y-316350*
X456830Y-315720*
X455440Y-315930*
X454050Y-316760*
X465980Y-326780D02*
G01X467070Y-327820D01*
X468310Y-328240*
X469540Y-327820*
X470630Y-326570*
X471400Y-324690*
X471710Y-322810*
Y-320520*
X471400Y-318640*
X470630Y-316970*
X469700Y-316140*
X468610Y-315720*
X467380Y-316140*
X466450Y-316970*
X465830Y-318220*
X465520Y-319890*
X465830Y-321350*
X466600Y-322810*
X467530Y-323650*
X468610Y-323860*
X469850Y-323440*
X470780Y-322400*
X471710Y-320520*
X481010Y-328660D02*
G01X480710Y-328450D01*
Y-328030*
X481010Y-327820*
X481320Y-328030*
Y-328450*
X481010Y-328660*
X495270Y-328240D02*
G01Y-315720D01*
X489540Y-324690*
X497290*
X393910Y-300130D02*
G01X394210Y-297420D01*
X394680Y-295120*
X395300Y-293040*
X396070Y-290740*
X397310Y-287610*
X391120*
X406610Y-300130D02*
G01X407700Y-299920D01*
X408940Y-299300*
X409710Y-298250*
X410020Y-296790*
X409710Y-295330*
X408780Y-294080*
X407390Y-293450*
X405840*
X404910Y-293040*
X404140Y-291990*
X403830Y-290530*
X404290Y-289070*
X405380Y-288030*
X406610Y-287610*
X407850Y-288030*
X408940Y-289070*
X409400Y-290530*
X409090Y-291990*
X408320Y-293040*
X407390Y-293450*
X405840*
X404450Y-294080*
X403520Y-295330*
X403210Y-296790*
X403520Y-298250*
X404290Y-299300*
X405530Y-299920*
X406610Y-300130*
X419010Y-300550D02*
G01X418710Y-300340D01*
Y-299920*
X419010Y-299710*
X419320Y-299920*
Y-300340*
X419010Y-300550*
X431110Y-300130D02*
G01X431410Y-297420D01*
X431880Y-295120*
X432500Y-293040*
X433270Y-290740*
X434510Y-287610*
X428320*
X441490Y-291780D02*
G01X446140Y-300130D01*
Y-291780D02*
G01X441490Y-300130D01*
X452810Y-297630D02*
G01X453740Y-299090D01*
X454980Y-299920*
X456370Y-300130*
X457610Y-299920*
X458850Y-298880*
X459620Y-297630*
X459780Y-296370*
X459470Y-294910*
X458380Y-293870*
X457300Y-293450*
X455910*
X457300D02*
G01X458230Y-292830D01*
X459000Y-291780*
X459310Y-290530*
X459000Y-289280*
X458230Y-288240*
X456830Y-287610*
X455440Y-287820*
X454050Y-288650*
X465980Y-298670D02*
G01X467070Y-299710D01*
X468310Y-300130*
X469540Y-299710*
X470630Y-298460*
X471400Y-296580*
X471710Y-294700*
Y-292410*
X471400Y-290530*
X470630Y-288860*
X469700Y-288030*
X468610Y-287610*
X467380Y-288030*
X466450Y-288860*
X465830Y-290110*
X465520Y-291780*
X465830Y-293240*
X466600Y-294700*
X467530Y-295540*
X468610Y-295750*
X469850Y-295330*
X470780Y-294290*
X471710Y-292410*
X481010Y-300550D02*
G01X480710Y-300340D01*
Y-299920*
X481010Y-299710*
X481320Y-299920*
Y-300340*
X481010Y-300550*
X495270Y-300130D02*
G01Y-287610D01*
X489540Y-296580*
X497290*
X393910Y-272020D02*
G01X394210Y-269310D01*
X394680Y-267010*
X395300Y-264930*
X396070Y-262630*
X397310Y-259500*
X391120*
X406610D02*
G01X405380Y-259920D01*
X404450Y-260960*
X403830Y-262210*
X403360Y-263880*
X403210Y-265760*
X403360Y-267640*
X403830Y-269310*
X404450Y-270560*
X405380Y-271600*
X406610Y-272020*
X407850Y-271600*
X408780Y-270560*
X409400Y-269310*
X409870Y-267640*
X410020Y-265760*
X409870Y-263880*
X409400Y-262210*
X408780Y-260960*
X407850Y-259920*
X406610Y-259500*
X419010Y-272440D02*
G01X418710Y-272230D01*
Y-271810*
X419010Y-271600*
X419320Y-271810*
Y-272230*
X419010Y-272440*
X428780Y-270560D02*
G01X429870Y-271600D01*
X431110Y-272020*
X432340Y-271600*
X433430Y-270350*
X434200Y-268470*
X434510Y-266590*
Y-264300*
X434200Y-262420*
X433430Y-260750*
X432500Y-259920*
X431410Y-259500*
X430180Y-259920*
X429250Y-260750*
X428630Y-262000*
X428320Y-263670*
X428630Y-265130*
X429400Y-266590*
X430330Y-267430*
X431410Y-267640*
X432650Y-267220*
X433580Y-266180*
X434510Y-264300*
X441490Y-263670D02*
G01X446140Y-272020D01*
Y-263670D02*
G01X441490Y-272020D01*
X452810Y-269520D02*
G01X453740Y-270980D01*
X454980Y-271810*
X456370Y-272020*
X457610Y-271810*
X458850Y-270770*
X459620Y-269520*
X459780Y-268260*
X459470Y-266800*
X458380Y-265760*
X457300Y-265340*
X455910*
X457300D02*
G01X458230Y-264720D01*
X459000Y-263670*
X459310Y-262420*
X459000Y-261170*
X458230Y-260130*
X456830Y-259500*
X455440Y-259710*
X454050Y-260540*
X465980Y-270560D02*
G01X467070Y-271600D01*
X468310Y-272020*
X469540Y-271600*
X470630Y-270350*
X471400Y-268470*
X471710Y-266590*
Y-264300*
X471400Y-262420*
X470630Y-260750*
X469700Y-259920*
X468610Y-259500*
X467380Y-259920*
X466450Y-260750*
X465830Y-262000*
X465520Y-263670*
X465830Y-265130*
X466600Y-266590*
X467530Y-267430*
X468610Y-267640*
X469850Y-267220*
X470780Y-266180*
X471710Y-264300*
X481010Y-272440D02*
G01X480710Y-272230D01*
Y-271810*
X481010Y-271600*
X481320Y-271810*
Y-272230*
X481010Y-272440*
X495270Y-272020D02*
G01Y-259500D01*
X489540Y-268470*
X497290*
X419010Y-243910D02*
G01Y-231390D01*
X417160Y-233890*
Y-243910D02*
G01X420870D01*
X428010Y-241410D02*
G01X428940Y-242870D01*
X430180Y-243700*
X431570Y-243910*
X432810Y-243700*
X434050Y-242660*
X434820Y-241410*
X434980Y-240150*
X434670Y-238690*
X433580Y-237650*
X432500Y-237230*
X431110*
X432500D02*
G01X433430Y-236610D01*
X434200Y-235560*
X434510Y-234310*
X434200Y-233060*
X433430Y-232020*
X432030Y-231390*
X430640Y-231600*
X429250Y-232430*
X440410Y-241410D02*
G01X441340Y-242870D01*
X442580Y-243700*
X443970Y-243910*
X445210Y-243700*
X446450Y-242660*
X447220Y-241410*
X447380Y-240150*
X447070Y-238690*
X445980Y-237650*
X444900Y-237230*
X443510*
X444900D02*
G01X445830Y-236610D01*
X446600Y-235560*
X446910Y-234310*
X446600Y-233060*
X445830Y-232020*
X444430Y-231390*
X443040Y-231600*
X441650Y-232430*
X456210Y-244330D02*
G01X455910Y-244120D01*
Y-243700*
X456210Y-243490*
X456520Y-243700*
Y-244120*
X456210Y-244330*
X465980Y-242450D02*
G01X467070Y-243490D01*
X468310Y-243910*
X469540Y-243490*
X470630Y-242240*
X471400Y-240360*
X471710Y-238480*
Y-236190*
X471400Y-234310*
X470630Y-232640*
X469700Y-231810*
X468610Y-231390*
X467380Y-231810*
X466450Y-232640*
X465830Y-233890*
X465520Y-235560*
X465830Y-237020*
X466600Y-238480*
X467530Y-239320*
X468610Y-239530*
X469850Y-239110*
X470780Y-238070*
X471710Y-236190*
X419010Y-215800D02*
G01Y-203280D01*
X417160Y-205780*
Y-215800D02*
G01X420870D01*
X428470Y-205370D02*
G01X429400Y-204110D01*
X430490Y-203490*
X431720Y-203280*
X433270Y-203700*
X434360Y-204740*
X434670Y-205990*
X434510Y-207240*
X433890Y-208290*
X430800Y-210370*
X429400Y-211840*
X428470Y-213920*
X428160Y-215800*
X434670*
X440410Y-213920D02*
G01X441340Y-214970D01*
X442420Y-215590*
X443810Y-215800*
X445210Y-215380*
X446290Y-214550*
X447070Y-213090*
X447220Y-211420*
X446910Y-209750*
X446140Y-208710*
X445050Y-207870*
X443970Y-207660*
X442890Y-207870*
X441490Y-208710*
X441960Y-203280*
X446140*
X456210Y-216220D02*
G01X455910Y-216010D01*
Y-215590*
X456210Y-215380*
X456520Y-215590*
Y-216010*
X456210Y-216220*
X468610Y-203280D02*
G01X467380Y-203700D01*
X466450Y-204740*
X465830Y-205990*
X465360Y-207660*
X465210Y-209540*
X465360Y-211420*
X465830Y-213090*
X466450Y-214340*
X467380Y-215380*
X468610Y-215800*
X469850Y-215380*
X470780Y-214340*
X471400Y-213090*
X471870Y-211420*
X472020Y-209540*
X471870Y-207660*
X471400Y-205990*
X470780Y-204740*
X469850Y-203700*
X468610Y-203280*
X419010Y-187690D02*
G01Y-175170D01*
X417160Y-177670*
Y-187690D02*
G01X420870D01*
X428470Y-177260D02*
G01X429400Y-176000D01*
X430490Y-175380*
X431720Y-175170*
X433270Y-175590*
X434360Y-176630*
X434670Y-177880*
X434510Y-179130*
X433890Y-180180*
X430800Y-182260*
X429400Y-183730*
X428470Y-185810*
X428160Y-187690*
X434670*
X443810Y-175170D02*
G01X442580Y-175590D01*
X441650Y-176630*
X441030Y-177880*
X440560Y-179550*
X440410Y-181430*
X440560Y-183310*
X441030Y-184980*
X441650Y-186230*
X442580Y-187270*
X443810Y-187690*
X445050Y-187270*
X445980Y-186230*
X446600Y-184980*
X447070Y-183310*
X447220Y-181430*
X447070Y-179550*
X446600Y-177880*
X445980Y-176630*
X445050Y-175590*
X443810Y-175170*
X456210Y-188110D02*
G01X455910Y-187900D01*
Y-187480*
X456210Y-187270*
X456520Y-187480*
Y-187900*
X456210Y-188110*
X468610Y-187690D02*
G01Y-175170D01*
X466760Y-177670*
Y-187690D02*
G01X470470D01*
X421810Y-157080D02*
G01X422740Y-158540D01*
X423980Y-159370*
X425370Y-159580*
X426610Y-159370*
X427850Y-158330*
X428620Y-157080*
X428780Y-155820*
X428470Y-154360*
X427380Y-153320*
X426300Y-152900*
X424910*
X426300D02*
G01X427230Y-152280D01*
X428000Y-151230*
X428310Y-149980*
X428000Y-148730*
X427230Y-147690*
X425830Y-147060*
X424440Y-147270*
X423050Y-148100*
X434210Y-157700D02*
G01X435140Y-158750D01*
X436220Y-159370*
X437610Y-159580*
X439010Y-159160*
X440090Y-158330*
X440870Y-156870*
X441020Y-155200*
X440710Y-153530*
X439940Y-152490*
X438850Y-151650*
X437770Y-151440*
X436690Y-151650*
X435290Y-152490*
X435760Y-147060*
X439940*
X450010Y-160000D02*
G01X449710Y-159790D01*
Y-159370*
X450010Y-159160*
X450320Y-159370*
Y-159790*
X450010Y-160000*
X464270Y-159580D02*
G01Y-147060D01*
X458540Y-156030*
X466290*
X419010Y-131470D02*
G01Y-118950D01*
X417160Y-121450*
Y-131470D02*
G01X420870D01*
X431410Y-118950D02*
G01X430180Y-119370D01*
X429250Y-120410*
X428630Y-121660*
X428160Y-123330*
X428010Y-125210*
X428160Y-127090*
X428630Y-128760*
X429250Y-130010*
X430180Y-131050*
X431410Y-131470*
X432650Y-131050*
X433580Y-130010*
X434200Y-128760*
X434670Y-127090*
X434820Y-125210*
X434670Y-123330*
X434200Y-121660*
X433580Y-120410*
X432650Y-119370*
X431410Y-118950*
X443810D02*
G01X442580Y-119370D01*
X441650Y-120410*
X441030Y-121660*
X440560Y-123330*
X440410Y-125210*
X440560Y-127090*
X441030Y-128760*
X441650Y-130010*
X442580Y-131050*
X443810Y-131470*
X445050Y-131050*
X445980Y-130010*
X446600Y-128760*
X447070Y-127090*
X447220Y-125210*
X447070Y-123330*
X446600Y-121660*
X445980Y-120410*
X445050Y-119370*
X443810Y-118950*
X456210Y-131890D02*
G01X455910Y-131680D01*
Y-131260*
X456210Y-131050*
X456520Y-131260*
Y-131680*
X456210Y-131890*
X468610Y-118950D02*
G01X467380Y-119370D01*
X466450Y-120410*
X465830Y-121660*
X465360Y-123330*
X465210Y-125210*
X465360Y-127090*
X465830Y-128760*
X466450Y-130010*
X467380Y-131050*
X468610Y-131470*
X469850Y-131050*
X470780Y-130010*
X471400Y-128760*
X471870Y-127090*
X472020Y-125210*
X471870Y-123330*
X471400Y-121660*
X470780Y-120410*
X469850Y-119370*
X468610Y-118950*
X425210Y-103360D02*
G01X426300Y-103150D01*
X427540Y-102530*
X428310Y-101480*
X428620Y-100020*
X428310Y-98560*
X427380Y-97310*
X425990Y-96680*
X424440*
X423510Y-96270*
X422740Y-95220*
X422430Y-93760*
X422890Y-92300*
X423980Y-91260*
X425210Y-90840*
X426450Y-91260*
X427540Y-92300*
X428000Y-93760*
X427690Y-95220*
X426920Y-96270*
X425990Y-96680*
X424440*
X423050Y-97310*
X422120Y-98560*
X421810Y-100020*
X422120Y-101480*
X422890Y-102530*
X424130Y-103150*
X425210Y-103360*
X434210Y-100860D02*
G01X435140Y-102320D01*
X436380Y-103150*
X437770Y-103360*
X439010Y-103150*
X440250Y-102110*
X441020Y-100860*
X441180Y-99600*
X440870Y-98140*
X439780Y-97100*
X438700Y-96680*
X437310*
X438700D02*
G01X439630Y-96060D01*
X440400Y-95010*
X440710Y-93760*
X440400Y-92510*
X439630Y-91470*
X438230Y-90840*
X436840Y-91050*
X435450Y-91880*
X450010Y-103780D02*
G01X449710Y-103570D01*
Y-103150*
X450010Y-102940*
X450320Y-103150*
Y-103570*
X450010Y-103780*
X459780Y-101900D02*
G01X460870Y-102940D01*
X462110Y-103360*
X463340Y-102940*
X464430Y-101690*
X465200Y-99810*
X465510Y-97930*
Y-95640*
X465200Y-93760*
X464430Y-92090*
X463500Y-91260*
X462410Y-90840*
X461180Y-91260*
X460250Y-92090*
X459630Y-93340*
X459320Y-95010*
X459630Y-96470*
X460400Y-97930*
X461330Y-98770*
X462410Y-98980*
X463650Y-98560*
X464580Y-97520*
X465510Y-95640*
X424910Y-75250D02*
G01X425210Y-72540D01*
X425680Y-70240*
X426300Y-68160*
X427070Y-65860*
X428310Y-62730*
X422120*
X437610D02*
G01X436380Y-63150D01*
X435450Y-64190*
X434830Y-65440*
X434360Y-67110*
X434210Y-68990*
X434360Y-70870*
X434830Y-72540*
X435450Y-73790*
X436380Y-74830*
X437610Y-75250*
X438850Y-74830*
X439780Y-73790*
X440400Y-72540*
X440870Y-70870*
X441020Y-68990*
X440870Y-67110*
X440400Y-65440*
X439780Y-64190*
X438850Y-63150*
X437610Y-62730*
X450010Y-75670D02*
G01X449710Y-75460D01*
Y-75040*
X450010Y-74830*
X450320Y-75040*
Y-75460*
X450010Y-75670*
X459780Y-73790D02*
G01X460870Y-74830D01*
X462110Y-75250*
X463340Y-74830*
X464430Y-73580*
X465200Y-71700*
X465510Y-69820*
Y-67530*
X465200Y-65650*
X464430Y-63980*
X463500Y-63150*
X462410Y-62730*
X461180Y-63150*
X460250Y-63980*
X459630Y-65230*
X459320Y-66900*
X459630Y-68360*
X460400Y-69820*
X461330Y-70660*
X462410Y-70870*
X463650Y-70450*
X464580Y-69410*
X465510Y-67530*
X427070Y-47140D02*
G01Y-34620D01*
X421340Y-43590*
X429090*
X437610Y-34620D02*
G01X436380Y-35040D01*
X435450Y-36080*
X434830Y-37330*
X434360Y-39000*
X434210Y-40880*
X434360Y-42760*
X434830Y-44430*
X435450Y-45680*
X436380Y-46720*
X437610Y-47140*
X438850Y-46720*
X439780Y-45680*
X440400Y-44430*
X440870Y-42760*
X441020Y-40880*
X440870Y-39000*
X440400Y-37330*
X439780Y-36080*
X438850Y-35040*
X437610Y-34620*
X450010Y-47560D02*
G01X449710Y-47350D01*
Y-46930*
X450010Y-46720*
X450320Y-46930*
Y-47350*
X450010Y-47560*
X459470Y-36710D02*
G01X460400Y-35450D01*
X461490Y-34830*
X462720Y-34620*
X464270Y-35040*
X465360Y-36080*
X465670Y-37330*
X465510Y-38580*
X464890Y-39630*
X461800Y-41710*
X460400Y-43180*
X459470Y-45260*
X459160Y-47140*
X465670*
X427070Y-19030D02*
G01Y-6510D01*
X421340Y-15480*
X429090*
X437610Y-6510D02*
G01X436380Y-6930D01*
X435450Y-7970*
X434830Y-9220*
X434360Y-10890*
X434210Y-12770*
X434360Y-14650*
X434830Y-16320*
X435450Y-17570*
X436380Y-18610*
X437610Y-19030*
X438850Y-18610*
X439780Y-17570*
X440400Y-16320*
X440870Y-14650*
X441020Y-12770*
X440870Y-10890*
X440400Y-9220*
X439780Y-7970*
X438850Y-6930*
X437610Y-6510*
X450010Y-19450D02*
G01X449710Y-19240D01*
Y-18820*
X450010Y-18610*
X450320Y-18820*
Y-19240*
X450010Y-19450*
X462410Y-6510D02*
G01X461180Y-6930D01*
X460250Y-7970*
X459630Y-9220*
X459160Y-10890*
X459010Y-12770*
X459160Y-14650*
X459630Y-16320*
X460250Y-17570*
X461180Y-18610*
X462410Y-19030*
X463650Y-18610*
X464580Y-17570*
X465200Y-16320*
X465670Y-14650*
X465820Y-12770*
X465670Y-10890*
X465200Y-9220*
X464580Y-7970*
X463650Y-6930*
X462410Y-6510*
X421810Y11580D02*
G01X422740Y10120D01*
X423980Y9290*
X425370Y9080*
X426610Y9290*
X427850Y10330*
X428620Y11580*
X428780Y12840*
X428470Y14300*
X427380Y15340*
X426300Y15760*
X424910*
X426300D02*
G01X427230Y16380D01*
X428000Y17430*
X428310Y18680*
X428000Y19930*
X427230Y20970*
X425830Y21600*
X424440Y21390*
X423050Y20560*
X434210Y10960D02*
G01X435140Y9910D01*
X436220Y9290*
X437610Y9080*
X439010Y9500*
X440090Y10330*
X440870Y11790*
X441020Y13460*
X440710Y15130*
X439940Y16170*
X438850Y17010*
X437770Y17220*
X436690Y17010*
X435290Y16170*
X435760Y21600*
X439940*
X450010Y8660D02*
G01X449710Y8870D01*
Y9290*
X450010Y9500*
X450320Y9290*
Y8870*
X450010Y8660*
X462410Y21600D02*
G01X461180Y21180D01*
X460250Y20140*
X459630Y18890*
X459160Y17220*
X459010Y15340*
X459160Y13460*
X459630Y11790*
X460250Y10540*
X461180Y9500*
X462410Y9080*
X463650Y9500*
X464580Y10540*
X465200Y11790*
X465670Y13460*
X465820Y15340*
X465670Y17220*
X465200Y18890*
X464580Y20140*
X463650Y21180*
X462410Y21600*
X421810Y39690D02*
G01X422740Y38230D01*
X423980Y37400*
X425370Y37190*
X426610Y37400*
X427850Y38440*
X428620Y39690*
X428780Y40950*
X428470Y42410*
X427380Y43450*
X426300Y43870*
X424910*
X426300D02*
G01X427230Y44490D01*
X428000Y45540*
X428310Y46790*
X428000Y48040*
X427230Y49080*
X425830Y49710*
X424440Y49500*
X423050Y48670*
X437610Y49710D02*
G01X436380Y49290D01*
X435450Y48250*
X434830Y47000*
X434360Y45330*
X434210Y43450*
X434360Y41570*
X434830Y39900*
X435450Y38650*
X436380Y37610*
X437610Y37190*
X438850Y37610*
X439780Y38650*
X440400Y39900*
X440870Y41570*
X441020Y43450*
X440870Y45330*
X440400Y47000*
X439780Y48250*
X438850Y49290*
X437610Y49710*
X450010Y36770D02*
G01X449710Y36980D01*
Y37400*
X450010Y37610*
X450320Y37400*
Y36980*
X450010Y36770*
X462410Y49710D02*
G01X461180Y49290D01*
X460250Y48250*
X459630Y47000*
X459160Y45330*
X459010Y43450*
X459160Y41570*
X459630Y39900*
X460250Y38650*
X461180Y37610*
X462410Y37190*
X463650Y37610*
X464580Y38650*
X465200Y39900*
X465670Y41570*
X465820Y43450*
X465670Y45330*
X465200Y47000*
X464580Y48250*
X463650Y49290*
X462410Y49710*
X421810Y67800D02*
G01X422740Y66340D01*
X423980Y65510*
X425370Y65300*
X426610Y65510*
X427850Y66550*
X428620Y67800*
X428780Y69060*
X428470Y70520*
X427380Y71560*
X426300Y71980*
X424910*
X426300D02*
G01X427230Y72600D01*
X428000Y73650*
X428310Y74900*
X428000Y76150*
X427230Y77190*
X425830Y77820*
X424440Y77610*
X423050Y76780*
X437610Y77820D02*
G01X436380Y77400D01*
X435450Y76360*
X434830Y75110*
X434360Y73440*
X434210Y71560*
X434360Y69680*
X434830Y68010*
X435450Y66760*
X436380Y65720*
X437610Y65300*
X438850Y65720*
X439780Y66760*
X440400Y68010*
X440870Y69680*
X441020Y71560*
X440870Y73440*
X440400Y75110*
X439780Y76360*
X438850Y77400*
X437610Y77820*
X450010Y64880D02*
G01X449710Y65090D01*
Y65510*
X450010Y65720*
X450320Y65510*
Y65090*
X450010Y64880*
X462410Y77820D02*
G01X461180Y77400D01*
X460250Y76360*
X459630Y75110*
X459160Y73440*
X459010Y71560*
X459160Y69680*
X459630Y68010*
X460250Y66760*
X461180Y65720*
X462410Y65300*
X463650Y65720*
X464580Y66760*
X465200Y68010*
X465670Y69680*
X465820Y71560*
X465670Y73440*
X465200Y75110*
X464580Y76360*
X463650Y77400*
X462410Y77820*
X422270Y103840D02*
G01X423200Y105100D01*
X424290Y105720*
X425520Y105930*
X427070Y105510*
X428160Y104470*
X428470Y103220*
X428310Y101970*
X427690Y100920*
X424600Y98840*
X423200Y97370*
X422270Y95290*
X421960Y93410*
X428470*
X437610Y105930D02*
G01X436380Y105510D01*
X435450Y104470*
X434830Y103220*
X434360Y101550*
X434210Y99670*
X434360Y97790*
X434830Y96120*
X435450Y94870*
X436380Y93830*
X437610Y93410*
X438850Y93830*
X439780Y94870*
X440400Y96120*
X440870Y97790*
X441020Y99670*
X440870Y101550*
X440400Y103220*
X439780Y104470*
X438850Y105510*
X437610Y105930*
X450010Y92990D02*
G01X449710Y93200D01*
Y93620*
X450010Y93830*
X450320Y93620*
Y93200*
X450010Y92990*
X462410Y105930D02*
G01X461180Y105510D01*
X460250Y104470*
X459630Y103220*
X459160Y101550*
X459010Y99670*
X459160Y97790*
X459630Y96120*
X460250Y94870*
X461180Y93830*
X462410Y93410*
X463650Y93830*
X464580Y94870*
X465200Y96120*
X465670Y97790*
X465820Y99670*
X465670Y101550*
X465200Y103220*
X464580Y104470*
X463650Y105510*
X462410Y105930*
X425210Y121520D02*
G01Y134040D01*
X423360Y131540*
Y121520D02*
G01X427070D01*
X437610Y134040D02*
G01X436380Y133620D01*
X435450Y132580*
X434830Y131330*
X434360Y129660*
X434210Y127780*
X434360Y125900*
X434830Y124230*
X435450Y122980*
X436380Y121940*
X437610Y121520*
X438850Y121940*
X439780Y122980*
X440400Y124230*
X440870Y125900*
X441020Y127780*
X440870Y129660*
X440400Y131330*
X439780Y132580*
X438850Y133620*
X437610Y134040*
X450010Y121100D02*
G01X449710Y121310D01*
Y121730*
X450010Y121940*
X450320Y121730*
Y121310*
X450010Y121100*
X462410Y134040D02*
G01X461180Y133620D01*
X460250Y132580*
X459630Y131330*
X459160Y129660*
X459010Y127780*
X459160Y125900*
X459630Y124230*
X460250Y122980*
X461180Y121940*
X462410Y121520*
X463650Y121940*
X464580Y122980*
X465200Y124230*
X465670Y125900*
X465820Y127780*
X465670Y129660*
X465200Y131330*
X464580Y132580*
X463650Y133620*
X462410Y134040*
X421960Y152830D02*
G01X423200Y151790D01*
X424600Y151160*
X425830*
X427070Y151790*
X428000Y152830*
X428470Y154290*
X428160Y155750*
X427380Y157000*
X425990Y157840*
X424130Y158250*
X423050Y159090*
X422580Y160550*
X422890Y162010*
X423670Y163050*
X424750Y163680*
X425830*
X426920Y163260*
X427850Y162220*
X435760Y163680D02*
G01X439470D01*
X437610D02*
G01Y151160D01*
X435760D02*
G01X439470D01*
X447070Y163680D02*
G01X452960D01*
X447070Y151160*
X452960*
X465510D02*
G01X459320D01*
Y163680*
X465510*
X463030Y157630D02*
G01X459320D01*
X538370Y169940D02*
G01Y-336040D01*
X542560Y-243910D02*
G01Y-231390D01*
X549690Y-243910*
Y-231390*
X558520Y-243910D02*
G01X557290Y-243700D01*
X556200Y-242870*
X555270Y-241610*
X554650Y-240150*
X554340Y-238480*
Y-236820*
X554650Y-235150*
X555270Y-233690*
X556200Y-232430*
X557290Y-231600*
X558520Y-231390*
X559760Y-231600*
X560850Y-232430*
X561780Y-233690*
X562400Y-235150*
X562710Y-236820*
Y-238480*
X562400Y-240150*
X561780Y-241610*
X560850Y-242870*
X559760Y-243700*
X558520Y-243910*
X567360D02*
G01Y-231390D01*
X574490Y-243910*
Y-231390*
X581310Y-239740D02*
G01X585340D01*
X592630Y-243910D02*
G01Y-231390D01*
X596340*
X597580Y-232020*
X598510Y-233480*
X598820Y-235150*
X598510Y-236820*
X597740Y-238070*
X596340Y-238690*
X592630*
X605030Y-231390D02*
G01Y-243910D01*
X611220*
X616650D02*
G01X620520Y-231390D01*
X624400Y-243910*
X623000Y-239530D02*
G01X618050D01*
X632920Y-231390D02*
G01Y-243910D01*
X629360Y-231390D02*
G01X636490D01*
X648420Y-243910D02*
G01X642230D01*
Y-231390*
X648420*
X645940Y-237440D02*
G01X642230D01*
X654320Y-243910D02*
G01Y-231390D01*
X657420*
X658650Y-232020*
X659580Y-232850*
X660360Y-234100*
X660980Y-235560*
X661130Y-237650*
X660980Y-239740*
X660360Y-241200*
X659580Y-242450*
X658650Y-243280*
X657420Y-243910*
X654320*
X542560Y-215800D02*
G01Y-203280D01*
X549690Y-215800*
Y-203280*
X558520Y-215800D02*
G01X557290Y-215590D01*
X556200Y-214760*
X555270Y-213500*
X554650Y-212040*
X554340Y-210370*
Y-208710*
X554650Y-207040*
X555270Y-205580*
X556200Y-204320*
X557290Y-203490*
X558520Y-203280*
X559760Y-203490*
X560850Y-204320*
X561780Y-205580*
X562400Y-207040*
X562710Y-208710*
Y-210370*
X562400Y-212040*
X561780Y-213500*
X560850Y-214760*
X559760Y-215590*
X558520Y-215800*
X567360D02*
G01Y-203280D01*
X574490Y-215800*
Y-203280*
X581310Y-211630D02*
G01X585340D01*
X592630Y-215800D02*
G01Y-203280D01*
X596340*
X597580Y-203910*
X598510Y-205370*
X598820Y-207040*
X598510Y-208710*
X597740Y-209960*
X596340Y-210580*
X592630*
X605030Y-203280D02*
G01Y-215800D01*
X611220*
X616650D02*
G01X620520Y-203280D01*
X624400Y-215800*
X623000Y-211420D02*
G01X618050D01*
X632920Y-203280D02*
G01Y-215800D01*
X629360Y-203280D02*
G01X636490D01*
X648420Y-215800D02*
G01X642230D01*
Y-203280*
X648420*
X645940Y-209330D02*
G01X642230D01*
X654320Y-215800D02*
G01Y-203280D01*
X657420*
X658650Y-203910*
X659580Y-204740*
X660360Y-205990*
X660980Y-207450*
X661130Y-209540*
X660980Y-211630*
X660360Y-213090*
X659580Y-214340*
X658650Y-215170*
X657420Y-215800*
X654320*
X542560Y-187690D02*
G01Y-175170D01*
X549690Y-187690*
Y-175170*
X558520Y-187690D02*
G01X557290Y-187480D01*
X556200Y-186650*
X555270Y-185390*
X554650Y-183930*
X554340Y-182260*
Y-180600*
X554650Y-178930*
X555270Y-177470*
X556200Y-176210*
X557290Y-175380*
X558520Y-175170*
X559760Y-175380*
X560850Y-176210*
X561780Y-177470*
X562400Y-178930*
X562710Y-180600*
Y-182260*
X562400Y-183930*
X561780Y-185390*
X560850Y-186650*
X559760Y-187480*
X558520Y-187690*
X567360D02*
G01Y-175170D01*
X574490Y-187690*
Y-175170*
X581310Y-183520D02*
G01X585340D01*
X592630Y-187690D02*
G01Y-175170D01*
X596340*
X597580Y-175800*
X598510Y-177260*
X598820Y-178930*
X598510Y-180600*
X597740Y-181850*
X596340Y-182470*
X592630*
X605030Y-175170D02*
G01Y-187690D01*
X611220*
X616650D02*
G01X620520Y-175170D01*
X624400Y-187690*
X623000Y-183310D02*
G01X618050D01*
X632920Y-175170D02*
G01Y-187690D01*
X629360Y-175170D02*
G01X636490D01*
X648420Y-187690D02*
G01X642230D01*
Y-175170*
X648420*
X645940Y-181220D02*
G01X642230D01*
X654320Y-187690D02*
G01Y-175170D01*
X657420*
X658650Y-175800*
X659580Y-176630*
X660360Y-177880*
X660980Y-179340*
X661130Y-181430*
X660980Y-183520*
X660360Y-184980*
X659580Y-186230*
X658650Y-187060*
X657420Y-187690*
X654320*
X542560Y-159580D02*
G01Y-147060D01*
X549690Y-159580*
Y-147060*
X558520Y-159580D02*
G01X557290Y-159370D01*
X556200Y-158540*
X555270Y-157280*
X554650Y-155820*
X554340Y-154150*
Y-152490*
X554650Y-150820*
X555270Y-149360*
X556200Y-148100*
X557290Y-147270*
X558520Y-147060*
X559760Y-147270*
X560850Y-148100*
X561780Y-149360*
X562400Y-150820*
X562710Y-152490*
Y-154150*
X562400Y-155820*
X561780Y-157280*
X560850Y-158540*
X559760Y-159370*
X558520Y-159580*
X567360D02*
G01Y-147060D01*
X574490Y-159580*
Y-147060*
X581310Y-155410D02*
G01X585340D01*
X592630Y-159580D02*
G01Y-147060D01*
X596340*
X597580Y-147690*
X598510Y-149150*
X598820Y-150820*
X598510Y-152490*
X597740Y-153740*
X596340Y-154360*
X592630*
X605030Y-147060D02*
G01Y-159580D01*
X611220*
X616650D02*
G01X620520Y-147060D01*
X624400Y-159580*
X623000Y-155200D02*
G01X618050D01*
X632920Y-147060D02*
G01Y-159580D01*
X629360Y-147060D02*
G01X636490D01*
X648420Y-159580D02*
G01X642230D01*
Y-147060*
X648420*
X645940Y-153110D02*
G01X642230D01*
X654320Y-159580D02*
G01Y-147060D01*
X657420*
X658650Y-147690*
X659580Y-148520*
X660360Y-149770*
X660980Y-151230*
X661130Y-153320*
X660980Y-155410*
X660360Y-156870*
X659580Y-158120*
X658650Y-158950*
X657420Y-159580*
X654320*
X567830Y-328240D02*
G01Y-315720D01*
X571540*
X572780Y-316350*
X573710Y-317810*
X574020Y-319480*
X573710Y-321150*
X572940Y-322400*
X571540Y-323020*
X567830*
X580230Y-315720D02*
G01Y-328240D01*
X586420*
X591850D02*
G01X595720Y-315720D01*
X599600Y-328240*
X598200Y-323860D02*
G01X593250D01*
X608120Y-315720D02*
G01Y-328240D01*
X604560Y-315720D02*
G01X611690D01*
X623620Y-328240D02*
G01X617430D01*
Y-315720*
X623620*
X621140Y-321770D02*
G01X617430D01*
X629520Y-328240D02*
G01Y-315720D01*
X632620*
X633850Y-316350*
X634780Y-317180*
X635560Y-318430*
X636180Y-319890*
X636330Y-321980*
X636180Y-324070*
X635560Y-325530*
X634780Y-326780*
X633850Y-327610*
X632620Y-328240*
X629520*
X567830Y-300130D02*
G01Y-287610D01*
X571540*
X572780Y-288240*
X573710Y-289700*
X574020Y-291370*
X573710Y-293040*
X572940Y-294290*
X571540Y-294910*
X567830*
X580230Y-287610D02*
G01Y-300130D01*
X586420*
X591850D02*
G01X595720Y-287610D01*
X599600Y-300130*
X598200Y-295750D02*
G01X593250D01*
X608120Y-287610D02*
G01Y-300130D01*
X604560Y-287610D02*
G01X611690D01*
X623620Y-300130D02*
G01X617430D01*
Y-287610*
X623620*
X621140Y-293660D02*
G01X617430D01*
X629520Y-300130D02*
G01Y-287610D01*
X632620*
X633850Y-288240*
X634780Y-289070*
X635560Y-290320*
X636180Y-291780*
X636330Y-293870*
X636180Y-295960*
X635560Y-297420*
X634780Y-298670*
X633850Y-299500*
X632620Y-300130*
X629520*
X567830Y-272020D02*
G01Y-259500D01*
X571540*
X572780Y-260130*
X573710Y-261590*
X574020Y-263260*
X573710Y-264930*
X572940Y-266180*
X571540Y-266800*
X567830*
X580230Y-259500D02*
G01Y-272020D01*
X586420*
X591850D02*
G01X595720Y-259500D01*
X599600Y-272020*
X598200Y-267640D02*
G01X593250D01*
X608120Y-259500D02*
G01Y-272020D01*
X604560Y-259500D02*
G01X611690D01*
X623620Y-272020D02*
G01X617430D01*
Y-259500*
X623620*
X621140Y-265550D02*
G01X617430D01*
X629520Y-272020D02*
G01Y-259500D01*
X632620*
X633850Y-260130*
X634780Y-260960*
X635560Y-262210*
X636180Y-263670*
X636330Y-265760*
X636180Y-267850*
X635560Y-269310*
X634780Y-270560*
X633850Y-271390*
X632620Y-272020*
X629520*
X567830Y-131470D02*
G01Y-118950D01*
X571540*
X572780Y-119580*
X573710Y-121040*
X574020Y-122710*
X573710Y-124380*
X572940Y-125630*
X571540Y-126250*
X567830*
X580230Y-118950D02*
G01Y-131470D01*
X586420*
X591850D02*
G01X595720Y-118950D01*
X599600Y-131470*
X598200Y-127090D02*
G01X593250D01*
X608120Y-118950D02*
G01Y-131470D01*
X604560Y-118950D02*
G01X611690D01*
X623620Y-131470D02*
G01X617430D01*
Y-118950*
X623620*
X621140Y-125000D02*
G01X617430D01*
X629520Y-131470D02*
G01Y-118950D01*
X632620*
X633850Y-119580*
X634780Y-120410*
X635560Y-121660*
X636180Y-123120*
X636330Y-125210*
X636180Y-127300*
X635560Y-128760*
X634780Y-130010*
X633850Y-130840*
X632620Y-131470*
X629520*
X567830Y-103360D02*
G01Y-90840D01*
X571540*
X572780Y-91470*
X573710Y-92930*
X574020Y-94600*
X573710Y-96270*
X572940Y-97520*
X571540Y-98140*
X567830*
X580230Y-90840D02*
G01Y-103360D01*
X586420*
X591850D02*
G01X595720Y-90840D01*
X599600Y-103360*
X598200Y-98980D02*
G01X593250D01*
X608120Y-90840D02*
G01Y-103360D01*
X604560Y-90840D02*
G01X611690D01*
X623620Y-103360D02*
G01X617430D01*
Y-90840*
X623620*
X621140Y-96890D02*
G01X617430D01*
X629520Y-103360D02*
G01Y-90840D01*
X632620*
X633850Y-91470*
X634780Y-92300*
X635560Y-93550*
X636180Y-95010*
X636330Y-97100*
X636180Y-99190*
X635560Y-100650*
X634780Y-101900*
X633850Y-102730*
X632620Y-103360*
X629520*
X567830Y-75250D02*
G01Y-62730D01*
X571540*
X572780Y-63360*
X573710Y-64820*
X574020Y-66490*
X573710Y-68160*
X572940Y-69410*
X571540Y-70030*
X567830*
X580230Y-62730D02*
G01Y-75250D01*
X586420*
X591850D02*
G01X595720Y-62730D01*
X599600Y-75250*
X598200Y-70870D02*
G01X593250D01*
X608120Y-62730D02*
G01Y-75250D01*
X604560Y-62730D02*
G01X611690D01*
X623620Y-75250D02*
G01X617430D01*
Y-62730*
X623620*
X621140Y-68780D02*
G01X617430D01*
X629520Y-75250D02*
G01Y-62730D01*
X632620*
X633850Y-63360*
X634780Y-64190*
X635560Y-65440*
X636180Y-66900*
X636330Y-68990*
X636180Y-71080*
X635560Y-72540*
X634780Y-73790*
X633850Y-74620*
X632620Y-75250*
X629520*
X567830Y-47140D02*
G01Y-34620D01*
X571540*
X572780Y-35250*
X573710Y-36710*
X574020Y-38380*
X573710Y-40050*
X572940Y-41300*
X571540Y-41920*
X567830*
X580230Y-34620D02*
G01Y-47140D01*
X586420*
X591850D02*
G01X595720Y-34620D01*
X599600Y-47140*
X598200Y-42760D02*
G01X593250D01*
X608120Y-34620D02*
G01Y-47140D01*
X604560Y-34620D02*
G01X611690D01*
X623620Y-47140D02*
G01X617430D01*
Y-34620*
X623620*
X621140Y-40670D02*
G01X617430D01*
X629520Y-47140D02*
G01Y-34620D01*
X632620*
X633850Y-35250*
X634780Y-36080*
X635560Y-37330*
X636180Y-38790*
X636330Y-40880*
X636180Y-42970*
X635560Y-44430*
X634780Y-45680*
X633850Y-46510*
X632620Y-47140*
X629520*
X567830Y-19030D02*
G01Y-6510D01*
X571540*
X572780Y-7140*
X573710Y-8600*
X574020Y-10270*
X573710Y-11940*
X572940Y-13190*
X571540Y-13810*
X567830*
X580230Y-6510D02*
G01Y-19030D01*
X586420*
X591850D02*
G01X595720Y-6510D01*
X599600Y-19030*
X598200Y-14650D02*
G01X593250D01*
X608120Y-6510D02*
G01Y-19030D01*
X604560Y-6510D02*
G01X611690D01*
X623620Y-19030D02*
G01X617430D01*
Y-6510*
X623620*
X621140Y-12560D02*
G01X617430D01*
X629520Y-19030D02*
G01Y-6510D01*
X632620*
X633850Y-7140*
X634780Y-7970*
X635560Y-9220*
X636180Y-10680*
X636330Y-12770*
X636180Y-14860*
X635560Y-16320*
X634780Y-17570*
X633850Y-18400*
X632620Y-19030*
X629520*
X567830Y9080D02*
G01Y21600D01*
X571540*
X572780Y20970*
X573710Y19510*
X574020Y17840*
X573710Y16170*
X572940Y14920*
X571540Y14300*
X567830*
X580230Y21600D02*
G01Y9080D01*
X586420*
X591850D02*
G01X595720Y21600D01*
X599600Y9080*
X598200Y13460D02*
G01X593250D01*
X608120Y21600D02*
G01Y9080D01*
X604560Y21600D02*
G01X611690D01*
X623620Y9080D02*
G01X617430D01*
Y21600*
X623620*
X621140Y15550D02*
G01X617430D01*
X629520Y9080D02*
G01Y21600D01*
X632620*
X633850Y20970*
X634780Y20140*
X635560Y18890*
X636180Y17430*
X636330Y15340*
X636180Y13250*
X635560Y11790*
X634780Y10540*
X633850Y9710*
X632620Y9080*
X629520*
X567830Y37190D02*
G01Y49710D01*
X571540*
X572780Y49080*
X573710Y47620*
X574020Y45950*
X573710Y44280*
X572940Y43030*
X571540Y42410*
X567830*
X580230Y49710D02*
G01Y37190D01*
X586420*
X591850D02*
G01X595720Y49710D01*
X599600Y37190*
X598200Y41570D02*
G01X593250D01*
X608120Y49710D02*
G01Y37190D01*
X604560Y49710D02*
G01X611690D01*
X623620Y37190D02*
G01X617430D01*
Y49710*
X623620*
X621140Y43660D02*
G01X617430D01*
X629520Y37190D02*
G01Y49710D01*
X632620*
X633850Y49080*
X634780Y48250*
X635560Y47000*
X636180Y45540*
X636330Y43450*
X636180Y41360*
X635560Y39900*
X634780Y38650*
X633850Y37820*
X632620Y37190*
X629520*
X567830Y65300D02*
G01Y77820D01*
X571540*
X572780Y77190*
X573710Y75730*
X574020Y74060*
X573710Y72390*
X572940Y71140*
X571540Y70520*
X567830*
X580230Y77820D02*
G01Y65300D01*
X586420*
X591850D02*
G01X595720Y77820D01*
X599600Y65300*
X598200Y69680D02*
G01X593250D01*
X608120Y77820D02*
G01Y65300D01*
X604560Y77820D02*
G01X611690D01*
X623620Y65300D02*
G01X617430D01*
Y77820*
X623620*
X621140Y71770D02*
G01X617430D01*
X629520Y65300D02*
G01Y77820D01*
X632620*
X633850Y77190*
X634780Y76360*
X635560Y75110*
X636180Y73650*
X636330Y71560*
X636180Y69470*
X635560Y68010*
X634780Y66760*
X633850Y65930*
X632620Y65300*
X629520*
X567830Y93410D02*
G01Y105930D01*
X571540*
X572780Y105300*
X573710Y103840*
X574020Y102170*
X573710Y100500*
X572940Y99250*
X571540Y98630*
X567830*
X580230Y105930D02*
G01Y93410D01*
X586420*
X591850D02*
G01X595720Y105930D01*
X599600Y93410*
X598200Y97790D02*
G01X593250D01*
X608120Y105930D02*
G01Y93410D01*
X604560Y105930D02*
G01X611690D01*
X623620Y93410D02*
G01X617430D01*
Y105930*
X623620*
X621140Y99880D02*
G01X617430D01*
X629520Y93410D02*
G01Y105930D01*
X632620*
X633850Y105300*
X634780Y104470*
X635560Y103220*
X636180Y101760*
X636330Y99670*
X636180Y97580*
X635560Y96120*
X634780Y94870*
X633850Y94040*
X632620Y93410*
X629520*
X567830Y121520D02*
G01Y134040D01*
X571540*
X572780Y133410*
X573710Y131950*
X574020Y130280*
X573710Y128610*
X572940Y127360*
X571540Y126740*
X567830*
X580230Y134040D02*
G01Y121520D01*
X586420*
X591850D02*
G01X595720Y134040D01*
X599600Y121520*
X598200Y125900D02*
G01X593250D01*
X608120Y134040D02*
G01Y121520D01*
X604560Y134040D02*
G01X611690D01*
X623620Y121520D02*
G01X617430D01*
Y134040*
X623620*
X621140Y127990D02*
G01X617430D01*
X629520Y121520D02*
G01Y134040D01*
X632620*
X633850Y133410*
X634780Y132580*
X635560Y131330*
X636180Y129870*
X636330Y127780*
X636180Y125690*
X635560Y124230*
X634780Y122980*
X633850Y122150*
X632620Y121520*
X629520*
X567830Y151160D02*
G01Y163680D01*
X571540*
X572780Y163050*
X573710Y161590*
X574020Y159920*
X573710Y158250*
X572940Y157000*
X571540Y156380*
X567830*
X580230Y163680D02*
G01Y151160D01*
X586420*
X591850D02*
G01X595720Y163680D01*
X599600Y151160*
X598200Y155540D02*
G01X593250D01*
X608120Y163680D02*
G01Y151160D01*
X604560Y163680D02*
G01X611690D01*
X623620Y151160D02*
G01X617430D01*
Y163680*
X623620*
X621140Y157630D02*
G01X617430D01*
X629520Y151160D02*
G01Y163680D01*
X632620*
X633850Y163050*
X634780Y162220*
X635560Y160970*
X636180Y159510*
X636330Y157420*
X636180Y155330*
X635560Y153870*
X634780Y152620*
X633850Y151790*
X632620Y151160*
X629520*
X665480Y169940D02*
G01Y-336040D01*
X704230Y-328240D02*
G01Y-315720D01*
X702380Y-318220*
Y-328240D02*
G01X706090D01*
X704230Y-300130D02*
G01Y-287610D01*
X702380Y-290110*
Y-300130D02*
G01X706090D01*
X698030Y-272020D02*
G01Y-259500D01*
X696180Y-262000*
Y-272020D02*
G01X699890D01*
X710430Y-259500D02*
G01X709200Y-259920D01*
X708270Y-260960*
X707650Y-262210*
X707180Y-263880*
X707030Y-265760*
X707180Y-267640*
X707650Y-269310*
X708270Y-270560*
X709200Y-271600*
X710430Y-272020*
X711670Y-271600*
X712600Y-270560*
X713220Y-269310*
X713690Y-267640*
X713840Y-265760*
X713690Y-263880*
X713220Y-262210*
X712600Y-260960*
X711670Y-259920*
X710430Y-259500*
X701290Y-233480D02*
G01X702220Y-232220D01*
X703310Y-231600*
X704540Y-231390*
X706090Y-231810*
X707180Y-232850*
X707490Y-234100*
X707330Y-235350*
X706710Y-236400*
X703620Y-238480*
X702220Y-239950*
X701290Y-242030*
X700980Y-243910*
X707490*
X706090Y-215800D02*
G01Y-203280D01*
X700360Y-212250*
X708110*
X706090Y-187690D02*
G01Y-175170D01*
X700360Y-184140*
X708110*
X701290Y-149150D02*
G01X702220Y-147890D01*
X703310Y-147270*
X704540Y-147060*
X706090Y-147480*
X707180Y-148520*
X707490Y-149770*
X707330Y-151020*
X706710Y-152070*
X703620Y-154150*
X702220Y-155620*
X701290Y-157700*
X700980Y-159580*
X707490*
X700830Y-128970D02*
G01X701760Y-130430D01*
X703000Y-131260*
X704390Y-131470*
X705630Y-131260*
X706870Y-130220*
X707640Y-128970*
X707800Y-127710*
X707490Y-126250*
X706400Y-125210*
X705320Y-124790*
X703930*
X705320D02*
G01X706250Y-124170D01*
X707020Y-123120*
X707330Y-121870*
X707020Y-120620*
X706250Y-119580*
X704850Y-118950*
X703460Y-119160*
X702070Y-119990*
X701290Y-92930D02*
G01X702220Y-91670D01*
X703310Y-91050*
X704540Y-90840*
X706090Y-91260*
X707180Y-92300*
X707490Y-93550*
X707330Y-94800*
X706710Y-95850*
X703620Y-97930*
X702220Y-99400*
X701290Y-101480*
X700980Y-103360*
X707490*
X701290Y-64820D02*
G01X702220Y-63560D01*
X703310Y-62940*
X704540Y-62730*
X706090Y-63150*
X707180Y-64190*
X707490Y-65440*
X707330Y-66690*
X706710Y-67740*
X703620Y-69820*
X702220Y-71290*
X701290Y-73370*
X700980Y-75250*
X707490*
X694630Y-45260D02*
G01X695560Y-46310D01*
X696640Y-46930*
X698030Y-47140*
X699430Y-46720*
X700510Y-45890*
X701290Y-44430*
X701440Y-42760*
X701130Y-41090*
X700360Y-40050*
X699270Y-39210*
X698190Y-39000*
X697110Y-39210*
X695710Y-40050*
X696180Y-34620*
X700360*
X712290Y-47140D02*
G01Y-34620D01*
X706560Y-43590*
X714310*
X695090Y-13810D02*
G01X696180Y-12350D01*
X697110Y-11520*
X698340Y-11100*
X699430Y-11520*
X700200Y-12350*
X700820Y-13600*
X700980Y-15070*
X700820Y-16320*
X700200Y-17570*
X699270Y-18610*
X698190Y-19030*
X696950Y-18610*
X695870Y-17360*
X695250Y-15480*
X695090Y-13400*
X695400Y-10680*
X695870Y-9220*
X696640Y-7760*
X697730Y-6720*
X698810Y-6510*
X699890Y-6930*
X700670Y-7970*
X710130Y-19030D02*
G01X710430Y-16320D01*
X710900Y-14020*
X711520Y-11940*
X712290Y-9640*
X713530Y-6510*
X707340*
X700830Y10960D02*
G01X701760Y9910D01*
X702840Y9290*
X704230Y9080*
X705630Y9500*
X706710Y10330*
X707490Y11790*
X707640Y13460*
X707330Y15130*
X706560Y16170*
X705470Y17010*
X704390Y17220*
X703310Y17010*
X701910Y16170*
X702380Y21600*
X706560*
X701290Y47620D02*
G01X702220Y48880D01*
X703310Y49500*
X704540Y49710*
X706090Y49290*
X707180Y48250*
X707490Y47000*
X707330Y45750*
X706710Y44700*
X703620Y42620*
X702220Y41150*
X701290Y39070*
X700980Y37190*
X707490*
X701290Y70520D02*
G01X702380Y71980D01*
X703310Y72810*
X704540Y73230*
X705630Y72810*
X706400Y71980*
X707020Y70730*
X707180Y69260*
X707020Y68010*
X706400Y66760*
X705470Y65720*
X704390Y65300*
X703150Y65720*
X702070Y66970*
X701450Y68850*
X701290Y70930*
X701600Y73650*
X702070Y75110*
X702840Y76570*
X703930Y77610*
X705010Y77820*
X706090Y77400*
X706870Y76360*
X691830Y93410D02*
G01Y105930D01*
X689980Y103430*
Y93410D02*
G01X693690D01*
X701290Y103840D02*
G01X702220Y105100D01*
X703310Y105720*
X704540Y105930*
X706090Y105510*
X707180Y104470*
X707490Y103220*
X707330Y101970*
X706710Y100920*
X703620Y98840*
X702220Y97370*
X701290Y95290*
X700980Y93410*
X707490*
X716630D02*
G01Y105930D01*
X714780Y103430*
Y93410D02*
G01X718490D01*
X688890Y131950D02*
G01X689820Y133210D01*
X690910Y133830*
X692140Y134040*
X693690Y133620*
X694780Y132580*
X695090Y131330*
X694930Y130080*
X694310Y129030*
X691220Y126950*
X689820Y125480*
X688890Y123400*
X688580Y121520*
X695090*
X704230D02*
G01X705320Y121730D01*
X706560Y122350*
X707330Y123400*
X707640Y124860*
X707330Y126320*
X706400Y127570*
X705010Y128200*
X703460*
X702530Y128610*
X701760Y129660*
X701450Y131120*
X701910Y132580*
X703000Y133620*
X704230Y134040*
X705470Y133620*
X706560Y132580*
X707020Y131120*
X706710Y129660*
X705940Y128610*
X705010Y128200*
X703460*
X702070Y127570*
X701140Y126320*
X700830Y124860*
X701140Y123400*
X701910Y122350*
X703150Y121730*
X704230Y121520*
X716630D02*
G01X717720Y121730D01*
X718960Y122350*
X719730Y123400*
X720040Y124860*
X719730Y126320*
X718800Y127570*
X717410Y128200*
X715860*
X714930Y128610*
X714160Y129660*
X713850Y131120*
X714310Y132580*
X715400Y133620*
X716630Y134040*
X717870Y133620*
X718960Y132580*
X719420Y131120*
X719110Y129660*
X718340Y128610*
X717410Y128200*
X715860*
X714470Y127570*
X713540Y126320*
X713230Y124860*
X713540Y123400*
X714310Y122350*
X715550Y121730*
X716630Y121520*
X691830Y151160D02*
G01X690600Y151370D01*
X689510Y152200*
X688580Y153460*
X687960Y154920*
X687650Y156590*
Y158250*
X687960Y159920*
X688580Y161380*
X689510Y162640*
X690600Y163470*
X691830Y163680*
X693070Y163470*
X694160Y162640*
X695090Y161380*
X695710Y159920*
X696020Y158250*
Y156590*
X695710Y154920*
X695090Y153460*
X694160Y152200*
X693070Y151370*
X691830Y151160*
X693070Y154500D02*
G01X694930Y151160D01*
X704230Y163680D02*
G01Y151160D01*
X700670Y163680D02*
G01X707800D01*
X716630Y151160D02*
G01Y156790D01*
X713540Y163680*
X719730D02*
G01X716630Y156790D01*
M02*
