G04 ================== begin FILE IDENTIFICATION RECORD ==================*
G04 Layout Name:  F:/prj/I.MX/I.MX233/idmx2-13-07/pcb/idmx1307pcb_46-0-49-152.brd*
G04 Film Name:    PastmaskTop*
G04 File Format:  Gerber RS274X*
G04 File Origin:  15.5-p006*
G04 Origin Date:  Thu Mar 06 11:04:17 2014*
G04 ================== end FILE IDENTIFICATION RECORD ====================*
%FSLAX55Y55*MOIN*%
%IR0*IPPOS*OFA0.00000B0.00000*MIA0B0*SFA1.00000B1.00000*%
%ADD19O,.126X.0374*%
%ADD30R,.1024X.0709*%
%ADD11R,.126X.0374*%
%ADD42O,.0087X.0472*%
%ADD12R,.126X.0984*%
%ADD39O,.0472X.0087*%
%ADD33O,.0079X.0472*%
%ADD32O,.0472X.0079*%
%ADD45R,.0087X.0472*%
%ADD21R,.1181X.0787*%
%ADD29R,.2087X.0787*%
%ADD47R,.0787X.2087*%
%ADD14R,.1969X.0394*%
%ADD15O,.066X.02*%
%ADD17R,.066X.02*%
%ADD18R,.1181X.126*%
%ADD40O,.0512X.0157*%
%ADD25R,.0512X.0472*%
%ADD44R,.0512X.0157*%
%ADD28O,.0118X.0591*%
%ADD13R,.0472X.0512*%
%ADD26O,.0591X.0118*%
%ADD16R,.0236X.0236*%
%ADD36R,.0118X.0591*%
%ADD35R,.0472X.0354*%
%ADD27R,.059X.028*%
%ADD31R,.0591X.0118*%
%ADD43R,.0551X.0394*%
%ADD46R,.0866X.0512*%
%ADD34R,.0394X.0551*%
%ADD41R,.0256X.0709*%
%ADD38R,.0512X.0866*%
%ADD20R,.0709X.0472*%
%ADD22R,.0472X.0709*%
%ADD10R,.0394X.0394*%
%ADD23R,.0394X.0394*%
%ADD24O,.0177X.0787*%
%ADD37R,.0787X.0571*%
%ADD48C,.01*%
G75*
%LPD*%
G75*
G54D10*
X-171950Y-46960D03*
Y-54840D03*
X-169240Y41820D03*
X-162980Y36080D03*
Y28200D03*
X-162830Y42290D03*
X-169240Y49700D03*
X-162830Y50170D03*
X-157920Y161390D03*
Y153510D03*
X-141070Y161340D03*
Y153460D03*
X-146630D03*
Y161340D03*
X-152330Y153460D03*
Y161340D03*
X-121160Y27240D03*
X-121030Y41940D03*
X-121160Y35120D03*
X-121030Y49820D03*
X-124530Y120150D03*
Y128030D03*
X-131110Y161700D03*
Y153820D03*
X-123140Y153730D03*
Y161610D03*
X-106880Y45280D03*
Y37400D03*
X-9770Y-45160D03*
Y-53040D03*
X-6850Y148140D03*
Y140260D03*
X-8110Y178860D03*
Y186740D03*
X9880Y179160D03*
Y187040D03*
X31330Y148690D03*
Y140810D03*
X55720Y148840D03*
Y140960D03*
X71060Y148640D03*
Y140760D03*
X80480Y148290D03*
Y140410D03*
X105020Y-24330D03*
Y-16450D03*
X100320Y20060D03*
Y27940D03*
X106150Y20050D03*
Y27930D03*
X100930Y108470D03*
Y116350D03*
X111370Y-24430D03*
Y-16550D03*
X115080Y20360D03*
Y28240D03*
X110420Y95200D03*
Y103080D03*
X142740Y-8440D03*
X135130Y-8000D03*
X128250Y-7870D03*
X142740Y-560D03*
X135130Y-120D03*
X128250Y10D03*
X160850Y-8010D03*
X154250Y-7960D03*
X160850Y-130D03*
X154250Y-80D03*
X156280Y59190D03*
Y67070D03*
X176230Y-33130D03*
Y-25250D03*
X168080Y-8240D03*
Y-360D03*
X167540Y30360D03*
Y38240D03*
X167550Y53820D03*
Y45940D03*
X167620Y62110D03*
Y69990D03*
G54D20*
X-154180Y117010D03*
Y130010D03*
X-124200Y68090D03*
Y81090D03*
X-80000Y177300D03*
Y190300D03*
G54D11*
X-168250Y99480D03*
X-142800Y-29310D03*
G54D21*
X-161010Y185430D03*
X-135410D03*
G54D12*
X-162390Y-32290D03*
Y-15050D03*
G54D30*
X-63060Y190970D03*
X-46140D03*
G54D22*
X-143750Y-12670D03*
X-130750D03*
G54D31*
X-59830Y81110D03*
G54D13*
X-155730Y-1650D03*
X-147070D03*
X-59560Y36220D03*
X-50900D03*
X-32050Y-46060D03*
X-40710D03*
X-47710Y73460D03*
X-39050D03*
X-33040Y191070D03*
X-17820Y146710D03*
X-26480D03*
X-17700Y138810D03*
X-26360D03*
X-24380Y191070D03*
X98430Y2610D03*
X107090D03*
G54D40*
X110470Y110300D03*
Y125300D03*
Y120300D03*
Y115300D03*
X141570D03*
Y120340D03*
Y125340D03*
G54D23*
X-138190Y-1780D03*
X-130310D03*
X-129050Y109940D03*
X-121170D03*
X-116450Y131970D03*
X-108570D03*
X-116650Y137830D03*
X-108770D03*
X-69310Y-53100D03*
X-69290Y-47100D03*
X-76510Y36080D03*
X-68630D03*
X-61430Y-53100D03*
X-61410Y-47100D03*
X-58660Y28680D03*
X-50780D03*
X-40990Y-54630D03*
X-33110D03*
X-44560Y66460D03*
X-36680D03*
X-39840Y85510D03*
X-47720D03*
X-47990Y92700D03*
X-40110D03*
X-42980Y146480D03*
X-35100D03*
X-42980Y139280D03*
X-35100D03*
X-31220Y183140D03*
X-23340D03*
X16810Y-51570D03*
X16890Y-44700D03*
X24690Y-51570D03*
X24770Y-44700D03*
X71800Y75930D03*
X79680D03*
X120660Y-25660D03*
X124250Y93980D03*
X137610Y-25660D03*
X128540D03*
X138310Y7870D03*
X132130Y93980D03*
X145490Y-25660D03*
X156360Y8250D03*
X146190Y7870D03*
X156950Y19130D03*
X164240Y8250D03*
X164830Y19130D03*
G54D41*
X123110Y140160D03*
X127440D03*
X131770D03*
X136100D03*
X140430D03*
X144770D03*
X149100D03*
X153430D03*
X157760D03*
G54D14*
X-156250Y14530D03*
X-124750D03*
G54D32*
X-37650Y8840D03*
Y7260D03*
Y5690D03*
Y4110D03*
Y2540D03*
Y970D03*
Y-610D03*
Y26160D03*
Y24590D03*
Y23010D03*
Y21440D03*
Y19860D03*
Y18290D03*
Y16710D03*
Y15140D03*
Y13560D03*
Y11990D03*
Y10410D03*
Y43490D03*
Y41910D03*
Y40340D03*
Y38760D03*
Y37190D03*
Y35610D03*
Y34040D03*
Y32460D03*
Y30890D03*
Y29310D03*
Y27740D03*
Y48210D03*
Y46630D03*
Y45060D03*
X25350Y-610D03*
Y970D03*
Y2540D03*
Y4110D03*
Y5690D03*
Y7260D03*
Y8840D03*
Y10410D03*
Y11990D03*
Y13560D03*
Y15140D03*
Y16710D03*
Y18290D03*
Y19860D03*
Y21440D03*
Y23010D03*
Y24590D03*
Y26160D03*
Y27740D03*
Y29310D03*
Y30890D03*
Y32460D03*
Y34040D03*
Y35610D03*
Y37190D03*
Y38760D03*
Y40340D03*
Y41910D03*
Y43490D03*
Y45060D03*
Y46630D03*
Y48210D03*
G54D24*
X-153330Y175200D03*
X-150770D03*
X-148210D03*
X-145650D03*
X-143090D03*
G54D15*
X-155030Y40250D03*
Y35250D03*
Y45290D03*
X-130630Y35250D03*
Y40250D03*
Y45290D03*
Y50290D03*
G54D33*
X-30560Y-7700D03*
X-28980D03*
X-27410D03*
X-25840D03*
X-24260D03*
X-22690D03*
X-21110D03*
X-19540D03*
X-17960D03*
X-16390D03*
X-14810D03*
Y55300D03*
X-16390D03*
X-17960D03*
X-19540D03*
X-21110D03*
X-22690D03*
X-24260D03*
X-25840D03*
X-27410D03*
X-28980D03*
X-30560D03*
X-13240Y-7700D03*
X-11660D03*
X-10090D03*
X-8510D03*
X-6940D03*
X-5360D03*
X-3790D03*
X-2210D03*
X-640D03*
X940D03*
X2510D03*
Y55300D03*
X940D03*
X-640D03*
X-2210D03*
X-3790D03*
X-5360D03*
X-6940D03*
X-8510D03*
X-10090D03*
X-11660D03*
X-13240D03*
X4090Y-7700D03*
X5660D03*
X7240D03*
X8810D03*
X10390D03*
X11960D03*
X13540D03*
X15110D03*
X16680D03*
X18260D03*
Y55300D03*
X16680D03*
X15110D03*
X13540D03*
X11960D03*
X10390D03*
X8810D03*
X7240D03*
X5660D03*
X4090D03*
G54D42*
X128580Y22560D03*
X130550D03*
X132520D03*
X134490D03*
X136460D03*
X138430D03*
X140390D03*
X142360D03*
Y58000D03*
X140390D03*
X138430D03*
X136460D03*
X134490D03*
X132520D03*
X130550D03*
X128580D03*
X144330Y22560D03*
X146300D03*
X148270D03*
X150240D03*
X148270Y58000D03*
X146300D03*
X144330D03*
G54D34*
X1070Y-43830D03*
X-2670Y-52490D03*
X4810D03*
G54D43*
X141170Y86210D03*
Y93690D03*
X149830Y89950D03*
G54D16*
X-154520Y57570D03*
X-150180D03*
G54D25*
X-107060Y20600D03*
Y29260D03*
X-17900Y-44850D03*
Y-53510D03*
X114840Y2520D03*
Y11180D03*
G54D35*
X1430Y176270D03*
Y188870D03*
G54D26*
X-108090Y93710D03*
Y90560D03*
Y87410D03*
Y84260D03*
Y81110D03*
Y112610D03*
Y109460D03*
Y106310D03*
Y103160D03*
Y100010D03*
Y96860D03*
X-59830Y84260D03*
Y87410D03*
Y90560D03*
Y93710D03*
Y96860D03*
Y100010D03*
Y103160D03*
Y106310D03*
Y109460D03*
Y112610D03*
G54D44*
X141570Y110300D03*
G54D17*
X-155030Y50290D03*
G54D27*
X-98250Y-28660D03*
Y-13660D03*
Y-18660D03*
Y-23660D03*
X-68250Y-28660D03*
Y-23660D03*
Y-18660D03*
Y-13660D03*
G54D36*
X76170Y132060D03*
G54D18*
X-166410Y75330D03*
X-138070D03*
X-77500Y54020D03*
X-49160D03*
G54D45*
X150240Y58000D03*
G54D37*
X105000Y142130D03*
G54D46*
X186860Y-48530D03*
Y-24910D03*
G54D28*
X-99710Y72730D03*
X-96560D03*
X-93410D03*
X-90260D03*
X-87110D03*
Y120990D03*
X-90260D03*
X-93410D03*
X-96560D03*
X-99710D03*
X-83960Y72730D03*
X-80810D03*
X-77660D03*
X-74510D03*
X-71360D03*
X-68210D03*
Y120990D03*
X-71360D03*
X-74510D03*
X-77660D03*
X-80810D03*
X-83960D03*
X-5710Y85760D03*
X-3160D03*
X-600D03*
X1960D03*
Y132060D03*
X-600D03*
X-3160D03*
X-5710D03*
X4520Y85760D03*
X7080D03*
X9640D03*
X12200D03*
X14760D03*
X17320D03*
X19880D03*
Y132060D03*
X17320D03*
X14760D03*
X12200D03*
X9640D03*
X7080D03*
X4520D03*
X22430Y85760D03*
X24990D03*
X27550D03*
X30110D03*
X32670D03*
X35230D03*
X37790D03*
Y132060D03*
X35230D03*
X32670D03*
X30110D03*
X27550D03*
X24990D03*
X22430D03*
X40350Y85760D03*
X42910D03*
X45470D03*
X48030D03*
X50580D03*
X53140D03*
Y132060D03*
X50580D03*
X48030D03*
X45470D03*
X42910D03*
X40350D03*
X55700Y85760D03*
X58260D03*
X60820D03*
X63380D03*
X65940D03*
X68500D03*
X71060D03*
Y132060D03*
X68500D03*
X65940D03*
X63380D03*
X60820D03*
X58260D03*
X55700D03*
X73620Y85760D03*
X76170D03*
X73620Y132060D03*
G54D19*
X-151710Y99480D03*
X-126260Y-29310D03*
G54D38*
X101460Y179930D03*
X163270Y142130D03*
X162480Y179930D03*
G54D47*
X192030Y42250D03*
G54D29*
X-82780Y148030D03*
X-66550Y5210D03*
G54D48*
G01X-185040Y196850D02*
X185040D01*
G02X196850Y185040I0J-11810D01*
G01Y-86620D01*
G02X185040Y-98430I-11810J0D01*
G01X-185040D01*
G02X-196850Y-86620I0J11810D01*
G01Y185040D01*
G02X-185040Y196850I11810J0D01*
G54D39*
X121690Y43230D03*
Y41260D03*
Y39300D03*
Y37330D03*
Y35360D03*
Y33390D03*
Y31420D03*
Y29450D03*
Y51110D03*
Y49140D03*
Y47170D03*
Y45200D03*
X157130Y29450D03*
Y31420D03*
Y33390D03*
Y35360D03*
Y37330D03*
Y39300D03*
Y41260D03*
Y43230D03*
Y45200D03*
Y47170D03*
Y49140D03*
Y51110D03*
M02*
