G04 CAM350 V9.5.1 (Build 211) Date:  Tue Jun 17 06:58:37 2014 *
G04 Database: E:\a\pegasus.cam *
G04 Layer 8: PastmaskBottom. *
%FSLAX55Y55*%
%MOIN*%
%SFA1.000B1.000*%

%MIA0B0*%
%IPPOS*%
%ADD72C,0.01000*%
%ADD47R,0.12600X0.09840*%
%ADD48R,0.09840X0.25590*%
%ADD49O,0.02000X0.06600*%
%ADD51O,0.01700X0.03600*%
%ADD52R,0.02000X0.06600*%
%ADD53R,0.01700X0.03600*%
%ADD54R,0.05120X0.04720*%
%ADD55R,0.02360X0.02360*%
%ADD56R,0.04720X0.05120*%
%ADD58R,0.03540X0.04720*%
%ADD59R,0.05510X0.03940*%
%ADD60R,0.03940X0.05510*%
%ADD61R,0.07090X0.04720*%
%ADD62R,0.03940X0.03940*%
%LNPastmaskBottom.*%
%LPD*%
G54D48*
X-167320Y63960D03*
X-23620D03*
G54D61*
X-64240Y-77740D03*
Y-90740D03*
G54D47*
X-152050Y157180D03*
Y174420D03*
G54D62*
X-138280Y-8210D03*
Y-16090D03*
X-119720Y26930D03*
Y34810D03*
X-133930Y72750D03*
Y80630D03*
X-130940Y167070D03*
Y174950D03*
X-104100Y62010D03*
Y69890D03*
X-114180Y145330D03*
Y137450D03*
X-89530Y-14270D03*
X-89200Y8810D03*
Y930D03*
X-89530Y-6390D03*
X-68870Y-6850D03*
Y1030D03*
X-69900Y171650D03*
Y179530D03*
X-53550Y-52030D03*
Y-44150D03*
X-60050Y106510D03*
Y114390D03*
X-61060Y171400D03*
Y179280D03*
X-48000Y-52080D03*
Y-44200D03*
X-28270Y-3500D03*
Y4380D03*
X-30000Y23410D03*
Y31290D03*
X13550Y17510D03*
Y25390D03*
X25330Y-710D03*
Y7170D03*
X54630Y-76820D03*
Y-84700D03*
X55680Y-61500D03*
Y-53620D03*
X47750Y89210D03*
Y97090D03*
X98030Y-91390D03*
Y-83510D03*
X96830Y-67190D03*
Y-59310D03*
X110540Y148060D03*
X126000Y148570D03*
X110540Y155940D03*
X126000Y156450D03*
X133280Y148440D03*
X139630Y148640D03*
X133280Y156320D03*
X139630Y156520D03*
X157050Y42660D03*
Y50540D03*
X146530Y148690D03*
X152530Y148440D03*
X146530Y156570D03*
X152530Y156320D03*
X189000Y-4240D03*
Y3640D03*
X181370Y3750D03*
Y-4130D03*
X186070Y113120D03*
X179430Y105180D03*
Y113060D03*
X186070Y121000D03*
G54D56*
X-80170Y8150D03*
X-71510D03*
X-67360Y53550D03*
X-67680Y61750D03*
X-54960Y-58480D03*
X-63620D03*
X-49520Y-8830D03*
X-49690Y-16230D03*
X-53490Y8150D03*
X-62150D03*
X-57730Y34200D03*
X-49070D03*
X-59570Y43800D03*
X-50910D03*
X-58700Y53550D03*
X-59020Y61750D03*
X-46790Y-58470D03*
X-38130D03*
X-40860Y-8830D03*
X-41030Y-16230D03*
X-46480Y20000D03*
X-37820D03*
X-42910Y57530D03*
X-34250D03*
X-45750Y67270D03*
X-37090D03*
X1950Y-19800D03*
X2450Y-12200D03*
X10610Y-19800D03*
X11110Y-12200D03*
X36540Y36590D03*
X27880D03*
G54D62*
X-136700Y9140D03*
X-137340Y-720D03*
X-149500Y135910D03*
X-141620D03*
X-151490Y146320D03*
X-143610D03*
X-128820Y9140D03*
X-129460Y-720D03*
X-127340Y130500D03*
X-119460D03*
X-83400Y-5980D03*
X-83200Y870D03*
X-87940Y74250D03*
X-94850Y145870D03*
X-86970D03*
X-86990Y137400D03*
X-83430Y179840D03*
X-72680Y-31660D03*
X-80560D03*
X-72600Y-25000D03*
X-80480D03*
X-72360Y-19240D03*
X-80240D03*
X-72030Y-13340D03*
X-79910D03*
X-75520Y-5980D03*
X-75320Y870D03*
X-71740Y68050D03*
X-80060Y74250D03*
X-70340Y74950D03*
X-82390Y121550D03*
X-74510D03*
X-69860Y145940D03*
X-77740D03*
X-79110Y137400D03*
X-75550Y179840D03*
X-55980Y-93610D03*
X-61060Y1220D03*
X-53180D03*
X-63860Y68050D03*
X-62460Y74950D03*
X-55160Y96300D03*
X-63040D03*
X-55000Y179330D03*
X-48100Y-93610D03*
X-40410Y74220D03*
X-32530D03*
X-39740Y96600D03*
X-31860D03*
X-47120Y179330D03*
X17470Y76680D03*
X18320Y82720D03*
X19360Y106250D03*
X21560Y134500D03*
X33470Y15930D03*
X25590D03*
X33260Y24700D03*
X25380D03*
X25350Y76680D03*
X33810Y76400D03*
X33080Y82870D03*
X26200Y82720D03*
X27240Y106250D03*
X29440Y134500D03*
X41690Y76400D03*
X40960Y82870D03*
X82810Y-83120D03*
X90690D03*
X82760Y-59000D03*
X90640D03*
X121730Y102340D03*
X129610D03*
X156380Y120210D03*
X164260D03*
G54D55*
X91150Y-70170D03*
Y-74510D03*
X91050Y-47280D03*
Y-51620D03*
G54D58*
X137360Y102570D03*
Y109460D03*
X149960Y102570D03*
Y109460D03*
G54D49*
X-141440Y17560D03*
Y41960D03*
X-131400Y17560D03*
X-136440D03*
Y41960D03*
X-131400D03*
X-126400D03*
G54D60*
X-138990Y158870D03*
X-135250Y150210D03*
X-131510Y158870D03*
X-52050Y-76890D03*
X-55790Y-85550D03*
X-48310D03*
X-37700Y-76700D03*
X-41440Y-85360D03*
X-33960D03*
G54D59*
X161980Y109080D03*
Y101600D03*
X170640Y105340D03*
G54D52*
X-126400Y17560D03*
G54D54*
X-133810Y55600D03*
Y64260D03*
X-82750Y62530D03*
Y53870D03*
X-38650Y3120D03*
Y11780D03*
X-37460Y28440D03*
Y37100D03*
X103610Y148000D03*
Y156660D03*
X117360Y147910D03*
Y156570D03*
G54D53*
X-120630Y138390D03*
G54D51*
X-124450D03*
X-128270D03*
Y149410D03*
X-120630D03*
G54D72*
X-185040Y196850D02*
G01X185040D01*
X196850Y185040D02*
G75*
G03X185040Y196850I-11810D01*
X196850Y185040D02*
G01Y-86620D01*
X185040Y-98430D02*
G03X196850Y-86620J11810D01*
X185040Y-98430D02*
G01X-185040D01*
X-196850Y-86620D02*
G03X-185040Y-98430I11810D01*
X-196850Y-86620D02*
G01Y185040D01*
X-185040Y196850D02*
G03X-196850Y185040J-11810D01*
M02*
