G04 CAM350 V9.5.1 (Build 211) Date:  Mon Jun 16 19:21:36 2014 *
G04 Database: e:\a\pegasus.cam *
G04 Layer 11: SilkscreenTop.a *
%FSLAX55Y55*%
%MOIN*%
%SFA1.000B1.000*%

%MIA0B0*%
%IPPOS*%
%ADD28C,0.00800*%
%ADD114C,0.00600*%
%ADD115C,0.00790*%
%LNSilkscreenTop.a*%
%LPD*%
G36*
X80497Y-11599D02*
G01Y-11146D01*
X81087*
Y-11599*
X80497*
G37*
G36*
X78796Y-14350D02*
G01Y-13902D01*
X79468*
Y-14350*
X78796*
G37*
G36*
X80497D02*
G01Y-12029D01*
X81087*
Y-14350*
X80497*
G37*
G36*
X72653D02*
G01Y-12029D01*
X73184*
Y-12381*
X73265Y-12294*
X73358Y-12214*
X73456Y-12146*
X73559Y-12087*
X73661Y-12041*
X73761Y-12006*
X73854Y-11985*
X73938Y-11977*
X74087Y-11985*
X74238Y-12009*
X74390Y-12049*
X74544Y-12104*
X74341Y-12469*
X74232Y-12432*
X74124Y-12405*
X74016Y-12389*
X73908Y-12383*
X73830Y-12391*
X73746Y-12410*
X73577Y-12479*
X73430Y-12573*
X73375Y-12625*
X73341Y-12676*
X73297Y-12784*
X73267Y-12896*
X73249Y-13014*
X73243Y-13135*
Y-14350*
X72653*
G37*
G36*
X57724D02*
G01Y-12029D01*
X58255*
Y-12359*
X58356Y-12270*
X58467Y-12192*
X58589Y-12127*
X58723Y-12073*
X58867Y-12031*
X59021Y-12001*
X59186Y-11983*
X59363Y-11977*
X59535Y-11992*
X59729Y-12031*
X59923Y-12091*
X60105Y-12168*
X60262Y-12259*
X60387Y-12355*
X60473Y-12452*
X60520Y-12541*
X60544Y-12691*
X60553Y-12923*
Y-14350*
X59963*
Y-12938*
X59949Y-12820*
X59907Y-12705*
X59837Y-12600*
X59743Y-12505*
X59627Y-12428*
X59497Y-12369*
X59363Y-12331*
X59239Y-12318*
X59090Y-12333*
X58934Y-12375*
X58779Y-12443*
X58634Y-12533*
X58506Y-12646*
X58405Y-12776*
X58338Y-12922*
X58314Y-13083*
Y-14350*
X57724*
G37*
G36*
X71197Y-14064D02*
G01X71061Y-14132D01*
X70907Y-14196*
X70738Y-14253*
X70563Y-14303*
X70386Y-14345*
X70215Y-14376*
X70056Y-14395*
X69915Y-14402*
X69699Y-14386*
X69487Y-14340*
X69286Y-14269*
X69105Y-14179*
X68950Y-14077*
X68830Y-13965*
X68752Y-13851*
X68726Y-13738*
X68746Y-13645*
X68806Y-13540*
X68898Y-13433*
X69018Y-13330*
X69153Y-13238*
X69298Y-13162*
X69441Y-13106*
X69571Y-13072*
X69789Y-13042*
X70096Y-13013*
X70429Y-12983*
X70715Y-12951*
X70955Y-12915*
X71148Y-12877*
X71151Y-12775*
X71140Y-12664*
X71109Y-12570*
X71056Y-12494*
X70984Y-12436*
X70923Y-12405*
X70856Y-12378*
X70703Y-12336*
X70521Y-12311*
X70312Y-12302*
X70157Y-12312*
X70007Y-12337*
X69866Y-12378*
X69737Y-12431*
X69622Y-12497*
X69527Y-12571*
X69453Y-12655*
X69404Y-12744*
X68827Y-12691*
X68891Y-12565*
X69011Y-12436*
X69179Y-12313*
X69390Y-12201*
X69631Y-12108*
X69892Y-12037*
X70154Y-11993*
X70397Y-11977*
X70627Y-11990*
X70860Y-12025*
X71082Y-12080*
X71283Y-12150*
X71449Y-12231*
X71579Y-12318*
X71667Y-12407*
X71715Y-12490*
X71737Y-12632*
X71745Y-12853*
Y-13378*
X71758Y-13743*
X71796Y-14020*
X71855Y-14220*
X71931Y-14350*
X71315*
X71273Y-14286*
X71240Y-14218*
X71214Y-14144*
X71197Y-14064*
G37*
G36*
X56373Y-13603D02*
G01X56983Y-13653D01*
X56900Y-13788*
X56767Y-13921*
X56594Y-14047*
X56390Y-14162*
X56164Y-14260*
X55926Y-14336*
X55685Y-14384*
X55452Y-14402*
X55306Y-14395*
X55160Y-14374*
X55013Y-14341*
X54870Y-14296*
X54727Y-14241*
X54590Y-14175*
X54459Y-14101*
X54336Y-14018*
X54116Y-13837*
X54023Y-13738*
X53945Y-13635*
X53880Y-13531*
X53832Y-13424*
X53803Y-13317*
X53793Y-13210*
X53804Y-13100*
X53833Y-12989*
X53881Y-12879*
X53945Y-12771*
X54024Y-12665*
X54116Y-12563*
X54220Y-12466*
X54335Y-12374*
X54457Y-12290*
X54586Y-12213*
X54721Y-12146*
X54860Y-12088*
X55000Y-12042*
X55141Y-12007*
X55281Y-11985*
X55419Y-11977*
X55552Y-11985*
X55687Y-12006*
X55824Y-12040*
X55960Y-12085*
X56095Y-12143*
X56226Y-12209*
X56472Y-12366*
X56583Y-12456*
X56684Y-12551*
X56775Y-12652*
X56853Y-12754*
X56915Y-12861*
X56962Y-12969*
X56992Y-13078*
X57002Y-13185*
X56999Y-13290*
X54403*
X54439Y-13434*
X54519Y-13576*
X54634Y-13709*
X54777Y-13829*
X54937Y-13931*
X55111Y-14010*
X55285Y-14061*
X55455Y-14079*
X55581Y-14069*
X55716Y-14040*
X55852Y-13995*
X55985Y-13935*
X56108Y-13864*
X56218Y-13783*
X56308Y-13695*
X56373Y-13603*
G37*
G36*
X81766Y-13190D02*
G01X81774Y-13034D01*
X81800Y-12889*
X81841Y-12754*
X81900Y-12629*
X81975Y-12515*
X82068Y-12411*
X82177Y-12318*
X82303Y-12235*
X82418Y-12174*
X82539Y-12122*
X82667Y-12078*
X82801Y-12042*
X82941Y-12013*
X83087Y-11993*
X83239Y-11981*
X83398Y-11977*
X83534Y-11985*
X83673Y-12005*
X83814Y-12039*
X83955Y-12084*
X84093Y-12140*
X84228Y-12205*
X84482Y-12360*
X84595Y-12448*
X84700Y-12541*
X84792Y-12639*
X84873Y-12740*
X84937Y-12844*
X84986Y-12948*
X85016Y-13053*
X85027Y-13157*
X85017Y-13271*
X84989Y-13386*
X84941Y-13500*
X84880Y-13612*
X84800Y-13723*
X84706Y-13828*
X84598Y-13927*
X84480Y-14019*
X84350Y-14105*
X84214Y-14180*
X84073Y-14246*
X83930Y-14301*
X83787Y-14345*
X83649Y-14376*
X83518Y-14395*
X83398Y-14402*
X83258Y-14395*
X83117Y-14374*
X82974Y-14341*
X82834Y-14296*
X82694Y-14240*
X82560Y-14174*
X82429Y-14100*
X82307Y-14017*
X82192Y-13928*
X82088Y-13833*
X81996Y-13733*
X81917Y-13628*
X81853Y-13521*
X81805Y-13411*
X81775Y-13301*
X81766Y-13190*
G37*
G36*
X64972D02*
G01X64980Y-13034D01*
X65006Y-12889*
X65047Y-12754*
X65107Y-12629*
X65182Y-12515*
X65274Y-12411*
X65383Y-12318*
X65509Y-12235*
X65624Y-12174*
X65746Y-12122*
X65873Y-12078*
X66007Y-12042*
X66147Y-12013*
X66293Y-11993*
X66445Y-11981*
X66604Y-11977*
X66740Y-11985*
X66880Y-12005*
X67020Y-12039*
X67161Y-12084*
X67299Y-12140*
X67434Y-12205*
X67688Y-12360*
X67801Y-12448*
X67906Y-12541*
X67999Y-12639*
X68079Y-12740*
X68144Y-12844*
X68192Y-12948*
X68222Y-13053*
X68234Y-13157*
X68223Y-13271*
X68195Y-13386*
X68148Y-13500*
X68086Y-13612*
X68006Y-13723*
X67913Y-13828*
X67805Y-13927*
X67686Y-14019*
X67556Y-14105*
X67421Y-14180*
X67279Y-14246*
X67137Y-14301*
X66994Y-14345*
X66855Y-14376*
X66724Y-14395*
X66604Y-14402*
X66465Y-14395*
X66324Y-14374*
X66181Y-14341*
X66040Y-14296*
X65901Y-14240*
X65766Y-14174*
X65636Y-14100*
X65513Y-14017*
X65399Y-13928*
X65295Y-13833*
X65202Y-13733*
X65123Y-13628*
X65059Y-13521*
X65011Y-13411*
X64982Y-13301*
X64972Y-13190*
G37*
G36*
X46303D02*
G01X46311Y-13034D01*
X46336Y-12889*
X46378Y-12754*
X46437Y-12629*
X46512Y-12515*
X46605Y-12411*
X46714Y-12318*
X46840Y-12235*
X46955Y-12174*
X47076Y-12122*
X47204Y-12078*
X47338Y-12042*
X47478Y-12013*
X47624Y-11993*
X47776Y-11981*
X47935Y-11977*
X48070Y-11985*
X48210Y-12005*
X48350Y-12039*
X48491Y-12084*
X48630Y-12140*
X48765Y-12205*
X49018Y-12360*
X49132Y-12448*
X49237Y-12541*
X49329Y-12639*
X49410Y-12740*
X49474Y-12844*
X49523Y-12948*
X49553Y-13053*
X49564Y-13157*
X49553Y-13271*
X49526Y-13386*
X49478Y-13500*
X49416Y-13612*
X49337Y-13723*
X49243Y-13828*
X49135Y-13927*
X49017Y-14019*
X48887Y-14105*
X48751Y-14180*
X48610Y-14246*
X48467Y-14301*
X48324Y-14345*
X48186Y-14376*
X48054Y-14395*
X47935Y-14402*
X47795Y-14395*
X47654Y-14374*
X47511Y-14341*
X47371Y-14296*
X47231Y-14240*
X47096Y-14174*
X46966Y-14100*
X46844Y-14017*
X46729Y-13928*
X46625Y-13833*
X46532Y-13733*
X46454Y-13628*
X46389Y-13521*
X46342Y-13411*
X46312Y-13301*
X46303Y-13190*
G37*
G36*
X62002Y-14350D02*
G01X61455D01*
Y-11146*
X62045*
Y-12289*
X62141Y-12217*
X62244Y-12153*
X62353Y-12100*
X62470Y-12055*
X62591Y-12021*
X62721Y-11997*
X62856Y-11982*
X62999Y-11977*
X63106Y-11985*
X63230Y-12004*
X63360Y-12037*
X63495Y-12081*
X63627Y-12138*
X63759Y-12204*
X63883Y-12280*
X64000Y-12365*
X64104Y-12459*
X64198Y-12558*
X64347Y-12767*
X64440Y-12975*
X64464Y-13071*
X64473Y-13155*
X64463Y-13268*
X64434Y-13381*
X64387Y-13493*
X64325Y-13602*
X64249Y-13710*
X64160Y-13812*
X63953Y-14003*
X63716Y-14166*
X63591Y-14234*
X63465Y-14292*
X63336Y-14338*
X63211Y-14373*
X63087Y-14394*
X62969Y-14402*
X62819Y-14397*
X62677Y-14381*
X62543Y-14354*
X62419Y-14317*
X62302Y-14269*
X62193Y-14210*
X62093Y-14140*
X62002Y-14060*
Y-14350*
G37*
G36*
X77153D02*
G01Y-14057D01*
X77065Y-14139*
X76967Y-14209*
X76860Y-14268*
X76744Y-14316*
X76617Y-14354*
X76481Y-14381*
X76335Y-14397*
X76180Y-14402*
X76069Y-14395*
X75949Y-14374*
X75821Y-14340*
X75693Y-14294*
X75561Y-14236*
X75432Y-14166*
X75307Y-14087*
X75190Y-13999*
X75079Y-13905*
X74980Y-13805*
X74891Y-13702*
X74819Y-13595*
X74759Y-13490*
X74716Y-13386*
X74690Y-13286*
X74682Y-13192*
X74689Y-13101*
X74713Y-13002*
X74752Y-12899*
X74808Y-12792*
X74962Y-12581*
X75057Y-12480*
X75164Y-12383*
X75278Y-12296*
X75401Y-12216*
X75529Y-12146*
X75660Y-12087*
X75789Y-12041*
X75917Y-12006*
X76040Y-11985*
X76154Y-11977*
X76278Y-11986*
X76414Y-12008*
X76554Y-12042*
X76694Y-12084*
X76942Y-12187*
X77040Y-12242*
X77114Y-12296*
Y-11146*
X77701*
Y-14350*
X77153*
G37*
G36*
X50256Y-15239D02*
G01Y-12029D01*
X50793*
Y-12331*
X50877Y-12266*
X50983Y-12202*
X51105Y-12142*
X51242Y-12088*
X51383Y-12043*
X51528Y-12008*
X51669Y-11986*
X51803Y-11977*
X51918Y-11985*
X52043Y-12006*
X52172Y-12041*
X52303Y-12087*
X52432Y-12147*
X52560Y-12217*
X52682Y-12296*
X52798Y-12383*
X52997Y-12577*
X53150Y-12785*
X53245Y-12990*
X53269Y-13086*
X53279Y-13173*
X53268Y-13267*
X53242Y-13368*
X53197Y-13474*
X53138Y-13582*
X53062Y-13690*
X52973Y-13796*
X52871Y-13898*
X52760Y-13994*
X52638Y-14084*
X52511Y-14164*
X52378Y-14234*
X52246Y-14293*
X52113Y-14340*
X51987Y-14374*
X51867Y-14395*
X51761Y-14402*
X51642Y-14395*
X51514Y-14374*
X51248Y-14304*
X51010Y-14209*
X50916Y-14159*
X50846Y-14110*
Y-15239*
X50256*
G37*
G36*
X84428Y-72D02*
G01X84194Y-45D01*
X84011Y37*
X83938Y97*
X83880Y172*
X83803Y363*
X83589Y391*
X83371Y400*
X82817Y378*
X82422Y313*
X82283Y263*
X82185Y203*
X82126Y134*
X82107Y53*
X82118Y-1*
X82154Y-59*
X82296Y-188*
X82534Y-336*
X82867Y-499*
X83739Y-926*
X84049Y-1099*
X84276Y-1245*
X84454Y-1387*
X84609Y-1532*
X84739Y-1680*
X84848Y-1833*
X84931Y-1992*
X84990Y-2154*
X85026Y-2321*
X85038Y-2491*
X85024Y-2710*
X84986Y-2916*
X84919Y-3108*
X84828Y-3286*
X84708Y-3452*
X84564Y-3602*
X84393Y-3740*
X84197Y-3863*
X83837Y-4025*
X83441Y-4142*
X83004Y-4212*
X82531Y-4235*
X82187Y-4221*
X81861Y-4180*
X81550Y-4113*
X81254Y-4019*
X80909Y-3855*
X80773Y-3761*
X80663Y-3656*
X80576Y-3544*
X80515Y-3423*
X80478Y-3294*
X80466Y-3154*
X80476Y-3031*
X80505Y-2924*
X80553Y-2834*
X80622Y-2760*
X80709Y-2703*
X80817Y-2661*
X80944Y-2636*
X81092Y-2627*
X81377Y-2676*
X81790Y-2780*
X82203Y-2886*
X82494Y-2932*
X82961Y-2905*
X83144Y-2872*
X83296Y-2824*
X83412Y-2764*
X83497Y-2690*
X83548Y-2603*
X83567Y-2501*
X83555Y-2435*
X83520Y-2365*
X83381Y-2219*
X83149Y-2068*
X82826Y-1907*
X81936Y-1497*
X81438Y-1219*
X81264Y-1086*
X81114Y-945*
X80986Y-798*
X80883Y-643*
X80801Y-481*
X80744Y-312*
X80708Y-137*
X80698Y47*
X80715Y299*
X80766Y532*
X80854Y742*
X80976Y931*
X81133Y1097*
X81326Y1243*
X81553Y1368*
X81816Y1471*
X82186Y1565*
X82644Y1633*
X83185Y1674*
X83814Y1688*
X84059Y1679*
X84270Y1653*
X84446Y1610*
X84591Y1551*
X84741Y1439*
X84851Y1288*
X84916Y1099*
X84938Y873*
X84906Y459*
X84865Y296*
X84810Y164*
X84738Y59*
X84651Y-14*
X84547Y-58*
X84428Y-72*
G37*
G36*
X73592D02*
G01X73357Y-45D01*
X73174Y37*
X73102Y97*
X73044Y172*
X72966Y363*
X72752Y391*
X72535Y400*
X71980Y378*
X71585Y313*
X71446Y263*
X71348Y203*
X71289Y134*
X71270Y53*
X71282Y-1*
X71317Y-59*
X71459Y-188*
X71697Y-336*
X72031Y-499*
X72903Y-926*
X73213Y-1099*
X73440Y-1245*
X73617Y-1387*
X73772Y-1532*
X73903Y-1680*
X74011Y-1833*
X74094Y-1992*
X74153Y-2154*
X74189Y-2321*
X74202Y-2491*
X74188Y-2710*
X74149Y-2916*
X74082Y-3108*
X73991Y-3286*
X73871Y-3452*
X73727Y-3602*
X73556Y-3740*
X73360Y-3863*
X73001Y-4025*
X72605Y-4142*
X72168Y-4212*
X71694Y-4235*
X71351Y-4221*
X71024Y-4180*
X70713Y-4113*
X70417Y-4019*
X70072Y-3855*
X69936Y-3761*
X69826Y-3656*
X69739Y-3544*
X69678Y-3423*
X69641Y-3294*
X69629Y-3154*
X69639Y-3031*
X69668Y-2924*
X69717Y-2834*
X69786Y-2760*
X69873Y-2703*
X69980Y-2661*
X70107Y-2636*
X70255Y-2627*
X70540Y-2676*
X70953Y-2780*
X71367Y-2886*
X71657Y-2932*
X72124Y-2905*
X72307Y-2872*
X72459Y-2824*
X72575Y-2764*
X72660Y-2690*
X72711Y-2603*
X72730Y-2501*
X72719Y-2435*
X72683Y-2365*
X72544Y-2219*
X72313Y-2068*
X71989Y-1907*
X71100Y-1497*
X70601Y-1219*
X70427Y-1086*
X70277Y-945*
X70149Y-798*
X70046Y-643*
X69964Y-481*
X69907Y-312*
X69872Y-137*
X69861Y47*
X69878Y299*
X69930Y532*
X70017Y742*
X70140Y931*
X70297Y1097*
X70489Y1243*
X70717Y1368*
X70979Y1471*
X71349Y1565*
X71807Y1633*
X72348Y1674*
X72977Y1688*
X73222Y1679*
X73433Y1653*
X73610Y1610*
X73754Y1551*
X73905Y1439*
X74015Y1288*
X74079Y1099*
X74102Y873*
X74069Y459*
X74029Y296*
X73974Y164*
X73902Y59*
X73814Y-14*
X73710Y-58*
X73592Y-72*
G37*
G36*
X79735Y-883D02*
G01X79745Y-3005D01*
X79782Y-3663*
X79761Y-3777*
X79709Y-3892*
X79530Y-4111*
X79290Y-4274*
X79165Y-4321*
X79045Y-4340*
X78841Y-4315*
X78668Y-4241*
X78523Y-4117*
X78410Y-3946*
X78070Y-4053*
X77725Y-4131*
X77374Y-4177*
X77018Y-4193*
X76658Y-4173*
X76330Y-4115*
X76031Y-4016*
X75761Y-3880*
X75502Y-3680*
X75303Y-3438*
X75161Y-3155*
X75078Y-2830*
X74988Y-2195*
X74924Y-1593*
X74885Y-1027*
X74873Y-493*
X74912Y235*
X75031Y1060*
X75064Y1198*
X75113Y1318*
X75178Y1419*
X75260Y1503*
X75356Y1567*
X75468Y1614*
X75596Y1641*
X75740Y1651*
X75857Y1633*
X75982Y1586*
X76221Y1423*
X76403Y1206*
X76456Y1089*
X76476Y977*
X76400Y253*
X76324Y-490*
X76386Y-1730*
X76449Y-2297*
X76524Y-2687*
X76775Y-2768*
X77018Y-2806*
X77316Y-2796*
X77630Y-2764*
X78301Y-2638*
X78295Y-1719*
X78284Y-835*
X78309Y168*
X78385Y1025*
X78412Y1170*
X78458Y1298*
X78520Y1405*
X78602Y1494*
X78699Y1562*
X78815Y1611*
X78947Y1640*
X79098Y1651*
X79218Y1633*
X79345Y1584*
X79588Y1419*
X79769Y1197*
X79818Y1080*
X79834Y968*
X79735Y-883*
G37*
G36*
X54829Y-4162D02*
G01X54521Y-4152D01*
X54228Y-4125*
X53949Y-4077*
X53687Y-4013*
X53436Y-3928*
X53201Y-3825*
X52979Y-3705*
X52774Y-3564*
X52566Y-3390*
X52387Y-3199*
X52236Y-2992*
X52112Y-2766*
X52014Y-2525*
X51946Y-2266*
X51904Y-1990*
X51891Y-1697*
X51902Y-1372*
X51934Y-1059*
X51988Y-760*
X52066Y-471*
X52163Y-197*
X52283Y66*
X52425Y315*
X52590Y552*
X52792Y790*
X53012Y998*
X53249Y1173*
X53503Y1318*
X53772Y1428*
X54060Y1508*
X54364Y1556*
X54687Y1573*
X55124Y1553*
X55523Y1498*
X55882Y1406*
X56205Y1278*
X56390Y1172*
X56552Y1055*
X56689Y924*
X56800Y780*
X56887Y622*
X56949Y451*
X56987Y266*
X57000Y69*
X56989Y-75*
X56959Y-213*
X56907Y-348*
X56837Y-477*
X56635Y-725*
X56353Y-956*
X55909Y-1209*
X55170Y-1555*
X53399Y-2338*
X53663Y-2540*
X54034Y-2714*
X54444Y-2839*
X54829Y-2885*
X55167Y-2867*
X55479Y-2812*
X55763Y-2723*
X56021Y-2596*
X56228Y-2483*
X56414Y-2402*
X56578Y-2354*
X56721Y-2338*
X56848Y-2346*
X56960Y-2371*
X57053Y-2413*
X57131Y-2471*
X57190Y-2547*
X57233Y-2638*
X57259Y-2746*
X57268Y-2869*
X57254Y-3017*
X57213Y-3157*
X57144Y-3289*
X57048Y-3414*
X56924Y-3534*
X56774Y-3646*
X56595Y-3750*
X56389Y-3847*
X56015Y-3984*
X55631Y-4083*
X55234Y-4142*
X54829Y-4162*
G37*
G36*
X68446Y-4210D02*
G01X68307Y-4179D01*
X68132Y-4092*
X67922Y-3947*
X67678Y-3742*
X67279Y-3912*
X66855Y-4062*
X66471Y-4169*
X66201Y-4210*
X65962Y-4193*
X65728Y-4148*
X65270Y-3977*
X64842Y-3711*
X64460Y-3364*
X64135Y-2955*
X63885Y-2497*
X63725Y-2008*
X63683Y-1758*
X63669Y-1503*
X63689Y-1260*
X63750Y-1008*
X63848Y-751*
X63981Y-490*
X64328Y24*
X64767Y507*
X65264Y929*
X65796Y1265*
X66064Y1391*
X66330Y1486*
X66591Y1546*
X66843Y1567*
X67102Y1549*
X67381Y1496*
X67679Y1408*
X67999Y1285*
X68345Y1109*
X68594Y919*
X68680Y819*
X68743Y716*
X68780Y609*
X68793Y499*
X68763Y324*
X68673Y172*
X68597Y-379*
X68563Y-1087*
X68571Y-1550*
X68597Y-1943*
X68641Y-2266*
X68704Y-2519*
X68945Y-3060*
X69099Y-3412*
X69151Y-3570*
X69130Y-3678*
X69078Y-3788*
X68902Y-3993*
X68672Y-4147*
X68446Y-4210*
G37*
G36*
X48080Y-987D02*
G01X47639Y-950D01*
X47615Y-1923*
X47607Y-3369*
X47589Y-3479*
X47541Y-3593*
X47375Y-3812*
X47152Y-3978*
X47033Y-4028*
X46919Y-4046*
X46801Y-4028*
X46683Y-3978*
X46459Y-3812*
X46290Y-3593*
X46242Y-3479*
X46225Y-3369*
Y-1902*
X46251Y-892*
X46330Y510*
X46405Y1928*
X46435Y2933*
X46447Y3252*
X46485Y3526*
X46544Y3757*
X46629Y3943*
X46736Y4084*
X46868Y4181*
X47022Y4233*
X47202Y4242*
X47729Y4307*
X48463Y4337*
X48717Y4326*
X48969Y4295*
X49217Y4242*
X49461Y4169*
X49700Y4074*
X49937Y3960*
X50169Y3824*
X50397Y3668*
X50632Y3476*
X50835Y3274*
X51008Y3062*
X51150Y2841*
X51259Y2608*
X51338Y2366*
X51385Y2113*
X51402Y1850*
X51384Y1521*
X51335Y1211*
X51251Y918*
X51135Y643*
X50984Y383*
X50801Y142*
X50584Y-82*
X50334Y-288*
X50091Y-453*
X49838Y-595*
X49572Y-716*
X49296Y-813*
X49008Y-890*
X48710Y-944*
X48400Y-976*
X48080Y-987*
G37*
G36*
X63069Y-788D02*
G01X62969Y-1414D01*
X62893Y-2058*
X62838Y-2719*
X62807Y-3395*
X62751Y-4185*
X62701Y-4536*
X62638Y-4859*
X62559Y-5151*
X62466Y-5416*
X62359Y-5651*
X62238Y-5859*
X62049Y-6099*
X61827Y-6306*
X61572Y-6482*
X61285Y-6627*
X60963Y-6739*
X60609Y-6820*
X60220Y-6868*
X59800Y-6884*
X59320Y-6871*
X58905Y-6833*
X58553Y-6769*
X58266Y-6681*
X58043Y-6567*
X57883Y-6428*
X57788Y-6263*
X57756Y-6074*
X57771Y-5962*
X57818Y-5851*
X57977Y-5642*
X58191Y-5487*
X58307Y-5443*
X58424Y-5428*
X59114Y-5516*
X59544Y-5578*
X59884Y-5607*
X60249Y-5576*
X60563Y-5486*
X60701Y-5418*
X60827Y-5336*
X60939Y-5239*
X61040Y-5128*
X61200Y-4859*
X61323Y-4523*
X61410Y-4117*
X61461Y-3642*
X61193Y-3844*
X60839Y-4017*
X60459Y-4141*
X60121Y-4188*
X59921Y-4172*
X59717Y-4127*
X59311Y-3959*
X58914Y-3704*
X58551Y-3375*
X58234Y-3001*
X57987Y-2594*
X57824Y-2176*
X57767Y-1766*
X57780Y-1417*
X57821Y-1086*
X57889Y-772*
X57984Y-474*
X58106Y-194*
X58257Y71*
X58433Y317*
X58639Y547*
X58875Y760*
X59130Y946*
X59405Y1103*
X59701Y1232*
X60017Y1332*
X60351Y1404*
X60707Y1447*
X61082Y1462*
X61482Y1419*
X61899Y1309*
X62263Y1152*
X62512Y972*
X62668Y941*
X62803Y892*
X62917Y822*
X63012Y735*
X63085Y626*
X63138Y498*
X63169Y351*
X63180Y184*
X63152Y-236*
X63069Y-788*
G37*
%LPC*%
G36*
X71148Y-13185D02*
G01X70967Y-13228D01*
X70746Y-13266*
X70485Y-13302*
X70184Y-13334*
X70008Y-13357*
X69847Y-13390*
X69704Y-13434*
X69584Y-13486*
X69486Y-13546*
X69413Y-13609*
X69369Y-13672*
X69355Y-13727*
X69370Y-13789*
X69415Y-13852*
X69485Y-13914*
X69576Y-13970*
X69682Y-14021*
X69801Y-14060*
X69927Y-14086*
X70056Y-14094*
X70191Y-14086*
X70337Y-14061*
X70487Y-14023*
X70635Y-13974*
X70771Y-13917*
X70891Y-13854*
X70987Y-13789*
X71053Y-13723*
X71094Y-13649*
X71124Y-13558*
X71142Y-13452*
X71148Y-13330*
Y-13185*
G37*
G36*
X54436Y-12967D02*
G01X56379D01*
X56351Y-12830*
X56304Y-12711*
X56239Y-12610*
X56157Y-12528*
X56083Y-12475*
X56005Y-12428*
X55921Y-12389*
X55832Y-12357*
X55738Y-12332*
X55639Y-12315*
X55534Y-12304*
X55425Y-12300*
X55266Y-12317*
X55103Y-12362*
X54940Y-12432*
X54789Y-12520*
X54654Y-12623*
X54545Y-12735*
X54469Y-12852*
X54436Y-12967*
G37*
G36*
X82372Y-13190D02*
G01X82398Y-13357D01*
X82470Y-13518*
X82579Y-13668*
X82719Y-13802*
X82878Y-13916*
X83050Y-14004*
X83226Y-14060*
X83313Y-14075*
X83398Y-14079*
X83481Y-14075*
X83567Y-14060*
X83742Y-14003*
X83914Y-13915*
X84074Y-13800*
X84212Y-13663*
X84322Y-13511*
X84394Y-13347*
X84414Y-13262*
X84421Y-13177*
X84414Y-13096*
X84394Y-13016*
X84322Y-12859*
X84211Y-12712*
X84073Y-12579*
X83913Y-12466*
X83741Y-12379*
X83567Y-12323*
X83481Y-12308*
X83398Y-12302*
X83313Y-12308*
X83226Y-12323*
X83050Y-12379*
X82878Y-12466*
X82719Y-12580*
X82579Y-12714*
X82470Y-12864*
X82398Y-13024*
X82372Y-13190*
G37*
G36*
X65578D02*
G01X65604Y-13357D01*
X65676Y-13518*
X65785Y-13668*
X65925Y-13802*
X66085Y-13916*
X66257Y-14004*
X66432Y-14060*
X66519Y-14075*
X66604Y-14079*
X66687Y-14075*
X66773Y-14060*
X66949Y-14003*
X67121Y-13915*
X67280Y-13800*
X67418Y-13663*
X67529Y-13511*
X67601Y-13347*
X67620Y-13262*
X67627Y-13177*
X67620Y-13096*
X67601Y-13016*
X67528Y-12859*
X67417Y-12712*
X67279Y-12579*
X67119Y-12466*
X66947Y-12379*
X66773Y-12323*
X66687Y-12308*
X66604Y-12302*
X66519Y-12308*
X66432Y-12323*
X66257Y-12379*
X66085Y-12466*
X65925Y-12580*
X65785Y-12714*
X65676Y-12864*
X65604Y-13024*
X65578Y-13190*
G37*
G36*
X46909D02*
G01X46935Y-13357D01*
X47006Y-13518*
X47116Y-13668*
X47255Y-13802*
X47415Y-13916*
X47587Y-14004*
X47763Y-14060*
X47850Y-14075*
X47935Y-14079*
X48017Y-14075*
X48104Y-14060*
X48279Y-14003*
X48451Y-13915*
X48611Y-13800*
X48748Y-13663*
X48859Y-13511*
X48931Y-13347*
X48951Y-13262*
X48958Y-13177*
X48951Y-13096*
X48931Y-13016*
X48859Y-12859*
X48748Y-12712*
X48610Y-12579*
X48450Y-12466*
X48278Y-12379*
X48103Y-12323*
X48017Y-12308*
X47935Y-12302*
X47850Y-12308*
X47763Y-12323*
X47587Y-12379*
X47415Y-12466*
X47255Y-12580*
X47116Y-12714*
X47006Y-12864*
X46935Y-13024*
X46909Y-13190*
G37*
G36*
X61995Y-13173D02*
G01X62005Y-13367D01*
X62037Y-13532*
X62090Y-13668*
X62125Y-13726*
X62165Y-13775*
X62237Y-13847*
X62317Y-13909*
X62401Y-13961*
X62493Y-14004*
X62590Y-14037*
X62694Y-14060*
X62803Y-14075*
X62919Y-14079*
X62993Y-14075*
X63071Y-14060*
X63231Y-14003*
X63389Y-13915*
X63540Y-13800*
X63671Y-13665*
X63775Y-13514*
X63844Y-13354*
X63870Y-13188*
X63845Y-13019*
X63779Y-12858*
X63677Y-12708*
X63551Y-12574*
X63406Y-12462*
X63252Y-12375*
X63095Y-12320*
X63018Y-12306*
X62946Y-12300*
X62870Y-12306*
X62793Y-12321*
X62633Y-12377*
X62474Y-12465*
X62325Y-12578*
X62193Y-12711*
X62089Y-12857*
X62020Y-13014*
X61995Y-13173*
G37*
G36*
X75288Y-13192D02*
G01X75313Y-13359D01*
X75382Y-13519*
X75485Y-13670*
X75617Y-13803*
X75766Y-13917*
X75925Y-14004*
X76084Y-14060*
X76161Y-14075*
X76236Y-14079*
X76386Y-14061*
X76543Y-14007*
X76698Y-13923*
X76844Y-13815*
X76971Y-13686*
X77072Y-13542*
X77139Y-13386*
X77163Y-13225*
X77139Y-13049*
X77070Y-12880*
X76967Y-12725*
X76837Y-12585*
X76687Y-12469*
X76528Y-12380*
X76365Y-12323*
X76286Y-12308*
X76210Y-12302*
X76133Y-12308*
X76056Y-12322*
X75899Y-12377*
X75744Y-12463*
X75601Y-12575*
X75475Y-12709*
X75376Y-12859*
X75311Y-13022*
X75288Y-13192*
G37*
G36*
X50791Y-13203D02*
G01X50814Y-13370D01*
X50881Y-13530*
X50982Y-13678*
X51110Y-13809*
X51255Y-13921*
X51412Y-14006*
X51569Y-14060*
X51647Y-14075*
X51721Y-14079*
X51796Y-14075*
X51874Y-14060*
X52035Y-14003*
X52195Y-13915*
X52345Y-13800*
X52476Y-13663*
X52580Y-13509*
X52650Y-13343*
X52675Y-13170*
X52650Y-13006*
X52583Y-12845*
X52481Y-12696*
X52353Y-12562*
X52206Y-12449*
X52052Y-12362*
X51895Y-12305*
X51819Y-12290*
X51747Y-12285*
X51673Y-12291*
X51597Y-12307*
X51438Y-12366*
X51279Y-12458*
X51128Y-12576*
X50993Y-12716*
X50887Y-12871*
X50815Y-13036*
X50791Y-13203*
G37*
G36*
X54687Y300D02*
G01X54494Y270D01*
X54292Y187*
X54085Y58*
X53886Y-108*
X53697Y-307*
X53532Y-526*
X53394Y-762*
X53295Y-1003*
X54477Y-494*
X55113Y-185*
X55607Y100*
X55416Y187*
X55200Y250*
X54956Y287*
X54687Y300*
G37*
G36*
X67144Y-662D02*
G01X67172Y-264D01*
X67238Y211*
X67056Y280*
X66912Y311*
X66629Y261*
X66330Y123*
X66031Y-84*
X65750Y-342*
X65501Y-636*
X65303Y-946*
X65171Y-1256*
X65125Y-1546*
X65147Y-1809*
X65211Y-2064*
X65309Y-2304*
X65439Y-2518*
X65591Y-2699*
X65762Y-2838*
X65944Y-2928*
X66134Y-2959*
X66416Y-2922*
X66742Y-2825*
X67055Y-2690*
X67301Y-2534*
X67183Y-1440*
X67144Y-662*
G37*
G36*
X48341Y2980D02*
G01X47827Y2964D01*
X47822Y2224*
X47791Y1477*
X47723Y406*
X48080Y364*
X48472Y388*
X48829Y461*
X49152Y581*
X49440Y752*
X49693Y975*
X49792Y1100*
X49874Y1234*
X49937Y1373*
X49983Y1524*
X50010Y1682*
X50019Y1850*
X49985Y2067*
X49884Y2271*
X49714Y2463*
X49477Y2644*
X49210Y2790*
X48932Y2895*
X48643Y2959*
X48341Y2980*
G37*
G36*
X61031Y264D02*
G01X60813Y254D01*
X60610Y227*
X60418Y181*
X60241Y117*
X60073Y35*
X59919Y-66*
X59777Y-185*
X59649Y-321*
X59455Y-607*
X59317Y-931*
X59234Y-1295*
X59207Y-1697*
X59227Y-1932*
X59287Y-2159*
X59379Y-2371*
X59501Y-2561*
X59643Y-2723*
X59804Y-2846*
X59975Y-2925*
X60152Y-2953*
X60368Y-2923*
X60584Y-2830*
X60801Y-2674*
X61020Y-2455*
X61202Y-2219*
X61342Y-1985*
X61436Y-1751*
X61488Y-1519*
X61595Y-874*
X61719Y53*
X61367Y197*
X61031Y264*
G37*
%LPD*%
G54D114*
X-169160Y-67600D02*
G01X-168760Y-67390D01*
X-168490Y-67150*
X-168360Y-66850*
X-168490Y-66520*
X-168760Y-66270*
X-169160Y-66020*
X-169690Y-65940*
X-172360*
X-171690Y-64060D02*
G01X-172090Y-63810D01*
X-172290Y-63520*
X-172360Y-63190*
X-172230Y-62770*
X-171890Y-62480*
X-171490Y-62390*
X-171090Y-62440*
X-170760Y-62600*
X-170090Y-63440*
X-169630Y-63810*
X-168960Y-64060*
X-168360Y-64150*
Y-62390*
X-171690Y-60560D02*
G01X-172090Y-60310D01*
X-172290Y-60020*
X-172360Y-59690*
X-172230Y-59270*
X-171890Y-58980*
X-171490Y-58890*
X-171090Y-58940*
X-170760Y-59100*
X-170090Y-59940*
X-169630Y-60310*
X-168960Y-60560*
X-168360Y-60650*
Y-58890*
X-173520Y-42780D02*
G01Y-38780D01*
X-172480*
X-172150Y-38980*
X-171940Y-39250*
X-171860Y-39780*
X-171940Y-40310*
X-172190Y-40650*
X-172480Y-40850*
X-173520*
X-172480D02*
G01X-171860Y-42780D01*
X-168690D02*
G01Y-38780D01*
X-170230Y-41650*
X-168150*
X-166400Y-42310D02*
G01X-166110Y-42650D01*
X-165770Y-42780*
X-165440Y-42650*
X-165150Y-42250*
X-164940Y-41650*
X-164860Y-41050*
Y-40310*
X-164940Y-39710*
X-165150Y-39180*
X-165400Y-38910*
X-165690Y-38780*
X-166020Y-38910*
X-166270Y-39180*
X-166440Y-39580*
X-166520Y-40110*
X-166440Y-40580*
X-166230Y-41050*
X-165980Y-41310*
X-165690Y-41380*
X-165360Y-41250*
X-165110Y-40910*
X-164860Y-40310*
X-169990Y-6480D02*
G01Y-2480D01*
X-168950*
X-168620Y-2680*
X-168410Y-2950*
X-168330Y-3480*
X-168410Y-4010*
X-168660Y-4350*
X-168950Y-4550*
X-169990*
X-168950D02*
G01X-168330Y-6480D01*
X-165660Y-2480D02*
G01Y-6480D01*
X-166620Y-2480D02*
G01X-164700D01*
X-162160Y-6480D02*
G01Y-2480D01*
X-162660Y-3280*
Y-6480D02*
G01X-161660D01*
X-170840Y88430D02*
G01Y84430D01*
X-169180*
X-167300Y86100D02*
G01X-167010Y86560D01*
X-166760Y86830*
X-166430Y86960*
X-166130Y86830*
X-165930Y86560*
X-165760Y86160*
X-165720Y85700*
X-165760Y85300*
X-165930Y84900*
X-166180Y84560*
X-166470Y84430*
X-166800Y84560*
X-167090Y84960*
X-167260Y85560*
X-167300Y86230*
X-167220Y87100*
X-167090Y87560*
X-166890Y88030*
X-166590Y88360*
X-166300Y88430*
X-166010Y88300*
X-165800Y87960*
X-168410Y112590D02*
G01X-168660Y112790D01*
X-168950Y112920*
X-169290*
X-169660Y112720*
X-169950Y112390*
X-170160Y111990*
X-170330Y111320*
X-170370Y110720*
X-170290Y110120*
X-170160Y109720*
X-169910Y109320*
X-169620Y109050*
X-169330Y108920*
X-169040*
X-168750Y109050*
X-168500Y109250*
X-168290Y109520*
X-165830Y108920D02*
G01Y112920D01*
X-166330Y112120*
Y108920D02*
G01X-165330D01*
X-162330D02*
G01Y112920D01*
X-162830Y112120*
Y108920D02*
G01X-161830D01*
X-158830Y112920D02*
G01X-159160Y112790D01*
X-159410Y112450*
X-159580Y112050*
X-159710Y111520*
X-159750Y110920*
X-159710Y110320*
X-159580Y109790*
X-159410Y109390*
X-159160Y109050*
X-158830Y108920*
X-158500Y109050*
X-158250Y109390*
X-158080Y109790*
X-157950Y110320*
X-157910Y110920*
X-157950Y111520*
X-158080Y112050*
X-158250Y112450*
X-158500Y112790*
X-158830Y112920*
X-157130Y-78680D02*
G01X-156790Y-79010D01*
X-156420Y-79210*
X-156080*
X-155750Y-79010*
X-155500Y-78680*
X-155370Y-78210*
X-155460Y-77740*
X-155670Y-77340*
X-156040Y-77080*
X-156540Y-76940*
X-156830Y-76680*
X-156960Y-76210*
X-156870Y-75740*
X-156670Y-75410*
X-156380Y-75210*
X-156080*
X-155790Y-75340*
X-155540Y-75680*
X-154000Y-75210D02*
G01X-153420Y-79210D01*
X-152750Y-75210*
X-152080Y-79210*
X-151500Y-75210*
X-150040Y-75880D02*
G01X-149790Y-75480D01*
X-149500Y-75280*
X-149170Y-75210*
X-148750Y-75340*
X-148460Y-75680*
X-148370Y-76080*
X-148420Y-76480*
X-148580Y-76810*
X-149420Y-77480*
X-149790Y-77940*
X-150040Y-78610*
X-150130Y-79210*
X-148370*
X-162520Y3070D02*
G01Y7070D01*
X-161680*
X-161350Y6870*
X-161100Y6600*
X-160890Y6200*
X-160720Y5740*
X-160680Y5070*
X-160720Y4400*
X-160890Y3940*
X-161100Y3540*
X-161350Y3270*
X-161680Y3070*
X-162520*
X-158100D02*
G01Y7070D01*
X-158600Y6270*
Y3070D02*
G01X-157600D01*
X-154600Y7070D02*
G01X-154930Y6940D01*
X-155180Y6600*
X-155350Y6200*
X-155480Y5670*
X-155520Y5070*
X-155480Y4470*
X-155350Y3940*
X-155180Y3540*
X-154930Y3200*
X-154600Y3070*
X-154270Y3200*
X-154020Y3540*
X-153850Y3940*
X-153720Y4470*
X-153680Y5070*
X-153720Y5670*
X-153850Y6200*
X-154020Y6600*
X-154270Y6940*
X-154600Y7070*
X-165800Y22500D02*
G01X-166050Y22700D01*
X-166340Y22830*
X-166680*
X-167050Y22630*
X-167340Y22300*
X-167550Y21900*
X-167720Y21230*
X-167760Y20630*
X-167680Y20030*
X-167550Y19630*
X-167300Y19230*
X-167010Y18960*
X-166720Y18830*
X-166430*
X-166140Y18960*
X-165890Y19160*
X-165680Y19430*
X-163220Y18830D02*
G01Y22830D01*
X-163720Y22030*
Y18830D02*
G01X-162720D01*
X-159720Y22830D02*
G01X-160050Y22700D01*
X-160300Y22360*
X-160470Y21960*
X-160600Y21430*
X-160640Y20830*
X-160600Y20230*
X-160470Y19700*
X-160300Y19300*
X-160050Y18960*
X-159720Y18830*
X-159390Y18960*
X-159140Y19300*
X-158970Y19700*
X-158840Y20230*
X-158800Y20830*
X-158840Y21430*
X-158970Y21960*
X-159140Y22360*
X-159390Y22700*
X-159720Y22830*
X-156220Y18830D02*
G01X-155930Y18900D01*
X-155600Y19100*
X-155390Y19430*
X-155300Y19900*
X-155390Y20360*
X-155640Y20760*
X-156010Y20960*
X-156430*
X-156680Y21100*
X-156890Y21430*
X-156970Y21900*
X-156840Y22360*
X-156550Y22700*
X-156220Y22830*
X-155890Y22700*
X-155600Y22360*
X-155470Y21900*
X-155550Y21430*
X-155760Y21100*
X-156010Y20960*
X-156430*
X-156800Y20760*
X-157050Y20360*
X-157140Y19900*
X-157050Y19430*
X-156840Y19100*
X-156510Y18900*
X-156220Y18830*
X-165670Y26980D02*
G01X-169670D01*
Y28020*
X-169470Y28350*
X-169200Y28560*
X-168670Y28640*
X-168140Y28560*
X-167800Y28310*
X-167600Y28020*
Y26980*
Y28020D02*
G01X-165670Y28640D01*
Y31810D02*
G01X-169670D01*
X-166800Y30270*
Y32350*
X-166270Y33890D02*
G01X-165940Y34140D01*
X-165740Y34430*
X-165670Y34810*
X-165800Y35190*
X-166070Y35480*
X-166540Y35690*
X-167070Y35730*
X-167600Y35640*
X-167940Y35430*
X-168200Y35140*
X-168270Y34850*
X-168200Y34560*
X-167940Y34190*
X-169670Y34310*
Y35430*
X-169860Y57780D02*
G01X-170060Y57530D01*
X-170190Y57240*
Y56900*
X-169990Y56530*
X-169660Y56240*
X-169260Y56030*
X-168590Y55860*
X-167990Y55820*
X-167390Y55900*
X-166990Y56030*
X-166590Y56280*
X-166320Y56570*
X-166190Y56860*
Y57150*
X-166320Y57440*
X-166520Y57690*
X-166790Y57900*
X-166990Y59440D02*
G01X-166520Y59690D01*
X-166260Y60030*
X-166190Y60400*
X-166260Y60740*
X-166590Y61070*
X-166990Y61280*
X-167390Y61320*
X-167860Y61240*
X-168190Y60940*
X-168320Y60650*
Y60280*
Y60650D02*
G01X-168520Y60900D01*
X-168860Y61110*
X-169260Y61190*
X-169660Y61110*
X-169990Y60900*
X-170190Y60530*
X-170120Y60150*
X-169860Y59780*
X-166190Y63780D02*
G01X-167060Y63860D01*
X-167790Y63990*
X-168460Y64150*
X-169190Y64360*
X-170190Y64690*
Y63030*
X-159090Y54660D02*
G01X-163090D01*
Y55700*
X-162890Y56030*
X-162620Y56240*
X-162090Y56320*
X-161560Y56240*
X-161220Y55990*
X-161020Y55700*
Y54660*
Y55700D02*
G01X-159090Y56320D01*
Y59490D02*
G01X-163090D01*
X-160220Y57950*
Y60030*
X-160760Y61700D02*
G01X-161220Y61990D01*
X-161490Y62240*
X-161620Y62570*
X-161490Y62870*
X-161220Y63070*
X-160820Y63240*
X-160360Y63280*
X-159960Y63240*
X-159560Y63070*
X-159220Y62820*
X-159090Y62530*
X-159220Y62200*
X-159620Y61910*
X-160220Y61740*
X-160890Y61700*
X-161760Y61780*
X-162220Y61910*
X-162690Y62110*
X-163020Y62410*
X-163090Y62700*
X-162960Y62990*
X-162620Y63200*
X-153580Y140690D02*
G01X-157580D01*
Y141730*
X-157380Y142060*
X-157110Y142270*
X-156580Y142350*
X-156050Y142270*
X-155710Y142020*
X-155510Y141730*
Y140690*
Y141730D02*
G01X-153580Y142350D01*
Y145520D02*
G01X-157580D01*
X-154710Y143980*
Y146060*
X-153580Y149020D02*
G01X-157580D01*
X-154710Y147480*
Y149560*
X-167420Y154010D02*
G01X-167670Y154210D01*
X-167960Y154340*
X-168300*
X-168670Y154140*
X-168960Y153810*
X-169170Y153410*
X-169340Y152740*
X-169380Y152140*
X-169300Y151540*
X-169170Y151140*
X-168920Y150740*
X-168630Y150470*
X-168340Y150340*
X-168050*
X-167760Y150470*
X-167510Y150670*
X-167300Y150940*
X-165760Y151140D02*
G01X-165510Y150670D01*
X-165170Y150410*
X-164800Y150340*
X-164460Y150410*
X-164130Y150740*
X-163920Y151140*
X-163880Y151540*
X-163960Y152010*
X-164260Y152340*
X-164550Y152470*
X-164920*
X-164550D02*
G01X-164300Y152670D01*
X-164090Y153010*
X-164010Y153410*
X-164090Y153810*
X-164300Y154140*
X-164670Y154340*
X-165050Y154270*
X-165420Y154010*
X-160840Y150340D02*
G01Y154340D01*
X-162380Y151470*
X-160300*
X-142510Y44960D02*
G01Y42090D01*
X-142340Y41490*
X-142010Y41090*
X-141590Y40960*
X-141170Y41090*
X-140840Y41490*
X-140670Y42090*
Y44960*
X-138880Y42630D02*
G01X-138590Y43090D01*
X-138340Y43360*
X-138010Y43490*
X-137710Y43360*
X-137510Y43090*
X-137340Y42690*
X-137300Y42230*
X-137340Y41830*
X-137510Y41430*
X-137760Y41090*
X-138050Y40960*
X-138380Y41090*
X-138670Y41490*
X-138840Y42090*
X-138880Y42760*
X-138800Y43630*
X-138670Y44090*
X-138470Y44560*
X-138170Y44890*
X-137880Y44960*
X-137590Y44830*
X-137380Y44490*
X-142180Y59240D02*
G01X-142430Y59440D01*
X-142720Y59570*
X-143060*
X-143430Y59370*
X-143720Y59040*
X-143930Y58640*
X-144100Y57970*
X-144140Y57370*
X-144060Y56770*
X-143930Y56370*
X-143680Y55970*
X-143390Y55700*
X-143100Y55570*
X-142810*
X-142520Y55700*
X-142270Y55900*
X-142060Y56170*
X-139600Y55570D02*
G01Y59570D01*
X-140100Y58770*
Y55570D02*
G01X-139100D01*
X-136100Y59570D02*
G01X-136430Y59440D01*
X-136680Y59100*
X-136850Y58700*
X-136980Y58170*
X-137020Y57570*
X-136980Y56970*
X-136850Y56440*
X-136680Y56040*
X-136430Y55700*
X-136100Y55570*
X-135770Y55700*
X-135520Y56040*
X-135350Y56440*
X-135220Y56970*
X-135180Y57570*
X-135220Y58170*
X-135350Y58700*
X-135520Y59100*
X-135770Y59440*
X-136100Y59570*
X-133310Y56040D02*
G01X-133020Y55700D01*
X-132680Y55570*
X-132350Y55700*
X-132060Y56100*
X-131850Y56700*
X-131770Y57300*
Y58040*
X-131850Y58640*
X-132060Y59170*
X-132310Y59440*
X-132600Y59570*
X-132930Y59440*
X-133180Y59170*
X-133350Y58770*
X-133430Y58240*
X-133350Y57770*
X-133140Y57300*
X-132890Y57040*
X-132600Y56970*
X-132270Y57100*
X-132020Y57440*
X-131770Y58040*
X-151570Y109590D02*
G01Y113590D01*
X-150730*
X-150400Y113390*
X-150150Y113120*
X-149940Y112720*
X-149770Y112260*
X-149730Y111590*
X-149770Y110920*
X-149940Y110460*
X-150150Y110060*
X-150400Y109790*
X-150730Y109590*
X-151570*
X-147940Y111260D02*
G01X-147650Y111720D01*
X-147400Y111990*
X-147070Y112120*
X-146770Y111990*
X-146570Y111720*
X-146400Y111320*
X-146360Y110860*
X-146400Y110460*
X-146570Y110060*
X-146820Y109720*
X-147110Y109590*
X-147440Y109720*
X-147730Y110120*
X-147900Y110720*
X-147940Y111390*
X-147860Y112260*
X-147730Y112720*
X-147530Y113190*
X-147230Y113520*
X-146940Y113590*
X-146650Y113460*
X-146440Y113120*
X-136430Y138790D02*
G01X-140430D01*
Y139830*
X-140230Y140160*
X-139960Y140370*
X-139430Y140450*
X-138900Y140370*
X-138560Y140120*
X-138360Y139830*
Y138790*
Y139830D02*
G01X-136430Y140450D01*
Y143620D02*
G01X-140430D01*
X-137560Y142080*
Y144160*
X-137230Y145700D02*
G01X-136760Y145950D01*
X-136500Y146290*
X-136430Y146660*
X-136500Y147000*
X-136830Y147330*
X-137230Y147540*
X-137630Y147580*
X-138100Y147500*
X-138430Y147200*
X-138560Y146910*
Y146540*
Y146910D02*
G01X-138760Y147160D01*
X-139100Y147370*
X-139500Y147450*
X-139900Y147370*
X-140230Y147160*
X-140430Y146790*
X-140360Y146410*
X-140100Y146040*
X-141920Y137780D02*
G01X-145920D01*
Y138820*
X-145720Y139150*
X-145450Y139360*
X-144920Y139440*
X-144390Y139360*
X-144050Y139110*
X-143850Y138820*
Y137780*
Y138820D02*
G01X-141920Y139440D01*
Y142110D02*
G01X-145920D01*
X-145120Y141610*
X-141920D02*
G01Y142610D01*
X-145250Y144820D02*
G01X-145650Y145070D01*
X-145850Y145360*
X-145920Y145690*
X-145790Y146110*
X-145450Y146400*
X-145050Y146490*
X-144650Y146440*
X-144320Y146280*
X-143650Y145440*
X-143190Y145070*
X-142520Y144820*
X-141920Y144730*
Y146490*
X-142390Y148400D02*
G01X-142050Y148690D01*
X-141920Y149030*
X-142050Y149360*
X-142450Y149650*
X-143050Y149860*
X-143650Y149940*
X-144390*
X-144990Y149860*
X-145520Y149650*
X-145790Y149400*
X-145920Y149110*
X-145790Y148780*
X-145520Y148530*
X-145120Y148360*
X-144590Y148280*
X-144120Y148360*
X-143650Y148570*
X-143390Y148820*
X-143320Y149110*
X-143450Y149440*
X-143790Y149690*
X-144390Y149940*
X-148130Y137440D02*
G01X-152130D01*
Y138480*
X-151930Y138810*
X-151660Y139020*
X-151130Y139100*
X-150600Y139020*
X-150260Y138770*
X-150060Y138480*
Y137440*
Y138480D02*
G01X-148130Y139100D01*
Y141770D02*
G01X-152130D01*
X-151330Y141270*
X-148130D02*
G01Y142270D01*
X-151460Y144480D02*
G01X-151860Y144730D01*
X-152060Y145020*
X-152130Y145350*
X-152000Y145770*
X-151660Y146060*
X-151260Y146150*
X-150860Y146100*
X-150530Y145940*
X-149860Y145100*
X-149400Y144730*
X-148730Y144480*
X-148130Y144390*
Y146150*
Y148770D02*
G01X-148200Y149060D01*
X-148400Y149390*
X-148730Y149600*
X-149200Y149690*
X-149660Y149600*
X-150060Y149350*
X-150260Y148980*
Y148560*
X-150400Y148310*
X-150730Y148100*
X-151200Y148020*
X-151660Y148150*
X-152000Y148440*
X-152130Y148770*
X-152000Y149100*
X-151660Y149390*
X-151200Y149520*
X-150730Y149440*
X-150400Y149230*
X-150260Y148980*
Y148560*
X-150060Y148190*
X-149660Y147940*
X-149200Y147850*
X-148730Y147940*
X-148400Y148150*
X-148200Y148480*
X-148130Y148770*
X-132380Y-47190D02*
G01X-132170Y-47590D01*
X-131930Y-47860*
X-131630Y-47990*
X-131300Y-47860*
X-131050Y-47590*
X-130800Y-47190*
X-130720Y-46660*
Y-43990*
X-128840Y-46320D02*
G01X-128550Y-45860D01*
X-128300Y-45590*
X-127970Y-45460*
X-127670Y-45590*
X-127470Y-45860*
X-127300Y-46260*
X-127260Y-46720*
X-127300Y-47120*
X-127470Y-47520*
X-127720Y-47860*
X-128010Y-47990*
X-128340Y-47860*
X-128630Y-47460*
X-128800Y-46860*
X-128840Y-46190*
X-128760Y-45320*
X-128630Y-44860*
X-128430Y-44390*
X-128130Y-44060*
X-127840Y-43990*
X-127550Y-44120*
X-127340Y-44460*
X-120110Y-19650D02*
G01X-120360Y-19450D01*
X-120650Y-19320*
X-120990*
X-121360Y-19520*
X-121650Y-19850*
X-121860Y-20250*
X-122030Y-20920*
X-122070Y-21520*
X-121990Y-22120*
X-121860Y-22520*
X-121610Y-22920*
X-121320Y-23190*
X-121030Y-23320*
X-120740*
X-120450Y-23190*
X-120200Y-22990*
X-119990Y-22720*
X-117530Y-23320D02*
G01Y-19320D01*
X-118030Y-20120*
Y-23320D02*
G01X-117030D01*
X-114030D02*
G01Y-19320D01*
X-114530Y-20120*
Y-23320D02*
G01X-113530D01*
X-111450Y-22520D02*
G01X-111200Y-22990D01*
X-110860Y-23250*
X-110490Y-23320*
X-110150Y-23250*
X-109820Y-22920*
X-109610Y-22520*
X-109570Y-22120*
X-109650Y-21650*
X-109950Y-21320*
X-110240Y-21190*
X-110610*
X-110240D02*
G01X-109990Y-20990D01*
X-109780Y-20650*
X-109700Y-20250*
X-109780Y-19850*
X-109990Y-19520*
X-110360Y-19320*
X-110740Y-19390*
X-111110Y-19650*
X-122310Y-12340D02*
G01Y-8340D01*
X-121470*
X-121140Y-8540*
X-120890Y-8810*
X-120680Y-9210*
X-120510Y-9670*
X-120470Y-10340*
X-120510Y-11010*
X-120680Y-11470*
X-120890Y-11870*
X-121140Y-12140*
X-121470Y-12340*
X-122310*
X-118600Y-11870D02*
G01X-118310Y-12210D01*
X-117970Y-12340*
X-117640Y-12210*
X-117350Y-11810*
X-117140Y-11210*
X-117060Y-10610*
Y-9870*
X-117140Y-9270*
X-117350Y-8740*
X-117600Y-8470*
X-117890Y-8340*
X-118220Y-8470*
X-118470Y-8740*
X-118640Y-9140*
X-118720Y-9670*
X-118640Y-10140*
X-118430Y-10610*
X-118180Y-10870*
X-117890Y-10940*
X-117560Y-10810*
X-117310Y-10470*
X-117060Y-9870*
X-123770Y-2780D02*
G01Y1220D01*
X-122730*
X-122400Y1020*
X-122190Y750*
X-122110Y220*
X-122190Y-310*
X-122440Y-650*
X-122730Y-850*
X-123770*
X-122730D02*
G01X-122110Y-2780D01*
X-119440D02*
G01Y1220D01*
X-119940Y420*
Y-2780D02*
G01X-118940D01*
X-116730Y550D02*
G01X-116480Y950D01*
X-116190Y1150*
X-115860Y1220*
X-115440Y1090*
X-115150Y750*
X-115060Y350*
X-115110Y-50*
X-115270Y-380*
X-116110Y-1050*
X-116480Y-1510*
X-116730Y-2180*
X-116820Y-2780*
X-115060*
X-113360Y-1980D02*
G01X-113110Y-2450D01*
X-112770Y-2710*
X-112400Y-2780*
X-112060Y-2710*
X-111730Y-2380*
X-111520Y-1980*
X-111480Y-1580*
X-111560Y-1110*
X-111860Y-780*
X-112150Y-650*
X-112520*
X-112150D02*
G01X-111900Y-450D01*
X-111690Y-110*
X-111610Y290*
X-111690Y690*
X-111900Y1020*
X-112270Y1220*
X-112650Y1150*
X-113020Y890*
X-120590Y19290D02*
G01Y23290D01*
X-119550*
X-119220Y23090*
X-119010Y22820*
X-118930Y22290*
X-119010Y21760*
X-119260Y21420*
X-119550Y21220*
X-120590*
X-119550D02*
G01X-118930Y19290D01*
X-116260D02*
G01Y23290D01*
X-116760Y22490*
Y19290D02*
G01X-115760D01*
X-113550Y22620D02*
G01X-113300Y23020D01*
X-113010Y23220*
X-112680Y23290*
X-112260Y23160*
X-111970Y22820*
X-111880Y22420*
X-111930Y22020*
X-112090Y21690*
X-112930Y21020*
X-113300Y20560*
X-113550Y19890*
X-113640Y19290*
X-111880*
X-110050Y22620D02*
G01X-109800Y23020D01*
X-109510Y23220*
X-109180Y23290*
X-108760Y23160*
X-108470Y22820*
X-108380Y22420*
X-108430Y22020*
X-108590Y21690*
X-109430Y21020*
X-109800Y20560*
X-110050Y19890*
X-110140Y19290*
X-108380*
X-124320Y55140D02*
G01Y59140D01*
X-123280*
X-122950Y58940*
X-122740Y58670*
X-122660Y58140*
X-122740Y57610*
X-122990Y57270*
X-123280Y57070*
X-124320*
X-123280D02*
G01X-122660Y55140D01*
X-119990D02*
G01Y59140D01*
X-120490Y58340*
Y55140D02*
G01X-119490D01*
X-117280Y58470D02*
G01X-117030Y58870D01*
X-116740Y59070*
X-116410Y59140*
X-115990Y59010*
X-115700Y58670*
X-115610Y58270*
X-115660Y57870*
X-115820Y57540*
X-116660Y56870*
X-117030Y56410*
X-117280Y55740*
X-117370Y55140*
X-115610*
X-112990D02*
G01Y59140D01*
X-113490Y58340*
Y55140D02*
G01X-112490D01*
X-132940Y89360D02*
G01X-132730Y88960D01*
X-132490Y88690*
X-132190Y88560*
X-131860Y88690*
X-131610Y88960*
X-131360Y89360*
X-131280Y89890*
Y92560*
X-128610Y88560D02*
G01Y92560D01*
X-129110Y91760*
Y88560D02*
G01X-128110D01*
X-125110Y92560D02*
G01X-125440Y92430D01*
X-125690Y92090*
X-125860Y91690*
X-125990Y91160*
X-126030Y90560*
X-125990Y89960*
X-125860Y89430*
X-125690Y89030*
X-125440Y88690*
X-125110Y88560*
X-124780Y88690*
X-124530Y89030*
X-124360Y89430*
X-124230Y89960*
X-124190Y90560*
X-124230Y91160*
X-124360Y91690*
X-124530Y92090*
X-124780Y92430*
X-125110Y92560*
X-121120Y106110D02*
G01X-121370Y106310D01*
X-121660Y106440*
X-122000*
X-122370Y106240*
X-122660Y105910*
X-122870Y105510*
X-123040Y104840*
X-123080Y104240*
X-123000Y103640*
X-122870Y103240*
X-122620Y102840*
X-122330Y102570*
X-122040Y102440*
X-121750*
X-121460Y102570*
X-121210Y102770*
X-121000Y103040*
X-118620Y102440D02*
G01X-118540Y103310D01*
X-118410Y104040*
X-118250Y104710*
X-118040Y105440*
X-117710Y106440*
X-119370*
X-115830Y105770D02*
G01X-115580Y106170D01*
X-115290Y106370*
X-114960Y106440*
X-114540Y106310*
X-114250Y105970*
X-114160Y105570*
X-114210Y105170*
X-114370Y104840*
X-115210Y104170*
X-115580Y103710*
X-115830Y103040*
X-115920Y102440*
X-114160*
X-126290Y122220D02*
G01X-130290D01*
Y123260*
X-130090Y123590*
X-129820Y123800*
X-129290Y123880*
X-128760Y123800*
X-128420Y123550*
X-128220Y123260*
Y122220*
Y123260D02*
G01X-126290Y123880D01*
Y127050D02*
G01X-130290D01*
X-127420Y125510*
Y127590*
X-126290Y130050D02*
G01X-130290D01*
X-129490Y129550*
X-126290D02*
G01Y130550D01*
X-131000Y143800D02*
G01X-127000D01*
Y145460*
Y148130D02*
G01X-127070Y148420D01*
X-127270Y148750*
X-127600Y148960*
X-128070Y149050*
X-128530Y148960*
X-128930Y148710*
X-129130Y148340*
Y147920*
X-129270Y147670*
X-129600Y147460*
X-130070Y147380*
X-130530Y147510*
X-130870Y147800*
X-131000Y148130*
X-130870Y148460*
X-130530Y148750*
X-130070Y148880*
X-129600Y148800*
X-129270Y148590*
X-129130Y148340*
Y147920*
X-128930Y147550*
X-128530Y147300*
X-128070Y147210*
X-127600Y147300*
X-127270Y147510*
X-127070Y147840*
X-127000Y148130*
X-122900Y144500D02*
G01X-118900D01*
Y146160*
X-119370Y148120D02*
G01X-119030Y148410D01*
X-118900Y148750*
X-119030Y149080*
X-119430Y149370*
X-120030Y149580*
X-120630Y149660*
X-121370*
X-121970Y149580*
X-122500Y149370*
X-122770Y149120*
X-122900Y148830*
X-122770Y148500*
X-122500Y148250*
X-122100Y148080*
X-121570Y148000*
X-121100Y148080*
X-120630Y148290*
X-120370Y148540*
X-120300Y148830*
X-120430Y149160*
X-120770Y149410*
X-121370Y149660*
X-129370Y174500D02*
G01X-129160Y174100D01*
X-128920Y173830*
X-128620Y173700*
X-128290Y173830*
X-128040Y174100*
X-127790Y174500*
X-127710Y175030*
Y177700*
X-124540Y173700D02*
G01Y177700D01*
X-126080Y174830*
X-124000*
X-115710Y78830D02*
G01Y82830D01*
X-114870*
X-114540Y82630*
X-114290Y82360*
X-114080Y81960*
X-113910Y81500*
X-113870Y80830*
X-113910Y80160*
X-114080Y79700*
X-114290Y79300*
X-114540Y79030*
X-114870Y78830*
X-115710*
X-111370D02*
G01X-111290Y79700D01*
X-111160Y80430*
X-111000Y81100*
X-110790Y81830*
X-110460Y82830*
X-112120*
X-115500Y141570D02*
G01Y145570D01*
X-114460*
X-114130Y145370*
X-113920Y145100*
X-113840Y144570*
X-113920Y144040*
X-114170Y143700*
X-114460Y143500*
X-115500*
X-114460D02*
G01X-113840Y141570D01*
X-111960Y144900D02*
G01X-111710Y145300D01*
X-111420Y145500*
X-111090Y145570*
X-110670Y145440*
X-110380Y145100*
X-110290Y144700*
X-110340Y144300*
X-110500Y143970*
X-111340Y143300*
X-111710Y142840*
X-111960Y142170*
X-112050Y141570*
X-110290*
X-108380Y142040D02*
G01X-108090Y141700D01*
X-107750Y141570*
X-107420Y141700*
X-107130Y142100*
X-106920Y142700*
X-106840Y143300*
Y144040*
X-106920Y144640*
X-107130Y145170*
X-107380Y145440*
X-107670Y145570*
X-108000Y145440*
X-108250Y145170*
X-108420Y144770*
X-108500Y144240*
X-108420Y143770*
X-108210Y143300*
X-107960Y143040*
X-107670Y142970*
X-107340Y143100*
X-107090Y143440*
X-106840Y144040*
X-104170Y145570D02*
G01X-104500Y145440D01*
X-104750Y145100*
X-104920Y144700*
X-105050Y144170*
X-105090Y143570*
X-105050Y142970*
X-104920Y142440*
X-104750Y142040*
X-104500Y141700*
X-104170Y141570*
X-103840Y141700*
X-103590Y142040*
X-103420Y142440*
X-103290Y142970*
X-103250Y143570*
X-103290Y144170*
X-103420Y144700*
X-103590Y145100*
X-103840Y145440*
X-104170Y145570*
X-115900Y147270D02*
G01Y151270D01*
X-114860*
X-114530Y151070*
X-114320Y150800*
X-114240Y150270*
X-114320Y149740*
X-114570Y149400*
X-114860Y149200*
X-115900*
X-114860D02*
G01X-114240Y147270D01*
X-112360Y150600D02*
G01X-112110Y151000D01*
X-111820Y151200*
X-111490Y151270*
X-111070Y151140*
X-110780Y150800*
X-110690Y150400*
X-110740Y150000*
X-110900Y149670*
X-111740Y149000*
X-112110Y148540*
X-112360Y147870*
X-112450Y147270*
X-110690*
X-108070D02*
G01X-107780Y147340D01*
X-107450Y147540*
X-107240Y147870*
X-107150Y148340*
X-107240Y148800*
X-107490Y149200*
X-107860Y149400*
X-108280*
X-108530Y149540*
X-108740Y149870*
X-108820Y150340*
X-108690Y150800*
X-108400Y151140*
X-108070Y151270*
X-107740Y151140*
X-107450Y150800*
X-107320Y150340*
X-107400Y149870*
X-107610Y149540*
X-107860Y149400*
X-108280*
X-108650Y149200*
X-108900Y148800*
X-108990Y148340*
X-108900Y147870*
X-108690Y147540*
X-108360Y147340*
X-108070Y147270*
X-105280Y147740D02*
G01X-104990Y147400D01*
X-104650Y147270*
X-104320Y147400*
X-104030Y147800*
X-103820Y148400*
X-103740Y149000*
Y149740*
X-103820Y150340*
X-104030Y150870*
X-104280Y151140*
X-104570Y151270*
X-104900Y151140*
X-105150Y150870*
X-105320Y150470*
X-105400Y149940*
X-105320Y149470*
X-105110Y149000*
X-104860Y148740*
X-104570Y148670*
X-104240Y148800*
X-103990Y149140*
X-103740Y149740*
X-95800Y-4710D02*
G01X-95460Y-5040D01*
X-95090Y-5240*
X-94750*
X-94420Y-5040*
X-94170Y-4710*
X-94040Y-4240*
X-94130Y-3770*
X-94340Y-3370*
X-94710Y-3110*
X-95210Y-2970*
X-95500Y-2710*
X-95630Y-2240*
X-95540Y-1770*
X-95340Y-1440*
X-95050Y-1240*
X-94750*
X-94460Y-1370*
X-94210Y-1710*
X-92670Y-1240D02*
G01X-92090Y-5240D01*
X-91420Y-1240*
X-90750Y-5240*
X-90170Y-1240*
X-87920Y-5240D02*
G01Y-1240D01*
X-88420Y-2040*
Y-5240D02*
G01X-87420D01*
X-90250Y6780D02*
G01Y8580D01*
X-91080Y10780*
X-89420D02*
G01X-90250Y8580D01*
X-87540Y10110D02*
G01X-87290Y10510D01*
X-87000Y10710*
X-86670Y10780*
X-86250Y10650*
X-85960Y10310*
X-85870Y9910*
X-85920Y9510*
X-86080Y9180*
X-86920Y8510*
X-87290Y8050*
X-87540Y7380*
X-87630Y6780*
X-85870*
X-99590Y20890D02*
G01X-99790Y20640D01*
X-99920Y20350*
Y20010*
X-99720Y19640*
X-99390Y19350*
X-98990Y19140*
X-98320Y18970*
X-97720Y18930*
X-97120Y19010*
X-96720Y19140*
X-96320Y19390*
X-96050Y19680*
X-95920Y19970*
Y20260*
X-96050Y20550*
X-96250Y20800*
X-96520Y21010*
X-96720Y22550D02*
G01X-96250Y22800D01*
X-95990Y23140*
X-95920Y23510*
X-95990Y23850*
X-96320Y24180*
X-96720Y24390*
X-97120Y24430*
X-97590Y24350*
X-97920Y24050*
X-98050Y23760*
Y23390*
Y23760D02*
G01X-98250Y24010D01*
X-98590Y24220*
X-98990Y24300*
X-99390Y24220*
X-99720Y24010*
X-99920Y23640*
X-99850Y23260*
X-99590Y22890*
X-96720Y26050D02*
G01X-96250Y26300D01*
X-95990Y26640*
X-95920Y27010*
X-95990Y27350*
X-96320Y27680*
X-96720Y27890*
X-97120Y27930*
X-97590Y27850*
X-97920Y27550*
X-98050Y27260*
Y26890*
Y27260D02*
G01X-98250Y27510D01*
X-98590Y27720*
X-98990Y27800*
X-99390Y27720*
X-99720Y27510*
X-99920Y27140*
X-99850Y26760*
X-99590Y26390*
X-85430Y38700D02*
G01X-85680Y38900D01*
X-85970Y39030*
X-86310*
X-86680Y38830*
X-86970Y38500*
X-87180Y38100*
X-87350Y37430*
X-87390Y36830*
X-87310Y36230*
X-87180Y35830*
X-86930Y35430*
X-86640Y35160*
X-86350Y35030*
X-86060*
X-85770Y35160*
X-85520Y35360*
X-85310Y35630*
X-82350Y35030D02*
G01Y39030D01*
X-83890Y36160*
X-81810*
X-80140Y36700D02*
G01X-79850Y37160D01*
X-79600Y37430*
X-79270Y37560*
X-78970Y37430*
X-78770Y37160*
X-78600Y36760*
X-78560Y36300*
X-78600Y35900*
X-78770Y35500*
X-79020Y35160*
X-79310Y35030*
X-79640Y35160*
X-79930Y35560*
X-80100Y36160*
X-80140Y36830*
X-80060Y37700*
X-79930Y38160*
X-79730Y38630*
X-79430Y38960*
X-79140Y39030*
X-78850Y38900*
X-78640Y38560*
X-94670Y35470D02*
G01X-98670D01*
Y36510*
X-98470Y36840*
X-98200Y37050*
X-97670Y37130*
X-97140Y37050*
X-96800Y36800*
X-96600Y36510*
Y35470*
Y36510D02*
G01X-94670Y37130D01*
X-95470Y38880D02*
G01X-95000Y39130D01*
X-94740Y39470*
X-94670Y39840*
X-94740Y40180*
X-95070Y40510*
X-95470Y40720*
X-95870Y40760*
X-96340Y40680*
X-96670Y40380*
X-96800Y40090*
Y39720*
Y40090D02*
G01X-97000Y40340D01*
X-97340Y40550*
X-97740Y40630*
X-98140Y40550*
X-98470Y40340*
X-98670Y39970*
X-98600Y39590*
X-98340Y39220*
X-95470Y42380D02*
G01X-95000Y42630D01*
X-94740Y42970*
X-94670Y43340*
X-94740Y43680*
X-95070Y44010*
X-95470Y44220*
X-95870Y44260*
X-96340Y44180*
X-96670Y43880*
X-96800Y43590*
Y43220*
Y43590D02*
G01X-97000Y43840D01*
X-97340Y44050*
X-97740Y44130*
X-98140Y44050*
X-98470Y43840*
X-98670Y43470*
X-98600Y43090*
X-98340Y42720*
X-84240Y65720D02*
G01Y61720D01*
X-82580*
X-79990D02*
G01X-79910Y62590D01*
X-79780Y63320*
X-79620Y63990*
X-79410Y64720*
X-79080Y65720*
X-80740*
X-89430Y147590D02*
G01Y149390D01*
X-90260Y151590*
X-88600D02*
G01X-89430Y149390D01*
X-86850Y148390D02*
G01X-86600Y147920D01*
X-86260Y147660*
X-85890Y147590*
X-85550Y147660*
X-85220Y147990*
X-85010Y148390*
X-84970Y148790*
X-85050Y149260*
X-85350Y149590*
X-85640Y149720*
X-86010*
X-85640D02*
G01X-85390Y149920D01*
X-85180Y150260*
X-85100Y150660*
X-85180Y151060*
X-85390Y151390*
X-85760Y151590*
X-86140Y151520*
X-86510Y151260*
X-80270Y-54860D02*
G01Y-50860D01*
X-79230*
X-78900Y-51060*
X-78690Y-51330*
X-78610Y-51860*
X-78690Y-52390*
X-78940Y-52730*
X-79230Y-52930*
X-80270*
X-79230D02*
G01X-78610Y-54860D01*
X-76730Y-51530D02*
G01X-76480Y-51130D01*
X-76190Y-50930*
X-75860Y-50860*
X-75440Y-50990*
X-75150Y-51330*
X-75060Y-51730*
X-75110Y-52130*
X-75270Y-52460*
X-76110Y-53130*
X-76480Y-53590*
X-76730Y-54260*
X-76820Y-54860*
X-75060*
X-72440D02*
G01X-72150Y-54790D01*
X-71820Y-54590*
X-71610Y-54260*
X-71520Y-53790*
X-71610Y-53330*
X-71860Y-52930*
X-72230Y-52730*
X-72650*
X-72900Y-52590*
X-73110Y-52260*
X-73190Y-51790*
X-73060Y-51330*
X-72770Y-50990*
X-72440Y-50860*
X-72110Y-50990*
X-71820Y-51330*
X-71690Y-51790*
X-71770Y-52260*
X-71980Y-52590*
X-72230Y-52730*
X-72650*
X-73020Y-52930*
X-73270Y-53330*
X-73360Y-53790*
X-73270Y-54260*
X-73060Y-54590*
X-72730Y-54790*
X-72440Y-54860*
X-80720Y-48680D02*
G01Y-44680D01*
X-79680*
X-79350Y-44880*
X-79140Y-45150*
X-79060Y-45680*
X-79140Y-46210*
X-79390Y-46550*
X-79680Y-46750*
X-80720*
X-79680D02*
G01X-79060Y-48680D01*
X-77180Y-45350D02*
G01X-76930Y-44950D01*
X-76640Y-44750*
X-76310Y-44680*
X-75890Y-44810*
X-75600Y-45150*
X-75510Y-45550*
X-75560Y-45950*
X-75720Y-46280*
X-76560Y-46950*
X-76930Y-47410*
X-77180Y-48080*
X-77270Y-48680*
X-75510*
X-73600Y-48210D02*
G01X-73310Y-48550D01*
X-72970Y-48680*
X-72640Y-48550*
X-72350Y-48150*
X-72140Y-47550*
X-72060Y-46950*
Y-46210*
X-72140Y-45610*
X-72350Y-45080*
X-72600Y-44810*
X-72890Y-44680*
X-73220Y-44810*
X-73470Y-45080*
X-73640Y-45480*
X-73720Y-46010*
X-73640Y-46480*
X-73430Y-46950*
X-73180Y-47210*
X-72890Y-47280*
X-72560Y-47150*
X-72310Y-46810*
X-72060Y-46210*
X-68030Y29600D02*
G01X-68280Y29800D01*
X-68570Y29930*
X-68910*
X-69280Y29730*
X-69570Y29400*
X-69780Y29000*
X-69950Y28330*
X-69990Y27730*
X-69910Y27130*
X-69780Y26730*
X-69530Y26330*
X-69240Y26060*
X-68950Y25930*
X-68660*
X-68370Y26060*
X-68120Y26260*
X-67910Y26530*
X-64950Y25930D02*
G01Y29930D01*
X-66490Y27060*
X-64410*
X-62660Y26400D02*
G01X-62370Y26060D01*
X-62030Y25930*
X-61700Y26060*
X-61410Y26460*
X-61200Y27060*
X-61120Y27660*
Y28400*
X-61200Y29000*
X-61410Y29530*
X-61660Y29800*
X-61950Y29930*
X-62280Y29800*
X-62530Y29530*
X-62700Y29130*
X-62780Y28600*
X-62700Y28130*
X-62490Y27660*
X-62240Y27400*
X-61950Y27330*
X-61620Y27460*
X-61370Y27800*
X-61120Y28400*
X-70810Y172050D02*
G01Y176050D01*
X-69970*
X-69640Y175850*
X-69390Y175580*
X-69180Y175180*
X-69010Y174720*
X-68970Y174050*
X-69010Y173380*
X-69180Y172920*
X-69390Y172520*
X-69640Y172250*
X-69970Y172050*
X-70810*
X-66390D02*
G01Y176050D01*
X-66890Y175250*
Y172050D02*
G01X-65890D01*
X-63680Y173720D02*
G01X-63390Y174180D01*
X-63140Y174450*
X-62810Y174580*
X-62510Y174450*
X-62310Y174180*
X-62140Y173780*
X-62100Y173320*
X-62140Y172920*
X-62310Y172520*
X-62560Y172180*
X-62850Y172050*
X-63180Y172180*
X-63470Y172580*
X-63640Y173180*
X-63680Y173850*
X-63600Y174720*
X-63470Y175180*
X-63270Y175650*
X-62970Y175980*
X-62680Y176050*
X-62390Y175920*
X-62180Y175580*
X-47890Y-102280D02*
G01X-51890Y-101240D01*
X-47890Y-100200*
X-49290Y-100570D02*
G01Y-101910D01*
X-52830Y-48130D02*
G01Y-44130D01*
X-51990*
X-51660Y-44330*
X-51410Y-44600*
X-51200Y-45000*
X-51030Y-45460*
X-50990Y-46130*
X-51030Y-46800*
X-51200Y-47260*
X-51410Y-47660*
X-51660Y-47930*
X-51990Y-48130*
X-52830*
X-48410D02*
G01Y-44130D01*
X-48910Y-44930*
Y-48130D02*
G01X-47910D01*
X-44990D02*
G01X-44910Y-47260D01*
X-44780Y-46530*
X-44620Y-45860*
X-44410Y-45130*
X-44080Y-44130*
X-45740*
X-54660Y-56030D02*
G01Y-52030D01*
X-53620*
X-53290Y-52230*
X-53080Y-52500*
X-53000Y-53030*
X-53080Y-53560*
X-53330Y-53900*
X-53620Y-54100*
X-54660*
X-53620D02*
G01X-53000Y-56030D01*
X-51120Y-52700D02*
G01X-50870Y-52300D01*
X-50580Y-52100*
X-50250Y-52030*
X-49830Y-52160*
X-49540Y-52500*
X-49450Y-52900*
X-49500Y-53300*
X-49660Y-53630*
X-50500Y-54300*
X-50870Y-54760*
X-51120Y-55430*
X-51210Y-56030*
X-49450*
X-47540Y-55560D02*
G01X-47250Y-55900D01*
X-46910Y-56030*
X-46580Y-55900*
X-46290Y-55500*
X-46080Y-54900*
X-46000Y-54300*
Y-53560*
X-46080Y-52960*
X-46290Y-52430*
X-46540Y-52160*
X-46830Y-52030*
X-47160Y-52160*
X-47410Y-52430*
X-47580Y-52830*
X-47660Y-53360*
X-47580Y-53830*
X-47370Y-54300*
X-47120Y-54560*
X-46830Y-54630*
X-46500Y-54500*
X-46250Y-54160*
X-46000Y-53560*
X-44250Y-55230D02*
G01X-44000Y-55700D01*
X-43660Y-55960*
X-43290Y-56030*
X-42950Y-55960*
X-42620Y-55630*
X-42410Y-55230*
X-42370Y-54830*
X-42450Y-54360*
X-42750Y-54030*
X-43040Y-53900*
X-43410*
X-43040D02*
G01X-42790Y-53700D01*
X-42580Y-53360*
X-42500Y-52960*
X-42580Y-52560*
X-42790Y-52230*
X-43160Y-52030*
X-43540Y-52100*
X-43910Y-52360*
X-55910Y-22470D02*
G01X-55700Y-22870D01*
X-55460Y-23140*
X-55160Y-23270*
X-54830Y-23140*
X-54580Y-22870*
X-54330Y-22470*
X-54250Y-21940*
Y-19270*
X-51580Y-23270D02*
G01Y-19270D01*
X-52080Y-20070*
Y-23270D02*
G01X-51080D01*
X-48790Y-22800D02*
G01X-48500Y-23140D01*
X-48160Y-23270*
X-47830Y-23140*
X-47540Y-22740*
X-47330Y-22140*
X-47250Y-21540*
Y-20800*
X-47330Y-20200*
X-47540Y-19670*
X-47790Y-19400*
X-48080Y-19270*
X-48410Y-19400*
X-48660Y-19670*
X-48830Y-20070*
X-48910Y-20600*
X-48830Y-21070*
X-48620Y-21540*
X-48370Y-21800*
X-48080Y-21870*
X-47750Y-21740*
X-47500Y-21400*
X-47250Y-20800*
X-56220Y45340D02*
G01X-56470Y45540D01*
X-56760Y45670*
X-57100*
X-57470Y45470*
X-57760Y45140*
X-57970Y44740*
X-58140Y44070*
X-58180Y43470*
X-58100Y42870*
X-57970Y42470*
X-57720Y42070*
X-57430Y41800*
X-57140Y41670*
X-56850*
X-56560Y41800*
X-56310Y42000*
X-56100Y42270*
X-53140Y41670D02*
G01Y45670D01*
X-54680Y42800*
X-52600*
X-51060Y42270D02*
G01X-50810Y41940D01*
X-50520Y41740*
X-50140Y41670*
X-49760Y41800*
X-49470Y42070*
X-49260Y42540*
X-49220Y43070*
X-49310Y43600*
X-49520Y43940*
X-49810Y44200*
X-50100Y44270*
X-50390Y44200*
X-50760Y43940*
X-50640Y45670*
X-49520*
X-61250Y75460D02*
G01Y72590D01*
X-61080Y71990*
X-60750Y71590*
X-60330Y71460*
X-59910Y71590*
X-59580Y71990*
X-59410Y72590*
Y75460*
X-56910Y71460D02*
G01X-56830Y72330D01*
X-56700Y73060*
X-56540Y73730*
X-56330Y74460*
X-56000Y75460*
X-57660*
X-57200Y145110D02*
G01Y149110D01*
X-56160*
X-55830Y148910*
X-55620Y148640*
X-55540Y148110*
X-55620Y147580*
X-55870Y147240*
X-56160Y147040*
X-57200*
X-56160D02*
G01X-55540Y145110D01*
X-52870D02*
G01Y149110D01*
X-53370Y148310*
Y145110D02*
G01X-52370D01*
X-50290Y145910D02*
G01X-50040Y145440D01*
X-49700Y145180*
X-49330Y145110*
X-48990Y145180*
X-48660Y145510*
X-48450Y145910*
X-48410Y146310*
X-48490Y146780*
X-48790Y147110*
X-49080Y147240*
X-49450*
X-49080D02*
G01X-48830Y147440D01*
X-48620Y147780*
X-48540Y148180*
X-48620Y148580*
X-48830Y148910*
X-49200Y149110*
X-49580Y149040*
X-49950Y148780*
X-45370Y145110D02*
G01Y149110D01*
X-46910Y146240*
X-44830*
X-56850Y137520D02*
G01Y141520D01*
X-55810*
X-55480Y141320*
X-55270Y141050*
X-55190Y140520*
X-55270Y139990*
X-55520Y139650*
X-55810Y139450*
X-56850*
X-55810D02*
G01X-55190Y137520D01*
X-52520D02*
G01Y141520D01*
X-53020Y140720*
Y137520D02*
G01X-52020D01*
X-49940Y138320D02*
G01X-49690Y137850D01*
X-49350Y137590*
X-48980Y137520*
X-48640Y137590*
X-48310Y137920*
X-48100Y138320*
X-48060Y138720*
X-48140Y139190*
X-48440Y139520*
X-48730Y139650*
X-49100*
X-48730D02*
G01X-48480Y139850D01*
X-48270Y140190*
X-48190Y140590*
X-48270Y140990*
X-48480Y141320*
X-48850Y141520*
X-49230Y141450*
X-49600Y141190*
X-46440Y138320D02*
G01X-46190Y137850D01*
X-45850Y137590*
X-45480Y137520*
X-45140Y137590*
X-44810Y137920*
X-44600Y138320*
X-44560Y138720*
X-44640Y139190*
X-44940Y139520*
X-45230Y139650*
X-45600*
X-45230D02*
G01X-44980Y139850D01*
X-44770Y140190*
X-44690Y140590*
X-44770Y140990*
X-44980Y141320*
X-45350Y141520*
X-45730Y141450*
X-46100Y141190*
X-49130Y180920D02*
G01Y184920D01*
X-48290*
X-47960Y184720*
X-47710Y184450*
X-47500Y184050*
X-47330Y183590*
X-47290Y182920*
X-47330Y182250*
X-47500Y181790*
X-47710Y181390*
X-47960Y181120*
X-48290Y180920*
X-49130*
X-44710D02*
G01Y184920D01*
X-45210Y184120*
Y180920D02*
G01X-44210D01*
X-41210D02*
G01Y184920D01*
X-41710Y184120*
Y180920D02*
G01X-40710D01*
X-40070Y-3110D02*
G01Y-5980D01*
X-39900Y-6580*
X-39570Y-6980*
X-39150Y-7110*
X-38730Y-6980*
X-38400Y-6580*
X-38230Y-5980*
Y-3110*
X-35650Y-7110D02*
G01Y-3110D01*
X-36150Y-3910*
Y-7110D02*
G01X-35150D01*
X-28580Y76240D02*
G01X-28830Y76440D01*
X-29120Y76570*
X-29460*
X-29830Y76370*
X-30120Y76040*
X-30330Y75640*
X-30500Y74970*
X-30540Y74370*
X-30460Y73770*
X-30330Y73370*
X-30080Y72970*
X-29790Y72700*
X-29500Y72570*
X-29210*
X-28920Y72700*
X-28670Y72900*
X-28460Y73170*
X-26920D02*
G01X-26670Y72840D01*
X-26380Y72640*
X-26000Y72570*
X-25620Y72700*
X-25330Y72970*
X-25120Y73440*
X-25080Y73970*
X-25170Y74500*
X-25380Y74840*
X-25670Y75100*
X-25960Y75170*
X-26250Y75100*
X-26620Y74840*
X-26500Y76570*
X-25380*
X-22500D02*
G01X-22830Y76440D01*
X-23080Y76100*
X-23250Y75700*
X-23380Y75170*
X-23420Y74570*
X-23380Y73970*
X-23250Y73440*
X-23080Y73040*
X-22830Y72700*
X-22500Y72570*
X-22170Y72700*
X-21920Y73040*
X-21750Y73440*
X-21620Y73970*
X-21580Y74570*
X-21620Y75170*
X-21750Y75700*
X-21920Y76100*
X-22170Y76440*
X-22500Y76570*
X-31080Y85910D02*
G01X-31330Y86110D01*
X-31620Y86240*
X-31960*
X-32330Y86040*
X-32620Y85710*
X-32830Y85310*
X-33000Y84640*
X-33040Y84040*
X-32960Y83440*
X-32830Y83040*
X-32580Y82640*
X-32290Y82370*
X-32000Y82240*
X-31710*
X-31420Y82370*
X-31170Y82570*
X-30960Y82840*
X-28580Y82240D02*
G01X-28500Y83110D01*
X-28370Y83840*
X-28210Y84510*
X-28000Y85240*
X-27670Y86240*
X-29330*
X-25000D02*
G01X-25330Y86110D01*
X-25580Y85770*
X-25750Y85370*
X-25880Y84840*
X-25920Y84240*
X-25880Y83640*
X-25750Y83110*
X-25580Y82710*
X-25330Y82370*
X-25000Y82240*
X-24670Y82370*
X-24420Y82710*
X-24250Y83110*
X-24120Y83640*
X-24080Y84240*
X-24120Y84840*
X-24250Y85370*
X-24420Y85770*
X-24670Y86110*
X-25000Y86240*
X-18270Y-35920D02*
G01X-18520Y-35720D01*
X-18810Y-35590*
X-19150*
X-19520Y-35790*
X-19810Y-36120*
X-20020Y-36520*
X-20190Y-37190*
X-20230Y-37790*
X-20150Y-38390*
X-20020Y-38790*
X-19770Y-39190*
X-19480Y-39460*
X-19190Y-39590*
X-18900*
X-18610Y-39460*
X-18360Y-39260*
X-18150Y-38990*
X-16610D02*
G01X-16360Y-39320D01*
X-16070Y-39520*
X-15690Y-39590*
X-15310Y-39460*
X-15020Y-39190*
X-14810Y-38720*
X-14770Y-38190*
X-14860Y-37660*
X-15070Y-37320*
X-15360Y-37060*
X-15650Y-36990*
X-15940Y-37060*
X-16310Y-37320*
X-16190Y-35590*
X-15070*
X-11690Y-39590D02*
G01Y-35590D01*
X-13230Y-38460*
X-11150*
X-26810Y69310D02*
G01X-27060Y69510D01*
X-27350Y69640*
X-27690*
X-28060Y69440*
X-28350Y69110*
X-28560Y68710*
X-28730Y68040*
X-28770Y67440*
X-28690Y66840*
X-28560Y66440*
X-28310Y66040*
X-28020Y65770*
X-27730Y65640*
X-27440*
X-27150Y65770*
X-26900Y65970*
X-26690Y66240*
X-23730Y65640D02*
G01Y69640D01*
X-25270Y66770*
X-23190*
X-20730Y65640D02*
G01X-20440Y65710D01*
X-20110Y65910*
X-19900Y66240*
X-19810Y66710*
X-19900Y67170*
X-20150Y67570*
X-20520Y67770*
X-20940*
X-21190Y67910*
X-21400Y68240*
X-21480Y68710*
X-21350Y69170*
X-21060Y69510*
X-20730Y69640*
X-20400Y69510*
X-20110Y69170*
X-19980Y68710*
X-20060Y68240*
X-20270Y67910*
X-20520Y67770*
X-20940*
X-21310Y67570*
X-21560Y67170*
X-21650Y66710*
X-21560Y66240*
X-21350Y65910*
X-21020Y65710*
X-20730Y65640*
X-27830Y92880D02*
G01X-28080Y93080D01*
X-28370Y93210*
X-28710*
X-29080Y93010*
X-29370Y92680*
X-29580Y92280*
X-29750Y91610*
X-29790Y91010*
X-29710Y90410*
X-29580Y90010*
X-29330Y89610*
X-29040Y89340*
X-28750Y89210*
X-28460*
X-28170Y89340*
X-27920Y89540*
X-27710Y89810*
X-25250Y89210D02*
G01Y93210D01*
X-25750Y92410*
Y89210D02*
G01X-24750D01*
X-21750D02*
G01Y93210D01*
X-22250Y92410*
Y89210D02*
G01X-21250D01*
X-17750D02*
G01Y93210D01*
X-19290Y90340*
X-17210*
X-22520Y102540D02*
G01X-22310Y102140D01*
X-22070Y101870*
X-21770Y101740*
X-21440Y101870*
X-21190Y102140*
X-20940Y102540*
X-20860Y103070*
Y105740*
X-18980Y105070D02*
G01X-18730Y105470D01*
X-18440Y105670*
X-18110Y105740*
X-17690Y105610*
X-17400Y105270*
X-17310Y104870*
X-17360Y104470*
X-17520Y104140*
X-18360Y103470*
X-18730Y103010*
X-18980Y102340*
X-19070Y101740*
X-17310*
X-14690D02*
G01Y105740D01*
X-15190Y104940*
Y101740D02*
G01X-14190D01*
X-23930Y131400D02*
G01Y135400D01*
X-23090*
X-22760Y135200*
X-22510Y134930*
X-22300Y134530*
X-22130Y134070*
X-22090Y133400*
X-22130Y132730*
X-22300Y132270*
X-22510Y131870*
X-22760Y131600*
X-23090Y131400*
X-23930*
X-19510D02*
G01Y135400D01*
X-20010Y134600*
Y131400D02*
G01X-19010D01*
X-16930Y132200D02*
G01X-16680Y131730D01*
X-16340Y131470*
X-15970Y131400*
X-15630Y131470*
X-15300Y131800*
X-15090Y132200*
X-15050Y132600*
X-15130Y133070*
X-15430Y133400*
X-15720Y133530*
X-16090*
X-15720D02*
G01X-15470Y133730D01*
X-15260Y134070*
X-15180Y134470*
X-15260Y134870*
X-15470Y135200*
X-15840Y135400*
X-16220Y135330*
X-16590Y135070*
X-23460Y150770D02*
G01Y154770D01*
X-22620*
X-22290Y154570*
X-22040Y154300*
X-21830Y153900*
X-21660Y153440*
X-21620Y152770*
X-21660Y152100*
X-21830Y151640*
X-22040Y151240*
X-22290Y150970*
X-22620Y150770*
X-23460*
X-19040D02*
G01Y154770D01*
X-19540Y153970*
Y150770D02*
G01X-18540D01*
X-15040D02*
G01Y154770D01*
X-16580Y151900*
X-14500*
X-11100Y174210D02*
G01X-11350Y174410D01*
X-11640Y174540*
X-11980*
X-12350Y174340*
X-12640Y174010*
X-12850Y173610*
X-13020Y172940*
X-13060Y172340*
X-12980Y171740*
X-12850Y171340*
X-12600Y170940*
X-12310Y170670*
X-12020Y170540*
X-11730*
X-11440Y170670*
X-11190Y170870*
X-10980Y171140*
X-8600Y170540D02*
G01X-8520Y171410D01*
X-8390Y172140*
X-8230Y172810*
X-8020Y173540*
X-7690Y174540*
X-9350*
X-5940Y171340D02*
G01X-5690Y170870D01*
X-5350Y170610*
X-4980Y170540*
X-4640Y170610*
X-4310Y170940*
X-4100Y171340*
X-4060Y171740*
X-4140Y172210*
X-4440Y172540*
X-4730Y172670*
X-5100*
X-4730D02*
G01X-4480Y172870D01*
X-4270Y173210*
X-4190Y173610*
X-4270Y174010*
X-4480Y174340*
X-4850Y174540*
X-5230Y174470*
X-5600Y174210*
X-27440Y173560D02*
G01X-27690Y173760D01*
X-27980Y173890*
X-28320*
X-28690Y173690*
X-28980Y173360*
X-29190Y172960*
X-29360Y172290*
X-29400Y171690*
X-29320Y171090*
X-29190Y170690*
X-28940Y170290*
X-28650Y170020*
X-28360Y169890*
X-28070*
X-27780Y170020*
X-27530Y170220*
X-27320Y170490*
X-24360Y169890D02*
G01Y173890D01*
X-25900Y171020*
X-23820*
X-20860Y169890D02*
G01Y173890D01*
X-22400Y171020*
X-20320*
X-28040Y179270D02*
G01X-28290Y179470D01*
X-28580Y179600*
X-28920*
X-29290Y179400*
X-29580Y179070*
X-29790Y178670*
X-29960Y178000*
X-30000Y177400*
X-29920Y176800*
X-29790Y176400*
X-29540Y176000*
X-29250Y175730*
X-28960Y175600*
X-28670*
X-28380Y175730*
X-28130Y175930*
X-27920Y176200*
X-24960Y175600D02*
G01Y179600D01*
X-26500Y176730*
X-24420*
X-22880Y176400D02*
G01X-22630Y175930D01*
X-22290Y175670*
X-21920Y175600*
X-21580Y175670*
X-21250Y176000*
X-21040Y176400*
X-21000Y176800*
X-21080Y177270*
X-21380Y177600*
X-21670Y177730*
X-22040*
X-21670D02*
G01X-21420Y177930D01*
X-21210Y178270*
X-21130Y178670*
X-21210Y179070*
X-21420Y179400*
X-21790Y179600*
X-22170Y179530*
X-22540Y179270*
X-10090Y-65800D02*
G01X-9880Y-66200D01*
X-9640Y-66470*
X-9340Y-66600*
X-9010Y-66470*
X-8760Y-66200*
X-8510Y-65800*
X-8430Y-65270*
Y-62600*
X-5760Y-66600D02*
G01X-5470Y-66530D01*
X-5140Y-66330*
X-4930Y-66000*
X-4840Y-65530*
X-4930Y-65070*
X-5180Y-64670*
X-5550Y-64470*
X-5970*
X-6220Y-64330*
X-6430Y-64000*
X-6510Y-63530*
X-6380Y-63070*
X-6090Y-62730*
X-5760Y-62600*
X-5430Y-62730*
X-5140Y-63070*
X-5010Y-63530*
X-5090Y-64000*
X-5300Y-64330*
X-5550Y-64470*
X-5970*
X-6340Y-64670*
X-6590Y-65070*
X-6680Y-65530*
X-6590Y-66000*
X-6380Y-66330*
X-6050Y-66530*
X-5760Y-66600*
X-5550Y-39260D02*
G01Y-35260D01*
X-4710*
X-4380Y-35460*
X-4130Y-35730*
X-3920Y-36130*
X-3750Y-36590*
X-3710Y-37260*
X-3750Y-37930*
X-3920Y-38390*
X-4130Y-38790*
X-4380Y-39060*
X-4710Y-39260*
X-5550*
X-1130D02*
G01Y-35260D01*
X-1630Y-36060*
Y-39260D02*
G01X-630D01*
X1580Y-35930D02*
G01X1830Y-35530D01*
X2120Y-35330*
X2450Y-35260*
X2870Y-35390*
X3160Y-35730*
X3250Y-36130*
X3200Y-36530*
X3040Y-36860*
X2200Y-37530*
X1830Y-37990*
X1580Y-38660*
X1490Y-39260*
X3250*
X390Y150790D02*
G01X600Y150390D01*
X840Y150120*
X1140Y149990*
X1470Y150120*
X1720Y150390*
X1970Y150790*
X2050Y151320*
Y153990*
X4720Y149990D02*
G01Y153990D01*
X4220Y153190*
Y149990D02*
G01X5220D01*
X8140D02*
G01X8220Y150860D01*
X8350Y151590*
X8510Y152260*
X8720Y152990*
X9050Y153990*
X7390*
X1240Y142500D02*
G01X990Y142700D01*
X700Y142830*
X360*
X-10Y142630*
X-300Y142300*
X-510Y141900*
X-680Y141230*
X-720Y140630*
X-640Y140030*
X-510Y139630*
X-260Y139230*
X30Y138960*
X320Y138830*
X610*
X900Y138960*
X1150Y139160*
X1360Y139430*
X3030Y142160D02*
G01X3280Y142560D01*
X3570Y142760*
X3900Y142830*
X4320Y142700*
X4610Y142360*
X4700Y141960*
X4650Y141560*
X4490Y141230*
X3650Y140560*
X3280Y140100*
X3030Y139430*
X2940Y138830*
X4700*
X7320D02*
G01Y142830D01*
X6820Y142030*
Y138830D02*
G01X7820D01*
X3380Y171540D02*
G01Y172540D01*
X2510Y172000D02*
G01X4240D01*
X11890Y-46210D02*
G01X7890D01*
Y-45170*
X8090Y-44840*
X8360Y-44630*
X8890Y-44550*
X9420Y-44630*
X9760Y-44880*
X9960Y-45170*
Y-46210*
Y-45170D02*
G01X11890Y-44550D01*
X11090Y-42800D02*
G01X11560Y-42550D01*
X11820Y-42210*
X11890Y-41840*
X11820Y-41500*
X11490Y-41170*
X11090Y-40960*
X10690Y-40920*
X10220Y-41000*
X9890Y-41300*
X9760Y-41590*
Y-41960*
Y-41590D02*
G01X9560Y-41340D01*
X9220Y-41130*
X8820Y-41050*
X8420Y-41130*
X8090Y-41340*
X7890Y-41710*
X7960Y-42090*
X8220Y-42460*
X11890Y-37880D02*
G01X7890D01*
X10760Y-39420*
Y-37340*
X19860Y-58740D02*
G01Y-54740D01*
X20900*
X21230Y-54940*
X21440Y-55210*
X21520Y-55740*
X21440Y-56270*
X21190Y-56610*
X20900Y-56810*
X19860*
X20900D02*
G01X21520Y-58740D01*
X24190D02*
G01Y-54740D01*
X23690Y-55540*
Y-58740D02*
G01X24690D01*
X26900Y-55410D02*
G01X27150Y-55010D01*
X27440Y-54810*
X27770Y-54740*
X28190Y-54870*
X28480Y-55210*
X28570Y-55610*
X28520Y-56010*
X28360Y-56340*
X27520Y-57010*
X27150Y-57470*
X26900Y-58140*
X26810Y-58740*
X28570*
X21530Y-39110D02*
G01Y-35110D01*
X22570*
X22900Y-35310*
X23110Y-35580*
X23190Y-36110*
X23110Y-36640*
X22860Y-36980*
X22570Y-37180*
X21530*
X22570D02*
G01X23190Y-39110D01*
X25860D02*
G01Y-35110D01*
X25360Y-35910*
Y-39110D02*
G01X26360D01*
X29360D02*
G01Y-35110D01*
X28860Y-35910*
Y-39110D02*
G01X29860D01*
X7910Y170490D02*
G01Y174490D01*
X8750*
X9080Y174290*
X9330Y174020*
X9540Y173620*
X9710Y173160*
X9750Y172490*
X9710Y171820*
X9540Y171360*
X9330Y170960*
X9080Y170690*
X8750Y170490*
X7910*
X11540Y173820D02*
G01X11790Y174220D01*
X12080Y174420*
X12410Y174490*
X12830Y174360*
X13120Y174020*
X13210Y173620*
X13160Y173220*
X13000Y172890*
X12160Y172220*
X11790Y171760*
X11540Y171090*
X11450Y170490*
X13210*
X19990Y177690D02*
G01X15990D01*
Y178730*
X16190Y179060*
X16460Y179270*
X16990Y179350*
X17520Y179270*
X17860Y179020*
X18060Y178730*
Y177690*
Y178730D02*
G01X19990Y179350D01*
Y182020D02*
G01X15990D01*
X16790Y181520*
X19990D02*
G01Y182520D01*
X19190Y184600D02*
G01X19660Y184850D01*
X19920Y185190*
X19990Y185560*
X19920Y185900*
X19590Y186230*
X19190Y186440*
X18790Y186480*
X18320Y186400*
X17990Y186100*
X17860Y185810*
Y185440*
Y185810D02*
G01X17660Y186060D01*
X17320Y186270*
X16920Y186350*
X16520Y186270*
X16190Y186060*
X15990Y185690*
X16060Y185310*
X16320Y184940*
X16660Y188230D02*
G01X16260Y188480D01*
X16060Y188770*
X15990Y189100*
X16120Y189520*
X16460Y189810*
X16860Y189900*
X17260Y189850*
X17590Y189690*
X18260Y188850*
X18720Y188480*
X19390Y188230*
X19990Y188140*
Y189900*
X34620Y-39880D02*
G01X34830Y-40280D01*
X35070Y-40550*
X35370Y-40680*
X35700Y-40550*
X35950Y-40280*
X36200Y-39880*
X36280Y-39350*
Y-36680*
X38950Y-40680D02*
G01Y-36680D01*
X38450Y-37480*
Y-40680D02*
G01X39450D01*
X41530Y-40080D02*
G01X41780Y-40410D01*
X42070Y-40610*
X42450Y-40680*
X42830Y-40550*
X43120Y-40280*
X43330Y-39810*
X43370Y-39280*
X43280Y-38750*
X43070Y-38410*
X42780Y-38150*
X42490Y-38080*
X42200Y-38150*
X41830Y-38410*
X41950Y-36680*
X43070*
X42140Y149930D02*
G01X42340Y150180D01*
X42470Y150470*
Y150810*
X42270Y151180*
X41940Y151470*
X41540Y151680*
X40870Y151850*
X40270Y151890*
X39670Y151810*
X39270Y151680*
X38870Y151430*
X38600Y151140*
X38470Y150850*
Y150560*
X38600Y150270*
X38800Y150020*
X39070Y149810*
X41800Y148140D02*
G01X42200Y147890D01*
X42400Y147600*
X42470Y147270*
X42340Y146850*
X42000Y146560*
X41600Y146470*
X41200Y146520*
X40870Y146680*
X40200Y147520*
X39740Y147890*
X39070Y148140*
X38470Y148230*
Y146470*
X41800Y144640D02*
G01X42200Y144390D01*
X42400Y144100*
X42470Y143770*
X42340Y143350*
X42000Y143060*
X41600Y142970*
X41200Y143020*
X40870Y143180*
X40200Y144020*
X39740Y144390*
X39070Y144640*
X38470Y144730*
Y142970*
X53890Y145390D02*
G01X54090Y145640D01*
X54220Y145930*
Y146270*
X54020Y146640*
X53690Y146930*
X53290Y147140*
X52620Y147310*
X52020Y147350*
X51420Y147270*
X51020Y147140*
X50620Y146890*
X50350Y146600*
X50220Y146310*
Y146020*
X50350Y145730*
X50550Y145480*
X50820Y145270*
X50690Y143520D02*
G01X50350Y143230D01*
X50220Y142890*
X50350Y142560*
X50750Y142270*
X51350Y142060*
X51950Y141980*
X52690*
X53290Y142060*
X53820Y142270*
X54090Y142520*
X54220Y142810*
X54090Y143140*
X53820Y143390*
X53420Y143560*
X52890Y143640*
X52420Y143560*
X51950Y143350*
X51690Y143100*
X51620Y142810*
X51750Y142480*
X52090Y142230*
X52690Y141980*
X54350Y170830D02*
G01Y174830D01*
X55940D02*
G01X54350Y172360D01*
X56190Y170830D02*
G01X55060Y173500D01*
X58770Y170830D02*
G01Y174830D01*
X58270Y174030*
Y170830D02*
G01X59270D01*
X70980Y-22500D02*
G01X71190Y-22900D01*
X71430Y-23170*
X71730Y-23300*
X72060Y-23170*
X72310Y-22900*
X72560Y-22500*
X72640Y-21970*
Y-19300*
X75310Y-23300D02*
G01Y-19300D01*
X74810Y-20100*
Y-23300D02*
G01X75810D01*
X78810D02*
G01X79100Y-23230D01*
X79430Y-23030*
X79640Y-22700*
X79730Y-22230*
X79640Y-21770*
X79390Y-21370*
X79020Y-21170*
X78600*
X78350Y-21030*
X78140Y-20700*
X78060Y-20230*
X78190Y-19770*
X78480Y-19430*
X78810Y-19300*
X79140Y-19430*
X79430Y-19770*
X79560Y-20230*
X79480Y-20700*
X79270Y-21030*
X79020Y-21170*
X78600*
X78230Y-21370*
X77980Y-21770*
X77890Y-22230*
X77980Y-22700*
X78190Y-23030*
X78520Y-23230*
X78810Y-23300*
X69940Y147600D02*
G01X70140Y147850D01*
X70270Y148140*
Y148480*
X70070Y148850*
X69740Y149140*
X69340Y149350*
X68670Y149520*
X68070Y149560*
X67470Y149480*
X67070Y149350*
X66670Y149100*
X66400Y148810*
X66270Y148520*
Y148230*
X66400Y147940*
X66600Y147690*
X66870Y147480*
X69600Y145810D02*
G01X70000Y145560D01*
X70200Y145270*
X70270Y144940*
X70140Y144520*
X69800Y144230*
X69400Y144140*
X69000Y144190*
X68670Y144350*
X68000Y145190*
X67540Y145560*
X66870Y145810*
X66270Y145900*
Y144140*
X67070Y142440D02*
G01X66600Y142190D01*
X66340Y141850*
X66270Y141480*
X66340Y141140*
X66670Y140810*
X67070Y140600*
X67470Y140560*
X67940Y140640*
X68270Y140940*
X68400Y141230*
Y141600*
Y141230D02*
G01X68600Y140980D01*
X68940Y140770*
X69340Y140690*
X69740Y140770*
X70070Y140980*
X70270Y141350*
X70200Y141730*
X69940Y142100*
X88940Y81280D02*
G01X88690Y81480D01*
X88400Y81610*
X88060*
X87690Y81410*
X87400Y81080*
X87190Y80680*
X87020Y80010*
X86980Y79410*
X87060Y78810*
X87190Y78410*
X87440Y78010*
X87730Y77740*
X88020Y77610*
X88310*
X88600Y77740*
X88850Y77940*
X89060Y78210*
X91520Y77610D02*
G01Y81610D01*
X91020Y80810*
Y77610D02*
G01X92020D01*
X94310Y78080D02*
G01X94600Y77740D01*
X94940Y77610*
X95270Y77740*
X95560Y78140*
X95770Y78740*
X95850Y79340*
Y80080*
X95770Y80680*
X95560Y81210*
X95310Y81480*
X95020Y81610*
X94690Y81480*
X94440Y81210*
X94270Y80810*
X94190Y80280*
X94270Y79810*
X94480Y79340*
X94730Y79080*
X95020Y79010*
X95350Y79140*
X95600Y79480*
X95850Y80080*
X80410Y127900D02*
G01Y125030D01*
X80580Y124430*
X80910Y124030*
X81330Y123900*
X81750Y124030*
X82080Y124430*
X82250Y125030*
Y127900*
X85330Y123900D02*
G01Y127900D01*
X83790Y125030*
X85870*
X88320Y141880D02*
G01X88120Y141630D01*
X87990Y141340*
Y141000*
X88190Y140630*
X88520Y140340*
X88920Y140130*
X89590Y139960*
X90190Y139920*
X90790Y140000*
X91190Y140130*
X91590Y140380*
X91860Y140670*
X91990Y140960*
Y141250*
X91860Y141540*
X91660Y141790*
X91390Y142000*
X88660Y143670D02*
G01X88260Y143920D01*
X88060Y144210*
X87990Y144540*
X88120Y144960*
X88460Y145250*
X88860Y145340*
X89260Y145290*
X89590Y145130*
X90260Y144290*
X90720Y143920*
X91390Y143670*
X91990Y143580*
Y145340*
Y148460D02*
G01X87990D01*
X90860Y146920*
Y149000*
X83640Y171550D02*
G01X83850Y171150D01*
X84090Y170880*
X84390Y170750*
X84720Y170880*
X84970Y171150*
X85220Y171550*
X85300Y172080*
Y174750*
X87180Y174080D02*
G01X87430Y174480D01*
X87720Y174680*
X88050Y174750*
X88470Y174620*
X88760Y174280*
X88850Y173880*
X88800Y173480*
X88640Y173150*
X87800Y172480*
X87430Y172020*
X87180Y171350*
X87090Y170750*
X88850*
X91470Y174750D02*
G01X91140Y174620D01*
X90890Y174280*
X90720Y173880*
X90590Y173350*
X90550Y172750*
X90590Y172150*
X90720Y171620*
X90890Y171220*
X91140Y170880*
X91470Y170750*
X91800Y170880*
X92050Y171220*
X92220Y171620*
X92350Y172150*
X92390Y172750*
X92350Y173350*
X92220Y173880*
X92050Y174280*
X91800Y174620*
X91470Y174750*
X95600Y-40230D02*
G01X95810Y-40630D01*
X96050Y-40900*
X96350Y-41030*
X96680Y-40900*
X96930Y-40630*
X97180Y-40230*
X97260Y-39700*
Y-37030*
X99930Y-41030D02*
G01Y-37030D01*
X99430Y-37830*
Y-41030D02*
G01X100430D01*
X102640Y-39360D02*
G01X102930Y-38900D01*
X103180Y-38630*
X103510Y-38500*
X103810Y-38630*
X104010Y-38900*
X104180Y-39300*
X104220Y-39760*
X104180Y-40160*
X104010Y-40560*
X103760Y-40900*
X103470Y-41030*
X103140Y-40900*
X102850Y-40500*
X102680Y-39900*
X102640Y-39230*
X102720Y-38360*
X102850Y-37900*
X103050Y-37430*
X103350Y-37100*
X103640Y-37030*
X103930Y-37160*
X104140Y-37500*
X108100Y-36000D02*
G01X108310Y-36400D01*
X108550Y-36670*
X108850Y-36800*
X109180Y-36670*
X109430Y-36400*
X109680Y-36000*
X109760Y-35470*
Y-32800*
X111640Y-33470D02*
G01X111890Y-33070D01*
X112180Y-32870*
X112510Y-32800*
X112930Y-32930*
X113220Y-33270*
X113310Y-33670*
X113260Y-34070*
X113100Y-34400*
X112260Y-35070*
X111890Y-35530*
X111640Y-36200*
X111550Y-36800*
X113310*
X109210Y-12060D02*
G01X105210D01*
Y-11020*
X105410Y-10690*
X105680Y-10480*
X106210Y-10400*
X106740Y-10480*
X107080Y-10730*
X107280Y-11020*
Y-12060*
Y-11020D02*
G01X109210Y-10400D01*
X105880Y-8520D02*
G01X105480Y-8270D01*
X105280Y-7980*
X105210Y-7650*
X105340Y-7230*
X105680Y-6940*
X106080Y-6850*
X106480Y-6900*
X106810Y-7060*
X107480Y-7900*
X107940Y-8270*
X108610Y-8520*
X109210Y-8610*
Y-6850*
X105880Y-5020D02*
G01X105480Y-4770D01*
X105280Y-4480*
X105210Y-4150*
X105340Y-3730*
X105680Y-3440*
X106080Y-3350*
X106480Y-3400*
X106810Y-3560*
X107480Y-4400*
X107940Y-4770*
X108610Y-5020*
X109210Y-5110*
Y-3350*
X103410Y13270D02*
G01Y9270D01*
X105070*
X107740D02*
G01Y13270D01*
X107240Y12470*
Y9270D02*
G01X108240D01*
X111740D02*
G01Y13270D01*
X110200Y10400*
X112280*
X103560Y33430D02*
G01X99560D01*
Y34470*
X99760Y34800*
X100030Y35010*
X100560Y35090*
X101090Y35010*
X101430Y34760*
X101630Y34470*
Y33430*
Y34470D02*
G01X103560Y35090D01*
X103090Y37050D02*
G01X103430Y37340D01*
X103560Y37680*
X103430Y38010*
X103030Y38300*
X102430Y38510*
X101830Y38590*
X101090*
X100490Y38510*
X99960Y38300*
X99690Y38050*
X99560Y37760*
X99690Y37430*
X99960Y37180*
X100360Y37010*
X100890Y36930*
X101360Y37010*
X101830Y37220*
X102090Y37470*
X102160Y37760*
X102030Y38090*
X101690Y38340*
X101090Y38590*
X109940Y33230D02*
G01X105940D01*
Y34270*
X106140Y34600*
X106410Y34810*
X106940Y34890*
X107470Y34810*
X107810Y34560*
X108010Y34270*
Y33230*
Y34270D02*
G01X109940Y34890D01*
Y37560D02*
G01X105940D01*
X106740Y37060*
X109940D02*
G01Y38060D01*
X105940Y41060D02*
G01X106070Y40730D01*
X106410Y40480*
X106810Y40310*
X107340Y40180*
X107940Y40140*
X108540Y40180*
X109070Y40310*
X109470Y40480*
X109810Y40730*
X109940Y41060*
X109810Y41390*
X109470Y41640*
X109070Y41810*
X108540Y41940*
X107940Y41980*
X107340Y41940*
X106810Y41810*
X106410Y41640*
X106070Y41390*
X105940Y41060*
X108430Y87100D02*
G01Y91100D01*
X109470*
X109800Y90900*
X110010Y90630*
X110090Y90100*
X110010Y89570*
X109760Y89230*
X109470Y89030*
X108430*
X109470D02*
G01X110090Y87100D01*
X111840Y87900D02*
G01X112090Y87430D01*
X112430Y87170*
X112800Y87100*
X113140Y87170*
X113470Y87500*
X113680Y87900*
X113720Y88300*
X113640Y88770*
X113340Y89100*
X113050Y89230*
X112680*
X113050D02*
G01X113300Y89430D01*
X113510Y89770*
X113590Y90170*
X113510Y90570*
X113300Y90900*
X112930Y91100*
X112550Y91030*
X112180Y90770*
X115470Y90430D02*
G01X115720Y90830D01*
X116010Y91030*
X116340Y91100*
X116760Y90970*
X117050Y90630*
X117140Y90230*
X117090Y89830*
X116930Y89500*
X116090Y88830*
X115720Y88370*
X115470Y87700*
X115380Y87100*
X117140*
X99810Y121080D02*
G01Y125080D01*
X100850*
X101180Y124880*
X101390Y124610*
X101470Y124080*
X101390Y123550*
X101140Y123210*
X100850Y123010*
X99810*
X100850D02*
G01X101470Y121080D01*
X103220Y121880D02*
G01X103470Y121410D01*
X103810Y121150*
X104180Y121080*
X104520Y121150*
X104850Y121480*
X105060Y121880*
X105100Y122280*
X105020Y122750*
X104720Y123080*
X104430Y123210*
X104060*
X104430D02*
G01X104680Y123410D01*
X104890Y123750*
X104970Y124150*
X104890Y124550*
X104680Y124880*
X104310Y125080*
X103930Y125010*
X103560Y124750*
X126750Y-18600D02*
G01X126500Y-18400D01*
X126210Y-18270*
X125870*
X125500Y-18470*
X125210Y-18800*
X125000Y-19200*
X124830Y-19870*
X124790Y-20470*
X124870Y-21070*
X125000Y-21470*
X125250Y-21870*
X125540Y-22140*
X125830Y-22270*
X126120*
X126410Y-22140*
X126660Y-21940*
X126870Y-21670*
X128540Y-18940D02*
G01X128790Y-18540D01*
X129080Y-18340*
X129410Y-18270*
X129830Y-18400*
X130120Y-18740*
X130210Y-19140*
X130160Y-19540*
X130000Y-19870*
X129160Y-20540*
X128790Y-21000*
X128540Y-21670*
X128450Y-22270*
X130210*
X132040Y-20600D02*
G01X132330Y-20140D01*
X132580Y-19870*
X132910Y-19740*
X133210Y-19870*
X133410Y-20140*
X133580Y-20540*
X133620Y-21000*
X133580Y-21400*
X133410Y-21800*
X133160Y-22140*
X132870Y-22270*
X132540Y-22140*
X132250Y-21740*
X132080Y-21140*
X132040Y-20470*
X132120Y-19600*
X132250Y-19140*
X132450Y-18670*
X132750Y-18340*
X133040Y-18270*
X133330Y-18400*
X133540Y-18740*
X111780Y-12380D02*
G01Y-8380D01*
X112820*
X113150Y-8580*
X113360Y-8850*
X113440Y-9380*
X113360Y-9910*
X113110Y-10250*
X112820Y-10450*
X111780*
X112820D02*
G01X113440Y-12380D01*
X115320Y-9050D02*
G01X115570Y-8650D01*
X115860Y-8450*
X116190Y-8380*
X116610Y-8510*
X116900Y-8850*
X116990Y-9250*
X116940Y-9650*
X116780Y-9980*
X115940Y-10650*
X115570Y-11110*
X115320Y-11780*
X115230Y-12380*
X116990*
X118690Y-11580D02*
G01X118940Y-12050D01*
X119280Y-12310*
X119650Y-12380*
X119990Y-12310*
X120320Y-11980*
X120530Y-11580*
X120570Y-11180*
X120490Y-10710*
X120190Y-10380*
X119900Y-10250*
X119530*
X119900D02*
G01X120150Y-10050D01*
X120360Y-9710*
X120440Y-9310*
X120360Y-8910*
X120150Y-8580*
X119780Y-8380*
X119400Y-8450*
X119030Y-8710*
X126110Y-9890D02*
G01X122110D01*
Y-8850*
X122310Y-8520*
X122580Y-8310*
X123110Y-8230*
X123640Y-8310*
X123980Y-8560*
X124180Y-8850*
Y-9890*
Y-8850D02*
G01X126110Y-8230D01*
X122780Y-6350D02*
G01X122380Y-6100D01*
X122180Y-5810*
X122110Y-5480*
X122240Y-5060*
X122580Y-4770*
X122980Y-4680*
X123380Y-4730*
X123710Y-4890*
X124380Y-5730*
X124840Y-6100*
X125510Y-6350*
X126110Y-6440*
Y-4680*
X125510Y-2980D02*
G01X125840Y-2730D01*
X126040Y-2440*
X126110Y-2060*
X125980Y-1680*
X125710Y-1390*
X125240Y-1180*
X124710Y-1140*
X124180Y-1230*
X123840Y-1440*
X123580Y-1730*
X123510Y-2020*
X123580Y-2310*
X123840Y-2680*
X122110Y-2560*
Y-1440*
X122210Y10250D02*
G01X122010Y10000D01*
X121880Y9710*
Y9370*
X122080Y9000*
X122410Y8710*
X122810Y8500*
X123480Y8330*
X124080Y8290*
X124680Y8370*
X125080Y8500*
X125480Y8750*
X125750Y9040*
X125880Y9330*
Y9620*
X125750Y9910*
X125550Y10160*
X125280Y10370*
X125880Y12830D02*
G01X125810Y13120D01*
X125610Y13450*
X125280Y13660*
X124810Y13750*
X124350Y13660*
X123950Y13410*
X123750Y13040*
Y12620*
X123610Y12370*
X123280Y12160*
X122810Y12080*
X122350Y12210*
X122010Y12500*
X121880Y12830*
X122010Y13160*
X122350Y13450*
X122810Y13580*
X123280Y13500*
X123610Y13290*
X123750Y13040*
Y12620*
X123950Y12250*
X124350Y12000*
X124810Y11910*
X125280Y12000*
X125610Y12210*
X125810Y12540*
X125880Y12830*
X113750Y36190D02*
G01X113550Y35940D01*
X113420Y35650*
Y35310*
X113620Y34940*
X113950Y34650*
X114350Y34440*
X115020Y34270*
X115620Y34230*
X116220Y34310*
X116620Y34440*
X117020Y34690*
X117290Y34980*
X117420Y35270*
Y35560*
X117290Y35850*
X117090Y36100*
X116820Y36310*
X115750Y37980D02*
G01X115290Y38270D01*
X115020Y38520*
X114890Y38850*
X115020Y39150*
X115290Y39350*
X115690Y39520*
X116150Y39560*
X116550Y39520*
X116950Y39350*
X117290Y39100*
X117420Y38810*
X117290Y38480*
X116890Y38190*
X116290Y38020*
X115620Y37980*
X114750Y38060*
X114290Y38190*
X113820Y38390*
X113490Y38690*
X113420Y38980*
X113550Y39270*
X113890Y39480*
X118950Y57330D02*
G01Y54460D01*
X119120Y53860*
X119450Y53460*
X119870Y53330*
X120290Y53460*
X120620Y53860*
X120790Y54460*
Y57330*
X122450Y54130D02*
G01X122700Y53660D01*
X123040Y53400*
X123410Y53330*
X123750Y53400*
X124080Y53730*
X124290Y54130*
X124330Y54530*
X124250Y55000*
X123950Y55330*
X123660Y55460*
X123290*
X123660D02*
G01X123910Y55660D01*
X124120Y56000*
X124200Y56400*
X124120Y56800*
X123910Y57130*
X123540Y57330*
X123160Y57260*
X122790Y57000*
X125140Y85860D02*
G01Y89860D01*
X126180*
X126510Y89660*
X126720Y89390*
X126800Y88860*
X126720Y88330*
X126470Y87990*
X126180Y87790*
X125140*
X126180D02*
G01X126800Y85860D01*
X128680Y89190D02*
G01X128930Y89590D01*
X129220Y89790*
X129550Y89860*
X129970Y89730*
X130260Y89390*
X130350Y88990*
X130300Y88590*
X130140Y88260*
X129300Y87590*
X128930Y87130*
X128680Y86460*
X128590Y85860*
X130350*
X132260Y86330D02*
G01X132550Y85990D01*
X132890Y85860*
X133220Y85990*
X133510Y86390*
X133720Y86990*
X133800Y87590*
Y88330*
X133720Y88930*
X133510Y89460*
X133260Y89730*
X132970Y89860*
X132640Y89730*
X132390Y89460*
X132220Y89060*
X132140Y88530*
X132220Y88060*
X132430Y87590*
X132680Y87330*
X132970Y87260*
X133300Y87390*
X133550Y87730*
X133800Y88330*
X136470Y85860D02*
G01Y89860D01*
X135970Y89060*
Y85860D02*
G01X136970D01*
X115180Y134460D02*
G01Y131590D01*
X115350Y130990*
X115680Y130590*
X116100Y130460*
X116520Y130590*
X116850Y130990*
X117020Y131590*
Y134460*
X118680Y131260D02*
G01X118930Y130790D01*
X119270Y130530*
X119640Y130460*
X119980Y130530*
X120310Y130860*
X120520Y131260*
X120560Y131660*
X120480Y132130*
X120180Y132460*
X119890Y132590*
X119520*
X119890D02*
G01X120140Y132790D01*
X120350Y133130*
X120430Y133530*
X120350Y133930*
X120140Y134260*
X119770Y134460*
X119390Y134390*
X119020Y134130*
X123020Y130460D02*
G01X123100Y131330D01*
X123230Y132060*
X123390Y132730*
X123600Y133460*
X123930Y134460*
X122270*
X145800Y-14660D02*
G01X145550Y-14460D01*
X145260Y-14330*
X144920*
X144550Y-14530*
X144260Y-14860*
X144050Y-15260*
X143880Y-15930*
X143840Y-16530*
X143920Y-17130*
X144050Y-17530*
X144300Y-17930*
X144590Y-18200*
X144880Y-18330*
X145170*
X145460Y-18200*
X145710Y-18000*
X145920Y-17730*
X147590Y-15000D02*
G01X147840Y-14600D01*
X148130Y-14400*
X148460Y-14330*
X148880Y-14460*
X149170Y-14800*
X149260Y-15200*
X149210Y-15600*
X149050Y-15930*
X148210Y-16600*
X147840Y-17060*
X147590Y-17730*
X147500Y-18330*
X149260*
X151800D02*
G01X151880Y-17460D01*
X152010Y-16730*
X152170Y-16060*
X152380Y-15330*
X152710Y-14330*
X151050*
X132060Y-17140D02*
G01Y-13140D01*
X133100*
X133430Y-13340*
X133640Y-13610*
X133720Y-14140*
X133640Y-14670*
X133390Y-15010*
X133100Y-15210*
X132060*
X133100D02*
G01X133720Y-17140D01*
X135600Y-13810D02*
G01X135850Y-13410D01*
X136140Y-13210*
X136470Y-13140*
X136890Y-13270*
X137180Y-13610*
X137270Y-14010*
X137220Y-14410*
X137060Y-14740*
X136220Y-15410*
X135850Y-15870*
X135600Y-16540*
X135510Y-17140*
X137270*
X140390D02*
G01Y-13140D01*
X138850Y-16010*
X140930*
X133330Y11960D02*
G01Y15960D01*
X134370*
X134700Y15760*
X134910Y15490*
X134990Y14960*
X134910Y14430*
X134660Y14090*
X134370Y13890*
X133330*
X134370D02*
G01X134990Y11960D01*
X137660D02*
G01Y15960D01*
X137160Y15160*
Y11960D02*
G01X138160D01*
X140240Y12760D02*
G01X140490Y12290D01*
X140830Y12030*
X141200Y11960*
X141540Y12030*
X141870Y12360*
X142080Y12760*
X142120Y13160*
X142040Y13630*
X141740Y13960*
X141450Y14090*
X141080*
X141450D02*
G01X141700Y14290D01*
X141910Y14630*
X141990Y15030*
X141910Y15430*
X141700Y15760*
X141330Y15960*
X140950Y15890*
X140580Y15630*
X141520Y76260D02*
G01X141190Y76330D01*
X140900Y76590*
X140640Y76990*
X140480Y77460*
X140390Y77990*
Y78530*
X140480Y79060*
X140640Y79530*
X140900Y79930*
X141190Y80190*
X141520Y80260*
X141850Y80190*
X142140Y79930*
X142400Y79530*
X142560Y79060*
X142650Y78530*
Y77990*
X142560Y77460*
X142400Y76990*
X142140Y76590*
X141850Y76330*
X141520Y76260*
X141850Y77330D02*
G01X142350Y76260D01*
X144100Y77060D02*
G01X144350Y76590D01*
X144690Y76330*
X145060Y76260*
X145400Y76330*
X145730Y76660*
X145940Y77060*
X145980Y77460*
X145900Y77930*
X145600Y78260*
X145310Y78390*
X144940*
X145310D02*
G01X145560Y78590D01*
X145770Y78930*
X145850Y79330*
X145770Y79730*
X145560Y80060*
X145190Y80260*
X144810Y80190*
X144440Y79930*
X148440Y76260D02*
G01X148520Y77130D01*
X148650Y77860*
X148810Y78530*
X149020Y79260*
X149350Y80260*
X147690*
X157000Y-24260D02*
G01X156750Y-24060D01*
X156460Y-23930*
X156120*
X155750Y-24130*
X155460Y-24460*
X155250Y-24860*
X155080Y-25530*
X155040Y-26130*
X155120Y-26730*
X155250Y-27130*
X155500Y-27530*
X155790Y-27800*
X156080Y-27930*
X156370*
X156660Y-27800*
X156910Y-27600*
X157120Y-27330*
X158790Y-24600D02*
G01X159040Y-24200D01*
X159330Y-24000*
X159660Y-23930*
X160080Y-24060*
X160370Y-24400*
X160460Y-24800*
X160410Y-25200*
X160250Y-25530*
X159410Y-26200*
X159040Y-26660*
X158790Y-27330*
X158700Y-27930*
X160460*
X162160Y-27330D02*
G01X162410Y-27660D01*
X162700Y-27860*
X163080Y-27930*
X163460Y-27800*
X163750Y-27530*
X163960Y-27060*
X164000Y-26530*
X163910Y-26000*
X163700Y-25660*
X163410Y-25400*
X163120Y-25330*
X162830Y-25400*
X162460Y-25660*
X162580Y-23930*
X163700*
X160210Y-530D02*
G01X156210D01*
Y510*
X156410Y840*
X156680Y1050*
X157210Y1130*
X157740Y1050*
X158080Y800*
X158280Y510*
Y-530*
Y510D02*
G01X160210Y1130D01*
X156880Y3010D02*
G01X156480Y3260D01*
X156280Y3550*
X156210Y3880*
X156340Y4300*
X156680Y4590*
X157080Y4680*
X157480Y4630*
X157810Y4470*
X158480Y3630*
X158940Y3260*
X159610Y3010*
X160210Y2920*
Y4680*
Y7220D02*
G01X159340Y7300D01*
X158610Y7430*
X157940Y7590*
X157210Y7800*
X156210Y8130*
Y6470*
X150640Y63070D02*
G01X146640D01*
Y64110*
X146840Y64440*
X147110Y64650*
X147640Y64730*
X148170Y64650*
X148510Y64400*
X148710Y64110*
Y63070*
Y64110D02*
G01X150640Y64730D01*
Y67400D02*
G01X146640D01*
X147440Y66900*
X150640D02*
G01Y67900D01*
X148970Y70110D02*
G01X148510Y70400D01*
X148240Y70650*
X148110Y70980*
X148240Y71280*
X148510Y71480*
X148910Y71650*
X149370Y71690*
X149770Y71650*
X150170Y71480*
X150510Y71230*
X150640Y70940*
X150510Y70610*
X150110Y70320*
X149510Y70150*
X148840Y70110*
X147970Y70190*
X147510Y70320*
X147040Y70520*
X146710Y70820*
X146640Y71110*
X146770Y71400*
X147110Y71610*
X176640Y-27800D02*
G01X176390Y-27600D01*
X176100Y-27470*
X175760*
X175390Y-27670*
X175100Y-28000*
X174890Y-28400*
X174720Y-29070*
X174680Y-29670*
X174760Y-30270*
X174890Y-30670*
X175140Y-31070*
X175430Y-31340*
X175720Y-31470*
X176010*
X176300Y-31340*
X176550Y-31140*
X176760Y-30870*
X179220Y-31470D02*
G01Y-27470D01*
X178720Y-28270*
Y-31470D02*
G01X179720D01*
X182640D02*
G01X182720Y-30600D01*
X182850Y-29870*
X183010Y-29200*
X183220Y-28470*
X183550Y-27470*
X181890*
X176470Y-40940D02*
G01X176270Y-41190D01*
X176140Y-41480*
Y-41820*
X176340Y-42190*
X176670Y-42480*
X177070Y-42690*
X177740Y-42860*
X178340Y-42900*
X178940Y-42820*
X179340Y-42690*
X179740Y-42440*
X180010Y-42150*
X180140Y-41860*
Y-41570*
X180010Y-41280*
X179810Y-41030*
X179540Y-40820*
X176140Y-38360D02*
G01X180140D01*
X176140Y-39320D02*
G01Y-37400D01*
X180140Y-34860D02*
G01X176140D01*
X176940Y-35360*
X180140D02*
G01Y-34360D01*
X173700Y10270D02*
G01X173450Y10470D01*
X173160Y10600*
X172820*
X172450Y10400*
X172160Y10070*
X171950Y9670*
X171780Y9000*
X171740Y8400*
X171820Y7800*
X171950Y7400*
X172200Y7000*
X172490Y6730*
X172780Y6600*
X173070*
X173360Y6730*
X173610Y6930*
X173820Y7200*
X176280Y6600D02*
G01Y10600D01*
X175780Y9800*
Y6600D02*
G01X176780D01*
X178990Y8270D02*
G01X179280Y8730D01*
X179530Y9000*
X179860Y9130*
X180160Y9000*
X180360Y8730*
X180530Y8330*
X180570Y7870*
X180530Y7470*
X180360Y7070*
X180110Y6730*
X179820Y6600*
X179490Y6730*
X179200Y7130*
X179030Y7730*
X178990Y8400*
X179070Y9270*
X179200Y9730*
X179400Y10200*
X179700Y10530*
X179990Y10600*
X180280Y10470*
X180490Y10130*
X162660Y-4410D02*
G01X162460Y-4660D01*
X162330Y-4950*
Y-5290*
X162530Y-5660*
X162860Y-5950*
X163260Y-6160*
X163930Y-6330*
X164530Y-6370*
X165130Y-6290*
X165530Y-6160*
X165930Y-5910*
X166200Y-5620*
X166330Y-5330*
Y-5040*
X166200Y-4750*
X166000Y-4500*
X165730Y-4290*
X163000Y-2620D02*
G01X162600Y-2370D01*
X162400Y-2080*
X162330Y-1750*
X162460Y-1330*
X162800Y-1040*
X163200Y-950*
X163600Y-1000*
X163930Y-1160*
X164600Y-2000*
X165060Y-2370*
X165730Y-2620*
X166330Y-2710*
Y-950*
Y1670D02*
G01X166260Y1960D01*
X166060Y2290*
X165730Y2500*
X165260Y2590*
X164800Y2500*
X164400Y2250*
X164200Y1880*
Y1460*
X164060Y1210*
X163730Y1000*
X163260Y920*
X162800Y1050*
X162460Y1340*
X162330Y1670*
X162460Y2000*
X162800Y2290*
X163260Y2420*
X163730Y2340*
X164060Y2130*
X164200Y1880*
Y1460*
X164400Y1090*
X164800Y840*
X165260Y750*
X165730Y840*
X166060Y1050*
X166260Y1380*
X166330Y1670*
X166810Y-590D02*
G01X162810D01*
Y450*
X163010Y780*
X163280Y990*
X163810Y1070*
X164340Y990*
X164680Y740*
X164880Y450*
Y-590*
Y450D02*
G01X166810Y1070D01*
X163480Y2950D02*
G01X163080Y3200D01*
X162880Y3490*
X162810Y3820*
X162940Y4240*
X163280Y4530*
X163680Y4620*
X164080Y4570*
X164410Y4410*
X165080Y3570*
X165540Y3200*
X166210Y2950*
X166810Y2860*
Y4620*
X165140Y6450D02*
G01X164680Y6740D01*
X164410Y6990*
X164280Y7320*
X164410Y7620*
X164680Y7820*
X165080Y7990*
X165540Y8030*
X165940Y7990*
X166340Y7820*
X166680Y7570*
X166810Y7280*
X166680Y6950*
X166280Y6660*
X165680Y6490*
X165010Y6450*
X164140Y6530*
X163680Y6660*
X163210Y6860*
X162880Y7160*
X162810Y7450*
X162940Y7740*
X163280Y7950*
X170760Y16570D02*
G01Y20570D01*
X171800*
X172130Y20370*
X172340Y20100*
X172420Y19570*
X172340Y19040*
X172090Y18700*
X171800Y18500*
X170760*
X171800D02*
G01X172420Y16570D01*
X175090D02*
G01Y20570D01*
X174590Y19770*
Y16570D02*
G01X175590D01*
X177670Y17170D02*
G01X177920Y16840D01*
X178210Y16640*
X178590Y16570*
X178970Y16700*
X179260Y16970*
X179470Y17440*
X179510Y17970*
X179420Y18500*
X179210Y18840*
X178920Y19100*
X178630Y19170*
X178340Y19100*
X177970Y18840*
X178090Y20570*
X179210*
X162660Y37780D02*
G01X162460Y37530D01*
X162330Y37240*
Y36900*
X162530Y36530*
X162860Y36240*
X163260Y36030*
X163930Y35860*
X164530Y35820*
X165130Y35900*
X165530Y36030*
X165930Y36280*
X166200Y36570*
X166330Y36860*
Y37150*
X166200Y37440*
X166000Y37690*
X165730Y37900*
X166330Y40360D02*
G01X162330D01*
X163130Y39860*
X166330D02*
G01Y40860D01*
X162330Y43860D02*
G01X162460Y43530D01*
X162800Y43280*
X163200Y43110*
X163730Y42980*
X164330Y42940*
X164930Y42980*
X165460Y43110*
X165860Y43280*
X166200Y43530*
X166330Y43860*
X166200Y44190*
X165860Y44440*
X165460Y44610*
X164930Y44740*
X164330Y44780*
X163730Y44740*
X163200Y44610*
X162800Y44440*
X162460Y44190*
X162330Y43860*
X162780Y50160D02*
G01X162580Y49910D01*
X162450Y49620*
Y49280*
X162650Y48910*
X162980Y48620*
X163380Y48410*
X164050Y48240*
X164650Y48200*
X165250Y48280*
X165650Y48410*
X166050Y48660*
X166320Y48950*
X166450Y49240*
Y49530*
X166320Y49820*
X166120Y50070*
X165850Y50280*
X166450Y52740D02*
G01X162450D01*
X163250Y52240*
X166450D02*
G01Y53240D01*
Y56240D02*
G01X162450D01*
X163250Y55740*
X166450D02*
G01Y56740D01*
X177310Y74180D02*
G01X173310D01*
Y75220*
X173510Y75550*
X173780Y75760*
X174310Y75840*
X174840Y75760*
X175180Y75510*
X175380Y75220*
Y74180*
Y75220D02*
G01X177310Y75840D01*
Y78510D02*
G01X173310D01*
X174110Y78010*
X177310D02*
G01Y79010D01*
Y81930D02*
G01X176440Y82010D01*
X175710Y82140*
X175040Y82300*
X174310Y82510*
X173310Y82840*
Y81180*
X166110Y155700D02*
G01Y152830D01*
X166280Y152230*
X166610Y151830*
X167030Y151700*
X167450Y151830*
X167780Y152230*
X167950Y152830*
Y155700*
X169740Y155030D02*
G01X169990Y155430D01*
X170280Y155630*
X170610Y155700*
X171030Y155570*
X171320Y155230*
X171410Y154830*
X171360Y154430*
X171200Y154100*
X170360Y153430*
X169990Y152970*
X169740Y152300*
X169650Y151700*
X171410*
X190850Y63990D02*
G01Y65790D01*
X190020Y67990*
X191680D02*
G01X190850Y65790D01*
X194850Y63990D02*
G01Y67990D01*
X193310Y65120*
X195390*
X184610Y102860D02*
G01X180610D01*
Y103860*
X180810Y104190*
X181280Y104440*
X181810Y104520*
X182340Y104440*
X182740Y104230*
X182940Y103860*
Y102860*
X180610Y106400D02*
G01Y107980D01*
X184610Y106400*
Y107980*
Y110690D02*
G01X180610D01*
X181410Y110190*
X184610D02*
G01Y111190D01*
G54D115*
X-92960Y-7210D02*
G01X-83950D01*
Y-9100*
X-78040*
Y-7210*
X-69340*
Y-34370*
X-92960*
Y-7210*
X-92130*
G54D28*
X-182940Y197240D02*
G01X187140D01*
X198950Y185430D02*
G75*
G03X187140Y197240I-11810D01*
X198950Y185430D02*
G01Y-86230D01*
X187140Y-98040D02*
G03X198950Y-86230J11810D01*
X187140Y-98040D02*
G01X-182940D01*
X-194750Y-86230D02*
G03X-182940Y-98040I11810D01*
X-194750Y-86230D02*
G01Y185430D01*
X-182940Y197240D02*
G03X-194750Y185430J-11810D01*
X-174750Y174600D02*
G01X-194750D01*
Y-75400*
X-174750*
Y174600*
X-179750Y-76390D02*
G01X-184750Y-81390D01*
X-174750*
X-179750Y-76390*
X-164210Y-73000D02*
G03X-164210Y-73000I-5000D01*
X-172610Y-43820D02*
G01Y-57200D01*
X-167090*
Y-43820*
X-172610*
X-172250Y-40590D02*
G01Y169410D01*
X89290*
X95270Y163430*
Y118430*
X105270Y108430*
Y-20590*
X95270Y-30590*
Y-40590*
X-172250*
X-163010Y175810D02*
G03X-163010Y175810I-5000D01*
X-165450Y-101960D02*
G01Y-41960D01*
X-141450*
Y-101960*
X-165450*
Y-98960D02*
G01X-141450D01*
X-165450Y-97960D02*
G01X-141450D01*
X-165450Y-99960D02*
G01X-141450D01*
X-165450Y-100960D02*
G01X-141450D01*
X-152020Y-39030D02*
G01Y-7540D01*
X-168560*
Y-39030*
X-152020*
X-157180Y-4800D02*
G01X-141430D01*
Y2280*
X-157180*
Y-4800*
X-163630Y39220D02*
G01Y25840D01*
X-158120*
Y39220*
X-163630*
X-169900Y52840D02*
G01Y39460D01*
X-169070Y38830*
Y38830D02*
G03X-165210Y38830I1930J2479D01*
Y38830D02*
G01X-164390Y39460D01*
Y52840*
X-165210Y53470*
Y53470D02*
G03X-169070Y53470I-1930J-2479D01*
Y53470D02*
G01X-169900Y52840D01*
X-157970Y39930D02*
G01Y53310D01*
X-163490*
Y39930*
X-157970*
X-154380Y55990D02*
G01X-146120D01*
X-145880Y56270*
Y56270D02*
G03X-145880Y59650I-1859J1690D01*
Y59650D02*
G01X-146120Y59930D01*
X-154380*
X-154620Y59650*
Y59650D02*
G03X-154620Y56270I1859J-1690D01*
Y56270D02*
G01X-154380Y55990D01*
X-135570Y89500D02*
G01X-164700D01*
Y61940*
X-135570*
Y89500*
X-162800Y91400D02*
G01X-149020D01*
Y108330*
X-162800*
X-166740Y104390*
Y95340*
X-162800Y91400*
X-147160Y114050D02*
G01Y133740D01*
X-157000*
Y114050*
X-147160*
X-159210Y149190D02*
G01X-169210D01*
Y119190*
X-159210*
Y149190*
X-157000Y133740D02*
G01Y135710D01*
X-147160*
Y133740*
X-157000Y134720D02*
G01X-147160D01*
X-158580Y164540D02*
G01Y151150D01*
X-153070*
Y164540*
X-158580*
X-131340Y169680D02*
G01Y197240D01*
X-160870*
Y169680*
X-131340*
X-137350Y-37390D02*
G01X-123570D01*
Y-20460*
X-137350*
X-141290Y-24400*
Y-33450*
X-137350Y-37390*
X-125310Y-7360D02*
G01X-144990D01*
Y-17200*
X-125310*
Y-7360*
X-144990Y-17200D02*
G01X-146960D01*
Y-7360*
X-144990*
X-145980Y-17200D02*
G01Y-7360D01*
X-146280Y2520D02*
G01X-124620D01*
Y27320*
X-146280*
X-152180Y21420*
Y8430*
X-146280Y2520*
X-141820Y2280D02*
G01X-141040D01*
Y-4800*
X-141820*
X-141040Y2280D02*
G01X-140250D01*
Y-4800*
X-141040*
X-141430Y2280D02*
G01X-140250D01*
Y-4800*
X-141430*
X-125460Y1370D02*
G01X-138850D01*
Y-4150*
X-125460*
Y1370*
X-148210Y33310D02*
G01X-133250D01*
Y53000*
X-148210*
Y33310*
X-143410Y50160D02*
G03X-143410Y50160I-1810D01*
X-140990Y93110D02*
G01X-130990D01*
Y133110*
X-140990*
Y93110*
X-140910Y127870D02*
G01X-143870Y130820D01*
Y124920*
X-140910Y127870*
X-141730Y164490D02*
G01Y151100D01*
X-136220*
Y164490*
X-141730*
X-141770Y151100D02*
G01Y164480D01*
X-147280*
Y151100*
X-141770*
X-147470D02*
G01Y164490D01*
X-152980*
Y151100*
X-147470*
X-135640Y-114300D02*
G01X-86430D01*
Y-49340*
X-135640*
Y-114300*
X-86430Y-102490D02*
G01X-135640D01*
Y-98550*
X-86430*
Y-105440*
X-135640*
X-124820Y-83790D02*
G01X-119900D01*
X-122850Y-56230D02*
G01Y-62130D01*
X-125800Y-59180D02*
G01X-119900D01*
X-116300Y24880D02*
G01Y38260D01*
X-121810*
Y24880*
X-116300*
X-116170Y39580D02*
G01Y52960D01*
X-121680*
Y39580*
X-116170*
X-127020Y84820D02*
G01Y65130D01*
X-117180*
Y84820*
X-127020*
X-117180Y65130D02*
G01Y63170D01*
X-127020*
Y65130*
X-117180Y64150D02*
G01X-127020D01*
X-129710Y107570D02*
G01X-116320D01*
X-115690Y108400*
Y108400D02*
G03X-115690Y112260I-2479J1930D01*
Y112260D02*
G01X-116320Y113080D01*
X-129710*
X-130340Y112260*
Y112260D02*
G03X-130340Y108400I2490J-1930D01*
Y108400D02*
G01X-129710Y107570D01*
X-119670Y117780D02*
G01Y131170D01*
X-125190*
Y117780*
X-119670*
X-131770Y164840D02*
G01Y151460D01*
X-126250*
Y164840*
X-131770*
X-118280Y151370D02*
G01Y164750D01*
X-123800*
Y151370*
X-118280*
X-100210Y-77880D02*
G01X-101200Y-78870D01*
X-102180Y-79850D02*
G01X-103160Y-80830D01*
X-114980Y-44420D02*
G01X-111040Y-48350D01*
X-107100Y-44420*
X-114980*
X-103225Y-30610D02*
G03X-103225Y-30610I-6525D01*
X-108500Y33200D02*
G01Y17840D01*
X-106890Y16940*
Y16940D02*
G03X-103030Y16940I1930J3432D01*
Y16940D02*
G01X-101410Y17840D01*
Y33200*
X-103030Y34100*
Y34100D02*
G03X-106890Y34100I-1930J-3421D01*
Y34100D02*
G01X-108500Y33200D01*
X-107530Y48420D02*
G01Y35030D01*
X-102020*
Y48420*
X-107530*
X-62380Y116730D02*
G01X-101350D01*
Y77760*
X-65530*
X-62380Y80910*
Y116730*
X-52340Y126770D02*
G01Y67720D01*
X-111390*
Y126770*
X-52340*
X-117100Y129610D02*
G01X-103710D01*
Y135120*
X-117100*
Y129610*
X-102420Y136220D02*
G01Y138970D01*
X-94540Y146850D02*
G03X-102420Y138970J-7880D01*
X-94540Y146850D02*
G01X-66820D01*
X-58950Y138970D02*
G03X-66820Y146850I-7880D01*
X-58950Y138970D02*
G01Y136220D01*
X-66820Y128340D02*
G03X-58950Y136220I-10J7880D01*
X-66820Y128340D02*
G01X-94540D01*
X-102420Y136220D02*
G03X-94540Y128340I7880D01*
X-117300Y135460D02*
G01X-103910D01*
Y140970*
X-117300*
Y135460*
X-98225Y159390D02*
G03X-98225Y159390I-6525D01*
X-98240Y-75910D02*
G01X-99230Y-76900D01*
X-42720Y17810D02*
G01Y15050D01*
X-50590Y7180D02*
G03X-42720Y15050J7870D01*
X-50590Y7180D02*
G01X-78310D01*
X-86180Y15050D02*
G03X-78310Y7180I7870D01*
X-86180Y15050D02*
G01Y17810D01*
X-78310Y25680D02*
G03X-86180Y17810J-7870D01*
X-78310Y25680D02*
G01X-50590D01*
X-42720Y17810D02*
G03X-50590Y25680I-7870D01*
X-95700Y164400D02*
G01Y154400D01*
X4300*
Y164400*
X-95700*
X-89730Y159410D02*
G03X-89730Y159410I-980D01*
X-21320Y-113710D02*
G01Y-61740D01*
X-76430*
Y-113710*
X-21320*
X-76430Y-97960D02*
G01X-21320D01*
X-69960Y-55460D02*
G01X-56580D01*
Y-49950*
X-69960*
Y-55460*
X-69950Y-49460D02*
G01X-56560D01*
Y-43950*
X-69950*
Y-49460*
X-46670Y68190D02*
G01X-75800D01*
Y40630*
X-46670*
Y68190*
X-77160Y33720D02*
G01X-63780D01*
X-63150Y34540*
Y34540D02*
G03X-63150Y38400I-2479J1930D01*
Y38400D02*
G01X-63780Y39230D01*
X-77160*
X-77790Y38400*
Y38400D02*
G03X-77790Y34540I2479J-1930D01*
Y34540D02*
G01X-77160Y33720D01*
X-65020Y85430D02*
G03X-65020Y85430I-4050D01*
X-79730Y159410D02*
G03X-79730Y159410I-980D01*
X-69730D02*
G03X-69730Y159410I-980D01*
X-82820Y194030D02*
G01Y174350D01*
X-72980*
Y194030*
X-82820*
X-72980Y174350D02*
G01Y172380D01*
X-82820*
Y174350*
X-72980Y173360D02*
G01X-82820D01*
X-37930Y195690D02*
G01Y187030D01*
X-67060*
Y195690*
X-37930*
X20260Y-35620D02*
G01Y-25620D01*
X-59740*
Y-35620*
X20260*
X-54740D02*
G01X-59740Y-40620D01*
X-49740*
X-54740Y-35620*
X-53740Y-30590D02*
G03X-53740Y-30590I-990D01*
X-59310Y26320D02*
G01X-45930D01*
X-45300Y27150*
Y27150D02*
G03X-45300Y31000I-2480J1925D01*
Y31000D02*
G01X-45930Y31830D01*
X-59310*
X-59940Y31000*
Y31000D02*
G03X-59940Y27150I2480J-1925D01*
Y27150D02*
G01X-59310Y26320D01*
X-61010Y33070D02*
G01X-45650D01*
X-44750Y34680*
Y34680D02*
G03X-44750Y38540I-3432J1930D01*
Y38540D02*
G01X-45650Y40160D01*
X-61010*
X-61910Y38540*
Y38540D02*
G03X-61910Y34680I3421J-1930D01*
Y34680D02*
G01X-61010Y33070D01*
X-49160Y70310D02*
G01X-33800D01*
X-32900Y71930*
Y71930D02*
G03X-32900Y75780I-3429J1925D01*
Y75780D02*
G01X-33800Y77400D01*
X-49160*
X-50060Y75780*
Y75780D02*
G03X-50060Y71930I3429J-1925D01*
Y71930D02*
G01X-49160Y70310D01*
X-34990Y88660D02*
G01X-48370D01*
X-49000Y87830*
Y87830D02*
G03X-49000Y83970I2479J-1930D01*
Y83970D02*
G01X-48370Y83140D01*
X-34990*
X-34360Y83970*
Y83970D02*
G03X-34360Y87830I-2479J1930D01*
Y87830D02*
G01X-34990Y88660D01*
X-48640Y90330D02*
G01X-35250D01*
X-34620Y91160*
Y91160D02*
G03X-34620Y95010I-2491J1925D01*
Y95010D02*
G01X-35250Y95840D01*
X-48640*
X-49270Y95010*
Y95010D02*
G03X-49270Y91160I2491J-1925D01*
Y91160D02*
G01X-48640Y90330D01*
X-59730Y159410D02*
G03X-59730Y159410I-980D01*
X-49730D02*
G03X-49730Y159410I-980D01*
X-26410Y-42130D02*
G01X-42150D01*
Y-49210*
X-26410*
Y-42130*
X-41760Y-49210D02*
G01X-42550D01*
Y-42130*
X-41760*
X-42550Y-49210D02*
G01X-43340D01*
Y-42130*
X-42550*
X-42150Y-49210D02*
G01X-43340D01*
Y-42130*
X-42150*
X-41640Y-57000D02*
G01X-28260D01*
Y-51480*
X-41640*
Y-57000*
X-43740Y-30590D02*
G03X-43740Y-30590I-990D01*
X-33740D02*
G03X-33740Y-30590I-990D01*
X-43420Y-3370D02*
G01X-31610Y-15180D01*
X35320*
Y63560*
X-43420*
Y-3370*
X23510D02*
G01Y51750D01*
X-31610*
Y-3370*
X23510*
X-20160Y2530D02*
G03X-20160Y2530I-5550D01*
X-45210Y64090D02*
G01X-31830D01*
X-31200Y64920*
Y64920D02*
G03X-31200Y68780I-2479J1930D01*
Y68780D02*
G01X-31830Y69600D01*
X-45210*
X-45840Y68780*
Y68780D02*
G03X-45840Y64920I2479J-1930D01*
Y64920D02*
G01X-45210Y64090D01*
X-23890Y93320D02*
G01X-33890D01*
X-28890Y98360*
X-23890Y93320*
Y130840D02*
G01X-43890D01*
Y100840*
X-23890*
Y130840*
X-43630Y144110D02*
G01X-30250D01*
Y149620*
X-43630*
Y144110*
Y136910D02*
G01X-30250D01*
Y142420*
X-43630*
Y136910*
X-39730Y159410D02*
G03X-39730Y159410I-980D01*
X-29730D02*
G03X-29730Y159410I-980D01*
X-18490Y186290D02*
G01X-31870D01*
X-32500Y185460*
Y185460D02*
G03X-32500Y181610I2480J-1925D01*
Y181610D02*
G01X-31870Y180780D01*
X-18490*
X-17860Y181610*
Y181610D02*
G03X-17860Y185460I-2480J1925D01*
Y185460D02*
G01X-18490Y186290D01*
X-35960Y195690D02*
G01Y187030D01*
X-36360*
Y195690*
X-36750*
Y187030*
X-37140*
Y195690*
X-37540*
Y187030*
X-37930*
Y195690*
X-35960*
Y187030*
X-37930*
X-18730Y195010D02*
G01X-34090D01*
X-34990Y193390*
Y193390D02*
G03X-34990Y189530I3432J-1930D01*
Y189530D02*
G01X-34090Y187920D01*
X-18730*
X-17830Y189530*
Y189530D02*
G03X-17830Y193390I-3432J1930D01*
Y193390D02*
G01X-18730Y195010D01*
X-19340Y-40910D02*
G01Y-56270D01*
X-17730Y-57170*
Y-57170D02*
G03X-13870Y-57170I1930J3421D01*
Y-57170D02*
G01X-12260Y-56270D01*
Y-40910*
X-13870Y-40010*
Y-40010D02*
G03X-17730Y-40010I-1930J-3432D01*
Y-40010D02*
G01X-19340Y-40910D01*
X-23740Y-30590D02*
G03X-23740Y-30590I-990D01*
X-13740D02*
G03X-13740Y-30590I-990D01*
X-12180Y150650D02*
G01X-27930D01*
Y143560*
X-12180*
Y150650*
X-27530Y143560D02*
G01X-28320D01*
Y150650*
X-27530*
X-28320Y143560D02*
G01X-29110D01*
Y150650*
X-28320*
X-27930Y143560D02*
G01X-29110D01*
Y150650*
X-27930*
X-12060Y142750D02*
G01X-27800D01*
Y135660*
X-12060*
Y142750*
X-27410Y135660D02*
G01X-28200D01*
Y142750*
X-27410*
X-28200Y135660D02*
G01X-28990D01*
Y142750*
X-28200*
X-27800Y135660D02*
G01X-28990D01*
Y142750*
X-27800*
X-19730Y159410D02*
G03X-19730Y159410I-980D01*
X28050Y-58670D02*
G01X-11320D01*
Y-98040*
X28050*
Y-58670*
X24110Y-96070D02*
G01Y-101970D01*
X-7380*
Y-96070*
X-3720Y-48280D02*
G01Y-56160D01*
X10060*
Y-48280*
X8090*
X6130Y-46310*
Y-39420*
X220*
Y-46310*
X-1750Y-48280*
X-3720*
X-10430Y-42010D02*
G01Y-55400D01*
X-4910*
Y-42010*
X-10430*
X-3740Y-30590D02*
G03X-3740Y-30590I-990D01*
X-6410Y128990D02*
G01Y89620D01*
X81070*
Y121120*
X73200Y128990*
X-6410*
X-7510Y151280D02*
G01Y137890D01*
X-6680Y137260*
Y137260D02*
G03X-2820Y137260I1930J2490D01*
Y137260D02*
G01X-2000Y137890D01*
Y151280*
X-2820Y151910*
Y151910D02*
G03X-6680Y151910I-1930J-2479D01*
Y151910D02*
G01X-7510Y151280D01*
X-700Y165380D02*
G01X3310Y169400D01*
X-4720*
X-700Y165380*
X-9730Y159410D02*
G03X-9730Y159410I-980D01*
X270D02*
G03X270Y159410I-980D01*
X6680Y173120D02*
G01Y192800D01*
X380*
Y173120*
X6680*
X-8770Y189880D02*
G01Y176500D01*
X-7940Y175870*
Y175870D02*
G03X-4080Y175870I1930J2479D01*
Y175870D02*
G01X-3250Y176500D01*
Y189880*
X-4080Y190510*
Y190510D02*
G03X-7940Y190510I-1930J-2479D01*
Y190510D02*
G01X-8770Y189880D01*
X380Y185710D02*
G01X6680D01*
X380Y185320D02*
G01X6680D01*
X380Y184930D02*
G01X6680D01*
X380Y186110D02*
G01X6680D01*
X380Y186500D02*
G01X6680D01*
X16160Y-53930D02*
G01X29550D01*
Y-48420*
X16160*
Y-53930*
X16230Y-47060D02*
G01X29620D01*
Y-41550*
X16230*
Y-47060*
X6260Y-30590D02*
G03X6260Y-30590I-990D01*
X16260D02*
G03X16260Y-30590I-990D01*
X10290Y164450D02*
G01Y154450D01*
X90290*
Y164450*
X10290*
X16260Y159410D02*
G03X16260Y159410I-990D01*
X48960Y197260D02*
G01X21400D01*
Y169700*
X48960*
Y197260*
X9220Y190180D02*
G01Y176800D01*
X14730*
Y190180*
X9220*
X63430Y-41420D02*
G01X31540D01*
Y-98030*
X63430*
Y-41420*
X56740Y-100000D02*
G01X31540D01*
Y-96060*
X56740*
Y-100000*
X30290Y-25620D02*
G01Y-35620D01*
X90290*
Y-25620*
X30290*
X36260Y-30590D02*
G03X36260Y-30590I-990D01*
X30670Y151830D02*
G01Y138440D01*
X31500Y137810*
Y137810D02*
G03X35360Y137810I1930J2490D01*
Y137810D02*
G01X36190Y138440D01*
Y151830*
X35360Y152460*
Y152460D02*
G03X31500Y152460I-1930J-2479D01*
Y152460D02*
G01X30670Y151830D01*
X26260Y159410D02*
G03X26260Y159410I-990D01*
X36260D02*
G03X36260Y159410I-990D01*
X44040Y178550D02*
G01Y174620D01*
X26320*
Y178550*
X44040Y187410D02*
G01Y192330D01*
X26320*
Y187410*
X44140Y-98270D02*
G01Y-94330D01*
X46260Y-30590D02*
G03X46260Y-30590I-990D01*
X56260D02*
G03X56260Y-30590I-990D01*
X55060Y151980D02*
G01Y138590D01*
X55890Y137960*
Y137960D02*
G03X59750Y137960I1930J2490D01*
Y137960D02*
G01X60580Y138590D01*
Y151980*
X59750Y152610*
Y152610D02*
G03X55890Y152610I-1930J-2479D01*
Y152610D02*
G01X55060Y151980D01*
X46260Y159410D02*
G03X46260Y159410I-990D01*
X56260D02*
G03X56260Y159410I-990D01*
X98110Y-41420D02*
G01X66220D01*
Y-98030*
X98110*
Y-41420*
X91420Y-100000D02*
G01X66220D01*
Y-96060*
X91420*
Y-100000*
X66260Y-30590D02*
G03X66260Y-30590I-990D01*
X84530Y79080D02*
G01X71150D01*
X70520Y78250*
Y78250D02*
G03X70520Y74390I2479J-1930D01*
Y74390D02*
G01X71150Y73570D01*
X84530*
X85160Y74390*
Y74390D02*
G03X85160Y78250I-2479J1930D01*
Y78250D02*
G01X84530Y79080D01*
X75210Y123240D02*
G03X75210Y123240I-3940D01*
X70400Y151780D02*
G01Y138390D01*
X71230Y137760*
Y137760D02*
G03X75090Y137760I1930J2490D01*
Y137760D02*
G01X75910Y138390D01*
Y151780*
X75090Y152410*
Y152410D02*
G03X71230Y152410I-1930J-2479D01*
Y152410D02*
G01X70400Y151780D01*
X66260Y159410D02*
G03X66260Y159410I-990D01*
X78820Y-98270D02*
G01Y-94330D01*
X76260Y-30590D02*
G03X76260Y-30590I-990D01*
X86260D02*
G03X86260Y-30590I-990D01*
X85290Y-24630D02*
G01X81270Y-20620D01*
X89310*
X85290Y-24630*
X101775Y-10610D02*
G03X101775Y-10610I-6525D01*
X101825Y99390D02*
G03X101825Y99390I-6525D01*
X79830Y151430D02*
G01Y138040D01*
X80650Y137410*
Y137410D02*
G03X84510Y137410I1930J2490D01*
Y137410D02*
G01X85340Y138040D01*
Y151430*
X84510Y152060*
Y152060D02*
G03X80650Y152060I-1930J-2479D01*
Y152060D02*
G01X79830Y151430D01*
X85290Y164450D02*
G01X90290Y169450D01*
X80290*
X85290Y164450*
X76260Y159410D02*
G03X76260Y159410I-990D01*
X86260D02*
G03X86260Y159410I-990D01*
X105970Y-113920D02*
G01X169350D01*
Y-30070*
X105970*
Y-113920*
X169160Y-98180D02*
G01X106160D01*
X109870Y-26690D02*
G01Y-13310D01*
X104360*
Y-26690*
X109870*
X96980Y-550D02*
G01X112730D01*
Y6540*
X96980*
Y-550*
X105170Y17700D02*
G01Y31080D01*
X99660*
Y17700*
X105170*
X111000Y17690D02*
G01Y31080D01*
X105490*
Y17690*
X111000*
X100280Y119500D02*
G01Y106110D01*
X105790*
Y119500*
X100280*
X163010Y142520D02*
G01X105130D01*
Y197640*
X163010*
Y142520*
X120010Y-28030D02*
G01X133400D01*
X134030Y-27200*
Y-27200D02*
G03X134030Y-23340I-2490J1930D01*
Y-23340D02*
G01X133400Y-22520D01*
X120010*
X119380Y-23340*
Y-23340D02*
G03X119380Y-27200I2479J-1930D01*
Y-27200D02*
G01X120010Y-28030D01*
X116220Y-26790D02*
G01Y-13410D01*
X110710*
Y-26790*
X116220*
X113400Y15110D02*
G01Y-240D01*
X115010Y-1150*
Y-1150D02*
G03X118870Y-1150I1930J3432D01*
Y-1150D02*
G01X120480Y-240D01*
Y15110*
X118870Y16020*
Y16020D02*
G03X115010Y16020I-1930J-3432D01*
Y16020D02*
G01X113400Y15110D01*
X119940Y18000D02*
G01Y31390D01*
X119110Y32020*
Y32020D02*
G03X115250Y32020I-1930J-2490D01*
Y32020D02*
G01X114430Y31390D01*
Y18000*
X115250Y17370*
Y17370D02*
G03X119110Y17370I1930J2479D01*
Y17370D02*
G01X119940Y18000D01*
X136980Y97130D02*
G01X123600D01*
Y91610*
X136980*
Y97130*
X115270Y92830D02*
G01Y106220D01*
X109760*
Y92830*
X115270*
X138520Y128600D02*
G01X117730D01*
Y107810*
X138520*
Y128600*
X163010Y197640D02*
G01Y205510D01*
X119700*
Y197640*
X150340Y-22510D02*
G01X136950D01*
X136320Y-23340*
Y-23340D02*
G03X136320Y-27200I2490J-1930D01*
Y-27200D02*
G01X136950Y-28030D01*
X150340*
X150970Y-27200*
Y-27200D02*
G03X150970Y-23340I-2479J1930D01*
Y-23340D02*
G01X150340Y-22510D01*
X147590Y-10800D02*
G01Y2590D01*
X146770Y3220*
Y3220D02*
G03X142910Y3220I-1930J-2490D01*
Y3220D02*
G01X142080Y2590D01*
Y-10800*
X142910Y-11430*
Y-11430D02*
G03X146770Y-11430I1930J2479D01*
Y-11430D02*
G01X147590Y-10800D01*
X134480Y3030D02*
G01Y-10360D01*
X139990*
Y3030*
X134480*
X127600Y3160D02*
G01Y-10230D01*
X133110*
Y3160*
X127600*
X151050Y11010D02*
G01X137660D01*
Y5500*
X151050*
Y11010*
X127730Y54450D02*
G01Y26890D01*
X155290*
Y51930*
X152770Y54450*
X127730*
X147090Y97230D02*
G01X139210D01*
Y83450*
X147090*
Y85420*
X149050Y87390*
X155940*
Y93290*
X149050*
X147090Y95260*
Y97230*
X138130Y111320D02*
G03X138130Y111320I-3120D01*
X160200Y3010D02*
G01Y-10380D01*
X165710*
Y3010*
X160200*
X153600Y3060D02*
G01Y-10320D01*
X159110*
Y3060*
X153600*
X155710Y5890D02*
G01X169100D01*
X169730Y6720*
Y6720D02*
G03X169730Y10570I-2491J1925D01*
Y10570D02*
G01X169100Y11400D01*
X155710*
X155080Y10570*
Y10570D02*
G03X155080Y6720I2480J-1925D01*
Y6720D02*
G01X155710Y5890D01*
X156300Y16770D02*
G01X169690D01*
Y22280*
X156300*
Y16770*
X153160Y50510D02*
G03X153160Y50510I-2790D01*
X155630Y70210D02*
G01Y56830D01*
X161140*
Y70210*
X155630*
X198060Y110340D02*
G03X198060Y110340I-24000D01*
X181090Y-35490D02*
G01Y-22100D01*
X180260Y-21470*
Y-21470D02*
G03X176400Y-21470I-1930J-2490D01*
Y-21470D02*
G01X175580Y-22100D01*
Y-35490*
X176400Y-36120*
Y-36120D02*
G03X180260Y-36120I1930J2479D01*
Y-36120D02*
G01X181090Y-35490D01*
X172940Y-10600D02*
G01Y2790D01*
X172110Y3420*
Y3420D02*
G03X168260Y3420I-1925J-2491D01*
Y3420D02*
G01X167430Y2790D01*
Y-10600*
X168260Y-11230*
Y-11230D02*
G03X172110Y-11230I1925J2480D01*
Y-11230D02*
G01X172940Y-10600D01*
X181920Y64370D02*
G01X184680D01*
X192550Y56500D02*
G03X184680Y64370I-7870D01*
X192550Y56500D02*
G01Y28780D01*
X184680Y20910D02*
G03X192550Y28780J7870D01*
X184680Y20910D02*
G01X181920D01*
X174050Y28780D02*
G03X181920Y20910I7870D01*
X174050Y28780D02*
G01Y56500D01*
X181920Y64370D02*
G03X174050Y56500J-7870D01*
X166890Y56960D02*
G01Y43570D01*
X167720Y42940*
Y42940D02*
G03X171570Y42940I1925J2491D01*
Y42940D02*
G01X172400Y43570D01*
Y56960*
X171570Y57590*
Y57590D02*
G03X167720Y57590I-1925J-2491D01*
Y57590D02*
G01X166890Y56960D01*
X172400Y27990D02*
G01Y41380D01*
X171570Y42010*
Y42010D02*
G03X167710Y42010I-1930J-2479D01*
Y42010D02*
G01X166890Y41380D01*
Y27990*
X167710Y27360*
Y27360D02*
G03X171570Y27360I1930J2490D01*
Y27360D02*
G01X172400Y27990D01*
X172470Y59750D02*
G01Y73130D01*
X166960*
Y59750*
X172470*
X174060Y142840D02*
G01Y137840D01*
X176560Y140340D02*
G01X171560D01*
X190520Y-66990D02*
G03X190520Y-66990I-5000D01*
X195260Y-51690D02*
G01Y-19410D01*
X182660*
Y-51690*
X184240Y-53260*
X193690*
X195260Y-51690*
X182660Y-44210D02*
G01X195260D01*
X182660Y-44010D02*
G01X195260D01*
X182660Y-43820D02*
G01X195260D01*
X187000Y-54450D02*
G01X190930D01*
X188960Y-53660D02*
G01Y-55230D01*
X182660Y-43620D02*
G01X195260D01*
X182660Y-43420D02*
G01X195260D01*
X182660Y-43220D02*
G01X195260D01*
X182660Y-43030D02*
G01X195260D01*
X182660Y-42830D02*
G01X195260D01*
X182660Y-42630D02*
G01X195260D01*
X182660Y-42440D02*
G01X195260D01*
X182660Y-42240D02*
G01X195260D01*
X182660Y-42040D02*
G01X195260D01*
X192160Y12750D02*
G03X192160Y12750I-5000D01*
X194040Y166920D02*
G03X194040Y166920I-5000D01*
X38810Y70220D02*
G01X94010D01*
X94160Y11780*
X38960*
X38810Y70220*
X49730D02*
G01X49950Y11930D01*
X60080Y70220D02*
G01X60380Y11790D01*
X70262Y69760D02*
G01X70480Y11790D01*
X79549Y69930D02*
G01X79730Y11790D01*
G54D114*
G01X83415Y63587D02*
Y62025D01*
X83571Y61556D01*
X83884Y61400D01*
X84352D01*
X84665Y61556D01*
X85134Y62025D01*
Y63587D02*
Y61400D01*
X87946Y63119D02*
X87790Y63431D01*
X87321Y63587D01*
X86852D01*
X86384Y63431D01*
X86227Y63119D01*
X86384Y62806D01*
X86696Y62650D01*
X87477Y62494D01*
X87790Y62337D01*
X87946Y62025D01*
Y61869D01*
X87790Y61556D01*
X87321Y61400D01*
X86852D01*
X86384Y61556D01*
X86227Y61869D01*
X89040Y64681D02*
Y61400D01*
Y63119D02*
X89352Y63431D01*
X89665Y63587D01*
X90134D01*
X90446Y63431D01*
X90759Y63119D01*
X90915Y62650D01*
Y62337D01*
X90759Y61869D01*
X90446Y61556D01*
X90134Y61400D01*
X89665D01*
X89352Y61556D01*
X89040Y61869D01*
G01X84697Y52239D02*
X84541Y52551D01*
X84072Y52707D01*
X83604D01*
X83135Y52551D01*
X82979Y52239D01*
X83135Y51926D01*
X83447Y51770D01*
X84229Y51614D01*
X84541Y51457D01*
X84697Y51145D01*
Y50989D01*
X84541Y50676D01*
X84072Y50520D01*
X83604D01*
X83135Y50676D01*
X82979Y50989D01*
X85791Y52707D02*
Y49426D01*
Y52239D02*
X86104Y52551D01*
X86416Y52707D01*
X86885D01*
X87197Y52551D01*
X87510Y52239D01*
X87666Y51770D01*
Y51457D01*
X87510Y50989D01*
X87197Y50676D01*
X86885Y50520D01*
X86416D01*
X86104Y50676D01*
X85791Y50989D01*
X88604Y53801D02*
X88760Y53645D01*
X88916Y53801D01*
X88760Y53957D01*
X88604Y53801D01*
X88760Y52707D02*
Y50520D01*
X90322Y53176D02*
X90635Y53332D01*
X91104Y53801D01*
Y50520D01*
G01X83659Y59261D02*
X83815Y59105D01*
X83971Y59261D01*
X83815Y59417D01*
X83659Y59261D01*
X83815Y58167D02*
Y55980D01*
X85065Y58480D02*
Y58636D01*
X85221Y58949D01*
X85377Y59105D01*
X85690Y59261D01*
X86315D01*
X86627Y59105D01*
X86784Y58949D01*
X86940Y58636D01*
Y58324D01*
X86784Y58011D01*
X86471Y57542D01*
X84909Y55980D01*
X87096D01*
X89909Y57699D02*
X89596Y58011D01*
X89284Y58167D01*
X88815D01*
X88502Y58011D01*
X88190Y57699D01*
X88034Y57230D01*
Y56917D01*
X88190Y56449D01*
X88502Y56136D01*
X88815Y55980D01*
X89284D01*
X89596Y56136D01*
X89909Y56449D01*
G01X84447Y46939D02*
X84291Y47251D01*
X83822Y47407D01*
X83354D01*
X82885Y47251D01*
X82729Y46939D01*
X82885Y46626D01*
X83197Y46470D01*
X83979Y46314D01*
X84291Y46157D01*
X84447Y45845D01*
Y45689D01*
X84291Y45376D01*
X83822Y45220D01*
X83354D01*
X82885Y45376D01*
X82729Y45689D01*
X85541Y47407D02*
Y44126D01*
Y46939D02*
X85854Y47251D01*
X86166Y47407D01*
X86635D01*
X86947Y47251D01*
X87260Y46939D01*
X87416Y46470D01*
Y46157D01*
X87260Y45689D01*
X86947Y45376D01*
X86635Y45220D01*
X86166D01*
X85854Y45376D01*
X85541Y45689D01*
X88354Y48501D02*
X88510Y48345D01*
X88666Y48501D01*
X88510Y48657D01*
X88354Y48501D01*
X88510Y47407D02*
Y45220D01*
X89760Y47720D02*
Y47876D01*
X89916Y48189D01*
X90072Y48345D01*
X90385Y48501D01*
X91010D01*
X91322Y48345D01*
X91479Y48189D01*
X91635Y47876D01*
Y47564D01*
X91479Y47251D01*
X91166Y46782D01*
X89604Y45220D01*
X91791D01*
G01X82951Y36041D02*
X83107Y35885D01*
X83264Y36041D01*
X83107Y36197D01*
X82951Y36041D01*
X83107Y34947D02*
Y32291D01*
X82951Y31823D01*
X82639Y31666D01*
X82326D01*
X84514Y36041D02*
Y33385D01*
X84670Y32916D01*
X84982Y32760D01*
X85295D01*
X84045Y34947D02*
X85139D01*
X87951D02*
Y32760D01*
Y34479D02*
X87639Y34791D01*
X87326Y34947D01*
X86857D01*
X86545Y34791D01*
X86232Y34479D01*
X86076Y34010D01*
Y33697D01*
X86232Y33229D01*
X86545Y32916D01*
X86857Y32760D01*
X87326D01*
X87639Y32916D01*
X87951Y33229D01*
X90920Y34947D02*
Y32448D01*
X90764Y31979D01*
X90607Y31823D01*
X90295Y31666D01*
X89826D01*
X89514Y31823D01*
X90920Y34479D02*
X90607Y34791D01*
X90295Y34947D01*
X89826D01*
X89514Y34791D01*
X89201Y34479D01*
X89045Y34010D01*
Y33697D01*
X89201Y33229D01*
X89514Y32916D01*
X89826Y32760D01*
X90295D01*
X90607Y32916D01*
X90920Y33229D01*
G01X83479Y28110D02*
X85354D01*
Y28422D01*
X85197Y28735D01*
X85041Y28891D01*
X84729Y29047D01*
X84260D01*
X83947Y28891D01*
X83635Y28579D01*
X83479Y28110D01*
Y27797D01*
X83635Y27329D01*
X83947Y27016D01*
X84260Y26860D01*
X84729D01*
X85041Y27016D01*
X85354Y27329D01*
X86447Y29360D02*
Y29516D01*
X86604Y29829D01*
X86760Y29985D01*
X87072Y30141D01*
X87697D01*
X88010Y29985D01*
X88166Y29829D01*
X88322Y29516D01*
Y29204D01*
X88166Y28891D01*
X87854Y28422D01*
X86291Y26860D01*
X88479D01*
X89572Y29047D02*
Y26860D01*
Y28110D02*
X89729Y28579D01*
X90041Y28891D01*
X90354Y29047D01*
X90822D01*
G01X85037Y23009D02*
X84881Y23321D01*
X84412Y23477D01*
X83944D01*
X83475Y23321D01*
X83319Y23009D01*
X83475Y22696D01*
X83787Y22540D01*
X84569Y22384D01*
X84881Y22227D01*
X85037Y21915D01*
Y21759D01*
X84881Y21446D01*
X84412Y21290D01*
X83944D01*
X83475Y21446D01*
X83319Y21759D01*
X87850Y24571D02*
Y21290D01*
Y23009D02*
X87537Y23321D01*
X87225Y23477D01*
X86756D01*
X86444Y23321D01*
X86131Y23009D01*
X85975Y22540D01*
Y22227D01*
X86131Y21759D01*
X86444Y21446D01*
X86756Y21290D01*
X87225D01*
X87537Y21446D01*
X87850Y21759D01*
X89412Y23946D02*
X89725Y24102D01*
X90194Y24571D01*
Y21290D01*
G01X85117Y17339D02*
X84961Y17651D01*
X84492Y17807D01*
X84024D01*
X83555Y17651D01*
X83399Y17339D01*
X83555Y17026D01*
X83867Y16870D01*
X84649Y16714D01*
X84961Y16557D01*
X85117Y16245D01*
Y16089D01*
X84961Y15776D01*
X84492Y15620D01*
X84024D01*
X83555Y15776D01*
X83399Y16089D01*
X87930Y18901D02*
Y15620D01*
Y17339D02*
X87617Y17651D01*
X87305Y17807D01*
X86836D01*
X86524Y17651D01*
X86211Y17339D01*
X86055Y16870D01*
Y16557D01*
X86211Y16089D01*
X86524Y15776D01*
X86836Y15620D01*
X87305D01*
X87617Y15776D01*
X87930Y16089D01*
X89180Y18120D02*
Y18276D01*
X89336Y18589D01*
X89492Y18745D01*
X89805Y18901D01*
X90430D01*
X90742Y18745D01*
X90899Y18589D01*
X91055Y18276D01*
Y17964D01*
X90899Y17651D01*
X90586Y17182D01*
X89024Y15620D01*
X91211D01*
G01X83764Y40997D02*
Y38498D01*
X83607Y38029D01*
X83451Y37873D01*
X83139Y37716D01*
X82670D01*
X82357Y37873D01*
X83764Y40529D02*
X83451Y40841D01*
X83139Y40997D01*
X82670D01*
X82357Y40841D01*
X82045Y40529D01*
X81889Y40060D01*
Y39747D01*
X82045Y39279D01*
X82357Y38966D01*
X82670Y38810D01*
X83139D01*
X83451Y38966D01*
X83764Y39279D01*
X85014Y40997D02*
Y37716D01*
Y40529D02*
X85326Y40841D01*
X85639Y40997D01*
X86107D01*
X86420Y40841D01*
X86732Y40529D01*
X86889Y40060D01*
Y39747D01*
X86732Y39279D01*
X86420Y38966D01*
X86107Y38810D01*
X85639D01*
X85326Y38966D01*
X85014Y39279D01*
X87982Y40997D02*
Y38810D01*
Y40372D02*
X88451Y40841D01*
X88764Y40997D01*
X89232D01*
X89545Y40841D01*
X89701Y40372D01*
Y38810D01*
Y40372D02*
X90170Y40841D01*
X90482Y40997D01*
X90951D01*
X91264Y40841D01*
X91420Y40372D01*
Y38810D01*
X92514Y42091D02*
X92670Y41935D01*
X92826Y42091D01*
X92670Y42247D01*
X92514Y42091D01*
X92670Y40997D02*
Y38810D01*
G01X80668Y68526D02*
Y66338D01*
Y67901D02*
X81137Y68370D01*
X81449Y68526D01*
X81918D01*
X82231Y68370D01*
X82387Y67901D01*
Y66338D01*
Y67901D02*
X82856Y68370D01*
X83168Y68526D01*
X83637D01*
X83949Y68370D01*
X84106Y67901D01*
Y66338D01*
X85981Y68526D02*
X85668Y68370D01*
X85356Y68057D01*
X85199Y67588D01*
Y67276D01*
X85356Y66807D01*
X85668Y66495D01*
X85981Y66338D01*
X86449D01*
X86762Y66495D01*
X87074Y66807D01*
X87231Y67276D01*
Y67588D01*
X87074Y68057D01*
X86762Y68370D01*
X86449Y68526D01*
X85981D01*
X90043Y69620D02*
Y66338D01*
Y68057D02*
X89731Y68370D01*
X89418Y68526D01*
X88949D01*
X88637Y68370D01*
X88324Y68057D01*
X88168Y67588D01*
Y67276D01*
X88324Y66807D01*
X88637Y66495D01*
X88949Y66338D01*
X89418D01*
X89731Y66495D01*
X90043Y66807D01*
X91137Y67588D02*
X93012D01*
Y67901D01*
X92856Y68213D01*
X92699Y68370D01*
X92387Y68526D01*
X91918D01*
X91606Y68370D01*
X91293Y68057D01*
X91137Y67588D01*
Y67276D01*
X91293Y66807D01*
X91606Y66495D01*
X91918Y66338D01*
X92387D01*
X92699Y66495D01*
X93012Y66807D01*
X94022Y65410D02*
G01X38823Y65070D01*
G01X74607Y68796D02*
X74920Y68952D01*
X75389Y69421D01*
Y66140D01*
G01X64285Y68730D02*
Y68886D01*
X64441Y69199D01*
X64597Y69355D01*
X64910Y69511D01*
X65535D01*
X65847Y69355D01*
X66004Y69199D01*
X66160Y68886D01*
Y68574D01*
X66004Y68261D01*
X65691Y67792D01*
X64129Y66230D01*
X66316D01*
G01X54181Y69341D02*
X55900D01*
X54962Y68091D01*
X55431D01*
X55744Y67935D01*
X55900Y67779D01*
X56056Y67310D01*
Y66997D01*
X55900Y66529D01*
X55587Y66216D01*
X55119Y66060D01*
X54650D01*
X54181Y66216D01*
X54025Y66372D01*
X53869Y66685D01*
G01X44491Y69341D02*
X42929Y67154D01*
X45272D01*
X44491Y69341D02*
Y66060D01*
G01X62890Y17467D02*
X62577Y17311D01*
X62265Y16999D01*
X62109Y16530D01*
Y16217D01*
X62265Y15749D01*
X62577Y15436D01*
X62890Y15280D01*
X63359D01*
X63671Y15436D01*
X63984Y15749D01*
X64140Y16217D01*
Y16530D01*
X63984Y16999D01*
X63671Y17311D01*
X63359Y17467D01*
X62890D01*
X66171Y18561D02*
X65859D01*
X65546Y18405D01*
X65390Y17936D01*
Y15280D01*
X64921Y17467D02*
X66015D01*
X68046Y18561D02*
X67734D01*
X67421Y18405D01*
X67265Y17936D01*
Y15280D01*
X66796Y17467D02*
X67890D01*
G01X63730Y63487D02*
X63417Y63331D01*
X63105Y63019D01*
X62949Y62550D01*
Y62237D01*
X63105Y61769D01*
X63417Y61456D01*
X63730Y61300D01*
X64199D01*
X64511Y61456D01*
X64824Y61769D01*
X64980Y62237D01*
Y62550D01*
X64824Y63019D01*
X64511Y63331D01*
X64199Y63487D01*
X63730D01*
X66074D02*
Y61300D01*
Y62862D02*
X66542Y63331D01*
X66855Y63487D01*
X67324D01*
X67636Y63331D01*
X67792Y62862D01*
Y61300D01*
G01X52880Y40427D02*
X52567Y40271D01*
X52255Y39959D01*
X52099Y39490D01*
Y39177D01*
X52255Y38709D01*
X52567Y38396D01*
X52880Y38240D01*
X53349D01*
X53661Y38396D01*
X53974Y38709D01*
X54130Y39177D01*
Y39490D01*
X53974Y39959D01*
X53661Y40271D01*
X53349Y40427D01*
X52880D01*
X56161Y41521D02*
X55849D01*
X55536Y41365D01*
X55380Y40896D01*
Y38240D01*
X54911Y40427D02*
X56005D01*
X58036Y41521D02*
X57724D01*
X57411Y41365D01*
X57255Y40896D01*
Y38240D01*
X56786Y40427D02*
X57880D01*
G01X72570Y23257D02*
X72257Y23101D01*
X71945Y22789D01*
X71789Y22320D01*
Y22007D01*
X71945Y21539D01*
X72257Y21226D01*
X72570Y21070D01*
X73039D01*
X73351Y21226D01*
X73664Y21539D01*
X73820Y22007D01*
Y22320D01*
X73664Y22789D01*
X73351Y23101D01*
X73039Y23257D01*
X72570D01*
X75851Y24351D02*
X75539D01*
X75226Y24195D01*
X75070Y23726D01*
Y21070D01*
X74601Y23257D02*
X75695D01*
X77726Y24351D02*
X77414D01*
X77101Y24195D01*
X76945Y23726D01*
Y21070D01*
X76476Y23257D02*
X77570D01*
G01X42530Y16547D02*
X42217Y16391D01*
X41905Y16079D01*
X41749Y15610D01*
Y15297D01*
X41905Y14829D01*
X42217Y14516D01*
X42530Y14360D01*
X42999D01*
X43311Y14516D01*
X43624Y14829D01*
X43780Y15297D01*
Y15610D01*
X43624Y16079D01*
X43311Y16391D01*
X42999Y16547D01*
X42530D01*
X45811Y17641D02*
X45499D01*
X45186Y17485D01*
X45030Y17016D01*
Y14360D01*
X44561Y16547D02*
X45655D01*
X47686Y17641D02*
X47374D01*
X47061Y17485D01*
X46905Y17016D01*
Y14360D01*
X46436Y16547D02*
X47530D01*
G01X73070Y58097D02*
X72757Y57941D01*
X72445Y57629D01*
X72289Y57160D01*
Y56847D01*
X72445Y56379D01*
X72757Y56066D01*
X73070Y55910D01*
X73539D01*
X73851Y56066D01*
X74164Y56379D01*
X74320Y56847D01*
Y57160D01*
X74164Y57629D01*
X73851Y57941D01*
X73539Y58097D01*
X73070D01*
X76351Y59191D02*
X76039D01*
X75726Y59035D01*
X75570Y58566D01*
Y55910D01*
X75101Y58097D02*
X76195D01*
X78226Y59191D02*
X77914D01*
X77601Y59035D01*
X77445Y58566D01*
Y55910D01*
X76976Y58097D02*
X78070D01*
G01X42190Y27937D02*
X41877Y27781D01*
X41565Y27469D01*
X41409Y27000D01*
Y26687D01*
X41565Y26219D01*
X41877Y25906D01*
X42190Y25750D01*
X42659D01*
X42971Y25906D01*
X43284Y26219D01*
X43440Y26687D01*
Y27000D01*
X43284Y27469D01*
X42971Y27781D01*
X42659Y27937D01*
X42190D01*
X45471Y29031D02*
X45159D01*
X44846Y28875D01*
X44690Y28406D01*
Y25750D01*
X44221Y27937D02*
X45315D01*
X47346Y29031D02*
X47034D01*
X46721Y28875D01*
X46565Y28406D01*
Y25750D01*
X46096Y27937D02*
X47190D01*
G01X63310Y34457D02*
X62997Y34301D01*
X62685Y33989D01*
X62529Y33520D01*
Y33207D01*
X62685Y32739D01*
X62997Y32426D01*
X63310Y32270D01*
X63779D01*
X64091Y32426D01*
X64404Y32739D01*
X64560Y33207D01*
Y33520D01*
X64404Y33989D01*
X64091Y34301D01*
X63779Y34457D01*
X63310D01*
X66591Y35551D02*
X66279D01*
X65966Y35395D01*
X65810Y34926D01*
Y32270D01*
X65341Y34457D02*
X66435D01*
X68466Y35551D02*
X68154D01*
X67841Y35395D01*
X67685Y34926D01*
Y32270D01*
X67216Y34457D02*
X68310D01*
G01X63570Y53047D02*
X63257Y52891D01*
X62945Y52579D01*
X62789Y52110D01*
Y51797D01*
X62945Y51329D01*
X63257Y51016D01*
X63570Y50860D01*
X64039D01*
X64351Y51016D01*
X64664Y51329D01*
X64820Y51797D01*
Y52110D01*
X64664Y52579D01*
X64351Y52891D01*
X64039Y53047D01*
X63570D01*
X66851Y54141D02*
X66539D01*
X66226Y53985D01*
X66070Y53516D01*
Y50860D01*
X65601Y53047D02*
X66695D01*
X68726Y54141D02*
X68414D01*
X68101Y53985D01*
X67945Y53516D01*
Y50860D01*
X67476Y53047D02*
X68570D01*
G01X52880Y34367D02*
X52567Y34211D01*
X52255Y33899D01*
X52099Y33430D01*
Y33117D01*
X52255Y32649D01*
X52567Y32336D01*
X52880Y32180D01*
X53349D01*
X53661Y32336D01*
X53974Y32649D01*
X54130Y33117D01*
Y33430D01*
X53974Y33899D01*
X53661Y34211D01*
X53349Y34367D01*
X52880D01*
X56161Y35461D02*
X55849D01*
X55536Y35305D01*
X55380Y34836D01*
Y32180D01*
X54911Y34367D02*
X56005D01*
X58036Y35461D02*
X57724D01*
X57411Y35305D01*
X57255Y34836D01*
Y32180D01*
X56786Y34367D02*
X57880D01*
G01X42190Y22637D02*
X41877Y22481D01*
X41565Y22169D01*
X41409Y21700D01*
Y21387D01*
X41565Y20919D01*
X41877Y20606D01*
X42190Y20450D01*
X42659D01*
X42971Y20606D01*
X43284Y20919D01*
X43440Y21387D01*
Y21700D01*
X43284Y22169D01*
X42971Y22481D01*
X42659Y22637D01*
X42190D01*
X45471Y23731D02*
X45159D01*
X44846Y23575D01*
X44690Y23106D01*
Y20450D01*
X44221Y22637D02*
X45315D01*
X47346Y23731D02*
X47034D01*
X46721Y23575D01*
X46565Y23106D01*
Y20450D01*
X46096Y22637D02*
X47190D01*
G01X62890Y47527D02*
X62577Y47371D01*
X62265Y47059D01*
X62109Y46590D01*
Y46277D01*
X62265Y45809D01*
X62577Y45496D01*
X62890Y45340D01*
X63359D01*
X63671Y45496D01*
X63984Y45809D01*
X64140Y46277D01*
Y46590D01*
X63984Y47059D01*
X63671Y47371D01*
X63359Y47527D01*
X62890D01*
X66171Y48621D02*
X65859D01*
X65546Y48465D01*
X65390Y47996D01*
Y45340D01*
X64921Y47527D02*
X66015D01*
X68046Y48621D02*
X67734D01*
X67421Y48465D01*
X67265Y47996D01*
Y45340D01*
X66796Y47527D02*
X67890D01*
G01X73160D02*
X72847Y47371D01*
X72535Y47059D01*
X72379Y46590D01*
Y46277D01*
X72535Y45809D01*
X72847Y45496D01*
X73160Y45340D01*
X73629D01*
X73941Y45496D01*
X74254Y45809D01*
X74410Y46277D01*
Y46590D01*
X74254Y47059D01*
X73941Y47371D01*
X73629Y47527D01*
X73160D01*
X76441Y48621D02*
X76129D01*
X75816Y48465D01*
X75660Y47996D01*
Y45340D01*
X75191Y47527D02*
X76285D01*
X78316Y48621D02*
X78004D01*
X77691Y48465D01*
X77535Y47996D01*
Y45340D01*
X77066Y47527D02*
X78160D01*
G01X63900Y58467D02*
X63587Y58311D01*
X63275Y57999D01*
X63119Y57530D01*
Y57217D01*
X63275Y56749D01*
X63587Y56436D01*
X63900Y56280D01*
X64369D01*
X64681Y56436D01*
X64994Y56749D01*
X65150Y57217D01*
Y57530D01*
X64994Y57999D01*
X64681Y58311D01*
X64369Y58467D01*
X63900D01*
X66244D02*
Y56280D01*
Y57842D02*
X66712Y58311D01*
X67025Y58467D01*
X67494D01*
X67806Y58311D01*
X67962Y57842D01*
Y56280D01*
G01X53640Y63227D02*
X53327Y63071D01*
X53015Y62759D01*
X52859Y62290D01*
Y61977D01*
X53015Y61509D01*
X53327Y61196D01*
X53640Y61040D01*
X54109D01*
X54421Y61196D01*
X54734Y61509D01*
X54890Y61977D01*
Y62290D01*
X54734Y62759D01*
X54421Y63071D01*
X54109Y63227D01*
X53640D01*
X55984D02*
Y61040D01*
Y62602D02*
X56452Y63071D01*
X56765Y63227D01*
X57234D01*
X57546Y63071D01*
X57702Y62602D01*
Y61040D01*
G01X73490Y53417D02*
X73177Y53261D01*
X72865Y52949D01*
X72709Y52480D01*
Y52167D01*
X72865Y51699D01*
X73177Y51386D01*
X73490Y51230D01*
X73959D01*
X74271Y51386D01*
X74584Y51699D01*
X74740Y52167D01*
Y52480D01*
X74584Y52949D01*
X74271Y53261D01*
X73959Y53417D01*
X73490D01*
X75834D02*
Y51230D01*
Y52792D02*
X76302Y53261D01*
X76615Y53417D01*
X77084D01*
X77396Y53261D01*
X77552Y52792D01*
Y51230D01*
G01X54060Y58517D02*
X53747Y58361D01*
X53435Y58049D01*
X53279Y57580D01*
Y57267D01*
X53435Y56799D01*
X53747Y56486D01*
X54060Y56330D01*
X54529D01*
X54841Y56486D01*
X55154Y56799D01*
X55310Y57267D01*
Y57580D01*
X55154Y58049D01*
X54841Y58361D01*
X54529Y58517D01*
X54060D01*
X56404D02*
Y56330D01*
Y57892D02*
X56872Y58361D01*
X57185Y58517D01*
X57654D01*
X57966Y58361D01*
X58122Y57892D01*
Y56330D01*
G01X42780Y63147D02*
X42467Y62991D01*
X42155Y62679D01*
X41999Y62210D01*
Y61897D01*
X42155Y61429D01*
X42467Y61116D01*
X42780Y60960D01*
X43249D01*
X43561Y61116D01*
X43874Y61429D01*
X44030Y61897D01*
Y62210D01*
X43874Y62679D01*
X43561Y62991D01*
X43249Y63147D01*
X42780D01*
X45124D02*
Y60960D01*
Y62522D02*
X45592Y62991D01*
X45905Y63147D01*
X46374D01*
X46686Y62991D01*
X46842Y62522D01*
Y60960D01*
G01X42700Y58267D02*
X42387Y58111D01*
X42075Y57799D01*
X41919Y57330D01*
Y57017D01*
X42075Y56549D01*
X42387Y56236D01*
X42700Y56080D01*
X43169D01*
X43481Y56236D01*
X43794Y56549D01*
X43950Y57017D01*
Y57330D01*
X43794Y57799D01*
X43481Y58111D01*
X43169Y58267D01*
X42700D01*
X45044D02*
Y56080D01*
Y57642D02*
X45512Y58111D01*
X45825Y58267D01*
X46294D01*
X46606Y58111D01*
X46762Y57642D01*
Y56080D01*
G01X42700Y58767D02*
X42387Y58611D01*
X42075Y58299D01*
X41919Y57830D01*
Y57517D01*
X42075Y57049D01*
X42387Y56736D01*
X42700Y56580D01*
X43169D01*
X43481Y56736D01*
X43794Y57049D01*
X43950Y57517D01*
Y57830D01*
X43794Y58299D01*
X43481Y58611D01*
X43169Y58767D01*
X42700D01*
X45044D02*
Y56580D01*
Y58142D02*
X45512Y58611D01*
X45825Y58767D01*
X46294D01*
X46606Y58611D01*
X46762Y58142D01*
Y56580D01*
G01X53640Y47917D02*
X53327Y47761D01*
X53015Y47449D01*
X52859Y46980D01*
Y46667D01*
X53015Y46199D01*
X53327Y45886D01*
X53640Y45730D01*
X54109D01*
X54421Y45886D01*
X54734Y46199D01*
X54890Y46667D01*
Y46980D01*
X54734Y47449D01*
X54421Y47761D01*
X54109Y47917D01*
X53640D01*
X55984D02*
Y45730D01*
Y47292D02*
X56452Y47761D01*
X56765Y47917D01*
X57234D01*
X57546Y47761D01*
X57702Y47292D01*
Y45730D01*
G01X53640Y53297D02*
X53327Y53141D01*
X53015Y52829D01*
X52859Y52360D01*
Y52047D01*
X53015Y51579D01*
X53327Y51266D01*
X53640Y51110D01*
X54109D01*
X54421Y51266D01*
X54734Y51579D01*
X54890Y52047D01*
Y52360D01*
X54734Y52829D01*
X54421Y53141D01*
X54109Y53297D01*
X53640D01*
X55984D02*
Y51110D01*
Y52672D02*
X56452Y53141D01*
X56765Y53297D01*
X57234D01*
X57546Y53141D01*
X57702Y52672D01*
Y51110D01*
G01X73160Y63817D02*
X72847Y63661D01*
X72535Y63349D01*
X72379Y62880D01*
Y62567D01*
X72535Y62099D01*
X72847Y61786D01*
X73160Y61630D01*
X73629D01*
X73941Y61786D01*
X74254Y62099D01*
X74410Y62567D01*
Y62880D01*
X74254Y63349D01*
X73941Y63661D01*
X73629Y63817D01*
X73160D01*
X75504D02*
Y61630D01*
Y63192D02*
X75972Y63661D01*
X76285Y63817D01*
X76754D01*
X77066Y63661D01*
X77222Y63192D01*
Y61630D01*
G01X42700Y58767D02*
X42387Y58611D01*
X42075Y58299D01*
X41919Y57830D01*
Y57517D01*
X42075Y57049D01*
X42387Y56736D01*
X42700Y56580D01*
X43169D01*
X43481Y56736D01*
X43794Y57049D01*
X43950Y57517D01*
Y57830D01*
X43794Y58299D01*
X43481Y58611D01*
X43169Y58767D01*
X42700D01*
X45044D02*
Y56580D01*
Y58142D02*
X45512Y58611D01*
X45825Y58767D01*
X46294D01*
X46606Y58611D01*
X46762Y58142D01*
Y56580D01*
G01X42360Y47667D02*
X42047Y47511D01*
X41735Y47199D01*
X41579Y46730D01*
Y46417D01*
X41735Y45949D01*
X42047Y45636D01*
X42360Y45480D01*
X42829D01*
X43141Y45636D01*
X43454Y45949D01*
X43610Y46417D01*
Y46730D01*
X43454Y47199D01*
X43141Y47511D01*
X42829Y47667D01*
X42360D01*
X44704D02*
Y45480D01*
Y47042D02*
X45172Y47511D01*
X45485Y47667D01*
X45954D01*
X46266Y47511D01*
X46422Y47042D01*
Y45480D01*
G01X42700Y58767D02*
X42387Y58611D01*
X42075Y58299D01*
X41919Y57830D01*
Y57517D01*
X42075Y57049D01*
X42387Y56736D01*
X42700Y56580D01*
X43169D01*
X43481Y56736D01*
X43794Y57049D01*
X43950Y57517D01*
Y57830D01*
X43794Y58299D01*
X43481Y58611D01*
X43169Y58767D01*
X42700D01*
X45044D02*
Y56580D01*
Y58142D02*
X45512Y58611D01*
X45825Y58767D01*
X46294D01*
X46606Y58611D01*
X46762Y58142D01*
Y56580D01*
G01X42700Y53137D02*
X42387Y52981D01*
X42075Y52669D01*
X41919Y52200D01*
Y51887D01*
X42075Y51419D01*
X42387Y51106D01*
X42700Y50950D01*
X43169D01*
X43481Y51106D01*
X43794Y51419D01*
X43950Y51887D01*
Y52200D01*
X43794Y52669D01*
X43481Y52981D01*
X43169Y53137D01*
X42700D01*
X45044D02*
Y50950D01*
Y52512D02*
X45512Y52981D01*
X45825Y53137D01*
X46294D01*
X46606Y52981D01*
X46762Y52512D01*
Y50950D01*
G01X63570Y41317D02*
X63257Y41161D01*
X62945Y40849D01*
X62789Y40380D01*
Y40067D01*
X62945Y39599D01*
X63257Y39286D01*
X63570Y39130D01*
X64039D01*
X64351Y39286D01*
X64664Y39599D01*
X64820Y40067D01*
Y40380D01*
X64664Y40849D01*
X64351Y41161D01*
X64039Y41317D01*
X63570D01*
X65914D02*
Y39130D01*
Y40692D02*
X66382Y41161D01*
X66695Y41317D01*
X67164D01*
X67476Y41161D01*
X67632Y40692D01*
Y39130D01*
G01X72910Y41407D02*
X72597Y41251D01*
X72285Y40939D01*
X72129Y40470D01*
Y40157D01*
X72285Y39689D01*
X72597Y39376D01*
X72910Y39220D01*
X73379D01*
X73691Y39376D01*
X74004Y39689D01*
X74160Y40157D01*
Y40470D01*
X74004Y40939D01*
X73691Y41251D01*
X73379Y41407D01*
X72910D01*
X75254D02*
Y39220D01*
Y40782D02*
X75722Y41251D01*
X76035Y41407D01*
X76504D01*
X76816Y41251D01*
X76972Y40782D01*
Y39220D01*
G01X43370Y40477D02*
X43057Y40321D01*
X42745Y40009D01*
X42589Y39540D01*
Y39227D01*
X42745Y38759D01*
X43057Y38446D01*
X43370Y38290D01*
X43839D01*
X44151Y38446D01*
X44464Y38759D01*
X44620Y39227D01*
Y39540D01*
X44464Y40009D01*
X44151Y40321D01*
X43839Y40477D01*
X43370D01*
X45714D02*
Y38290D01*
Y39852D02*
X46182Y40321D01*
X46495Y40477D01*
X46964D01*
X47276Y40321D01*
X47432Y39852D01*
Y38290D01*
G01X42870Y34587D02*
X42557Y34431D01*
X42245Y34119D01*
X42089Y33650D01*
Y33337D01*
X42245Y32869D01*
X42557Y32556D01*
X42870Y32400D01*
X43339D01*
X43651Y32556D01*
X43964Y32869D01*
X44120Y33337D01*
Y33650D01*
X43964Y34119D01*
X43651Y34431D01*
X43339Y34587D01*
X42870D01*
X45214D02*
Y32400D01*
Y33962D02*
X45682Y34431D01*
X45995Y34587D01*
X46464D01*
X46776Y34431D01*
X46932Y33962D01*
Y32400D01*
G01X73330Y34927D02*
X73017Y34771D01*
X72705Y34459D01*
X72549Y33990D01*
Y33677D01*
X72705Y33209D01*
X73017Y32896D01*
X73330Y32740D01*
X73799D01*
X74111Y32896D01*
X74424Y33209D01*
X74580Y33677D01*
Y33990D01*
X74424Y34459D01*
X74111Y34771D01*
X73799Y34927D01*
X73330D01*
X75674D02*
Y32740D01*
Y34302D02*
X76142Y34771D01*
X76455Y34927D01*
X76924D01*
X77236Y34771D01*
X77392Y34302D01*
Y32740D01*
G01X73330Y28947D02*
X73017Y28791D01*
X72705Y28479D01*
X72549Y28010D01*
Y27697D01*
X72705Y27229D01*
X73017Y26916D01*
X73330Y26760D01*
X73799D01*
X74111Y26916D01*
X74424Y27229D01*
X74580Y27697D01*
Y28010D01*
X74424Y28479D01*
X74111Y28791D01*
X73799Y28947D01*
X73330D01*
X75674D02*
Y26760D01*
Y28322D02*
X76142Y28791D01*
X76455Y28947D01*
X76924D01*
X77236Y28791D01*
X77392Y28322D01*
Y26760D01*
G01X53890Y28357D02*
X53577Y28201D01*
X53265Y27889D01*
X53109Y27420D01*
Y27107D01*
X53265Y26639D01*
X53577Y26326D01*
X53890Y26170D01*
X54359D01*
X54671Y26326D01*
X54984Y26639D01*
X55140Y27107D01*
Y27420D01*
X54984Y27889D01*
X54671Y28201D01*
X54359Y28357D01*
X53890D01*
X56234D02*
Y26170D01*
Y27732D02*
X56702Y28201D01*
X57015Y28357D01*
X57484D01*
X57796Y28201D01*
X57952Y27732D01*
Y26170D01*
G01X63820Y28697D02*
X63507Y28541D01*
X63195Y28229D01*
X63039Y27760D01*
Y27447D01*
X63195Y26979D01*
X63507Y26666D01*
X63820Y26510D01*
X64289D01*
X64601Y26666D01*
X64914Y26979D01*
X65070Y27447D01*
Y27760D01*
X64914Y28229D01*
X64601Y28541D01*
X64289Y28697D01*
X63820D01*
X66164D02*
Y26510D01*
Y28072D02*
X66632Y28541D01*
X66945Y28697D01*
X67414D01*
X67726Y28541D01*
X67882Y28072D01*
Y26510D01*
G01X53640Y23147D02*
X53327Y22991D01*
X53015Y22679D01*
X52859Y22210D01*
Y21897D01*
X53015Y21429D01*
X53327Y21116D01*
X53640Y20960D01*
X54109D01*
X54421Y21116D01*
X54734Y21429D01*
X54890Y21897D01*
Y22210D01*
X54734Y22679D01*
X54421Y22991D01*
X54109Y23147D01*
X53640D01*
X55984D02*
Y20960D01*
Y22522D02*
X56452Y22991D01*
X56765Y23147D01*
X57234D01*
X57546Y22991D01*
X57702Y22522D01*
Y20960D01*
G01X63730Y23567D02*
X63417Y23411D01*
X63105Y23099D01*
X62949Y22630D01*
Y22317D01*
X63105Y21849D01*
X63417Y21536D01*
X63730Y21380D01*
X64199D01*
X64511Y21536D01*
X64824Y21849D01*
X64980Y22317D01*
Y22630D01*
X64824Y23099D01*
X64511Y23411D01*
X64199Y23567D01*
X63730D01*
X66074D02*
Y21380D01*
Y22942D02*
X66542Y23411D01*
X66855Y23567D01*
X67324D01*
X67636Y23411D01*
X67792Y22942D01*
Y21380D01*
G01X53550Y17307D02*
X53237Y17151D01*
X52925Y16839D01*
X52769Y16370D01*
Y16057D01*
X52925Y15589D01*
X53237Y15276D01*
X53550Y15120D01*
X54019D01*
X54331Y15276D01*
X54644Y15589D01*
X54800Y16057D01*
Y16370D01*
X54644Y16839D01*
X54331Y17151D01*
X54019Y17307D01*
X53550D01*
X55894D02*
Y15120D01*
Y16682D02*
X56362Y17151D01*
X56675Y17307D01*
X57144D01*
X57456Y17151D01*
X57612Y16682D01*
Y15120D01*
G01X73410Y17727D02*
X73097Y17571D01*
X72785Y17259D01*
X72629Y16790D01*
Y16477D01*
X72785Y16009D01*
X73097Y15696D01*
X73410Y15540D01*
X73879D01*
X74191Y15696D01*
X74504Y16009D01*
X74660Y16477D01*
Y16790D01*
X74504Y17259D01*
X74191Y17571D01*
X73879Y17727D01*
X73410D01*
X75754D02*
Y15540D01*
Y17102D02*
X76222Y17571D01*
X76535Y17727D01*
X77004D01*
X77316Y17571D01*
X77472Y17102D01*
Y15540D01*
G01X-102849Y194952D02*
Y192140D01*
X-104255Y193546D02*
X-101443D01*
G01X-113505D02*
X-110693D01*
G01X-125955Y186711D02*
Y183430D01*
Y186711D02*
X-124549D01*
X-124080Y186555D01*
X-123924Y186399D01*
X-123768Y186086D01*
Y185774D01*
X-123924Y185461D01*
X-124080Y185305D01*
X-124549Y185149D01*
X-125955D02*
X-124549D01*
X-124080Y184992D01*
X-123924Y184836D01*
X-123768Y184524D01*
Y184055D01*
X-123924Y183742D01*
X-124080Y183586D01*
X-124549Y183430D01*
X-125955D01*
X-121893Y186711D02*
X-123143Y183430D01*
X-121893Y186711D02*
X-120643Y183430D01*
X-122674Y184524D02*
X-121111D01*
X-119236Y186711D02*
Y183430D01*
X-120330Y186711D02*
X-118143D01*
M02*
