G04 ================== begin FILE IDENTIFICATION RECORD ==================*
G04 Layout Name:  F:/prj/I.MX/I.MX233/idmx2-13-07/pcb/idmx1307pcb_46-0-49-152.brd*
G04 Film Name:    SilkscreenBottom*
G04 File Format:  Gerber RS274X*
G04 File Origin:  15.5-p006*
G04 Origin Date:  Thu Mar 06 11:04:17 2014*
G04 ================== end FILE IDENTIFICATION RECORD ====================*
%FSLAX55Y55*MOIN*%
%IR0*IPPOS*OFA0.00000B0.00000*MIA0B0*SFA1.00000B1.00000*%
%ADD10C,.006*%
%ADD11C,.008*%
G75*
%LPD*%
G75*
G54D10*
G01X-148660Y130920D02*
X-148410Y131120D01*
X-148120Y131250D01*
X-147780D01*
X-147410Y131050D01*
X-147120Y130720D01*
X-146910Y130320D01*
X-146740Y129650D01*
X-146700Y129050D01*
X-146780Y128450D01*
X-146910Y128050D01*
X-147160Y127650D01*
X-147450Y127380D01*
X-147740Y127250D01*
X-148030D01*
X-148320Y127380D01*
X-148570Y127580D01*
X-148780Y127850D01*
G01X-151740Y127250D02*
Y131250D01*
X-150200Y128380D01*
X-152280D01*
G01X-154740Y127250D02*
Y131250D01*
X-154240Y130450D01*
G01Y127250D02*
X-155240D01*
G01X-155640Y183300D02*
Y187300D01*
X-156680D01*
X-157010Y187100D01*
X-157220Y186830D01*
X-157300Y186300D01*
X-157220Y185770D01*
X-156970Y185430D01*
X-156680Y185230D01*
X-155640D01*
G01X-156680D02*
X-157300Y183300D01*
G01X-159970Y187300D02*
Y183300D01*
G01X-159010Y187300D02*
X-160930D01*
G01X-162550Y184100D02*
X-162800Y183630D01*
X-163140Y183370D01*
X-163510Y183300D01*
X-163850Y183370D01*
X-164180Y183700D01*
X-164390Y184100D01*
X-164430Y184500D01*
X-164350Y184970D01*
X-164050Y185300D01*
X-163760Y185430D01*
X-163390D01*
G01X-163760D02*
X-164010Y185630D01*
X-164220Y185970D01*
X-164300Y186370D01*
X-164220Y186770D01*
X-164010Y187100D01*
X-163640Y187300D01*
X-163260Y187230D01*
X-162890Y186970D01*
G01X-142490Y-5550D02*
X-146490D01*
Y-6590D01*
X-146290Y-6920D01*
X-146020Y-7130D01*
X-145490Y-7210D01*
X-144960Y-7130D01*
X-144620Y-6880D01*
X-144420Y-6590D01*
Y-5550D01*
G01Y-6590D02*
X-142490Y-7210D01*
G01Y-9880D02*
X-146490D01*
X-145690Y-9380D01*
G01X-142490D02*
Y-10380D01*
G01X-143290Y-12460D02*
X-142820Y-12710D01*
X-142560Y-13050D01*
X-142490Y-13420D01*
X-142560Y-13760D01*
X-142890Y-14090D01*
X-143290Y-14300D01*
X-143690Y-14340D01*
X-144160Y-14260D01*
X-144490Y-13960D01*
X-144620Y-13670D01*
Y-13300D01*
G01Y-13670D02*
X-144820Y-13920D01*
X-145160Y-14130D01*
X-145560Y-14210D01*
X-145960Y-14130D01*
X-146290Y-13920D01*
X-146490Y-13550D01*
X-146420Y-13170D01*
X-146160Y-12800D01*
G01X-142490Y-16880D02*
X-146490D01*
X-145690Y-16380D01*
G01X-142490D02*
Y-17380D01*
G01X-145130Y27970D02*
Y25100D01*
X-145300Y24500D01*
X-145630Y24100D01*
X-146050Y23970D01*
X-146470Y24100D01*
X-146800Y24500D01*
X-146970Y25100D01*
Y27970D01*
G01X-149550Y23970D02*
X-149840Y24040D01*
X-150170Y24240D01*
X-150380Y24570D01*
X-150470Y25040D01*
X-150380Y25500D01*
X-150130Y25900D01*
X-149760Y26100D01*
X-149340D01*
X-149090Y26240D01*
X-148880Y26570D01*
X-148800Y27040D01*
X-148930Y27500D01*
X-149220Y27840D01*
X-149550Y27970D01*
X-149880Y27840D01*
X-150170Y27500D01*
X-150300Y27040D01*
X-150220Y26570D01*
X-150010Y26240D01*
X-149760Y26100D01*
X-149340D01*
X-148970Y25900D01*
X-148720Y25500D01*
X-148630Y25040D01*
X-148720Y24570D01*
X-148930Y24240D01*
X-149260Y24040D01*
X-149550Y23970D01*
G01X-139060Y62770D02*
X-143060D01*
Y61930D01*
X-142860Y61600D01*
X-142590Y61350D01*
X-142190Y61140D01*
X-141730Y60970D01*
X-141060Y60930D01*
X-140390Y60970D01*
X-139930Y61140D01*
X-139530Y61350D01*
X-139260Y61600D01*
X-139060Y61930D01*
Y62770D01*
G01Y58350D02*
X-143060D01*
X-142260Y58850D01*
G01X-139060D02*
Y57850D01*
G01X-139660Y55770D02*
X-139330Y55520D01*
X-139130Y55230D01*
X-139060Y54850D01*
X-139190Y54470D01*
X-139460Y54180D01*
X-139930Y53970D01*
X-140460Y53930D01*
X-140990Y54020D01*
X-141330Y54230D01*
X-141590Y54520D01*
X-141660Y54810D01*
X-141590Y55100D01*
X-141330Y55470D01*
X-143060Y55350D01*
Y54230D01*
G01X-139230Y82950D02*
X-143230D01*
Y81910D01*
X-143030Y81580D01*
X-142760Y81370D01*
X-142230Y81290D01*
X-141700Y81370D01*
X-141360Y81620D01*
X-141160Y81910D01*
Y82950D01*
G01Y81910D02*
X-139230Y81290D01*
G01Y78620D02*
X-143230D01*
X-142430Y79120D01*
G01X-139230D02*
Y78120D01*
G01X-140030Y76040D02*
X-139560Y75790D01*
X-139300Y75450D01*
X-139230Y75080D01*
X-139300Y74740D01*
X-139630Y74410D01*
X-140030Y74200D01*
X-140430Y74160D01*
X-140900Y74240D01*
X-141230Y74540D01*
X-141360Y74830D01*
Y75200D01*
G01Y74830D02*
X-141560Y74580D01*
X-141900Y74370D01*
X-142300Y74290D01*
X-142700Y74370D01*
X-143030Y74580D01*
X-143230Y74950D01*
X-143160Y75330D01*
X-142900Y75700D01*
G01X-139830Y72540D02*
X-139500Y72290D01*
X-139300Y72000D01*
X-139230Y71620D01*
X-139360Y71240D01*
X-139630Y70950D01*
X-140100Y70740D01*
X-140630Y70700D01*
X-141160Y70790D01*
X-141500Y71000D01*
X-141760Y71290D01*
X-141830Y71580D01*
X-141760Y71870D01*
X-141500Y72240D01*
X-143230Y72120D01*
Y71000D01*
G01X-144140Y142690D02*
X-143890Y142890D01*
X-143600Y143020D01*
X-143260D01*
X-142890Y142820D01*
X-142600Y142490D01*
X-142390Y142090D01*
X-142220Y141420D01*
X-142180Y140820D01*
X-142260Y140220D01*
X-142390Y139820D01*
X-142640Y139420D01*
X-142930Y139150D01*
X-143220Y139020D01*
X-143510D01*
X-143800Y139150D01*
X-144050Y139350D01*
X-144260Y139620D01*
G01X-147220Y139020D02*
Y143020D01*
X-145680Y140150D01*
X-147760D01*
G01X-150220Y143020D02*
X-149890Y142890D01*
X-149640Y142550D01*
X-149470Y142150D01*
X-149340Y141620D01*
X-149300Y141020D01*
X-149340Y140420D01*
X-149470Y139890D01*
X-149640Y139490D01*
X-149890Y139150D01*
X-150220Y139020D01*
X-150550Y139150D01*
X-150800Y139490D01*
X-150970Y139890D01*
X-151100Y140420D01*
X-151140Y141020D01*
X-151100Y141620D01*
X-150970Y142150D01*
X-150800Y142550D01*
X-150550Y142890D01*
X-150220Y143020D01*
G01X-139120Y173570D02*
X-139320Y173820D01*
X-139450Y174110D01*
Y174450D01*
X-139250Y174820D01*
X-138920Y175110D01*
X-138520Y175320D01*
X-137850Y175490D01*
X-137250Y175530D01*
X-136650Y175450D01*
X-136250Y175320D01*
X-135850Y175070D01*
X-135580Y174780D01*
X-135450Y174490D01*
Y174200D01*
X-135580Y173910D01*
X-135780Y173660D01*
X-136050Y173450D01*
G01X-135450Y171070D02*
X-136320Y170990D01*
X-137050Y170860D01*
X-137720Y170700D01*
X-138450Y170490D01*
X-139450Y170160D01*
Y171820D01*
G01X-136050Y168410D02*
X-135720Y168160D01*
X-135520Y167870D01*
X-135450Y167490D01*
X-135580Y167110D01*
X-135850Y166820D01*
X-136320Y166610D01*
X-136850Y166570D01*
X-137380Y166660D01*
X-137720Y166870D01*
X-137980Y167160D01*
X-138050Y167450D01*
X-137980Y167740D01*
X-137720Y168110D01*
X-139450Y167990D01*
Y166870D01*
G01X-116750Y10570D02*
X-116500Y10770D01*
X-116210Y10900D01*
X-115870D01*
X-115500Y10700D01*
X-115210Y10370D01*
X-115000Y9970D01*
X-114830Y9300D01*
X-114790Y8700D01*
X-114870Y8100D01*
X-115000Y7700D01*
X-115250Y7300D01*
X-115540Y7030D01*
X-115830Y6900D01*
X-116120D01*
X-116410Y7030D01*
X-116660Y7230D01*
X-116870Y7500D01*
G01X-118540Y8570D02*
X-118830Y9030D01*
X-119080Y9300D01*
X-119410Y9430D01*
X-119710Y9300D01*
X-119910Y9030D01*
X-120080Y8630D01*
X-120120Y8170D01*
X-120080Y7770D01*
X-119910Y7370D01*
X-119660Y7030D01*
X-119370Y6900D01*
X-119040Y7030D01*
X-118750Y7430D01*
X-118580Y8030D01*
X-118540Y8700D01*
X-118620Y9570D01*
X-118750Y10030D01*
X-118950Y10500D01*
X-119250Y10830D01*
X-119540Y10900D01*
X-119830Y10770D01*
X-120040Y10430D01*
G01X-123330Y6900D02*
Y10900D01*
X-121790Y8030D01*
X-123870D01*
G01X-113200Y-2560D02*
Y1440D01*
X-114240D01*
X-114570Y1240D01*
X-114780Y970D01*
X-114860Y440D01*
X-114780Y-90D01*
X-114530Y-430D01*
X-114240Y-630D01*
X-113200D01*
G01X-114240D02*
X-114860Y-2560D01*
G01X-117530D02*
Y1440D01*
X-117030Y640D01*
G01Y-2560D02*
X-118030D01*
G01X-120110Y-1760D02*
X-120360Y-2230D01*
X-120700Y-2490D01*
X-121070Y-2560D01*
X-121410Y-2490D01*
X-121740Y-2160D01*
X-121950Y-1760D01*
X-121990Y-1360D01*
X-121910Y-890D01*
X-121610Y-560D01*
X-121320Y-430D01*
X-120950D01*
G01X-121320D02*
X-121570Y-230D01*
X-121780Y110D01*
X-121860Y510D01*
X-121780Y910D01*
X-121570Y1240D01*
X-121200Y1440D01*
X-120820Y1370D01*
X-120450Y1110D01*
G01X-124530Y1440D02*
X-124200Y1310D01*
X-123950Y970D01*
X-123780Y570D01*
X-123650Y40D01*
X-123610Y-560D01*
X-123650Y-1160D01*
X-123780Y-1690D01*
X-123950Y-2090D01*
X-124200Y-2430D01*
X-124530Y-2560D01*
X-124860Y-2430D01*
X-125110Y-2090D01*
X-125280Y-1690D01*
X-125410Y-1160D01*
X-125450Y-560D01*
X-125410Y40D01*
X-125280Y570D01*
X-125110Y970D01*
X-124860Y1310D01*
X-124530Y1440D01*
G01X-118900Y125960D02*
X-118650Y126160D01*
X-118360Y126290D01*
X-118020D01*
X-117650Y126090D01*
X-117360Y125760D01*
X-117150Y125360D01*
X-116980Y124690D01*
X-116940Y124090D01*
X-117020Y123490D01*
X-117150Y123090D01*
X-117400Y122690D01*
X-117690Y122420D01*
X-117980Y122290D01*
X-118270D01*
X-118560Y122420D01*
X-118810Y122620D01*
X-119020Y122890D01*
G01X-121400Y122290D02*
X-121480Y123160D01*
X-121610Y123890D01*
X-121770Y124560D01*
X-121980Y125290D01*
X-122310Y126290D01*
X-120650D01*
G01X-124190Y123960D02*
X-124480Y124420D01*
X-124730Y124690D01*
X-125060Y124820D01*
X-125360Y124690D01*
X-125560Y124420D01*
X-125730Y124020D01*
X-125770Y123560D01*
X-125730Y123160D01*
X-125560Y122760D01*
X-125310Y122420D01*
X-125020Y122290D01*
X-124690Y122420D01*
X-124400Y122820D01*
X-124230Y123420D01*
X-124190Y124090D01*
X-124270Y124960D01*
X-124400Y125420D01*
X-124600Y125890D01*
X-124900Y126220D01*
X-125190Y126290D01*
X-125480Y126160D01*
X-125690Y125820D01*
G01X-116810Y151700D02*
X-115150D01*
Y155700D01*
X-116810D01*
G01X-116150Y153770D02*
X-115150D01*
G01X-119480Y151700D02*
Y155700D01*
X-118980Y154900D01*
G01Y151700D02*
X-119980D01*
G01X-123370Y157810D02*
X-123040Y157880D01*
X-122750Y158140D01*
X-122490Y158540D01*
X-122330Y159010D01*
X-122240Y159540D01*
Y160080D01*
X-122330Y160610D01*
X-122490Y161080D01*
X-122750Y161480D01*
X-123040Y161740D01*
X-123370Y161810D01*
X-123700Y161740D01*
X-123990Y161480D01*
X-124250Y161080D01*
X-124410Y160610D01*
X-124500Y160080D01*
Y159540D01*
X-124410Y159010D01*
X-124250Y158540D01*
X-123990Y158140D01*
X-123700Y157880D01*
X-123370Y157810D01*
G01X-123700Y158880D02*
X-124200Y157810D01*
G01X-126870D02*
Y161810D01*
X-126370Y161010D01*
G01Y157810D02*
X-127370D01*
G01X-127500Y190000D02*
X-127670Y190200D01*
X-127790Y190540D01*
X-127880Y191000D01*
X-127790Y191400D01*
X-127630Y191670D01*
X-127340Y191870D01*
X-126210D01*
Y187870D01*
X-127590D01*
X-127880Y188140D01*
X-128050Y188540D01*
X-128130Y189000D01*
X-128050Y189470D01*
X-127790Y189870D01*
X-127500Y190000D01*
X-126210D01*
G01X-130670Y191870D02*
Y187870D01*
G01X-129710Y191870D02*
X-131630D01*
G01X-134170Y187870D02*
Y191870D01*
X-133670Y191070D01*
G01Y187870D02*
X-134670D01*
G01X-112290Y33180D02*
X-112490Y33430D01*
X-112620Y33720D01*
Y34060D01*
X-112420Y34430D01*
X-112090Y34720D01*
X-111690Y34930D01*
X-111020Y35100D01*
X-110420Y35140D01*
X-109820Y35060D01*
X-109420Y34930D01*
X-109020Y34680D01*
X-108750Y34390D01*
X-108620Y34100D01*
Y33810D01*
X-108750Y33520D01*
X-108950Y33270D01*
X-109220Y33060D01*
G01X-110290Y31390D02*
X-110750Y31100D01*
X-111020Y30850D01*
X-111150Y30520D01*
X-111020Y30220D01*
X-110750Y30020D01*
X-110350Y29850D01*
X-109890Y29810D01*
X-109490Y29850D01*
X-109090Y30020D01*
X-108750Y30270D01*
X-108620Y30560D01*
X-108750Y30890D01*
X-109150Y31180D01*
X-109750Y31350D01*
X-110420Y31390D01*
X-111290Y31310D01*
X-111750Y31180D01*
X-112220Y30980D01*
X-112550Y30680D01*
X-112620Y30390D01*
X-112490Y30100D01*
X-112150Y29890D01*
G01X-109220Y28020D02*
X-108890Y27770D01*
X-108690Y27480D01*
X-108620Y27100D01*
X-108750Y26720D01*
X-109020Y26430D01*
X-109490Y26220D01*
X-110020Y26180D01*
X-110550Y26270D01*
X-110890Y26480D01*
X-111150Y26770D01*
X-111220Y27060D01*
X-111150Y27350D01*
X-110890Y27720D01*
X-112620Y27600D01*
Y26480D01*
G01X-107540Y73850D02*
X-111540D01*
Y72810D01*
X-111340Y72480D01*
X-111070Y72270D01*
X-110540Y72190D01*
X-110010Y72270D01*
X-109670Y72520D01*
X-109470Y72810D01*
Y73850D01*
G01Y72810D02*
X-107540Y72190D01*
G01Y69520D02*
X-111540D01*
X-110740Y70020D01*
G01X-107540D02*
Y69020D01*
G01X-108340Y66940D02*
X-107870Y66690D01*
X-107610Y66350D01*
X-107540Y65980D01*
X-107610Y65640D01*
X-107940Y65310D01*
X-108340Y65100D01*
X-108740Y65060D01*
X-109210Y65140D01*
X-109540Y65440D01*
X-109670Y65730D01*
Y66100D01*
G01Y65730D02*
X-109870Y65480D01*
X-110210Y65270D01*
X-110610Y65190D01*
X-111010Y65270D01*
X-111340Y65480D01*
X-111540Y65850D01*
X-111470Y66230D01*
X-111210Y66600D01*
G01X-109210Y63310D02*
X-109670Y63020D01*
X-109940Y62770D01*
X-110070Y62440D01*
X-109940Y62140D01*
X-109670Y61940D01*
X-109270Y61770D01*
X-108810Y61730D01*
X-108410Y61770D01*
X-108010Y61940D01*
X-107670Y62190D01*
X-107540Y62480D01*
X-107670Y62810D01*
X-108070Y63100D01*
X-108670Y63270D01*
X-109340Y63310D01*
X-110210Y63230D01*
X-110670Y63100D01*
X-111140Y62900D01*
X-111470Y62600D01*
X-111540Y62310D01*
X-111410Y62020D01*
X-111070Y61810D01*
G01X-110040Y139100D02*
X-106040D01*
Y137440D01*
G01Y134770D02*
X-110040D01*
X-109240Y135270D01*
G01X-106040D02*
Y134270D01*
G01X-106640Y132190D02*
X-106310Y131940D01*
X-106110Y131650D01*
X-106040Y131270D01*
X-106170Y130890D01*
X-106440Y130600D01*
X-106910Y130390D01*
X-107440Y130350D01*
X-107970Y130440D01*
X-108310Y130650D01*
X-108570Y130940D01*
X-108640Y131230D01*
X-108570Y131520D01*
X-108310Y131890D01*
X-110040Y131770D01*
Y130650D01*
G01X-73610Y-65650D02*
Y-61650D01*
X-74650D01*
X-74980Y-61850D01*
X-75190Y-62120D01*
X-75270Y-62650D01*
X-75190Y-63180D01*
X-74940Y-63520D01*
X-74650Y-63720D01*
X-73610D01*
G01X-74650D02*
X-75270Y-65650D01*
G01X-77940D02*
Y-61650D01*
X-77440Y-62450D01*
G01Y-65650D02*
X-78440D01*
G01X-81940D02*
Y-61650D01*
X-80400Y-64520D01*
X-82480D01*
G01X-84940Y-65650D02*
Y-61650D01*
X-84440Y-62450D01*
G01Y-65650D02*
X-85440D01*
G01X-73780Y-59440D02*
Y-55440D01*
X-74820D01*
X-75150Y-55640D01*
X-75360Y-55910D01*
X-75440Y-56440D01*
X-75360Y-56970D01*
X-75110Y-57310D01*
X-74820Y-57510D01*
X-73780D01*
G01X-74820D02*
X-75440Y-59440D01*
G01X-78110D02*
Y-55440D01*
X-77610Y-56240D01*
G01Y-59440D02*
X-78610D01*
G01X-82110D02*
Y-55440D01*
X-80570Y-58310D01*
X-82650D01*
G01X-85110Y-55440D02*
X-84780Y-55570D01*
X-84530Y-55910D01*
X-84360Y-56310D01*
X-84230Y-56840D01*
X-84190Y-57440D01*
X-84230Y-58040D01*
X-84360Y-58570D01*
X-84530Y-58970D01*
X-84780Y-59310D01*
X-85110Y-59440D01*
X-85440Y-59310D01*
X-85690Y-58970D01*
X-85860Y-58570D01*
X-85990Y-58040D01*
X-86030Y-57440D01*
X-85990Y-56840D01*
X-85860Y-56310D01*
X-85690Y-55910D01*
X-85440Y-55570D01*
X-85110Y-55440D01*
G01X-73800Y-52080D02*
Y-48080D01*
X-74840D01*
X-75170Y-48280D01*
X-75380Y-48550D01*
X-75460Y-49080D01*
X-75380Y-49610D01*
X-75130Y-49950D01*
X-74840Y-50150D01*
X-73800D01*
G01X-74840D02*
X-75460Y-52080D01*
G01X-78130D02*
Y-48080D01*
X-77630Y-48880D01*
G01Y-52080D02*
X-78630D01*
G01X-80710Y-51280D02*
X-80960Y-51750D01*
X-81300Y-52010D01*
X-81670Y-52080D01*
X-82010Y-52010D01*
X-82340Y-51680D01*
X-82550Y-51280D01*
X-82590Y-50880D01*
X-82510Y-50410D01*
X-82210Y-50080D01*
X-81920Y-49950D01*
X-81550D01*
G01X-81920D02*
X-82170Y-49750D01*
X-82380Y-49410D01*
X-82460Y-49010D01*
X-82380Y-48610D01*
X-82170Y-48280D01*
X-81800Y-48080D01*
X-81420Y-48150D01*
X-81050Y-48410D01*
G01X-84420Y-51610D02*
X-84710Y-51950D01*
X-85050Y-52080D01*
X-85380Y-51950D01*
X-85670Y-51550D01*
X-85880Y-50950D01*
X-85960Y-50350D01*
Y-49610D01*
X-85880Y-49010D01*
X-85670Y-48480D01*
X-85420Y-48210D01*
X-85130Y-48080D01*
X-84800Y-48210D01*
X-84550Y-48480D01*
X-84380Y-48880D01*
X-84300Y-49410D01*
X-84380Y-49880D01*
X-84590Y-50350D01*
X-84840Y-50610D01*
X-85130Y-50680D01*
X-85460Y-50550D01*
X-85710Y-50210D01*
X-85960Y-49610D01*
G01X-74710Y-46030D02*
Y-42030D01*
X-75750D01*
X-76080Y-42230D01*
X-76290Y-42500D01*
X-76370Y-43030D01*
X-76290Y-43560D01*
X-76040Y-43900D01*
X-75750Y-44100D01*
X-74710D01*
G01X-75750D02*
X-76370Y-46030D01*
G01X-79040D02*
Y-42030D01*
X-78540Y-42830D01*
G01Y-46030D02*
X-79540D01*
G01X-81620Y-45230D02*
X-81870Y-45700D01*
X-82210Y-45960D01*
X-82580Y-46030D01*
X-82920Y-45960D01*
X-83250Y-45630D01*
X-83460Y-45230D01*
X-83500Y-44830D01*
X-83420Y-44360D01*
X-83120Y-44030D01*
X-82830Y-43900D01*
X-82460D01*
G01X-82830D02*
X-83080Y-43700D01*
X-83290Y-43360D01*
X-83370Y-42960D01*
X-83290Y-42560D01*
X-83080Y-42230D01*
X-82710Y-42030D01*
X-82330Y-42100D01*
X-81960Y-42360D01*
G01X-85960Y-46030D02*
X-86040Y-45160D01*
X-86170Y-44430D01*
X-86330Y-43760D01*
X-86540Y-43030D01*
X-86870Y-42030D01*
X-85210D01*
G01X-93390Y-8070D02*
X-97390D01*
Y-9110D01*
X-97190Y-9440D01*
X-96920Y-9650D01*
X-96390Y-9730D01*
X-95860Y-9650D01*
X-95520Y-9400D01*
X-95320Y-9110D01*
Y-8070D01*
G01Y-9110D02*
X-93390Y-9730D01*
G01X-94190Y-11480D02*
X-93720Y-11730D01*
X-93460Y-12070D01*
X-93390Y-12440D01*
X-93460Y-12780D01*
X-93790Y-13110D01*
X-94190Y-13320D01*
X-94590Y-13360D01*
X-95060Y-13280D01*
X-95390Y-12980D01*
X-95520Y-12690D01*
Y-12320D01*
G01Y-12690D02*
X-95720Y-12940D01*
X-96060Y-13150D01*
X-96460Y-13230D01*
X-96860Y-13150D01*
X-97190Y-12940D01*
X-97390Y-12570D01*
X-97320Y-12190D01*
X-97060Y-11820D01*
G01X-93390Y-15900D02*
X-93460Y-16190D01*
X-93660Y-16520D01*
X-93990Y-16730D01*
X-94460Y-16820D01*
X-94920Y-16730D01*
X-95320Y-16480D01*
X-95520Y-16110D01*
Y-15690D01*
X-95660Y-15440D01*
X-95990Y-15230D01*
X-96460Y-15150D01*
X-96920Y-15280D01*
X-97260Y-15570D01*
X-97390Y-15900D01*
X-97260Y-16230D01*
X-96920Y-16520D01*
X-96460Y-16650D01*
X-95990Y-16570D01*
X-95660Y-16360D01*
X-95520Y-16110D01*
Y-15690D01*
X-95320Y-15320D01*
X-94920Y-15070D01*
X-94460Y-14980D01*
X-93990Y-15070D01*
X-93660Y-15280D01*
X-93460Y-15610D01*
X-93390Y-15900D01*
G01X-96930Y9280D02*
X-97130Y9530D01*
X-97260Y9820D01*
Y10160D01*
X-97060Y10530D01*
X-96730Y10820D01*
X-96330Y11030D01*
X-95660Y11200D01*
X-95060Y11240D01*
X-94460Y11160D01*
X-94060Y11030D01*
X-93660Y10780D01*
X-93390Y10490D01*
X-93260Y10200D01*
Y9910D01*
X-93390Y9620D01*
X-93590Y9370D01*
X-93860Y9160D01*
G01Y7620D02*
X-93530Y7370D01*
X-93330Y7080D01*
X-93260Y6700D01*
X-93390Y6320D01*
X-93660Y6030D01*
X-94130Y5820D01*
X-94660Y5780D01*
X-95190Y5870D01*
X-95530Y6080D01*
X-95790Y6370D01*
X-95860Y6660D01*
X-95790Y6950D01*
X-95530Y7320D01*
X-97260Y7200D01*
Y6080D01*
G01X-93860Y4120D02*
X-93530Y3870D01*
X-93330Y3580D01*
X-93260Y3200D01*
X-93390Y2820D01*
X-93660Y2530D01*
X-94130Y2320D01*
X-94660Y2280D01*
X-95190Y2370D01*
X-95530Y2580D01*
X-95790Y2870D01*
X-95860Y3160D01*
X-95790Y3450D01*
X-95530Y3820D01*
X-97260Y3700D01*
Y2580D01*
G01X-91440Y60770D02*
X-87440D01*
Y59110D01*
G01Y56440D02*
X-91440D01*
X-90640Y56940D01*
G01X-87440D02*
Y55940D01*
G01X-88240Y53860D02*
X-87770Y53610D01*
X-87510Y53270D01*
X-87440Y52900D01*
X-87510Y52560D01*
X-87840Y52230D01*
X-88240Y52020D01*
X-88640Y51980D01*
X-89110Y52060D01*
X-89440Y52360D01*
X-89570Y52650D01*
Y53020D01*
G01Y52650D02*
X-89770Y52400D01*
X-90110Y52190D01*
X-90510Y52110D01*
X-90910Y52190D01*
X-91240Y52400D01*
X-91440Y52770D01*
X-91370Y53150D01*
X-91110Y53520D01*
G01X-79800Y83690D02*
Y79690D01*
X-81460D01*
G01X-84130D02*
Y83690D01*
X-83630Y82890D01*
G01Y79690D02*
X-84630D01*
G01X-87630D02*
Y83690D01*
X-87130Y82890D01*
G01Y79690D02*
X-88130D01*
G01X-76350Y129090D02*
Y133090D01*
X-77390D01*
X-77720Y132890D01*
X-77930Y132620D01*
X-78010Y132090D01*
X-77930Y131560D01*
X-77680Y131220D01*
X-77390Y131020D01*
X-76350D01*
G01X-77390D02*
X-78010Y129090D01*
G01X-80680D02*
Y133090D01*
X-80180Y132290D01*
G01Y129090D02*
X-81180D01*
G01X-83260Y129890D02*
X-83510Y129420D01*
X-83850Y129160D01*
X-84220Y129090D01*
X-84560Y129160D01*
X-84890Y129490D01*
X-85100Y129890D01*
X-85140Y130290D01*
X-85060Y130760D01*
X-84760Y131090D01*
X-84470Y131220D01*
X-84100D01*
G01X-84470D02*
X-84720Y131420D01*
X-84930Y131760D01*
X-85010Y132160D01*
X-84930Y132560D01*
X-84720Y132890D01*
X-84350Y133090D01*
X-83970Y133020D01*
X-83600Y132760D01*
G01X-87680Y129090D02*
X-87970Y129160D01*
X-88300Y129360D01*
X-88510Y129690D01*
X-88600Y130160D01*
X-88510Y130620D01*
X-88260Y131020D01*
X-87890Y131220D01*
X-87470D01*
X-87220Y131360D01*
X-87010Y131690D01*
X-86930Y132160D01*
X-87060Y132620D01*
X-87350Y132960D01*
X-87680Y133090D01*
X-88010Y132960D01*
X-88300Y132620D01*
X-88430Y132160D01*
X-88350Y131690D01*
X-88140Y131360D01*
X-87890Y131220D01*
X-87470D01*
X-87100Y131020D01*
X-86850Y130620D01*
X-86760Y130160D01*
X-86850Y129690D01*
X-87060Y129360D01*
X-87390Y129160D01*
X-87680Y129090D01*
G01X-88560Y153630D02*
X-88310Y153830D01*
X-88020Y153960D01*
X-87680D01*
X-87310Y153760D01*
X-87020Y153430D01*
X-86810Y153030D01*
X-86640Y152360D01*
X-86600Y151760D01*
X-86680Y151160D01*
X-86810Y150760D01*
X-87060Y150360D01*
X-87350Y150090D01*
X-87640Y149960D01*
X-87930D01*
X-88220Y150090D01*
X-88470Y150290D01*
X-88680Y150560D01*
G01X-90350Y151630D02*
X-90640Y152090D01*
X-90890Y152360D01*
X-91220Y152490D01*
X-91520Y152360D01*
X-91720Y152090D01*
X-91890Y151690D01*
X-91930Y151230D01*
X-91890Y150830D01*
X-91720Y150430D01*
X-91470Y150090D01*
X-91180Y149960D01*
X-90850Y150090D01*
X-90560Y150490D01*
X-90390Y151090D01*
X-90350Y151760D01*
X-90430Y152630D01*
X-90560Y153090D01*
X-90760Y153560D01*
X-91060Y153890D01*
X-91350Y153960D01*
X-91640Y153830D01*
X-91850Y153490D01*
G01X-94560Y149960D02*
X-94640Y150830D01*
X-94770Y151560D01*
X-94930Y152230D01*
X-95140Y152960D01*
X-95470Y153960D01*
X-93810D01*
G01X-74440Y184350D02*
Y188350D01*
X-75480D01*
X-75810Y188150D01*
X-76020Y187880D01*
X-76100Y187350D01*
X-76020Y186820D01*
X-75770Y186480D01*
X-75480Y186280D01*
X-74440D01*
G01X-75480D02*
X-76100Y184350D01*
G01X-78770D02*
Y188350D01*
X-78270Y187550D01*
G01Y184350D02*
X-79270D01*
G01X-82770D02*
Y188350D01*
X-81230Y185480D01*
X-83310D01*
G01X-84850Y185150D02*
X-85100Y184680D01*
X-85440Y184420D01*
X-85810Y184350D01*
X-86150Y184420D01*
X-86480Y184750D01*
X-86690Y185150D01*
X-86730Y185550D01*
X-86650Y186020D01*
X-86350Y186350D01*
X-86060Y186480D01*
X-85690D01*
G01X-86060D02*
X-86310Y186680D01*
X-86520Y187020D01*
X-86600Y187420D01*
X-86520Y187820D01*
X-86310Y188150D01*
X-85940Y188350D01*
X-85560Y188280D01*
X-85190Y188020D01*
G01X-70450Y-87460D02*
X-74450D01*
Y-88300D01*
X-74250Y-88630D01*
X-73980Y-88880D01*
X-73580Y-89090D01*
X-73120Y-89260D01*
X-72450Y-89300D01*
X-71780Y-89260D01*
X-71320Y-89090D01*
X-70920Y-88880D01*
X-70650Y-88630D01*
X-70450Y-88300D01*
Y-87460D01*
G01Y-91880D02*
X-70520Y-92170D01*
X-70720Y-92500D01*
X-71050Y-92710D01*
X-71520Y-92800D01*
X-71980Y-92710D01*
X-72380Y-92460D01*
X-72580Y-92090D01*
Y-91670D01*
X-72720Y-91420D01*
X-73050Y-91210D01*
X-73520Y-91130D01*
X-73980Y-91260D01*
X-74320Y-91550D01*
X-74450Y-91880D01*
X-74320Y-92210D01*
X-73980Y-92500D01*
X-73520Y-92630D01*
X-73050Y-92550D01*
X-72720Y-92340D01*
X-72580Y-92090D01*
Y-91670D01*
X-72380Y-91300D01*
X-71980Y-91050D01*
X-71520Y-90960D01*
X-71050Y-91050D01*
X-70720Y-91260D01*
X-70520Y-91590D01*
X-70450Y-91880D01*
G01X-75360Y-39440D02*
Y-35440D01*
X-76400D01*
X-76730Y-35640D01*
X-76940Y-35910D01*
X-77020Y-36440D01*
X-76940Y-36970D01*
X-76690Y-37310D01*
X-76400Y-37510D01*
X-75360D01*
G01X-76400D02*
X-77020Y-39440D01*
G01X-78770Y-38640D02*
X-79020Y-39110D01*
X-79360Y-39370D01*
X-79730Y-39440D01*
X-80070Y-39370D01*
X-80400Y-39040D01*
X-80610Y-38640D01*
X-80650Y-38240D01*
X-80570Y-37770D01*
X-80270Y-37440D01*
X-79980Y-37310D01*
X-79610D01*
G01X-79980D02*
X-80230Y-37110D01*
X-80440Y-36770D01*
X-80520Y-36370D01*
X-80440Y-35970D01*
X-80230Y-35640D01*
X-79860Y-35440D01*
X-79480Y-35510D01*
X-79110Y-35770D01*
G01X-82480Y-38970D02*
X-82770Y-39310D01*
X-83110Y-39440D01*
X-83440Y-39310D01*
X-83730Y-38910D01*
X-83940Y-38310D01*
X-84020Y-37710D01*
Y-36970D01*
X-83940Y-36370D01*
X-83730Y-35840D01*
X-83480Y-35570D01*
X-83190Y-35440D01*
X-82860Y-35570D01*
X-82610Y-35840D01*
X-82440Y-36240D01*
X-82360Y-36770D01*
X-82440Y-37240D01*
X-82650Y-37710D01*
X-82900Y-37970D01*
X-83190Y-38040D01*
X-83520Y-37910D01*
X-83770Y-37570D01*
X-84020Y-36970D01*
G01X-61600Y22550D02*
X-61350Y22750D01*
X-61060Y22880D01*
X-60720D01*
X-60350Y22680D01*
X-60060Y22350D01*
X-59850Y21950D01*
X-59680Y21280D01*
X-59640Y20680D01*
X-59720Y20080D01*
X-59850Y19680D01*
X-60100Y19280D01*
X-60390Y19010D01*
X-60680Y18880D01*
X-60970D01*
X-61260Y19010D01*
X-61510Y19210D01*
X-61720Y19480D01*
G01X-63260D02*
X-63510Y19150D01*
X-63800Y18950D01*
X-64180Y18880D01*
X-64560Y19010D01*
X-64850Y19280D01*
X-65060Y19750D01*
X-65100Y20280D01*
X-65010Y20810D01*
X-64800Y21150D01*
X-64510Y21410D01*
X-64220Y21480D01*
X-63930Y21410D01*
X-63560Y21150D01*
X-63680Y22880D01*
X-64800D01*
G01X-67680Y18880D02*
Y22880D01*
X-67180Y22080D01*
G01Y18880D02*
X-68180D01*
G01X-75560Y28540D02*
X-75310Y28740D01*
X-75020Y28870D01*
X-74680D01*
X-74310Y28670D01*
X-74020Y28340D01*
X-73810Y27940D01*
X-73640Y27270D01*
X-73600Y26670D01*
X-73680Y26070D01*
X-73810Y25670D01*
X-74060Y25270D01*
X-74350Y25000D01*
X-74640Y24870D01*
X-74930D01*
X-75220Y25000D01*
X-75470Y25200D01*
X-75680Y25470D01*
G01X-77220D02*
X-77470Y25140D01*
X-77760Y24940D01*
X-78140Y24870D01*
X-78520Y25000D01*
X-78810Y25270D01*
X-79020Y25740D01*
X-79060Y26270D01*
X-78970Y26800D01*
X-78760Y27140D01*
X-78470Y27400D01*
X-78180Y27470D01*
X-77890Y27400D01*
X-77520Y27140D01*
X-77640Y28870D01*
X-78760D01*
G01X-80850Y28200D02*
X-81100Y28600D01*
X-81390Y28800D01*
X-81720Y28870D01*
X-82140Y28740D01*
X-82430Y28400D01*
X-82520Y28000D01*
X-82470Y27600D01*
X-82310Y27270D01*
X-81470Y26600D01*
X-81100Y26140D01*
X-80850Y25470D01*
X-80760Y24870D01*
X-82520D01*
G01X-59410Y11710D02*
Y15710D01*
X-60450D01*
X-60780Y15510D01*
X-60990Y15240D01*
X-61070Y14710D01*
X-60990Y14180D01*
X-60740Y13840D01*
X-60450Y13640D01*
X-59410D01*
G01X-60450D02*
X-61070Y11710D01*
G01X-64240D02*
Y15710D01*
X-62700Y12840D01*
X-64780D01*
G01X-67240Y15710D02*
X-66910Y15580D01*
X-66660Y15240D01*
X-66490Y14840D01*
X-66360Y14310D01*
X-66320Y13710D01*
X-66360Y13110D01*
X-66490Y12580D01*
X-66660Y12180D01*
X-66910Y11840D01*
X-67240Y11710D01*
X-67570Y11840D01*
X-67820Y12180D01*
X-67990Y12580D01*
X-68120Y13110D01*
X-68160Y13710D01*
X-68120Y14310D01*
X-67990Y14840D01*
X-67820Y15240D01*
X-67570Y15580D01*
X-67240Y15710D01*
G01X-73850Y19710D02*
Y23710D01*
X-74890D01*
X-75220Y23510D01*
X-75430Y23240D01*
X-75510Y22710D01*
X-75430Y22180D01*
X-75180Y21840D01*
X-74890Y21640D01*
X-73850D01*
G01X-74890D02*
X-75510Y19710D01*
G01X-77260Y20510D02*
X-77510Y20040D01*
X-77850Y19780D01*
X-78220Y19710D01*
X-78560Y19780D01*
X-78890Y20110D01*
X-79100Y20510D01*
X-79140Y20910D01*
X-79060Y21380D01*
X-78760Y21710D01*
X-78470Y21840D01*
X-78100D01*
G01X-78470D02*
X-78720Y22040D01*
X-78930Y22380D01*
X-79010Y22780D01*
X-78930Y23180D01*
X-78720Y23510D01*
X-78350Y23710D01*
X-77970Y23640D01*
X-77600Y23380D01*
G01X-80890Y21380D02*
X-81180Y21840D01*
X-81430Y22110D01*
X-81760Y22240D01*
X-82060Y22110D01*
X-82260Y21840D01*
X-82430Y21440D01*
X-82470Y20980D01*
X-82430Y20580D01*
X-82260Y20180D01*
X-82010Y19840D01*
X-81720Y19710D01*
X-81390Y19840D01*
X-81100Y20240D01*
X-80930Y20840D01*
X-80890Y21510D01*
X-80970Y22380D01*
X-81100Y22840D01*
X-81300Y23310D01*
X-81600Y23640D01*
X-81890Y23710D01*
X-82180Y23580D01*
X-82390Y23240D01*
G01X-66320Y35840D02*
X-66070Y36040D01*
X-65780Y36170D01*
X-65440D01*
X-65070Y35970D01*
X-64780Y35640D01*
X-64570Y35240D01*
X-64400Y34570D01*
X-64360Y33970D01*
X-64440Y33370D01*
X-64570Y32970D01*
X-64820Y32570D01*
X-65110Y32300D01*
X-65400Y32170D01*
X-65690D01*
X-65980Y32300D01*
X-66230Y32500D01*
X-66440Y32770D01*
G01X-67980D02*
X-68230Y32440D01*
X-68520Y32240D01*
X-68900Y32170D01*
X-69280Y32300D01*
X-69570Y32570D01*
X-69780Y33040D01*
X-69820Y33570D01*
X-69730Y34100D01*
X-69520Y34440D01*
X-69230Y34700D01*
X-68940Y34770D01*
X-68650Y34700D01*
X-68280Y34440D01*
X-68400Y36170D01*
X-69520D01*
G01X-71480Y32970D02*
X-71730Y32500D01*
X-72070Y32240D01*
X-72440Y32170D01*
X-72780Y32240D01*
X-73110Y32570D01*
X-73320Y32970D01*
X-73360Y33370D01*
X-73280Y33840D01*
X-72980Y34170D01*
X-72690Y34300D01*
X-72320D01*
G01X-72690D02*
X-72940Y34500D01*
X-73150Y34840D01*
X-73230Y35240D01*
X-73150Y35640D01*
X-72940Y35970D01*
X-72570Y36170D01*
X-72190Y36100D01*
X-71820Y35840D01*
G01X-67360Y41380D02*
X-67110Y41580D01*
X-66820Y41710D01*
X-66480D01*
X-66110Y41510D01*
X-65820Y41180D01*
X-65610Y40780D01*
X-65440Y40110D01*
X-65400Y39510D01*
X-65480Y38910D01*
X-65610Y38510D01*
X-65860Y38110D01*
X-66150Y37840D01*
X-66440Y37710D01*
X-66730D01*
X-67020Y37840D01*
X-67270Y38040D01*
X-67480Y38310D01*
G01X-69150Y39380D02*
X-69440Y39840D01*
X-69690Y40110D01*
X-70020Y40240D01*
X-70320Y40110D01*
X-70520Y39840D01*
X-70690Y39440D01*
X-70730Y38980D01*
X-70690Y38580D01*
X-70520Y38180D01*
X-70270Y37840D01*
X-69980Y37710D01*
X-69650Y37840D01*
X-69360Y38240D01*
X-69190Y38840D01*
X-69150Y39510D01*
X-69230Y40380D01*
X-69360Y40840D01*
X-69560Y41310D01*
X-69860Y41640D01*
X-70150Y41710D01*
X-70440Y41580D01*
X-70650Y41240D01*
G01X-72520Y38510D02*
X-72770Y38040D01*
X-73110Y37780D01*
X-73480Y37710D01*
X-73820Y37780D01*
X-74150Y38110D01*
X-74360Y38510D01*
X-74400Y38910D01*
X-74320Y39380D01*
X-74020Y39710D01*
X-73730Y39840D01*
X-73360D01*
G01X-73730D02*
X-73980Y40040D01*
X-74190Y40380D01*
X-74270Y40780D01*
X-74190Y41180D01*
X-73980Y41510D01*
X-73610Y41710D01*
X-73230Y41640D01*
X-72860Y41380D01*
G01X-71650Y51130D02*
X-71400Y51330D01*
X-71110Y51460D01*
X-70770D01*
X-70400Y51260D01*
X-70110Y50930D01*
X-69900Y50530D01*
X-69730Y49860D01*
X-69690Y49260D01*
X-69770Y48660D01*
X-69900Y48260D01*
X-70150Y47860D01*
X-70440Y47590D01*
X-70730Y47460D01*
X-71020D01*
X-71310Y47590D01*
X-71560Y47790D01*
X-71770Y48060D01*
G01X-73310D02*
X-73560Y47730D01*
X-73850Y47530D01*
X-74230Y47460D01*
X-74610Y47590D01*
X-74900Y47860D01*
X-75110Y48330D01*
X-75150Y48860D01*
X-75060Y49390D01*
X-74850Y49730D01*
X-74560Y49990D01*
X-74270Y50060D01*
X-73980Y49990D01*
X-73610Y49730D01*
X-73730Y51460D01*
X-74850D01*
G01X-76940Y49130D02*
X-77230Y49590D01*
X-77480Y49860D01*
X-77810Y49990D01*
X-78110Y49860D01*
X-78310Y49590D01*
X-78480Y49190D01*
X-78520Y48730D01*
X-78480Y48330D01*
X-78310Y47930D01*
X-78060Y47590D01*
X-77770Y47460D01*
X-77440Y47590D01*
X-77150Y47990D01*
X-76980Y48590D01*
X-76940Y49260D01*
X-77020Y50130D01*
X-77150Y50590D01*
X-77350Y51060D01*
X-77650Y51390D01*
X-77940Y51460D01*
X-78230Y51330D01*
X-78440Y50990D01*
G01X-75550Y70590D02*
Y66590D01*
X-77210D01*
G01X-79880D02*
Y70590D01*
X-79380Y69790D01*
G01Y66590D02*
X-80380D01*
G01X-83380Y70590D02*
X-83050Y70460D01*
X-82800Y70120D01*
X-82630Y69720D01*
X-82500Y69190D01*
X-82460Y68590D01*
X-82500Y67990D01*
X-82630Y67460D01*
X-82800Y67060D01*
X-83050Y66720D01*
X-83380Y66590D01*
X-83710Y66720D01*
X-83960Y67060D01*
X-84130Y67460D01*
X-84260Y67990D01*
X-84300Y68590D01*
X-84260Y69190D01*
X-84130Y69720D01*
X-83960Y70120D01*
X-83710Y70460D01*
X-83380Y70590D01*
G01X-70140Y96780D02*
X-69890Y96980D01*
X-69600Y97110D01*
X-69260D01*
X-68890Y96910D01*
X-68600Y96580D01*
X-68390Y96180D01*
X-68220Y95510D01*
X-68180Y94910D01*
X-68260Y94310D01*
X-68390Y93910D01*
X-68640Y93510D01*
X-68930Y93240D01*
X-69220Y93110D01*
X-69510D01*
X-69800Y93240D01*
X-70050Y93440D01*
X-70260Y93710D01*
G01X-72640Y93110D02*
X-72720Y93980D01*
X-72850Y94710D01*
X-73010Y95380D01*
X-73220Y96110D01*
X-73550Y97110D01*
X-71890D01*
G01X-76220Y93110D02*
Y97110D01*
X-75720Y96310D01*
G01Y93110D02*
X-76720D01*
G01X-75700Y118060D02*
X-75450Y118260D01*
X-75160Y118390D01*
X-74820D01*
X-74450Y118190D01*
X-74160Y117860D01*
X-73950Y117460D01*
X-73780Y116790D01*
X-73740Y116190D01*
X-73820Y115590D01*
X-73950Y115190D01*
X-74200Y114790D01*
X-74490Y114520D01*
X-74780Y114390D01*
X-75070D01*
X-75360Y114520D01*
X-75610Y114720D01*
X-75820Y114990D01*
G01X-77490Y116060D02*
X-77780Y116520D01*
X-78030Y116790D01*
X-78360Y116920D01*
X-78660Y116790D01*
X-78860Y116520D01*
X-79030Y116120D01*
X-79070Y115660D01*
X-79030Y115260D01*
X-78860Y114860D01*
X-78610Y114520D01*
X-78320Y114390D01*
X-77990Y114520D01*
X-77700Y114920D01*
X-77530Y115520D01*
X-77490Y116190D01*
X-77570Y117060D01*
X-77700Y117520D01*
X-77900Y117990D01*
X-78200Y118320D01*
X-78490Y118390D01*
X-78780Y118260D01*
X-78990Y117920D01*
G01X-81780Y114390D02*
X-82070Y114460D01*
X-82400Y114660D01*
X-82610Y114990D01*
X-82700Y115460D01*
X-82610Y115920D01*
X-82360Y116320D01*
X-81990Y116520D01*
X-81570D01*
X-81320Y116660D01*
X-81110Y116990D01*
X-81030Y117460D01*
X-81160Y117920D01*
X-81450Y118260D01*
X-81780Y118390D01*
X-82110Y118260D01*
X-82400Y117920D01*
X-82530Y117460D01*
X-82450Y116990D01*
X-82240Y116660D01*
X-81990Y116520D01*
X-81570D01*
X-81200Y116320D01*
X-80950Y115920D01*
X-80860Y115460D01*
X-80950Y114990D01*
X-81160Y114660D01*
X-81490Y114460D01*
X-81780Y114390D01*
G01X-70990Y153570D02*
X-70740Y153770D01*
X-70450Y153900D01*
X-70110D01*
X-69740Y153700D01*
X-69450Y153370D01*
X-69240Y152970D01*
X-69070Y152300D01*
X-69030Y151700D01*
X-69110Y151100D01*
X-69240Y150700D01*
X-69490Y150300D01*
X-69780Y150030D01*
X-70070Y149900D01*
X-70360D01*
X-70650Y150030D01*
X-70900Y150230D01*
X-71110Y150500D01*
G01X-72780Y151570D02*
X-73070Y152030D01*
X-73320Y152300D01*
X-73650Y152430D01*
X-73950Y152300D01*
X-74150Y152030D01*
X-74320Y151630D01*
X-74360Y151170D01*
X-74320Y150770D01*
X-74150Y150370D01*
X-73900Y150030D01*
X-73610Y149900D01*
X-73280Y150030D01*
X-72990Y150430D01*
X-72820Y151030D01*
X-72780Y151700D01*
X-72860Y152570D01*
X-72990Y153030D01*
X-73190Y153500D01*
X-73490Y153830D01*
X-73780Y153900D01*
X-74070Y153770D01*
X-74280Y153430D01*
G01X-76280Y151570D02*
X-76570Y152030D01*
X-76820Y152300D01*
X-77150Y152430D01*
X-77450Y152300D01*
X-77650Y152030D01*
X-77820Y151630D01*
X-77860Y151170D01*
X-77820Y150770D01*
X-77650Y150370D01*
X-77400Y150030D01*
X-77110Y149900D01*
X-76780Y150030D01*
X-76490Y150430D01*
X-76320Y151030D01*
X-76280Y151700D01*
X-76360Y152570D01*
X-76490Y153030D01*
X-76690Y153500D01*
X-76990Y153830D01*
X-77280Y153900D01*
X-77570Y153770D01*
X-77780Y153430D01*
G01X-68600Y164090D02*
Y168090D01*
X-69640D01*
X-69970Y167890D01*
X-70180Y167620D01*
X-70260Y167090D01*
X-70180Y166560D01*
X-69930Y166220D01*
X-69640Y166020D01*
X-68600D01*
G01X-69640D02*
X-70260Y164090D01*
G01X-72140Y167420D02*
X-72390Y167820D01*
X-72680Y168020D01*
X-73010Y168090D01*
X-73430Y167960D01*
X-73720Y167620D01*
X-73810Y167220D01*
X-73760Y166820D01*
X-73600Y166490D01*
X-72760Y165820D01*
X-72390Y165360D01*
X-72140Y164690D01*
X-72050Y164090D01*
X-73810D01*
G01X-76430D02*
X-76720Y164160D01*
X-77050Y164360D01*
X-77260Y164690D01*
X-77350Y165160D01*
X-77260Y165620D01*
X-77010Y166020D01*
X-76640Y166220D01*
X-76220D01*
X-75970Y166360D01*
X-75760Y166690D01*
X-75680Y167160D01*
X-75810Y167620D01*
X-76100Y167960D01*
X-76430Y168090D01*
X-76760Y167960D01*
X-77050Y167620D01*
X-77180Y167160D01*
X-77100Y166690D01*
X-76890Y166360D01*
X-76640Y166220D01*
X-76220D01*
X-75850Y166020D01*
X-75600Y165620D01*
X-75510Y165160D01*
X-75600Y164690D01*
X-75810Y164360D01*
X-76140Y164160D01*
X-76430Y164090D01*
G01X-79930D02*
X-80220Y164160D01*
X-80550Y164360D01*
X-80760Y164690D01*
X-80850Y165160D01*
X-80760Y165620D01*
X-80510Y166020D01*
X-80140Y166220D01*
X-79720D01*
X-79470Y166360D01*
X-79260Y166690D01*
X-79180Y167160D01*
X-79310Y167620D01*
X-79600Y167960D01*
X-79930Y168090D01*
X-80260Y167960D01*
X-80550Y167620D01*
X-80680Y167160D01*
X-80600Y166690D01*
X-80390Y166360D01*
X-80140Y166220D01*
X-79720D01*
X-79350Y166020D01*
X-79100Y165620D01*
X-79010Y165160D01*
X-79100Y164690D01*
X-79310Y164360D01*
X-79640Y164160D01*
X-79930Y164090D01*
G01X-60020Y-50880D02*
X-59770Y-50680D01*
X-59480Y-50550D01*
X-59140D01*
X-58770Y-50750D01*
X-58480Y-51080D01*
X-58270Y-51480D01*
X-58100Y-52150D01*
X-58060Y-52750D01*
X-58140Y-53350D01*
X-58270Y-53750D01*
X-58520Y-54150D01*
X-58810Y-54420D01*
X-59100Y-54550D01*
X-59390D01*
X-59680Y-54420D01*
X-59930Y-54220D01*
X-60140Y-53950D01*
G01X-61680Y-53750D02*
X-61930Y-54220D01*
X-62270Y-54480D01*
X-62640Y-54550D01*
X-62980Y-54480D01*
X-63310Y-54150D01*
X-63520Y-53750D01*
X-63560Y-53350D01*
X-63480Y-52880D01*
X-63180Y-52550D01*
X-62890Y-52420D01*
X-62520D01*
G01X-62890D02*
X-63140Y-52220D01*
X-63350Y-51880D01*
X-63430Y-51480D01*
X-63350Y-51080D01*
X-63140Y-50750D01*
X-62770Y-50550D01*
X-62390Y-50620D01*
X-62020Y-50880D01*
G01X-65310Y-51220D02*
X-65560Y-50820D01*
X-65850Y-50620D01*
X-66180Y-50550D01*
X-66600Y-50680D01*
X-66890Y-51020D01*
X-66980Y-51420D01*
X-66930Y-51820D01*
X-66770Y-52150D01*
X-65930Y-52820D01*
X-65560Y-53280D01*
X-65310Y-53950D01*
X-65220Y-54550D01*
X-66980D01*
G01X-57690Y-39440D02*
X-61690D01*
Y-40480D01*
X-61490Y-40810D01*
X-61220Y-41020D01*
X-60690Y-41100D01*
X-60160Y-41020D01*
X-59820Y-40770D01*
X-59620Y-40480D01*
Y-39440D01*
G01Y-40480D02*
X-57690Y-41100D01*
G01X-58490Y-42850D02*
X-58020Y-43100D01*
X-57760Y-43440D01*
X-57690Y-43810D01*
X-57760Y-44150D01*
X-58090Y-44480D01*
X-58490Y-44690D01*
X-58890Y-44730D01*
X-59360Y-44650D01*
X-59690Y-44350D01*
X-59820Y-44060D01*
Y-43690D01*
G01Y-44060D02*
X-60020Y-44310D01*
X-60360Y-44520D01*
X-60760Y-44600D01*
X-61160Y-44520D01*
X-61490Y-44310D01*
X-61690Y-43940D01*
X-61620Y-43560D01*
X-61360Y-43190D01*
G01X-57690Y-47270D02*
X-61690D01*
X-60890Y-46770D01*
G01X-57690D02*
Y-47770D01*
G01X-60660Y-3860D02*
X-64660D01*
Y-4900D01*
X-64460Y-5230D01*
X-64190Y-5440D01*
X-63660Y-5520D01*
X-63130Y-5440D01*
X-62790Y-5190D01*
X-62590Y-4900D01*
Y-3860D01*
G01Y-4900D02*
X-60660Y-5520D01*
G01X-61460Y-7270D02*
X-60990Y-7520D01*
X-60730Y-7860D01*
X-60660Y-8230D01*
X-60730Y-8570D01*
X-61060Y-8900D01*
X-61460Y-9110D01*
X-61860Y-9150D01*
X-62330Y-9070D01*
X-62660Y-8770D01*
X-62790Y-8480D01*
Y-8110D01*
G01Y-8480D02*
X-62990Y-8730D01*
X-63330Y-8940D01*
X-63730Y-9020D01*
X-64130Y-8940D01*
X-64460Y-8730D01*
X-64660Y-8360D01*
X-64590Y-7980D01*
X-64330Y-7610D01*
G01X-60660Y-11610D02*
X-61530Y-11690D01*
X-62260Y-11820D01*
X-62930Y-11980D01*
X-63660Y-12190D01*
X-64660Y-12520D01*
Y-10860D01*
G01X-48360Y27790D02*
X-48110Y27990D01*
X-47820Y28120D01*
X-47480D01*
X-47110Y27920D01*
X-46820Y27590D01*
X-46610Y27190D01*
X-46440Y26520D01*
X-46400Y25920D01*
X-46480Y25320D01*
X-46610Y24920D01*
X-46860Y24520D01*
X-47150Y24250D01*
X-47440Y24120D01*
X-47730D01*
X-48020Y24250D01*
X-48270Y24450D01*
X-48480Y24720D01*
G01X-50020D02*
X-50270Y24390D01*
X-50560Y24190D01*
X-50940Y24120D01*
X-51320Y24250D01*
X-51610Y24520D01*
X-51820Y24990D01*
X-51860Y25520D01*
X-51770Y26050D01*
X-51560Y26390D01*
X-51270Y26650D01*
X-50980Y26720D01*
X-50690Y26650D01*
X-50320Y26390D01*
X-50440Y28120D01*
X-51560D01*
G01X-53730Y24590D02*
X-54020Y24250D01*
X-54360Y24120D01*
X-54690Y24250D01*
X-54980Y24650D01*
X-55190Y25250D01*
X-55270Y25850D01*
Y26590D01*
X-55190Y27190D01*
X-54980Y27720D01*
X-54730Y27990D01*
X-54440Y28120D01*
X-54110Y27990D01*
X-53860Y27720D01*
X-53690Y27320D01*
X-53610Y26790D01*
X-53690Y26320D01*
X-53900Y25850D01*
X-54150Y25590D01*
X-54440Y25520D01*
X-54770Y25650D01*
X-55020Y25990D01*
X-55270Y26590D01*
G01X-50890Y77530D02*
X-50640Y77730D01*
X-50350Y77860D01*
X-50010D01*
X-49640Y77660D01*
X-49350Y77330D01*
X-49140Y76930D01*
X-48970Y76260D01*
X-48930Y75660D01*
X-49010Y75060D01*
X-49140Y74660D01*
X-49390Y74260D01*
X-49680Y73990D01*
X-49970Y73860D01*
X-50260D01*
X-50550Y73990D01*
X-50800Y74190D01*
X-51010Y74460D01*
G01X-52680Y75530D02*
X-52970Y75990D01*
X-53220Y76260D01*
X-53550Y76390D01*
X-53850Y76260D01*
X-54050Y75990D01*
X-54220Y75590D01*
X-54260Y75130D01*
X-54220Y74730D01*
X-54050Y74330D01*
X-53800Y73990D01*
X-53510Y73860D01*
X-53180Y73990D01*
X-52890Y74390D01*
X-52720Y74990D01*
X-52680Y75660D01*
X-52760Y76530D01*
X-52890Y76990D01*
X-53090Y77460D01*
X-53390Y77790D01*
X-53680Y77860D01*
X-53970Y77730D01*
X-54180Y77390D01*
G01X-56260Y74330D02*
X-56550Y73990D01*
X-56890Y73860D01*
X-57220Y73990D01*
X-57510Y74390D01*
X-57720Y74990D01*
X-57800Y75590D01*
Y76330D01*
X-57720Y76930D01*
X-57510Y77460D01*
X-57260Y77730D01*
X-56970Y77860D01*
X-56640Y77730D01*
X-56390Y77460D01*
X-56220Y77060D01*
X-56140Y76530D01*
X-56220Y76060D01*
X-56430Y75590D01*
X-56680Y75330D01*
X-56970Y75260D01*
X-57300Y75390D01*
X-57550Y75730D01*
X-57800Y76330D01*
G01X-52630Y70250D02*
X-52380Y70450D01*
X-52090Y70580D01*
X-51750D01*
X-51380Y70380D01*
X-51090Y70050D01*
X-50880Y69650D01*
X-50710Y68980D01*
X-50670Y68380D01*
X-50750Y67780D01*
X-50880Y67380D01*
X-51130Y66980D01*
X-51420Y66710D01*
X-51710Y66580D01*
X-52000D01*
X-52290Y66710D01*
X-52540Y66910D01*
X-52750Y67180D01*
G01X-54290D02*
X-54540Y66850D01*
X-54830Y66650D01*
X-55210Y66580D01*
X-55590Y66710D01*
X-55880Y66980D01*
X-56090Y67450D01*
X-56130Y67980D01*
X-56040Y68510D01*
X-55830Y68850D01*
X-55540Y69110D01*
X-55250Y69180D01*
X-54960Y69110D01*
X-54590Y68850D01*
X-54710Y70580D01*
X-55830D01*
G01X-58630Y66580D02*
X-58710Y67450D01*
X-58840Y68180D01*
X-59000Y68850D01*
X-59210Y69580D01*
X-59540Y70580D01*
X-57880D01*
G01X-55790Y114650D02*
X-51790D01*
Y112990D01*
G01Y110320D02*
X-55790D01*
X-54990Y110820D01*
G01X-51790D02*
Y109820D01*
G01X-55120Y107610D02*
X-55520Y107360D01*
X-55720Y107070D01*
X-55790Y106740D01*
X-55660Y106320D01*
X-55320Y106030D01*
X-54920Y105940D01*
X-54520Y105990D01*
X-54190Y106150D01*
X-53520Y106990D01*
X-53060Y107360D01*
X-52390Y107610D01*
X-51790Y107700D01*
Y105940D01*
G01X-45850Y162900D02*
Y166900D01*
X-46890D01*
X-47220Y166700D01*
X-47430Y166430D01*
X-47510Y165900D01*
X-47430Y165370D01*
X-47180Y165030D01*
X-46890Y164830D01*
X-45850D01*
G01X-46890D02*
X-47510Y162900D01*
G01X-49390Y166230D02*
X-49640Y166630D01*
X-49930Y166830D01*
X-50260Y166900D01*
X-50680Y166770D01*
X-50970Y166430D01*
X-51060Y166030D01*
X-51010Y165630D01*
X-50850Y165300D01*
X-50010Y164630D01*
X-49640Y164170D01*
X-49390Y163500D01*
X-49300Y162900D01*
X-51060D01*
G01X-53680D02*
X-53970Y162970D01*
X-54300Y163170D01*
X-54510Y163500D01*
X-54600Y163970D01*
X-54510Y164430D01*
X-54260Y164830D01*
X-53890Y165030D01*
X-53470D01*
X-53220Y165170D01*
X-53010Y165500D01*
X-52930Y165970D01*
X-53060Y166430D01*
X-53350Y166770D01*
X-53680Y166900D01*
X-54010Y166770D01*
X-54300Y166430D01*
X-54430Y165970D01*
X-54350Y165500D01*
X-54140Y165170D01*
X-53890Y165030D01*
X-53470D01*
X-53100Y164830D01*
X-52850Y164430D01*
X-52760Y163970D01*
X-52850Y163500D01*
X-53060Y163170D01*
X-53390Y162970D01*
X-53680Y162900D01*
G01X-57100D02*
X-57180Y163770D01*
X-57310Y164500D01*
X-57470Y165170D01*
X-57680Y165900D01*
X-58010Y166900D01*
X-56350D01*
G01X-52850Y183320D02*
Y187320D01*
X-53890D01*
X-54220Y187120D01*
X-54430Y186850D01*
X-54510Y186320D01*
X-54430Y185790D01*
X-54180Y185450D01*
X-53890Y185250D01*
X-52850D01*
G01X-53890D02*
X-54510Y183320D01*
G01X-57180D02*
Y187320D01*
X-56680Y186520D01*
G01Y183320D02*
X-57680D01*
G01X-61180D02*
Y187320D01*
X-59640Y184450D01*
X-61720D01*
G01X-63390Y186650D02*
X-63640Y187050D01*
X-63930Y187250D01*
X-64260Y187320D01*
X-64680Y187190D01*
X-64970Y186850D01*
X-65060Y186450D01*
X-65010Y186050D01*
X-64850Y185720D01*
X-64010Y185050D01*
X-63640Y184590D01*
X-63390Y183920D01*
X-63300Y183320D01*
X-65060D01*
G01X-25990Y-96300D02*
Y-92300D01*
X-27030D01*
X-27360Y-92500D01*
X-27570Y-92770D01*
X-27650Y-93300D01*
X-27570Y-93830D01*
X-27320Y-94170D01*
X-27030Y-94370D01*
X-25990D01*
G01X-27030D02*
X-27650Y-96300D01*
G01X-30320D02*
Y-92300D01*
X-29820Y-93100D01*
G01Y-96300D02*
X-30820D01*
G01X-34320D02*
Y-92300D01*
X-32780Y-95170D01*
X-34860D01*
G01X-37820Y-96300D02*
Y-92300D01*
X-36280Y-95170D01*
X-38360D01*
G01X-43830Y-78690D02*
X-43500Y-78620D01*
X-43210Y-78360D01*
X-42950Y-77960D01*
X-42790Y-77490D01*
X-42700Y-76960D01*
Y-76420D01*
X-42790Y-75890D01*
X-42950Y-75420D01*
X-43210Y-75020D01*
X-43500Y-74760D01*
X-43830Y-74690D01*
X-44160Y-74760D01*
X-44450Y-75020D01*
X-44710Y-75420D01*
X-44870Y-75890D01*
X-44960Y-76420D01*
Y-76960D01*
X-44870Y-77490D01*
X-44710Y-77960D01*
X-44450Y-78360D01*
X-44160Y-78620D01*
X-43830Y-78690D01*
G01X-44160Y-77620D02*
X-44660Y-78690D01*
G01X-46410Y-77890D02*
X-46660Y-78360D01*
X-47000Y-78620D01*
X-47370Y-78690D01*
X-47710Y-78620D01*
X-48040Y-78290D01*
X-48250Y-77890D01*
X-48290Y-77490D01*
X-48210Y-77020D01*
X-47910Y-76690D01*
X-47620Y-76560D01*
X-47250D01*
G01X-47620D02*
X-47870Y-76360D01*
X-48080Y-76020D01*
X-48160Y-75620D01*
X-48080Y-75220D01*
X-47870Y-74890D01*
X-47500Y-74690D01*
X-47120Y-74760D01*
X-46750Y-75020D01*
G01X-26120Y-56340D02*
X-25870Y-56140D01*
X-25580Y-56010D01*
X-25240D01*
X-24870Y-56210D01*
X-24580Y-56540D01*
X-24370Y-56940D01*
X-24200Y-57610D01*
X-24160Y-58210D01*
X-24240Y-58810D01*
X-24370Y-59210D01*
X-24620Y-59610D01*
X-24910Y-59880D01*
X-25200Y-60010D01*
X-25490D01*
X-25780Y-59880D01*
X-26030Y-59680D01*
X-26240Y-59410D01*
G01X-27780Y-59210D02*
X-28030Y-59680D01*
X-28370Y-59940D01*
X-28740Y-60010D01*
X-29080Y-59940D01*
X-29410Y-59610D01*
X-29620Y-59210D01*
X-29660Y-58810D01*
X-29580Y-58340D01*
X-29280Y-58010D01*
X-28990Y-57880D01*
X-28620D01*
G01X-28990D02*
X-29240Y-57680D01*
X-29450Y-57340D01*
X-29530Y-56940D01*
X-29450Y-56540D01*
X-29240Y-56210D01*
X-28870Y-56010D01*
X-28490Y-56080D01*
X-28120Y-56340D01*
G01X-32200Y-60010D02*
Y-56010D01*
X-31700Y-56810D01*
G01Y-60010D02*
X-32700D01*
G01X-39790Y-42880D02*
X-43790D01*
Y-43920D01*
X-43590Y-44250D01*
X-43320Y-44460D01*
X-42790Y-44540D01*
X-42260Y-44460D01*
X-41920Y-44210D01*
X-41720Y-43920D01*
Y-42880D01*
G01Y-43920D02*
X-39790Y-44540D01*
G01X-40590Y-46290D02*
X-40120Y-46540D01*
X-39860Y-46880D01*
X-39790Y-47250D01*
X-39860Y-47590D01*
X-40190Y-47920D01*
X-40590Y-48130D01*
X-40990Y-48170D01*
X-41460Y-48090D01*
X-41790Y-47790D01*
X-41920Y-47500D01*
Y-47130D01*
G01Y-47500D02*
X-42120Y-47750D01*
X-42460Y-47960D01*
X-42860Y-48040D01*
X-43260Y-47960D01*
X-43590Y-47750D01*
X-43790Y-47380D01*
X-43720Y-47000D01*
X-43460Y-46630D01*
G01X-43790Y-50710D02*
X-43660Y-50380D01*
X-43320Y-50130D01*
X-42920Y-49960D01*
X-42390Y-49830D01*
X-41790Y-49790D01*
X-41190Y-49830D01*
X-40660Y-49960D01*
X-40260Y-50130D01*
X-39920Y-50380D01*
X-39790Y-50710D01*
X-39920Y-51040D01*
X-40260Y-51290D01*
X-40660Y-51460D01*
X-41190Y-51590D01*
X-41790Y-51630D01*
X-42390Y-51590D01*
X-42920Y-51460D01*
X-43320Y-51290D01*
X-43660Y-51040D01*
X-43790Y-50710D01*
G01X-28050Y-10390D02*
X-27800Y-10190D01*
X-27510Y-10060D01*
X-27170D01*
X-26800Y-10260D01*
X-26510Y-10590D01*
X-26300Y-10990D01*
X-26130Y-11660D01*
X-26090Y-12260D01*
X-26170Y-12860D01*
X-26300Y-13260D01*
X-26550Y-13660D01*
X-26840Y-13930D01*
X-27130Y-14060D01*
X-27420D01*
X-27710Y-13930D01*
X-27960Y-13730D01*
X-28170Y-13460D01*
G01X-29710Y-13260D02*
X-29960Y-13730D01*
X-30300Y-13990D01*
X-30670Y-14060D01*
X-31010Y-13990D01*
X-31340Y-13660D01*
X-31550Y-13260D01*
X-31590Y-12860D01*
X-31510Y-12390D01*
X-31210Y-12060D01*
X-30920Y-11930D01*
X-30550D01*
G01X-30920D02*
X-31170Y-11730D01*
X-31380Y-11390D01*
X-31460Y-10990D01*
X-31380Y-10590D01*
X-31170Y-10260D01*
X-30800Y-10060D01*
X-30420Y-10130D01*
X-30050Y-10390D01*
G01X-33340Y-12390D02*
X-33630Y-11930D01*
X-33880Y-11660D01*
X-34210Y-11530D01*
X-34510Y-11660D01*
X-34710Y-11930D01*
X-34880Y-12330D01*
X-34920Y-12790D01*
X-34880Y-13190D01*
X-34710Y-13590D01*
X-34460Y-13930D01*
X-34170Y-14060D01*
X-33840Y-13930D01*
X-33550Y-13530D01*
X-33380Y-12930D01*
X-33340Y-12260D01*
X-33420Y-11390D01*
X-33550Y-10930D01*
X-33750Y-10460D01*
X-34050Y-10130D01*
X-34340Y-10060D01*
X-34630Y-10190D01*
X-34840Y-10530D01*
G01X-28670Y-16890D02*
X-28420Y-16690D01*
X-28130Y-16560D01*
X-27790D01*
X-27420Y-16760D01*
X-27130Y-17090D01*
X-26920Y-17490D01*
X-26750Y-18160D01*
X-26710Y-18760D01*
X-26790Y-19360D01*
X-26920Y-19760D01*
X-27170Y-20160D01*
X-27460Y-20430D01*
X-27750Y-20560D01*
X-28040D01*
X-28330Y-20430D01*
X-28580Y-20230D01*
X-28790Y-19960D01*
G01X-30330Y-19760D02*
X-30580Y-20230D01*
X-30920Y-20490D01*
X-31290Y-20560D01*
X-31630Y-20490D01*
X-31960Y-20160D01*
X-32170Y-19760D01*
X-32210Y-19360D01*
X-32130Y-18890D01*
X-31830Y-18560D01*
X-31540Y-18430D01*
X-31170D01*
G01X-31540D02*
X-31790Y-18230D01*
X-32000Y-17890D01*
X-32080Y-17490D01*
X-32000Y-17090D01*
X-31790Y-16760D01*
X-31420Y-16560D01*
X-31040Y-16630D01*
X-30670Y-16890D01*
G01X-33830Y-19960D02*
X-34080Y-20290D01*
X-34370Y-20490D01*
X-34750Y-20560D01*
X-35130Y-20430D01*
X-35420Y-20160D01*
X-35630Y-19690D01*
X-35670Y-19160D01*
X-35580Y-18630D01*
X-35370Y-18290D01*
X-35080Y-18030D01*
X-34790Y-17960D01*
X-34500Y-18030D01*
X-34130Y-18290D01*
X-34250Y-16560D01*
X-35370D01*
G01X-34780Y4630D02*
X-34980Y4880D01*
X-35110Y5170D01*
Y5510D01*
X-34910Y5880D01*
X-34580Y6170D01*
X-34180Y6380D01*
X-33510Y6550D01*
X-32910Y6590D01*
X-32310Y6510D01*
X-31910Y6380D01*
X-31510Y6130D01*
X-31240Y5840D01*
X-31110Y5550D01*
Y5260D01*
X-31240Y4970D01*
X-31440Y4720D01*
X-31710Y4510D01*
G01Y2970D02*
X-31380Y2720D01*
X-31180Y2430D01*
X-31110Y2050D01*
X-31240Y1670D01*
X-31510Y1380D01*
X-31980Y1170D01*
X-32510Y1130D01*
X-33040Y1220D01*
X-33380Y1430D01*
X-33640Y1720D01*
X-33710Y2010D01*
X-33640Y2300D01*
X-33380Y2670D01*
X-35110Y2550D01*
Y1430D01*
G01X-31110Y-1450D02*
X-31180Y-1740D01*
X-31380Y-2070D01*
X-31710Y-2280D01*
X-32180Y-2370D01*
X-32640Y-2280D01*
X-33040Y-2030D01*
X-33240Y-1660D01*
Y-1240D01*
X-33380Y-990D01*
X-33710Y-780D01*
X-34180Y-700D01*
X-34640Y-830D01*
X-34980Y-1120D01*
X-35110Y-1450D01*
X-34980Y-1780D01*
X-34640Y-2070D01*
X-34180Y-2200D01*
X-33710Y-2120D01*
X-33380Y-1910D01*
X-33240Y-1660D01*
Y-1240D01*
X-33040Y-870D01*
X-32640Y-620D01*
X-32180Y-530D01*
X-31710Y-620D01*
X-31380Y-830D01*
X-31180Y-1160D01*
X-31110Y-1450D01*
G01X-37550Y52570D02*
X-37300Y52770D01*
X-37010Y52900D01*
X-36670D01*
X-36300Y52700D01*
X-36010Y52370D01*
X-35800Y51970D01*
X-35630Y51300D01*
X-35590Y50700D01*
X-35670Y50100D01*
X-35800Y49700D01*
X-36050Y49300D01*
X-36340Y49030D01*
X-36630Y48900D01*
X-36920D01*
X-37210Y49030D01*
X-37460Y49230D01*
X-37670Y49500D01*
G01X-40630Y48900D02*
Y52900D01*
X-39090Y50030D01*
X-41170D01*
G01X-43550Y48900D02*
X-43630Y49770D01*
X-43760Y50500D01*
X-43920Y51170D01*
X-44130Y51900D01*
X-44460Y52900D01*
X-42800D01*
G01X-39770Y89490D02*
X-39520Y89690D01*
X-39230Y89820D01*
X-38890D01*
X-38520Y89620D01*
X-38230Y89290D01*
X-38020Y88890D01*
X-37850Y88220D01*
X-37810Y87620D01*
X-37890Y87020D01*
X-38020Y86620D01*
X-38270Y86220D01*
X-38560Y85950D01*
X-38850Y85820D01*
X-39140D01*
X-39430Y85950D01*
X-39680Y86150D01*
X-39890Y86420D01*
G01X-41430Y86620D02*
X-41680Y86150D01*
X-42020Y85890D01*
X-42390Y85820D01*
X-42730Y85890D01*
X-43060Y86220D01*
X-43270Y86620D01*
X-43310Y87020D01*
X-43230Y87490D01*
X-42930Y87820D01*
X-42640Y87950D01*
X-42270D01*
G01X-42640D02*
X-42890Y88150D01*
X-43100Y88490D01*
X-43180Y88890D01*
X-43100Y89290D01*
X-42890Y89620D01*
X-42520Y89820D01*
X-42140Y89750D01*
X-41770Y89490D01*
G01X-45140Y86290D02*
X-45430Y85950D01*
X-45770Y85820D01*
X-46100Y85950D01*
X-46390Y86350D01*
X-46600Y86950D01*
X-46680Y87550D01*
Y88290D01*
X-46600Y88890D01*
X-46390Y89420D01*
X-46140Y89690D01*
X-45850Y89820D01*
X-45520Y89690D01*
X-45270Y89420D01*
X-45100Y89020D01*
X-45020Y88490D01*
X-45100Y88020D01*
X-45310Y87550D01*
X-45560Y87290D01*
X-45850Y87220D01*
X-46180Y87350D01*
X-46430Y87690D01*
X-46680Y88290D01*
G01X-38930Y84010D02*
X-38680Y84210D01*
X-38390Y84340D01*
X-38050D01*
X-37680Y84140D01*
X-37390Y83810D01*
X-37180Y83410D01*
X-37010Y82740D01*
X-36970Y82140D01*
X-37050Y81540D01*
X-37180Y81140D01*
X-37430Y80740D01*
X-37720Y80470D01*
X-38010Y80340D01*
X-38300D01*
X-38590Y80470D01*
X-38840Y80670D01*
X-39050Y80940D01*
G01X-40590Y81140D02*
X-40840Y80670D01*
X-41180Y80410D01*
X-41550Y80340D01*
X-41890Y80410D01*
X-42220Y80740D01*
X-42430Y81140D01*
X-42470Y81540D01*
X-42390Y82010D01*
X-42090Y82340D01*
X-41800Y82470D01*
X-41430D01*
G01X-41800D02*
X-42050Y82670D01*
X-42260Y83010D01*
X-42340Y83410D01*
X-42260Y83810D01*
X-42050Y84140D01*
X-41680Y84340D01*
X-41300Y84270D01*
X-40930Y84010D01*
G01X-45010Y80340D02*
X-45300Y80410D01*
X-45630Y80610D01*
X-45840Y80940D01*
X-45930Y81410D01*
X-45840Y81870D01*
X-45590Y82270D01*
X-45220Y82470D01*
X-44800D01*
X-44550Y82610D01*
X-44340Y82940D01*
X-44260Y83410D01*
X-44390Y83870D01*
X-44680Y84210D01*
X-45010Y84340D01*
X-45340Y84210D01*
X-45630Y83870D01*
X-45760Y83410D01*
X-45680Y82940D01*
X-45470Y82610D01*
X-45220Y82470D01*
X-44800D01*
X-44430Y82270D01*
X-44180Y81870D01*
X-44090Y81410D01*
X-44180Y80940D01*
X-44390Y80610D01*
X-44720Y80410D01*
X-45010Y80340D01*
G01X-25030Y-87750D02*
X-24700Y-87680D01*
X-24410Y-87420D01*
X-24150Y-87020D01*
X-23990Y-86550D01*
X-23900Y-86020D01*
Y-85480D01*
X-23990Y-84950D01*
X-24150Y-84480D01*
X-24410Y-84080D01*
X-24700Y-83820D01*
X-25030Y-83750D01*
X-25360Y-83820D01*
X-25650Y-84080D01*
X-25910Y-84480D01*
X-26070Y-84950D01*
X-26160Y-85480D01*
Y-86020D01*
X-26070Y-86550D01*
X-25910Y-87020D01*
X-25650Y-87420D01*
X-25360Y-87680D01*
X-25030Y-87750D01*
G01X-25360Y-86680D02*
X-25860Y-87750D01*
G01X-27610Y-87150D02*
X-27860Y-87480D01*
X-28150Y-87680D01*
X-28530Y-87750D01*
X-28910Y-87620D01*
X-29200Y-87350D01*
X-29410Y-86880D01*
X-29450Y-86350D01*
X-29360Y-85820D01*
X-29150Y-85480D01*
X-28860Y-85220D01*
X-28570Y-85150D01*
X-28280Y-85220D01*
X-27910Y-85480D01*
X-28030Y-83750D01*
X-29150D01*
G01X-20810Y2800D02*
X-24810D01*
Y1760D01*
X-24610Y1430D01*
X-24340Y1220D01*
X-23810Y1140D01*
X-23280Y1220D01*
X-22940Y1470D01*
X-22740Y1760D01*
Y2800D01*
G01Y1760D02*
X-20810Y1140D01*
G01X-21610Y-610D02*
X-21140Y-860D01*
X-20880Y-1200D01*
X-20810Y-1570D01*
X-20880Y-1910D01*
X-21210Y-2240D01*
X-21610Y-2450D01*
X-22010Y-2490D01*
X-22480Y-2410D01*
X-22810Y-2110D01*
X-22940Y-1820D01*
Y-1450D01*
G01Y-1820D02*
X-23140Y-2070D01*
X-23480Y-2280D01*
X-23880Y-2360D01*
X-24280Y-2280D01*
X-24610Y-2070D01*
X-24810Y-1700D01*
X-24740Y-1320D01*
X-24480Y-950D01*
G01X-21410Y-4110D02*
X-21080Y-4360D01*
X-20880Y-4650D01*
X-20810Y-5030D01*
X-20940Y-5410D01*
X-21210Y-5700D01*
X-21680Y-5910D01*
X-22210Y-5950D01*
X-22740Y-5860D01*
X-23080Y-5650D01*
X-23340Y-5360D01*
X-23410Y-5070D01*
X-23340Y-4780D01*
X-23080Y-4410D01*
X-24810Y-4530D01*
Y-5650D01*
G01X-21410Y25110D02*
X-21610Y25360D01*
X-21740Y25650D01*
Y25990D01*
X-21540Y26360D01*
X-21210Y26650D01*
X-20810Y26860D01*
X-20140Y27030D01*
X-19540Y27070D01*
X-18940Y26990D01*
X-18540Y26860D01*
X-18140Y26610D01*
X-17870Y26320D01*
X-17740Y26030D01*
Y25740D01*
X-17870Y25450D01*
X-18070Y25200D01*
X-18340Y24990D01*
G01X-17740Y22530D02*
X-21740D01*
X-20940Y23030D01*
G01X-17740D02*
Y22030D01*
G01X-18540Y19950D02*
X-18070Y19700D01*
X-17810Y19360D01*
X-17740Y18990D01*
X-17810Y18650D01*
X-18140Y18320D01*
X-18540Y18110D01*
X-18940Y18070D01*
X-19410Y18150D01*
X-19740Y18450D01*
X-19870Y18740D01*
Y19110D01*
G01Y18740D02*
X-20070Y18490D01*
X-20410Y18280D01*
X-20810Y18200D01*
X-21210Y18280D01*
X-21540Y18490D01*
X-21740Y18860D01*
X-21670Y19240D01*
X-21410Y19610D01*
G01X-27140Y25900D02*
X-27340Y26150D01*
X-27470Y26440D01*
Y26780D01*
X-27270Y27150D01*
X-26940Y27440D01*
X-26540Y27650D01*
X-25870Y27820D01*
X-25270Y27860D01*
X-24670Y27780D01*
X-24270Y27650D01*
X-23870Y27400D01*
X-23600Y27110D01*
X-23470Y26820D01*
Y26530D01*
X-23600Y26240D01*
X-23800Y25990D01*
X-24070Y25780D01*
G01X-25140Y24110D02*
X-25600Y23820D01*
X-25870Y23570D01*
X-26000Y23240D01*
X-25870Y22940D01*
X-25600Y22740D01*
X-25200Y22570D01*
X-24740Y22530D01*
X-24340Y22570D01*
X-23940Y22740D01*
X-23600Y22990D01*
X-23470Y23280D01*
X-23600Y23610D01*
X-24000Y23900D01*
X-24600Y24070D01*
X-25270Y24110D01*
X-26140Y24030D01*
X-26600Y23900D01*
X-27070Y23700D01*
X-27400Y23400D01*
X-27470Y23110D01*
X-27340Y22820D01*
X-27000Y22610D01*
G01X-26800Y20610D02*
X-27200Y20360D01*
X-27400Y20070D01*
X-27470Y19740D01*
X-27340Y19320D01*
X-27000Y19030D01*
X-26600Y18940D01*
X-26200Y18990D01*
X-25870Y19150D01*
X-25200Y19990D01*
X-24740Y20360D01*
X-24070Y20610D01*
X-23470Y20700D01*
Y18940D01*
G01X-19050Y98260D02*
X-18800Y98460D01*
X-18510Y98590D01*
X-18170D01*
X-17800Y98390D01*
X-17510Y98060D01*
X-17300Y97660D01*
X-17130Y96990D01*
X-17090Y96390D01*
X-17170Y95790D01*
X-17300Y95390D01*
X-17550Y94990D01*
X-17840Y94720D01*
X-18130Y94590D01*
X-18420D01*
X-18710Y94720D01*
X-18960Y94920D01*
X-19170Y95190D01*
G01X-21550Y94590D02*
X-21630Y95460D01*
X-21760Y96190D01*
X-21920Y96860D01*
X-22130Y97590D01*
X-22460Y98590D01*
X-20800D01*
G01X-25630Y94590D02*
Y98590D01*
X-24090Y95720D01*
X-26170D01*
G01X23110Y-19100D02*
X23360Y-18900D01*
X23650Y-18770D01*
X23990D01*
X24360Y-18970D01*
X24650Y-19300D01*
X24860Y-19700D01*
X25030Y-20370D01*
X25070Y-20970D01*
X24990Y-21570D01*
X24860Y-21970D01*
X24610Y-22370D01*
X24320Y-22640D01*
X24030Y-22770D01*
X23740D01*
X23450Y-22640D01*
X23200Y-22440D01*
X22990Y-22170D01*
G01X21320Y-21100D02*
X21030Y-20640D01*
X20780Y-20370D01*
X20450Y-20240D01*
X20150Y-20370D01*
X19950Y-20640D01*
X19780Y-21040D01*
X19740Y-21500D01*
X19780Y-21900D01*
X19950Y-22300D01*
X20200Y-22640D01*
X20490Y-22770D01*
X20820Y-22640D01*
X21110Y-22240D01*
X21280Y-21640D01*
X21320Y-20970D01*
X21240Y-20100D01*
X21110Y-19640D01*
X20910Y-19170D01*
X20610Y-18840D01*
X20320Y-18770D01*
X20030Y-18900D01*
X19820Y-19240D01*
G01X17030Y-22770D02*
Y-18770D01*
X17530Y-19570D01*
G01Y-22770D02*
X16530D01*
G01X23210Y-11090D02*
X23460Y-10890D01*
X23750Y-10760D01*
X24090D01*
X24460Y-10960D01*
X24750Y-11290D01*
X24960Y-11690D01*
X25130Y-12360D01*
X25170Y-12960D01*
X25090Y-13560D01*
X24960Y-13960D01*
X24710Y-14360D01*
X24420Y-14630D01*
X24130Y-14760D01*
X23840D01*
X23550Y-14630D01*
X23300Y-14430D01*
X23090Y-14160D01*
G01X21420Y-13090D02*
X21130Y-12630D01*
X20880Y-12360D01*
X20550Y-12230D01*
X20250Y-12360D01*
X20050Y-12630D01*
X19880Y-13030D01*
X19840Y-13490D01*
X19880Y-13890D01*
X20050Y-14290D01*
X20300Y-14630D01*
X20590Y-14760D01*
X20920Y-14630D01*
X21210Y-14230D01*
X21380Y-13630D01*
X21420Y-12960D01*
X21340Y-12090D01*
X21210Y-11630D01*
X21010Y-11160D01*
X20710Y-10830D01*
X20420Y-10760D01*
X20130Y-10890D01*
X19920Y-11230D01*
G01X17130Y-10760D02*
X17460Y-10890D01*
X17710Y-11230D01*
X17880Y-11630D01*
X18010Y-12160D01*
X18050Y-12760D01*
X18010Y-13360D01*
X17880Y-13890D01*
X17710Y-14290D01*
X17460Y-14630D01*
X17130Y-14760D01*
X16800Y-14630D01*
X16550Y-14290D01*
X16380Y-13890D01*
X16250Y-13360D01*
X16210Y-12760D01*
X16250Y-12160D01*
X16380Y-11630D01*
X16550Y-11230D01*
X16800Y-10890D01*
X17130Y-10760D01*
G01X5940Y22250D02*
X5740Y22500D01*
X5610Y22790D01*
Y23130D01*
X5810Y23500D01*
X6140Y23790D01*
X6540Y24000D01*
X7210Y24170D01*
X7810Y24210D01*
X8410Y24130D01*
X8810Y24000D01*
X9210Y23750D01*
X9480Y23460D01*
X9610Y23170D01*
Y22880D01*
X9480Y22590D01*
X9280Y22340D01*
X9010Y22130D01*
G01X9610Y19670D02*
X5610D01*
X6410Y20170D01*
G01X9610D02*
Y19170D01*
G01X6280Y16960D02*
X5880Y16710D01*
X5680Y16420D01*
X5610Y16090D01*
X5740Y15670D01*
X6080Y15380D01*
X6480Y15290D01*
X6880Y15340D01*
X7210Y15500D01*
X7880Y16340D01*
X8340Y16710D01*
X9010Y16960D01*
X9610Y17050D01*
Y15290D01*
G01X9710Y78740D02*
X9960Y78940D01*
X10250Y79070D01*
X10590D01*
X10960Y78870D01*
X11250Y78540D01*
X11460Y78140D01*
X11630Y77470D01*
X11670Y76870D01*
X11590Y76270D01*
X11460Y75870D01*
X11210Y75470D01*
X10920Y75200D01*
X10630Y75070D01*
X10340D01*
X10050Y75200D01*
X9800Y75400D01*
X9590Y75670D01*
G01X7130Y75070D02*
Y79070D01*
X7630Y78270D01*
G01Y75070D02*
X6630D01*
G01X3630D02*
X3340Y75140D01*
X3010Y75340D01*
X2800Y75670D01*
X2710Y76140D01*
X2800Y76600D01*
X3050Y77000D01*
X3420Y77200D01*
X3840D01*
X4090Y77340D01*
X4300Y77670D01*
X4380Y78140D01*
X4250Y78600D01*
X3960Y78940D01*
X3630Y79070D01*
X3300Y78940D01*
X3010Y78600D01*
X2880Y78140D01*
X2960Y77670D01*
X3170Y77340D01*
X3420Y77200D01*
X3840D01*
X4210Y77000D01*
X4460Y76600D01*
X4550Y76140D01*
X4460Y75670D01*
X4250Y75340D01*
X3920Y75140D01*
X3630Y75070D01*
G01X14470Y81710D02*
Y85710D01*
X13430D01*
X13100Y85510D01*
X12890Y85240D01*
X12810Y84710D01*
X12890Y84180D01*
X13140Y83840D01*
X13430Y83640D01*
X14470D01*
G01X13430D02*
X12810Y81710D01*
G01X10930Y85040D02*
X10680Y85440D01*
X10390Y85640D01*
X10060Y85710D01*
X9640Y85580D01*
X9350Y85240D01*
X9260Y84840D01*
X9310Y84440D01*
X9470Y84110D01*
X10310Y83440D01*
X10680Y82980D01*
X10930Y82310D01*
X11020Y81710D01*
X9260D01*
G01X6640D02*
Y85710D01*
X7140Y84910D01*
G01Y81710D02*
X6140D01*
G01X12560Y104090D02*
Y108090D01*
X11520D01*
X11190Y107890D01*
X10980Y107620D01*
X10900Y107090D01*
X10980Y106560D01*
X11230Y106220D01*
X11520Y106020D01*
X12560D01*
G01X11520D02*
X10900Y104090D01*
G01X8230D02*
Y108090D01*
X8730Y107290D01*
G01Y104090D02*
X7730D01*
G01X4230D02*
Y108090D01*
X5770Y105220D01*
X3690D01*
G01X29770Y-320D02*
X29570Y-70D01*
X29440Y220D01*
Y560D01*
X29640Y930D01*
X29970Y1220D01*
X30370Y1430D01*
X31040Y1600D01*
X31640Y1640D01*
X32240Y1560D01*
X32640Y1430D01*
X33040Y1180D01*
X33310Y890D01*
X33440Y600D01*
Y310D01*
X33310Y20D01*
X33110Y-230D01*
X32840Y-440D01*
G01X33440Y-3400D02*
X29440D01*
X32310Y-1860D01*
Y-3940D01*
G01X30110Y-5610D02*
X29710Y-5860D01*
X29510Y-6150D01*
X29440Y-6480D01*
X29570Y-6900D01*
X29910Y-7190D01*
X30310Y-7280D01*
X30710Y-7230D01*
X31040Y-7070D01*
X31710Y-6230D01*
X32170Y-5860D01*
X32840Y-5610D01*
X33440Y-5520D01*
Y-7280D01*
G01X29600Y126540D02*
Y130540D01*
X28560D01*
X28230Y130340D01*
X28020Y130070D01*
X27940Y129540D01*
X28020Y129010D01*
X28270Y128670D01*
X28560Y128470D01*
X29600D01*
G01X28560D02*
X27940Y126540D01*
G01X25270D02*
Y130540D01*
X25770Y129740D01*
G01Y126540D02*
X24770D01*
G01X21770D02*
X21480Y126610D01*
X21150Y126810D01*
X20940Y127140D01*
X20850Y127610D01*
X20940Y128070D01*
X21190Y128470D01*
X21560Y128670D01*
X21980D01*
X22230Y128810D01*
X22440Y129140D01*
X22520Y129610D01*
X22390Y130070D01*
X22100Y130410D01*
X21770Y130540D01*
X21440Y130410D01*
X21150Y130070D01*
X21020Y129610D01*
X21100Y129140D01*
X21310Y128810D01*
X21560Y128670D01*
X21980D01*
X22350Y128470D01*
X22600Y128070D01*
X22690Y127610D01*
X22600Y127140D01*
X22390Y126810D01*
X22060Y126610D01*
X21770Y126540D01*
G01X50470Y-75250D02*
X46470D01*
Y-76290D01*
X46670Y-76620D01*
X46940Y-76830D01*
X47470Y-76910D01*
X48000Y-76830D01*
X48340Y-76580D01*
X48540Y-76290D01*
Y-75250D01*
G01Y-76290D02*
X50470Y-76910D01*
G01Y-79580D02*
X46470D01*
X47270Y-79080D01*
G01X50470D02*
Y-80080D01*
G01X47140Y-82290D02*
X46740Y-82540D01*
X46540Y-82830D01*
X46470Y-83160D01*
X46600Y-83580D01*
X46940Y-83870D01*
X47340Y-83960D01*
X47740Y-83910D01*
X48070Y-83750D01*
X48740Y-82910D01*
X49200Y-82540D01*
X49870Y-82290D01*
X50470Y-82200D01*
Y-83960D01*
G01X49870Y-85660D02*
X50200Y-85910D01*
X50400Y-86200D01*
X50470Y-86580D01*
X50340Y-86960D01*
X50070Y-87250D01*
X49600Y-87460D01*
X49070Y-87500D01*
X48540Y-87410D01*
X48200Y-87200D01*
X47940Y-86910D01*
X47870Y-86620D01*
X47940Y-86330D01*
X48200Y-85960D01*
X46470Y-86080D01*
Y-87200D01*
G01X51420Y-52550D02*
X47420D01*
Y-53590D01*
X47620Y-53920D01*
X47890Y-54130D01*
X48420Y-54210D01*
X48950Y-54130D01*
X49290Y-53880D01*
X49490Y-53590D01*
Y-52550D01*
G01Y-53590D02*
X51420Y-54210D01*
G01Y-56880D02*
X47420D01*
X48220Y-56380D01*
G01X51420D02*
Y-57380D01*
G01X48090Y-59590D02*
X47690Y-59840D01*
X47490Y-60130D01*
X47420Y-60460D01*
X47550Y-60880D01*
X47890Y-61170D01*
X48290Y-61260D01*
X48690Y-61210D01*
X49020Y-61050D01*
X49690Y-60210D01*
X50150Y-59840D01*
X50820Y-59590D01*
X51420Y-59500D01*
Y-61260D01*
G01Y-64380D02*
X47420D01*
X50290Y-62840D01*
Y-64920D01*
G01X42190Y17660D02*
X42440Y17860D01*
X42730Y17990D01*
X43070D01*
X43440Y17790D01*
X43730Y17460D01*
X43940Y17060D01*
X44110Y16390D01*
X44150Y15790D01*
X44070Y15190D01*
X43940Y14790D01*
X43690Y14390D01*
X43400Y14120D01*
X43110Y13990D01*
X42820D01*
X42530Y14120D01*
X42280Y14320D01*
X42070Y14590D01*
G01X40400Y17320D02*
X40150Y17720D01*
X39860Y17920D01*
X39530Y17990D01*
X39110Y17860D01*
X38820Y17520D01*
X38730Y17120D01*
X38780Y16720D01*
X38940Y16390D01*
X39780Y15720D01*
X40150Y15260D01*
X40400Y14590D01*
X40490Y13990D01*
X38730D01*
G01X42270Y27330D02*
X42520Y27530D01*
X42810Y27660D01*
X43150D01*
X43520Y27460D01*
X43810Y27130D01*
X44020Y26730D01*
X44190Y26060D01*
X44230Y25460D01*
X44150Y24860D01*
X44020Y24460D01*
X43770Y24060D01*
X43480Y23790D01*
X43190Y23660D01*
X42900D01*
X42610Y23790D01*
X42360Y23990D01*
X42150Y24260D01*
G01X40610Y24460D02*
X40360Y23990D01*
X40020Y23730D01*
X39650Y23660D01*
X39310Y23730D01*
X38980Y24060D01*
X38770Y24460D01*
X38730Y24860D01*
X38810Y25330D01*
X39110Y25660D01*
X39400Y25790D01*
X39770D01*
G01X39400D02*
X39150Y25990D01*
X38940Y26330D01*
X38860Y26730D01*
X38940Y27130D01*
X39150Y27460D01*
X39520Y27660D01*
X39900Y27590D01*
X40270Y27330D01*
G01X45680Y38100D02*
X45930Y38300D01*
X46220Y38430D01*
X46560D01*
X46930Y38230D01*
X47220Y37900D01*
X47430Y37500D01*
X47600Y36830D01*
X47640Y36230D01*
X47560Y35630D01*
X47430Y35230D01*
X47180Y34830D01*
X46890Y34560D01*
X46600Y34430D01*
X46310D01*
X46020Y34560D01*
X45770Y34760D01*
X45560Y35030D01*
G01X43100Y34430D02*
Y38430D01*
X43600Y37630D01*
G01Y34430D02*
X42600D01*
G01X54250Y78510D02*
X54500Y78710D01*
X54790Y78840D01*
X55130D01*
X55500Y78640D01*
X55790Y78310D01*
X56000Y77910D01*
X56170Y77240D01*
X56210Y76640D01*
X56130Y76040D01*
X56000Y75640D01*
X55750Y75240D01*
X55460Y74970D01*
X55170Y74840D01*
X54880D01*
X54590Y74970D01*
X54340Y75170D01*
X54130Y75440D01*
G01X51670Y74840D02*
Y78840D01*
X52170Y78040D01*
G01Y74840D02*
X51170D01*
G01X49090Y75440D02*
X48840Y75110D01*
X48550Y74910D01*
X48170Y74840D01*
X47790Y74970D01*
X47500Y75240D01*
X47290Y75710D01*
X47250Y76240D01*
X47340Y76770D01*
X47550Y77110D01*
X47840Y77370D01*
X48130Y77440D01*
X48420Y77370D01*
X48790Y77110D01*
X48670Y78840D01*
X47550D01*
G01X52190Y97110D02*
X51990Y97360D01*
X51860Y97650D01*
Y97990D01*
X52060Y98360D01*
X52390Y98650D01*
X52790Y98860D01*
X53460Y99030D01*
X54060Y99070D01*
X54660Y98990D01*
X55060Y98860D01*
X55460Y98610D01*
X55730Y98320D01*
X55860Y98030D01*
Y97740D01*
X55730Y97450D01*
X55530Y97200D01*
X55260Y96990D01*
G01X52530Y95320D02*
X52130Y95070D01*
X51930Y94780D01*
X51860Y94450D01*
X51990Y94030D01*
X52330Y93740D01*
X52730Y93650D01*
X53130Y93700D01*
X53460Y93860D01*
X54130Y94700D01*
X54590Y95070D01*
X55260Y95320D01*
X55860Y95410D01*
Y93650D01*
G01X51860Y91030D02*
X51990Y91360D01*
X52330Y91610D01*
X52730Y91780D01*
X53260Y91910D01*
X53860Y91950D01*
X54460Y91910D01*
X54990Y91780D01*
X55390Y91610D01*
X55730Y91360D01*
X55860Y91030D01*
X55730Y90700D01*
X55390Y90450D01*
X54990Y90280D01*
X54460Y90150D01*
X53860Y90110D01*
X53260Y90150D01*
X52730Y90280D01*
X52330Y90450D01*
X51990Y90700D01*
X51860Y91030D01*
G01X55720Y81010D02*
Y85010D01*
X54680D01*
X54350Y84810D01*
X54140Y84540D01*
X54060Y84010D01*
X54140Y83480D01*
X54390Y83140D01*
X54680Y82940D01*
X55720D01*
G01X54680D02*
X54060Y81010D01*
G01X52180Y84340D02*
X51930Y84740D01*
X51640Y84940D01*
X51310Y85010D01*
X50890Y84880D01*
X50600Y84540D01*
X50510Y84140D01*
X50560Y83740D01*
X50720Y83410D01*
X51560Y82740D01*
X51930Y82280D01*
X52180Y81610D01*
X52270Y81010D01*
X50510D01*
G01X47890Y85010D02*
X48220Y84880D01*
X48470Y84540D01*
X48640Y84140D01*
X48770Y83610D01*
X48810Y83010D01*
X48770Y82410D01*
X48640Y81880D01*
X48470Y81480D01*
X48220Y81140D01*
X47890Y81010D01*
X47560Y81140D01*
X47310Y81480D01*
X47140Y81880D01*
X47010Y82410D01*
X46970Y83010D01*
X47010Y83610D01*
X47140Y84140D01*
X47310Y84540D01*
X47560Y84880D01*
X47890Y85010D01*
G01X77550Y-56560D02*
Y-52560D01*
X76510D01*
X76180Y-52760D01*
X75970Y-53030D01*
X75890Y-53560D01*
X75970Y-54090D01*
X76220Y-54430D01*
X76510Y-54630D01*
X77550D01*
G01X76510D02*
X75890Y-56560D01*
G01X72720D02*
Y-52560D01*
X74260Y-55430D01*
X72180D01*
G01X69800Y-56560D02*
X69720Y-55690D01*
X69590Y-54960D01*
X69430Y-54290D01*
X69220Y-53560D01*
X68890Y-52560D01*
X70550D01*
G01X85660Y-79130D02*
Y-75130D01*
X84620D01*
X84290Y-75330D01*
X84080Y-75600D01*
X84000Y-76130D01*
X84080Y-76660D01*
X84330Y-77000D01*
X84620Y-77200D01*
X85660D01*
G01X84620D02*
X84000Y-79130D01*
G01X80830D02*
Y-75130D01*
X82370Y-78000D01*
X80290D01*
G01X77830Y-79130D02*
X77540Y-79060D01*
X77210Y-78860D01*
X77000Y-78530D01*
X76910Y-78060D01*
X77000Y-77600D01*
X77250Y-77200D01*
X77620Y-77000D01*
X78040D01*
X78290Y-76860D01*
X78500Y-76530D01*
X78580Y-76060D01*
X78450Y-75600D01*
X78160Y-75260D01*
X77830Y-75130D01*
X77500Y-75260D01*
X77210Y-75600D01*
X77080Y-76060D01*
X77160Y-76530D01*
X77370Y-76860D01*
X77620Y-77000D01*
X78040D01*
X78410Y-77200D01*
X78660Y-77600D01*
X78750Y-78060D01*
X78660Y-78530D01*
X78450Y-78860D01*
X78120Y-79060D01*
X77830Y-79130D01*
G01X89570Y-32620D02*
X89370Y-32370D01*
X89240Y-32080D01*
Y-31740D01*
X89440Y-31370D01*
X89770Y-31080D01*
X90170Y-30870D01*
X90840Y-30700D01*
X91440Y-30660D01*
X92040Y-30740D01*
X92440Y-30870D01*
X92840Y-31120D01*
X93110Y-31410D01*
X93240Y-31700D01*
Y-31990D01*
X93110Y-32280D01*
X92910Y-32530D01*
X92640Y-32740D01*
G01X93240Y-35200D02*
X89240D01*
X90040Y-34700D01*
G01X93240D02*
Y-35700D01*
G01Y-38700D02*
X89240D01*
X90040Y-38200D01*
G01X93240D02*
Y-39200D01*
G01Y-42200D02*
X89240D01*
X90040Y-41700D01*
G01X93240D02*
Y-42700D01*
G01X104650Y-75720D02*
X104900Y-75520D01*
X105190Y-75390D01*
X105530D01*
X105900Y-75590D01*
X106190Y-75920D01*
X106400Y-76320D01*
X106570Y-76990D01*
X106610Y-77590D01*
X106530Y-78190D01*
X106400Y-78590D01*
X106150Y-78990D01*
X105860Y-79260D01*
X105570Y-79390D01*
X105280D01*
X104990Y-79260D01*
X104740Y-79060D01*
X104530Y-78790D01*
G01X102070Y-79390D02*
Y-75390D01*
X102570Y-76190D01*
G01Y-79390D02*
X101570D01*
G01X98570D02*
Y-75390D01*
X99070Y-76190D01*
G01Y-79390D02*
X98070D01*
G01X95860Y-76060D02*
X95610Y-75660D01*
X95320Y-75460D01*
X94990Y-75390D01*
X94570Y-75520D01*
X94280Y-75860D01*
X94190Y-76260D01*
X94240Y-76660D01*
X94400Y-76990D01*
X95240Y-77660D01*
X95610Y-78120D01*
X95860Y-78790D01*
X95950Y-79390D01*
X94190D01*
G01X105690Y-82900D02*
X101690D01*
Y-83940D01*
X101890Y-84270D01*
X102160Y-84480D01*
X102690Y-84560D01*
X103220Y-84480D01*
X103560Y-84230D01*
X103760Y-83940D01*
Y-82900D01*
G01Y-83940D02*
X105690Y-84560D01*
G01Y-87230D02*
X101690D01*
X102490Y-86730D01*
G01X105690D02*
Y-87730D01*
G01X102360Y-89940D02*
X101960Y-90190D01*
X101760Y-90480D01*
X101690Y-90810D01*
X101820Y-91230D01*
X102160Y-91520D01*
X102560Y-91610D01*
X102960Y-91560D01*
X103290Y-91400D01*
X103960Y-90560D01*
X104420Y-90190D01*
X105090Y-89940D01*
X105690Y-89850D01*
Y-91610D01*
G01Y-94150D02*
X104820Y-94230D01*
X104090Y-94360D01*
X103420Y-94520D01*
X102690Y-94730D01*
X101690Y-95060D01*
Y-93400D01*
G01X101490Y-42200D02*
X97490D01*
Y-43240D01*
X97690Y-43570D01*
X97960Y-43780D01*
X98490Y-43860D01*
X99020Y-43780D01*
X99360Y-43530D01*
X99560Y-43240D01*
Y-42200D01*
G01Y-43240D02*
X101490Y-43860D01*
G01Y-46530D02*
X97490D01*
X98290Y-46030D01*
G01X101490D02*
Y-47030D01*
G01X98160Y-49240D02*
X97760Y-49490D01*
X97560Y-49780D01*
X97490Y-50110D01*
X97620Y-50530D01*
X97960Y-50820D01*
X98360Y-50910D01*
X98760Y-50860D01*
X99090Y-50700D01*
X99760Y-49860D01*
X100220Y-49490D01*
X100890Y-49240D01*
X101490Y-49150D01*
Y-50910D01*
G01X99820Y-52740D02*
X99360Y-53030D01*
X99090Y-53280D01*
X98960Y-53610D01*
X99090Y-53910D01*
X99360Y-54110D01*
X99760Y-54280D01*
X100220Y-54320D01*
X100620Y-54280D01*
X101020Y-54110D01*
X101360Y-53860D01*
X101490Y-53570D01*
X101360Y-53240D01*
X100960Y-52950D01*
X100360Y-52780D01*
X99690Y-52740D01*
X98820Y-52820D01*
X98360Y-52950D01*
X97890Y-53150D01*
X97560Y-53450D01*
X97490Y-53740D01*
X97620Y-54030D01*
X97960Y-54240D01*
G01X101200Y172050D02*
X101000Y172300D01*
X100870Y172590D01*
Y172930D01*
X101070Y173300D01*
X101400Y173590D01*
X101800Y173800D01*
X102470Y173970D01*
X103070Y174010D01*
X103670Y173930D01*
X104070Y173800D01*
X104470Y173550D01*
X104740Y173260D01*
X104870Y172970D01*
Y172680D01*
X104740Y172390D01*
X104540Y172140D01*
X104270Y171930D01*
G01X104870Y168970D02*
X100870D01*
X103740Y170510D01*
Y168430D01*
G01X131470Y93900D02*
Y97900D01*
X130430D01*
X130100Y97700D01*
X129890Y97430D01*
X129810Y96900D01*
X129890Y96370D01*
X130140Y96030D01*
X130430Y95830D01*
X131470D01*
G01X130430D02*
X129810Y93900D01*
G01X127930Y97230D02*
X127680Y97630D01*
X127390Y97830D01*
X127060Y97900D01*
X126640Y97770D01*
X126350Y97430D01*
X126260Y97030D01*
X126310Y96630D01*
X126470Y96300D01*
X127310Y95630D01*
X127680Y95170D01*
X127930Y94500D01*
X128020Y93900D01*
X126260D01*
G01X123640D02*
X123350Y93970D01*
X123020Y94170D01*
X122810Y94500D01*
X122720Y94970D01*
X122810Y95430D01*
X123060Y95830D01*
X123430Y96030D01*
X123850D01*
X124100Y96170D01*
X124310Y96500D01*
X124390Y96970D01*
X124260Y97430D01*
X123970Y97770D01*
X123640Y97900D01*
X123310Y97770D01*
X123020Y97430D01*
X122890Y96970D01*
X122970Y96500D01*
X123180Y96170D01*
X123430Y96030D01*
X123850D01*
X124220Y95830D01*
X124470Y95430D01*
X124560Y94970D01*
X124470Y94500D01*
X124260Y94170D01*
X123930Y93970D01*
X123640Y93900D01*
G01X121060Y94500D02*
X120810Y94170D01*
X120520Y93970D01*
X120140Y93900D01*
X119760Y94030D01*
X119470Y94300D01*
X119260Y94770D01*
X119220Y95300D01*
X119310Y95830D01*
X119520Y96170D01*
X119810Y96430D01*
X120100Y96500D01*
X120390Y96430D01*
X120760Y96170D01*
X120640Y97900D01*
X119520D01*
G01X128160Y168110D02*
X124160D01*
Y167070D01*
X124360Y166740D01*
X124630Y166530D01*
X125160Y166450D01*
X125690Y166530D01*
X126030Y166780D01*
X126230Y167070D01*
Y168110D01*
G01Y167070D02*
X128160Y166450D01*
G01Y163280D02*
X124160D01*
X127030Y164820D01*
Y162740D01*
G01X115470Y170360D02*
X119470D01*
Y168700D01*
G01Y166030D02*
X115470D01*
X116270Y166530D01*
G01X119470D02*
Y165530D01*
G01X108430Y170310D02*
X108230Y170560D01*
X108100Y170850D01*
Y171190D01*
X108300Y171560D01*
X108630Y171850D01*
X109030Y172060D01*
X109700Y172230D01*
X110300Y172270D01*
X110900Y172190D01*
X111300Y172060D01*
X111700Y171810D01*
X111970Y171520D01*
X112100Y171230D01*
Y170940D01*
X111970Y170650D01*
X111770Y170400D01*
X111500Y170190D01*
G01Y168650D02*
X111830Y168400D01*
X112030Y168110D01*
X112100Y167730D01*
X111970Y167350D01*
X111700Y167060D01*
X111230Y166850D01*
X110700Y166810D01*
X110170Y166900D01*
X109830Y167110D01*
X109570Y167400D01*
X109500Y167690D01*
X109570Y167980D01*
X109830Y168350D01*
X108100Y168230D01*
Y167110D01*
G01X145660Y93200D02*
Y97200D01*
X144820D01*
X144490Y97000D01*
X144240Y96730D01*
X144030Y96330D01*
X143860Y95870D01*
X143820Y95200D01*
X143860Y94530D01*
X144030Y94070D01*
X144240Y93670D01*
X144490Y93400D01*
X144820Y93200D01*
X145660D01*
G01X140740D02*
Y97200D01*
X142280Y94330D01*
X140200D01*
G01X144770Y113540D02*
Y117540D01*
X143930D01*
X143600Y117340D01*
X143350Y117070D01*
X143140Y116670D01*
X142970Y116210D01*
X142930Y115540D01*
X142970Y114870D01*
X143140Y114410D01*
X143350Y114010D01*
X143600Y113740D01*
X143930Y113540D01*
X144770D01*
G01X141270Y114340D02*
X141020Y113870D01*
X140680Y113610D01*
X140310Y113540D01*
X139970Y113610D01*
X139640Y113940D01*
X139430Y114340D01*
X139390Y114740D01*
X139470Y115210D01*
X139770Y115540D01*
X140060Y115670D01*
X140430D01*
G01X140060D02*
X139810Y115870D01*
X139600Y116210D01*
X139520Y116610D01*
X139600Y117010D01*
X139810Y117340D01*
X140180Y117540D01*
X140560Y117470D01*
X140930Y117210D01*
G01X135440Y167990D02*
X131440D01*
Y166950D01*
X131640Y166620D01*
X131910Y166410D01*
X132440Y166330D01*
X132970Y166410D01*
X133310Y166660D01*
X133510Y166950D01*
Y167990D01*
G01Y166950D02*
X135440Y166330D01*
G01X134840Y164580D02*
X135170Y164330D01*
X135370Y164040D01*
X135440Y163660D01*
X135310Y163280D01*
X135040Y162990D01*
X134570Y162780D01*
X134040Y162740D01*
X133510Y162830D01*
X133170Y163040D01*
X132910Y163330D01*
X132840Y163620D01*
X132910Y163910D01*
X133170Y164280D01*
X131440Y164160D01*
Y163040D01*
G01X141790Y168180D02*
X137790D01*
Y167140D01*
X137990Y166810D01*
X138260Y166600D01*
X138790Y166520D01*
X139320Y166600D01*
X139660Y166850D01*
X139860Y167140D01*
Y168180D01*
G01Y167140D02*
X141790Y166520D01*
G01X140120Y164640D02*
X139660Y164350D01*
X139390Y164100D01*
X139260Y163770D01*
X139390Y163470D01*
X139660Y163270D01*
X140060Y163100D01*
X140520Y163060D01*
X140920Y163100D01*
X141320Y163270D01*
X141660Y163520D01*
X141790Y163810D01*
X141660Y164140D01*
X141260Y164430D01*
X140660Y164600D01*
X139990Y164640D01*
X139120Y164560D01*
X138660Y164430D01*
X138190Y164230D01*
X137860Y163930D01*
X137790Y163640D01*
X137920Y163350D01*
X138260Y163140D01*
G01X155070Y102710D02*
X154070D01*
G01X154610Y103580D02*
Y101850D01*
G01X155080Y109610D02*
X154080D01*
G01X154620Y110480D02*
Y108750D01*
G01X165780Y124150D02*
Y128150D01*
X164740D01*
X164410Y127950D01*
X164200Y127680D01*
X164120Y127150D01*
X164200Y126620D01*
X164450Y126280D01*
X164740Y126080D01*
X165780D01*
G01X164740D02*
X164120Y124150D01*
G01X162240Y127480D02*
X161990Y127880D01*
X161700Y128080D01*
X161370Y128150D01*
X160950Y128020D01*
X160660Y127680D01*
X160570Y127280D01*
X160620Y126880D01*
X160780Y126550D01*
X161620Y125880D01*
X161990Y125420D01*
X162240Y124750D01*
X162330Y124150D01*
X160570D01*
G01X157950D02*
X157660Y124220D01*
X157330Y124420D01*
X157120Y124750D01*
X157030Y125220D01*
X157120Y125680D01*
X157370Y126080D01*
X157740Y126280D01*
X158160D01*
X158410Y126420D01*
X158620Y126750D01*
X158700Y127220D01*
X158570Y127680D01*
X158280Y128020D01*
X157950Y128150D01*
X157620Y128020D01*
X157330Y127680D01*
X157200Y127220D01*
X157280Y126750D01*
X157490Y126420D01*
X157740Y126280D01*
X158160D01*
X158530Y126080D01*
X158780Y125680D01*
X158870Y125220D01*
X158780Y124750D01*
X158570Y124420D01*
X158240Y124220D01*
X157950Y124150D01*
G01X153950D02*
Y128150D01*
X155490Y125280D01*
X153410D01*
G01X148690Y168230D02*
X144690D01*
Y167190D01*
X144890Y166860D01*
X145160Y166650D01*
X145690Y166570D01*
X146220Y166650D01*
X146560Y166900D01*
X146760Y167190D01*
Y168230D01*
G01Y167190D02*
X148690Y166570D01*
G01Y163980D02*
X147820Y163900D01*
X147090Y163770D01*
X146420Y163610D01*
X145690Y163400D01*
X144690Y163070D01*
Y164730D01*
G01X154690Y167980D02*
X150690D01*
Y166940D01*
X150890Y166610D01*
X151160Y166400D01*
X151690Y166320D01*
X152220Y166400D01*
X152560Y166650D01*
X152760Y166940D01*
Y167980D01*
G01Y166940D02*
X154690Y166320D01*
G01Y163650D02*
X154620Y163360D01*
X154420Y163030D01*
X154090Y162820D01*
X153620Y162730D01*
X153160Y162820D01*
X152760Y163070D01*
X152560Y163440D01*
Y163860D01*
X152420Y164110D01*
X152090Y164320D01*
X151620Y164400D01*
X151160Y164270D01*
X150820Y163980D01*
X150690Y163650D01*
X150820Y163320D01*
X151160Y163030D01*
X151620Y162900D01*
X152090Y162980D01*
X152420Y163190D01*
X152560Y163440D01*
Y163860D01*
X152760Y164230D01*
X153160Y164480D01*
X153620Y164570D01*
X154090Y164480D01*
X154420Y164270D01*
X154620Y163940D01*
X154690Y163650D01*
G01X161370Y46600D02*
X161170Y46850D01*
X161040Y47140D01*
Y47480D01*
X161240Y47850D01*
X161570Y48140D01*
X161970Y48350D01*
X162640Y48520D01*
X163240Y48560D01*
X163840Y48480D01*
X164240Y48350D01*
X164640Y48100D01*
X164910Y47810D01*
X165040Y47520D01*
Y47230D01*
X164910Y46940D01*
X164710Y46690D01*
X164440Y46480D01*
G01X165040Y44100D02*
X164170Y44020D01*
X163440Y43890D01*
X162770Y43730D01*
X162040Y43520D01*
X161040Y43190D01*
Y44850D01*
G01X164890Y94620D02*
X164820Y94950D01*
X164560Y95240D01*
X164160Y95500D01*
X163690Y95660D01*
X163160Y95750D01*
X162620D01*
X162090Y95660D01*
X161620Y95500D01*
X161220Y95240D01*
X160960Y94950D01*
X160890Y94620D01*
X160960Y94290D01*
X161220Y94000D01*
X161620Y93740D01*
X162090Y93580D01*
X162620Y93490D01*
X163160D01*
X163690Y93580D01*
X164160Y93740D01*
X164560Y94000D01*
X164820Y94290D01*
X164890Y94620D01*
G01X163820Y94290D02*
X164890Y93790D01*
G01X161560Y91910D02*
X161160Y91660D01*
X160960Y91370D01*
X160890Y91040D01*
X161020Y90620D01*
X161360Y90330D01*
X161760Y90240D01*
X162160Y90290D01*
X162490Y90450D01*
X163160Y91290D01*
X163620Y91660D01*
X164290Y91910D01*
X164890Y92000D01*
Y90240D01*
G01X188690Y-12640D02*
X188490Y-12390D01*
X188360Y-12100D01*
Y-11760D01*
X188560Y-11390D01*
X188890Y-11100D01*
X189290Y-10890D01*
X189960Y-10720D01*
X190560Y-10680D01*
X191160Y-10760D01*
X191560Y-10890D01*
X191960Y-11140D01*
X192230Y-11430D01*
X192360Y-11720D01*
Y-12010D01*
X192230Y-12300D01*
X192030Y-12550D01*
X191760Y-12760D01*
G01X192360Y-15220D02*
X188360D01*
X189160Y-14720D01*
G01X192360D02*
Y-15720D01*
G01Y-19220D02*
X188360D01*
X191230Y-17680D01*
Y-19760D01*
G01X183560Y-9780D02*
X179560D01*
Y-10820D01*
X179760Y-11150D01*
X180030Y-11360D01*
X180560Y-11440D01*
X181090Y-11360D01*
X181430Y-11110D01*
X181630Y-10820D01*
Y-9780D01*
G01Y-10820D02*
X183560Y-11440D01*
G01Y-14110D02*
X179560D01*
X180360Y-13610D01*
G01X183560D02*
Y-14610D01*
G01X183090Y-16900D02*
X183430Y-17190D01*
X183560Y-17530D01*
X183430Y-17860D01*
X183030Y-18150D01*
X182430Y-18360D01*
X181830Y-18440D01*
X181090D01*
X180490Y-18360D01*
X179960Y-18150D01*
X179690Y-17900D01*
X179560Y-17610D01*
X179690Y-17280D01*
X179960Y-17030D01*
X180360Y-16860D01*
X180890Y-16780D01*
X181360Y-16860D01*
X181830Y-17070D01*
X182090Y-17320D01*
X182160Y-17610D01*
X182030Y-17940D01*
X181690Y-18190D01*
X181090Y-18440D01*
G01X181440Y99970D02*
X177440D01*
Y98930D01*
X177640Y98600D01*
X177910Y98390D01*
X178440Y98310D01*
X178970Y98390D01*
X179310Y98640D01*
X179510Y98930D01*
Y99970D01*
G01Y98930D02*
X181440Y98310D01*
G01X178110Y96430D02*
X177710Y96180D01*
X177510Y95890D01*
X177440Y95560D01*
X177570Y95140D01*
X177910Y94850D01*
X178310Y94760D01*
X178710Y94810D01*
X179040Y94970D01*
X179710Y95810D01*
X180170Y96180D01*
X180840Y96430D01*
X181440Y96520D01*
Y94760D01*
G01Y92140D02*
X181370Y91850D01*
X181170Y91520D01*
X180840Y91310D01*
X180370Y91220D01*
X179910Y91310D01*
X179510Y91560D01*
X179310Y91930D01*
Y92350D01*
X179170Y92600D01*
X178840Y92810D01*
X178370Y92890D01*
X177910Y92760D01*
X177570Y92470D01*
X177440Y92140D01*
X177570Y91810D01*
X177910Y91520D01*
X178370Y91390D01*
X178840Y91470D01*
X179170Y91680D01*
X179310Y91930D01*
Y92350D01*
X179510Y92720D01*
X179910Y92970D01*
X180370Y93060D01*
X180840Y92970D01*
X181170Y92760D01*
X181370Y92430D01*
X181440Y92140D01*
G01X179770Y89430D02*
X179310Y89140D01*
X179040Y88890D01*
X178910Y88560D01*
X179040Y88260D01*
X179310Y88060D01*
X179710Y87890D01*
X180170Y87850D01*
X180570Y87890D01*
X180970Y88060D01*
X181310Y88310D01*
X181440Y88600D01*
X181310Y88930D01*
X180910Y89220D01*
X180310Y89390D01*
X179640Y89430D01*
X178770Y89350D01*
X178310Y89220D01*
X177840Y89020D01*
X177510Y88720D01*
X177440Y88430D01*
X177570Y88140D01*
X177910Y87930D01*
G01X190160Y120770D02*
X189960Y121020D01*
X189830Y121310D01*
Y121650D01*
X190030Y122020D01*
X190360Y122310D01*
X190760Y122520D01*
X191430Y122690D01*
X192030Y122730D01*
X192630Y122650D01*
X193030Y122520D01*
X193430Y122270D01*
X193700Y121980D01*
X193830Y121690D01*
Y121400D01*
X193700Y121110D01*
X193500Y120860D01*
X193230Y120650D01*
G01X193830Y118190D02*
X189830D01*
X190630Y118690D01*
G01X193830D02*
Y117690D01*
G01X193030Y115610D02*
X193500Y115360D01*
X193760Y115020D01*
X193830Y114650D01*
X193760Y114310D01*
X193430Y113980D01*
X193030Y113770D01*
X192630Y113730D01*
X192160Y113810D01*
X191830Y114110D01*
X191700Y114400D01*
Y114770D01*
G01Y114400D02*
X191500Y114150D01*
X191160Y113940D01*
X190760Y113860D01*
X190360Y113940D01*
X190030Y114150D01*
X189830Y114520D01*
X189900Y114900D01*
X190160Y115270D01*
G01X193360Y111900D02*
X193700Y111610D01*
X193830Y111270D01*
X193700Y110940D01*
X193300Y110650D01*
X192700Y110440D01*
X192100Y110360D01*
X191360D01*
X190760Y110440D01*
X190230Y110650D01*
X189960Y110900D01*
X189830Y111190D01*
X189960Y111520D01*
X190230Y111770D01*
X190630Y111940D01*
X191160Y112020D01*
X191630Y111940D01*
X192100Y111730D01*
X192360Y111480D01*
X192430Y111190D01*
X192300Y110860D01*
X191960Y110610D01*
X191360Y110360D01*
G54D11*
G01X-185040Y196850D02*
X185040D01*
G02X196850Y185040I0J-11810D01*
G01Y-86620D01*
G02X185040Y-98430I-11810J0D01*
G01X-185040D01*
G02X-196850Y-86620I0J11810D01*
G01Y185040D01*
G02X-185040Y196850I11810J0D01*
G01X-176310Y-78390D02*
Y-68390D01*
X-166310D01*
Y-78390D01*
X-176310D01*
G01X-175110Y170420D02*
Y180420D01*
X-165110D01*
Y170420D01*
X-175110D01*
G01X-28540Y-42340D02*
Y170260D01*
X-162400D01*
Y-42340D01*
X-28540D01*
G01X-154240Y149080D02*
X-140850D01*
X-140220Y148250D01*
G02Y144400I-2491J-1925D01*
G01X-140850Y143570D01*
X-154240D01*
X-154870Y144400D01*
G02Y148250I2491J1925D01*
G01X-154240Y149080D01*
G01X-143790Y181550D02*
Y150050D01*
X-160320D01*
Y181550D01*
X-143790D01*
G01X-135520Y-5460D02*
Y-18850D01*
X-141030D01*
Y-5460D01*
X-135520D01*
G01X-126070Y6380D02*
X-139450D01*
X-140080Y7210D01*
G02Y11070I2479J1930D01*
G01X-139450Y11900D01*
X-126070D01*
X-125440Y11070D01*
G02Y7210I-2479J-1930D01*
G01X-126070Y6380D01*
G01X-126710Y-3480D02*
X-140100D01*
Y2030D01*
X-126710D01*
Y-3480D01*
G01X-143760Y22280D02*
Y37240D01*
X-124080D01*
Y22280D01*
X-143760D01*
G01X-142140Y155050D02*
Y162930D01*
X-128360D01*
Y155050D01*
X-130330D01*
X-132300Y153080D01*
Y146190D01*
X-138200D01*
Y153080D01*
X-140170Y155050D01*
X-142140D01*
G01X-152250Y138670D02*
X-138870D01*
X-138240Y137840D01*
G02Y133980I-2479J-1930D01*
G01X-138870Y133150D01*
X-152250D01*
X-152880Y133980D01*
G02Y137840I2479J1930D01*
G01X-152250Y138670D01*
G01X-125100Y25270D02*
G03I-1810J0D01*
G01X-122480Y24180D02*
Y37570D01*
X-121650Y38200D01*
G02X-117800I1925J-2491D01*
G01X-116970Y37570D01*
Y24180D01*
X-117800Y23550D01*
G02X-121650I-1925J2480D01*
G01X-122480Y24180D01*
G01X-137360Y52050D02*
Y67800D01*
X-130270D01*
Y52050D01*
X-137360D01*
G01X-130270Y67410D02*
Y68190D01*
X-137360D01*
Y67410D01*
G01X-130270Y68190D02*
Y68980D01*
X-137360D01*
Y68190D01*
G01X-130270Y67800D02*
Y68980D01*
X-137360D01*
Y67800D01*
G01X-131170Y83390D02*
Y70000D01*
X-136680D01*
Y83390D01*
X-131170D01*
G01X-130100Y133260D02*
X-116710D01*
X-116080Y132430D01*
G02Y128570I-2479J-1930D01*
G01X-116710Y127740D01*
X-130100D01*
X-130730Y128570D01*
G02Y132430I2479J1930D01*
G01X-130100Y133260D01*
G01X-130230Y140710D02*
Y147090D01*
X-118660D01*
Y143190D01*
X-121140Y140710D01*
X-130230D01*
G01X-128180Y177700D02*
Y164320D01*
X-129010Y163690D01*
G02X-132870I-1930J2479D01*
G01X-133690Y164320D01*
Y177700D01*
X-132870Y178330D01*
G02X-129010I1930J-2479D01*
G01X-128180Y177700D01*
G01X-90780Y193880D02*
Y170260D01*
X-124090D01*
Y193880D01*
X-90780D01*
G01X-124090Y190930D02*
X-118190D01*
Y186990D01*
X-124090D01*
G01X-106860Y59250D02*
Y72640D01*
X-101350D01*
Y59250D01*
X-106860D01*
G01X-111420Y148080D02*
Y134700D01*
X-116940D01*
Y148080D01*
X-111420D01*
G01X-112280Y193880D02*
Y190930D01*
X-103580D01*
Y193880D01*
G01X-86770Y-3640D02*
Y-17020D01*
X-92290D01*
Y-3640D01*
X-86770D01*
G01X-86450Y11560D02*
Y-1820D01*
X-87270Y-2450D01*
G02X-91130I-1930J2479D01*
G01X-91960Y-1820D01*
Y11560D01*
X-91130Y12190D01*
G02X-87270I1930J-2479D01*
G01X-86450Y11560D01*
G01X-86160Y-3220D02*
X-72770D01*
Y-8740D01*
X-86160D01*
Y-3220D01*
G01X-85950Y3630D02*
X-72560D01*
Y-1890D01*
X-85950D01*
Y3630D01*
G01X-79210Y66080D02*
Y50330D01*
X-86290D01*
Y66080D01*
X-79210D01*
G01X-90690Y77010D02*
X-77310D01*
Y71490D01*
X-90690D01*
Y77010D01*
G01X-85140Y124310D02*
X-71760D01*
X-71130Y123480D01*
G02Y119620I-2479J-1930D01*
G01X-71760Y118790D01*
X-85140D01*
X-85770Y119620D01*
G02Y123480I2479J1930D01*
G01X-85140Y124310D01*
G01X-97600Y148630D02*
X-84220D01*
X-83590Y147800D01*
G02Y143940I-2479J-1930D01*
G01X-84220Y143110D01*
X-97600D01*
X-98230Y143940D01*
G02Y147800I2479J1930D01*
G01X-97600Y148630D01*
G01X-89750Y140160D02*
X-76360D01*
Y134650D01*
X-89750D01*
Y140160D01*
G01X-28540Y166320D02*
Y170260D01*
X-87600D01*
Y166320D01*
X-28540D01*
G01X-68900Y178130D02*
G02I-9840J3940D01*
G01Y182070D02*
X-88580D01*
G01X-72800Y177080D02*
X-86190D01*
Y182590D01*
X-72800D01*
Y177080D01*
G01X-90780Y190930D02*
X-87830Y187980D01*
Y193880D01*
X-90780Y190930D01*
G01D02*
X-96690D01*
Y186990D01*
X-90780D01*
G01X-59320Y-74400D02*
Y-94080D01*
X-69160D01*
Y-74400D01*
X-59320D01*
G01X-69160Y-94080D02*
Y-96050D01*
X-59320D01*
Y-94080D01*
G01X-69160Y-95070D02*
X-59320D01*
G01X-51420Y-62020D02*
X-66770D01*
X-67680Y-60410D01*
G02Y-56550I3432J1930D01*
G01X-66770Y-54940D01*
X-51420D01*
X-50510Y-56550D01*
G02Y-60410I-3432J-1930D01*
G01X-51420Y-62020D01*
G01X-69930Y-34410D02*
X-83310D01*
Y-28900D01*
X-69930D01*
Y-34410D01*
G01X-69850Y-27750D02*
X-83230D01*
Y-22240D01*
X-69850D01*
Y-27750D01*
G01X-69610Y-22000D02*
X-83000D01*
Y-16490D01*
X-69610D01*
Y-22000D01*
G01X-69280Y-16100D02*
X-82660D01*
Y-10590D01*
X-69280D01*
Y-16100D01*
G01X-71630Y-9600D02*
Y3780D01*
X-66110D01*
Y-9600D01*
X-71630D01*
G01X-83720Y11690D02*
X-68360D01*
X-67460Y10080D01*
G02Y6220I-3432J-1930D01*
G01X-68360Y4610D01*
X-83720D01*
X-84620Y6220D01*
G02Y10080I3421J1930D01*
G01X-83720Y11690D01*
G01X-70910Y57090D02*
X-55550D01*
X-54650Y55470D01*
G02Y51620I-3429J-1925D01*
G01X-55550Y50000D01*
X-70910D01*
X-71810Y51620D01*
G02Y55470I3429J1925D01*
G01X-70910Y57090D01*
G01X-55480Y58210D02*
X-70830D01*
X-71740Y59820D01*
G02Y63680I3432J1930D01*
G01X-70830Y65290D01*
X-55480D01*
X-54570Y63680D01*
G02Y59820I-3432J-1930D01*
G01X-55480Y58210D01*
G01X-74490Y70810D02*
X-61110D01*
Y65290D01*
X-74490D01*
Y70810D01*
G01X-59710Y72190D02*
X-73090D01*
X-73720Y73020D01*
G02Y76880I2479J1930D01*
G01X-73090Y77710D01*
X-59710D01*
X-59080Y76880D01*
G02Y73020I-2479J-1930D01*
G01X-59710Y72190D01*
G01X-67110Y143180D02*
X-80490D01*
X-81120Y144010D01*
G02Y147870I2479J1930D01*
G01X-80490Y148700D01*
X-67110D01*
X-66480Y147870D01*
G02Y144010I-2479J-1930D01*
G01X-67110Y143180D01*
G01X-72650Y168900D02*
Y182290D01*
X-67140D01*
Y168900D01*
X-72650D01*
G01X-45160Y-81740D02*
Y-89610D01*
X-58940D01*
Y-81740D01*
X-56970D01*
X-55000Y-79770D01*
Y-72880D01*
X-49100D01*
Y-79770D01*
X-47130Y-81740D01*
X-45160D01*
G01X-45350Y-96360D02*
X-58740D01*
Y-90850D01*
X-45350D01*
Y-96360D01*
G01X-50330Y-54930D02*
X-34980D01*
X-34070Y-56540D01*
G02Y-60400I-3432J-1930D01*
G01X-34980Y-62020D01*
X-50330D01*
X-51240Y-60400D01*
G02Y-56540I3432J1930D01*
G01X-50330Y-54930D01*
G01X-50750Y-54830D02*
Y-41440D01*
X-45240D01*
Y-54830D01*
X-50750D01*
G01X-56300Y-54780D02*
Y-41400D01*
X-50790D01*
Y-54780D01*
X-56300D01*
G01X-53060Y-5280D02*
X-37710D01*
X-36800Y-6900D01*
G02Y-10760I-3432J-1930D01*
G01X-37710Y-12370D01*
X-53060D01*
X-53970Y-10760D01*
G02Y-6900I3432J1930D01*
G01X-53060Y-5280D01*
G01X-53230Y-12680D02*
X-37880D01*
X-36970Y-14300D01*
G02Y-18160I-3432J-1930D01*
G01X-37880Y-19770D01*
X-53230D01*
X-54140Y-18160D01*
G02Y-14300I3432J1930D01*
G01X-53230Y-12680D01*
G01X-49940Y4610D02*
X-65300D01*
X-66200Y6220D01*
G02Y10080I3421J1930D01*
G01X-65300Y11690D01*
X-49940D01*
X-49040Y10080D01*
G02Y6220I-3432J-1930D01*
G01X-49940Y4610D01*
G01X-63810Y3980D02*
X-50420D01*
Y-1540D01*
X-63810D01*
Y3980D01*
G01X-50020Y23540D02*
X-34670D01*
X-33760Y21930D01*
G02Y18070I-3432J-1930D01*
G01X-34670Y16460D01*
X-50020D01*
X-50930Y18070D01*
G02Y21930I3432J1930D01*
G01X-50020Y23540D01*
G01X-61280Y37740D02*
X-45920D01*
X-45020Y36130D01*
G02Y32270I-3432J-1930D01*
G01X-45920Y30660D01*
X-61280D01*
X-62180Y32270D01*
G02Y36130I3421J1930D01*
G01X-61280Y37740D01*
G01X-63120Y47340D02*
X-47760D01*
X-46860Y45720D01*
G02Y41870I-3429J-1925D01*
G01X-47760Y40250D01*
X-63120D01*
X-64020Y41870D01*
G02Y45720I3429J1925D01*
G01X-63120Y47340D01*
G01X-49290Y70820D02*
X-33940D01*
X-33030Y69200D01*
G02Y65340I-3432J-1930D01*
G01X-33940Y63730D01*
X-49290D01*
X-50190Y65340D01*
G02Y69200I3421J1930D01*
G01X-49290Y70820D01*
G01X-52410Y93540D02*
X-65790D01*
X-66420Y94370D01*
G02Y98230I2479J1930D01*
G01X-65790Y99060D01*
X-52410D01*
X-51780Y98230D01*
G02Y94370I-2479J-1930D01*
G01X-52410Y93540D01*
G01X-62810Y103760D02*
Y117140D01*
X-57290D01*
Y103760D01*
X-62810D01*
G01X-31490Y181090D02*
X-51180D01*
G01X-31490Y177150D02*
G02I-9850J3940D01*
G01X-57750Y182090D02*
X-44360D01*
Y176570D01*
X-57750D01*
Y182090D01*
G01X-63820Y168650D02*
Y182040D01*
X-58310D01*
Y168650D01*
X-63820D01*
G01X-30810Y-81540D02*
Y-89420D01*
X-44590D01*
Y-81540D01*
X-42620D01*
X-40650Y-79570D01*
Y-72680D01*
X-34750D01*
Y-79570D01*
X-32780Y-81540D01*
X-30810D01*
G01X-42190Y-430D02*
Y14930D01*
X-40580Y15830D01*
G02X-36720I1930J-3432D01*
G01X-35110Y14930D01*
Y-430D01*
X-36720Y-1330D01*
G02X-40580I-1930J3421D01*
G01X-42190Y-430D01*
G01X-41000Y24890D02*
Y40250D01*
X-39390Y41150D01*
G02X-35530I1930J-3432D01*
G01X-33920Y40250D01*
Y24890D01*
X-35530Y23990D01*
G02X-39390I-1930J3421D01*
G01X-41000Y24890D01*
G01X-46460Y61070D02*
X-31100D01*
X-30200Y59460D01*
G02Y55600I-3432J-1930D01*
G01X-31100Y53990D01*
X-46460D01*
X-47360Y55600D01*
G02Y59460I3421J1930D01*
G01X-46460Y61070D01*
G01X-43160Y76980D02*
X-29780D01*
X-29150Y76150D01*
G02Y72290I-2479J-1930D01*
G01X-29780Y71470D01*
X-43160D01*
X-43790Y72290D01*
G02Y76150I2479J1930D01*
G01X-43160Y76980D01*
G01X-42490Y99360D02*
X-29110D01*
X-28480Y98530D01*
G02Y94670I-2479J-1930D01*
G01X-29110Y93840D01*
X-42490D01*
X-43120Y94670D01*
G02Y98530I2479J1930D01*
G01X-42490Y99360D01*
G01X-41340Y171240D02*
Y190930D01*
G01X-31030Y-6250D02*
Y7140D01*
X-25510D01*
Y-6250D01*
X-31030D01*
G01X-32750Y20660D02*
Y34050D01*
X-31930Y34680D01*
G02X-28070I1930J-2490D01*
G01X-27240Y34050D01*
Y20660D01*
X-28070Y20030D01*
G02X-31930I-1930J2479D01*
G01X-32750Y20660D01*
G01X14160Y-23350D02*
X-1200D01*
X-2100Y-21730D01*
G02Y-17880I3429J1925D01*
G01X-1200Y-16260D01*
X14160D01*
X15060Y-17880D01*
G02Y-21730I-3429J-1925D01*
G01X14160Y-23350D01*
G01X14660Y-15740D02*
X-700D01*
X-1600Y-14130D01*
G02Y-10270I3432J1930D01*
G01X-700Y-8660D01*
X14660D01*
X15560Y-10270D01*
G02Y-14130I-3421J-1930D01*
G01X14660Y-15740D01*
G01X10800Y14760D02*
Y28140D01*
X11620Y28770D01*
G02X15480I1930J-2479D01*
G01X16310Y28140D01*
Y14760D01*
X15480Y14130D01*
G02X11620I-1930J2479D01*
G01X10800Y14760D01*
G01X14720Y79440D02*
X28100D01*
X28730Y78610D01*
G02Y74750I-2479J-1930D01*
G01X28100Y73930D01*
X14720D01*
X14090Y74750D01*
G02Y78610I2479J1930D01*
G01X14720Y79440D01*
G01X15570Y85470D02*
X28960D01*
Y79960D01*
X15570D01*
Y85470D01*
G01X16610Y109000D02*
X30000D01*
Y103490D01*
X16610D01*
Y109000D01*
G01X18810Y137250D02*
X32200D01*
Y131740D01*
X18810D01*
Y137250D01*
G01X22570Y-3460D02*
Y9920D01*
X23400Y10550D01*
G02X27260I1930J-2479D01*
G01X28090Y9920D01*
Y-3460D01*
X27260Y-4090D01*
G02X23400I-1930J2479D01*
G01X22570Y-3460D01*
G01X36220Y13180D02*
X22840D01*
X22210Y14000D01*
G02Y17860I2479J1930D01*
G01X22840Y18690D01*
X36220D01*
X36850Y17860D01*
G02Y14000I-2479J-1930D01*
G01X36220Y13180D01*
G01X36010Y21950D02*
X22620D01*
X21990Y22770D01*
G02Y26630I2490J1930D01*
G01X22620Y27460D01*
X36010D01*
X36640Y26630D01*
G02Y22770I-2479J-1930D01*
G01X36010Y21950D01*
G01X40080Y33050D02*
X24730D01*
X23820Y34660D01*
G02Y38520I3432J1930D01*
G01X24730Y40140D01*
X40080D01*
X40990Y38520D01*
G02Y34660I-3432J-1930D01*
G01X40080Y33050D01*
G01X31050Y79150D02*
X44440D01*
X45070Y78330D01*
G02Y74470I-2479J-1930D01*
G01X44440Y73640D01*
X31050D01*
X30420Y74470D01*
G02Y78330I2490J1930D01*
G01X31050Y79150D01*
G01X30320Y85620D02*
X43710D01*
Y80110D01*
X30320D01*
Y85620D01*
G01X57380Y-74070D02*
Y-87450D01*
X51870D01*
Y-74070D01*
X57380D01*
G01X58430Y-50860D02*
Y-64250D01*
X52920D01*
Y-50860D01*
X58430D01*
G01X44990Y86460D02*
Y99850D01*
X45820Y100480D01*
G02X49680I1930J-2490D01*
G01X50500Y99850D01*
Y86460D01*
X49680Y85830D01*
G02X45820I-1930J2479D01*
G01X44990Y86460D01*
G01X80060Y-80370D02*
X93450D01*
Y-85880D01*
X80060D01*
Y-80370D01*
G01X93120Y-68200D02*
Y-76470D01*
X92840Y-76710D01*
G02X89460I-1690J1859D01*
G01X89180Y-76470D01*
Y-68200D01*
X89460Y-67970D01*
G02X92840I1690J-1859D01*
G01X93120Y-68200D01*
G01X80010Y-56250D02*
X93390D01*
Y-61760D01*
X80010D01*
Y-56250D01*
G01X93020Y-45320D02*
Y-53580D01*
X92740Y-53820D01*
G02X89360I-1690J1859D01*
G01X89080Y-53580D01*
Y-45320D01*
X89360Y-45080D01*
G02X92740I1690J-1859D01*
G01X93020Y-45320D01*
G01X95270Y-94140D02*
Y-80760D01*
X100790D01*
Y-94140D01*
X95270D01*
G01X94070Y-69940D02*
Y-56560D01*
X99590D01*
Y-69940D01*
X94070D01*
G01X107150Y160210D02*
Y144850D01*
X105540Y143950D01*
G02X101680I-1930J3421D01*
G01X100070Y144850D01*
Y160210D01*
X101680Y161110D01*
G02X105540I1930J-3432D01*
G01X107150Y160210D01*
G01X132360Y99590D02*
X118970D01*
Y105100D01*
X132360D01*
Y99590D01*
G01X107790Y145310D02*
Y158700D01*
X108610Y159330D01*
G02X112470I1930J-2490D01*
G01X113300Y158700D01*
Y145310D01*
X112470Y144680D01*
G02X108610I-1930J2479D01*
G01X107790Y145310D01*
G01X123250Y145820D02*
Y159200D01*
X128760D01*
Y145820D01*
X123250D01*
G01X120900Y160110D02*
Y144360D01*
X113810D01*
Y160110D01*
X120900D01*
G01X153500Y99420D02*
X133810D01*
Y105710D01*
X153500D01*
Y99420D01*
G01X140900Y105710D02*
Y99420D01*
G01X141290Y105710D02*
Y99420D01*
G01X141690Y105710D02*
Y99420D01*
G01X140510Y105710D02*
Y99420D01*
G01X140110Y105710D02*
Y99420D01*
G01X153500Y106310D02*
X133820D01*
Y112610D01*
X153500D01*
Y106310D01*
G01X140910Y112610D02*
Y106310D01*
G01X141300Y112610D02*
Y106310D01*
G01X141690Y112610D02*
Y106310D01*
G01X140510Y112610D02*
Y106310D01*
G01X140120Y112610D02*
Y106310D01*
G01X130530Y145690D02*
Y159080D01*
X136040D01*
Y145690D01*
X130530D01*
G01X136880Y145890D02*
Y159270D01*
X142390D01*
Y145890D01*
X136880D01*
G01X159800Y53290D02*
Y39900D01*
X158970Y39270D01*
G02X155120I-1925J2491D01*
G01X154290Y39900D01*
Y53290D01*
X155120Y53920D01*
G02X158970I1925J-2480D01*
G01X159800Y53290D01*
G01X165790Y98450D02*
X157920D01*
Y112230D01*
X165790D01*
Y110260D01*
X167760Y108290D01*
X174650D01*
Y102390D01*
X167760D01*
X165790Y100420D01*
Y98450D01*
G01X153630Y122970D02*
X167020D01*
Y117450D01*
X153630D01*
Y122970D01*
G01X143780Y145940D02*
Y159320D01*
X149290D01*
Y145940D01*
X143780D01*
G01X149780Y145680D02*
Y159070D01*
X155290D01*
Y145680D01*
X149780D01*
G01X176680Y102420D02*
Y115810D01*
X182190D01*
Y102420D01*
X176680D01*
G01X178420Y-72380D02*
Y-62380D01*
X188420D01*
Y-72380D01*
X178420D01*
G01X180060Y7360D02*
Y17360D01*
X190060D01*
Y7360D01*
X180060D01*
G01X186240Y-6990D02*
Y6400D01*
X187070Y7030D01*
G02X190930I1930J-2490D01*
G01X191750Y6400D01*
Y-6990D01*
X190930Y-7620D01*
G02X187070I-1930J2479D01*
G01X186240Y-6990D01*
G01X184120Y6500D02*
Y-6880D01*
X178610D01*
Y6500D01*
X184120D01*
G01X183320Y110370D02*
Y123760D01*
X184140Y124390D01*
G02X188000I1930J-2490D01*
G01X188830Y123760D01*
Y110370D01*
X188000Y109740D01*
G02X184140I-1930J2479D01*
G01X183320Y110370D01*
G01X181940Y161530D02*
Y171530D01*
X191940D01*
Y161530D01*
X181940D01*
M02*
