G04 CAM350 V9.5.1 (Build 211) Date:  Mon Jun 16 19:21:36 2014 *
G04 Database: e:\a\pegasus.cam *
G04 Layer 10: SilkscreenBotto *
%FSLAX55Y55*%
%MOIN*%
%SFA1.000B1.000*%

%MIA0B0*%
%IPPOS*%
%ADD28C,0.00800*%
%ADD114C,0.00600*%
%LNSilkscreenBotto*%
%LPD*%
G54D114*
X-153570Y131710D02*
G01X-153320Y131910D01*
X-153030Y132040*
X-152690*
X-152320Y131840*
X-152030Y131510*
X-151820Y131110*
X-151650Y130440*
X-151610Y129840*
X-151690Y129240*
X-151820Y128840*
X-152070Y128440*
X-152360Y128170*
X-152650Y128040*
X-152940*
X-153230Y128170*
X-153480Y128370*
X-153690Y128640*
X-156650Y128040D02*
G01Y132040D01*
X-155110Y129170*
X-157190*
X-159650Y128040D02*
G01Y132040D01*
X-159150Y131240*
Y128040D02*
G01X-160150D01*
X-155640Y183300D02*
G01Y187300D01*
X-156680*
X-157010Y187100*
X-157220Y186830*
X-157300Y186300*
X-157220Y185770*
X-156970Y185430*
X-156680Y185230*
X-155640*
X-156680D02*
G01X-157300Y183300D01*
X-159970Y187300D02*
G01Y183300D01*
X-159010Y187300D02*
G01X-160930D01*
X-162550Y184100D02*
G01X-162800Y183630D01*
X-163140Y183370*
X-163510Y183300*
X-163850Y183370*
X-164180Y183700*
X-164390Y184100*
X-164430Y184500*
X-164350Y184970*
X-164050Y185300*
X-163760Y185430*
X-163390*
X-163760D02*
G01X-164010Y185630D01*
X-164220Y185970*
X-164300Y186370*
X-164220Y186770*
X-164010Y187100*
X-163640Y187300*
X-163260Y187230*
X-162890Y186970*
X-142490Y-5550D02*
G01X-146490D01*
Y-6590*
X-146290Y-6920*
X-146020Y-7130*
X-145490Y-7210*
X-144960Y-7130*
X-144620Y-6880*
X-144420Y-6590*
Y-5550*
Y-6590D02*
G01X-142490Y-7210D01*
Y-9880D02*
G01X-146490D01*
X-145690Y-9380*
X-142490D02*
G01Y-10380D01*
X-143290Y-12460D02*
G01X-142820Y-12710D01*
X-142560Y-13050*
X-142490Y-13420*
X-142560Y-13760*
X-142890Y-14090*
X-143290Y-14300*
X-143690Y-14340*
X-144160Y-14260*
X-144490Y-13960*
X-144620Y-13670*
Y-13300*
Y-13670D02*
G01X-144820Y-13920D01*
X-145160Y-14130*
X-145560Y-14210*
X-145960Y-14130*
X-146290Y-13920*
X-146490Y-13550*
X-146420Y-13170*
X-146160Y-12800*
X-142490Y-16880D02*
G01X-146490D01*
X-145690Y-16380*
X-142490D02*
G01Y-17380D01*
X-145130Y27970D02*
G01Y25100D01*
X-145300Y24500*
X-145630Y24100*
X-146050Y23970*
X-146470Y24100*
X-146800Y24500*
X-146970Y25100*
Y27970*
X-149550Y23970D02*
G01X-149840Y24040D01*
X-150170Y24240*
X-150380Y24570*
X-150470Y25040*
X-150380Y25500*
X-150130Y25900*
X-149760Y26100*
X-149340*
X-149090Y26240*
X-148880Y26570*
X-148800Y27040*
X-148930Y27500*
X-149220Y27840*
X-149550Y27970*
X-149880Y27840*
X-150170Y27500*
X-150300Y27040*
X-150220Y26570*
X-150010Y26240*
X-149760Y26100*
X-149340*
X-148970Y25900*
X-148720Y25500*
X-148630Y25040*
X-148720Y24570*
X-148930Y24240*
X-149260Y24040*
X-149550Y23970*
X-139060Y62770D02*
G01X-143060D01*
Y61930*
X-142860Y61600*
X-142590Y61350*
X-142190Y61140*
X-141730Y60970*
X-141060Y60930*
X-140390Y60970*
X-139930Y61140*
X-139530Y61350*
X-139260Y61600*
X-139060Y61930*
Y62770*
Y58350D02*
G01X-143060D01*
X-142260Y58850*
X-139060D02*
G01Y57850D01*
X-139660Y55770D02*
G01X-139330Y55520D01*
X-139130Y55230*
X-139060Y54850*
X-139190Y54470*
X-139460Y54180*
X-139930Y53970*
X-140460Y53930*
X-140990Y54020*
X-141330Y54230*
X-141590Y54520*
X-141660Y54810*
X-141590Y55100*
X-141330Y55470*
X-143060Y55350*
Y54230*
X-139230Y82950D02*
G01X-143230D01*
Y81910*
X-143030Y81580*
X-142760Y81370*
X-142230Y81290*
X-141700Y81370*
X-141360Y81620*
X-141160Y81910*
Y82950*
Y81910D02*
G01X-139230Y81290D01*
Y78620D02*
G01X-143230D01*
X-142430Y79120*
X-139230D02*
G01Y78120D01*
X-140030Y76040D02*
G01X-139560Y75790D01*
X-139300Y75450*
X-139230Y75080*
X-139300Y74740*
X-139630Y74410*
X-140030Y74200*
X-140430Y74160*
X-140900Y74240*
X-141230Y74540*
X-141360Y74830*
Y75200*
Y74830D02*
G01X-141560Y74580D01*
X-141900Y74370*
X-142300Y74290*
X-142700Y74370*
X-143030Y74580*
X-143230Y74950*
X-143160Y75330*
X-142900Y75700*
X-139830Y72540D02*
G01X-139500Y72290D01*
X-139300Y72000*
X-139230Y71620*
X-139360Y71240*
X-139630Y70950*
X-140100Y70740*
X-140630Y70700*
X-141160Y70790*
X-141500Y71000*
X-141760Y71290*
X-141830Y71580*
X-141760Y71870*
X-141500Y72240*
X-143230Y72120*
Y71000*
X-144140Y142690D02*
G01X-143890Y142890D01*
X-143600Y143020*
X-143260*
X-142890Y142820*
X-142600Y142490*
X-142390Y142090*
X-142220Y141420*
X-142180Y140820*
X-142260Y140220*
X-142390Y139820*
X-142640Y139420*
X-142930Y139150*
X-143220Y139020*
X-143510*
X-143800Y139150*
X-144050Y139350*
X-144260Y139620*
X-147220Y139020D02*
G01Y143020D01*
X-145680Y140150*
X-147760*
X-150220Y143020D02*
G01X-149890Y142890D01*
X-149640Y142550*
X-149470Y142150*
X-149340Y141620*
X-149300Y141020*
X-149340Y140420*
X-149470Y139890*
X-149640Y139490*
X-149890Y139150*
X-150220Y139020*
X-150550Y139150*
X-150800Y139490*
X-150970Y139890*
X-151100Y140420*
X-151140Y141020*
X-151100Y141620*
X-150970Y142150*
X-150800Y142550*
X-150550Y142890*
X-150220Y143020*
X-139120Y173570D02*
G01X-139320Y173820D01*
X-139450Y174110*
Y174450*
X-139250Y174820*
X-138920Y175110*
X-138520Y175320*
X-137850Y175490*
X-137250Y175530*
X-136650Y175450*
X-136250Y175320*
X-135850Y175070*
X-135580Y174780*
X-135450Y174490*
Y174200*
X-135580Y173910*
X-135780Y173660*
X-136050Y173450*
X-135450Y171070D02*
G01X-136320Y170990D01*
X-137050Y170860*
X-137720Y170700*
X-138450Y170490*
X-139450Y170160*
Y171820*
X-136050Y168410D02*
G01X-135720Y168160D01*
X-135520Y167870*
X-135450Y167490*
X-135580Y167110*
X-135850Y166820*
X-136320Y166610*
X-136850Y166570*
X-137380Y166660*
X-137720Y166870*
X-137980Y167160*
X-138050Y167450*
X-137980Y167740*
X-137720Y168110*
X-139450Y167990*
Y166870*
X-116750Y10570D02*
G01X-116500Y10770D01*
X-116210Y10900*
X-115870*
X-115500Y10700*
X-115210Y10370*
X-115000Y9970*
X-114830Y9300*
X-114790Y8700*
X-114870Y8100*
X-115000Y7700*
X-115250Y7300*
X-115540Y7030*
X-115830Y6900*
X-116120*
X-116410Y7030*
X-116660Y7230*
X-116870Y7500*
X-118540Y8570D02*
G01X-118830Y9030D01*
X-119080Y9300*
X-119410Y9430*
X-119710Y9300*
X-119910Y9030*
X-120080Y8630*
X-120120Y8170*
X-120080Y7770*
X-119910Y7370*
X-119660Y7030*
X-119370Y6900*
X-119040Y7030*
X-118750Y7430*
X-118580Y8030*
X-118540Y8700*
X-118620Y9570*
X-118750Y10030*
X-118950Y10500*
X-119250Y10830*
X-119540Y10900*
X-119830Y10770*
X-120040Y10430*
X-123330Y6900D02*
G01Y10900D01*
X-121790Y8030*
X-123870*
X-113200Y-2560D02*
G01Y1440D01*
X-114240*
X-114570Y1240*
X-114780Y970*
X-114860Y440*
X-114780Y-90*
X-114530Y-430*
X-114240Y-630*
X-113200*
X-114240D02*
G01X-114860Y-2560D01*
X-117530D02*
G01Y1440D01*
X-117030Y640*
Y-2560D02*
G01X-118030D01*
X-120110Y-1760D02*
G01X-120360Y-2230D01*
X-120700Y-2490*
X-121070Y-2560*
X-121410Y-2490*
X-121740Y-2160*
X-121950Y-1760*
X-121990Y-1360*
X-121910Y-890*
X-121610Y-560*
X-121320Y-430*
X-120950*
X-121320D02*
G01X-121570Y-230D01*
X-121780Y110*
X-121860Y510*
X-121780Y910*
X-121570Y1240*
X-121200Y1440*
X-120820Y1370*
X-120450Y1110*
X-124530Y1440D02*
G01X-124200Y1310D01*
X-123950Y970*
X-123780Y570*
X-123650Y40*
X-123610Y-560*
X-123650Y-1160*
X-123780Y-1690*
X-123950Y-2090*
X-124200Y-2430*
X-124530Y-2560*
X-124860Y-2430*
X-125110Y-2090*
X-125280Y-1690*
X-125410Y-1160*
X-125450Y-560*
X-125410Y40*
X-125280Y570*
X-125110Y970*
X-124860Y1310*
X-124530Y1440*
X-118900Y125960D02*
G01X-118650Y126160D01*
X-118360Y126290*
X-118020*
X-117650Y126090*
X-117360Y125760*
X-117150Y125360*
X-116980Y124690*
X-116940Y124090*
X-117020Y123490*
X-117150Y123090*
X-117400Y122690*
X-117690Y122420*
X-117980Y122290*
X-118270*
X-118560Y122420*
X-118810Y122620*
X-119020Y122890*
X-121400Y122290D02*
G01X-121480Y123160D01*
X-121610Y123890*
X-121770Y124560*
X-121980Y125290*
X-122310Y126290*
X-120650*
X-124190Y123960D02*
G01X-124480Y124420D01*
X-124730Y124690*
X-125060Y124820*
X-125360Y124690*
X-125560Y124420*
X-125730Y124020*
X-125770Y123560*
X-125730Y123160*
X-125560Y122760*
X-125310Y122420*
X-125020Y122290*
X-124690Y122420*
X-124400Y122820*
X-124230Y123420*
X-124190Y124090*
X-124270Y124960*
X-124400Y125420*
X-124600Y125890*
X-124900Y126220*
X-125190Y126290*
X-125480Y126160*
X-125690Y125820*
X-116810Y151700D02*
G01X-115150D01*
Y155700*
X-116810*
X-116150Y153770D02*
G01X-115150D01*
X-119480Y151700D02*
G01Y155700D01*
X-118980Y154900*
Y151700D02*
G01X-119980D01*
X-123370Y157810D02*
G01X-123040Y157880D01*
X-122750Y158140*
X-122490Y158540*
X-122330Y159010*
X-122240Y159540*
Y160080*
X-122330Y160610*
X-122490Y161080*
X-122750Y161480*
X-123040Y161740*
X-123370Y161810*
X-123700Y161740*
X-123990Y161480*
X-124250Y161080*
X-124410Y160610*
X-124500Y160080*
Y159540*
X-124410Y159010*
X-124250Y158540*
X-123990Y158140*
X-123700Y157880*
X-123370Y157810*
X-123700Y158880D02*
G01X-124200Y157810D01*
X-126870D02*
G01Y161810D01*
X-126370Y161010*
Y157810D02*
G01X-127370D01*
X-127500Y190000D02*
G01X-127670Y190200D01*
X-127790Y190540*
X-127880Y191000*
X-127790Y191400*
X-127630Y191670*
X-127340Y191870*
X-126210*
Y187870*
X-127590*
X-127880Y188140*
X-128050Y188540*
X-128130Y189000*
X-128050Y189470*
X-127790Y189870*
X-127500Y190000*
X-126210*
X-130670Y191870D02*
G01Y187870D01*
X-129710Y191870D02*
G01X-131630D01*
X-134170Y187870D02*
G01Y191870D01*
X-133670Y191070*
Y187870D02*
G01X-134670D01*
X-112290Y33180D02*
G01X-112490Y33430D01*
X-112620Y33720*
Y34060*
X-112420Y34430*
X-112090Y34720*
X-111690Y34930*
X-111020Y35100*
X-110420Y35140*
X-109820Y35060*
X-109420Y34930*
X-109020Y34680*
X-108750Y34390*
X-108620Y34100*
Y33810*
X-108750Y33520*
X-108950Y33270*
X-109220Y33060*
X-110290Y31390D02*
G01X-110750Y31100D01*
X-111020Y30850*
X-111150Y30520*
X-111020Y30220*
X-110750Y30020*
X-110350Y29850*
X-109890Y29810*
X-109490Y29850*
X-109090Y30020*
X-108750Y30270*
X-108620Y30560*
X-108750Y30890*
X-109150Y31180*
X-109750Y31350*
X-110420Y31390*
X-111290Y31310*
X-111750Y31180*
X-112220Y30980*
X-112550Y30680*
X-112620Y30390*
X-112490Y30100*
X-112150Y29890*
X-109220Y28020D02*
G01X-108890Y27770D01*
X-108690Y27480*
X-108620Y27100*
X-108750Y26720*
X-109020Y26430*
X-109490Y26220*
X-110020Y26180*
X-110550Y26270*
X-110890Y26480*
X-111150Y26770*
X-111220Y27060*
X-111150Y27350*
X-110890Y27720*
X-112620Y27600*
Y26480*
X-107540Y73850D02*
G01X-111540D01*
Y72810*
X-111340Y72480*
X-111070Y72270*
X-110540Y72190*
X-110010Y72270*
X-109670Y72520*
X-109470Y72810*
Y73850*
Y72810D02*
G01X-107540Y72190D01*
Y69520D02*
G01X-111540D01*
X-110740Y70020*
X-107540D02*
G01Y69020D01*
X-108340Y66940D02*
G01X-107870Y66690D01*
X-107610Y66350*
X-107540Y65980*
X-107610Y65640*
X-107940Y65310*
X-108340Y65100*
X-108740Y65060*
X-109210Y65140*
X-109540Y65440*
X-109670Y65730*
Y66100*
Y65730D02*
G01X-109870Y65480D01*
X-110210Y65270*
X-110610Y65190*
X-111010Y65270*
X-111340Y65480*
X-111540Y65850*
X-111470Y66230*
X-111210Y66600*
X-109210Y63310D02*
G01X-109670Y63020D01*
X-109940Y62770*
X-110070Y62440*
X-109940Y62140*
X-109670Y61940*
X-109270Y61770*
X-108810Y61730*
X-108410Y61770*
X-108010Y61940*
X-107670Y62190*
X-107540Y62480*
X-107670Y62810*
X-108070Y63100*
X-108670Y63270*
X-109340Y63310*
X-110210Y63230*
X-110670Y63100*
X-111140Y62900*
X-111470Y62600*
X-111540Y62310*
X-111410Y62020*
X-111070Y61810*
X-110040Y139100D02*
G01X-106040D01*
Y137440*
Y134770D02*
G01X-110040D01*
X-109240Y135270*
X-106040D02*
G01Y134270D01*
X-106640Y132190D02*
G01X-106310Y131940D01*
X-106110Y131650*
X-106040Y131270*
X-106170Y130890*
X-106440Y130600*
X-106910Y130390*
X-107440Y130350*
X-107970Y130440*
X-108310Y130650*
X-108570Y130940*
X-108640Y131230*
X-108570Y131520*
X-108310Y131890*
X-110040Y131770*
Y130650*
X-73610Y-65650D02*
G01Y-61650D01*
X-74650*
X-74980Y-61850*
X-75190Y-62120*
X-75270Y-62650*
X-75190Y-63180*
X-74940Y-63520*
X-74650Y-63720*
X-73610*
X-74650D02*
G01X-75270Y-65650D01*
X-77940D02*
G01Y-61650D01*
X-77440Y-62450*
Y-65650D02*
G01X-78440D01*
X-81940D02*
G01Y-61650D01*
X-80400Y-64520*
X-82480*
X-84940Y-65650D02*
G01Y-61650D01*
X-84440Y-62450*
Y-65650D02*
G01X-85440D01*
X-73780Y-59440D02*
G01Y-55440D01*
X-74820*
X-75150Y-55640*
X-75360Y-55910*
X-75440Y-56440*
X-75360Y-56970*
X-75110Y-57310*
X-74820Y-57510*
X-73780*
X-74820D02*
G01X-75440Y-59440D01*
X-78110D02*
G01Y-55440D01*
X-77610Y-56240*
Y-59440D02*
G01X-78610D01*
X-82110D02*
G01Y-55440D01*
X-80570Y-58310*
X-82650*
X-85110Y-55440D02*
G01X-84780Y-55570D01*
X-84530Y-55910*
X-84360Y-56310*
X-84230Y-56840*
X-84190Y-57440*
X-84230Y-58040*
X-84360Y-58570*
X-84530Y-58970*
X-84780Y-59310*
X-85110Y-59440*
X-85440Y-59310*
X-85690Y-58970*
X-85860Y-58570*
X-85990Y-58040*
X-86030Y-57440*
X-85990Y-56840*
X-85860Y-56310*
X-85690Y-55910*
X-85440Y-55570*
X-85110Y-55440*
X-73800Y-52080D02*
G01Y-48080D01*
X-74840*
X-75170Y-48280*
X-75380Y-48550*
X-75460Y-49080*
X-75380Y-49610*
X-75130Y-49950*
X-74840Y-50150*
X-73800*
X-74840D02*
G01X-75460Y-52080D01*
X-78130D02*
G01Y-48080D01*
X-77630Y-48880*
Y-52080D02*
G01X-78630D01*
X-80710Y-51280D02*
G01X-80960Y-51750D01*
X-81300Y-52010*
X-81670Y-52080*
X-82010Y-52010*
X-82340Y-51680*
X-82550Y-51280*
X-82590Y-50880*
X-82510Y-50410*
X-82210Y-50080*
X-81920Y-49950*
X-81550*
X-81920D02*
G01X-82170Y-49750D01*
X-82380Y-49410*
X-82460Y-49010*
X-82380Y-48610*
X-82170Y-48280*
X-81800Y-48080*
X-81420Y-48150*
X-81050Y-48410*
X-84420Y-51610D02*
G01X-84710Y-51950D01*
X-85050Y-52080*
X-85380Y-51950*
X-85670Y-51550*
X-85880Y-50950*
X-85960Y-50350*
Y-49610*
X-85880Y-49010*
X-85670Y-48480*
X-85420Y-48210*
X-85130Y-48080*
X-84800Y-48210*
X-84550Y-48480*
X-84380Y-48880*
X-84300Y-49410*
X-84380Y-49880*
X-84590Y-50350*
X-84840Y-50610*
X-85130Y-50680*
X-85460Y-50550*
X-85710Y-50210*
X-85960Y-49610*
X-74710Y-46030D02*
G01Y-42030D01*
X-75750*
X-76080Y-42230*
X-76290Y-42500*
X-76370Y-43030*
X-76290Y-43560*
X-76040Y-43900*
X-75750Y-44100*
X-74710*
X-75750D02*
G01X-76370Y-46030D01*
X-79040D02*
G01Y-42030D01*
X-78540Y-42830*
Y-46030D02*
G01X-79540D01*
X-81620Y-45230D02*
G01X-81870Y-45700D01*
X-82210Y-45960*
X-82580Y-46030*
X-82920Y-45960*
X-83250Y-45630*
X-83460Y-45230*
X-83500Y-44830*
X-83420Y-44360*
X-83120Y-44030*
X-82830Y-43900*
X-82460*
X-82830D02*
G01X-83080Y-43700D01*
X-83290Y-43360*
X-83370Y-42960*
X-83290Y-42560*
X-83080Y-42230*
X-82710Y-42030*
X-82330Y-42100*
X-81960Y-42360*
X-85960Y-46030D02*
G01X-86040Y-45160D01*
X-86170Y-44430*
X-86330Y-43760*
X-86540Y-43030*
X-86870Y-42030*
X-85210*
X-93390Y-8070D02*
G01X-97390D01*
Y-9110*
X-97190Y-9440*
X-96920Y-9650*
X-96390Y-9730*
X-95860Y-9650*
X-95520Y-9400*
X-95320Y-9110*
Y-8070*
Y-9110D02*
G01X-93390Y-9730D01*
X-94190Y-11480D02*
G01X-93720Y-11730D01*
X-93460Y-12070*
X-93390Y-12440*
X-93460Y-12780*
X-93790Y-13110*
X-94190Y-13320*
X-94590Y-13360*
X-95060Y-13280*
X-95390Y-12980*
X-95520Y-12690*
Y-12320*
Y-12690D02*
G01X-95720Y-12940D01*
X-96060Y-13150*
X-96460Y-13230*
X-96860Y-13150*
X-97190Y-12940*
X-97390Y-12570*
X-97320Y-12190*
X-97060Y-11820*
X-93390Y-15900D02*
G01X-93460Y-16190D01*
X-93660Y-16520*
X-93990Y-16730*
X-94460Y-16820*
X-94920Y-16730*
X-95320Y-16480*
X-95520Y-16110*
Y-15690*
X-95660Y-15440*
X-95990Y-15230*
X-96460Y-15150*
X-96920Y-15280*
X-97260Y-15570*
X-97390Y-15900*
X-97260Y-16230*
X-96920Y-16520*
X-96460Y-16650*
X-95990Y-16570*
X-95660Y-16360*
X-95520Y-16110*
Y-15690*
X-95320Y-15320*
X-94920Y-15070*
X-94460Y-14980*
X-93990Y-15070*
X-93660Y-15280*
X-93460Y-15610*
X-93390Y-15900*
X-96930Y9280D02*
G01X-97130Y9530D01*
X-97260Y9820*
Y10160*
X-97060Y10530*
X-96730Y10820*
X-96330Y11030*
X-95660Y11200*
X-95060Y11240*
X-94460Y11160*
X-94060Y11030*
X-93660Y10780*
X-93390Y10490*
X-93260Y10200*
Y9910*
X-93390Y9620*
X-93590Y9370*
X-93860Y9160*
Y7620D02*
G01X-93530Y7370D01*
X-93330Y7080*
X-93260Y6700*
X-93390Y6320*
X-93660Y6030*
X-94130Y5820*
X-94660Y5780*
X-95190Y5870*
X-95530Y6080*
X-95790Y6370*
X-95860Y6660*
X-95790Y6950*
X-95530Y7320*
X-97260Y7200*
Y6080*
X-93860Y4120D02*
G01X-93530Y3870D01*
X-93330Y3580*
X-93260Y3200*
X-93390Y2820*
X-93660Y2530*
X-94130Y2320*
X-94660Y2280*
X-95190Y2370*
X-95530Y2580*
X-95790Y2870*
X-95860Y3160*
X-95790Y3450*
X-95530Y3820*
X-97260Y3700*
Y2580*
X-91440Y60770D02*
G01X-87440D01*
Y59110*
Y56440D02*
G01X-91440D01*
X-90640Y56940*
X-87440D02*
G01Y55940D01*
X-88240Y53860D02*
G01X-87770Y53610D01*
X-87510Y53270*
X-87440Y52900*
X-87510Y52560*
X-87840Y52230*
X-88240Y52020*
X-88640Y51980*
X-89110Y52060*
X-89440Y52360*
X-89570Y52650*
Y53020*
Y52650D02*
G01X-89770Y52400D01*
X-90110Y52190*
X-90510Y52110*
X-90910Y52190*
X-91240Y52400*
X-91440Y52770*
X-91370Y53150*
X-91110Y53520*
X-79800Y83690D02*
G01Y79690D01*
X-81460*
X-84130D02*
G01Y83690D01*
X-83630Y82890*
Y79690D02*
G01X-84630D01*
X-87630D02*
G01Y83690D01*
X-87130Y82890*
Y79690D02*
G01X-88130D01*
X-76350Y129090D02*
G01Y133090D01*
X-77390*
X-77720Y132890*
X-77930Y132620*
X-78010Y132090*
X-77930Y131560*
X-77680Y131220*
X-77390Y131020*
X-76350*
X-77390D02*
G01X-78010Y129090D01*
X-80680D02*
G01Y133090D01*
X-80180Y132290*
Y129090D02*
G01X-81180D01*
X-83260Y129890D02*
G01X-83510Y129420D01*
X-83850Y129160*
X-84220Y129090*
X-84560Y129160*
X-84890Y129490*
X-85100Y129890*
X-85140Y130290*
X-85060Y130760*
X-84760Y131090*
X-84470Y131220*
X-84100*
X-84470D02*
G01X-84720Y131420D01*
X-84930Y131760*
X-85010Y132160*
X-84930Y132560*
X-84720Y132890*
X-84350Y133090*
X-83970Y133020*
X-83600Y132760*
X-87680Y129090D02*
G01X-87970Y129160D01*
X-88300Y129360*
X-88510Y129690*
X-88600Y130160*
X-88510Y130620*
X-88260Y131020*
X-87890Y131220*
X-87470*
X-87220Y131360*
X-87010Y131690*
X-86930Y132160*
X-87060Y132620*
X-87350Y132960*
X-87680Y133090*
X-88010Y132960*
X-88300Y132620*
X-88430Y132160*
X-88350Y131690*
X-88140Y131360*
X-87890Y131220*
X-87470*
X-87100Y131020*
X-86850Y130620*
X-86760Y130160*
X-86850Y129690*
X-87060Y129360*
X-87390Y129160*
X-87680Y129090*
X-88560Y153630D02*
G01X-88310Y153830D01*
X-88020Y153960*
X-87680*
X-87310Y153760*
X-87020Y153430*
X-86810Y153030*
X-86640Y152360*
X-86600Y151760*
X-86680Y151160*
X-86810Y150760*
X-87060Y150360*
X-87350Y150090*
X-87640Y149960*
X-87930*
X-88220Y150090*
X-88470Y150290*
X-88680Y150560*
X-90350Y151630D02*
G01X-90640Y152090D01*
X-90890Y152360*
X-91220Y152490*
X-91520Y152360*
X-91720Y152090*
X-91890Y151690*
X-91930Y151230*
X-91890Y150830*
X-91720Y150430*
X-91470Y150090*
X-91180Y149960*
X-90850Y150090*
X-90560Y150490*
X-90390Y151090*
X-90350Y151760*
X-90430Y152630*
X-90560Y153090*
X-90760Y153560*
X-91060Y153890*
X-91350Y153960*
X-91640Y153830*
X-91850Y153490*
X-94560Y149960D02*
G01X-94640Y150830D01*
X-94770Y151560*
X-94930Y152230*
X-95140Y152960*
X-95470Y153960*
X-93810*
X-74440Y184350D02*
G01Y188350D01*
X-75480*
X-75810Y188150*
X-76020Y187880*
X-76100Y187350*
X-76020Y186820*
X-75770Y186480*
X-75480Y186280*
X-74440*
X-75480D02*
G01X-76100Y184350D01*
X-78770D02*
G01Y188350D01*
X-78270Y187550*
Y184350D02*
G01X-79270D01*
X-82770D02*
G01Y188350D01*
X-81230Y185480*
X-83310*
X-84850Y185150D02*
G01X-85100Y184680D01*
X-85440Y184420*
X-85810Y184350*
X-86150Y184420*
X-86480Y184750*
X-86690Y185150*
X-86730Y185550*
X-86650Y186020*
X-86350Y186350*
X-86060Y186480*
X-85690*
X-86060D02*
G01X-86310Y186680D01*
X-86520Y187020*
X-86600Y187420*
X-86520Y187820*
X-86310Y188150*
X-85940Y188350*
X-85560Y188280*
X-85190Y188020*
X-70450Y-87460D02*
G01X-74450D01*
Y-88300*
X-74250Y-88630*
X-73980Y-88880*
X-73580Y-89090*
X-73120Y-89260*
X-72450Y-89300*
X-71780Y-89260*
X-71320Y-89090*
X-70920Y-88880*
X-70650Y-88630*
X-70450Y-88300*
Y-87460*
Y-91880D02*
G01X-70520Y-92170D01*
X-70720Y-92500*
X-71050Y-92710*
X-71520Y-92800*
X-71980Y-92710*
X-72380Y-92460*
X-72580Y-92090*
Y-91670*
X-72720Y-91420*
X-73050Y-91210*
X-73520Y-91130*
X-73980Y-91260*
X-74320Y-91550*
X-74450Y-91880*
X-74320Y-92210*
X-73980Y-92500*
X-73520Y-92630*
X-73050Y-92550*
X-72720Y-92340*
X-72580Y-92090*
Y-91670*
X-72380Y-91300*
X-71980Y-91050*
X-71520Y-90960*
X-71050Y-91050*
X-70720Y-91260*
X-70520Y-91590*
X-70450Y-91880*
X-75360Y-39440D02*
G01Y-35440D01*
X-76400*
X-76730Y-35640*
X-76940Y-35910*
X-77020Y-36440*
X-76940Y-36970*
X-76690Y-37310*
X-76400Y-37510*
X-75360*
X-76400D02*
G01X-77020Y-39440D01*
X-78770Y-38640D02*
G01X-79020Y-39110D01*
X-79360Y-39370*
X-79730Y-39440*
X-80070Y-39370*
X-80400Y-39040*
X-80610Y-38640*
X-80650Y-38240*
X-80570Y-37770*
X-80270Y-37440*
X-79980Y-37310*
X-79610*
X-79980D02*
G01X-80230Y-37110D01*
X-80440Y-36770*
X-80520Y-36370*
X-80440Y-35970*
X-80230Y-35640*
X-79860Y-35440*
X-79480Y-35510*
X-79110Y-35770*
X-82480Y-38970D02*
G01X-82770Y-39310D01*
X-83110Y-39440*
X-83440Y-39310*
X-83730Y-38910*
X-83940Y-38310*
X-84020Y-37710*
Y-36970*
X-83940Y-36370*
X-83730Y-35840*
X-83480Y-35570*
X-83190Y-35440*
X-82860Y-35570*
X-82610Y-35840*
X-82440Y-36240*
X-82360Y-36770*
X-82440Y-37240*
X-82650Y-37710*
X-82900Y-37970*
X-83190Y-38040*
X-83520Y-37910*
X-83770Y-37570*
X-84020Y-36970*
X-61600Y22550D02*
G01X-61350Y22750D01*
X-61060Y22880*
X-60720*
X-60350Y22680*
X-60060Y22350*
X-59850Y21950*
X-59680Y21280*
X-59640Y20680*
X-59720Y20080*
X-59850Y19680*
X-60100Y19280*
X-60390Y19010*
X-60680Y18880*
X-60970*
X-61260Y19010*
X-61510Y19210*
X-61720Y19480*
X-63260D02*
G01X-63510Y19150D01*
X-63800Y18950*
X-64180Y18880*
X-64560Y19010*
X-64850Y19280*
X-65060Y19750*
X-65100Y20280*
X-65010Y20810*
X-64800Y21150*
X-64510Y21410*
X-64220Y21480*
X-63930Y21410*
X-63560Y21150*
X-63680Y22880*
X-64800*
X-67680Y18880D02*
G01Y22880D01*
X-67180Y22080*
Y18880D02*
G01X-68180D01*
X-75560Y28540D02*
G01X-75310Y28740D01*
X-75020Y28870*
X-74680*
X-74310Y28670*
X-74020Y28340*
X-73810Y27940*
X-73640Y27270*
X-73600Y26670*
X-73680Y26070*
X-73810Y25670*
X-74060Y25270*
X-74350Y25000*
X-74640Y24870*
X-74930*
X-75220Y25000*
X-75470Y25200*
X-75680Y25470*
X-77220D02*
G01X-77470Y25140D01*
X-77760Y24940*
X-78140Y24870*
X-78520Y25000*
X-78810Y25270*
X-79020Y25740*
X-79060Y26270*
X-78970Y26800*
X-78760Y27140*
X-78470Y27400*
X-78180Y27470*
X-77890Y27400*
X-77520Y27140*
X-77640Y28870*
X-78760*
X-80850Y28200D02*
G01X-81100Y28600D01*
X-81390Y28800*
X-81720Y28870*
X-82140Y28740*
X-82430Y28400*
X-82520Y28000*
X-82470Y27600*
X-82310Y27270*
X-81470Y26600*
X-81100Y26140*
X-80850Y25470*
X-80760Y24870*
X-82520*
X-59410Y11710D02*
G01Y15710D01*
X-60450*
X-60780Y15510*
X-60990Y15240*
X-61070Y14710*
X-60990Y14180*
X-60740Y13840*
X-60450Y13640*
X-59410*
X-60450D02*
G01X-61070Y11710D01*
X-64240D02*
G01Y15710D01*
X-62700Y12840*
X-64780*
X-67240Y15710D02*
G01X-66910Y15580D01*
X-66660Y15240*
X-66490Y14840*
X-66360Y14310*
X-66320Y13710*
X-66360Y13110*
X-66490Y12580*
X-66660Y12180*
X-66910Y11840*
X-67240Y11710*
X-67570Y11840*
X-67820Y12180*
X-67990Y12580*
X-68120Y13110*
X-68160Y13710*
X-68120Y14310*
X-67990Y14840*
X-67820Y15240*
X-67570Y15580*
X-67240Y15710*
X-73850Y19710D02*
G01Y23710D01*
X-74890*
X-75220Y23510*
X-75430Y23240*
X-75510Y22710*
X-75430Y22180*
X-75180Y21840*
X-74890Y21640*
X-73850*
X-74890D02*
G01X-75510Y19710D01*
X-77260Y20510D02*
G01X-77510Y20040D01*
X-77850Y19780*
X-78220Y19710*
X-78560Y19780*
X-78890Y20110*
X-79100Y20510*
X-79140Y20910*
X-79060Y21380*
X-78760Y21710*
X-78470Y21840*
X-78100*
X-78470D02*
G01X-78720Y22040D01*
X-78930Y22380*
X-79010Y22780*
X-78930Y23180*
X-78720Y23510*
X-78350Y23710*
X-77970Y23640*
X-77600Y23380*
X-80890Y21380D02*
G01X-81180Y21840D01*
X-81430Y22110*
X-81760Y22240*
X-82060Y22110*
X-82260Y21840*
X-82430Y21440*
X-82470Y20980*
X-82430Y20580*
X-82260Y20180*
X-82010Y19840*
X-81720Y19710*
X-81390Y19840*
X-81100Y20240*
X-80930Y20840*
X-80890Y21510*
X-80970Y22380*
X-81100Y22840*
X-81300Y23310*
X-81600Y23640*
X-81890Y23710*
X-82180Y23580*
X-82390Y23240*
X-66320Y35840D02*
G01X-66070Y36040D01*
X-65780Y36170*
X-65440*
X-65070Y35970*
X-64780Y35640*
X-64570Y35240*
X-64400Y34570*
X-64360Y33970*
X-64440Y33370*
X-64570Y32970*
X-64820Y32570*
X-65110Y32300*
X-65400Y32170*
X-65690*
X-65980Y32300*
X-66230Y32500*
X-66440Y32770*
X-67980D02*
G01X-68230Y32440D01*
X-68520Y32240*
X-68900Y32170*
X-69280Y32300*
X-69570Y32570*
X-69780Y33040*
X-69820Y33570*
X-69730Y34100*
X-69520Y34440*
X-69230Y34700*
X-68940Y34770*
X-68650Y34700*
X-68280Y34440*
X-68400Y36170*
X-69520*
X-71480Y32970D02*
G01X-71730Y32500D01*
X-72070Y32240*
X-72440Y32170*
X-72780Y32240*
X-73110Y32570*
X-73320Y32970*
X-73360Y33370*
X-73280Y33840*
X-72980Y34170*
X-72690Y34300*
X-72320*
X-72690D02*
G01X-72940Y34500D01*
X-73150Y34840*
X-73230Y35240*
X-73150Y35640*
X-72940Y35970*
X-72570Y36170*
X-72190Y36100*
X-71820Y35840*
X-67360Y41380D02*
G01X-67110Y41580D01*
X-66820Y41710*
X-66480*
X-66110Y41510*
X-65820Y41180*
X-65610Y40780*
X-65440Y40110*
X-65400Y39510*
X-65480Y38910*
X-65610Y38510*
X-65860Y38110*
X-66150Y37840*
X-66440Y37710*
X-66730*
X-67020Y37840*
X-67270Y38040*
X-67480Y38310*
X-69150Y39380D02*
G01X-69440Y39840D01*
X-69690Y40110*
X-70020Y40240*
X-70320Y40110*
X-70520Y39840*
X-70690Y39440*
X-70730Y38980*
X-70690Y38580*
X-70520Y38180*
X-70270Y37840*
X-69980Y37710*
X-69650Y37840*
X-69360Y38240*
X-69190Y38840*
X-69150Y39510*
X-69230Y40380*
X-69360Y40840*
X-69560Y41310*
X-69860Y41640*
X-70150Y41710*
X-70440Y41580*
X-70650Y41240*
X-72520Y38510D02*
G01X-72770Y38040D01*
X-73110Y37780*
X-73480Y37710*
X-73820Y37780*
X-74150Y38110*
X-74360Y38510*
X-74400Y38910*
X-74320Y39380*
X-74020Y39710*
X-73730Y39840*
X-73360*
X-73730D02*
G01X-73980Y40040D01*
X-74190Y40380*
X-74270Y40780*
X-74190Y41180*
X-73980Y41510*
X-73610Y41710*
X-73230Y41640*
X-72860Y41380*
X-71650Y51130D02*
G01X-71400Y51330D01*
X-71110Y51460*
X-70770*
X-70400Y51260*
X-70110Y50930*
X-69900Y50530*
X-69730Y49860*
X-69690Y49260*
X-69770Y48660*
X-69900Y48260*
X-70150Y47860*
X-70440Y47590*
X-70730Y47460*
X-71020*
X-71310Y47590*
X-71560Y47790*
X-71770Y48060*
X-73310D02*
G01X-73560Y47730D01*
X-73850Y47530*
X-74230Y47460*
X-74610Y47590*
X-74900Y47860*
X-75110Y48330*
X-75150Y48860*
X-75060Y49390*
X-74850Y49730*
X-74560Y49990*
X-74270Y50060*
X-73980Y49990*
X-73610Y49730*
X-73730Y51460*
X-74850*
X-76940Y49130D02*
G01X-77230Y49590D01*
X-77480Y49860*
X-77810Y49990*
X-78110Y49860*
X-78310Y49590*
X-78480Y49190*
X-78520Y48730*
X-78480Y48330*
X-78310Y47930*
X-78060Y47590*
X-77770Y47460*
X-77440Y47590*
X-77150Y47990*
X-76980Y48590*
X-76940Y49260*
X-77020Y50130*
X-77150Y50590*
X-77350Y51060*
X-77650Y51390*
X-77940Y51460*
X-78230Y51330*
X-78440Y50990*
X-75550Y70590D02*
G01Y66590D01*
X-77210*
X-79880D02*
G01Y70590D01*
X-79380Y69790*
Y66590D02*
G01X-80380D01*
X-83380Y70590D02*
G01X-83050Y70460D01*
X-82800Y70120*
X-82630Y69720*
X-82500Y69190*
X-82460Y68590*
X-82500Y67990*
X-82630Y67460*
X-82800Y67060*
X-83050Y66720*
X-83380Y66590*
X-83710Y66720*
X-83960Y67060*
X-84130Y67460*
X-84260Y67990*
X-84300Y68590*
X-84260Y69190*
X-84130Y69720*
X-83960Y70120*
X-83710Y70460*
X-83380Y70590*
X-70140Y96780D02*
G01X-69890Y96980D01*
X-69600Y97110*
X-69260*
X-68890Y96910*
X-68600Y96580*
X-68390Y96180*
X-68220Y95510*
X-68180Y94910*
X-68260Y94310*
X-68390Y93910*
X-68640Y93510*
X-68930Y93240*
X-69220Y93110*
X-69510*
X-69800Y93240*
X-70050Y93440*
X-70260Y93710*
X-72640Y93110D02*
G01X-72720Y93980D01*
X-72850Y94710*
X-73010Y95380*
X-73220Y96110*
X-73550Y97110*
X-71890*
X-76220Y93110D02*
G01Y97110D01*
X-75720Y96310*
Y93110D02*
G01X-76720D01*
X-75700Y118060D02*
G01X-75450Y118260D01*
X-75160Y118390*
X-74820*
X-74450Y118190*
X-74160Y117860*
X-73950Y117460*
X-73780Y116790*
X-73740Y116190*
X-73820Y115590*
X-73950Y115190*
X-74200Y114790*
X-74490Y114520*
X-74780Y114390*
X-75070*
X-75360Y114520*
X-75610Y114720*
X-75820Y114990*
X-77490Y116060D02*
G01X-77780Y116520D01*
X-78030Y116790*
X-78360Y116920*
X-78660Y116790*
X-78860Y116520*
X-79030Y116120*
X-79070Y115660*
X-79030Y115260*
X-78860Y114860*
X-78610Y114520*
X-78320Y114390*
X-77990Y114520*
X-77700Y114920*
X-77530Y115520*
X-77490Y116190*
X-77570Y117060*
X-77700Y117520*
X-77900Y117990*
X-78200Y118320*
X-78490Y118390*
X-78780Y118260*
X-78990Y117920*
X-81780Y114390D02*
G01X-82070Y114460D01*
X-82400Y114660*
X-82610Y114990*
X-82700Y115460*
X-82610Y115920*
X-82360Y116320*
X-81990Y116520*
X-81570*
X-81320Y116660*
X-81110Y116990*
X-81030Y117460*
X-81160Y117920*
X-81450Y118260*
X-81780Y118390*
X-82110Y118260*
X-82400Y117920*
X-82530Y117460*
X-82450Y116990*
X-82240Y116660*
X-81990Y116520*
X-81570*
X-81200Y116320*
X-80950Y115920*
X-80860Y115460*
X-80950Y114990*
X-81160Y114660*
X-81490Y114460*
X-81780Y114390*
X-70990Y153570D02*
G01X-70740Y153770D01*
X-70450Y153900*
X-70110*
X-69740Y153700*
X-69450Y153370*
X-69240Y152970*
X-69070Y152300*
X-69030Y151700*
X-69110Y151100*
X-69240Y150700*
X-69490Y150300*
X-69780Y150030*
X-70070Y149900*
X-70360*
X-70650Y150030*
X-70900Y150230*
X-71110Y150500*
X-72780Y151570D02*
G01X-73070Y152030D01*
X-73320Y152300*
X-73650Y152430*
X-73950Y152300*
X-74150Y152030*
X-74320Y151630*
X-74360Y151170*
X-74320Y150770*
X-74150Y150370*
X-73900Y150030*
X-73610Y149900*
X-73280Y150030*
X-72990Y150430*
X-72820Y151030*
X-72780Y151700*
X-72860Y152570*
X-72990Y153030*
X-73190Y153500*
X-73490Y153830*
X-73780Y153900*
X-74070Y153770*
X-74280Y153430*
X-76280Y151570D02*
G01X-76570Y152030D01*
X-76820Y152300*
X-77150Y152430*
X-77450Y152300*
X-77650Y152030*
X-77820Y151630*
X-77860Y151170*
X-77820Y150770*
X-77650Y150370*
X-77400Y150030*
X-77110Y149900*
X-76780Y150030*
X-76490Y150430*
X-76320Y151030*
X-76280Y151700*
X-76360Y152570*
X-76490Y153030*
X-76690Y153500*
X-76990Y153830*
X-77280Y153900*
X-77570Y153770*
X-77780Y153430*
X-68600Y164090D02*
G01Y168090D01*
X-69640*
X-69970Y167890*
X-70180Y167620*
X-70260Y167090*
X-70180Y166560*
X-69930Y166220*
X-69640Y166020*
X-68600*
X-69640D02*
G01X-70260Y164090D01*
X-72140Y167420D02*
G01X-72390Y167820D01*
X-72680Y168020*
X-73010Y168090*
X-73430Y167960*
X-73720Y167620*
X-73810Y167220*
X-73760Y166820*
X-73600Y166490*
X-72760Y165820*
X-72390Y165360*
X-72140Y164690*
X-72050Y164090*
X-73810*
X-76430D02*
G01X-76720Y164160D01*
X-77050Y164360*
X-77260Y164690*
X-77350Y165160*
X-77260Y165620*
X-77010Y166020*
X-76640Y166220*
X-76220*
X-75970Y166360*
X-75760Y166690*
X-75680Y167160*
X-75810Y167620*
X-76100Y167960*
X-76430Y168090*
X-76760Y167960*
X-77050Y167620*
X-77180Y167160*
X-77100Y166690*
X-76890Y166360*
X-76640Y166220*
X-76220*
X-75850Y166020*
X-75600Y165620*
X-75510Y165160*
X-75600Y164690*
X-75810Y164360*
X-76140Y164160*
X-76430Y164090*
X-79930D02*
G01X-80220Y164160D01*
X-80550Y164360*
X-80760Y164690*
X-80850Y165160*
X-80760Y165620*
X-80510Y166020*
X-80140Y166220*
X-79720*
X-79470Y166360*
X-79260Y166690*
X-79180Y167160*
X-79310Y167620*
X-79600Y167960*
X-79930Y168090*
X-80260Y167960*
X-80550Y167620*
X-80680Y167160*
X-80600Y166690*
X-80390Y166360*
X-80140Y166220*
X-79720*
X-79350Y166020*
X-79100Y165620*
X-79010Y165160*
X-79100Y164690*
X-79310Y164360*
X-79640Y164160*
X-79930Y164090*
X-60020Y-50880D02*
G01X-59770Y-50680D01*
X-59480Y-50550*
X-59140*
X-58770Y-50750*
X-58480Y-51080*
X-58270Y-51480*
X-58100Y-52150*
X-58060Y-52750*
X-58140Y-53350*
X-58270Y-53750*
X-58520Y-54150*
X-58810Y-54420*
X-59100Y-54550*
X-59390*
X-59680Y-54420*
X-59930Y-54220*
X-60140Y-53950*
X-61680Y-53750D02*
G01X-61930Y-54220D01*
X-62270Y-54480*
X-62640Y-54550*
X-62980Y-54480*
X-63310Y-54150*
X-63520Y-53750*
X-63560Y-53350*
X-63480Y-52880*
X-63180Y-52550*
X-62890Y-52420*
X-62520*
X-62890D02*
G01X-63140Y-52220D01*
X-63350Y-51880*
X-63430Y-51480*
X-63350Y-51080*
X-63140Y-50750*
X-62770Y-50550*
X-62390Y-50620*
X-62020Y-50880*
X-65310Y-51220D02*
G01X-65560Y-50820D01*
X-65850Y-50620*
X-66180Y-50550*
X-66600Y-50680*
X-66890Y-51020*
X-66980Y-51420*
X-66930Y-51820*
X-66770Y-52150*
X-65930Y-52820*
X-65560Y-53280*
X-65310Y-53950*
X-65220Y-54550*
X-66980*
X-57690Y-39440D02*
G01X-61690D01*
Y-40480*
X-61490Y-40810*
X-61220Y-41020*
X-60690Y-41100*
X-60160Y-41020*
X-59820Y-40770*
X-59620Y-40480*
Y-39440*
Y-40480D02*
G01X-57690Y-41100D01*
X-58490Y-42850D02*
G01X-58020Y-43100D01*
X-57760Y-43440*
X-57690Y-43810*
X-57760Y-44150*
X-58090Y-44480*
X-58490Y-44690*
X-58890Y-44730*
X-59360Y-44650*
X-59690Y-44350*
X-59820Y-44060*
Y-43690*
Y-44060D02*
G01X-60020Y-44310D01*
X-60360Y-44520*
X-60760Y-44600*
X-61160Y-44520*
X-61490Y-44310*
X-61690Y-43940*
X-61620Y-43560*
X-61360Y-43190*
X-57690Y-47270D02*
G01X-61690D01*
X-60890Y-46770*
X-57690D02*
G01Y-47770D01*
X-60660Y-3860D02*
G01X-64660D01*
Y-4900*
X-64460Y-5230*
X-64190Y-5440*
X-63660Y-5520*
X-63130Y-5440*
X-62790Y-5190*
X-62590Y-4900*
Y-3860*
Y-4900D02*
G01X-60660Y-5520D01*
X-61460Y-7270D02*
G01X-60990Y-7520D01*
X-60730Y-7860*
X-60660Y-8230*
X-60730Y-8570*
X-61060Y-8900*
X-61460Y-9110*
X-61860Y-9150*
X-62330Y-9070*
X-62660Y-8770*
X-62790Y-8480*
Y-8110*
Y-8480D02*
G01X-62990Y-8730D01*
X-63330Y-8940*
X-63730Y-9020*
X-64130Y-8940*
X-64460Y-8730*
X-64660Y-8360*
X-64590Y-7980*
X-64330Y-7610*
X-60660Y-11610D02*
G01X-61530Y-11690D01*
X-62260Y-11820*
X-62930Y-11980*
X-63660Y-12190*
X-64660Y-12520*
Y-10860*
X-48360Y27790D02*
G01X-48110Y27990D01*
X-47820Y28120*
X-47480*
X-47110Y27920*
X-46820Y27590*
X-46610Y27190*
X-46440Y26520*
X-46400Y25920*
X-46480Y25320*
X-46610Y24920*
X-46860Y24520*
X-47150Y24250*
X-47440Y24120*
X-47730*
X-48020Y24250*
X-48270Y24450*
X-48480Y24720*
X-50020D02*
G01X-50270Y24390D01*
X-50560Y24190*
X-50940Y24120*
X-51320Y24250*
X-51610Y24520*
X-51820Y24990*
X-51860Y25520*
X-51770Y26050*
X-51560Y26390*
X-51270Y26650*
X-50980Y26720*
X-50690Y26650*
X-50320Y26390*
X-50440Y28120*
X-51560*
X-53730Y24590D02*
G01X-54020Y24250D01*
X-54360Y24120*
X-54690Y24250*
X-54980Y24650*
X-55190Y25250*
X-55270Y25850*
Y26590*
X-55190Y27190*
X-54980Y27720*
X-54730Y27990*
X-54440Y28120*
X-54110Y27990*
X-53860Y27720*
X-53690Y27320*
X-53610Y26790*
X-53690Y26320*
X-53900Y25850*
X-54150Y25590*
X-54440Y25520*
X-54770Y25650*
X-55020Y25990*
X-55270Y26590*
X-50890Y77530D02*
G01X-50640Y77730D01*
X-50350Y77860*
X-50010*
X-49640Y77660*
X-49350Y77330*
X-49140Y76930*
X-48970Y76260*
X-48930Y75660*
X-49010Y75060*
X-49140Y74660*
X-49390Y74260*
X-49680Y73990*
X-49970Y73860*
X-50260*
X-50550Y73990*
X-50800Y74190*
X-51010Y74460*
X-52680Y75530D02*
G01X-52970Y75990D01*
X-53220Y76260*
X-53550Y76390*
X-53850Y76260*
X-54050Y75990*
X-54220Y75590*
X-54260Y75130*
X-54220Y74730*
X-54050Y74330*
X-53800Y73990*
X-53510Y73860*
X-53180Y73990*
X-52890Y74390*
X-52720Y74990*
X-52680Y75660*
X-52760Y76530*
X-52890Y76990*
X-53090Y77460*
X-53390Y77790*
X-53680Y77860*
X-53970Y77730*
X-54180Y77390*
X-56260Y74330D02*
G01X-56550Y73990D01*
X-56890Y73860*
X-57220Y73990*
X-57510Y74390*
X-57720Y74990*
X-57800Y75590*
Y76330*
X-57720Y76930*
X-57510Y77460*
X-57260Y77730*
X-56970Y77860*
X-56640Y77730*
X-56390Y77460*
X-56220Y77060*
X-56140Y76530*
X-56220Y76060*
X-56430Y75590*
X-56680Y75330*
X-56970Y75260*
X-57300Y75390*
X-57550Y75730*
X-57800Y76330*
X-52630Y70250D02*
G01X-52380Y70450D01*
X-52090Y70580*
X-51750*
X-51380Y70380*
X-51090Y70050*
X-50880Y69650*
X-50710Y68980*
X-50670Y68380*
X-50750Y67780*
X-50880Y67380*
X-51130Y66980*
X-51420Y66710*
X-51710Y66580*
X-52000*
X-52290Y66710*
X-52540Y66910*
X-52750Y67180*
X-54290D02*
G01X-54540Y66850D01*
X-54830Y66650*
X-55210Y66580*
X-55590Y66710*
X-55880Y66980*
X-56090Y67450*
X-56130Y67980*
X-56040Y68510*
X-55830Y68850*
X-55540Y69110*
X-55250Y69180*
X-54960Y69110*
X-54590Y68850*
X-54710Y70580*
X-55830*
X-58630Y66580D02*
G01X-58710Y67450D01*
X-58840Y68180*
X-59000Y68850*
X-59210Y69580*
X-59540Y70580*
X-57880*
X-55790Y114650D02*
G01X-51790D01*
Y112990*
Y110320D02*
G01X-55790D01*
X-54990Y110820*
X-51790D02*
G01Y109820D01*
X-55120Y107610D02*
G01X-55520Y107360D01*
X-55720Y107070*
X-55790Y106740*
X-55660Y106320*
X-55320Y106030*
X-54920Y105940*
X-54520Y105990*
X-54190Y106150*
X-53520Y106990*
X-53060Y107360*
X-52390Y107610*
X-51790Y107700*
Y105940*
X-45850Y162900D02*
G01Y166900D01*
X-46890*
X-47220Y166700*
X-47430Y166430*
X-47510Y165900*
X-47430Y165370*
X-47180Y165030*
X-46890Y164830*
X-45850*
X-46890D02*
G01X-47510Y162900D01*
X-49390Y166230D02*
G01X-49640Y166630D01*
X-49930Y166830*
X-50260Y166900*
X-50680Y166770*
X-50970Y166430*
X-51060Y166030*
X-51010Y165630*
X-50850Y165300*
X-50010Y164630*
X-49640Y164170*
X-49390Y163500*
X-49300Y162900*
X-51060*
X-53680D02*
G01X-53970Y162970D01*
X-54300Y163170*
X-54510Y163500*
X-54600Y163970*
X-54510Y164430*
X-54260Y164830*
X-53890Y165030*
X-53470*
X-53220Y165170*
X-53010Y165500*
X-52930Y165970*
X-53060Y166430*
X-53350Y166770*
X-53680Y166900*
X-54010Y166770*
X-54300Y166430*
X-54430Y165970*
X-54350Y165500*
X-54140Y165170*
X-53890Y165030*
X-53470*
X-53100Y164830*
X-52850Y164430*
X-52760Y163970*
X-52850Y163500*
X-53060Y163170*
X-53390Y162970*
X-53680Y162900*
X-57100D02*
G01X-57180Y163770D01*
X-57310Y164500*
X-57470Y165170*
X-57680Y165900*
X-58010Y166900*
X-56350*
X-52850Y183320D02*
G01Y187320D01*
X-53890*
X-54220Y187120*
X-54430Y186850*
X-54510Y186320*
X-54430Y185790*
X-54180Y185450*
X-53890Y185250*
X-52850*
X-53890D02*
G01X-54510Y183320D01*
X-57180D02*
G01Y187320D01*
X-56680Y186520*
Y183320D02*
G01X-57680D01*
X-61180D02*
G01Y187320D01*
X-59640Y184450*
X-61720*
X-63390Y186650D02*
G01X-63640Y187050D01*
X-63930Y187250*
X-64260Y187320*
X-64680Y187190*
X-64970Y186850*
X-65060Y186450*
X-65010Y186050*
X-64850Y185720*
X-64010Y185050*
X-63640Y184590*
X-63390Y183920*
X-63300Y183320*
X-65060*
X-25990Y-96300D02*
G01Y-92300D01*
X-27030*
X-27360Y-92500*
X-27570Y-92770*
X-27650Y-93300*
X-27570Y-93830*
X-27320Y-94170*
X-27030Y-94370*
X-25990*
X-27030D02*
G01X-27650Y-96300D01*
X-30320D02*
G01Y-92300D01*
X-29820Y-93100*
Y-96300D02*
G01X-30820D01*
X-34320D02*
G01Y-92300D01*
X-32780Y-95170*
X-34860*
X-37820Y-96300D02*
G01Y-92300D01*
X-36280Y-95170*
X-38360*
X-43830Y-78690D02*
G01X-43500Y-78620D01*
X-43210Y-78360*
X-42950Y-77960*
X-42790Y-77490*
X-42700Y-76960*
Y-76420*
X-42790Y-75890*
X-42950Y-75420*
X-43210Y-75020*
X-43500Y-74760*
X-43830Y-74690*
X-44160Y-74760*
X-44450Y-75020*
X-44710Y-75420*
X-44870Y-75890*
X-44960Y-76420*
Y-76960*
X-44870Y-77490*
X-44710Y-77960*
X-44450Y-78360*
X-44160Y-78620*
X-43830Y-78690*
X-44160Y-77620D02*
G01X-44660Y-78690D01*
X-46410Y-77890D02*
G01X-46660Y-78360D01*
X-47000Y-78620*
X-47370Y-78690*
X-47710Y-78620*
X-48040Y-78290*
X-48250Y-77890*
X-48290Y-77490*
X-48210Y-77020*
X-47910Y-76690*
X-47620Y-76560*
X-47250*
X-47620D02*
G01X-47870Y-76360D01*
X-48080Y-76020*
X-48160Y-75620*
X-48080Y-75220*
X-47870Y-74890*
X-47500Y-74690*
X-47120Y-74760*
X-46750Y-75020*
X-26120Y-56340D02*
G01X-25870Y-56140D01*
X-25580Y-56010*
X-25240*
X-24870Y-56210*
X-24580Y-56540*
X-24370Y-56940*
X-24200Y-57610*
X-24160Y-58210*
X-24240Y-58810*
X-24370Y-59210*
X-24620Y-59610*
X-24910Y-59880*
X-25200Y-60010*
X-25490*
X-25780Y-59880*
X-26030Y-59680*
X-26240Y-59410*
X-27780Y-59210D02*
G01X-28030Y-59680D01*
X-28370Y-59940*
X-28740Y-60010*
X-29080Y-59940*
X-29410Y-59610*
X-29620Y-59210*
X-29660Y-58810*
X-29580Y-58340*
X-29280Y-58010*
X-28990Y-57880*
X-28620*
X-28990D02*
G01X-29240Y-57680D01*
X-29450Y-57340*
X-29530Y-56940*
X-29450Y-56540*
X-29240Y-56210*
X-28870Y-56010*
X-28490Y-56080*
X-28120Y-56340*
X-32200Y-60010D02*
G01Y-56010D01*
X-31700Y-56810*
Y-60010D02*
G01X-32700D01*
X-39790Y-42880D02*
G01X-43790D01*
Y-43920*
X-43590Y-44250*
X-43320Y-44460*
X-42790Y-44540*
X-42260Y-44460*
X-41920Y-44210*
X-41720Y-43920*
Y-42880*
Y-43920D02*
G01X-39790Y-44540D01*
X-40590Y-46290D02*
G01X-40120Y-46540D01*
X-39860Y-46880*
X-39790Y-47250*
X-39860Y-47590*
X-40190Y-47920*
X-40590Y-48130*
X-40990Y-48170*
X-41460Y-48090*
X-41790Y-47790*
X-41920Y-47500*
Y-47130*
Y-47500D02*
G01X-42120Y-47750D01*
X-42460Y-47960*
X-42860Y-48040*
X-43260Y-47960*
X-43590Y-47750*
X-43790Y-47380*
X-43720Y-47000*
X-43460Y-46630*
X-43790Y-50710D02*
G01X-43660Y-50380D01*
X-43320Y-50130*
X-42920Y-49960*
X-42390Y-49830*
X-41790Y-49790*
X-41190Y-49830*
X-40660Y-49960*
X-40260Y-50130*
X-39920Y-50380*
X-39790Y-50710*
X-39920Y-51040*
X-40260Y-51290*
X-40660Y-51460*
X-41190Y-51590*
X-41790Y-51630*
X-42390Y-51590*
X-42920Y-51460*
X-43320Y-51290*
X-43660Y-51040*
X-43790Y-50710*
X-28050Y-10390D02*
G01X-27800Y-10190D01*
X-27510Y-10060*
X-27170*
X-26800Y-10260*
X-26510Y-10590*
X-26300Y-10990*
X-26130Y-11660*
X-26090Y-12260*
X-26170Y-12860*
X-26300Y-13260*
X-26550Y-13660*
X-26840Y-13930*
X-27130Y-14060*
X-27420*
X-27710Y-13930*
X-27960Y-13730*
X-28170Y-13460*
X-29710Y-13260D02*
G01X-29960Y-13730D01*
X-30300Y-13990*
X-30670Y-14060*
X-31010Y-13990*
X-31340Y-13660*
X-31550Y-13260*
X-31590Y-12860*
X-31510Y-12390*
X-31210Y-12060*
X-30920Y-11930*
X-30550*
X-30920D02*
G01X-31170Y-11730D01*
X-31380Y-11390*
X-31460Y-10990*
X-31380Y-10590*
X-31170Y-10260*
X-30800Y-10060*
X-30420Y-10130*
X-30050Y-10390*
X-33340Y-12390D02*
G01X-33630Y-11930D01*
X-33880Y-11660*
X-34210Y-11530*
X-34510Y-11660*
X-34710Y-11930*
X-34880Y-12330*
X-34920Y-12790*
X-34880Y-13190*
X-34710Y-13590*
X-34460Y-13930*
X-34170Y-14060*
X-33840Y-13930*
X-33550Y-13530*
X-33380Y-12930*
X-33340Y-12260*
X-33420Y-11390*
X-33550Y-10930*
X-33750Y-10460*
X-34050Y-10130*
X-34340Y-10060*
X-34630Y-10190*
X-34840Y-10530*
X-28670Y-16890D02*
G01X-28420Y-16690D01*
X-28130Y-16560*
X-27790*
X-27420Y-16760*
X-27130Y-17090*
X-26920Y-17490*
X-26750Y-18160*
X-26710Y-18760*
X-26790Y-19360*
X-26920Y-19760*
X-27170Y-20160*
X-27460Y-20430*
X-27750Y-20560*
X-28040*
X-28330Y-20430*
X-28580Y-20230*
X-28790Y-19960*
X-30330Y-19760D02*
G01X-30580Y-20230D01*
X-30920Y-20490*
X-31290Y-20560*
X-31630Y-20490*
X-31960Y-20160*
X-32170Y-19760*
X-32210Y-19360*
X-32130Y-18890*
X-31830Y-18560*
X-31540Y-18430*
X-31170*
X-31540D02*
G01X-31790Y-18230D01*
X-32000Y-17890*
X-32080Y-17490*
X-32000Y-17090*
X-31790Y-16760*
X-31420Y-16560*
X-31040Y-16630*
X-30670Y-16890*
X-33830Y-19960D02*
G01X-34080Y-20290D01*
X-34370Y-20490*
X-34750Y-20560*
X-35130Y-20430*
X-35420Y-20160*
X-35630Y-19690*
X-35670Y-19160*
X-35580Y-18630*
X-35370Y-18290*
X-35080Y-18030*
X-34790Y-17960*
X-34500Y-18030*
X-34130Y-18290*
X-34250Y-16560*
X-35370*
X-34780Y4630D02*
G01X-34980Y4880D01*
X-35110Y5170*
Y5510*
X-34910Y5880*
X-34580Y6170*
X-34180Y6380*
X-33510Y6550*
X-32910Y6590*
X-32310Y6510*
X-31910Y6380*
X-31510Y6130*
X-31240Y5840*
X-31110Y5550*
Y5260*
X-31240Y4970*
X-31440Y4720*
X-31710Y4510*
Y2970D02*
G01X-31380Y2720D01*
X-31180Y2430*
X-31110Y2050*
X-31240Y1670*
X-31510Y1380*
X-31980Y1170*
X-32510Y1130*
X-33040Y1220*
X-33380Y1430*
X-33640Y1720*
X-33710Y2010*
X-33640Y2300*
X-33380Y2670*
X-35110Y2550*
Y1430*
X-31110Y-1450D02*
G01X-31180Y-1740D01*
X-31380Y-2070*
X-31710Y-2280*
X-32180Y-2370*
X-32640Y-2280*
X-33040Y-2030*
X-33240Y-1660*
Y-1240*
X-33380Y-990*
X-33710Y-780*
X-34180Y-700*
X-34640Y-830*
X-34980Y-1120*
X-35110Y-1450*
X-34980Y-1780*
X-34640Y-2070*
X-34180Y-2200*
X-33710Y-2120*
X-33380Y-1910*
X-33240Y-1660*
Y-1240*
X-33040Y-870*
X-32640Y-620*
X-32180Y-530*
X-31710Y-620*
X-31380Y-830*
X-31180Y-1160*
X-31110Y-1450*
X-37550Y52570D02*
G01X-37300Y52770D01*
X-37010Y52900*
X-36670*
X-36300Y52700*
X-36010Y52370*
X-35800Y51970*
X-35630Y51300*
X-35590Y50700*
X-35670Y50100*
X-35800Y49700*
X-36050Y49300*
X-36340Y49030*
X-36630Y48900*
X-36920*
X-37210Y49030*
X-37460Y49230*
X-37670Y49500*
X-40630Y48900D02*
G01Y52900D01*
X-39090Y50030*
X-41170*
X-43550Y48900D02*
G01X-43630Y49770D01*
X-43760Y50500*
X-43920Y51170*
X-44130Y51900*
X-44460Y52900*
X-42800*
X-39770Y89490D02*
G01X-39520Y89690D01*
X-39230Y89820*
X-38890*
X-38520Y89620*
X-38230Y89290*
X-38020Y88890*
X-37850Y88220*
X-37810Y87620*
X-37890Y87020*
X-38020Y86620*
X-38270Y86220*
X-38560Y85950*
X-38850Y85820*
X-39140*
X-39430Y85950*
X-39680Y86150*
X-39890Y86420*
X-41430Y86620D02*
G01X-41680Y86150D01*
X-42020Y85890*
X-42390Y85820*
X-42730Y85890*
X-43060Y86220*
X-43270Y86620*
X-43310Y87020*
X-43230Y87490*
X-42930Y87820*
X-42640Y87950*
X-42270*
X-42640D02*
G01X-42890Y88150D01*
X-43100Y88490*
X-43180Y88890*
X-43100Y89290*
X-42890Y89620*
X-42520Y89820*
X-42140Y89750*
X-41770Y89490*
X-45140Y86290D02*
G01X-45430Y85950D01*
X-45770Y85820*
X-46100Y85950*
X-46390Y86350*
X-46600Y86950*
X-46680Y87550*
Y88290*
X-46600Y88890*
X-46390Y89420*
X-46140Y89690*
X-45850Y89820*
X-45520Y89690*
X-45270Y89420*
X-45100Y89020*
X-45020Y88490*
X-45100Y88020*
X-45310Y87550*
X-45560Y87290*
X-45850Y87220*
X-46180Y87350*
X-46430Y87690*
X-46680Y88290*
X-38930Y84010D02*
G01X-38680Y84210D01*
X-38390Y84340*
X-38050*
X-37680Y84140*
X-37390Y83810*
X-37180Y83410*
X-37010Y82740*
X-36970Y82140*
X-37050Y81540*
X-37180Y81140*
X-37430Y80740*
X-37720Y80470*
X-38010Y80340*
X-38300*
X-38590Y80470*
X-38840Y80670*
X-39050Y80940*
X-40590Y81140D02*
G01X-40840Y80670D01*
X-41180Y80410*
X-41550Y80340*
X-41890Y80410*
X-42220Y80740*
X-42430Y81140*
X-42470Y81540*
X-42390Y82010*
X-42090Y82340*
X-41800Y82470*
X-41430*
X-41800D02*
G01X-42050Y82670D01*
X-42260Y83010*
X-42340Y83410*
X-42260Y83810*
X-42050Y84140*
X-41680Y84340*
X-41300Y84270*
X-40930Y84010*
X-45010Y80340D02*
G01X-45300Y80410D01*
X-45630Y80610*
X-45840Y80940*
X-45930Y81410*
X-45840Y81870*
X-45590Y82270*
X-45220Y82470*
X-44800*
X-44550Y82610*
X-44340Y82940*
X-44260Y83410*
X-44390Y83870*
X-44680Y84210*
X-45010Y84340*
X-45340Y84210*
X-45630Y83870*
X-45760Y83410*
X-45680Y82940*
X-45470Y82610*
X-45220Y82470*
X-44800*
X-44430Y82270*
X-44180Y81870*
X-44090Y81410*
X-44180Y80940*
X-44390Y80610*
X-44720Y80410*
X-45010Y80340*
X-25030Y-87750D02*
G01X-24700Y-87680D01*
X-24410Y-87420*
X-24150Y-87020*
X-23990Y-86550*
X-23900Y-86020*
Y-85480*
X-23990Y-84950*
X-24150Y-84480*
X-24410Y-84080*
X-24700Y-83820*
X-25030Y-83750*
X-25360Y-83820*
X-25650Y-84080*
X-25910Y-84480*
X-26070Y-84950*
X-26160Y-85480*
Y-86020*
X-26070Y-86550*
X-25910Y-87020*
X-25650Y-87420*
X-25360Y-87680*
X-25030Y-87750*
X-25360Y-86680D02*
G01X-25860Y-87750D01*
X-27610Y-87150D02*
G01X-27860Y-87480D01*
X-28150Y-87680*
X-28530Y-87750*
X-28910Y-87620*
X-29200Y-87350*
X-29410Y-86880*
X-29450Y-86350*
X-29360Y-85820*
X-29150Y-85480*
X-28860Y-85220*
X-28570Y-85150*
X-28280Y-85220*
X-27910Y-85480*
X-28030Y-83750*
X-29150*
X-20810Y2800D02*
G01X-24810D01*
Y1760*
X-24610Y1430*
X-24340Y1220*
X-23810Y1140*
X-23280Y1220*
X-22940Y1470*
X-22740Y1760*
Y2800*
Y1760D02*
G01X-20810Y1140D01*
X-21610Y-610D02*
G01X-21140Y-860D01*
X-20880Y-1200*
X-20810Y-1570*
X-20880Y-1910*
X-21210Y-2240*
X-21610Y-2450*
X-22010Y-2490*
X-22480Y-2410*
X-22810Y-2110*
X-22940Y-1820*
Y-1450*
Y-1820D02*
G01X-23140Y-2070D01*
X-23480Y-2280*
X-23880Y-2360*
X-24280Y-2280*
X-24610Y-2070*
X-24810Y-1700*
X-24740Y-1320*
X-24480Y-950*
X-21410Y-4110D02*
G01X-21080Y-4360D01*
X-20880Y-4650*
X-20810Y-5030*
X-20940Y-5410*
X-21210Y-5700*
X-21680Y-5910*
X-22210Y-5950*
X-22740Y-5860*
X-23080Y-5650*
X-23340Y-5360*
X-23410Y-5070*
X-23340Y-4780*
X-23080Y-4410*
X-24810Y-4530*
Y-5650*
X-21410Y25110D02*
G01X-21610Y25360D01*
X-21740Y25650*
Y25990*
X-21540Y26360*
X-21210Y26650*
X-20810Y26860*
X-20140Y27030*
X-19540Y27070*
X-18940Y26990*
X-18540Y26860*
X-18140Y26610*
X-17870Y26320*
X-17740Y26030*
Y25740*
X-17870Y25450*
X-18070Y25200*
X-18340Y24990*
X-17740Y22530D02*
G01X-21740D01*
X-20940Y23030*
X-17740D02*
G01Y22030D01*
X-18540Y19950D02*
G01X-18070Y19700D01*
X-17810Y19360*
X-17740Y18990*
X-17810Y18650*
X-18140Y18320*
X-18540Y18110*
X-18940Y18070*
X-19410Y18150*
X-19740Y18450*
X-19870Y18740*
Y19110*
Y18740D02*
G01X-20070Y18490D01*
X-20410Y18280*
X-20810Y18200*
X-21210Y18280*
X-21540Y18490*
X-21740Y18860*
X-21670Y19240*
X-21410Y19610*
X-27140Y25900D02*
G01X-27340Y26150D01*
X-27470Y26440*
Y26780*
X-27270Y27150*
X-26940Y27440*
X-26540Y27650*
X-25870Y27820*
X-25270Y27860*
X-24670Y27780*
X-24270Y27650*
X-23870Y27400*
X-23600Y27110*
X-23470Y26820*
Y26530*
X-23600Y26240*
X-23800Y25990*
X-24070Y25780*
X-25140Y24110D02*
G01X-25600Y23820D01*
X-25870Y23570*
X-26000Y23240*
X-25870Y22940*
X-25600Y22740*
X-25200Y22570*
X-24740Y22530*
X-24340Y22570*
X-23940Y22740*
X-23600Y22990*
X-23470Y23280*
X-23600Y23610*
X-24000Y23900*
X-24600Y24070*
X-25270Y24110*
X-26140Y24030*
X-26600Y23900*
X-27070Y23700*
X-27400Y23400*
X-27470Y23110*
X-27340Y22820*
X-27000Y22610*
X-26800Y20610D02*
G01X-27200Y20360D01*
X-27400Y20070*
X-27470Y19740*
X-27340Y19320*
X-27000Y19030*
X-26600Y18940*
X-26200Y18990*
X-25870Y19150*
X-25200Y19990*
X-24740Y20360*
X-24070Y20610*
X-23470Y20700*
Y18940*
X-19050Y98260D02*
G01X-18800Y98460D01*
X-18510Y98590*
X-18170*
X-17800Y98390*
X-17510Y98060*
X-17300Y97660*
X-17130Y96990*
X-17090Y96390*
X-17170Y95790*
X-17300Y95390*
X-17550Y94990*
X-17840Y94720*
X-18130Y94590*
X-18420*
X-18710Y94720*
X-18960Y94920*
X-19170Y95190*
X-21550Y94590D02*
G01X-21630Y95460D01*
X-21760Y96190*
X-21920Y96860*
X-22130Y97590*
X-22460Y98590*
X-20800*
X-25630Y94590D02*
G01Y98590D01*
X-24090Y95720*
X-26170*
X23110Y-19100D02*
G01X23360Y-18900D01*
X23650Y-18770*
X23990*
X24360Y-18970*
X24650Y-19300*
X24860Y-19700*
X25030Y-20370*
X25070Y-20970*
X24990Y-21570*
X24860Y-21970*
X24610Y-22370*
X24320Y-22640*
X24030Y-22770*
X23740*
X23450Y-22640*
X23200Y-22440*
X22990Y-22170*
X21320Y-21100D02*
G01X21030Y-20640D01*
X20780Y-20370*
X20450Y-20240*
X20150Y-20370*
X19950Y-20640*
X19780Y-21040*
X19740Y-21500*
X19780Y-21900*
X19950Y-22300*
X20200Y-22640*
X20490Y-22770*
X20820Y-22640*
X21110Y-22240*
X21280Y-21640*
X21320Y-20970*
X21240Y-20100*
X21110Y-19640*
X20910Y-19170*
X20610Y-18840*
X20320Y-18770*
X20030Y-18900*
X19820Y-19240*
X17030Y-22770D02*
G01Y-18770D01*
X17530Y-19570*
Y-22770D02*
G01X16530D01*
X23210Y-11090D02*
G01X23460Y-10890D01*
X23750Y-10760*
X24090*
X24460Y-10960*
X24750Y-11290*
X24960Y-11690*
X25130Y-12360*
X25170Y-12960*
X25090Y-13560*
X24960Y-13960*
X24710Y-14360*
X24420Y-14630*
X24130Y-14760*
X23840*
X23550Y-14630*
X23300Y-14430*
X23090Y-14160*
X21420Y-13090D02*
G01X21130Y-12630D01*
X20880Y-12360*
X20550Y-12230*
X20250Y-12360*
X20050Y-12630*
X19880Y-13030*
X19840Y-13490*
X19880Y-13890*
X20050Y-14290*
X20300Y-14630*
X20590Y-14760*
X20920Y-14630*
X21210Y-14230*
X21380Y-13630*
X21420Y-12960*
X21340Y-12090*
X21210Y-11630*
X21010Y-11160*
X20710Y-10830*
X20420Y-10760*
X20130Y-10890*
X19920Y-11230*
X17130Y-10760D02*
G01X17460Y-10890D01*
X17710Y-11230*
X17880Y-11630*
X18010Y-12160*
X18050Y-12760*
X18010Y-13360*
X17880Y-13890*
X17710Y-14290*
X17460Y-14630*
X17130Y-14760*
X16800Y-14630*
X16550Y-14290*
X16380Y-13890*
X16250Y-13360*
X16210Y-12760*
X16250Y-12160*
X16380Y-11630*
X16550Y-11230*
X16800Y-10890*
X17130Y-10760*
X5940Y22250D02*
G01X5740Y22500D01*
X5610Y22790*
Y23130*
X5810Y23500*
X6140Y23790*
X6540Y24000*
X7210Y24170*
X7810Y24210*
X8410Y24130*
X8810Y24000*
X9210Y23750*
X9480Y23460*
X9610Y23170*
Y22880*
X9480Y22590*
X9280Y22340*
X9010Y22130*
X9610Y19670D02*
G01X5610D01*
X6410Y20170*
X9610D02*
G01Y19170D01*
X6280Y16960D02*
G01X5880Y16710D01*
X5680Y16420*
X5610Y16090*
X5740Y15670*
X6080Y15380*
X6480Y15290*
X6880Y15340*
X7210Y15500*
X7880Y16340*
X8340Y16710*
X9010Y16960*
X9610Y17050*
Y15290*
X9710Y78740D02*
G01X9960Y78940D01*
X10250Y79070*
X10590*
X10960Y78870*
X11250Y78540*
X11460Y78140*
X11630Y77470*
X11670Y76870*
X11590Y76270*
X11460Y75870*
X11210Y75470*
X10920Y75200*
X10630Y75070*
X10340*
X10050Y75200*
X9800Y75400*
X9590Y75670*
X7130Y75070D02*
G01Y79070D01*
X7630Y78270*
Y75070D02*
G01X6630D01*
X3630D02*
G01X3340Y75140D01*
X3010Y75340*
X2800Y75670*
X2710Y76140*
X2800Y76600*
X3050Y77000*
X3420Y77200*
X3840*
X4090Y77340*
X4300Y77670*
X4380Y78140*
X4250Y78600*
X3960Y78940*
X3630Y79070*
X3300Y78940*
X3010Y78600*
X2880Y78140*
X2960Y77670*
X3170Y77340*
X3420Y77200*
X3840*
X4210Y77000*
X4460Y76600*
X4550Y76140*
X4460Y75670*
X4250Y75340*
X3920Y75140*
X3630Y75070*
X14470Y81710D02*
G01Y85710D01*
X13430*
X13100Y85510*
X12890Y85240*
X12810Y84710*
X12890Y84180*
X13140Y83840*
X13430Y83640*
X14470*
X13430D02*
G01X12810Y81710D01*
X10930Y85040D02*
G01X10680Y85440D01*
X10390Y85640*
X10060Y85710*
X9640Y85580*
X9350Y85240*
X9260Y84840*
X9310Y84440*
X9470Y84110*
X10310Y83440*
X10680Y82980*
X10930Y82310*
X11020Y81710*
X9260*
X6640D02*
G01Y85710D01*
X7140Y84910*
Y81710D02*
G01X6140D01*
X12560Y104090D02*
G01Y108090D01*
X11520*
X11190Y107890*
X10980Y107620*
X10900Y107090*
X10980Y106560*
X11230Y106220*
X11520Y106020*
X12560*
X11520D02*
G01X10900Y104090D01*
X8230D02*
G01Y108090D01*
X8730Y107290*
Y104090D02*
G01X7730D01*
X4230D02*
G01Y108090D01*
X5770Y105220*
X3690*
X29770Y-320D02*
G01X29570Y-70D01*
X29440Y220*
Y560*
X29640Y930*
X29970Y1220*
X30370Y1430*
X31040Y1600*
X31640Y1640*
X32240Y1560*
X32640Y1430*
X33040Y1180*
X33310Y890*
X33440Y600*
Y310*
X33310Y20*
X33110Y-230*
X32840Y-440*
X33440Y-3400D02*
G01X29440D01*
X32310Y-1860*
Y-3940*
X30110Y-5610D02*
G01X29710Y-5860D01*
X29510Y-6150*
X29440Y-6480*
X29570Y-6900*
X29910Y-7190*
X30310Y-7280*
X30710Y-7230*
X31040Y-7070*
X31710Y-6230*
X32170Y-5860*
X32840Y-5610*
X33440Y-5520*
Y-7280*
X29600Y126540D02*
G01Y130540D01*
X28560*
X28230Y130340*
X28020Y130070*
X27940Y129540*
X28020Y129010*
X28270Y128670*
X28560Y128470*
X29600*
X28560D02*
G01X27940Y126540D01*
X25270D02*
G01Y130540D01*
X25770Y129740*
Y126540D02*
G01X24770D01*
X21770D02*
G01X21480Y126610D01*
X21150Y126810*
X20940Y127140*
X20850Y127610*
X20940Y128070*
X21190Y128470*
X21560Y128670*
X21980*
X22230Y128810*
X22440Y129140*
X22520Y129610*
X22390Y130070*
X22100Y130410*
X21770Y130540*
X21440Y130410*
X21150Y130070*
X21020Y129610*
X21100Y129140*
X21310Y128810*
X21560Y128670*
X21980*
X22350Y128470*
X22600Y128070*
X22690Y127610*
X22600Y127140*
X22390Y126810*
X22060Y126610*
X21770Y126540*
X50470Y-75250D02*
G01X46470D01*
Y-76290*
X46670Y-76620*
X46940Y-76830*
X47470Y-76910*
X48000Y-76830*
X48340Y-76580*
X48540Y-76290*
Y-75250*
Y-76290D02*
G01X50470Y-76910D01*
Y-79580D02*
G01X46470D01*
X47270Y-79080*
X50470D02*
G01Y-80080D01*
X47140Y-82290D02*
G01X46740Y-82540D01*
X46540Y-82830*
X46470Y-83160*
X46600Y-83580*
X46940Y-83870*
X47340Y-83960*
X47740Y-83910*
X48070Y-83750*
X48740Y-82910*
X49200Y-82540*
X49870Y-82290*
X50470Y-82200*
Y-83960*
X49870Y-85660D02*
G01X50200Y-85910D01*
X50400Y-86200*
X50470Y-86580*
X50340Y-86960*
X50070Y-87250*
X49600Y-87460*
X49070Y-87500*
X48540Y-87410*
X48200Y-87200*
X47940Y-86910*
X47870Y-86620*
X47940Y-86330*
X48200Y-85960*
X46470Y-86080*
Y-87200*
X51420Y-52550D02*
G01X47420D01*
Y-53590*
X47620Y-53920*
X47890Y-54130*
X48420Y-54210*
X48950Y-54130*
X49290Y-53880*
X49490Y-53590*
Y-52550*
Y-53590D02*
G01X51420Y-54210D01*
Y-56880D02*
G01X47420D01*
X48220Y-56380*
X51420D02*
G01Y-57380D01*
X48090Y-59590D02*
G01X47690Y-59840D01*
X47490Y-60130*
X47420Y-60460*
X47550Y-60880*
X47890Y-61170*
X48290Y-61260*
X48690Y-61210*
X49020Y-61050*
X49690Y-60210*
X50150Y-59840*
X50820Y-59590*
X51420Y-59500*
Y-61260*
Y-64380D02*
G01X47420D01*
X50290Y-62840*
Y-64920*
X42190Y17660D02*
G01X42440Y17860D01*
X42730Y17990*
X43070*
X43440Y17790*
X43730Y17460*
X43940Y17060*
X44110Y16390*
X44150Y15790*
X44070Y15190*
X43940Y14790*
X43690Y14390*
X43400Y14120*
X43110Y13990*
X42820*
X42530Y14120*
X42280Y14320*
X42070Y14590*
X40400Y17320D02*
G01X40150Y17720D01*
X39860Y17920*
X39530Y17990*
X39110Y17860*
X38820Y17520*
X38730Y17120*
X38780Y16720*
X38940Y16390*
X39780Y15720*
X40150Y15260*
X40400Y14590*
X40490Y13990*
X38730*
X42270Y27330D02*
G01X42520Y27530D01*
X42810Y27660*
X43150*
X43520Y27460*
X43810Y27130*
X44020Y26730*
X44190Y26060*
X44230Y25460*
X44150Y24860*
X44020Y24460*
X43770Y24060*
X43480Y23790*
X43190Y23660*
X42900*
X42610Y23790*
X42360Y23990*
X42150Y24260*
X40610Y24460D02*
G01X40360Y23990D01*
X40020Y23730*
X39650Y23660*
X39310Y23730*
X38980Y24060*
X38770Y24460*
X38730Y24860*
X38810Y25330*
X39110Y25660*
X39400Y25790*
X39770*
X39400D02*
G01X39150Y25990D01*
X38940Y26330*
X38860Y26730*
X38940Y27130*
X39150Y27460*
X39520Y27660*
X39900Y27590*
X40270Y27330*
X45680Y38100D02*
G01X45930Y38300D01*
X46220Y38430*
X46560*
X46930Y38230*
X47220Y37900*
X47430Y37500*
X47600Y36830*
X47640Y36230*
X47560Y35630*
X47430Y35230*
X47180Y34830*
X46890Y34560*
X46600Y34430*
X46310*
X46020Y34560*
X45770Y34760*
X45560Y35030*
X43100Y34430D02*
G01Y38430D01*
X43600Y37630*
Y34430D02*
G01X42600D01*
X54250Y78510D02*
G01X54500Y78710D01*
X54790Y78840*
X55130*
X55500Y78640*
X55790Y78310*
X56000Y77910*
X56170Y77240*
X56210Y76640*
X56130Y76040*
X56000Y75640*
X55750Y75240*
X55460Y74970*
X55170Y74840*
X54880*
X54590Y74970*
X54340Y75170*
X54130Y75440*
X51670Y74840D02*
G01Y78840D01*
X52170Y78040*
Y74840D02*
G01X51170D01*
X49090Y75440D02*
G01X48840Y75110D01*
X48550Y74910*
X48170Y74840*
X47790Y74970*
X47500Y75240*
X47290Y75710*
X47250Y76240*
X47340Y76770*
X47550Y77110*
X47840Y77370*
X48130Y77440*
X48420Y77370*
X48790Y77110*
X48670Y78840*
X47550*
X52190Y97110D02*
G01X51990Y97360D01*
X51860Y97650*
Y97990*
X52060Y98360*
X52390Y98650*
X52790Y98860*
X53460Y99030*
X54060Y99070*
X54660Y98990*
X55060Y98860*
X55460Y98610*
X55730Y98320*
X55860Y98030*
Y97740*
X55730Y97450*
X55530Y97200*
X55260Y96990*
X52530Y95320D02*
G01X52130Y95070D01*
X51930Y94780*
X51860Y94450*
X51990Y94030*
X52330Y93740*
X52730Y93650*
X53130Y93700*
X53460Y93860*
X54130Y94700*
X54590Y95070*
X55260Y95320*
X55860Y95410*
Y93650*
X51860Y91030D02*
G01X51990Y91360D01*
X52330Y91610*
X52730Y91780*
X53260Y91910*
X53860Y91950*
X54460Y91910*
X54990Y91780*
X55390Y91610*
X55730Y91360*
X55860Y91030*
X55730Y90700*
X55390Y90450*
X54990Y90280*
X54460Y90150*
X53860Y90110*
X53260Y90150*
X52730Y90280*
X52330Y90450*
X51990Y90700*
X51860Y91030*
X55720Y81010D02*
G01Y85010D01*
X54680*
X54350Y84810*
X54140Y84540*
X54060Y84010*
X54140Y83480*
X54390Y83140*
X54680Y82940*
X55720*
X54680D02*
G01X54060Y81010D01*
X52180Y84340D02*
G01X51930Y84740D01*
X51640Y84940*
X51310Y85010*
X50890Y84880*
X50600Y84540*
X50510Y84140*
X50560Y83740*
X50720Y83410*
X51560Y82740*
X51930Y82280*
X52180Y81610*
X52270Y81010*
X50510*
X47890Y85010D02*
G01X48220Y84880D01*
X48470Y84540*
X48640Y84140*
X48770Y83610*
X48810Y83010*
X48770Y82410*
X48640Y81880*
X48470Y81480*
X48220Y81140*
X47890Y81010*
X47560Y81140*
X47310Y81480*
X47140Y81880*
X47010Y82410*
X46970Y83010*
X47010Y83610*
X47140Y84140*
X47310Y84540*
X47560Y84880*
X47890Y85010*
X77550Y-56560D02*
G01Y-52560D01*
X76510*
X76180Y-52760*
X75970Y-53030*
X75890Y-53560*
X75970Y-54090*
X76220Y-54430*
X76510Y-54630*
X77550*
X76510D02*
G01X75890Y-56560D01*
X72720D02*
G01Y-52560D01*
X74260Y-55430*
X72180*
X69800Y-56560D02*
G01X69720Y-55690D01*
X69590Y-54960*
X69430Y-54290*
X69220Y-53560*
X68890Y-52560*
X70550*
X85660Y-79130D02*
G01Y-75130D01*
X84620*
X84290Y-75330*
X84080Y-75600*
X84000Y-76130*
X84080Y-76660*
X84330Y-77000*
X84620Y-77200*
X85660*
X84620D02*
G01X84000Y-79130D01*
X80830D02*
G01Y-75130D01*
X82370Y-78000*
X80290*
X77830Y-79130D02*
G01X77540Y-79060D01*
X77210Y-78860*
X77000Y-78530*
X76910Y-78060*
X77000Y-77600*
X77250Y-77200*
X77620Y-77000*
X78040*
X78290Y-76860*
X78500Y-76530*
X78580Y-76060*
X78450Y-75600*
X78160Y-75260*
X77830Y-75130*
X77500Y-75260*
X77210Y-75600*
X77080Y-76060*
X77160Y-76530*
X77370Y-76860*
X77620Y-77000*
X78040*
X78410Y-77200*
X78660Y-77600*
X78750Y-78060*
X78660Y-78530*
X78450Y-78860*
X78120Y-79060*
X77830Y-79130*
X89570Y-32620D02*
G01X89370Y-32370D01*
X89240Y-32080*
Y-31740*
X89440Y-31370*
X89770Y-31080*
X90170Y-30870*
X90840Y-30700*
X91440Y-30660*
X92040Y-30740*
X92440Y-30870*
X92840Y-31120*
X93110Y-31410*
X93240Y-31700*
Y-31990*
X93110Y-32280*
X92910Y-32530*
X92640Y-32740*
X93240Y-35200D02*
G01X89240D01*
X90040Y-34700*
X93240D02*
G01Y-35700D01*
Y-38700D02*
G01X89240D01*
X90040Y-38200*
X93240D02*
G01Y-39200D01*
Y-42200D02*
G01X89240D01*
X90040Y-41700*
X93240D02*
G01Y-42700D01*
X104650Y-75720D02*
G01X104900Y-75520D01*
X105190Y-75390*
X105530*
X105900Y-75590*
X106190Y-75920*
X106400Y-76320*
X106570Y-76990*
X106610Y-77590*
X106530Y-78190*
X106400Y-78590*
X106150Y-78990*
X105860Y-79260*
X105570Y-79390*
X105280*
X104990Y-79260*
X104740Y-79060*
X104530Y-78790*
X102070Y-79390D02*
G01Y-75390D01*
X102570Y-76190*
Y-79390D02*
G01X101570D01*
X98570D02*
G01Y-75390D01*
X99070Y-76190*
Y-79390D02*
G01X98070D01*
X95860Y-76060D02*
G01X95610Y-75660D01*
X95320Y-75460*
X94990Y-75390*
X94570Y-75520*
X94280Y-75860*
X94190Y-76260*
X94240Y-76660*
X94400Y-76990*
X95240Y-77660*
X95610Y-78120*
X95860Y-78790*
X95950Y-79390*
X94190*
X105690Y-82900D02*
G01X101690D01*
Y-83940*
X101890Y-84270*
X102160Y-84480*
X102690Y-84560*
X103220Y-84480*
X103560Y-84230*
X103760Y-83940*
Y-82900*
Y-83940D02*
G01X105690Y-84560D01*
Y-87230D02*
G01X101690D01*
X102490Y-86730*
X105690D02*
G01Y-87730D01*
X102360Y-89940D02*
G01X101960Y-90190D01*
X101760Y-90480*
X101690Y-90810*
X101820Y-91230*
X102160Y-91520*
X102560Y-91610*
X102960Y-91560*
X103290Y-91400*
X103960Y-90560*
X104420Y-90190*
X105090Y-89940*
X105690Y-89850*
Y-91610*
Y-94150D02*
G01X104820Y-94230D01*
X104090Y-94360*
X103420Y-94520*
X102690Y-94730*
X101690Y-95060*
Y-93400*
X101490Y-42200D02*
G01X97490D01*
Y-43240*
X97690Y-43570*
X97960Y-43780*
X98490Y-43860*
X99020Y-43780*
X99360Y-43530*
X99560Y-43240*
Y-42200*
Y-43240D02*
G01X101490Y-43860D01*
Y-46530D02*
G01X97490D01*
X98290Y-46030*
X101490D02*
G01Y-47030D01*
X98160Y-49240D02*
G01X97760Y-49490D01*
X97560Y-49780*
X97490Y-50110*
X97620Y-50530*
X97960Y-50820*
X98360Y-50910*
X98760Y-50860*
X99090Y-50700*
X99760Y-49860*
X100220Y-49490*
X100890Y-49240*
X101490Y-49150*
Y-50910*
X99820Y-52740D02*
G01X99360Y-53030D01*
X99090Y-53280*
X98960Y-53610*
X99090Y-53910*
X99360Y-54110*
X99760Y-54280*
X100220Y-54320*
X100620Y-54280*
X101020Y-54110*
X101360Y-53860*
X101490Y-53570*
X101360Y-53240*
X100960Y-52950*
X100360Y-52780*
X99690Y-52740*
X98820Y-52820*
X98360Y-52950*
X97890Y-53150*
X97560Y-53450*
X97490Y-53740*
X97620Y-54030*
X97960Y-54240*
X101200Y172050D02*
G01X101000Y172300D01*
X100870Y172590*
Y172930*
X101070Y173300*
X101400Y173590*
X101800Y173800*
X102470Y173970*
X103070Y174010*
X103670Y173930*
X104070Y173800*
X104470Y173550*
X104740Y173260*
X104870Y172970*
Y172680*
X104740Y172390*
X104540Y172140*
X104270Y171930*
X104870Y168970D02*
G01X100870D01*
X103740Y170510*
Y168430*
X131470Y93900D02*
G01Y97900D01*
X130430*
X130100Y97700*
X129890Y97430*
X129810Y96900*
X129890Y96370*
X130140Y96030*
X130430Y95830*
X131470*
X130430D02*
G01X129810Y93900D01*
X127930Y97230D02*
G01X127680Y97630D01*
X127390Y97830*
X127060Y97900*
X126640Y97770*
X126350Y97430*
X126260Y97030*
X126310Y96630*
X126470Y96300*
X127310Y95630*
X127680Y95170*
X127930Y94500*
X128020Y93900*
X126260*
X123640D02*
G01X123350Y93970D01*
X123020Y94170*
X122810Y94500*
X122720Y94970*
X122810Y95430*
X123060Y95830*
X123430Y96030*
X123850*
X124100Y96170*
X124310Y96500*
X124390Y96970*
X124260Y97430*
X123970Y97770*
X123640Y97900*
X123310Y97770*
X123020Y97430*
X122890Y96970*
X122970Y96500*
X123180Y96170*
X123430Y96030*
X123850*
X124220Y95830*
X124470Y95430*
X124560Y94970*
X124470Y94500*
X124260Y94170*
X123930Y93970*
X123640Y93900*
X121060Y94500D02*
G01X120810Y94170D01*
X120520Y93970*
X120140Y93900*
X119760Y94030*
X119470Y94300*
X119260Y94770*
X119220Y95300*
X119310Y95830*
X119520Y96170*
X119810Y96430*
X120100Y96500*
X120390Y96430*
X120760Y96170*
X120640Y97900*
X119520*
X128160Y168110D02*
G01X124160D01*
Y167070*
X124360Y166740*
X124630Y166530*
X125160Y166450*
X125690Y166530*
X126030Y166780*
X126230Y167070*
Y168110*
Y167070D02*
G01X128160Y166450D01*
Y163280D02*
G01X124160D01*
X127030Y164820*
Y162740*
X115470Y170360D02*
G01X119470D01*
Y168700*
Y166030D02*
G01X115470D01*
X116270Y166530*
X119470D02*
G01Y165530D01*
X108430Y170310D02*
G01X108230Y170560D01*
X108100Y170850*
Y171190*
X108300Y171560*
X108630Y171850*
X109030Y172060*
X109700Y172230*
X110300Y172270*
X110900Y172190*
X111300Y172060*
X111700Y171810*
X111970Y171520*
X112100Y171230*
Y170940*
X111970Y170650*
X111770Y170400*
X111500Y170190*
Y168650D02*
G01X111830Y168400D01*
X112030Y168110*
X112100Y167730*
X111970Y167350*
X111700Y167060*
X111230Y166850*
X110700Y166810*
X110170Y166900*
X109830Y167110*
X109570Y167400*
X109500Y167690*
X109570Y167980*
X109830Y168350*
X108100Y168230*
Y167110*
X145660Y93200D02*
G01Y97200D01*
X144820*
X144490Y97000*
X144240Y96730*
X144030Y96330*
X143860Y95870*
X143820Y95200*
X143860Y94530*
X144030Y94070*
X144240Y93670*
X144490Y93400*
X144820Y93200*
X145660*
X140740D02*
G01Y97200D01*
X142280Y94330*
X140200*
X144770Y113540D02*
G01Y117540D01*
X143930*
X143600Y117340*
X143350Y117070*
X143140Y116670*
X142970Y116210*
X142930Y115540*
X142970Y114870*
X143140Y114410*
X143350Y114010*
X143600Y113740*
X143930Y113540*
X144770*
X141270Y114340D02*
G01X141020Y113870D01*
X140680Y113610*
X140310Y113540*
X139970Y113610*
X139640Y113940*
X139430Y114340*
X139390Y114740*
X139470Y115210*
X139770Y115540*
X140060Y115670*
X140430*
X140060D02*
G01X139810Y115870D01*
X139600Y116210*
X139520Y116610*
X139600Y117010*
X139810Y117340*
X140180Y117540*
X140560Y117470*
X140930Y117210*
X135440Y167990D02*
G01X131440D01*
Y166950*
X131640Y166620*
X131910Y166410*
X132440Y166330*
X132970Y166410*
X133310Y166660*
X133510Y166950*
Y167990*
Y166950D02*
G01X135440Y166330D01*
X134840Y164580D02*
G01X135170Y164330D01*
X135370Y164040*
X135440Y163660*
X135310Y163280*
X135040Y162990*
X134570Y162780*
X134040Y162740*
X133510Y162830*
X133170Y163040*
X132910Y163330*
X132840Y163620*
X132910Y163910*
X133170Y164280*
X131440Y164160*
Y163040*
X141790Y168180D02*
G01X137790D01*
Y167140*
X137990Y166810*
X138260Y166600*
X138790Y166520*
X139320Y166600*
X139660Y166850*
X139860Y167140*
Y168180*
Y167140D02*
G01X141790Y166520D01*
X140120Y164640D02*
G01X139660Y164350D01*
X139390Y164100*
X139260Y163770*
X139390Y163470*
X139660Y163270*
X140060Y163100*
X140520Y163060*
X140920Y163100*
X141320Y163270*
X141660Y163520*
X141790Y163810*
X141660Y164140*
X141260Y164430*
X140660Y164600*
X139990Y164640*
X139120Y164560*
X138660Y164430*
X138190Y164230*
X137860Y163930*
X137790Y163640*
X137920Y163350*
X138260Y163140*
X155070Y102710D02*
G01X154070D01*
X154610Y103580D02*
G01Y101850D01*
X155080Y109610D02*
G01X154080D01*
X154620Y110480D02*
G01Y108750D01*
X165780Y124150D02*
G01Y128150D01*
X164740*
X164410Y127950*
X164200Y127680*
X164120Y127150*
X164200Y126620*
X164450Y126280*
X164740Y126080*
X165780*
X164740D02*
G01X164120Y124150D01*
X162240Y127480D02*
G01X161990Y127880D01*
X161700Y128080*
X161370Y128150*
X160950Y128020*
X160660Y127680*
X160570Y127280*
X160620Y126880*
X160780Y126550*
X161620Y125880*
X161990Y125420*
X162240Y124750*
X162330Y124150*
X160570*
X157950D02*
G01X157660Y124220D01*
X157330Y124420*
X157120Y124750*
X157030Y125220*
X157120Y125680*
X157370Y126080*
X157740Y126280*
X158160*
X158410Y126420*
X158620Y126750*
X158700Y127220*
X158570Y127680*
X158280Y128020*
X157950Y128150*
X157620Y128020*
X157330Y127680*
X157200Y127220*
X157280Y126750*
X157490Y126420*
X157740Y126280*
X158160*
X158530Y126080*
X158780Y125680*
X158870Y125220*
X158780Y124750*
X158570Y124420*
X158240Y124220*
X157950Y124150*
X153950D02*
G01Y128150D01*
X155490Y125280*
X153410*
X148690Y168230D02*
G01X144690D01*
Y167190*
X144890Y166860*
X145160Y166650*
X145690Y166570*
X146220Y166650*
X146560Y166900*
X146760Y167190*
Y168230*
Y167190D02*
G01X148690Y166570D01*
Y163980D02*
G01X147820Y163900D01*
X147090Y163770*
X146420Y163610*
X145690Y163400*
X144690Y163070*
Y164730*
X154690Y167980D02*
G01X150690D01*
Y166940*
X150890Y166610*
X151160Y166400*
X151690Y166320*
X152220Y166400*
X152560Y166650*
X152760Y166940*
Y167980*
Y166940D02*
G01X154690Y166320D01*
Y163650D02*
G01X154620Y163360D01*
X154420Y163030*
X154090Y162820*
X153620Y162730*
X153160Y162820*
X152760Y163070*
X152560Y163440*
Y163860*
X152420Y164110*
X152090Y164320*
X151620Y164400*
X151160Y164270*
X150820Y163980*
X150690Y163650*
X150820Y163320*
X151160Y163030*
X151620Y162900*
X152090Y162980*
X152420Y163190*
X152560Y163440*
Y163860*
X152760Y164230*
X153160Y164480*
X153620Y164570*
X154090Y164480*
X154420Y164270*
X154620Y163940*
X154690Y163650*
X161370Y46600D02*
G01X161170Y46850D01*
X161040Y47140*
Y47480*
X161240Y47850*
X161570Y48140*
X161970Y48350*
X162640Y48520*
X163240Y48560*
X163840Y48480*
X164240Y48350*
X164640Y48100*
X164910Y47810*
X165040Y47520*
Y47230*
X164910Y46940*
X164710Y46690*
X164440Y46480*
X165040Y44100D02*
G01X164170Y44020D01*
X163440Y43890*
X162770Y43730*
X162040Y43520*
X161040Y43190*
Y44850*
X164890Y94620D02*
G01X164820Y94950D01*
X164560Y95240*
X164160Y95500*
X163690Y95660*
X163160Y95750*
X162620*
X162090Y95660*
X161620Y95500*
X161220Y95240*
X160960Y94950*
X160890Y94620*
X160960Y94290*
X161220Y94000*
X161620Y93740*
X162090Y93580*
X162620Y93490*
X163160*
X163690Y93580*
X164160Y93740*
X164560Y94000*
X164820Y94290*
X164890Y94620*
X163820Y94290D02*
G01X164890Y93790D01*
X161560Y91910D02*
G01X161160Y91660D01*
X160960Y91370*
X160890Y91040*
X161020Y90620*
X161360Y90330*
X161760Y90240*
X162160Y90290*
X162490Y90450*
X163160Y91290*
X163620Y91660*
X164290Y91910*
X164890Y92000*
Y90240*
X188690Y-12640D02*
G01X188490Y-12390D01*
X188360Y-12100*
Y-11760*
X188560Y-11390*
X188890Y-11100*
X189290Y-10890*
X189960Y-10720*
X190560Y-10680*
X191160Y-10760*
X191560Y-10890*
X191960Y-11140*
X192230Y-11430*
X192360Y-11720*
Y-12010*
X192230Y-12300*
X192030Y-12550*
X191760Y-12760*
X192360Y-15220D02*
G01X188360D01*
X189160Y-14720*
X192360D02*
G01Y-15720D01*
Y-19220D02*
G01X188360D01*
X191230Y-17680*
Y-19760*
X183560Y-9780D02*
G01X179560D01*
Y-10820*
X179760Y-11150*
X180030Y-11360*
X180560Y-11440*
X181090Y-11360*
X181430Y-11110*
X181630Y-10820*
Y-9780*
Y-10820D02*
G01X183560Y-11440D01*
Y-14110D02*
G01X179560D01*
X180360Y-13610*
X183560D02*
G01Y-14610D01*
X183090Y-16900D02*
G01X183430Y-17190D01*
X183560Y-17530*
X183430Y-17860*
X183030Y-18150*
X182430Y-18360*
X181830Y-18440*
X181090*
X180490Y-18360*
X179960Y-18150*
X179690Y-17900*
X179560Y-17610*
X179690Y-17280*
X179960Y-17030*
X180360Y-16860*
X180890Y-16780*
X181360Y-16860*
X181830Y-17070*
X182090Y-17320*
X182160Y-17610*
X182030Y-17940*
X181690Y-18190*
X181090Y-18440*
X181440Y99970D02*
G01X177440D01*
Y98930*
X177640Y98600*
X177910Y98390*
X178440Y98310*
X178970Y98390*
X179310Y98640*
X179510Y98930*
Y99970*
Y98930D02*
G01X181440Y98310D01*
X178110Y96430D02*
G01X177710Y96180D01*
X177510Y95890*
X177440Y95560*
X177570Y95140*
X177910Y94850*
X178310Y94760*
X178710Y94810*
X179040Y94970*
X179710Y95810*
X180170Y96180*
X180840Y96430*
X181440Y96520*
Y94760*
Y92140D02*
G01X181370Y91850D01*
X181170Y91520*
X180840Y91310*
X180370Y91220*
X179910Y91310*
X179510Y91560*
X179310Y91930*
Y92350*
X179170Y92600*
X178840Y92810*
X178370Y92890*
X177910Y92760*
X177570Y92470*
X177440Y92140*
X177570Y91810*
X177910Y91520*
X178370Y91390*
X178840Y91470*
X179170Y91680*
X179310Y91930*
Y92350*
X179510Y92720*
X179910Y92970*
X180370Y93060*
X180840Y92970*
X181170Y92760*
X181370Y92430*
X181440Y92140*
X179770Y89430D02*
G01X179310Y89140D01*
X179040Y88890*
X178910Y88560*
X179040Y88260*
X179310Y88060*
X179710Y87890*
X180170Y87850*
X180570Y87890*
X180970Y88060*
X181310Y88310*
X181440Y88600*
X181310Y88930*
X180910Y89220*
X180310Y89390*
X179640Y89430*
X178770Y89350*
X178310Y89220*
X177840Y89020*
X177510Y88720*
X177440Y88430*
X177570Y88140*
X177910Y87930*
X190160Y120770D02*
G01X189960Y121020D01*
X189830Y121310*
Y121650*
X190030Y122020*
X190360Y122310*
X190760Y122520*
X191430Y122690*
X192030Y122730*
X192630Y122650*
X193030Y122520*
X193430Y122270*
X193700Y121980*
X193830Y121690*
Y121400*
X193700Y121110*
X193500Y120860*
X193230Y120650*
X193830Y118190D02*
G01X189830D01*
X190630Y118690*
X193830D02*
G01Y117690D01*
X193030Y115610D02*
G01X193500Y115360D01*
X193760Y115020*
X193830Y114650*
X193760Y114310*
X193430Y113980*
X193030Y113770*
X192630Y113730*
X192160Y113810*
X191830Y114110*
X191700Y114400*
Y114770*
Y114400D02*
G01X191500Y114150D01*
X191160Y113940*
X190760Y113860*
X190360Y113940*
X190030Y114150*
X189830Y114520*
X189900Y114900*
X190160Y115270*
X193360Y111900D02*
G01X193700Y111610D01*
X193830Y111270*
X193700Y110940*
X193300Y110650*
X192700Y110440*
X192100Y110360*
X191360*
X190760Y110440*
X190230Y110650*
X189960Y110900*
X189830Y111190*
X189960Y111520*
X190230Y111770*
X190630Y111940*
X191160Y112020*
X191630Y111940*
X192100Y111730*
X192360Y111480*
X192430Y111190*
X192300Y110860*
X191960Y110610*
X191360Y110360*
G54D28*
X-185040Y196850D02*
G01X185040D01*
X196850Y185040D02*
G75*
G03X185040Y196850I-11810D01*
X196850Y185040D02*
G01Y-86620D01*
X185040Y-98430D02*
G03X196850Y-86620J11810D01*
X185040Y-98430D02*
G01X-185040D01*
X-196850Y-86620D02*
G03X-185040Y-98430I11810D01*
X-196850Y-86620D02*
G01Y185040D01*
X-185040Y196850D02*
G03X-196850Y185040J-11810D01*
X-176310Y-78390D02*
G01Y-68390D01*
X-166310*
Y-78390*
X-176310*
X-175110Y170420D02*
G01Y180420D01*
X-165110*
Y170420*
X-175110*
X-28540Y-42340D02*
G01Y170260D01*
X-162400*
Y-42340*
X-28540*
X-154240Y149080D02*
G01X-140850D01*
X-140220Y148250*
Y144400D02*
G03X-140220Y148250I-2491J1925D01*
Y144400D02*
G01X-140850Y143570D01*
X-154240*
X-154870Y144400*
Y148250D02*
G03X-154870Y144400I2491J-1925D01*
Y148250D02*
G01X-154240Y149080D01*
X-143790Y181550D02*
G01Y150050D01*
X-160320*
Y181550*
X-143790*
X-135520Y-5460D02*
G01Y-18850D01*
X-141030*
Y-5460*
X-135520*
X-126070Y6380D02*
G01X-139450D01*
X-140080Y7210*
Y11070D02*
G03X-140080Y7210I2479J-1930D01*
Y11070D02*
G01X-139450Y11900D01*
X-126070*
X-125440Y11070*
Y7210D02*
G03X-125440Y11070I-2479J1930D01*
Y7210D02*
G01X-126070Y6380D01*
X-126710Y-3480D02*
G01X-140100D01*
Y2030*
X-126710*
Y-3480*
X-143760Y22280D02*
G01Y37240D01*
X-124080*
Y22280*
X-143760*
X-142140Y155050D02*
G01Y162930D01*
X-128360*
Y155050*
X-130330*
X-132300Y153080*
Y146190*
X-138200*
Y153080*
X-140170Y155050*
X-142140*
X-152250Y138670D02*
G01X-138870D01*
X-138240Y137840*
Y133980D02*
G03X-138240Y137840I-2479J1930D01*
Y133980D02*
G01X-138870Y133150D01*
X-152250*
X-152880Y133980*
Y137840D02*
G03X-152880Y133980I2479J-1930D01*
Y137840D02*
G01X-152250Y138670D01*
X-125100Y25270D02*
G03X-125100Y25270I-1810D01*
X-122480Y24180D02*
G01Y37570D01*
X-121650Y38200*
X-117800D02*
G03X-121650Y38200I-1925J-2491D01*
X-117800D02*
G01X-116970Y37570D01*
Y24180*
X-117800Y23550*
X-121650D02*
G03X-117800Y23550I1925J2480D01*
X-121650D02*
G01X-122480Y24180D01*
X-137360Y52050D02*
G01Y67800D01*
X-130270*
Y52050*
X-137360*
X-130270Y67410D02*
G01Y68190D01*
X-137360*
Y67410*
X-130270Y68190D02*
G01Y68980D01*
X-137360*
Y68190*
X-130270Y67800D02*
G01Y68980D01*
X-137360*
Y67800*
X-131170Y83390D02*
G01Y70000D01*
X-136680*
Y83390*
X-131170*
X-130100Y133260D02*
G01X-116710D01*
X-116080Y132430*
Y128570D02*
G03X-116080Y132430I-2479J1930D01*
Y128570D02*
G01X-116710Y127740D01*
X-130100*
X-130730Y128570*
Y132430D02*
G03X-130730Y128570I2479J-1930D01*
Y132430D02*
G01X-130100Y133260D01*
X-130230Y140710D02*
G01Y147090D01*
X-118660*
Y143190*
X-121140Y140710*
X-130230*
X-128180Y177700D02*
G01Y164320D01*
X-129010Y163690*
X-132870D02*
G03X-129010Y163690I1930J2479D01*
X-132870D02*
G01X-133690Y164320D01*
Y177700*
X-132870Y178330*
X-129010D02*
G03X-132870Y178330I-1930J-2479D01*
X-129010D02*
G01X-128180Y177700D01*
X-90780Y193880D02*
G01Y170260D01*
X-124090*
Y193880*
X-90780*
X-124090Y190930D02*
G01X-118190D01*
Y186990*
X-124090*
X-106860Y59250D02*
G01Y72640D01*
X-101350*
Y59250*
X-106860*
X-111420Y148080D02*
G01Y134700D01*
X-116940*
Y148080*
X-111420*
X-112280Y193880D02*
G01Y190930D01*
X-103580*
Y193880*
X-86770Y-3640D02*
G01Y-17020D01*
X-92290*
Y-3640*
X-86770*
X-86450Y11560D02*
G01Y-1820D01*
X-87270Y-2450*
X-91130D02*
G03X-87270Y-2450I1930J2479D01*
X-91130D02*
G01X-91960Y-1820D01*
Y11560*
X-91130Y12190*
X-87270D02*
G03X-91130Y12190I-1930J-2479D01*
X-87270D02*
G01X-86450Y11560D01*
X-86160Y-3220D02*
G01X-72770D01*
Y-8740*
X-86160*
Y-3220*
X-85950Y3630D02*
G01X-72560D01*
Y-1890*
X-85950*
Y3630*
X-79210Y66080D02*
G01Y50330D01*
X-86290*
Y66080*
X-79210*
X-90690Y77010D02*
G01X-77310D01*
Y71490*
X-90690*
Y77010*
X-85140Y124310D02*
G01X-71760D01*
X-71130Y123480*
Y119620D02*
G03X-71130Y123480I-2479J1930D01*
Y119620D02*
G01X-71760Y118790D01*
X-85140*
X-85770Y119620*
Y123480D02*
G03X-85770Y119620I2479J-1930D01*
Y123480D02*
G01X-85140Y124310D01*
X-97600Y148630D02*
G01X-84220D01*
X-83590Y147800*
Y143940D02*
G03X-83590Y147800I-2479J1930D01*
Y143940D02*
G01X-84220Y143110D01*
X-97600*
X-98230Y143940*
Y147800D02*
G03X-98230Y143940I2479J-1930D01*
Y147800D02*
G01X-97600Y148630D01*
X-89750Y140160D02*
G01X-76360D01*
Y134650*
X-89750*
Y140160*
X-28540Y166320D02*
G01Y170260D01*
X-87600*
Y166320*
X-28540*
X-68141Y182070D02*
G03X-68141Y182070I-10599D01*
X-68900D02*
G01X-88580D01*
X-72800Y177080D02*
G01X-86190D01*
Y182590*
X-72800*
Y177080*
X-90780Y190930D02*
G01X-87830Y187980D01*
Y193880*
X-90780Y190930*
Y190930D02*
G01X-96690D01*
Y186990*
X-90780*
X-59320Y-74400D02*
G01Y-94080D01*
X-69160*
Y-74400*
X-59320*
X-69160Y-94080D02*
G01Y-96050D01*
X-59320*
Y-94080*
X-69160Y-95070D02*
G01X-59320D01*
X-51420Y-62020D02*
G01X-66770D01*
X-67680Y-60410*
Y-56550D02*
G03X-67680Y-60410I3432J-1930D01*
Y-56550D02*
G01X-66770Y-54940D01*
X-51420*
X-50510Y-56550*
Y-60410D02*
G03X-50510Y-56550I-3432J1930D01*
Y-60410D02*
G01X-51420Y-62020D01*
X-69930Y-34410D02*
G01X-83310D01*
Y-28900*
X-69930*
Y-34410*
X-69850Y-27750D02*
G01X-83230D01*
Y-22240*
X-69850*
Y-27750*
X-69610Y-22000D02*
G01X-83000D01*
Y-16490*
X-69610*
Y-22000*
X-69280Y-16100D02*
G01X-82660D01*
Y-10590*
X-69280*
Y-16100*
X-71630Y-9600D02*
G01Y3780D01*
X-66110*
Y-9600*
X-71630*
X-83720Y11690D02*
G01X-68360D01*
X-67460Y10080*
Y6220D02*
G03X-67460Y10080I-3432J1930D01*
Y6220D02*
G01X-68360Y4610D01*
X-83720*
X-84620Y6220*
Y10080D02*
G03X-84620Y6220I3421J-1930D01*
Y10080D02*
G01X-83720Y11690D01*
X-70910Y57090D02*
G01X-55550D01*
X-54650Y55470*
Y51620D02*
G03X-54650Y55470I-3429J1925D01*
Y51620D02*
G01X-55550Y50000D01*
X-70910*
X-71810Y51620*
Y55470D02*
G03X-71810Y51620I3429J-1925D01*
Y55470D02*
G01X-70910Y57090D01*
X-55480Y58210D02*
G01X-70830D01*
X-71740Y59820*
Y63680D02*
G03X-71740Y59820I3432J-1930D01*
Y63680D02*
G01X-70830Y65290D01*
X-55480*
X-54570Y63680*
Y59820D02*
G03X-54570Y63680I-3432J1930D01*
Y59820D02*
G01X-55480Y58210D01*
X-74490Y70810D02*
G01X-61110D01*
Y65290*
X-74490*
Y70810*
X-59710Y72190D02*
G01X-73090D01*
X-73720Y73020*
Y76880D02*
G03X-73720Y73020I2479J-1930D01*
Y76880D02*
G01X-73090Y77710D01*
X-59710*
X-59080Y76880*
Y73020D02*
G03X-59080Y76880I-2479J1930D01*
Y73020D02*
G01X-59710Y72190D01*
X-67110Y143180D02*
G01X-80490D01*
X-81120Y144010*
Y147870D02*
G03X-81120Y144010I2479J-1930D01*
Y147870D02*
G01X-80490Y148700D01*
X-67110*
X-66480Y147870*
Y144010D02*
G03X-66480Y147870I-2479J1930D01*
Y144010D02*
G01X-67110Y143180D01*
X-72650Y168900D02*
G01Y182290D01*
X-67140*
Y168900*
X-72650*
X-45160Y-81740D02*
G01Y-89610D01*
X-58940*
Y-81740*
X-56970*
X-55000Y-79770*
Y-72880*
X-49100*
Y-79770*
X-47130Y-81740*
X-45160*
X-45350Y-96360D02*
G01X-58740D01*
Y-90850*
X-45350*
Y-96360*
X-50330Y-54930D02*
G01X-34980D01*
X-34070Y-56540*
Y-60400D02*
G03X-34070Y-56540I-3432J1930D01*
Y-60400D02*
G01X-34980Y-62020D01*
X-50330*
X-51240Y-60400*
Y-56540D02*
G03X-51240Y-60400I3432J-1930D01*
Y-56540D02*
G01X-50330Y-54930D01*
X-50750Y-54830D02*
G01Y-41440D01*
X-45240*
Y-54830*
X-50750*
X-56300Y-54780D02*
G01Y-41400D01*
X-50790*
Y-54780*
X-56300*
X-53060Y-5280D02*
G01X-37710D01*
X-36800Y-6900*
Y-10760D02*
G03X-36800Y-6900I-3432J1930D01*
Y-10760D02*
G01X-37710Y-12370D01*
X-53060*
X-53970Y-10760*
Y-6900D02*
G03X-53970Y-10760I3432J-1930D01*
Y-6900D02*
G01X-53060Y-5280D01*
X-53230Y-12680D02*
G01X-37880D01*
X-36970Y-14300*
Y-18160D02*
G03X-36970Y-14300I-3432J1930D01*
Y-18160D02*
G01X-37880Y-19770D01*
X-53230*
X-54140Y-18160*
Y-14300D02*
G03X-54140Y-18160I3432J-1930D01*
Y-14300D02*
G01X-53230Y-12680D01*
X-49940Y4610D02*
G01X-65300D01*
X-66200Y6220*
Y10080D02*
G03X-66200Y6220I3421J-1930D01*
Y10080D02*
G01X-65300Y11690D01*
X-49940*
X-49040Y10080*
Y6220D02*
G03X-49040Y10080I-3432J1930D01*
Y6220D02*
G01X-49940Y4610D01*
X-63810Y3980D02*
G01X-50420D01*
Y-1540*
X-63810*
Y3980*
X-50020Y23540D02*
G01X-34670D01*
X-33760Y21930*
Y18070D02*
G03X-33760Y21930I-3432J1930D01*
Y18070D02*
G01X-34670Y16460D01*
X-50020*
X-50930Y18070*
Y21930D02*
G03X-50930Y18070I3432J-1930D01*
Y21930D02*
G01X-50020Y23540D01*
X-61280Y37740D02*
G01X-45920D01*
X-45020Y36130*
Y32270D02*
G03X-45020Y36130I-3432J1930D01*
Y32270D02*
G01X-45920Y30660D01*
X-61280*
X-62180Y32270*
Y36130D02*
G03X-62180Y32270I3421J-1930D01*
Y36130D02*
G01X-61280Y37740D01*
X-63120Y47340D02*
G01X-47760D01*
X-46860Y45720*
Y41870D02*
G03X-46860Y45720I-3429J1925D01*
Y41870D02*
G01X-47760Y40250D01*
X-63120*
X-64020Y41870*
Y45720D02*
G03X-64020Y41870I3429J-1925D01*
Y45720D02*
G01X-63120Y47340D01*
X-49290Y70820D02*
G01X-33940D01*
X-33030Y69200*
Y65340D02*
G03X-33030Y69200I-3432J1930D01*
Y65340D02*
G01X-33940Y63730D01*
X-49290*
X-50190Y65340*
Y69200D02*
G03X-50190Y65340I3421J-1930D01*
Y69200D02*
G01X-49290Y70820D01*
X-52410Y93540D02*
G01X-65790D01*
X-66420Y94370*
Y98230D02*
G03X-66420Y94370I2479J-1930D01*
Y98230D02*
G01X-65790Y99060D01*
X-52410*
X-51780Y98230*
Y94370D02*
G03X-51780Y98230I-2479J1930D01*
Y94370D02*
G01X-52410Y93540D01*
X-62810Y103760D02*
G01Y117140D01*
X-57290*
Y103760*
X-62810*
X-31490Y181090D02*
G01X-51180D01*
X-30731D02*
G03X-30731Y181090I-10609D01*
X-57750Y182090D02*
G01X-44360D01*
Y176570*
X-57750*
Y182090*
X-63820Y168650D02*
G01Y182040D01*
X-58310*
Y168650*
X-63820*
X-30810Y-81540D02*
G01Y-89420D01*
X-44590*
Y-81540*
X-42620*
X-40650Y-79570*
Y-72680*
X-34750*
Y-79570*
X-32780Y-81540*
X-30810*
X-42190Y-430D02*
G01Y14930D01*
X-40580Y15830*
X-36720D02*
G03X-40580Y15830I-1930J-3432D01*
X-36720D02*
G01X-35110Y14930D01*
Y-430*
X-36720Y-1330*
X-40580D02*
G03X-36720Y-1330I1930J3421D01*
X-40580D02*
G01X-42190Y-430D01*
X-41000Y24890D02*
G01Y40250D01*
X-39390Y41150*
X-35530D02*
G03X-39390Y41150I-1930J-3432D01*
X-35530D02*
G01X-33920Y40250D01*
Y24890*
X-35530Y23990*
X-39390D02*
G03X-35530Y23990I1930J3421D01*
X-39390D02*
G01X-41000Y24890D01*
X-46460Y61070D02*
G01X-31100D01*
X-30200Y59460*
Y55600D02*
G03X-30200Y59460I-3432J1930D01*
Y55600D02*
G01X-31100Y53990D01*
X-46460*
X-47360Y55600*
Y59460D02*
G03X-47360Y55600I3421J-1930D01*
Y59460D02*
G01X-46460Y61070D01*
X-43160Y76980D02*
G01X-29780D01*
X-29150Y76150*
Y72290D02*
G03X-29150Y76150I-2479J1930D01*
Y72290D02*
G01X-29780Y71470D01*
X-43160*
X-43790Y72290*
Y76150D02*
G03X-43790Y72290I2479J-1930D01*
Y76150D02*
G01X-43160Y76980D01*
X-42490Y99360D02*
G01X-29110D01*
X-28480Y98530*
Y94670D02*
G03X-28480Y98530I-2479J1930D01*
Y94670D02*
G01X-29110Y93840D01*
X-42490*
X-43120Y94670*
Y98530D02*
G03X-43120Y94670I2479J-1930D01*
Y98530D02*
G01X-42490Y99360D01*
X-41340Y171240D02*
G01Y190930D01*
X-31030Y-6250D02*
G01Y7140D01*
X-25510*
Y-6250*
X-31030*
X-32750Y20660D02*
G01Y34050D01*
X-31930Y34680*
X-28070D02*
G03X-31930Y34680I-1930J-2490D01*
X-28070D02*
G01X-27240Y34050D01*
Y20660*
X-28070Y20030*
X-31930D02*
G03X-28070Y20030I1930J2479D01*
X-31930D02*
G01X-32750Y20660D01*
X14160Y-23350D02*
G01X-1200D01*
X-2100Y-21730*
Y-17880D02*
G03X-2100Y-21730I3429J-1925D01*
Y-17880D02*
G01X-1200Y-16260D01*
X14160*
X15060Y-17880*
Y-21730D02*
G03X15060Y-17880I-3429J1925D01*
Y-21730D02*
G01X14160Y-23350D01*
X14660Y-15740D02*
G01X-700D01*
X-1600Y-14130*
Y-10270D02*
G03X-1600Y-14130I3432J-1930D01*
Y-10270D02*
G01X-700Y-8660D01*
X14660*
X15560Y-10270*
Y-14130D02*
G03X15560Y-10270I-3421J1930D01*
Y-14130D02*
G01X14660Y-15740D01*
X10800Y14760D02*
G01Y28140D01*
X11620Y28770*
X15480D02*
G03X11620Y28770I-1930J-2479D01*
X15480D02*
G01X16310Y28140D01*
Y14760*
X15480Y14130*
X11620D02*
G03X15480Y14130I1930J2479D01*
X11620D02*
G01X10800Y14760D01*
X14720Y79440D02*
G01X28100D01*
X28730Y78610*
Y74750D02*
G03X28730Y78610I-2479J1930D01*
Y74750D02*
G01X28100Y73930D01*
X14720*
X14090Y74750*
Y78610D02*
G03X14090Y74750I2479J-1930D01*
Y78610D02*
G01X14720Y79440D01*
X15570Y85470D02*
G01X28960D01*
Y79960*
X15570*
Y85470*
X16610Y109000D02*
G01X30000D01*
Y103490*
X16610*
Y109000*
X18810Y137250D02*
G01X32200D01*
Y131740*
X18810*
Y137250*
X22570Y-3460D02*
G01Y9920D01*
X23400Y10550*
X27260D02*
G03X23400Y10550I-1930J-2479D01*
X27260D02*
G01X28090Y9920D01*
Y-3460*
X27260Y-4090*
X23400D02*
G03X27260Y-4090I1930J2479D01*
X23400D02*
G01X22570Y-3460D01*
X36220Y13180D02*
G01X22840D01*
X22210Y14000*
Y17860D02*
G03X22210Y14000I2479J-1930D01*
Y17860D02*
G01X22840Y18690D01*
X36220*
X36850Y17860*
Y14000D02*
G03X36850Y17860I-2479J1930D01*
Y14000D02*
G01X36220Y13180D01*
X36010Y21950D02*
G01X22620D01*
X21990Y22770*
Y26630D02*
G03X21990Y22770I2490J-1930D01*
Y26630D02*
G01X22620Y27460D01*
X36010*
X36640Y26630*
Y22770D02*
G03X36640Y26630I-2479J1930D01*
Y22770D02*
G01X36010Y21950D01*
X40080Y33050D02*
G01X24730D01*
X23820Y34660*
Y38520D02*
G03X23820Y34660I3432J-1930D01*
Y38520D02*
G01X24730Y40140D01*
X40080*
X40990Y38520*
Y34660D02*
G03X40990Y38520I-3432J1930D01*
Y34660D02*
G01X40080Y33050D01*
X31050Y79150D02*
G01X44440D01*
X45070Y78330*
Y74470D02*
G03X45070Y78330I-2479J1930D01*
Y74470D02*
G01X44440Y73640D01*
X31050*
X30420Y74470*
Y78330D02*
G03X30420Y74470I2490J-1930D01*
Y78330D02*
G01X31050Y79150D01*
X30320Y85620D02*
G01X43710D01*
Y80110*
X30320*
Y85620*
X57380Y-74070D02*
G01Y-87450D01*
X51870*
Y-74070*
X57380*
X58430Y-50860D02*
G01Y-64250D01*
X52920*
Y-50860*
X58430*
X44990Y86460D02*
G01Y99850D01*
X45820Y100480*
X49680D02*
G03X45820Y100480I-1930J-2490D01*
X49680D02*
G01X50500Y99850D01*
Y86460*
X49680Y85830*
X45820D02*
G03X49680Y85830I1930J2479D01*
X45820D02*
G01X44990Y86460D01*
X80060Y-80370D02*
G01X93450D01*
Y-85880*
X80060*
Y-80370*
X93120Y-68200D02*
G01Y-76470D01*
X92840Y-76710*
X89460D02*
G03X92840Y-76710I1690J1859D01*
X89460D02*
G01X89180Y-76470D01*
Y-68200*
X89460Y-67970*
X92840D02*
G03X89460Y-67970I-1690J-1859D01*
X92840D02*
G01X93120Y-68200D01*
X80010Y-56250D02*
G01X93390D01*
Y-61760*
X80010*
Y-56250*
X93020Y-45320D02*
G01Y-53580D01*
X92740Y-53820*
X89360D02*
G03X92740Y-53820I1690J1859D01*
X89360D02*
G01X89080Y-53580D01*
Y-45320*
X89360Y-45080*
X92740D02*
G03X89360Y-45080I-1690J-1859D01*
X92740D02*
G01X93020Y-45320D01*
X95270Y-94140D02*
G01Y-80760D01*
X100790*
Y-94140*
X95270*
X94070Y-69940D02*
G01Y-56560D01*
X99590*
Y-69940*
X94070*
X107150Y160210D02*
G01Y144850D01*
X105540Y143950*
X101680D02*
G03X105540Y143950I1930J3421D01*
X101680D02*
G01X100070Y144850D01*
Y160210*
X101680Y161110*
X105540D02*
G03X101680Y161110I-1930J-3432D01*
X105540D02*
G01X107150Y160210D01*
X132360Y99590D02*
G01X118970D01*
Y105100*
X132360*
Y99590*
X107790Y145310D02*
G01Y158700D01*
X108610Y159330*
X112470D02*
G03X108610Y159330I-1930J-2490D01*
X112470D02*
G01X113300Y158700D01*
Y145310*
X112470Y144680*
X108610D02*
G03X112470Y144680I1930J2479D01*
X108610D02*
G01X107790Y145310D01*
X123250Y145820D02*
G01Y159200D01*
X128760*
Y145820*
X123250*
X120900Y160110D02*
G01Y144360D01*
X113810*
Y160110*
X120900*
X153500Y99420D02*
G01X133810D01*
Y105710*
X153500*
Y99420*
X140900Y105710D02*
G01Y99420D01*
X141290Y105710D02*
G01Y99420D01*
X141690Y105710D02*
G01Y99420D01*
X140510Y105710D02*
G01Y99420D01*
X140110Y105710D02*
G01Y99420D01*
X153500Y106310D02*
G01X133820D01*
Y112610*
X153500*
Y106310*
X140910Y112610D02*
G01Y106310D01*
X141300Y112610D02*
G01Y106310D01*
X141690Y112610D02*
G01Y106310D01*
X140510Y112610D02*
G01Y106310D01*
X140120Y112610D02*
G01Y106310D01*
X130530Y145690D02*
G01Y159080D01*
X136040*
Y145690*
X130530*
X136880Y145890D02*
G01Y159270D01*
X142390*
Y145890*
X136880*
X159800Y53290D02*
G01Y39900D01*
X158970Y39270*
X155120D02*
G03X158970Y39270I1925J2491D01*
X155120D02*
G01X154290Y39900D01*
Y53290*
X155120Y53920*
X158970D02*
G03X155120Y53920I-1925J-2480D01*
X158970D02*
G01X159800Y53290D01*
X165790Y98450D02*
G01X157920D01*
Y112230*
X165790*
Y110260*
X167760Y108290*
X174650*
Y102390*
X167760*
X165790Y100420*
Y98450*
X153630Y122970D02*
G01X167020D01*
Y117450*
X153630*
Y122970*
X143780Y145940D02*
G01Y159320D01*
X149290*
Y145940*
X143780*
X149780Y145680D02*
G01Y159070D01*
X155290*
Y145680*
X149780*
X176680Y102420D02*
G01Y115810D01*
X182190*
Y102420*
X176680*
X178420Y-72380D02*
G01Y-62380D01*
X188420*
Y-72380*
X178420*
X180060Y7360D02*
G01Y17360D01*
X190060*
Y7360*
X180060*
X186240Y-6990D02*
G01Y6400D01*
X187070Y7030*
X190930D02*
G03X187070Y7030I-1930J-2490D01*
X190930D02*
G01X191750Y6400D01*
Y-6990*
X190930Y-7620*
X187070D02*
G03X190930Y-7620I1930J2479D01*
X187070D02*
G01X186240Y-6990D01*
X184120Y6500D02*
G01Y-6880D01*
X178610*
Y6500*
X184120*
X183320Y110370D02*
G01Y123760D01*
X184140Y124390*
X188000D02*
G03X184140Y124390I-1930J-2490D01*
X188000D02*
G01X188830Y123760D01*
Y110370*
X188000Y109740*
X184140D02*
G03X188000Y109740I1930J2479D01*
X184140D02*
G01X183320Y110370D01*
X181940Y161530D02*
G01Y171530D01*
X191940*
Y161530*
X181940*
X-100340Y-18170D02*
G01X-107520D01*
Y-3330*
X-100340*
Y-18170*
G01X-113311Y-6705D02*
X-110030D01*
X-113311D02*
Y-8111D01*
X-113155Y-8580D01*
X-112999Y-8736D01*
X-112686Y-8892D01*
X-112374D01*
X-112061Y-8736D01*
X-111905Y-8580D01*
X-111749Y-8111D01*
Y-6705D01*
Y-7799D02*
X-110030Y-8892D01*
X-112217Y-11861D02*
X-111749Y-11705D01*
X-111436Y-11392D01*
X-111280Y-10924D01*
Y-10767D01*
X-111436Y-10299D01*
X-111749Y-9986D01*
X-112217Y-9830D01*
X-112374D01*
X-112842Y-9986D01*
X-113155Y-10299D01*
X-113311Y-10767D01*
Y-10924D01*
X-113155Y-11392D01*
X-112842Y-11705D01*
X-112217Y-11861D01*
X-111436D01*
X-110655Y-11705D01*
X-110186Y-11392D01*
X-110030Y-10924D01*
Y-10611D01*
X-110186Y-10142D01*
X-110499Y-9986D01*
X-112686Y-13424D02*
X-112842Y-13736D01*
X-113311Y-14205D01*
X-110030D01*
X-112686Y-16549D02*
X-112842Y-16861D01*
X-113311Y-17330D01*
X-110030D01*
G54D114*
G01X-143445Y129091D02*
Y125810D01*
Y129091D02*
X-144851D01*
X-145320Y128935D01*
X-145476Y128779D01*
X-145632Y128466D01*
Y128154D01*
X-145476Y127841D01*
X-145320Y127685D01*
X-144851Y127529D01*
X-143445D01*
X-144539D02*
X-145632Y125810D01*
X-146570Y129091D02*
X-148757Y125810D01*
Y129091D02*
X-146570Y125810D01*
X-144070Y119091D02*
Y115810D01*
X-142976Y119091D02*
X-145164D01*
X-145789D02*
X-147976Y115810D01*
Y119091D02*
X-145789Y115810D01*
X-145632Y108310D02*
X-145476Y108622D01*
X-145164Y108935D01*
X-144851Y109091D01*
X-144226D01*
X-143914Y108935D01*
X-143601Y108622D01*
X-143445Y108310D01*
X-143289Y107841D01*
Y107060D01*
X-143445Y106591D01*
X-143601Y106279D01*
X-143914Y105966D01*
X-144226Y105810D01*
X-144851D01*
X-145164Y105966D01*
X-145476Y106279D01*
X-145632Y106591D01*
Y107060D01*
X-144851D02*
X-145632D01*
X-146726Y109091D02*
Y105810D01*
Y109091D02*
X-148914Y105810D01*
Y109091D02*
Y105810D01*
X-150164Y109091D02*
Y105810D01*
Y109091D02*
X-151257D01*
X-151726Y108935D01*
X-152039Y108622D01*
X-152195Y108310D01*
X-152351Y107841D01*
Y107060D01*
X-152195Y106591D01*
X-152039Y106279D01*
X-151726Y105966D01*
X-151257Y105810D01*
X-150164D01*
X-143445Y99091D02*
Y95810D01*
Y99091D02*
X-144539D01*
X-145007Y98935D01*
X-145320Y98622D01*
X-145476Y98310D01*
X-145632Y97841D01*
Y97060D01*
X-145476Y96591D01*
X-145320Y96279D01*
X-145007Y95966D01*
X-144539Y95810D01*
X-143445D01*
X-146726Y99091D02*
Y95810D01*
Y99091D02*
X-148132D01*
X-148601Y98935D01*
X-148757Y98779D01*
X-148914Y98466D01*
Y98154D01*
X-148757Y97841D01*
X-148601Y97685D01*
X-148132Y97529D01*
X-146726D02*
X-148132D01*
X-148601Y97372D01*
X-148757Y97216D01*
X-148914Y96904D01*
Y96435D01*
X-148757Y96122D01*
X-148601Y95966D01*
X-148132Y95810D01*
X-146726D01*
X-152195Y98310D02*
X-152039Y98622D01*
X-151726Y98935D01*
X-151414Y99091D01*
X-150789D01*
X-150476Y98935D01*
X-150164Y98622D01*
X-150007Y98310D01*
X-149851Y97841D01*
Y97060D01*
X-150007Y96591D01*
X-150164Y96279D01*
X-150476Y95966D01*
X-150789Y95810D01*
X-151414D01*
X-151726Y95966D01*
X-152039Y96279D01*
X-152195Y96591D01*
Y97060D01*
X-151414D02*
X-152195D01*
M02*
