G04 CAM350 V9.5.1 (Build 211) Date:  Mon Jun 16 19:21:36 2014 *
G04 Database: e:\a\pegasus.cam *
G04 Layer 13: SoldmaskTop.art *
%FSLAX55Y55*%
%MOIN*%
%SFA1.000B1.000*%

%MIA0B0*%
%IPPOS*%
%ADD14C,0.06000*%
%ADD17R,0.07000X0.07000*%
%ADD18C,0.07000*%
%ADD116O,0.11020X0.09060*%
%ADD117C,0.25000*%
%ADD118C,0.14500*%
%ADD119C,0.15600*%
%ADD120C,0.16340*%
%ADD121C,0.15550*%
%ADD122O,0.12990X0.09060*%
%ADD123O,0.09060X0.12990*%
%ADD127C,0.04130*%
%ADD129R,0.13190X0.10430*%
%ADD131R,0.06100X0.04530*%
%ADD132R,0.04530X0.06100*%
%ADD134C,0.06600*%
%ADD135R,0.05710X0.05310*%
%ADD136C,0.07600*%
%ADD138C,0.06610*%
%ADD139R,0.05310X0.05710*%
%ADD140R,0.04530X0.04530*%
%ADD141C,0.09250*%
%ADD142R,0.06600X0.06600*%
%ADD143R,0.07600X0.07600*%
%ADD144R,0.07680X0.05310*%
%ADD145R,0.02950X0.02950*%
%ADD146O,0.13190X0.04330*%
%ADD147R,0.20280X0.04530*%
%ADD148R,0.13190X0.04330*%
%ADD149R,0.12400X0.08460*%
%ADD150R,0.21650X0.08270*%
%ADD151R,0.08270X0.21650*%
%ADD152R,0.10830X0.07680*%
%ADD153O,0.07200X0.02600*%
%ADD154C,0.05100*%
%ADD155O,0.01460X0.05310*%
%ADD156R,0.05310X0.04130*%
%ADD157O,0.05310X0.01460*%
%ADD158O,0.01380X0.05310*%
%ADD159R,0.07200X0.02600*%
%ADD160O,0.05310X0.01380*%
%ADD161R,0.01460X0.05310*%
%ADD162O,0.05710X0.02170*%
%ADD163R,0.12600X0.13390*%
%ADD164R,0.06700X0.03500*%
%ADD165O,0.01770X0.06500*%
%ADD166R,0.05710X0.02170*%
%ADD167O,0.06500X0.01770*%
%ADD168R,0.01770X0.06500*%
%ADD169O,0.02360X0.08460*%
%ADD170R,0.06500X0.01770*%
%ADD171R,0.08460X0.06300*%
%ADD172R,0.09250X0.05710*%
%ADD173R,0.03150X0.07680*%
%ADD174R,0.05710X0.09250*%
%ADD175R,0.05310X0.07680*%
%LNSoldmaskTop.art*%
%LPD*%
G54D117*
X-183070Y-88590D03*
Y187010D03*
X183070Y-88590D03*
Y187010D03*
G54D138*
X-191850Y-70790D03*
Y-60790D03*
Y-50790D03*
Y-40790D03*
Y-30790D03*
Y-20790D03*
Y-10790D03*
Y-790D03*
Y9210D03*
Y19210D03*
Y29210D03*
Y39210D03*
Y49210D03*
Y59210D03*
Y69210D03*
Y79210D03*
Y89210D03*
Y99210D03*
Y109210D03*
Y119210D03*
Y129210D03*
Y139210D03*
Y149210D03*
Y159210D03*
Y169210D03*
X-181850Y-60790D03*
Y-50790D03*
Y-40790D03*
Y-30790D03*
Y-20790D03*
Y-10790D03*
Y-790D03*
Y9210D03*
Y19210D03*
Y29210D03*
Y39210D03*
Y49210D03*
Y59210D03*
Y69210D03*
Y79210D03*
Y89210D03*
Y99210D03*
Y109210D03*
Y119210D03*
Y129210D03*
Y139210D03*
Y149210D03*
Y159210D03*
Y169210D03*
X-112440Y184040D03*
X19300Y174230D03*
Y191950D03*
X46860Y174230D03*
Y191950D03*
G54D153*
X-155030Y40250D03*
Y35250D03*
Y45290D03*
X-130630Y35250D03*
Y40250D03*
Y45290D03*
Y50290D03*
G54D145*
X-154520Y57570D03*
X-150180D03*
G54D142*
X-181850Y-70790D03*
X-102440Y184040D03*
G54D140*
X-138190Y-1780D03*
X-130310D03*
X-129050Y109940D03*
X-121170D03*
X-116450Y131970D03*
X-108570D03*
X-116650Y137830D03*
X-108770D03*
X-69310Y-53100D03*
X-69290Y-47100D03*
X-76510Y36080D03*
X-68630D03*
X-61430Y-53100D03*
X-61410Y-47100D03*
X-58660Y28680D03*
X-50780D03*
X-40990Y-54630D03*
X-33110D03*
X-44560Y66460D03*
X-36680D03*
X-39840Y85510D03*
X-47720D03*
X-47990Y92700D03*
X-40110D03*
X-42980Y146480D03*
X-35100D03*
X-42980Y139280D03*
X-35100D03*
X-31220Y183140D03*
X-23340D03*
X16810Y-51570D03*
X16890Y-44700D03*
X24690Y-51570D03*
X24770Y-44700D03*
X71800Y75930D03*
X79680D03*
X120660Y-25660D03*
X124250Y93980D03*
X137610Y-25660D03*
X128540D03*
X138310Y7870D03*
X132130Y93980D03*
X145490Y-25660D03*
X156360Y8250D03*
X146190Y7870D03*
X156950Y19130D03*
X164240Y8250D03*
X164830Y19130D03*
G54D169*
X-153330Y175200D03*
X-150770D03*
X-148210D03*
X-145650D03*
X-143090D03*
G54D159*
X-155030Y50290D03*
G54D154*
X-171310Y-73390D03*
X-170110Y175420D03*
X183420Y-67380D03*
X185060Y12360D03*
X186940Y166530D03*
G54D121*
X-76950Y-75120D03*
X-26170D03*
G54D168*
X76170Y132060D03*
G54D140*
X-171950Y-46960D03*
Y-54840D03*
X-169240Y41820D03*
X-162980Y36080D03*
Y28200D03*
X-162830Y42290D03*
X-169240Y49700D03*
X-162830Y50170D03*
X-157920Y161390D03*
Y153510D03*
X-141070Y161340D03*
Y153460D03*
X-146630D03*
Y161340D03*
X-152330Y153460D03*
Y161340D03*
X-121160Y27240D03*
X-121030Y41940D03*
X-121160Y35120D03*
X-121030Y49820D03*
X-124530Y120150D03*
Y128030D03*
X-131110Y161700D03*
Y153820D03*
X-123140Y153730D03*
Y161610D03*
X-106880Y45280D03*
Y37400D03*
X-9770Y-45160D03*
Y-53040D03*
X-6850Y148140D03*
Y140260D03*
X-8110Y178860D03*
Y186740D03*
X9880Y179160D03*
Y187040D03*
X31330Y148690D03*
Y140810D03*
X55720Y148840D03*
Y140960D03*
X71060Y148640D03*
Y140760D03*
X80480Y148290D03*
Y140410D03*
X105020Y-24330D03*
Y-16450D03*
X100320Y20060D03*
Y27940D03*
X106150Y20050D03*
Y27930D03*
X100930Y108470D03*
Y116350D03*
X111370Y-24430D03*
Y-16550D03*
X115080Y20360D03*
Y28240D03*
X110420Y95200D03*
Y103080D03*
X142740Y-8440D03*
X135130Y-8000D03*
X128250Y-7870D03*
X142740Y-560D03*
X135130Y-120D03*
X128250Y10D03*
X160850Y-8010D03*
X154250Y-7960D03*
X160850Y-130D03*
X154250Y-80D03*
X156280Y59190D03*
Y67070D03*
X176230Y-33130D03*
Y-25250D03*
X168080Y-8240D03*
Y-360D03*
X167540Y30360D03*
Y38240D03*
X167550Y53820D03*
Y45940D03*
X167620Y62110D03*
Y69990D03*
G54D163*
X-166410Y75330D03*
X-138070D03*
X-77500Y54020D03*
X-49160D03*
G54D152*
X-63060Y190970D03*
X-46140D03*
G54D119*
X-113140Y-84180D03*
Y-60560D03*
X-94240Y-72370D03*
G54D170*
X-59830Y81110D03*
G54D131*
X141170Y86210D03*
Y93690D03*
X149830Y89950D03*
G54D148*
X-168250Y99480D03*
X-142800Y-29310D03*
G54D120*
X113040Y-71320D03*
X158080D03*
G54D146*
X-151710Y99480D03*
X-126260Y-29310D03*
G54D118*
X-111830Y-30980D03*
X-106830Y159020D03*
X93170Y-10980D03*
Y99020D03*
G54D144*
X-154180Y117010D03*
Y130010D03*
X-124200Y68090D03*
Y81090D03*
X-80000Y177300D03*
Y190300D03*
G54D141*
X105050Y-59310D03*
X166070D03*
G54D166*
X141570Y110300D03*
G54D135*
X-107060Y20600D03*
Y29260D03*
X-17900Y-44850D03*
Y-53510D03*
X114840Y2520D03*
Y11180D03*
G54D134*
X-155550Y-88350D03*
Y-58350D03*
Y-68350D03*
Y-48350D03*
X109460Y-90610D03*
X119460D03*
X118040Y-46320D03*
X128040D03*
X123040Y-36320D03*
X138040Y-46320D03*
X133040Y-36320D03*
X143040D03*
X161660Y-90610D03*
X151660D03*
X148040Y-46320D03*
X153040Y-36320D03*
G54D160*
X-37650Y8840D03*
Y7260D03*
Y5690D03*
Y4110D03*
Y2540D03*
Y970D03*
Y-610D03*
Y26160D03*
Y24590D03*
Y23010D03*
Y21440D03*
Y19860D03*
Y18290D03*
Y16710D03*
Y15140D03*
Y13560D03*
Y11990D03*
Y10410D03*
Y43490D03*
Y41910D03*
Y40340D03*
Y38760D03*
Y37190D03*
Y35610D03*
Y34040D03*
Y32460D03*
Y30890D03*
Y29310D03*
Y27740D03*
Y48210D03*
Y46630D03*
Y45060D03*
X25350Y-610D03*
Y970D03*
Y2540D03*
Y4110D03*
Y5690D03*
Y7260D03*
Y8840D03*
Y10410D03*
Y11990D03*
Y13560D03*
Y15140D03*
Y16710D03*
Y18290D03*
Y19860D03*
Y21440D03*
Y23010D03*
Y24590D03*
Y26160D03*
Y27740D03*
Y29310D03*
Y30890D03*
Y32460D03*
Y34040D03*
Y35610D03*
Y37190D03*
Y38760D03*
Y40340D03*
Y41910D03*
Y43490D03*
Y45060D03*
Y46630D03*
Y48210D03*
G54D143*
X-166310Y123800D03*
X-138090Y127720D03*
X-64910Y-66460D03*
X-56840Y-31010D03*
X-30990Y105450D03*
X-2800Y159010D03*
X83190Y-31010D03*
Y159060D03*
G54D171*
X105000Y142130D03*
G54D167*
X-108090Y93710D03*
Y90560D03*
Y87410D03*
Y84260D03*
Y81110D03*
Y112610D03*
Y109460D03*
Y106310D03*
Y103160D03*
Y100010D03*
Y96860D03*
X-59830Y84260D03*
Y87410D03*
Y90560D03*
Y93710D03*
Y96860D03*
Y100010D03*
Y103160D03*
Y106310D03*
Y109460D03*
Y112610D03*
G54D161*
X150240Y58000D03*
G54D158*
X-30560Y-7700D03*
X-28980D03*
X-27410D03*
X-25840D03*
X-24260D03*
X-22690D03*
X-21110D03*
X-19540D03*
X-17960D03*
X-16390D03*
X-14810D03*
Y55300D03*
X-16390D03*
X-17960D03*
X-19540D03*
X-21110D03*
X-22690D03*
X-24260D03*
X-25840D03*
X-27410D03*
X-28980D03*
X-30560D03*
X-13240Y-7700D03*
X-11660D03*
X-10090D03*
X-8510D03*
X-6940D03*
X-5360D03*
X-3790D03*
X-2210D03*
X-640D03*
X940D03*
X2510D03*
Y55300D03*
X940D03*
X-640D03*
X-2210D03*
X-3790D03*
X-5360D03*
X-6940D03*
X-8510D03*
X-10090D03*
X-11660D03*
X-13240D03*
X4090Y-7700D03*
X5660D03*
X7240D03*
X8810D03*
X10390D03*
X11960D03*
X13540D03*
X15110D03*
X16680D03*
X18260D03*
Y55300D03*
X16680D03*
X15110D03*
X13540D03*
X11960D03*
X10390D03*
X8810D03*
X7240D03*
X5660D03*
X4090D03*
G54D129*
X-162390Y-32290D03*
Y-15050D03*
G54D174*
X101460Y179930D03*
X163270Y142130D03*
X162480Y179930D03*
G54D139*
X-155730Y-1650D03*
X-147070D03*
X-59560Y36220D03*
X-50900D03*
X-32050Y-46060D03*
X-40710D03*
X-47710Y73460D03*
X-39050D03*
X-33040Y191070D03*
X-17820Y146710D03*
X-26480D03*
X-17700Y138810D03*
X-26360D03*
X-24380Y191070D03*
X98430Y2610D03*
X107090D03*
G54D136*
X-166310Y133800D03*
Y143800D03*
X-138090Y97720D03*
Y107720D03*
Y117720D03*
X-82800Y159010D03*
X-92800D03*
X-72800D03*
X-47030Y-66460D03*
X-54910D03*
X-46840Y-31010D03*
X-52800Y159010D03*
X-62800D03*
X-37030Y-66460D03*
X-36840Y-31010D03*
X-30990Y115450D03*
X-40990D03*
Y105450D03*
X-30990Y125450D03*
X-40990D03*
X-32800Y159010D03*
X-42800D03*
X-26840Y-31010D03*
X-16840D03*
X-12800Y159010D03*
X-22800D03*
X-6840Y-31010D03*
X3160D03*
X13160D03*
X23190Y159060D03*
X13190D03*
X33190Y-31010D03*
Y159060D03*
X53190Y-31010D03*
X43190D03*
X53190Y159060D03*
X43190D03*
X73190Y-31010D03*
X63190D03*
X73190Y159060D03*
X63190D03*
G54D164*
X-98250Y-28660D03*
Y-13660D03*
Y-18660D03*
Y-23660D03*
X-68250Y-28660D03*
Y-23660D03*
Y-18660D03*
Y-13660D03*
G54D18*
X171960Y94950D03*
G54D122*
X6260Y-80710D03*
G54D165*
X-99710Y72730D03*
X-96560D03*
X-93410D03*
X-90260D03*
X-87110D03*
Y120990D03*
X-90260D03*
X-93410D03*
X-96560D03*
X-99710D03*
X-83960Y72730D03*
X-80810D03*
X-77660D03*
X-74510D03*
X-71360D03*
X-68210D03*
Y120990D03*
X-71360D03*
X-74510D03*
X-77660D03*
X-80810D03*
X-83960D03*
X-5710Y85760D03*
X-3160D03*
X-600D03*
X1960D03*
Y132060D03*
X-600D03*
X-3160D03*
X-5710D03*
X4520Y85760D03*
X7080D03*
X9640D03*
X12200D03*
X14760D03*
X17320D03*
X19880D03*
Y132060D03*
X17320D03*
X14760D03*
X12200D03*
X9640D03*
X7080D03*
X4520D03*
X22430Y85760D03*
X24990D03*
X27550D03*
X30110D03*
X32670D03*
X35230D03*
X37790D03*
Y132060D03*
X35230D03*
X32670D03*
X30110D03*
X27550D03*
X24990D03*
X22430D03*
X40350Y85760D03*
X42910D03*
X45470D03*
X48030D03*
X50580D03*
X53140D03*
Y132060D03*
X50580D03*
X48030D03*
X45470D03*
X42910D03*
X40350D03*
X55700Y85760D03*
X58260D03*
X60820D03*
X63380D03*
X65940D03*
X68500D03*
X71060D03*
Y132060D03*
X68500D03*
X65940D03*
X63380D03*
X60820D03*
X58260D03*
X55700D03*
X73620Y85760D03*
X76170D03*
X73620Y132060D03*
G54D17*
X171960Y124950D03*
G54D157*
X121690Y43230D03*
Y41260D03*
Y39300D03*
Y37330D03*
Y35360D03*
Y33390D03*
Y31420D03*
Y29450D03*
Y51110D03*
Y49140D03*
Y47170D03*
Y45200D03*
X157130Y29450D03*
Y31420D03*
Y33390D03*
Y35360D03*
Y37330D03*
Y39300D03*
Y41260D03*
Y43230D03*
Y45200D03*
Y47170D03*
Y49140D03*
Y51110D03*
G54D123*
X6260Y-65750D03*
G54D149*
X-161010Y185430D03*
X-135410D03*
G54D147*
X-156250Y14530D03*
X-124750D03*
G54D175*
X-143750Y-12670D03*
X-130750D03*
G54D172*
X186860Y-48530D03*
Y-24910D03*
G54D162*
X110470Y110300D03*
Y125300D03*
Y120300D03*
Y115300D03*
X141570D03*
Y120340D03*
Y125340D03*
G54D132*
X1070Y-43830D03*
X-2670Y-52490D03*
X4810D03*
G54D14*
X-92390Y137200D03*
X-76160Y16040D03*
X-73170Y137200D03*
X-56940Y16040D03*
X181200Y32640D03*
Y51860D03*
G54D173*
X123110Y140160D03*
X127440D03*
X131770D03*
X136100D03*
X140430D03*
X144770D03*
X149100D03*
X153430D03*
X157760D03*
G54D156*
X1430Y176270D03*
Y188870D03*
G54D151*
X192030Y42250D03*
G54D150*
X-82780Y148030D03*
X-66550Y5210D03*
G54D127*
X119960Y182480D03*
X151260D03*
G54D116*
X37710Y-83860D03*
Y-61810D03*
X45590Y-93700D03*
Y-69290D03*
Y-47250D03*
X72390Y-83860D03*
Y-61810D03*
X80270Y-93700D03*
Y-69290D03*
Y-47250D03*
G54D155*
X128580Y22560D03*
X130550D03*
X132520D03*
X134490D03*
X136460D03*
X138430D03*
X140390D03*
X142360D03*
Y58000D03*
X140390D03*
X138430D03*
X136460D03*
X134490D03*
X132520D03*
X130550D03*
X128580D03*
X144330Y22560D03*
X146300D03*
X148270D03*
X150240D03*
X148270Y58000D03*
X146300D03*
X144330D03*
M02*
